<svg height="488" viewBox="0 0 736 366" width="736pt" xmlns="http://www.w3.org/2000/svg" xmlns:xlink="http://www.w3.org/1999/xlink"><defs><style>*{stroke-linecap:butt;stroke-linejoin:round;stroke-miterlimit:100000}</style></defs><g id="figure_1"><path d="M0 366.6h736.4V0H0v366.6z" fill="none" id="patch_1"/><g id="axes_1"><path d="M53.64 319.63h669.6v-288H53.64v288z" fill="none" id="patch_2"/><g id="matplotlib.axis_1"><g id="xtick_1"><path clip-path="url(#p1326272b7a)" d="M53.64 319.63v-288" fill="none" stroke="#8fa7bf" stroke-linecap="square" stroke-width=".5" id="line2d_1"/><g id="line2d_2"><defs><path d="M0 0v-6" id="m8f752f0722" stroke="#000" stroke-width=".5"/></defs><use x="53.64" xlink:href="#m8f752f0722" y="319.63" stroke="#000" stroke-width=".5"/></g><g id="text_1"><defs><path d="M24.9-1.2c12.7 0 20.4 11.9 20.4 33.3S37.6 65 24.9 65C12.1 65 4.4 53.5 4.4 32.1S12.1-1.2 24.9-1.2m0 6.6c-7.5 0-12.5 8-12.5 26.7s5 26.3 12.5 26.3c7.4 0 12.4-7.6 12.4-26.3 0-18.7-5-26.7-12.4-26.7" id="SourceSansPro-Regular-30"/></defs><use xlink:href="#SourceSansPro-Regular-30" transform="matrix(.12 0 0 -.12 50.66 338.18)"/></g></g><g id="xtick_2"><path clip-path="url(#p1326272b7a)" d="M137.34 319.63v-288" fill="none" stroke="#8fa7bf" stroke-linecap="square" stroke-width=".5" id="line2d_3"/><use x="137.34" xlink:href="#m8f752f0722" y="319.63" stroke="#000" stroke-width=".5" id="line2d_4"/><g id="text_2"><defs><path d="M7.9 0h36v6.8H30.7v57h-6.3c-3.5-2.1-7.7-3.7-13.5-4.7v-5.3h11.6v-47H7.9z" id="SourceSansPro-Regular-31"/></defs><g transform="matrix(.12 0 0 -.12 131.38 338.18)"><use xlink:href="#SourceSansPro-Regular-31"/><use x="49.7" xlink:href="#SourceSansPro-Regular-30"/></g></g></g><g id="xtick_3"><path clip-path="url(#p1326272b7a)" d="M221.04 319.63v-288" fill="none" stroke="#8fa7bf" stroke-linecap="square" stroke-width=".5" id="line2d_5"/><use x="221.04" xlink:href="#m8f752f0722" y="319.63" stroke="#000" stroke-width=".5" id="line2d_6"/><g id="text_3"><defs><path d="M4 0h41.2v7.1H26.7c-3.3 0-7.2-.3-10.7-.6 15.1 15.8 26 27.7 26 39.7C42 57.5 34.7 65 22.9 65c-8.3 0-14-3.9-19.3-9.7l4.7-4.7c3.7 4.3 8.3 7.7 13.6 7.7C30 58.3 34 53.1 34 45.8 34 35.5 23.2 24 4 4.9z" id="SourceSansPro-Regular-32"/></defs><g transform="matrix(.12 0 0 -.12 215.08 338.18)"><use xlink:href="#SourceSansPro-Regular-32"/><use x="49.7" xlink:href="#SourceSansPro-Regular-30"/></g></g></g><g id="xtick_4"><path clip-path="url(#p1326272b7a)" d="M304.74 319.63v-288" fill="none" stroke="#8fa7bf" stroke-linecap="square" stroke-width=".5" id="line2d_7"/><use x="304.74" xlink:href="#m8f752f0722" y="319.63" stroke="#000" stroke-width=".5" id="line2d_8"/><g id="text_4"><defs><path d="M2.6 7.8c4.3-4.7 10.8-9 21-9 11.7 0 21 6.9 21 18.2 0 8.8-6.1 14.4-13.8 16.2v.4c6.9 2.6 11.6 7.5 11.6 15.2 0 10.3-8 16.2-19.1 16.2-7.5 0-13.4-3.4-18.3-8l4.4-5.2c3.8 3.8 8.3 6.5 13.6 6.5 6.8 0 11-3.9 11-10.1 0-6.7-4.5-11.9-18.1-11.9V30c15.2 0 20.4-5.1 20.4-12.7 0-7.1-5.5-11.7-13.2-11.7-7.5 0-12.5 3.6-16.3 7.6z" id="SourceSansPro-Regular-33"/></defs><g transform="matrix(.12 0 0 -.12 298.78 338.18)"><use xlink:href="#SourceSansPro-Regular-33"/><use x="49.7" xlink:href="#SourceSansPro-Regular-30"/></g></g></g><g id="xtick_5"><path clip-path="url(#p1326272b7a)" d="M388.44 319.63v-288" fill="none" stroke="#8fa7bf" stroke-linecap="square" stroke-width=".5" id="line2d_9"/><use x="388.44" xlink:href="#m8f752f0722" y="319.63" stroke="#000" stroke-width=".5" id="line2d_10"/><g id="text_5"><defs><path d="M10.4 24.2L25.3 46c1.8 3.1 3.6 5.9 5.2 9h.4c-.2-3.4-.5-8.9-.5-12.3V24.2zm36.5 0h-8.7v39.6H29L1.7 23v-5.4h28.7V0h7.8v17.6h8.7z" id="SourceSansPro-Regular-34"/></defs><g transform="matrix(.12 0 0 -.12 382.48 338.18)"><use xlink:href="#SourceSansPro-Regular-34"/><use x="49.7" xlink:href="#SourceSansPro-Regular-30"/></g></g></g><g id="xtick_6"><path clip-path="url(#p1326272b7a)" d="M472.14 319.63v-288" fill="none" stroke="#8fa7bf" stroke-linecap="square" stroke-width=".5" id="line2d_11"/><use x="472.14" xlink:href="#m8f752f0722" y="319.63" stroke="#000" stroke-width=".5" id="line2d_12"/><g id="text_6"><defs><path d="M2.5 7.5c4.4-4.4 10.7-8.7 20.9-8.7 11.1 0 21.5 7.8 21.5 21.6s-8.9 20-19.8 20c-3.9 0-6.8-1-9.8-2.6L17 56.7h24.7v7.1H9.8L7.7 33.1l4.4-2.8c3.8 2.5 6.5 3.9 10.9 3.9 8.2 0 13.6-5.2 13.6-14 0-8.9-6.2-14.6-14-14.6-7.5 0-12.3 3.5-16.1 7.3z" id="SourceSansPro-Regular-35"/></defs><g transform="matrix(.12 0 0 -.12 466.18 338.18)"><use xlink:href="#SourceSansPro-Regular-35"/><use x="49.7" xlink:href="#SourceSansPro-Regular-30"/></g></g></g><g id="xtick_7"><path clip-path="url(#p1326272b7a)" d="M555.84 319.63v-288" fill="none" stroke="#8fa7bf" stroke-linecap="square" stroke-width=".5" id="line2d_13"/><use x="555.84" xlink:href="#m8f752f0722" y="319.63" stroke="#000" stroke-width=".5" id="line2d_14"/><g id="text_7"><defs><path d="M26.8 5.3c-8.1 0-13 6.7-14 19.1 4.3 6 9.3 8.4 13.3 8.4 7.9 0 11.8-5.2 11.8-13.5 0-8.4-4.8-14-11.1-14m17.7 52.9C40.9 62.1 36 65 29.1 65 16.4 65 4.8 55.1 4.8 29.5c0-20.5 9.5-30.7 22-30.7 10.3 0 18.9 8.3 18.9 20.5 0 13.1-7.2 19.7-18.2 19.7-5.2 0-10.9-3.1-14.9-8 .4 20.2 7.9 27.1 16.8 27.1 4 0 7.9-1.9 10.5-5z" id="SourceSansPro-Regular-36"/></defs><g transform="matrix(.12 0 0 -.12 549.88 338.18)"><use xlink:href="#SourceSansPro-Regular-36"/><use x="49.7" xlink:href="#SourceSansPro-Regular-30"/></g></g></g><g id="xtick_8"><path clip-path="url(#p1326272b7a)" d="M639.54 319.63v-288" fill="none" stroke="#8fa7bf" stroke-linecap="square" stroke-width=".5" id="line2d_15"/><use x="639.54" xlink:href="#m8f752f0722" y="319.63" stroke="#000" stroke-width=".5" id="line2d_16"/><g id="text_8"><defs><path d="M17.7 0h8.5c1.1 24.9 4.2 39.4 19.3 58.7v5.1H4.4v-7.1h31.8C23.6 39.2 18.8 24 17.7 0" id="SourceSansPro-Regular-37"/></defs><g transform="matrix(.12 0 0 -.12 633.58 338.18)"><use xlink:href="#SourceSansPro-Regular-37"/><use x="49.7" xlink:href="#SourceSansPro-Regular-30"/></g></g></g><g id="xtick_9"><path clip-path="url(#p1326272b7a)" d="M723.24 319.63v-288" fill="none" stroke="#8fa7bf" stroke-linecap="square" stroke-width=".5" id="line2d_17"/><use x="723.24" xlink:href="#m8f752f0722" y="319.63" stroke="#000" stroke-width=".5" id="line2d_18"/><g id="text_9"><defs><path d="M11.5 17.1c0 5.8 3.8 10.5 8.9 13.9 9.2-3.7 17.3-6.7 17.3-14.9 0-6.6-5.1-11.2-12.5-11.2-7.8 0-13.7 5.1-13.7 12.2m18 17.7c-7.7 3-14.7 6.2-14.7 13.8 0 6.2 4.4 10.3 10.3 10.3 7 0 11.1-5 11.1-11.3 0-4.7-2.4-9-6.7-12.8M4.1 16.3C4.1 6.2 13-1.2 25-1.2c12.4 0 20.6 7.5 20.6 17 0 8.6-5.4 13.1-11.1 16.4v.4c3.9 3 8.8 8.7 8.8 15.4 0 9.9-6.9 17-18 17C15 65 7.2 58.4 7.2 48.6c0-6.7 4.2-11.4 8.9-14.7v-.4c-6-3.2-12-8.9-12-17.2" id="SourceSansPro-Regular-38"/></defs><g transform="matrix(.12 0 0 -.12 717.28 338.18)"><use xlink:href="#SourceSansPro-Regular-38"/><use x="49.7" xlink:href="#SourceSansPro-Regular-30"/></g></g></g><g id="text_10"><defs><path d="M8.2 0h8.2v35.2c4.5 5 8.6 7.5 12.2 7.5 6.2 0 9.1-3.9 9.1-13V0h8.2v35.2c4.5 5 8.4 7.5 12.2 7.5 6.1 0 9-3.9 9-13V0h8.2v30.8c0 12.4-4.8 19-14.8 19-5.9 0-10.9-3.8-16-9.3-2 5.8-6 9.3-13.4 9.3-5.8 0-10.9-3.6-15.1-8.2h-.3l-.7 7H8.2z" id="SourceSansPro-Regular-6d"/><path d="M9.6 15c0-9.6 3.5-16.2 13.9-16.2 3 0 6.3.9 9 1.8l-1.6 6.2c-1.6-.6-3.8-1.3-5.5-1.3-5.6 0-7.5 3.4-7.5 9.4v27H31v6.7H17.9v13.6H11l-1-13.6-7.6-.5v-6.2h7.2z" id="SourceSansPro-Regular-74"/><path d="M8.2 0h8.2v31.2c3.3 8.2 8.2 11.2 12.3 11.2 2 0 3.1-.3 4.7-.8l1.6 7.2a12 12 0 0 1-5.2 1c-5.5 0-10.5-3.9-13.8-10h-.3l-.7 8.8H8.2z" id="SourceSansPro-Regular-72"/><path d="M21.4-17.6l5.1 2.4C18.8-2.5 15 12.6 15 27.8s3.8 30.3 11.5 43l-5.1 2.4C13.1 59.8 8.2 45.4 8.2 27.8c0-17.6 4.9-32 13.2-45.4" id="SourceSansPro-Regular-28"/><path d="M6.7-17c8.1 3.4 13.1 10.1 13.1 18.7 0 6-2.6 9.7-6.9 9.7-3.3 0-6.1-2.2-6.1-5.8 0-3.7 2.7-5.7 5.9-5.7.3 0 .7 0 1 .1 0-5.4-3.4-9.7-9-12.2z" id="SourceSansPro-Regular-2c"/><path d="M4.1 21.9h23v6.3h-23z" id="SourceSansPro-Regular-2d"/><path d="M12.4 58.6c3.2 0 5.7 2.2 5.7 5.3 0 3.2-2.5 5.3-5.7 5.3s-5.7-2.1-5.7-5.3c0-3.1 2.5-5.3 5.7-5.3M8.2 0h8.2v48.6H8.2z" id="SourceSansPro-Regular-69"/><path d="M4.6 24.2C4.6 8.1 15.2-1.2 27.1-1.2s22.5 9.3 22.5 25.4c0 16.3-10.6 25.6-22.5 25.6S4.6 40.5 4.6 24.2m8.5 0c0 11.2 5.7 18.8 14 18.8 8.4 0 14-7.6 14-18.8 0-11.1-5.6-18.6-14-18.6-8.3 0-14 7.5-14 18.6" id="SourceSansPro-Regular-6f"/><path d="M16.2 4.4c4.5-3.5 9-5.6 13.5-5.6 11.1 0 21 9.7 21 26.2 0 15.1-6.7 24.8-19.2 24.8-5.7 0-11.1-3.1-15.5-6.8h-.3l-.7 5.6H8.2v-69.1h8.2v16.4zm.2 6.4v25.5c4.8 4.3 8.9 6.6 13 6.6 9.2 0 12.8-7.2 12.8-17.9 0-12-5.9-19.3-13.9-19.3-3.2 0-7.5 1.4-11.9 5.1" id="SourceSansPro-Regular-70"/><path d="M8.3-5.5c0-5.9-1.2-9.5-6-9.5-1.7 0-3.4.4-4.6.8L-4-20.4c1.7-.7 4.2-1.3 7.2-1.3 9.7 0 13.3 6.3 13.3 16.2v54.1H8.3zm4.2 64.1c3.1 0 5.6 2.2 5.6 5.3 0 3.2-2.5 5.3-5.6 5.3-3.2 0-5.7-2.1-5.7-5.3 0-3.1 2.5-5.3 5.7-5.3" id="SourceSansPro-Regular-6a"/><path d="M4.9-13.4l-1.6-6.5c1.6-.6 3.5-1 5.7-1 9.8 0 14.8 7.3 18.2 16.9l18.3 52.6h-8l-8.7-26.9c-1.3-4.3-2.7-9.3-4.1-13.7h-.4c-1.5 4.5-3.2 9.5-4.7 13.7L9.7 48.6H1.2L20.7-.1l-1.1-3.6c-2-6-5.5-10.4-11-10.4-1.2 0-2.7.4-3.7.7" id="SourceSansPro-Regular-79"/><path d="M3.8-15.2l5.1-2.4c8.3 13.4 13.2 27.8 13.2 45.4 0 17.6-4.9 32-13.2 45.4l-5.1-2.4c7.7-12.7 11.5-27.8 11.5-43s-3.8-30.3-11.5-43" id="SourceSansPro-Regular-29"/><path d="M11.7-8.2c0 2.8 1.5 5.7 5 8.2 2.1-.6 4.4-.8 6.3-.8h8.4c6.3 0 9.8-1.5 9.8-6 0-5.1-6.1-9.9-15.4-9.9-8.8 0-14.1 3.3-14.1 8.5M4.5-9.3c0-8.4 8.2-13.1 20.1-13.1 15.1 0 24.6 7.8 24.6 16.8 0 8.1-5.7 11.6-17 11.6h-9.4c-6.6 0-8.6 2.2-8.6 5.3 0 2.7 1.4 4.3 3.1 5.8 2.2-1.1 4.9-1.7 7.3-1.7 9.9 0 17.8 6.5 17.8 16.9 0 4.1-1.7 7.8-4 10h10v6.3H31.5c-1.8.7-4.2 1.2-6.9 1.2-9.9 0-18.3-6.7-18.3-17.3 0-5.8 3.1-10.5 6.3-13.1V19c-2.5-1.7-5.3-4.9-5.3-9a9 9 0 0 1 4.3-7.9v-.4c-4.4-3-7.1-6.9-7.1-11m20.1 30.2c-5.6 0-10.3 4.5-10.3 11.6s4.6 11.3 10.3 11.3c5.7 0 10.3-4.2 10.3-11.3 0-7.1-4.7-11.6-10.3-11.6" id="SourceSansPro-Regular-67"/><path d="M7.5 17.8c0-12.4 4.6-19 14.9-19 6.7 0 11.5 3.5 16 8.8h.3l.7-7.6h6.8v48.6H38V14.1c-4.6-5.7-8.1-8.2-13.1-8.2-6.4 0-9.1 3.9-9.1 13v29.7H7.5z" id="SourceSansPro-Regular-75"/><path d="M2.8 5.5C7.4 1.7 14-1.2 20.9-1.2c11.5 0 17.8 6.6 17.8 14.5 0 9.2-7.8 12.1-14.8 14.7-5.5 2.1-10.8 3.8-10.8 8.4 0 3.7 2.8 7 8.9 7 4.3 0 7.8-1.8 11.1-4.3l3.9 5.2c-3.7 3-9 5.5-15.1 5.5-10.5 0-16.7-6-16.7-13.8 0-8.2 7.6-11.5 14.5-14 5.3-2 11.1-4.2 11.1-9.2 0-4.2-3.2-7.6-9.6-7.6-5.8 0-10.1 2.4-14.3 5.8z" id="SourceSansPro-Regular-73"/><path d="M8.2 0h8.2v35.2c4.9 4.9 8.3 7.5 13.3 7.5 6.4 0 9.2-3.9 9.2-13V0h8.2v30.8c0 12.4-4.6 19-14.8 19-6.7 0-11.7-3.6-16.3-8.2h-.3l-.7 7H8.2z" id="SourceSansPro-Regular-6e"/><path d="M31.9 70.8c-2.2.9-5.1 1.6-8.1 1.6-9.7 0-14.2-6.2-14.2-16.1v-7.7L3 48.1v-6.2h6.6V0h8.2v41.9h10.3v6.7H17.8v7.7c0 6.2 2.2 9.4 6.8 9.4 1.8 0 3.7-.4 5.5-1.2z" id="SourceSansPro-Regular-66"/><path d="M8.2 0h8.2v35.2c4.9 4.9 8.3 7.5 13.3 7.5 6.4 0 9.2-3.9 9.2-13V0h8.2v30.8c0 12.4-4.6 19-14.8 19-6.7 0-11.6-3.6-16.2-8l.3 10v19.4H8.2z" id="SourceSansPro-Regular-68"/><path d="M4.6 24.2C4.6 8.3 14.9-1.2 27.9-1.2c6.6 0 11.8 2.3 16 5L41 9.2c-3.6-2.3-7.5-3.8-12.1-3.8-9.3 0-15.6 6.6-16.2 17.1h32.8c.2 1.2.3 2.8.3 4.5 0 13.9-7 22.8-19.4 22.8-11.1 0-21.8-9.7-21.8-25.6m8 3.7c1 9.8 7.2 15.4 14 15.4 7.6 0 12-5.5 12-15.4z" id="SourceSansPro-Regular-65"/><path d="M9 0h37v7.1H17.3v58.5H9z" id="SourceSansPro-Regular-4c"/></defs><g transform="matrix(.144 0 0 -.144 244.9 356.18)"><use xlink:href="#SourceSansPro-Regular-4c"/><use x="48.6" xlink:href="#SourceSansPro-Regular-65"/><use x="98.2" xlink:href="#SourceSansPro-Regular-6e"/><use x="152.9" xlink:href="#SourceSansPro-Regular-67"/><use x="203.3" xlink:href="#SourceSansPro-Regular-74"/><use x="237.1" xlink:href="#SourceSansPro-Regular-68"/><use x="291.5" xlink:href="#SourceSansPro-Regular-20"/><use x="311.7" xlink:href="#SourceSansPro-Regular-6f"/><use x="365.9" xlink:href="#SourceSansPro-Regular-66"/><use x="395.1" xlink:href="#SourceSansPro-Regular-20"/><use x="415.3" xlink:href="#SourceSansPro-Regular-6a"/><use x="440" xlink:href="#SourceSansPro-Regular-6f"/><use x="494.2" xlink:href="#SourceSansPro-Regular-75"/><use x="548.6" xlink:href="#SourceSansPro-Regular-72"/><use x="583.3" xlink:href="#SourceSansPro-Regular-6e"/><use x="638" xlink:href="#SourceSansPro-Regular-65"/><use x="687.6" xlink:href="#SourceSansPro-Regular-79"/><use x="734.3" xlink:href="#SourceSansPro-Regular-20"/><use x="754.5" xlink:href="#SourceSansPro-Regular-28"/><use x="784.8" xlink:href="#SourceSansPro-Regular-6d"/><use x="867.7" xlink:href="#SourceSansPro-Regular-69"/><use x="892.3" xlink:href="#SourceSansPro-Regular-6e"/><use x="947" xlink:href="#SourceSansPro-Regular-75"/><use x="1001.4" xlink:href="#SourceSansPro-Regular-74"/><use x="1035.2" xlink:href="#SourceSansPro-Regular-65"/><use x="1084.8" xlink:href="#SourceSansPro-Regular-73"/><use x="1126.7" xlink:href="#SourceSansPro-Regular-2c"/><use x="1151.6" xlink:href="#SourceSansPro-Regular-20"/><use x="1171.8" xlink:href="#SourceSansPro-Regular-69"/><use x="1196.4" xlink:href="#SourceSansPro-Regular-6e"/><use x="1251.1" xlink:href="#SourceSansPro-Regular-20"/><use x="1271.3" xlink:href="#SourceSansPro-Regular-35"/><use x="1321" xlink:href="#SourceSansPro-Regular-2d"/><use x="1352.1" xlink:href="#SourceSansPro-Regular-6d"/><use x="1435" xlink:href="#SourceSansPro-Regular-69"/><use x="1459.6" xlink:href="#SourceSansPro-Regular-6e"/><use x="1514.3" xlink:href="#SourceSansPro-Regular-75"/><use x="1568.7" xlink:href="#SourceSansPro-Regular-74"/><use x="1602.5" xlink:href="#SourceSansPro-Regular-65"/><use x="1652.1" xlink:href="#SourceSansPro-Regular-20"/><use x="1672.3" xlink:href="#SourceSansPro-Regular-67"/><use x="1722.7" xlink:href="#SourceSansPro-Regular-72"/><use x="1757.4" xlink:href="#SourceSansPro-Regular-6f"/><use x="1811.6" xlink:href="#SourceSansPro-Regular-75"/><use x="1866" xlink:href="#SourceSansPro-Regular-70"/><use x="1921.5" xlink:href="#SourceSansPro-Regular-73"/><use x="1963.4" xlink:href="#SourceSansPro-Regular-29"/></g></g></g><g id="matplotlib.axis_2"><g id="ytick_1"><path clip-path="url(#p1326272b7a)" d="M53.64 319.63h669.6" fill="none" stroke="#8fa7bf" stroke-linecap="square" stroke-width=".5" id="line2d_19"/><g id="line2d_20"><defs><path d="M0 0h6" id="m6f3a227cc2" stroke="#000" stroke-width=".5"/></defs><use x="53.64" xlink:href="#m6f3a227cc2" y="319.63" stroke="#000" stroke-width=".5"/></g><use xlink:href="#SourceSansPro-Regular-30" transform="matrix(.12 0 0 -.12 37.68 322.68)" id="text_11"/></g><g id="ytick_2"><path clip-path="url(#p1326272b7a)" d="M53.64 278.5h669.6" fill="none" stroke="#8fa7bf" stroke-linecap="square" stroke-width=".5" id="line2d_21"/><use x="53.64" xlink:href="#m6f3a227cc2" y="278.49" stroke="#000" stroke-width=".5" id="line2d_22"/><g transform="matrix(.12 0 0 -.12 31.72 281.53)" id="text_12"><use xlink:href="#SourceSansPro-Regular-35"/><use x="49.7" xlink:href="#SourceSansPro-Regular-30"/></g></g><g id="ytick_3"><path clip-path="url(#p1326272b7a)" d="M53.64 237.35h669.6" fill="none" stroke="#8fa7bf" stroke-linecap="square" stroke-width=".5" id="line2d_23"/><use x="53.64" xlink:href="#m6f3a227cc2" y="237.35" stroke="#000" stroke-width=".5" id="line2d_24"/><g transform="matrix(.12 0 0 -.12 25.75 240.39)" id="text_13"><use xlink:href="#SourceSansPro-Regular-31"/><use x="49.7" xlink:href="#SourceSansPro-Regular-30"/><use x="99.4" xlink:href="#SourceSansPro-Regular-30"/></g></g><g id="ytick_4"><path clip-path="url(#p1326272b7a)" d="M53.64 196.2h669.6" fill="none" stroke="#8fa7bf" stroke-linecap="square" stroke-width=".5" id="line2d_25"/><use x="53.64" xlink:href="#m6f3a227cc2" y="196.21" stroke="#000" stroke-width=".5" id="line2d_26"/><g transform="matrix(.12 0 0 -.12 25.75 199.25)" id="text_14"><use xlink:href="#SourceSansPro-Regular-31"/><use x="49.7" xlink:href="#SourceSansPro-Regular-35"/><use x="99.4" xlink:href="#SourceSansPro-Regular-30"/></g></g><g id="ytick_5"><path clip-path="url(#p1326272b7a)" d="M53.64 155.06h669.6" fill="none" stroke="#8fa7bf" stroke-linecap="square" stroke-width=".5" id="line2d_27"/><use x="53.64" xlink:href="#m6f3a227cc2" y="155.06" stroke="#000" stroke-width=".5" id="line2d_28"/><g transform="matrix(.12 0 0 -.12 25.75 158.1)" id="text_15"><use xlink:href="#SourceSansPro-Regular-32"/><use x="49.7" xlink:href="#SourceSansPro-Regular-30"/><use x="99.4" xlink:href="#SourceSansPro-Regular-30"/></g></g><g id="ytick_6"><path clip-path="url(#p1326272b7a)" d="M53.64 113.92h669.6" fill="none" stroke="#8fa7bf" stroke-linecap="square" stroke-width=".5" id="line2d_29"/><use x="53.64" xlink:href="#m6f3a227cc2" y="113.92" stroke="#000" stroke-width=".5" id="line2d_30"/><g transform="matrix(.12 0 0 -.12 25.75 116.96)" id="text_16"><use xlink:href="#SourceSansPro-Regular-32"/><use x="49.7" xlink:href="#SourceSansPro-Regular-35"/><use x="99.4" xlink:href="#SourceSansPro-Regular-30"/></g></g><g id="ytick_7"><path clip-path="url(#p1326272b7a)" d="M53.64 72.78h669.6" fill="none" stroke="#8fa7bf" stroke-linecap="square" stroke-width=".5" id="line2d_31"/><use x="53.64" xlink:href="#m6f3a227cc2" y="72.78" stroke="#000" stroke-width=".5" id="line2d_32"/><g transform="matrix(.12 0 0 -.12 25.75 75.82)" id="text_17"><use xlink:href="#SourceSansPro-Regular-33"/><use x="49.7" xlink:href="#SourceSansPro-Regular-30"/><use x="99.4" xlink:href="#SourceSansPro-Regular-30"/></g></g><g id="ytick_8"><path clip-path="url(#p1326272b7a)" d="M53.64 31.63h669.6" fill="none" stroke="#8fa7bf" stroke-linecap="square" stroke-width=".5" id="line2d_33"/><use x="53.64" xlink:href="#m6f3a227cc2" y="31.63" stroke="#000" stroke-width=".5" id="line2d_34"/><g transform="matrix(.12 0 0 -.12 25.75 34.68)" id="text_18"><use xlink:href="#SourceSansPro-Regular-33"/><use x="49.7" xlink:href="#SourceSansPro-Regular-35"/><use x="99.4" xlink:href="#SourceSansPro-Regular-30"/></g></g><g id="text_19"><defs><path d="M8.2 0h6.6l.7 4.8h.3c4.3-3.8 9.4-6 13.9-6 11.1 0 21 9.7 21 26.3 0 15-6.7 24.7-19.3 24.7-5.4 0-10.8-2.9-15.2-6.8l.2 8.8v19.4H8.2zm8.2 10.8v25.5c4.6 4.3 8.9 6.6 13 6.6 9.2 0 12.8-7.2 12.8-17.9 0-12-5.9-19.3-13.9-19.3-3.2 0-7.6 1.4-11.9 5.1" id="SourceSansPro-Regular-62"/><path d="M9 0h7.9v34.3c0 6.9-.6 13.9-1.1 20.5h.4l7.1-13.5L47.1 0h8.6v65.6h-7.9V31.7c0-6.9.6-14.3 1-20.9h-.4l-7.1 13.6-23.7 41.2H9z" id="SourceSansPro-Regular-4e"/></defs><g transform="matrix(0 -.144 -.144 0 17.63 235.15)"><use xlink:href="#SourceSansPro-Regular-4e"/><use x="64.7" xlink:href="#SourceSansPro-Regular-75"/><use x="119.1" xlink:href="#SourceSansPro-Regular-6d"/><use x="202" xlink:href="#SourceSansPro-Regular-62"/><use x="257.5" xlink:href="#SourceSansPro-Regular-65"/><use x="307.1" xlink:href="#SourceSansPro-Regular-72"/><use x="341.8" xlink:href="#SourceSansPro-Regular-20"/><use x="362" xlink:href="#SourceSansPro-Regular-6f"/><use x="416.2" xlink:href="#SourceSansPro-Regular-66"/><use x="445.4" xlink:href="#SourceSansPro-Regular-20"/><use x="465.6" xlink:href="#SourceSansPro-Regular-6a"/><use x="490.3" xlink:href="#SourceSansPro-Regular-6f"/><use x="544.5" xlink:href="#SourceSansPro-Regular-75"/><use x="598.9" xlink:href="#SourceSansPro-Regular-72"/><use x="633.6" xlink:href="#SourceSansPro-Regular-6e"/><use x="688.3" xlink:href="#SourceSansPro-Regular-65"/><use x="737.9" xlink:href="#SourceSansPro-Regular-79"/><use x="784.6" xlink:href="#SourceSansPro-Regular-73"/></g></g></g><path clip-path="url(#p1326272b7a)" d="M53.64 319.63H95.5 53.64z" fill="#1369bf" stroke="#000" stroke-width=".5" id="patch_3"/><path clip-path="url(#p1326272b7a)" d="M95.5 319.63h41.84v-11.52H95.5z" fill="#1369bf" stroke="#000" stroke-width=".5" id="patch_4"/><path clip-path="url(#p1326272b7a)" d="M137.34 319.63h41.85v-9.05h-41.85z" fill="#1369bf" stroke="#000" stroke-width=".5" id="patch_5"/><path clip-path="url(#p1326272b7a)" d="M179.2 319.63h41.84v-18.1H179.2z" fill="#1369bf" stroke="#000" stroke-width=".5" id="patch_6"/><path clip-path="url(#p1326272b7a)" d="M221.04 319.63h41.85v-111.9h-41.85z" fill="#1369bf" stroke="#000" stroke-width=".5" id="patch_7"/><path clip-path="url(#p1326272b7a)" d="M262.9 319.63h41.84V55.5H262.9z" fill="#1369bf" stroke="#000" stroke-width=".5" id="patch_8"/><path clip-path="url(#p1326272b7a)" d="M304.74 319.63h41.85V192.91h-41.85z" fill="#1369bf" stroke="#000" stroke-width=".5" id="patch_9"/><path clip-path="url(#p1326272b7a)" d="M346.6 319.63h41.84v-79H346.6z" fill="#1369bf" stroke="#000" stroke-width=".5" id="patch_10"/><path clip-path="url(#p1326272b7a)" d="M388.44 319.63h41.85v-56.77h-41.85z" fill="#1369bf" stroke="#000" stroke-width=".5" id="patch_11"/><path clip-path="url(#p1326272b7a)" d="M430.3 319.63h41.84v-37.02H430.3z" fill="#1369bf" stroke="#000" stroke-width=".5" id="patch_12"/><path clip-path="url(#p1326272b7a)" d="M472.14 319.63H514v-17.28h-41.85z" fill="#1369bf" stroke="#000" stroke-width=".5" id="patch_13"/><path clip-path="url(#p1326272b7a)" d="M514 319.63h41.84v-9.05H514z" fill="#1369bf" stroke="#000" stroke-width=".5" id="patch_14"/><path clip-path="url(#p1326272b7a)" d="M555.84 319.63h41.85v-5.76h-41.85z" fill="#1369bf" stroke="#000" stroke-width=".5" id="patch_15"/><path clip-path="url(#p1326272b7a)" d="M597.7 319.63h41.84V318H597.7z" fill="#1369bf" stroke="#000" stroke-width=".5" id="patch_16"/><path clip-path="url(#p1326272b7a)" d="M639.54 319.63h41.85V318h-41.85z" fill="#1369bf" stroke="#000" stroke-width=".5" id="patch_17"/><path clip-path="url(#p1326272b7a)" d="M681.4 319.63h41.84v-.82H681.4z" fill="#1369bf" stroke="#000" stroke-width=".5" id="patch_18"/><path d="M53.64 319.63v-288" fill="none" stroke="#000" stroke-linecap="square" id="patch_19"/><path d="M53.64 319.63h669.6" fill="none" stroke="#000" stroke-linecap="square" id="patch_20"/><g id="text_20"><defs><path d="M3.1 9.3C6.9 2.4 12.9-1.2 21.2-1.2 34-1.2 39.3 8 39.3 19.3v46.3h-8.4V20.1c0-10-3.5-14-10.5-14-4.7 0-8.4 2.2-11.3 7.4z" id="SourceSansPro-Regular-4a"/></defs><g transform="matrix(.1728 0 0 -.1728 340.63 19.43)"><use xlink:href="#SourceSansPro-Regular-4a"/><use x="48" xlink:href="#SourceSansPro-Regular-6f"/><use x="102.2" xlink:href="#SourceSansPro-Regular-75"/><use x="156.6" xlink:href="#SourceSansPro-Regular-72"/><use x="191.3" xlink:href="#SourceSansPro-Regular-6e"/><use x="246" xlink:href="#SourceSansPro-Regular-65"/><use x="295.6" xlink:href="#SourceSansPro-Regular-79"/><use x="342.3" xlink:href="#SourceSansPro-Regular-20"/><use x="362.5" xlink:href="#SourceSansPro-Regular-74"/><use x="396.3" xlink:href="#SourceSansPro-Regular-69"/><use x="420.9" xlink:href="#SourceSansPro-Regular-6d"/><use x="503.8" xlink:href="#SourceSansPro-Regular-65"/></g></g></g></g><defs><clipPath id="p1326272b7a"><path d="M53.64 31.63h669.6v288H53.64z"/></clipPath></defs></svg>