<svg height="488" viewBox="0 0 618 366" width="824" xmlns="http://www.w3.org/2000/svg" xmlns:xlink="http://www.w3.org/1999/xlink"><defs><style>*{stroke-linecap:butt;stroke-linejoin:round;stroke-miterlimit:100000}</style></defs><g id="figure_1"><path d="M0 366.38h618.5V0H0v366.38z" fill="none" id="patch_1"/><g id="axes_1"><path d="M53.3 319.91h558v-288h-558v288z" fill="none" id="patch_2"/><g id="matplotlib.axis_1"><g id="xtick_1"><path clip-path="url(#p010828342a)" d="M53.3 319.91v-288" fill="none" stroke="#8fa7bf" stroke-linecap="square" stroke-width=".5" id="line2d_1"/><g id="line2d_2"><defs><path d="M0 0v-6" id="mfbe01e3efa" stroke="#000" stroke-width=".5"/></defs><use x="53.3" xlink:href="#mfbe01e3efa" y="319.91" stroke="#000" stroke-width=".5"/></g><g id="line2d_3"><defs><path d="M0 0v6" id="mfd2a92c865" stroke="#000" stroke-width=".5"/></defs><use x="53.3" xlink:href="#mfd2a92c865" y="31.91" stroke="#000" stroke-width=".5"/></g><g id="text_1"><defs><path d="M7.9 0h36v6.8H30.7v57h-6.3c-3.5-2.1-7.7-3.7-13.5-4.7v-5.3h11.6v-47H7.9z" id="SourceSansPro-Regular-31"/></defs><use xlink:href="#SourceSansPro-Regular-31" transform="matrix(.12 0 0 -.12 50.32 338.46)"/></g></g><g id="xtick_2"><path clip-path="url(#p010828342a)" d="M128.7 319.91v-288" fill="none" stroke="#8fa7bf" stroke-linecap="square" stroke-width=".5" id="line2d_4"/><use x="128.7" xlink:href="#mfbe01e3efa" y="319.91" stroke="#000" stroke-width=".5" id="line2d_5"/><use x="128.7" xlink:href="#mfd2a92c865" y="31.91" stroke="#000" stroke-width=".5" id="line2d_6"/><g id="text_2"><defs><path d="M26.8 5.3c-8.1 0-13 6.7-14 19.1 4.3 6 9.3 8.4 13.3 8.4 7.9 0 11.8-5.2 11.8-13.5 0-8.4-4.8-14-11.1-14m17.7 52.9C40.9 62.1 36 65 29.1 65 16.4 65 4.8 55.1 4.8 29.5c0-20.5 9.5-30.7 22-30.7 10.3 0 18.9 8.3 18.9 20.5 0 13.1-7.2 19.7-18.2 19.7-5.2 0-10.9-3.1-14.9-8 .4 20.2 7.9 27.1 16.8 27.1 4 0 7.9-1.9 10.5-5z" id="SourceSansPro-Regular-36"/></defs><use xlink:href="#SourceSansPro-Regular-36" transform="matrix(.12 0 0 -.12 125.72 338.46)"/></g></g><g id="xtick_3"><path clip-path="url(#p010828342a)" d="M204.1 319.91v-288" fill="none" stroke="#8fa7bf" stroke-linecap="square" stroke-width=".5" id="line2d_7"/><use x="204.11" xlink:href="#mfbe01e3efa" y="319.91" stroke="#000" stroke-width=".5" id="line2d_8"/><use x="204.11" xlink:href="#mfd2a92c865" y="31.91" stroke="#000" stroke-width=".5" id="line2d_9"/><g transform="matrix(.12 0 0 -.12 198.14 338.46)" id="text_3"><use xlink:href="#SourceSansPro-Regular-31"/><use x="49.7" xlink:href="#SourceSansPro-Regular-31"/></g></g><g id="xtick_4"><path clip-path="url(#p010828342a)" d="M279.51 319.91v-288" fill="none" stroke="#8fa7bf" stroke-linecap="square" stroke-width=".5" id="line2d_10"/><use x="279.51" xlink:href="#mfbe01e3efa" y="319.91" stroke="#000" stroke-width=".5" id="line2d_11"/><use x="279.51" xlink:href="#mfd2a92c865" y="31.91" stroke="#000" stroke-width=".5" id="line2d_12"/><g transform="matrix(.12 0 0 -.12 273.55 338.46)" id="text_4"><use xlink:href="#SourceSansPro-Regular-31"/><use x="49.7" xlink:href="#SourceSansPro-Regular-36"/></g></g><g id="xtick_5"><path clip-path="url(#p010828342a)" d="M354.92 319.91v-288" fill="none" stroke="#8fa7bf" stroke-linecap="square" stroke-width=".5" id="line2d_13"/><use x="354.92" xlink:href="#mfbe01e3efa" y="319.91" stroke="#000" stroke-width=".5" id="line2d_14"/><use x="354.92" xlink:href="#mfd2a92c865" y="31.91" stroke="#000" stroke-width=".5" id="line2d_15"/><g id="text_5"><defs><path d="M4 0h41.2v7.1H26.7c-3.3 0-7.2-.3-10.7-.6 15.1 15.8 26 27.7 26 39.7C42 57.5 34.7 65 22.9 65c-8.3 0-14-3.9-19.3-9.7l4.7-4.7c3.7 4.3 8.3 7.7 13.6 7.7C30 58.3 34 53.1 34 45.8 34 35.5 23.2 24 4 4.9z" id="SourceSansPro-Regular-32"/></defs><g transform="matrix(.12 0 0 -.12 348.96 338.46)"><use xlink:href="#SourceSansPro-Regular-32"/><use x="49.7" xlink:href="#SourceSansPro-Regular-31"/></g></g></g><g id="xtick_6"><path clip-path="url(#p010828342a)" d="M430.33 319.91v-288" fill="none" stroke="#8fa7bf" stroke-linecap="square" stroke-width=".5" id="line2d_16"/><use x="430.33" xlink:href="#mfbe01e3efa" y="319.91" stroke="#000" stroke-width=".5" id="line2d_17"/><use x="430.33" xlink:href="#mfd2a92c865" y="31.91" stroke="#000" stroke-width=".5" id="line2d_18"/><g transform="matrix(.12 0 0 -.12 424.36 338.46)" id="text_6"><use xlink:href="#SourceSansPro-Regular-32"/><use x="49.7" xlink:href="#SourceSansPro-Regular-36"/></g></g><g id="xtick_7"><path clip-path="url(#p010828342a)" d="M505.73 319.91v-288" fill="none" stroke="#8fa7bf" stroke-linecap="square" stroke-width=".5" id="line2d_19"/><use x="505.73" xlink:href="#mfbe01e3efa" y="319.91" stroke="#000" stroke-width=".5" id="line2d_20"/><use x="505.73" xlink:href="#mfd2a92c865" y="31.91" stroke="#000" stroke-width=".5" id="line2d_21"/><g id="text_7"><defs><path d="M2.6 7.8c4.3-4.7 10.8-9 21-9 11.7 0 21 6.9 21 18.2 0 8.8-6.1 14.4-13.8 16.2v.4c6.9 2.6 11.6 7.5 11.6 15.2 0 10.3-8 16.2-19.1 16.2-7.5 0-13.4-3.4-18.3-8l4.4-5.2c3.8 3.8 8.3 6.5 13.6 6.5 6.8 0 11-3.9 11-10.1 0-6.7-4.5-11.9-18.1-11.9V30c15.2 0 20.4-5.1 20.4-12.7 0-7.1-5.5-11.7-13.2-11.7-7.5 0-12.5 3.6-16.3 7.6z" id="SourceSansPro-Regular-33"/></defs><g transform="matrix(.12 0 0 -.12 499.77 338.46)"><use xlink:href="#SourceSansPro-Regular-33"/><use x="49.7" xlink:href="#SourceSansPro-Regular-31"/></g></g></g><g id="xtick_8"><path clip-path="url(#p010828342a)" d="M581.14 319.91v-288" fill="none" stroke="#8fa7bf" stroke-linecap="square" stroke-width=".5" id="line2d_22"/><use x="581.14" xlink:href="#mfbe01e3efa" y="319.91" stroke="#000" stroke-width=".5" id="line2d_23"/><use x="581.14" xlink:href="#mfd2a92c865" y="31.91" stroke="#000" stroke-width=".5" id="line2d_24"/><g transform="matrix(.12 0 0 -.12 575.17 338.46)" id="text_8"><use xlink:href="#SourceSansPro-Regular-33"/><use x="49.7" xlink:href="#SourceSansPro-Regular-36"/></g></g><g id="text_9"><defs><path d="M2.8 5.5C7.4 1.7 14-1.2 20.9-1.2c11.5 0 17.8 6.6 17.8 14.5 0 9.2-7.8 12.1-14.8 14.7-5.5 2.1-10.8 3.8-10.8 8.4 0 3.7 2.8 7 8.9 7 4.3 0 7.8-1.8 11.1-4.3l3.9 5.2c-3.7 3-9 5.5-15.1 5.5-10.5 0-16.7-6-16.7-13.8 0-8.2 7.6-11.5 14.5-14 5.3-2 11.1-4.2 11.1-9.2 0-4.2-3.2-7.6-9.6-7.6-5.8 0-10.1 2.4-14.3 5.8z" id="SourceSansPro-Regular-73"/><path d="M5.8 12.6c0-8.7 6.1-13.8 14.3-13.8 6 0 11.4 3.2 16.1 7h.2l.7-5.8h6.8v29.8c0 12.1-5 20-16.9 20-7.8 0-14.6-3.4-19.1-6.3l3.3-5.7C15 40.4 20 43 25.7 43c7.9 0 10-6 10-12.2C15 28.5 5.8 23.2 5.8 12.6m8.1.6c0 6.2 5.5 10.2 21.8 12.2V11.9C31 7.7 27.1 5.4 22.4 5.4c-4.8 0-8.5 2.3-8.5 7.8" id="SourceSansPro-Regular-61"/><path d="M5.2 32.8c0-21.4 12.3-34 29.5-34 8.8 0 16 3.2 20.3 7.6V34H33.5v-6.9h13.9V10c-2.6-2.4-7.1-3.9-11.8-3.9-14 0-21.8 10.4-21.8 26.9 0 16.3 8.5 26.5 21.7 26.5 6.6 0 10.7-2.6 14-6.1l4.7 5.3c-3.8 4-9.8 8.1-18.8 8.1-17.5 0-30.2-12.9-30.2-34" id="SourceSansPro-Regular-47"/><path d="M4.9-13.4l-1.6-6.5c1.6-.6 3.5-1 5.7-1 9.8 0 14.8 7.3 18.2 16.9l18.3 52.6h-8l-8.7-26.9c-1.3-4.3-2.7-9.3-4.1-13.7h-.4c-1.5 4.5-3.2 9.5-4.7 13.7L9.7 48.6H1.2L20.7-.1l-1.1-3.6c-2-6-5.5-10.4-11-10.4-1.2 0-2.7.4-3.7.7" id="SourceSansPro-Regular-79"/><path d="M8.2 9.8c0-7.1 2.5-11 8.7-11 2.2 0 3.6.3 4.7.8l-1.1 6.2c-.9-.2-1.3-.2-1.8-.2-1.2 0-2.3 1-2.3 3.6v62H8.2z" id="SourceSansPro-Regular-6c"/><path d="M16.2 4.4c4.5-3.5 9-5.6 13.5-5.6 11.1 0 21 9.7 21 26.2 0 15.1-6.7 24.8-19.2 24.8-5.7 0-11.1-3.1-15.5-6.8h-.3l-.7 5.6H8.2v-69.1h8.2v16.4zm.2 6.4v25.5c4.8 4.3 8.9 6.6 13 6.6 9.2 0 12.8-7.2 12.8-17.9 0-12-5.9-19.3-13.9-19.3-3.2 0-7.5 1.4-11.9 5.1" id="SourceSansPro-Regular-70"/><path d="M4.7 24.2C4.7 8 12.6-1.2 24.8-1.2c5.7 0 10.9 3.2 14.7 6.9h.3l.7-5.7h6.8v71.2H39V52.5l.4-8.3c-4.3 3.5-8 5.6-13.6 5.6-11.1 0-21.1-9.8-21.1-25.6m8.5.1c0 11.1 6.2 18.6 14 18.6 4 0 7.7-1.4 11.8-5.1V12.4c-4-4.5-7.9-6.7-12.4-6.7-8.5 0-13.4 7-13.4 18.6" id="SourceSansPro-Regular-64"/><path d="M4.6 24.2C4.6 8.3 14.9-1.2 27.9-1.2c6.6 0 11.8 2.3 16 5L41 9.2c-3.6-2.3-7.5-3.8-12.1-3.8-9.3 0-15.6 6.6-16.2 17.1h32.8c.2 1.2.3 2.8.3 4.5 0 13.9-7 22.8-19.4 22.8-11.1 0-21.8-9.7-21.8-25.6m8 3.7c1 9.8 7.2 15.4 14 15.4 7.6 0 12-5.5 12-15.4z" id="SourceSansPro-Regular-65"/><path d="M8.2 0h8.2v35.2c4.5 5 8.6 7.5 12.2 7.5 6.2 0 9.1-3.9 9.1-13V0h8.2v35.2c4.5 5 8.4 7.5 12.2 7.5 6.1 0 9-3.9 9-13V0h8.2v30.8c0 12.4-4.8 19-14.8 19-5.9 0-10.9-3.8-16-9.3-2 5.8-6 9.3-13.4 9.3-5.8 0-10.9-3.6-15.1-8.2h-.3l-.7 7H8.2z" id="SourceSansPro-Regular-6d"/></defs><g transform="matrix(.144 0 0 -.144 289.7 356.17)"><use xlink:href="#SourceSansPro-Regular-47"/><use x="61.7" xlink:href="#SourceSansPro-Regular-61"/><use x="112.9" xlink:href="#SourceSansPro-Regular-6d"/><use x="195.8" xlink:href="#SourceSansPro-Regular-65"/><use x="245.4" xlink:href="#SourceSansPro-Regular-73"/><use x="287.3" xlink:href="#SourceSansPro-Regular-20"/><use x="307.5" xlink:href="#SourceSansPro-Regular-70"/><use x="363" xlink:href="#SourceSansPro-Regular-6c"/><use x="388.5" xlink:href="#SourceSansPro-Regular-61"/><use x="439.7" xlink:href="#SourceSansPro-Regular-79"/><use x="486.4" xlink:href="#SourceSansPro-Regular-65"/><use x="536" xlink:href="#SourceSansPro-Regular-64"/></g></g></g><g id="matplotlib.axis_2"><g id="ytick_1"><path clip-path="url(#p010828342a)" d="M53.3 319.91h558" fill="none" stroke="#8fa7bf" stroke-linecap="square" stroke-width=".5" id="line2d_25"/><g id="line2d_26"><defs><path d="M0 0h6" id="m4f850c133f" stroke="#000" stroke-width=".5"/></defs><use x="53.3" xlink:href="#m4f850c133f" y="319.91" stroke="#000" stroke-width=".5"/></g><g id="line2d_27"><defs><path d="M0 0h-6" id="m44f395b525" stroke="#000" stroke-width=".5"/></defs><use x="611.3" xlink:href="#m44f395b525" y="319.91" stroke="#000" stroke-width=".5"/></g><g id="text_10"><defs><path d="M24.9-1.2c12.7 0 20.4 11.9 20.4 33.3S37.6 65 24.9 65C12.1 65 4.4 53.5 4.4 32.1S12.1-1.2 24.9-1.2m0 6.6c-7.5 0-12.5 8-12.5 26.7s5 26.3 12.5 26.3c7.4 0 12.4-7.6 12.4-26.3 0-18.7-5-26.7-12.4-26.7" id="SourceSansPro-Regular-30"/><path d="M3.4 29.9h42.9v6.2H3.4z" id="SourceSansPro-Regular-2212"/></defs><g transform="matrix(.12 0 0 -.12 25.4 322.95)"><use xlink:href="#SourceSansPro-Regular-2212"/><use x="49.7" xlink:href="#SourceSansPro-Regular-32"/><use x="99.4" xlink:href="#SourceSansPro-Regular-30"/></g></g></g><g id="ytick_2"><path clip-path="url(#p010828342a)" d="M53.3 278.77h558" fill="none" stroke="#8fa7bf" stroke-linecap="square" stroke-width=".5" id="line2d_28"/><use x="53.3" xlink:href="#m4f850c133f" y="278.77" stroke="#000" stroke-width=".5" id="line2d_29"/><use x="611.3" xlink:href="#m44f395b525" y="278.77" stroke="#000" stroke-width=".5" id="line2d_30"/><g transform="matrix(.12 0 0 -.12 25.4 281.81)" id="text_11"><use xlink:href="#SourceSansPro-Regular-2212"/><use x="49.7" xlink:href="#SourceSansPro-Regular-31"/><use x="99.4" xlink:href="#SourceSansPro-Regular-30"/></g></g><g id="ytick_3"><path clip-path="url(#p010828342a)" d="M53.3 237.63h558" fill="none" stroke="#8fa7bf" stroke-linecap="square" stroke-width=".5" id="line2d_31"/><use x="53.3" xlink:href="#m4f850c133f" y="237.63" stroke="#000" stroke-width=".5" id="line2d_32"/><use x="611.3" xlink:href="#m44f395b525" y="237.63" stroke="#000" stroke-width=".5" id="line2d_33"/><use xlink:href="#SourceSansPro-Regular-30" transform="matrix(.12 0 0 -.12 37.33 240.67)" id="text_12"/></g><g id="ytick_4"><path clip-path="url(#p010828342a)" d="M53.3 196.48h558" fill="none" stroke="#8fa7bf" stroke-linecap="square" stroke-width=".5" id="line2d_34"/><use x="53.3" xlink:href="#m4f850c133f" y="196.48" stroke="#000" stroke-width=".5" id="line2d_35"/><use x="611.3" xlink:href="#m44f395b525" y="196.48" stroke="#000" stroke-width=".5" id="line2d_36"/><g transform="matrix(.12 0 0 -.12 31.37 199.53)" id="text_13"><use xlink:href="#SourceSansPro-Regular-31"/><use x="49.7" xlink:href="#SourceSansPro-Regular-30"/></g></g><g id="ytick_5"><path clip-path="url(#p010828342a)" d="M53.3 155.34h558" fill="none" stroke="#8fa7bf" stroke-linecap="square" stroke-width=".5" id="line2d_37"/><use x="53.3" xlink:href="#m4f850c133f" y="155.34" stroke="#000" stroke-width=".5" id="line2d_38"/><use x="611.3" xlink:href="#m44f395b525" y="155.34" stroke="#000" stroke-width=".5" id="line2d_39"/><g transform="matrix(.12 0 0 -.12 31.37 158.38)" id="text_14"><use xlink:href="#SourceSansPro-Regular-32"/><use x="49.7" xlink:href="#SourceSansPro-Regular-30"/></g></g><g id="ytick_6"><path clip-path="url(#p010828342a)" d="M53.3 114.2h558" fill="none" stroke="#8fa7bf" stroke-linecap="square" stroke-width=".5" id="line2d_40"/><use x="53.3" xlink:href="#m4f850c133f" y="114.2" stroke="#000" stroke-width=".5" id="line2d_41"/><use x="611.3" xlink:href="#m44f395b525" y="114.2" stroke="#000" stroke-width=".5" id="line2d_42"/><g transform="matrix(.12 0 0 -.12 31.37 117.24)" id="text_15"><use xlink:href="#SourceSansPro-Regular-33"/><use x="49.7" xlink:href="#SourceSansPro-Regular-30"/></g></g><g id="ytick_7"><path clip-path="url(#p010828342a)" d="M53.3 73.05h558" fill="none" stroke="#8fa7bf" stroke-linecap="square" stroke-width=".5" id="line2d_43"/><use x="53.3" xlink:href="#m4f850c133f" y="73.05" stroke="#000" stroke-width=".5" id="line2d_44"/><use x="611.3" xlink:href="#m44f395b525" y="73.05" stroke="#000" stroke-width=".5" id="line2d_45"/><g id="text_16"><defs><path d="M10.4 24.2L25.3 46c1.8 3.1 3.6 5.9 5.2 9h.4c-.2-3.4-.5-8.9-.5-12.3V24.2zm36.5 0h-8.7v39.6H29L1.7 23v-5.4h28.7V0h7.8v17.6h8.7z" id="SourceSansPro-Regular-34"/></defs><g transform="matrix(.12 0 0 -.12 31.37 76.1)"><use xlink:href="#SourceSansPro-Regular-34"/><use x="49.7" xlink:href="#SourceSansPro-Regular-30"/></g></g></g><g id="ytick_8"><path clip-path="url(#p010828342a)" d="M53.3 31.91h558" fill="none" stroke="#8fa7bf" stroke-linecap="square" stroke-width=".5" id="line2d_46"/><use x="53.3" xlink:href="#m4f850c133f" y="31.91" stroke="#000" stroke-width=".5" id="line2d_47"/><use x="611.3" xlink:href="#m44f395b525" y="31.91" stroke="#000" stroke-width=".5" id="line2d_48"/><g id="text_17"><defs><path d="M2.5 7.5c4.4-4.4 10.7-8.7 20.9-8.7 11.1 0 21.5 7.8 21.5 21.6s-8.9 20-19.8 20c-3.9 0-6.8-1-9.8-2.6L17 56.7h24.7v7.1H9.8L7.7 33.1l4.4-2.8c3.8 2.5 6.5 3.9 10.9 3.9 8.2 0 13.6-5.2 13.6-14 0-8.9-6.2-14.6-14-14.6-7.5 0-12.3 3.5-16.1 7.3z" id="SourceSansPro-Regular-35"/></defs><g transform="matrix(.12 0 0 -.12 31.37 34.95)"><use xlink:href="#SourceSansPro-Regular-35"/><use x="49.7" xlink:href="#SourceSansPro-Regular-30"/></g></g></g><g id="text_18"><defs><path d="M12.4 58.6c3.2 0 5.7 2.2 5.7 5.3 0 3.2-2.5 5.3-5.7 5.3s-5.7-2.1-5.7-5.3c0-3.1 2.5-5.3 5.7-5.3M8.2 0h8.2v48.6H8.2z" id="SourceSansPro-Regular-69"/><path d="M9.6 15c0-9.6 3.5-16.2 13.9-16.2 3 0 6.3.9 9 1.8l-1.6 6.2c-1.6-.6-3.8-1.3-5.5-1.3-5.6 0-7.5 3.4-7.5 9.4v27H31v6.7H17.9v13.6H11l-1-13.6-7.6-.5v-6.2h7.2z" id="SourceSansPro-Regular-74"/><path d="M31.9 70.8c-2.2.9-5.1 1.6-8.1 1.6-9.7 0-14.2-6.2-14.2-16.1v-7.7L3 48.1v-6.2h6.6V0h8.2v41.9h10.3v6.7H17.8v7.7c0 6.2 2.2 9.4 6.8 9.4 1.8 0 3.7-.4 5.5-1.2z" id="SourceSansPro-Regular-66"/><path d="M4.6 24.2c0-16.1 9.9-25.4 22.8-25.4 5.8 0 11.4 2.4 15.8 6.3l-3.7 5.4c-2.9-2.6-6.8-4.9-11.4-4.9-8.9 0-15 7.5-15 18.6 0 11.2 6.4 18.8 15.2 18.8 3.9 0 6.9-1.8 9.8-4.3l4.1 5.3c-3.3 3.1-7.8 5.8-14.2 5.8-12.5 0-23.4-9.3-23.4-25.6" id="SourceSansPro-Regular-63"/><path d="M4.6 24.2C4.6 8.1 15.2-1.2 27.1-1.2s22.5 9.3 22.5 25.4c0 16.3-10.6 25.6-22.5 25.6S4.6 40.5 4.6 24.2m8.5 0c0 11.2 5.7 18.8 14 18.8 8.4 0 14-7.6 14-18.8 0-11.1-5.6-18.6-14-18.6-8.3 0-14 7.5-14 18.6" id="SourceSansPro-Regular-6f"/><path d="M8.2 0h8.2v35.2c4.9 4.9 8.3 7.5 13.3 7.5 6.4 0 9.2-3.9 9.2-13V0h8.2v30.8c0 12.4-4.6 19-14.8 19-6.7 0-11.7-3.6-16.3-8.2h-.3l-.7 7H8.2z" id="SourceSansPro-Regular-6e"/><path d="M8.2 0h8.2v31.2c3.3 8.2 8.2 11.2 12.3 11.2 2 0 3.1-.3 4.7-.8l1.6 7.2a12 12 0 0 1-5.2 1c-5.5 0-10.5-3.9-13.8-10h-.3l-.7 8.8H8.2z" id="SourceSansPro-Regular-72"/><path d="M9 0h8.3v26h11.8c14.4 0 24.2 6.5 24.2 20.3 0 14.4-9.7 19.3-24.2 19.3H9zm8.3 32.8v26.1h10.8c11.3 0 16.9-3.1 16.9-12.6 0-9.3-5.5-13.5-16.9-13.5z" id="SourceSansPro-Regular-50"/></defs><g transform="matrix(0 -.144 -.144 0 17.45 226.98)"><use xlink:href="#SourceSansPro-Regular-50"/><use x="57.6" xlink:href="#SourceSansPro-Regular-6f"/><use x="111.8" xlink:href="#SourceSansPro-Regular-69"/><use x="136.4" xlink:href="#SourceSansPro-Regular-6e"/><use x="191.1" xlink:href="#SourceSansPro-Regular-74"/><use x="224.9" xlink:href="#SourceSansPro-Regular-73"/><use x="266.8" xlink:href="#SourceSansPro-Regular-20"/><use x="287" xlink:href="#SourceSansPro-Regular-64"/><use x="342.5" xlink:href="#SourceSansPro-Regular-69"/><use x="367.1" xlink:href="#SourceSansPro-Regular-66"/><use x="396.3" xlink:href="#SourceSansPro-Regular-66"/><use x="425.5" xlink:href="#SourceSansPro-Regular-65"/><use x="475.1" xlink:href="#SourceSansPro-Regular-72"/><use x="509.8" xlink:href="#SourceSansPro-Regular-65"/><use x="559.4" xlink:href="#SourceSansPro-Regular-6e"/><use x="614.1" xlink:href="#SourceSansPro-Regular-63"/><use x="659.7" xlink:href="#SourceSansPro-Regular-65"/></g></g></g><path clip-path="url(#p010828342a)" d="M53.3 237.63h558" fill="none" stroke="#607080" stroke-linecap="square" id="line2d_49"/><path clip-path="url(#p010828342a)" d="M53.3 237.84l15.08 4.33 15.08.22 15.08-8.01 15.08-8.01 15.08 4.33 15.08.21 15.09 4.33 15.08 4.33 15.08 4.34 15.08 4.33 15.08.21 15.08 4.33 15.08 4.33 15.08 4.34 15.08 4.33 15.09 4.33 15.08 4.33 15.08-8.01 15.08.21 15.08-8 15.08 4.32 15.08 4.33 15.08 4.33 15.08 4.33 15.09.22 15.08 4.33 15.08 4.33 15.08.22 15.08 4.33 15.08-8.01 15.08-8.01 15.08-8.02 15.08-8 15.09-8.02 15.08-8.01 15.08.21 15.08-8" fill="none" stroke="#1369bf" stroke-linecap="square" stroke-width="2" id="line2d_50"/><path clip-path="url(#p010828342a)" d="M53.3 229.61l15.08-8 15.08.2 15.08.23 15.08-8.02 15.08.22 15.08 4.33 15.09-8.01 15.08.21 15.08-8 15.08-8.02 15.08-8.01 15.08-8.01 15.08.21 15.08-8 15.08-8.02 15.09-8.01 15.08 4.33 15.08.21 15.08.22 15.08-8.01 15.08.22 15.08-8.02 15.08-8 15.08-8.02 15.09 4.33 15.08-8.01 15.08.21 15.08-8 15.08-8.02 15.08-8.01 15.08-8.01 15.08-8.02 15.08.22 15.09-8.01 15.08.22 15.08-8.02 15.08.22" fill="none" stroke="#bd3338" stroke-linecap="square" stroke-width="2" id="line2d_51"/><path clip-path="url(#p010828342a)" d="M53.3 241.96l15.08.21 15.08-8 15.08 4.32 15.08-8.01" fill="none" stroke="#00800a" stroke-linecap="square" stroke-width="2" id="line2d_52"/><path d="M53.3 319.91h558" fill="none" stroke="#000" stroke-linecap="square" id="patch_3"/><path d="M53.3 31.91h558" fill="none" stroke="#000" stroke-linecap="square" id="patch_4"/><path d="M611.3 319.91v-288" fill="none" stroke="#000" stroke-linecap="square" id="patch_5"/><path d="M53.3 319.91v-288" fill="none" stroke="#000" stroke-linecap="square" id="patch_6"/><g id="text_19"><defs><path d="M4.1 21.9h23v6.3h-23z" id="SourceSansPro-Regular-2d"/><path d="M5.2 32.8c0-21.4 12.2-34 28.7-34 8.4 0 14.8 3.5 20 9.5l-4.7 5.1C45 8.7 40.4 6.1 34.1 6.1 21.7 6.1 13.8 16.5 13.8 33c0 16.3 8.2 26.5 20.7 26.5 5.5 0 9.7-2.4 13.1-6.1l4.7 5.3c-3.8 4.3-10 8.1-17.9 8.1-16.8 0-29.2-12.9-29.2-34" id="SourceSansPro-Regular-43"/><path d="M17.7 0h8.5c1.1 24.9 4.2 39.4 19.3 58.7v5.1H4.4v-7.1h31.8C23.6 39.2 18.8 24 17.7 0" id="SourceSansPro-Regular-37"/><path d="M6.7-17c8.1 3.4 13.1 10.1 13.1 18.7 0 6-2.6 9.7-6.9 9.7-3.3 0-6.1-2.2-6.1-5.8 0-3.7 2.7-5.7 5.9-5.7.3 0 .7 0 1 .1 0-5.4-3.4-9.7-9-12.2z" id="SourceSansPro-Regular-2c"/><path d="M9 0h37v7.1H17.3v58.5H9z" id="SourceSansPro-Regular-4c"/></defs><g transform="matrix(.1728 0 0 -.1728 65.23 19.71)"><use xlink:href="#SourceSansPro-Regular-4c"/><use x="48.6" xlink:href="#SourceSansPro-Regular-65"/><use x="98.2" xlink:href="#SourceSansPro-Regular-69"/><use x="122.8" xlink:href="#SourceSansPro-Regular-63"/><use x="168.4" xlink:href="#SourceSansPro-Regular-65"/><use x="218" xlink:href="#SourceSansPro-Regular-73"/><use x="259.9" xlink:href="#SourceSansPro-Regular-74"/><use x="293.7" xlink:href="#SourceSansPro-Regular-65"/><use x="343.3" xlink:href="#SourceSansPro-Regular-72"/><use x="378" xlink:href="#SourceSansPro-Regular-20"/><use x="398.2" xlink:href="#SourceSansPro-Regular-43"/><use x="455.3" xlink:href="#SourceSansPro-Regular-69"/><use x="479.9" xlink:href="#SourceSansPro-Regular-74"/><use x="513.7" xlink:href="#SourceSansPro-Regular-79"/><use x="560.4" xlink:href="#SourceSansPro-Regular-20"/><use x="580.6" xlink:href="#SourceSansPro-Regular-70"/><use x="636.1" xlink:href="#SourceSansPro-Regular-6f"/><use x="690.3" xlink:href="#SourceSansPro-Regular-69"/><use x="714.9" xlink:href="#SourceSansPro-Regular-6e"/><use x="769.6" xlink:href="#SourceSansPro-Regular-74"/><use x="803.4" xlink:href="#SourceSansPro-Regular-73"/><use x="845.3" xlink:href="#SourceSansPro-Regular-20"/><use x="865.5" xlink:href="#SourceSansPro-Regular-64"/><use x="921" xlink:href="#SourceSansPro-Regular-69"/><use x="945.6" xlink:href="#SourceSansPro-Regular-73"/><use x="987.5" xlink:href="#SourceSansPro-Regular-74"/><use x="1021.3" xlink:href="#SourceSansPro-Regular-61"/><use x="1072.5" xlink:href="#SourceSansPro-Regular-6e"/><use x="1127.2" xlink:href="#SourceSansPro-Regular-74"/><use x="1161" xlink:href="#SourceSansPro-Regular-20"/><use x="1181.2" xlink:href="#SourceSansPro-Regular-66"/><use x="1210.4" xlink:href="#SourceSansPro-Regular-72"/><use x="1245.1" xlink:href="#SourceSansPro-Regular-6f"/><use x="1299.3" xlink:href="#SourceSansPro-Regular-6d"/><use x="1382.2" xlink:href="#SourceSansPro-Regular-20"/><use x="1402.4" xlink:href="#SourceSansPro-Regular-73"/><use x="1444.3" xlink:href="#SourceSansPro-Regular-61"/><use x="1495.5" xlink:href="#SourceSansPro-Regular-66"/><use x="1524.7" xlink:href="#SourceSansPro-Regular-65"/><use x="1574.3" xlink:href="#SourceSansPro-Regular-74"/><use x="1608.1" xlink:href="#SourceSansPro-Regular-79"/><use x="1654.8" xlink:href="#SourceSansPro-Regular-20"/><use x="1675" xlink:href="#SourceSansPro-Regular-74"/><use x="1708.8" xlink:href="#SourceSansPro-Regular-72"/><use x="1743.5" xlink:href="#SourceSansPro-Regular-65"/><use x="1793.1" xlink:href="#SourceSansPro-Regular-6e"/><use x="1847.8" xlink:href="#SourceSansPro-Regular-64"/><use x="1903.3" xlink:href="#SourceSansPro-Regular-2c"/><use x="1928.2" xlink:href="#SourceSansPro-Regular-20"/><use x="1948.4" xlink:href="#SourceSansPro-Regular-32"/><use x="1998.1" xlink:href="#SourceSansPro-Regular-30"/><use x="2047.8" xlink:href="#SourceSansPro-Regular-31"/><use x="2097.5" xlink:href="#SourceSansPro-Regular-34"/><use x="2147.2" xlink:href="#SourceSansPro-Regular-2d"/><use x="2178.3" xlink:href="#SourceSansPro-Regular-31"/><use x="2228" xlink:href="#SourceSansPro-Regular-35"/><use x="2277.7" xlink:href="#SourceSansPro-Regular-20"/><use x="2297.9" xlink:href="#SourceSansPro-Regular-74"/><use x="2331.7" xlink:href="#SourceSansPro-Regular-6f"/><use x="2385.9" xlink:href="#SourceSansPro-Regular-20"/><use x="2406.1" xlink:href="#SourceSansPro-Regular-32"/><use x="2455.8" xlink:href="#SourceSansPro-Regular-30"/><use x="2505.5" xlink:href="#SourceSansPro-Regular-31"/><use x="2555.2" xlink:href="#SourceSansPro-Regular-36"/><use x="2604.9" xlink:href="#SourceSansPro-Regular-2d"/><use x="2636" xlink:href="#SourceSansPro-Regular-31"/><use x="2685.7" xlink:href="#SourceSansPro-Regular-37"/><use x="2735.4" xlink:href="#SourceSansPro-Regular-20"/><use x="2755.6" xlink:href="#SourceSansPro-Regular-73"/><use x="2797.5" xlink:href="#SourceSansPro-Regular-65"/><use x="2847.1" xlink:href="#SourceSansPro-Regular-61"/><use x="2898.3" xlink:href="#SourceSansPro-Regular-73"/><use x="2940.2" xlink:href="#SourceSansPro-Regular-6f"/><use x="2994.4" xlink:href="#SourceSansPro-Regular-6e"/><use x="3049.1" xlink:href="#SourceSansPro-Regular-73"/></g></g><g id="legend_1"><path d="M60.5 104.65h99.26V39.1H60.5z" fill="#f7f8f9" stroke="#000" id="patch_7"/><path d="M70.58 50.09h20.16" fill="none" stroke="#1369bf" stroke-linecap="square" stroke-width="2" id="line2d_53"/><g transform="matrix(.144 0 0 -.144 106.58 55.13)" id="text_20"><use xlink:href="#SourceSansPro-Regular-32"/><use x="49.7" xlink:href="#SourceSansPro-Regular-30"/><use x="99.4" xlink:href="#SourceSansPro-Regular-31"/><use x="149.1" xlink:href="#SourceSansPro-Regular-34"/><use x="198.8" xlink:href="#SourceSansPro-Regular-2d"/><use x="229.9" xlink:href="#SourceSansPro-Regular-31"/><use x="279.6" xlink:href="#SourceSansPro-Regular-35"/></g><path d="M70.58 70.49h20.16" fill="none" stroke="#bd3338" stroke-linecap="square" stroke-width="2" id="line2d_55"/><g transform="matrix(.144 0 0 -.144 106.58 75.53)" id="text_21"><use xlink:href="#SourceSansPro-Regular-32"/><use x="49.7" xlink:href="#SourceSansPro-Regular-30"/><use x="99.4" xlink:href="#SourceSansPro-Regular-31"/><use x="149.1" xlink:href="#SourceSansPro-Regular-35"/><use x="198.8" xlink:href="#SourceSansPro-Regular-2d"/><use x="229.9" xlink:href="#SourceSansPro-Regular-31"/><use x="279.6" xlink:href="#SourceSansPro-Regular-36"/></g><path d="M70.58 90.9h20.16" fill="none" stroke="#00800a" stroke-linecap="square" stroke-width="2" id="line2d_57"/><g transform="matrix(.144 0 0 -.144 106.58 95.94)" id="text_22"><use xlink:href="#SourceSansPro-Regular-32"/><use x="49.7" xlink:href="#SourceSansPro-Regular-30"/><use x="99.4" xlink:href="#SourceSansPro-Regular-31"/><use x="149.1" xlink:href="#SourceSansPro-Regular-36"/><use x="198.8" xlink:href="#SourceSansPro-Regular-2d"/><use x="229.9" xlink:href="#SourceSansPro-Regular-31"/><use x="279.6" xlink:href="#SourceSansPro-Regular-37"/></g></g></g></g><defs><clipPath id="p010828342a"><path d="M53.3 31.91h558v288h-558z"/></clipPath></defs></svg>