<svg height="430pt" viewBox="0 0 506 430" width="506pt" xmlns="http://www.w3.org/2000/svg" xmlns:xlink="http://www.w3.org/1999/xlink"><defs><style>*{stroke-linecap:butt;stroke-linejoin:round;stroke-miterlimit:100000}</style></defs><g id="figure_1"><path d="M0 430.38h506.9V0H0v430.38z" fill="none" id="patch_1"/><g id="axes_1"><path d="M53.3 378.74h446.4V33.14H53.3v345.6z" fill="none" id="patch_2"/><g id="matplotlib.axis_1"><g id="xtick_1"><g id="line2d_1"><defs><path d="M0 0v-6" id="mf11403d07c"/></defs><use x="109.1" xlink:href="#mf11403d07c" y="378.74"/></g><g id="line2d_2"><defs><path d="M0 0v6" id="mf6b8bf44a7"/></defs><use x="109.1" xlink:href="#mf6b8bf44a7" y="33.14"/></g><g id="text_1"><defs><path d="M8.2 0h8.2v35.2c4.5 5 8.6 7.5 12.2 7.5 6.2 0 9.1-3.9 9.1-13V0h8.2v35.2c4.5 5 8.4 7.5 12.2 7.5 6.1 0 9-3.9 9-13V0h8.2v30.8c0 12.4-4.8 19-14.8 19-5.9 0-10.9-3.8-16-9.3-2 5.8-6 9.3-13.4 9.3-5.8 0-10.9-3.6-15.1-8.2h-.3l-.7 7H8.2z" id="SourceSansPro-Regular-6d"/><path d="M8.2 0h8.2v31.2c3.3 8.2 8.2 11.2 12.3 11.2 2 0 3.1-.3 4.7-.8l1.6 7.2a12 12 0 0 1-5.2 1c-5.5 0-10.5-3.9-13.8-10h-.3l-.7 8.8H8.2z" id="SourceSansPro-Regular-72"/><path d="M8.2 0h6.6l.7 4.8h.3c4.3-3.8 9.4-6 13.9-6 11.1 0 21 9.7 21 26.3 0 15-6.7 24.7-19.3 24.7-5.4 0-10.8-2.9-15.2-6.8l.2 8.8v19.4H8.2zm8.2 10.8v25.5c4.6 4.3 8.9 6.6 13 6.6 9.2 0 12.8-7.2 12.8-17.9 0-12-5.9-19.3-13.9-19.3-3.2 0-7.6 1.4-11.9 5.1" id="SourceSansPro-Regular-62"/><path d="M4.6 24.2C4.6 8.3 14.9-1.2 27.9-1.2c6.6 0 11.8 2.3 16 5L41 9.2c-3.6-2.3-7.5-3.8-12.1-3.8-9.3 0-15.6 6.6-16.2 17.1h32.8c.2 1.2.3 2.8.3 4.5 0 13.9-7 22.8-19.4 22.8-11.1 0-21.8-9.7-21.8-25.6m8 3.7c1 9.8 7.2 15.4 14 15.4 7.6 0 12-5.5 12-15.4z" id="SourceSansPro-Regular-65"/><path d="M9 0h7.7v36.1c0 5.8-.7 13.6-1.1 19.4h.4l5.2-14.6L33.9 6.6h4.7l12.6 34.3 5.3 14.6h.4c-.5-5.8-1.1-13.6-1.1-19.4V0h7.9v65.6h-9.8L41.3 30.4 36.7 17h-.4l-4.8 13.4-12.7 35.2H9z" id="SourceSansPro-Regular-4d"/></defs><g transform="matrix(.12 0 0 -.12 88.4 397.29)"><use xlink:href="#SourceSansPro-Regular-4d"/><use x="72.7" xlink:href="#SourceSansPro-Regular-65"/><use x="122.3" xlink:href="#SourceSansPro-Regular-6d"/><use x="205.2" xlink:href="#SourceSansPro-Regular-62"/><use x="260.7" xlink:href="#SourceSansPro-Regular-65"/><use x="310.3" xlink:href="#SourceSansPro-Regular-72"/></g></g></g><g id="xtick_2"><use x="220.7" xlink:href="#mf11403d07c" y="378.74" id="line2d_3"/><use x="220.7" xlink:href="#mf6b8bf44a7" y="33.14" id="line2d_4"/><g id="text_2"><defs><path d="M11.7-8.2c0 2.8 1.5 5.7 5 8.2 2.1-.6 4.4-.8 6.3-.8h8.4c6.3 0 9.8-1.5 9.8-6 0-5.1-6.1-9.9-15.4-9.9-8.8 0-14.1 3.3-14.1 8.5M4.5-9.3c0-8.4 8.2-13.1 20.1-13.1 15.1 0 24.6 7.8 24.6 16.8 0 8.1-5.7 11.6-17 11.6h-9.4c-6.6 0-8.6 2.2-8.6 5.3 0 2.7 1.4 4.3 3.1 5.8 2.2-1.1 4.9-1.7 7.3-1.7 9.9 0 17.8 6.5 17.8 16.9 0 4.1-1.7 7.8-4 10h10v6.3H31.5c-1.8.7-4.2 1.2-6.9 1.2-9.9 0-18.3-6.7-18.3-17.3 0-5.8 3.1-10.5 6.3-13.1V19c-2.5-1.7-5.3-4.9-5.3-9a9 9 0 0 1 4.3-7.9v-.4c-4.4-3-7.1-6.9-7.1-11m20.1 30.2c-5.6 0-10.3 4.5-10.3 11.6s4.6 11.3 10.3 11.3c5.7 0 10.3-4.2 10.3-11.3 0-7.1-4.7-11.6-10.3-11.6" id="SourceSansPro-Regular-67"/><path d="M2.8 5.5C7.4 1.7 14-1.2 20.9-1.2c11.5 0 17.8 6.6 17.8 14.5 0 9.2-7.8 12.1-14.8 14.7-5.5 2.1-10.8 3.8-10.8 8.4 0 3.7 2.8 7 8.9 7 4.3 0 7.8-1.8 11.1-4.3l3.9 5.2c-3.7 3-9 5.5-15.1 5.5-10.5 0-16.7-6-16.7-13.8 0-8.2 7.6-11.5 14.5-14 5.3-2 11.1-4.2 11.1-9.2 0-4.2-3.2-7.6-9.6-7.6-5.8 0-10.1 2.4-14.3 5.8z" id="SourceSansPro-Regular-73"/><path d="M9.6 15c0-9.6 3.5-16.2 13.9-16.2 3 0 6.3.9 9 1.8l-1.6 6.2c-1.6-.6-3.8-1.3-5.5-1.3-5.6 0-7.5 3.4-7.5 9.4v27H31v6.7H17.9v13.6H11l-1-13.6-7.6-.5v-6.2h7.2z" id="SourceSansPro-Regular-74"/><path d="M12.4 58.6c3.2 0 5.7 2.2 5.7 5.3 0 3.2-2.5 5.3-5.7 5.3s-5.7-2.1-5.7-5.3c0-3.1 2.5-5.3 5.7-5.3M8.2 0h8.2v48.6H8.2z" id="SourceSansPro-Regular-69"/><path d="M17.3 58.9h11c10.2 0 15.9-3.1 15.9-11.7 0-8.5-5.7-12.7-15.9-12.7h-11zM54.4 0L37.8 28.6c8.9 2.2 14.7 8.4 14.7 18.6 0 13.6-9.6 18.4-23 18.4H9V0h8.3v27.7h11.9L45 0z" id="SourceSansPro-Regular-52"/><path d="M4.7 24.2C4.7 8 12.6-1.2 24.8-1.2c5.7 0 10.9 3.2 14.7 6.9h.3l.7-5.7h6.8v71.2H39V52.5l.4-8.3c-4.3 3.5-8 5.6-13.6 5.6-11.1 0-21.1-9.8-21.1-25.6m8.5.1c0 11.1 6.2 18.6 14 18.6 4 0 7.7-1.4 11.8-5.1V12.4c-4-4.5-7.9-6.7-12.4-6.7-8.5 0-13.4 7-13.4 18.6" id="SourceSansPro-Regular-64"/></defs><g transform="matrix(.12 0 0 -.12 193.83 397.29)"><use xlink:href="#SourceSansPro-Regular-52"/><use x="58.1" xlink:href="#SourceSansPro-Regular-65"/><use x="107.7" xlink:href="#SourceSansPro-Regular-67"/><use x="158.1" xlink:href="#SourceSansPro-Regular-69"/><use x="182.7" xlink:href="#SourceSansPro-Regular-73"/><use x="224.6" xlink:href="#SourceSansPro-Regular-74"/><use x="258.4" xlink:href="#SourceSansPro-Regular-65"/><use x="308" xlink:href="#SourceSansPro-Regular-72"/><use x="342.7" xlink:href="#SourceSansPro-Regular-65"/><use x="392.3" xlink:href="#SourceSansPro-Regular-64"/></g></g></g><g id="xtick_3"><use x="332.3" xlink:href="#mf11403d07c" y="378.74" id="line2d_5"/><use x="332.3" xlink:href="#mf6b8bf44a7" y="33.14" id="line2d_6"/><g id="text_3"><defs><path d="M5.8 12.6c0-8.7 6.1-13.8 14.3-13.8 6 0 11.4 3.2 16.1 7h.2l.7-5.8h6.8v29.8c0 12.1-5 20-16.9 20-7.8 0-14.6-3.4-19.1-6.3l3.3-5.7C15 40.4 20 43 25.7 43c7.9 0 10-6 10-12.2C15 28.5 5.8 23.2 5.8 12.6m8.1.6c0 6.2 5.5 10.2 21.8 12.2V11.9C31 7.7 27.1 5.4 22.4 5.4c-4.8 0-8.5 2.3-8.5 7.8" id="SourceSansPro-Regular-61"/><path d="M8.2 9.8c0-7.1 2.5-11 8.7-11 2.2 0 3.6.3 4.7.8l-1.1 6.2c-.9-.2-1.3-.2-1.8-.2-1.2 0-2.3 1-2.3 3.6v62H8.2z" id="SourceSansPro-Regular-6c"/><path d="M31.9 70.8c-2.2.9-5.1 1.6-8.1 1.6-9.7 0-14.2-6.2-14.2-16.1v-7.7L3 48.1v-6.2h6.6V0h8.2v41.9h10.3v6.7H17.8v7.7c0 6.2 2.2 9.4 6.8 9.4 1.8 0 3.7-.4 5.5-1.2z" id="SourceSansPro-Regular-66"/><path d="M17.2 26.7l3.1 10c2.4 7.3 4.5 14.5 6.5 22.1h.4c2.1-7.6 4.2-14.8 6.6-22.1l3.1-10zM45.2 0h8.9L31.9 65.6h-9.4L.3 0h8.5l6.3 20H39z" id="SourceSansPro-Regular-41"/></defs><g transform="matrix(.12 0 0 -.12 309.64 397.29)"><use xlink:href="#SourceSansPro-Regular-41"/><use x="54.4" xlink:href="#SourceSansPro-Regular-66"/><use x="83.6" xlink:href="#SourceSansPro-Regular-66"/><use x="112.8" xlink:href="#SourceSansPro-Regular-69"/><use x="137.4" xlink:href="#SourceSansPro-Regular-6c"/><use x="162.9" xlink:href="#SourceSansPro-Regular-69"/><use x="187.5" xlink:href="#SourceSansPro-Regular-61"/><use x="238.7" xlink:href="#SourceSansPro-Regular-74"/><use x="272.5" xlink:href="#SourceSansPro-Regular-65"/><use x="322.1" xlink:href="#SourceSansPro-Regular-64"/></g></g></g><g id="xtick_4"><use x="443.9" xlink:href="#mf11403d07c" y="378.74" id="line2d_7"/><use x="443.9" xlink:href="#mf6b8bf44a7" y="33.14" id="line2d_8"/><g id="text_4"><defs><path d="M22.6 0H31v58.6h19.8v7h-48v-7h19.8z" id="SourceSansPro-Regular-54"/><path d="M4.6 24.2C4.6 8.1 15.2-1.2 27.1-1.2s22.5 9.3 22.5 25.4c0 16.3-10.6 25.6-22.5 25.6S4.6 40.5 4.6 24.2m8.5 0c0 11.2 5.7 18.8 14 18.8 8.4 0 14-7.6 14-18.8 0-11.1-5.6-18.6-14-18.6-8.3 0-14 7.5-14 18.6" id="SourceSansPro-Regular-6f"/></defs><g transform="matrix(.12 0 0 -.12 430.8 397.29)"><use xlink:href="#SourceSansPro-Regular-54"/><use x="53.6" xlink:href="#SourceSansPro-Regular-6f"/><use x="107.8" xlink:href="#SourceSansPro-Regular-74"/><use x="141.6" xlink:href="#SourceSansPro-Regular-61"/><use x="192.8" xlink:href="#SourceSansPro-Regular-6c"/></g></g></g><g id="text_5"><defs><path d="M4.9-13.4l-1.6-6.5c1.6-.6 3.5-1 5.7-1 9.8 0 14.8 7.3 18.2 16.9l18.3 52.6h-8l-8.7-26.9c-1.3-4.3-2.7-9.3-4.1-13.7h-.4c-1.5 4.5-3.2 9.5-4.7 13.7L9.7 48.6H1.2L20.7-.1l-1.1-3.6c-2-6-5.5-10.4-11-10.4-1.2 0-2.7.4-3.7.7" id="SourceSansPro-Regular-79"/><path d="M21 0h9.7l20.8 65.6H43L32.5 30.2c-2.3-7.8-3.9-14-6.3-21.7h-.4c-2.5 7.7-4 13.9-6.4 21.7L8.9 65.6H0z" id="SourceSansPro-Regular-56"/><path d="M4.6 24.2c0-16.1 9.9-25.4 22.8-25.4 5.8 0 11.4 2.4 15.8 6.3l-3.7 5.4c-2.9-2.6-6.8-4.9-11.4-4.9-8.9 0-15 7.5-15 18.6 0 11.2 6.4 18.8 15.2 18.8 3.9 0 6.9-1.8 9.8-4.3l4.1 5.3c-3.3 3.1-7.8 5.8-14.2 5.8-12.5 0-23.4-9.3-23.4-25.6" id="SourceSansPro-Regular-63"/></defs><g transform="matrix(.144 0 0 -.144 232.56 419.96)"><use xlink:href="#SourceSansPro-Regular-56"/><use x="51.5" xlink:href="#SourceSansPro-Regular-6f"/><use x="105.7" xlink:href="#SourceSansPro-Regular-74"/><use x="139.5" xlink:href="#SourceSansPro-Regular-65"/><use x="189.1" xlink:href="#SourceSansPro-Regular-72"/><use x="223.8" xlink:href="#SourceSansPro-Regular-20"/><use x="244" xlink:href="#SourceSansPro-Regular-63"/><use x="289.6" xlink:href="#SourceSansPro-Regular-61"/><use x="340.8" xlink:href="#SourceSansPro-Regular-74"/><use x="374.6" xlink:href="#SourceSansPro-Regular-65"/><use x="424.2" xlink:href="#SourceSansPro-Regular-67"/><use x="474.6" xlink:href="#SourceSansPro-Regular-6f"/><use x="528.8" xlink:href="#SourceSansPro-Regular-72"/><use x="563.5" xlink:href="#SourceSansPro-Regular-79"/></g></g></g><g id="matplotlib.axis_2"><g id="ytick_1"><path clip-path="url(#pa495930c66)" d="M53.3 344.18h446.4" fill="none" stroke="#8fa7bf" stroke-linecap="square" stroke-width=".5" id="line2d_9"/><g id="line2d_10"><defs><path d="M0 0h6" id="m0563d4a749"/></defs><use x="53.3" xlink:href="#m0563d4a749" y="344.18"/></g><g id="line2d_11"><defs><path d="M0 0h-6" id="m5e7bb69287"/></defs><use x="499.7" xlink:href="#m5e7bb69287" y="344.18"/></g><g id="text_6"><defs><path d="M24.9-1.2c12.7 0 20.4 11.9 20.4 33.3S37.6 65 24.9 65C12.1 65 4.4 53.5 4.4 32.1S12.1-1.2 24.9-1.2m0 6.6c-7.5 0-12.5 8-12.5 26.7s5 26.3 12.5 26.3c7.4 0 12.4-7.6 12.4-26.3 0-18.7-5-26.7-12.4-26.7" id="SourceSansPro-Regular-30"/><path d="M7.9 0h36v6.8H30.7v57h-6.3c-3.5-2.1-7.7-3.7-13.5-4.7v-5.3h11.6v-47H7.9z" id="SourceSansPro-Regular-31"/></defs><g transform="matrix(.12 0 0 -.12 31.37 347.23)"><use xlink:href="#SourceSansPro-Regular-31"/><use x="49.7" xlink:href="#SourceSansPro-Regular-30"/></g></g></g><g id="ytick_2"><path clip-path="url(#pa495930c66)" d="M53.3 309.62h446.4" fill="none" stroke="#8fa7bf" stroke-linecap="square" stroke-width=".5" id="line2d_12"/><use x="53.3" xlink:href="#m0563d4a749" y="309.62" id="line2d_13"/><use x="499.7" xlink:href="#m5e7bb69287" y="309.62" id="line2d_14"/><g id="text_7"><defs><path d="M4 0h41.2v7.1H26.7c-3.3 0-7.2-.3-10.7-.6 15.1 15.8 26 27.7 26 39.7C42 57.5 34.7 65 22.9 65c-8.3 0-14-3.9-19.3-9.7l4.7-4.7c3.7 4.3 8.3 7.7 13.6 7.7C30 58.3 34 53.1 34 45.8 34 35.5 23.2 24 4 4.9z" id="SourceSansPro-Regular-32"/></defs><g transform="matrix(.12 0 0 -.12 31.37 312.67)"><use xlink:href="#SourceSansPro-Regular-32"/><use x="49.7" xlink:href="#SourceSansPro-Regular-30"/></g></g></g><g id="ytick_3"><path clip-path="url(#pa495930c66)" d="M53.3 275.06h446.4" fill="none" stroke="#8fa7bf" stroke-linecap="square" stroke-width=".5" id="line2d_15"/><use x="53.3" xlink:href="#m0563d4a749" y="275.06" id="line2d_16"/><use x="499.7" xlink:href="#m5e7bb69287" y="275.06" id="line2d_17"/><g id="text_8"><defs><path d="M2.6 7.8c4.3-4.7 10.8-9 21-9 11.7 0 21 6.9 21 18.2 0 8.8-6.1 14.4-13.8 16.2v.4c6.9 2.6 11.6 7.5 11.6 15.2 0 10.3-8 16.2-19.1 16.2-7.5 0-13.4-3.4-18.3-8l4.4-5.2c3.8 3.8 8.3 6.5 13.6 6.5 6.8 0 11-3.9 11-10.1 0-6.7-4.5-11.9-18.1-11.9V30c15.2 0 20.4-5.1 20.4-12.7 0-7.1-5.5-11.7-13.2-11.7-7.5 0-12.5 3.6-16.3 7.6z" id="SourceSansPro-Regular-33"/></defs><g transform="matrix(.12 0 0 -.12 31.37 278.1)"><use xlink:href="#SourceSansPro-Regular-33"/><use x="49.7" xlink:href="#SourceSansPro-Regular-30"/></g></g></g><g id="ytick_4"><path clip-path="url(#pa495930c66)" d="M53.3 240.5h446.4" fill="none" stroke="#8fa7bf" stroke-linecap="square" stroke-width=".5" id="line2d_18"/><use x="53.3" xlink:href="#m0563d4a749" y="240.5" id="line2d_19"/><use x="499.7" xlink:href="#m5e7bb69287" y="240.5" id="line2d_20"/><g id="text_9"><defs><path d="M10.4 24.2L25.3 46c1.8 3.1 3.6 5.9 5.2 9h.4c-.2-3.4-.5-8.9-.5-12.3V24.2zm36.5 0h-8.7v39.6H29L1.7 23v-5.4h28.7V0h7.8v17.6h8.7z" id="SourceSansPro-Regular-34"/></defs><g transform="matrix(.12 0 0 -.12 31.37 243.55)"><use xlink:href="#SourceSansPro-Regular-34"/><use x="49.7" xlink:href="#SourceSansPro-Regular-30"/></g></g></g><g id="ytick_5"><path clip-path="url(#pa495930c66)" d="M53.3 205.94h446.4" fill="none" stroke="#8fa7bf" stroke-linecap="square" stroke-width=".5" id="line2d_21"/><use x="53.3" xlink:href="#m0563d4a749" y="205.94" id="line2d_22"/><use x="499.7" xlink:href="#m5e7bb69287" y="205.94" id="line2d_23"/><g id="text_10"><defs><path d="M2.5 7.5c4.4-4.4 10.7-8.7 20.9-8.7 11.1 0 21.5 7.8 21.5 21.6s-8.9 20-19.8 20c-3.9 0-6.8-1-9.8-2.6L17 56.7h24.7v7.1H9.8L7.7 33.1l4.4-2.8c3.8 2.5 6.5 3.9 10.9 3.9 8.2 0 13.6-5.2 13.6-14 0-8.9-6.2-14.6-14-14.6-7.5 0-12.3 3.5-16.1 7.3z" id="SourceSansPro-Regular-35"/></defs><g transform="matrix(.12 0 0 -.12 31.37 208.99)"><use xlink:href="#SourceSansPro-Regular-35"/><use x="49.7" xlink:href="#SourceSansPro-Regular-30"/></g></g></g><g id="ytick_6"><path clip-path="url(#pa495930c66)" d="M53.3 171.38h446.4" fill="none" stroke="#8fa7bf" stroke-linecap="square" stroke-width=".5" id="line2d_24"/><use x="53.3" xlink:href="#m0563d4a749" y="171.38" id="line2d_25"/><use x="499.7" xlink:href="#m5e7bb69287" y="171.38" id="line2d_26"/><g id="text_11"><defs><path d="M26.8 5.3c-8.1 0-13 6.7-14 19.1 4.3 6 9.3 8.4 13.3 8.4 7.9 0 11.8-5.2 11.8-13.5 0-8.4-4.8-14-11.1-14m17.7 52.9C40.9 62.1 36 65 29.1 65 16.4 65 4.8 55.1 4.8 29.5c0-20.5 9.5-30.7 22-30.7 10.3 0 18.9 8.3 18.9 20.5 0 13.1-7.2 19.7-18.2 19.7-5.2 0-10.9-3.1-14.9-8 .4 20.2 7.9 27.1 16.8 27.1 4 0 7.9-1.9 10.5-5z" id="SourceSansPro-Regular-36"/></defs><g transform="matrix(.12 0 0 -.12 31.37 174.43)"><use xlink:href="#SourceSansPro-Regular-36"/><use x="49.7" xlink:href="#SourceSansPro-Regular-30"/></g></g></g><g id="ytick_7"><path clip-path="url(#pa495930c66)" d="M53.3 136.82h446.4" fill="none" stroke="#8fa7bf" stroke-linecap="square" stroke-width=".5" id="line2d_27"/><use x="53.3" xlink:href="#m0563d4a749" y="136.82" id="line2d_28"/><use x="499.7" xlink:href="#m5e7bb69287" y="136.82" id="line2d_29"/><g id="text_12"><defs><path d="M17.7 0h8.5c1.1 24.9 4.2 39.4 19.3 58.7v5.1H4.4v-7.1h31.8C23.6 39.2 18.8 24 17.7 0" id="SourceSansPro-Regular-37"/></defs><g transform="matrix(.12 0 0 -.12 31.37 139.87)"><use xlink:href="#SourceSansPro-Regular-37"/><use x="49.7" xlink:href="#SourceSansPro-Regular-30"/></g></g></g><g id="ytick_8"><path clip-path="url(#pa495930c66)" d="M53.3 102.26h446.4" fill="none" stroke="#8fa7bf" stroke-linecap="square" stroke-width=".5" id="line2d_30"/><use x="53.3" xlink:href="#m0563d4a749" y="102.26" id="line2d_31"/><use x="499.7" xlink:href="#m5e7bb69287" y="102.26" id="line2d_32"/><g id="text_13"><defs><path d="M11.5 17.1c0 5.8 3.8 10.5 8.9 13.9 9.2-3.7 17.3-6.7 17.3-14.9 0-6.6-5.1-11.2-12.5-11.2-7.8 0-13.7 5.1-13.7 12.2m18 17.7c-7.7 3-14.7 6.2-14.7 13.8 0 6.2 4.4 10.3 10.3 10.3 7 0 11.1-5 11.1-11.3 0-4.7-2.4-9-6.7-12.8M4.1 16.3C4.1 6.2 13-1.2 25-1.2c12.4 0 20.6 7.5 20.6 17 0 8.6-5.4 13.1-11.1 16.4v.4c3.9 3 8.8 8.7 8.8 15.4 0 9.9-6.9 17-18 17C15 65 7.2 58.4 7.2 48.6c0-6.7 4.2-11.4 8.9-14.7v-.4c-6-3.2-12-8.9-12-17.2" id="SourceSansPro-Regular-38"/></defs><g transform="matrix(.12 0 0 -.12 31.37 105.3)"><use xlink:href="#SourceSansPro-Regular-38"/><use x="49.7" xlink:href="#SourceSansPro-Regular-30"/></g></g></g><g id="ytick_9"><path clip-path="url(#pa495930c66)" d="M53.3 67.7h446.4" fill="none" stroke="#8fa7bf" stroke-linecap="square" stroke-width=".5" id="line2d_33"/><use x="53.3" xlink:href="#m0563d4a749" y="67.7" id="line2d_34"/><use x="499.7" xlink:href="#m5e7bb69287" y="67.7" id="line2d_35"/><g id="text_14"><defs><path d="M23.5 31c-7.9 0-11.8 5.2-11.8 13.5 0 8.4 4.9 14 11.1 14 8.1 0 13-6.6 14.1-19-4.3-6.1-9.3-8.5-13.4-8.5M5.1 5.5c3.5-3.8 8.6-6.7 15.4-6.7 12.7 0 24.3 9.9 24.3 35.5 0 20.5-9.4 30.7-22 30.7C12.6 65 4 56.7 4 44.5c0-13.1 7.1-19.7 18.1-19.7 5.3 0 11 3.1 15 8.2-.3-20.4-7.9-27.4-16.9-27.4-4 0-7.9 2-10.5 5.1z" id="SourceSansPro-Regular-39"/></defs><g transform="matrix(.12 0 0 -.12 31.37 70.75)"><use xlink:href="#SourceSansPro-Regular-39"/><use x="49.7" xlink:href="#SourceSansPro-Regular-30"/></g></g></g><g id="ytick_10"><path clip-path="url(#pa495930c66)" d="M53.3 33.14h446.4" fill="none" stroke="#8fa7bf" stroke-linecap="square" stroke-width=".5" id="line2d_36"/><use x="53.3" xlink:href="#m0563d4a749" y="33.14" id="line2d_37"/><use x="499.7" xlink:href="#m5e7bb69287" y="33.14" id="line2d_38"/><g transform="matrix(.12 0 0 -.12 25.4 36.19)" id="text_15"><use xlink:href="#SourceSansPro-Regular-31"/><use x="49.7" xlink:href="#SourceSansPro-Regular-30"/><use x="99.4" xlink:href="#SourceSansPro-Regular-30"/></g></g><g id="text_16"><defs><path d="M8.2 0h8.2v35.2c4.9 4.9 8.3 7.5 13.3 7.5 6.4 0 9.2-3.9 9.2-13V0h8.2v30.8c0 12.4-4.6 19-14.8 19-6.7 0-11.7-3.6-16.3-8.2h-.3l-.7 7H8.2z" id="SourceSansPro-Regular-6e"/><path d="M9 0h8.3v26h11.8c14.4 0 24.2 6.5 24.2 20.3 0 14.4-9.7 19.3-24.2 19.3H9zm8.3 32.8v26.1h10.8c11.3 0 16.9-3.1 16.9-12.6 0-9.3-5.5-13.5-16.9-13.5z" id="SourceSansPro-Regular-50"/><path d="M15.9 0h9.6l6.8 26c1.3 4.6 2.3 9.2 3.4 14.1h.4c1.2-4.9 2.1-9.4 3.3-14l7-26.1h10l13 48.6h-7.8l-7.1-28.1c-1-4.6-1.9-9-3-13.5h-.4c-1.1 4.5-2.2 8.9-3.4 13.5l-7.6 28.1h-8l-7.5-28.1c-1.2-4.5-2.2-9-3.3-13.5h-.4c-.9 4.5-1.8 8.9-2.9 13.5l-7.2 28.1H2.4z" id="SourceSansPro-Regular-77"/></defs><g transform="matrix(0 -.144 -.144 0 17.18 254.74)"><use xlink:href="#SourceSansPro-Regular-50"/><use x="57.6" xlink:href="#SourceSansPro-Regular-65"/><use x="107.2" xlink:href="#SourceSansPro-Regular-72"/><use x="141.9" xlink:href="#SourceSansPro-Regular-63"/><use x="187.5" xlink:href="#SourceSansPro-Regular-65"/><use x="237.1" xlink:href="#SourceSansPro-Regular-6e"/><use x="291.8" xlink:href="#SourceSansPro-Regular-74"/><use x="325.6" xlink:href="#SourceSansPro-Regular-61"/><use x="376.8" xlink:href="#SourceSansPro-Regular-67"/><use x="427.2" xlink:href="#SourceSansPro-Regular-65"/><use x="476.8" xlink:href="#SourceSansPro-Regular-20"/><use x="497" xlink:href="#SourceSansPro-Regular-77"/><use x="568.8" xlink:href="#SourceSansPro-Regular-6f"/><use x="623" xlink:href="#SourceSansPro-Regular-6e"/></g></g></g><path clip-path="url(#pa495930c66)" d="M67.25 378.74h39.06V207.36H67.25z" fill="#1369bf" id="patch_3"/><path clip-path="url(#pa495930c66)" d="M178.85 378.74h39.06V89.27h-39.06z" fill="#1369bf" id="patch_4"/><path clip-path="url(#pa495930c66)" d="M290.45 378.74h39.06v-199.1h-39.06z" fill="#1369bf" id="patch_5"/><path clip-path="url(#pa495930c66)" d="M402.05 378.74h39.06V173.17h-39.06z" fill="#1369bf" id="patch_6"/><path clip-path="url(#pa495930c66)" d="M111.89 378.74h39.06V174.9h-39.06z" fill="#bd3338" id="patch_7"/><path clip-path="url(#pa495930c66)" d="M223.49 378.74h39.06v-241.5h-39.06z" fill="#bd3338" id="patch_8"/><path clip-path="url(#pa495930c66)" d="M335.09 378.74h39.06V170.6h-39.06z" fill="#bd3338" id="patch_9"/><path clip-path="url(#pa495930c66)" d="M446.69 378.74h39.06V165.01h-39.06z" fill="#bd3338" id="patch_10"/><path d="M53.3 378.74V33.14" fill="none" stroke="#000" stroke-linecap="square" id="patch_11"/><path d="M53.3 378.74h446.4" fill="none" stroke="#000" stroke-linecap="square" id="patch_12"/><g id="text_17"><defs><path d="M3.1 9.3C6.9 2.4 12.9-1.2 21.2-1.2 34-1.2 39.3 8 39.3 19.3v46.3h-8.4V20.1c0-10-3.5-14-10.5-14-4.7 0-8.4 2.2-11.3 7.4z" id="SourceSansPro-Regular-4a"/><path d="M5.2 32.8c0-21.4 12.2-34 28.7-34 8.4 0 14.8 3.5 20 9.5l-4.7 5.1C45 8.7 40.4 6.1 34.1 6.1 21.7 6.1 13.8 16.5 13.8 33c0 16.3 8.2 26.5 20.7 26.5 5.5 0 9.7-2.4 13.1-6.1l4.7 5.3c-3.8 4.3-10 8.1-17.9 8.1-16.8 0-29.2-12.9-29.2-34" id="SourceSansPro-Regular-43"/><path d="M8.2 0h8.2v35.2c4.9 4.9 8.3 7.5 13.3 7.5 6.4 0 9.2-3.9 9.2-13V0h8.2v30.8c0 12.4-4.6 19-14.8 19-6.7 0-11.6-3.6-16.2-8l.3 10v19.4H8.2z" id="SourceSansPro-Regular-68"/><path d="M16.2 4.4c4.5-3.5 9-5.6 13.5-5.6 11.1 0 21 9.7 21 26.2 0 15.1-6.7 24.8-19.2 24.8-5.7 0-11.1-3.1-15.5-6.8h-.3l-.7 5.6H8.2v-69.1h8.2v16.4zm.2 6.4v25.5c4.8 4.3 8.9 6.6 13 6.6 9.2 0 12.8-7.2 12.8-17.9 0-12-5.9-19.3-13.9-19.3-3.2 0-7.5 1.4-11.9 5.1" id="SourceSansPro-Regular-70"/><path d="M7.5 17.8c0-12.4 4.6-19 14.9-19 6.7 0 11.5 3.5 16 8.8h.3l.7-7.6h6.8v48.6H38V14.1c-4.6-5.7-8.1-8.2-13.1-8.2-6.4 0-9.1 3.9-9.1 13v29.7H7.5z" id="SourceSansPro-Regular-75"/></defs><g transform="matrix(.1728 0 0 -.1728 120.6 19.5)"><use xlink:href="#SourceSansPro-Regular-4a"/><use x="48" xlink:href="#SourceSansPro-Regular-65"/><use x="97.6" xlink:href="#SourceSansPro-Regular-72"/><use x="132.3" xlink:href="#SourceSansPro-Regular-65"/><use x="181.9" xlink:href="#SourceSansPro-Regular-6d"/><use x="264.8" xlink:href="#SourceSansPro-Regular-79"/><use x="311.5" xlink:href="#SourceSansPro-Regular-20"/><use x="331.7" xlink:href="#SourceSansPro-Regular-43"/><use x="388.8" xlink:href="#SourceSansPro-Regular-6f"/><use x="443" xlink:href="#SourceSansPro-Regular-72"/><use x="477.7" xlink:href="#SourceSansPro-Regular-62"/><use x="533.2" xlink:href="#SourceSansPro-Regular-79"/><use x="579.9" xlink:href="#SourceSansPro-Regular-6e"/><use x="634.6" xlink:href="#SourceSansPro-Regular-20"/><use x="654.8" xlink:href="#SourceSansPro-Regular-6c"/><use x="680.3" xlink:href="#SourceSansPro-Regular-65"/><use x="729.9" xlink:href="#SourceSansPro-Regular-61"/><use x="781.1" xlink:href="#SourceSansPro-Regular-64"/><use x="836.6" xlink:href="#SourceSansPro-Regular-65"/><use x="886.2" xlink:href="#SourceSansPro-Regular-72"/><use x="920.9" xlink:href="#SourceSansPro-Regular-73"/><use x="962.8" xlink:href="#SourceSansPro-Regular-68"/><use x="1017.2" xlink:href="#SourceSansPro-Regular-69"/><use x="1041.8" xlink:href="#SourceSansPro-Regular-70"/><use x="1097.3" xlink:href="#SourceSansPro-Regular-20"/><use x="1117.5" xlink:href="#SourceSansPro-Regular-72"/><use x="1152.2" xlink:href="#SourceSansPro-Regular-65"/><use x="1201.8" xlink:href="#SourceSansPro-Regular-73"/><use x="1243.7" xlink:href="#SourceSansPro-Regular-75"/><use x="1298.1" xlink:href="#SourceSansPro-Regular-6c"/><use x="1323.6" xlink:href="#SourceSansPro-Regular-74"/><use x="1357.4" xlink:href="#SourceSansPro-Regular-20"/><use x="1377.6" xlink:href="#SourceSansPro-Regular-62"/><use x="1433.1" xlink:href="#SourceSansPro-Regular-79"/><use x="1479.8" xlink:href="#SourceSansPro-Regular-20"/><use x="1500" xlink:href="#SourceSansPro-Regular-73"/><use x="1541.9" xlink:href="#SourceSansPro-Regular-65"/><use x="1591.5" xlink:href="#SourceSansPro-Regular-63"/><use x="1637.1" xlink:href="#SourceSansPro-Regular-74"/><use x="1670.9" xlink:href="#SourceSansPro-Regular-69"/><use x="1695.5" xlink:href="#SourceSansPro-Regular-6f"/><use x="1749.7" xlink:href="#SourceSansPro-Regular-6e"/></g></g><g id="legend_1"><path d="M410.42 84.98h80.47V39.85h-80.47z" fill="#f7f8f9" stroke="#000" id="patch_13"/><path d="M416.18 55.87h28.8V45.79h-28.8z" fill="#1369bf" id="patch_14"/><g transform="matrix(.144 0 0 -.144 456.5 55.87)" id="text_18"><use xlink:href="#SourceSansPro-Regular-32"/><use x="49.7" xlink:href="#SourceSansPro-Regular-30"/><use x="99.4" xlink:href="#SourceSansPro-Regular-31"/><use x="149.1" xlink:href="#SourceSansPro-Regular-35"/></g><path d="M416.18 76.27h28.8V66.2h-28.8z" fill="#bd3338" id="patch_15"/><g transform="matrix(.144 0 0 -.144 456.5 76.27)" id="text_19"><use xlink:href="#SourceSansPro-Regular-32"/><use x="49.7" xlink:href="#SourceSansPro-Regular-30"/><use x="99.4" xlink:href="#SourceSansPro-Regular-31"/><use x="149.1" xlink:href="#SourceSansPro-Regular-36"/></g></g></g></g><defs><clipPath id="pa495930c66"><path d="M53.3 33.14h446.4v345.6H53.3z"/></clipPath></defs></svg>