<svg height="488" viewBox="0 0 618 366" width="824" xmlns="http://www.w3.org/2000/svg" xmlns:xlink="http://www.w3.org/1999/xlink"><defs><style>*{stroke-linecap:butt;stroke-linejoin:round;stroke-miterlimit:100000}</style></defs><g id="figure_1"><path d="M0 366.38h618.5V0H0z" fill="none" id="patch_1"/><g id="axes_1"><path d="M47.33 319.91h558v-288h-558z" fill="none" id="patch_2"/><g id="matplotlib.axis_1"><g id="xtick_1"><path clip-path="url(#p4561b5243e)" d="M47.33 319.91v-288" fill="none" stroke="#8fa7bf" stroke-linecap="square" stroke-width=".5" id="line2d_1"/><g id="line2d_2"><defs><path d="M0 0v-6" id="mec2e2de54a" stroke="#000" stroke-width=".5"/></defs><use x="47.33" xlink:href="#mec2e2de54a" y="319.91" stroke="#000" stroke-width=".5"/></g><g id="line2d_3"><defs><path d="M0 0v6" id="m6827afb76d" stroke="#000" stroke-width=".5"/></defs><use x="47.33" xlink:href="#m6827afb76d" y="31.91" stroke="#000" stroke-width=".5"/></g><g id="text_1"><defs><path d="M7.9 0h36v6.8H30.7v57h-6.3c-3.5-2.1-7.7-3.7-13.5-4.7v-5.3h11.6v-47H7.9z" id="SourceSansPro-Regular-31"/></defs><use xlink:href="#SourceSansPro-Regular-31" transform="matrix(.12 0 0 -.12 44.35 338.46)"/></g></g><g id="xtick_2"><path clip-path="url(#p4561b5243e)" d="M87.2 319.91v-288" fill="none" stroke="#8fa7bf" stroke-linecap="square" stroke-width=".5" id="line2d_4"/><use x="87.19" xlink:href="#mec2e2de54a" y="319.91" stroke="#000" stroke-width=".5" id="line2d_5"/><use x="87.19" xlink:href="#m6827afb76d" y="31.91" stroke="#000" stroke-width=".5" id="line2d_6"/><g id="text_2"><defs><path d="M4 0h41.2v7.1H26.7c-3.3 0-7.2-.3-10.7-.6 15.1 15.8 26 27.7 26 39.7C42 57.5 34.7 65 22.9 65c-8.3 0-14-3.9-19.3-9.7l4.7-4.7c3.7 4.3 8.3 7.7 13.6 7.7C30 58.3 34 53.1 34 45.8 34 35.5 23.2 24 4 4.9z" id="SourceSansPro-Regular-32"/></defs><use xlink:href="#SourceSansPro-Regular-32" transform="matrix(.12 0 0 -.12 84.2 338.46)"/></g></g><g id="xtick_3"><path clip-path="url(#p4561b5243e)" d="M127.05 319.91v-288" fill="none" stroke="#8fa7bf" stroke-linecap="square" stroke-width=".5" id="line2d_7"/><use x="127.05" xlink:href="#mec2e2de54a" y="319.91" stroke="#000" stroke-width=".5" id="line2d_8"/><use x="127.05" xlink:href="#m6827afb76d" y="31.91" stroke="#000" stroke-width=".5" id="line2d_9"/><g id="text_3"><defs><path d="M2.6 7.8c4.3-4.7 10.8-9 21-9 11.7 0 21 6.9 21 18.2 0 8.8-6.1 14.4-13.8 16.2v.4c6.9 2.6 11.6 7.5 11.6 15.2 0 10.3-8 16.2-19.1 16.2-7.5 0-13.4-3.4-18.3-8l4.4-5.2c3.8 3.8 8.3 6.5 13.6 6.5 6.8 0 11-3.9 11-10.1 0-6.7-4.5-11.9-18.1-11.9V30c15.2 0 20.4-5.1 20.4-12.7 0-7.1-5.5-11.7-13.2-11.7-7.5 0-12.5 3.6-16.3 7.6z" id="SourceSansPro-Regular-33"/></defs><use xlink:href="#SourceSansPro-Regular-33" transform="matrix(.12 0 0 -.12 124.07 338.46)"/></g></g><g id="xtick_4"><path clip-path="url(#p4561b5243e)" d="M166.9 319.91v-288" fill="none" stroke="#8fa7bf" stroke-linecap="square" stroke-width=".5" id="line2d_10"/><use x="166.91" xlink:href="#mec2e2de54a" y="319.91" stroke="#000" stroke-width=".5" id="line2d_11"/><use x="166.91" xlink:href="#m6827afb76d" y="31.91" stroke="#000" stroke-width=".5" id="line2d_12"/><g id="text_4"><defs><path d="M10.4 24.2L25.3 46c1.8 3.1 3.6 5.9 5.2 9h.4c-.2-3.4-.5-8.9-.5-12.3V24.2zm36.5 0h-8.7v39.6H29L1.7 23v-5.4h28.7V0h7.8v17.6h8.7z" id="SourceSansPro-Regular-34"/></defs><use xlink:href="#SourceSansPro-Regular-34" transform="matrix(.12 0 0 -.12 163.92 338.46)"/></g></g><g id="xtick_5"><path clip-path="url(#p4561b5243e)" d="M206.76 319.91v-288" fill="none" stroke="#8fa7bf" stroke-linecap="square" stroke-width=".5" id="line2d_13"/><use x="206.76" xlink:href="#mec2e2de54a" y="319.91" stroke="#000" stroke-width=".5" id="line2d_14"/><use x="206.76" xlink:href="#m6827afb76d" y="31.91" stroke="#000" stroke-width=".5" id="line2d_15"/><g id="text_5"><defs><path d="M2.5 7.5c4.4-4.4 10.7-8.7 20.9-8.7 11.1 0 21.5 7.8 21.5 21.6s-8.9 20-19.8 20c-3.9 0-6.8-1-9.8-2.6L17 56.7h24.7v7.1H9.8L7.7 33.1l4.4-2.8c3.8 2.5 6.5 3.9 10.9 3.9 8.2 0 13.6-5.2 13.6-14 0-8.9-6.2-14.6-14-14.6-7.5 0-12.3 3.5-16.1 7.3z" id="SourceSansPro-Regular-35"/></defs><use xlink:href="#SourceSansPro-Regular-35" transform="matrix(.12 0 0 -.12 203.78 338.46)"/></g></g><g id="xtick_6"><path clip-path="url(#p4561b5243e)" d="M246.62 319.91v-288" fill="none" stroke="#8fa7bf" stroke-linecap="square" stroke-width=".5" id="line2d_16"/><use x="246.62" xlink:href="#mec2e2de54a" y="319.91" stroke="#000" stroke-width=".5" id="line2d_17"/><use x="246.62" xlink:href="#m6827afb76d" y="31.91" stroke="#000" stroke-width=".5" id="line2d_18"/><g id="text_6"><defs><path d="M26.8 5.3c-8.1 0-13 6.7-14 19.1 4.3 6 9.3 8.4 13.3 8.4 7.9 0 11.8-5.2 11.8-13.5 0-8.4-4.8-14-11.1-14m17.7 52.9C40.9 62.1 36 65 29.1 65 16.4 65 4.8 55.1 4.8 29.5c0-20.5 9.5-30.7 22-30.7 10.3 0 18.9 8.3 18.9 20.5 0 13.1-7.2 19.7-18.2 19.7-5.2 0-10.9-3.1-14.9-8 .4 20.2 7.9 27.1 16.8 27.1 4 0 7.9-1.9 10.5-5z" id="SourceSansPro-Regular-36"/></defs><use xlink:href="#SourceSansPro-Regular-36" transform="matrix(.12 0 0 -.12 243.64 338.46)"/></g></g><g id="xtick_7"><path clip-path="url(#p4561b5243e)" d="M286.48 319.91v-288" fill="none" stroke="#8fa7bf" stroke-linecap="square" stroke-width=".5" id="line2d_19"/><use x="286.48" xlink:href="#mec2e2de54a" y="319.91" stroke="#000" stroke-width=".5" id="line2d_20"/><use x="286.48" xlink:href="#m6827afb76d" y="31.91" stroke="#000" stroke-width=".5" id="line2d_21"/><g id="text_7"><defs><path d="M17.7 0h8.5c1.1 24.9 4.2 39.4 19.3 58.7v5.1H4.4v-7.1h31.8C23.6 39.2 18.8 24 17.7 0" id="SourceSansPro-Regular-37"/></defs><use xlink:href="#SourceSansPro-Regular-37" transform="matrix(.12 0 0 -.12 283.5 338.46)"/></g></g><g id="xtick_8"><path clip-path="url(#p4561b5243e)" d="M326.33 319.91v-288" fill="none" stroke="#8fa7bf" stroke-linecap="square" stroke-width=".5" id="line2d_22"/><use x="326.33" xlink:href="#mec2e2de54a" y="319.91" stroke="#000" stroke-width=".5" id="line2d_23"/><use x="326.33" xlink:href="#m6827afb76d" y="31.91" stroke="#000" stroke-width=".5" id="line2d_24"/><g id="text_8"><defs><path d="M11.5 17.1c0 5.8 3.8 10.5 8.9 13.9 9.2-3.7 17.3-6.7 17.3-14.9 0-6.6-5.1-11.2-12.5-11.2-7.8 0-13.7 5.1-13.7 12.2m18 17.7c-7.7 3-14.7 6.2-14.7 13.8 0 6.2 4.4 10.3 10.3 10.3 7 0 11.1-5 11.1-11.3 0-4.7-2.4-9-6.7-12.8M4.1 16.3C4.1 6.2 13-1.2 25-1.2c12.4 0 20.6 7.5 20.6 17 0 8.6-5.4 13.1-11.1 16.4v.4c3.9 3 8.8 8.7 8.8 15.4 0 9.9-6.9 17-18 17C15 65 7.2 58.4 7.2 48.6c0-6.7 4.2-11.4 8.9-14.7v-.4c-6-3.2-12-8.9-12-17.2" id="SourceSansPro-Regular-38"/></defs><use xlink:href="#SourceSansPro-Regular-38" transform="matrix(.12 0 0 -.12 323.35 338.46)"/></g></g><g id="xtick_9"><path clip-path="url(#p4561b5243e)" d="M366.2 319.91v-288" fill="none" stroke="#8fa7bf" stroke-linecap="square" stroke-width=".5" id="line2d_25"/><use x="366.19" xlink:href="#mec2e2de54a" y="319.91" stroke="#000" stroke-width=".5" id="line2d_26"/><use x="366.19" xlink:href="#m6827afb76d" y="31.91" stroke="#000" stroke-width=".5" id="line2d_27"/><g id="text_9"><defs><path d="M23.5 31c-7.9 0-11.8 5.2-11.8 13.5 0 8.4 4.9 14 11.1 14 8.1 0 13-6.6 14.1-19-4.3-6.1-9.3-8.5-13.4-8.5M5.1 5.5c3.5-3.8 8.6-6.7 15.4-6.7 12.7 0 24.3 9.9 24.3 35.5 0 20.5-9.4 30.7-22 30.7C12.6 65 4 56.7 4 44.5c0-13.1 7.1-19.7 18.1-19.7 5.3 0 11 3.1 15 8.2-.3-20.4-7.9-27.4-16.9-27.4-4 0-7.9 2-10.5 5.1z" id="SourceSansPro-Regular-39"/></defs><use xlink:href="#SourceSansPro-Regular-39" transform="matrix(.12 0 0 -.12 363.2 338.46)"/></g></g><g id="xtick_10"><path clip-path="url(#p4561b5243e)" d="M406.05 319.91v-288" fill="none" stroke="#8fa7bf" stroke-linecap="square" stroke-width=".5" id="line2d_28"/><use x="406.05" xlink:href="#mec2e2de54a" y="319.91" stroke="#000" stroke-width=".5" id="line2d_29"/><use x="406.05" xlink:href="#m6827afb76d" y="31.91" stroke="#000" stroke-width=".5" id="line2d_30"/><g id="text_10"><defs><path d="M24.9-1.2c12.7 0 20.4 11.9 20.4 33.3S37.6 65 24.9 65C12.1 65 4.4 53.5 4.4 32.1S12.1-1.2 24.9-1.2m0 6.6c-7.5 0-12.5 8-12.5 26.7s5 26.3 12.5 26.3c7.4 0 12.4-7.6 12.4-26.3 0-18.7-5-26.7-12.4-26.7" id="SourceSansPro-Regular-30"/></defs><g transform="matrix(.12 0 0 -.12 400.08 338.46)"><use xlink:href="#SourceSansPro-Regular-31"/><use x="49.7" xlink:href="#SourceSansPro-Regular-30"/></g></g></g><g id="xtick_11"><path clip-path="url(#p4561b5243e)" d="M445.9 319.91v-288" fill="none" stroke="#8fa7bf" stroke-linecap="square" stroke-width=".5" id="line2d_31"/><use x="445.91" xlink:href="#mec2e2de54a" y="319.91" stroke="#000" stroke-width=".5" id="line2d_32"/><use x="445.91" xlink:href="#m6827afb76d" y="31.91" stroke="#000" stroke-width=".5" id="line2d_33"/><g transform="matrix(.12 0 0 -.12 439.94 338.46)" id="text_11"><use xlink:href="#SourceSansPro-Regular-31"/><use x="49.7" xlink:href="#SourceSansPro-Regular-31"/></g></g><g id="xtick_12"><path clip-path="url(#p4561b5243e)" d="M485.76 319.91v-288" fill="none" stroke="#8fa7bf" stroke-linecap="square" stroke-width=".5" id="line2d_34"/><use x="485.76" xlink:href="#mec2e2de54a" y="319.91" stroke="#000" stroke-width=".5" id="line2d_35"/><use x="485.76" xlink:href="#m6827afb76d" y="31.91" stroke="#000" stroke-width=".5" id="line2d_36"/><g transform="matrix(.12 0 0 -.12 479.8 338.46)" id="text_12"><use xlink:href="#SourceSansPro-Regular-31"/><use x="49.7" xlink:href="#SourceSansPro-Regular-32"/></g></g><g id="xtick_13"><path clip-path="url(#p4561b5243e)" d="M525.62 319.91v-288" fill="none" stroke="#8fa7bf" stroke-linecap="square" stroke-width=".5" id="line2d_37"/><use x="525.62" xlink:href="#mec2e2de54a" y="319.91" stroke="#000" stroke-width=".5" id="line2d_38"/><use x="525.62" xlink:href="#m6827afb76d" y="31.91" stroke="#000" stroke-width=".5" id="line2d_39"/><g transform="matrix(.12 0 0 -.12 519.66 338.46)" id="text_13"><use xlink:href="#SourceSansPro-Regular-31"/><use x="49.7" xlink:href="#SourceSansPro-Regular-33"/></g></g><g id="xtick_14"><path clip-path="url(#p4561b5243e)" d="M565.48 319.91v-288" fill="none" stroke="#8fa7bf" stroke-linecap="square" stroke-width=".5" id="line2d_40"/><use x="565.48" xlink:href="#mec2e2de54a" y="319.91" stroke="#000" stroke-width=".5" id="line2d_41"/><use x="565.48" xlink:href="#m6827afb76d" y="31.91" stroke="#000" stroke-width=".5" id="line2d_42"/><g transform="matrix(.12 0 0 -.12 559.51 338.46)" id="text_14"><use xlink:href="#SourceSansPro-Regular-31"/><use x="49.7" xlink:href="#SourceSansPro-Regular-34"/></g></g><g id="xtick_15"><path clip-path="url(#p4561b5243e)" d="M605.33 319.91v-288" fill="none" stroke="#8fa7bf" stroke-linecap="square" stroke-width=".5" id="line2d_43"/><use x="605.33" xlink:href="#mec2e2de54a" y="319.91" stroke="#000" stroke-width=".5" id="line2d_44"/><use x="605.33" xlink:href="#m6827afb76d" y="31.91" stroke="#000" stroke-width=".5" id="line2d_45"/><g transform="matrix(.12 0 0 -.12 599.37 338.46)" id="text_15"><use xlink:href="#SourceSansPro-Regular-31"/><use x="49.7" xlink:href="#SourceSansPro-Regular-35"/></g></g><g id="text_16"><defs><path d="M4.9-13.4l-1.6-6.5c1.6-.6 3.5-1 5.7-1 9.8 0 14.8 7.3 18.2 16.9l18.3 52.6h-8l-8.7-26.9c-1.3-4.3-2.7-9.3-4.1-13.7h-.4c-1.5 4.5-3.2 9.5-4.7 13.7L9.7 48.6H1.2L20.7-.1l-1.1-3.6c-2-6-5.5-10.4-11-10.4-1.2 0-2.7.4-3.7.7" id="SourceSansPro-Regular-79"/><path d="M8.2 0h8.2v35.2c4.5 5 8.6 7.5 12.2 7.5 6.2 0 9.1-3.9 9.1-13V0h8.2v35.2c4.5 5 8.4 7.5 12.2 7.5 6.1 0 9-3.9 9-13V0h8.2v30.8c0 12.4-4.8 19-14.8 19-5.9 0-10.9-3.8-16-9.3-2 5.8-6 9.3-13.4 9.3-5.8 0-10.9-3.6-15.1-8.2h-.3l-.7 7H8.2z" id="SourceSansPro-Regular-6d"/><path d="M2.8 5.5C7.4 1.7 14-1.2 20.9-1.2c11.5 0 17.8 6.6 17.8 14.5 0 9.2-7.8 12.1-14.8 14.7-5.5 2.1-10.8 3.8-10.8 8.4 0 3.7 2.8 7 8.9 7 4.3 0 7.8-1.8 11.1-4.3l3.9 5.2c-3.7 3-9 5.5-15.1 5.5-10.5 0-16.7-6-16.7-13.8 0-8.2 7.6-11.5 14.5-14 5.3-2 11.1-4.2 11.1-9.2 0-4.2-3.2-7.6-9.6-7.6-5.8 0-10.1 2.4-14.3 5.8z" id="SourceSansPro-Regular-73"/><path d="M4.6 24.2C4.6 8.3 14.9-1.2 27.9-1.2c6.6 0 11.8 2.3 16 5L41 9.2c-3.6-2.3-7.5-3.8-12.1-3.8-9.3 0-15.6 6.6-16.2 17.1h32.8c.2 1.2.3 2.8.3 4.5 0 13.9-7 22.8-19.4 22.8-11.1 0-21.8-9.7-21.8-25.6m8 3.7c1 9.8 7.2 15.4 14 15.4 7.6 0 12-5.5 12-15.4z" id="SourceSansPro-Regular-65"/><path d="M16.2 4.4c4.5-3.5 9-5.6 13.5-5.6 11.1 0 21 9.7 21 26.2 0 15.1-6.7 24.8-19.2 24.8-5.7 0-11.1-3.1-15.5-6.8h-.3l-.7 5.6H8.2v-69.1h8.2v16.4zm.2 6.4v25.5c4.8 4.3 8.9 6.6 13 6.6 9.2 0 12.8-7.2 12.8-17.9 0-12-5.9-19.3-13.9-19.3-3.2 0-7.5 1.4-11.9 5.1" id="SourceSansPro-Regular-70"/><path d="M4.7 24.2C4.7 8 12.6-1.2 24.8-1.2c5.7 0 10.9 3.2 14.7 6.9h.3l.7-5.7h6.8v71.2H39V52.5l.4-8.3c-4.3 3.5-8 5.6-13.6 5.6-11.1 0-21.1-9.8-21.1-25.6m8.5.1c0 11.1 6.2 18.6 14 18.6 4 0 7.7-1.4 11.8-5.1V12.4c-4-4.5-7.9-6.7-12.4-6.7-8.5 0-13.4 7-13.4 18.6" id="SourceSansPro-Regular-64"/><path d="M5.8 12.6c0-8.7 6.1-13.8 14.3-13.8 6 0 11.4 3.2 16.1 7h.2l.7-5.8h6.8v29.8c0 12.1-5 20-16.9 20-7.8 0-14.6-3.4-19.1-6.3l3.3-5.7C15 40.4 20 43 25.7 43c7.9 0 10-6 10-12.2C15 28.5 5.8 23.2 5.8 12.6m8.1.6c0 6.2 5.5 10.2 21.8 12.2V11.9C31 7.7 27.1 5.4 22.4 5.4c-4.8 0-8.5 2.3-8.5 7.8" id="SourceSansPro-Regular-61"/><path d="M8.2 9.8c0-7.1 2.5-11 8.7-11 2.2 0 3.6.3 4.7.8l-1.1 6.2c-.9-.2-1.3-.2-1.8-.2-1.2 0-2.3 1-2.3 3.6v62H8.2z" id="SourceSansPro-Regular-6c"/><path d="M5.2 32.8c0-21.4 12.3-34 29.5-34 8.8 0 16 3.2 20.3 7.6V34H33.5v-6.9h13.9V10c-2.6-2.4-7.1-3.9-11.8-3.9-14 0-21.8 10.4-21.8 26.9 0 16.3 8.5 26.5 21.7 26.5 6.6 0 10.7-2.6 14-6.1l4.7 5.3c-3.8 4-9.8 8.1-18.8 8.1-17.5 0-30.2-12.9-30.2-34" id="SourceSansPro-Regular-47"/></defs><g transform="matrix(.144 0 0 -.144 283.74 356.17)"><use xlink:href="#SourceSansPro-Regular-47"/><use x="61.7" xlink:href="#SourceSansPro-Regular-61"/><use x="112.9" xlink:href="#SourceSansPro-Regular-6d"/><use x="195.8" xlink:href="#SourceSansPro-Regular-65"/><use x="245.4" xlink:href="#SourceSansPro-Regular-73"/><use x="287.3" xlink:href="#SourceSansPro-Regular-20"/><use x="307.5" xlink:href="#SourceSansPro-Regular-70"/><use x="363" xlink:href="#SourceSansPro-Regular-6c"/><use x="388.5" xlink:href="#SourceSansPro-Regular-61"/><use x="439.7" xlink:href="#SourceSansPro-Regular-79"/><use x="486.4" xlink:href="#SourceSansPro-Regular-65"/><use x="536" xlink:href="#SourceSansPro-Regular-64"/></g></g></g><g id="matplotlib.axis_2"><g id="ytick_1"><path clip-path="url(#p4561b5243e)" d="M47.33 319.91h558" fill="none" stroke="#8fa7bf" stroke-linecap="square" stroke-width=".5" id="line2d_46"/><g id="line2d_47"><defs><path d="M0 0h6" id="m7472c7789c" stroke="#000" stroke-width=".5"/></defs><use x="47.33" xlink:href="#m7472c7789c" y="319.91" stroke="#000" stroke-width=".5"/></g><g id="line2d_48"><defs><path d="M0 0h-6" id="m0e7ca710bb" stroke="#000" stroke-width=".5"/></defs><use x="605.33" xlink:href="#m0e7ca710bb" y="319.91" stroke="#000" stroke-width=".5"/></g><use xlink:href="#SourceSansPro-Regular-30" transform="matrix(.12 0 0 -.12 31.37 322.95)" id="text_17"/></g><g id="ytick_2"><path clip-path="url(#p4561b5243e)" d="M47.33 293.73h558" fill="none" stroke="#8fa7bf" stroke-linecap="square" stroke-width=".5" id="line2d_49"/><use x="47.33" xlink:href="#m7472c7789c" y="293.73" stroke="#000" stroke-width=".5" id="line2d_50"/><use x="605.33" xlink:href="#m0e7ca710bb" y="293.73" stroke="#000" stroke-width=".5" id="line2d_51"/><use xlink:href="#SourceSansPro-Regular-33" transform="matrix(.12 0 0 -.12 31.37 296.77)" id="text_18"/></g><g id="ytick_3"><path clip-path="url(#p4561b5243e)" d="M47.33 267.55h558" fill="none" stroke="#8fa7bf" stroke-linecap="square" stroke-width=".5" id="line2d_52"/><use x="47.33" xlink:href="#m7472c7789c" y="267.55" stroke="#000" stroke-width=".5" id="line2d_53"/><use x="605.33" xlink:href="#m0e7ca710bb" y="267.55" stroke="#000" stroke-width=".5" id="line2d_54"/><use xlink:href="#SourceSansPro-Regular-36" transform="matrix(.12 0 0 -.12 31.37 270.59)" id="text_19"/></g><g id="ytick_4"><path clip-path="url(#p4561b5243e)" d="M47.33 241.37h558" fill="none" stroke="#8fa7bf" stroke-linecap="square" stroke-width=".5" id="line2d_55"/><use x="47.33" xlink:href="#m7472c7789c" y="241.37" stroke="#000" stroke-width=".5" id="line2d_56"/><use x="605.33" xlink:href="#m0e7ca710bb" y="241.37" stroke="#000" stroke-width=".5" id="line2d_57"/><use xlink:href="#SourceSansPro-Regular-39" transform="matrix(.12 0 0 -.12 31.37 244.4)" id="text_20"/></g><g id="ytick_5"><path clip-path="url(#p4561b5243e)" d="M47.33 215.18h558" fill="none" stroke="#8fa7bf" stroke-linecap="square" stroke-width=".5" id="line2d_58"/><use x="47.33" xlink:href="#m7472c7789c" y="215.18" stroke="#000" stroke-width=".5" id="line2d_59"/><use x="605.33" xlink:href="#m0e7ca710bb" y="215.18" stroke="#000" stroke-width=".5" id="line2d_60"/><g transform="matrix(.12 0 0 -.12 25.4 218.23)" id="text_21"><use xlink:href="#SourceSansPro-Regular-31"/><use x="49.7" xlink:href="#SourceSansPro-Regular-32"/></g></g><g id="ytick_6"><path clip-path="url(#p4561b5243e)" d="M47.33 189h558" fill="none" stroke="#8fa7bf" stroke-linecap="square" stroke-width=".5" id="line2d_61"/><use x="47.33" xlink:href="#m7472c7789c" y="189" stroke="#000" stroke-width=".5" id="line2d_62"/><use x="605.33" xlink:href="#m0e7ca710bb" y="189" stroke="#000" stroke-width=".5" id="line2d_63"/><g transform="matrix(.12 0 0 -.12 25.4 192.04)" id="text_22"><use xlink:href="#SourceSansPro-Regular-31"/><use x="49.7" xlink:href="#SourceSansPro-Regular-35"/></g></g><g id="ytick_7"><path clip-path="url(#p4561b5243e)" d="M47.33 162.82h558" fill="none" stroke="#8fa7bf" stroke-linecap="square" stroke-width=".5" id="line2d_64"/><use x="47.33" xlink:href="#m7472c7789c" y="162.82" stroke="#000" stroke-width=".5" id="line2d_65"/><use x="605.33" xlink:href="#m0e7ca710bb" y="162.82" stroke="#000" stroke-width=".5" id="line2d_66"/><g transform="matrix(.12 0 0 -.12 25.4 165.86)" id="text_23"><use xlink:href="#SourceSansPro-Regular-31"/><use x="49.7" xlink:href="#SourceSansPro-Regular-38"/></g></g><g id="ytick_8"><path clip-path="url(#p4561b5243e)" d="M47.33 136.64h558" fill="none" stroke="#8fa7bf" stroke-linecap="square" stroke-width=".5" id="line2d_67"/><use x="47.33" xlink:href="#m7472c7789c" y="136.64" stroke="#000" stroke-width=".5" id="line2d_68"/><use x="605.33" xlink:href="#m0e7ca710bb" y="136.64" stroke="#000" stroke-width=".5" id="line2d_69"/><g transform="matrix(.12 0 0 -.12 25.4 139.68)" id="text_24"><use xlink:href="#SourceSansPro-Regular-32"/><use x="49.7" xlink:href="#SourceSansPro-Regular-31"/></g></g><g id="ytick_9"><path clip-path="url(#p4561b5243e)" d="M47.33 110.46h558" fill="none" stroke="#8fa7bf" stroke-linecap="square" stroke-width=".5" id="line2d_70"/><use x="47.33" xlink:href="#m7472c7789c" y="110.46" stroke="#000" stroke-width=".5" id="line2d_71"/><use x="605.33" xlink:href="#m0e7ca710bb" y="110.46" stroke="#000" stroke-width=".5" id="line2d_72"/><g transform="matrix(.12 0 0 -.12 25.4 113.5)" id="text_25"><use xlink:href="#SourceSansPro-Regular-32"/><use x="49.7" xlink:href="#SourceSansPro-Regular-34"/></g></g><g id="ytick_10"><path clip-path="url(#p4561b5243e)" d="M47.33 84.28h558" fill="none" stroke="#8fa7bf" stroke-linecap="square" stroke-width=".5" id="line2d_73"/><use x="47.33" xlink:href="#m7472c7789c" y="84.28" stroke="#000" stroke-width=".5" id="line2d_74"/><use x="605.33" xlink:href="#m0e7ca710bb" y="84.28" stroke="#000" stroke-width=".5" id="line2d_75"/><g transform="matrix(.12 0 0 -.12 25.4 87.32)" id="text_26"><use xlink:href="#SourceSansPro-Regular-32"/><use x="49.7" xlink:href="#SourceSansPro-Regular-37"/></g></g><g id="ytick_11"><path clip-path="url(#p4561b5243e)" d="M47.33 58.1h558" fill="none" stroke="#8fa7bf" stroke-linecap="square" stroke-width=".5" id="line2d_76"/><use x="47.33" xlink:href="#m7472c7789c" y="58.09" stroke="#000" stroke-width=".5" id="line2d_77"/><use x="605.33" xlink:href="#m0e7ca710bb" y="58.09" stroke="#000" stroke-width=".5" id="line2d_78"/><g transform="matrix(.12 0 0 -.12 25.4 61.14)" id="text_27"><use xlink:href="#SourceSansPro-Regular-33"/><use x="49.7" xlink:href="#SourceSansPro-Regular-30"/></g></g><g id="ytick_12"><path clip-path="url(#p4561b5243e)" d="M47.33 31.91h558" fill="none" stroke="#8fa7bf" stroke-linecap="square" stroke-width=".5" id="line2d_79"/><use x="47.33" xlink:href="#m7472c7789c" y="31.91" stroke="#000" stroke-width=".5" id="line2d_80"/><use x="605.33" xlink:href="#m0e7ca710bb" y="31.91" stroke="#000" stroke-width=".5" id="line2d_81"/><g transform="matrix(.12 0 0 -.12 25.4 34.95)" id="text_28"><use xlink:href="#SourceSansPro-Regular-33"/><use x="49.7" xlink:href="#SourceSansPro-Regular-33"/></g></g><g id="ytick_13"><g id="line2d_82"><defs><path d="M0 0h3" id="mf57f3e7f2d" stroke="#000" stroke-width=".5"/></defs><use x="47.33" xlink:href="#mf57f3e7f2d" y="319.91" stroke="#000" stroke-width=".5"/></g><g id="line2d_83"><defs><path d="M0 0h-3" id="m5b8f864fb8" stroke="#000" stroke-width=".5"/></defs><use x="605.33" xlink:href="#m5b8f864fb8" y="319.91" stroke="#000" stroke-width=".5"/></g></g><g id="ytick_14" stroke="#000" stroke-width=".5"><use x="47.33" xlink:href="#mf57f3e7f2d" y="311.18" id="line2d_84"/><use x="605.33" xlink:href="#m5b8f864fb8" y="311.18" id="line2d_85"/></g><g id="ytick_15" stroke="#000" stroke-width=".5"><use x="47.33" xlink:href="#mf57f3e7f2d" y="302.46" id="line2d_86"/><use x="605.33" xlink:href="#m5b8f864fb8" y="302.46" id="line2d_87"/></g><g id="ytick_16" stroke="#000" stroke-width=".5"><use x="47.33" xlink:href="#mf57f3e7f2d" y="293.73" id="line2d_88"/><use x="605.33" xlink:href="#m5b8f864fb8" y="293.73" id="line2d_89"/></g><g id="ytick_17" stroke="#000" stroke-width=".5"><use x="47.33" xlink:href="#mf57f3e7f2d" y="285" id="line2d_90"/><use x="605.33" xlink:href="#m5b8f864fb8" y="285" id="line2d_91"/></g><g id="ytick_18" stroke="#000" stroke-width=".5"><use x="47.33" xlink:href="#mf57f3e7f2d" y="276.28" id="line2d_92"/><use x="605.33" xlink:href="#m5b8f864fb8" y="276.28" id="line2d_93"/></g><g id="ytick_19" stroke="#000" stroke-width=".5"><use x="47.33" xlink:href="#mf57f3e7f2d" y="267.55" id="line2d_94"/><use x="605.33" xlink:href="#m5b8f864fb8" y="267.55" id="line2d_95"/></g><g id="ytick_20" stroke="#000" stroke-width=".5"><use x="47.33" xlink:href="#mf57f3e7f2d" y="258.82" id="line2d_96"/><use x="605.33" xlink:href="#m5b8f864fb8" y="258.82" id="line2d_97"/></g><g id="ytick_21" stroke="#000" stroke-width=".5"><use x="47.33" xlink:href="#mf57f3e7f2d" y="250.09" id="line2d_98"/><use x="605.33" xlink:href="#m5b8f864fb8" y="250.09" id="line2d_99"/></g><g id="ytick_22" stroke="#000" stroke-width=".5"><use x="47.33" xlink:href="#mf57f3e7f2d" y="241.37" id="line2d_100"/><use x="605.33" xlink:href="#m5b8f864fb8" y="241.37" id="line2d_101"/></g><g id="ytick_23" stroke="#000" stroke-width=".5"><use x="47.33" xlink:href="#mf57f3e7f2d" y="232.64" id="line2d_102"/><use x="605.33" xlink:href="#m5b8f864fb8" y="232.64" id="line2d_103"/></g><g id="ytick_24" stroke="#000" stroke-width=".5"><use x="47.33" xlink:href="#mf57f3e7f2d" y="223.91" id="line2d_104"/><use x="605.33" xlink:href="#m5b8f864fb8" y="223.91" id="line2d_105"/></g><g id="ytick_25" stroke="#000" stroke-width=".5"><use x="47.33" xlink:href="#mf57f3e7f2d" y="215.18" id="line2d_106"/><use x="605.33" xlink:href="#m5b8f864fb8" y="215.18" id="line2d_107"/></g><g id="ytick_26" stroke="#000" stroke-width=".5"><use x="47.33" xlink:href="#mf57f3e7f2d" y="206.46" id="line2d_108"/><use x="605.33" xlink:href="#m5b8f864fb8" y="206.46" id="line2d_109"/></g><g id="ytick_27" stroke="#000" stroke-width=".5"><use x="47.33" xlink:href="#mf57f3e7f2d" y="197.73" id="line2d_110"/><use x="605.33" xlink:href="#m5b8f864fb8" y="197.73" id="line2d_111"/></g><g id="ytick_28" stroke="#000" stroke-width=".5"><use x="47.33" xlink:href="#mf57f3e7f2d" y="189" id="line2d_112"/><use x="605.33" xlink:href="#m5b8f864fb8" y="189" id="line2d_113"/></g><g id="ytick_29" stroke="#000" stroke-width=".5"><use x="47.33" xlink:href="#mf57f3e7f2d" y="180.28" id="line2d_114"/><use x="605.33" xlink:href="#m5b8f864fb8" y="180.28" id="line2d_115"/></g><g id="ytick_30" stroke="#000" stroke-width=".5"><use x="47.33" xlink:href="#mf57f3e7f2d" y="171.55" id="line2d_116"/><use x="605.33" xlink:href="#m5b8f864fb8" y="171.55" id="line2d_117"/></g><g id="ytick_31" stroke="#000" stroke-width=".5"><use x="47.33" xlink:href="#mf57f3e7f2d" y="162.82" id="line2d_118"/><use x="605.33" xlink:href="#m5b8f864fb8" y="162.82" id="line2d_119"/></g><g id="ytick_32" stroke="#000" stroke-width=".5"><use x="47.33" xlink:href="#mf57f3e7f2d" y="154.09" id="line2d_120"/><use x="605.33" xlink:href="#m5b8f864fb8" y="154.09" id="line2d_121"/></g><g id="ytick_33" stroke="#000" stroke-width=".5"><use x="47.33" xlink:href="#mf57f3e7f2d" y="145.37" id="line2d_122"/><use x="605.33" xlink:href="#m5b8f864fb8" y="145.37" id="line2d_123"/></g><g id="ytick_34" stroke="#000" stroke-width=".5"><use x="47.33" xlink:href="#mf57f3e7f2d" y="136.64" id="line2d_124"/><use x="605.33" xlink:href="#m5b8f864fb8" y="136.64" id="line2d_125"/></g><g id="ytick_35" stroke="#000" stroke-width=".5"><use x="47.33" xlink:href="#mf57f3e7f2d" y="127.91" id="line2d_126"/><use x="605.33" xlink:href="#m5b8f864fb8" y="127.91" id="line2d_127"/></g><g id="ytick_36" stroke="#000" stroke-width=".5"><use x="47.33" xlink:href="#mf57f3e7f2d" y="119.18" id="line2d_128"/><use x="605.33" xlink:href="#m5b8f864fb8" y="119.18" id="line2d_129"/></g><g id="ytick_37" stroke="#000" stroke-width=".5"><use x="47.33" xlink:href="#mf57f3e7f2d" y="110.46" id="line2d_130"/><use x="605.33" xlink:href="#m5b8f864fb8" y="110.46" id="line2d_131"/></g><g id="ytick_38" stroke="#000" stroke-width=".5"><use x="47.33" xlink:href="#mf57f3e7f2d" y="101.73" id="line2d_132"/><use x="605.33" xlink:href="#m5b8f864fb8" y="101.73" id="line2d_133"/></g><g id="ytick_39" stroke="#000" stroke-width=".5"><use x="47.33" xlink:href="#mf57f3e7f2d" y="93" id="line2d_134"/><use x="605.33" xlink:href="#m5b8f864fb8" y="93" id="line2d_135"/></g><g id="ytick_40" stroke="#000" stroke-width=".5"><use x="47.33" xlink:href="#mf57f3e7f2d" y="84.28" id="line2d_136"/><use x="605.33" xlink:href="#m5b8f864fb8" y="84.28" id="line2d_137"/></g><g id="ytick_41" stroke="#000" stroke-width=".5"><use x="47.33" xlink:href="#mf57f3e7f2d" y="75.55" id="line2d_138"/><use x="605.33" xlink:href="#m5b8f864fb8" y="75.55" id="line2d_139"/></g><g id="ytick_42" stroke="#000" stroke-width=".5"><use x="47.33" xlink:href="#mf57f3e7f2d" y="66.82" id="line2d_140"/><use x="605.33" xlink:href="#m5b8f864fb8" y="66.82" id="line2d_141"/></g><g id="ytick_43" stroke="#000" stroke-width=".5"><use x="47.33" xlink:href="#mf57f3e7f2d" y="58.09" id="line2d_142"/><use x="605.33" xlink:href="#m5b8f864fb8" y="58.09" id="line2d_143"/></g><g id="ytick_44" stroke="#000" stroke-width=".5"><use x="47.33" xlink:href="#mf57f3e7f2d" y="49.37" id="line2d_144"/><use x="605.33" xlink:href="#m5b8f864fb8" y="49.37" id="line2d_145"/></g><g id="ytick_45" stroke="#000" stroke-width=".5"><use x="47.33" xlink:href="#mf57f3e7f2d" y="40.64" id="line2d_146"/><use x="605.33" xlink:href="#m5b8f864fb8" y="40.64" id="line2d_147"/></g><g id="ytick_46" stroke="#000" stroke-width=".5"><use x="47.33" xlink:href="#mf57f3e7f2d" y="31.91" id="line2d_148"/><use x="605.33" xlink:href="#m5b8f864fb8" y="31.91" id="line2d_149"/></g><g id="text_29"><defs><path d="M9.6 15c0-9.6 3.5-16.2 13.9-16.2 3 0 6.3.9 9 1.8l-1.6 6.2c-1.6-.6-3.8-1.3-5.5-1.3-5.6 0-7.5 3.4-7.5 9.4v27H31v6.7H17.9v13.6H11l-1-13.6-7.6-.5v-6.2h7.2z" id="SourceSansPro-Regular-74"/><path d="M4.6 24.2C4.6 8.1 15.2-1.2 27.1-1.2s22.5 9.3 22.5 25.4c0 16.3-10.6 25.6-22.5 25.6S4.6 40.5 4.6 24.2m8.5 0c0 11.2 5.7 18.8 14 18.8 8.4 0 14-7.6 14-18.8 0-11.1-5.6-18.6-14-18.6-8.3 0-14 7.5-14 18.6" id="SourceSansPro-Regular-6f"/><path d="M8.2 0h8.2v35.2c4.9 4.9 8.3 7.5 13.3 7.5 6.4 0 9.2-3.9 9.2-13V0h8.2v30.8c0 12.4-4.6 19-14.8 19-6.7 0-11.7-3.6-16.3-8.2h-.3l-.7 7H8.2z" id="SourceSansPro-Regular-6e"/><path d="M9 0h8.3v26h11.8c14.4 0 24.2 6.5 24.2 20.3 0 14.4-9.7 19.3-24.2 19.3H9zm8.3 32.8v26.1h10.8c11.3 0 16.9-3.1 16.9-12.6 0-9.3-5.5-13.5-16.9-13.5z" id="SourceSansPro-Regular-50"/><path d="M12.4 58.6c3.2 0 5.7 2.2 5.7 5.3 0 3.2-2.5 5.3-5.7 5.3s-5.7-2.1-5.7-5.3c0-3.1 2.5-5.3 5.7-5.3M8.2 0h8.2v48.6H8.2z" id="SourceSansPro-Regular-69"/></defs><g transform="matrix(0 -.144 -.144 0 17.45 210.87)"><use xlink:href="#SourceSansPro-Regular-50"/><use x="57.6" xlink:href="#SourceSansPro-Regular-6f"/><use x="111.8" xlink:href="#SourceSansPro-Regular-69"/><use x="136.4" xlink:href="#SourceSansPro-Regular-6e"/><use x="191.1" xlink:href="#SourceSansPro-Regular-74"/><use x="224.9" xlink:href="#SourceSansPro-Regular-73"/><use x="266.8" xlink:href="#SourceSansPro-Regular-20"/><use x="287" xlink:href="#SourceSansPro-Regular-74"/><use x="320.8" xlink:href="#SourceSansPro-Regular-6f"/><use x="375" xlink:href="#SourceSansPro-Regular-74"/><use x="408.8" xlink:href="#SourceSansPro-Regular-61"/><use x="460" xlink:href="#SourceSansPro-Regular-6c"/></g></g></g><g id="line2d_150"><path clip-path="url(#p4561b5243e)" d="M47.33 311.18H87.2l39.86-8.72 39.86-26.18 39.85-26.19h39.86l39.86-8.72H445.9l39.85-8.73H619.5" fill="none" stroke="#1369bf" stroke-linecap="square" stroke-width="2"/><defs><path d="M0 3a3 3 0 1 0 0-6 3 3 0 0 0 0 6z" id="m07f8c71760" stroke="#000" stroke-width=".5"/></defs><g clip-path="url(#p4561b5243e)" fill="#1369bf" stroke="#000" stroke-width=".5"><use x="47.33" xlink:href="#m07f8c71760" y="311.18"/><use x="87.19" xlink:href="#m07f8c71760" y="311.18"/><use x="127.05" xlink:href="#m07f8c71760" y="302.46"/><use x="166.91" xlink:href="#m07f8c71760" y="276.28"/><use x="206.76" xlink:href="#m07f8c71760" y="250.09"/><use x="246.62" xlink:href="#m07f8c71760" y="250.09"/><use x="286.48" xlink:href="#m07f8c71760" y="241.37"/><use x="326.33" xlink:href="#m07f8c71760" y="241.37"/><use x="366.19" xlink:href="#m07f8c71760" y="241.37"/><use x="406.05" xlink:href="#m07f8c71760" y="241.37"/><use x="445.91" xlink:href="#m07f8c71760" y="241.37"/><use x="485.76" xlink:href="#m07f8c71760" y="232.64"/><use x="525.62" xlink:href="#m07f8c71760" y="232.64"/><use x="565.48" xlink:href="#m07f8c71760" y="232.64"/><use x="605.33" xlink:href="#m07f8c71760" y="232.64"/><use x="645.19" xlink:href="#m07f8c71760" y="232.64"/><use x="685.05" xlink:href="#m07f8c71760" y="232.64"/><use x="724.91" xlink:href="#m07f8c71760" y="232.64"/><use x="764.76" xlink:href="#m07f8c71760" y="206.46"/><use x="804.62" xlink:href="#m07f8c71760" y="197.73"/><use x="844.48" xlink:href="#m07f8c71760" y="171.55"/><use x="884.33" xlink:href="#m07f8c71760" y="171.55"/><use x="924.19" xlink:href="#m07f8c71760" y="171.55"/><use x="964.05" xlink:href="#m07f8c71760" y="171.55"/><use x="1003.91" xlink:href="#m07f8c71760" y="171.55"/><use x="1043.76" xlink:href="#m07f8c71760" y="162.82"/><use x="1083.62" xlink:href="#m07f8c71760" y="162.82"/><use x="1123.48" xlink:href="#m07f8c71760" y="162.82"/><use x="1163.33" xlink:href="#m07f8c71760" y="154.09"/><use x="1203.19" xlink:href="#m07f8c71760" y="154.09"/><use x="1243.05" xlink:href="#m07f8c71760" y="127.91"/><use x="1282.91" xlink:href="#m07f8c71760" y="101.73"/><use x="1322.76" xlink:href="#m07f8c71760" y="75.55"/><use x="1362.62" xlink:href="#m07f8c71760" y="49.37"/><use x="1402.48" xlink:href="#m07f8c71760" y="23.18"/><use x="1439.29" xlink:href="#m07f8c71760" y="-1"/></g></g><g id="line2d_151"><path clip-path="url(#p4561b5243e)" d="M47.33 293.73l39.86-26.18 39.86-8.73 39.86-8.73 39.85-26.18 39.86-8.73h39.86L326.33 189l39.86-8.72 39.86-26.19 39.86-26.18 39.85-26.18 39.86-26.18 39.86-8.73 39.85-26.18 14.17-9.3" fill="none" stroke="#bd3338" stroke-linecap="square" stroke-width="2"/><defs><path d="M0 3a3 3 0 1 0 0-6 3 3 0 0 0 0 6z" id="mcdfd5511bc" stroke="#000" stroke-width=".5"/></defs><g clip-path="url(#p4561b5243e)" fill="#bd3338" stroke="#000" stroke-width=".5"><use x="47.33" xlink:href="#mcdfd5511bc" y="293.73"/><use x="87.19" xlink:href="#mcdfd5511bc" y="267.55"/><use x="127.05" xlink:href="#mcdfd5511bc" y="258.82"/><use x="166.91" xlink:href="#mcdfd5511bc" y="250.09"/><use x="206.76" xlink:href="#mcdfd5511bc" y="223.91"/><use x="246.62" xlink:href="#mcdfd5511bc" y="215.18"/><use x="286.48" xlink:href="#mcdfd5511bc" y="215.18"/><use x="326.33" xlink:href="#mcdfd5511bc" y="189"/><use x="366.19" xlink:href="#mcdfd5511bc" y="180.28"/><use x="406.05" xlink:href="#mcdfd5511bc" y="154.09"/><use x="445.91" xlink:href="#mcdfd5511bc" y="127.91"/><use x="485.76" xlink:href="#mcdfd5511bc" y="101.73"/><use x="525.62" xlink:href="#mcdfd5511bc" y="75.55"/><use x="565.48" xlink:href="#mcdfd5511bc" y="66.82"/><use x="605.33" xlink:href="#mcdfd5511bc" y="40.64"/><use x="645.19" xlink:href="#mcdfd5511bc" y="14.46"/><use x="668.72" xlink:href="#mcdfd5511bc" y="-1"/></g></g><g id="line2d_152"><path clip-path="url(#p4561b5243e)" d="M47.33 319.91l39.86-8.73L127.05 285h39.86l39.85-26.18h39.86l39.86-8.73h39.85l39.86-26.18 39.86-8.73h79.71l39.86-8.72h39.86l39.85-26.18" fill="none" stroke="#00800a" stroke-linecap="square" stroke-width="2"/><defs><path d="M0 3a3 3 0 1 0 0-6 3 3 0 0 0 0 6z" id="md209b890bb" stroke="#000" stroke-width=".5"/></defs><g clip-path="url(#p4561b5243e)" fill="#00800a" stroke="#000" stroke-width=".5"><use x="47.33" xlink:href="#md209b890bb" y="319.91"/><use x="87.19" xlink:href="#md209b890bb" y="311.18"/><use x="127.05" xlink:href="#md209b890bb" y="285"/><use x="166.91" xlink:href="#md209b890bb" y="285"/><use x="206.76" xlink:href="#md209b890bb" y="258.82"/><use x="246.62" xlink:href="#md209b890bb" y="258.82"/><use x="286.48" xlink:href="#md209b890bb" y="250.09"/><use x="326.33" xlink:href="#md209b890bb" y="250.09"/><use x="366.19" xlink:href="#md209b890bb" y="223.91"/><use x="406.05" xlink:href="#md209b890bb" y="215.18"/><use x="445.91" xlink:href="#md209b890bb" y="215.18"/><use x="485.76" xlink:href="#md209b890bb" y="215.18"/><use x="525.62" xlink:href="#md209b890bb" y="206.46"/><use x="565.48" xlink:href="#md209b890bb" y="206.46"/><use x="605.33" xlink:href="#md209b890bb" y="180.28"/></g></g><path d="M47.33 31.91h558" fill="none" stroke="#000" stroke-linecap="square" id="patch_3"/><path d="M605.33 319.91v-288" fill="none" stroke="#000" stroke-linecap="square" id="patch_4"/><path d="M47.33 319.91h558" fill="none" stroke="#000" stroke-linecap="square" id="patch_5"/><path d="M47.33 319.91v-288" fill="none" stroke="#000" stroke-linecap="square" id="patch_6"/><g id="text_30"><defs><path d="M4.6 24.2c0-16.1 9.9-25.4 22.8-25.4 5.8 0 11.4 2.4 15.8 6.3l-3.7 5.4c-2.9-2.6-6.8-4.9-11.4-4.9-8.9 0-15 7.5-15 18.6 0 11.2 6.4 18.8 15.2 18.8 3.9 0 6.9-1.8 9.8-4.3l4.1 5.3c-3.3 3.1-7.8 5.8-14.2 5.8-12.5 0-23.4-9.3-23.4-25.6" id="SourceSansPro-Regular-63"/><path d="M11.7-8.2c0 2.8 1.5 5.7 5 8.2 2.1-.6 4.4-.8 6.3-.8h8.4c6.3 0 9.8-1.5 9.8-6 0-5.1-6.1-9.9-15.4-9.9-8.8 0-14.1 3.3-14.1 8.5M4.5-9.3c0-8.4 8.2-13.1 20.1-13.1 15.1 0 24.6 7.8 24.6 16.8 0 8.1-5.7 11.6-17 11.6h-9.4c-6.6 0-8.6 2.2-8.6 5.3 0 2.7 1.4 4.3 3.1 5.8 2.2-1.1 4.9-1.7 7.3-1.7 9.9 0 17.8 6.5 17.8 16.9 0 4.1-1.7 7.8-4 10h10v6.3H31.5c-1.8.7-4.2 1.2-6.9 1.2-9.9 0-18.3-6.7-18.3-17.3 0-5.8 3.1-10.5 6.3-13.1V19c-2.5-1.7-5.3-4.9-5.3-9a9 9 0 0 1 4.3-7.9v-.4c-4.4-3-7.1-6.9-7.1-11m20.1 30.2c-5.6 0-10.3 4.5-10.3 11.6s4.6 11.3 10.3 11.3c5.7 0 10.3-4.2 10.3-11.3 0-7.1-4.7-11.6-10.3-11.6" id="SourceSansPro-Regular-67"/><path d="M5.2 32.8c0-21.4 12.2-34 28.7-34 8.4 0 14.8 3.5 20 9.5l-4.7 5.1C45 8.7 40.4 6.1 34.1 6.1 21.7 6.1 13.8 16.5 13.8 33c0 16.3 8.2 26.5 20.7 26.5 5.5 0 9.7-2.4 13.1-6.1l4.7 5.3c-3.8 4.3-10 8.1-17.9 8.1-16.8 0-29.2-12.9-29.2-34" id="SourceSansPro-Regular-43"/><path d="M8.2 0h8.2v31.2c3.3 8.2 8.2 11.2 12.3 11.2 2 0 3.1-.3 4.7-.8l1.6 7.2a12 12 0 0 1-5.2 1c-5.5 0-10.5-3.9-13.8-10h-.3l-.7 8.8H8.2z" id="SourceSansPro-Regular-72"/><path d="M8.6 43.1c6.9 4 10.7 9.7 10.7 17.7 0 5.8-2.4 9.1-6.3 9.1-3.1 0-5.3-2.1-5.3-5.6 0-3.2 2.5-5 5.3-5 .3 0 .5 0 .8.1 0-5.8-2.5-9.2-7.5-12.5z" id="SourceSansPro-Regular-2019"/><path d="M6.7-17c8.1 3.4 13.1 10.1 13.1 18.7 0 6-2.6 9.7-6.9 9.7-3.3 0-6.1-2.2-6.1-5.8 0-3.7 2.7-5.7 5.9-5.7.3 0 .7 0 1 .1 0-5.4-3.4-9.7-9-12.2z" id="SourceSansPro-Regular-2c"/><path d="M9 0h37v7.1H17.3v58.5H9z" id="SourceSansPro-Regular-4c"/><path d="M31.9 70.8c-2.2.9-5.1 1.6-8.1 1.6-9.7 0-14.2-6.2-14.2-16.1v-7.7L3 48.1v-6.2h6.6V0h8.2v41.9h10.3v6.7H17.8v7.7c0 6.2 2.2 9.4 6.8 9.4 1.8 0 3.7-.4 5.5-1.2z" id="SourceSansPro-Regular-66"/><path d="M4.1 21.9h23v6.3h-23z" id="SourceSansPro-Regular-2d"/></defs><g transform="matrix(.1728 0 0 -.1728 117.66 19.71)"><use xlink:href="#SourceSansPro-Regular-4c"/><use x="48.6" xlink:href="#SourceSansPro-Regular-65"/><use x="98.2" xlink:href="#SourceSansPro-Regular-69"/><use x="122.8" xlink:href="#SourceSansPro-Regular-63"/><use x="168.4" xlink:href="#SourceSansPro-Regular-65"/><use x="218" xlink:href="#SourceSansPro-Regular-73"/><use x="259.9" xlink:href="#SourceSansPro-Regular-74"/><use x="293.7" xlink:href="#SourceSansPro-Regular-65"/><use x="343.3" xlink:href="#SourceSansPro-Regular-72"/><use x="378" xlink:href="#SourceSansPro-Regular-20"/><use x="398.2" xlink:href="#SourceSansPro-Regular-43"/><use x="455.3" xlink:href="#SourceSansPro-Regular-69"/><use x="479.9" xlink:href="#SourceSansPro-Regular-74"/><use x="513.7" xlink:href="#SourceSansPro-Regular-79"/><use x="560.4" xlink:href="#SourceSansPro-Regular-2019"/><use x="585.3" xlink:href="#SourceSansPro-Regular-73"/><use x="627.2" xlink:href="#SourceSansPro-Regular-20"/><use x="647.4" xlink:href="#SourceSansPro-Regular-66"/><use x="676.6" xlink:href="#SourceSansPro-Regular-69"/><use x="701.2" xlink:href="#SourceSansPro-Regular-72"/><use x="735.9" xlink:href="#SourceSansPro-Regular-73"/><use x="777.8" xlink:href="#SourceSansPro-Regular-74"/><use x="811.6" xlink:href="#SourceSansPro-Regular-20"/><use x="831.8" xlink:href="#SourceSansPro-Regular-31"/><use x="881.5" xlink:href="#SourceSansPro-Regular-35"/><use x="931.2" xlink:href="#SourceSansPro-Regular-20"/><use x="951.4" xlink:href="#SourceSansPro-Regular-67"/><use x="1001.8" xlink:href="#SourceSansPro-Regular-61"/><use x="1053" xlink:href="#SourceSansPro-Regular-6d"/><use x="1135.9" xlink:href="#SourceSansPro-Regular-65"/><use x="1185.5" xlink:href="#SourceSansPro-Regular-73"/><use x="1227.4" xlink:href="#SourceSansPro-Regular-2c"/><use x="1252.3" xlink:href="#SourceSansPro-Regular-20"/><use x="1272.5" xlink:href="#SourceSansPro-Regular-32"/><use x="1322.2" xlink:href="#SourceSansPro-Regular-30"/><use x="1371.9" xlink:href="#SourceSansPro-Regular-31"/><use x="1421.6" xlink:href="#SourceSansPro-Regular-34"/><use x="1471.3" xlink:href="#SourceSansPro-Regular-2d"/><use x="1502.4" xlink:href="#SourceSansPro-Regular-31"/><use x="1552.1" xlink:href="#SourceSansPro-Regular-35"/><use x="1601.8" xlink:href="#SourceSansPro-Regular-20"/><use x="1622" xlink:href="#SourceSansPro-Regular-74"/><use x="1655.8" xlink:href="#SourceSansPro-Regular-6f"/><use x="1710" xlink:href="#SourceSansPro-Regular-20"/><use x="1730.2" xlink:href="#SourceSansPro-Regular-32"/><use x="1779.9" xlink:href="#SourceSansPro-Regular-30"/><use x="1829.6" xlink:href="#SourceSansPro-Regular-31"/><use x="1879.3" xlink:href="#SourceSansPro-Regular-36"/><use x="1929" xlink:href="#SourceSansPro-Regular-2d"/><use x="1960.1" xlink:href="#SourceSansPro-Regular-31"/><use x="2009.8" xlink:href="#SourceSansPro-Regular-37"/><use x="2059.5" xlink:href="#SourceSansPro-Regular-20"/><use x="2079.7" xlink:href="#SourceSansPro-Regular-73"/><use x="2121.6" xlink:href="#SourceSansPro-Regular-65"/><use x="2171.2" xlink:href="#SourceSansPro-Regular-61"/><use x="2222.4" xlink:href="#SourceSansPro-Regular-73"/><use x="2264.3" xlink:href="#SourceSansPro-Regular-6f"/><use x="2318.5" xlink:href="#SourceSansPro-Regular-6e"/><use x="2373.2" xlink:href="#SourceSansPro-Regular-73"/></g></g><g id="legend_1"><path d="M54.53 104.65h99.26V39.1H54.53z" fill="#f7f8f9" stroke="#000" id="patch_7"/><path d="M64.61 50.09h20.16" fill="none" stroke="#1369bf" stroke-linecap="square" stroke-width="2" id="line2d_153"/><g fill="#1369bf" stroke="#000" stroke-width=".5" id="line2d_154"><use x="64.61" xlink:href="#m07f8c71760" y="50.09"/><use x="84.77" xlink:href="#m07f8c71760" y="50.09"/></g><g transform="matrix(.144 0 0 -.144 100.61 55.13)" id="text_31"><use xlink:href="#SourceSansPro-Regular-32"/><use x="49.7" xlink:href="#SourceSansPro-Regular-30"/><use x="99.4" xlink:href="#SourceSansPro-Regular-31"/><use x="149.1" xlink:href="#SourceSansPro-Regular-34"/><use x="198.8" xlink:href="#SourceSansPro-Regular-2d"/><use x="229.9" xlink:href="#SourceSansPro-Regular-31"/><use x="279.6" xlink:href="#SourceSansPro-Regular-35"/></g><path d="M64.61 70.49h20.16" fill="none" stroke="#bd3338" stroke-linecap="square" stroke-width="2" id="line2d_155"/><g fill="#bd3338" stroke="#000" stroke-width=".5" id="line2d_156"><use x="64.61" xlink:href="#mcdfd5511bc" y="70.49"/><use x="84.77" xlink:href="#mcdfd5511bc" y="70.49"/></g><g transform="matrix(.144 0 0 -.144 100.61 75.53)" id="text_32"><use xlink:href="#SourceSansPro-Regular-32"/><use x="49.7" xlink:href="#SourceSansPro-Regular-30"/><use x="99.4" xlink:href="#SourceSansPro-Regular-31"/><use x="149.1" xlink:href="#SourceSansPro-Regular-35"/><use x="198.8" xlink:href="#SourceSansPro-Regular-2d"/><use x="229.9" xlink:href="#SourceSansPro-Regular-31"/><use x="279.6" xlink:href="#SourceSansPro-Regular-36"/></g><path d="M64.61 90.9h20.16" fill="none" stroke="#00800a" stroke-linecap="square" stroke-width="2" id="line2d_157"/><g fill="#00800a" stroke="#000" stroke-width=".5" id="line2d_158"><use x="64.61" xlink:href="#md209b890bb" y="90.9"/><use x="84.77" xlink:href="#md209b890bb" y="90.9"/></g><g transform="matrix(.144 0 0 -.144 100.61 95.94)" id="text_33"><use xlink:href="#SourceSansPro-Regular-32"/><use x="49.7" xlink:href="#SourceSansPro-Regular-30"/><use x="99.4" xlink:href="#SourceSansPro-Regular-31"/><use x="149.1" xlink:href="#SourceSansPro-Regular-36"/><use x="198.8" xlink:href="#SourceSansPro-Regular-2d"/><use x="229.9" xlink:href="#SourceSansPro-Regular-31"/><use x="279.6" xlink:href="#SourceSansPro-Regular-37"/></g></g></g></g><defs><clipPath id="p4561b5243e"><path d="M47.33 31.91h558v288h-558z"/></clipPath></defs></svg>