<svg height="484pt" viewBox="0 0 618 484" width="824" xmlns="http://www.w3.org/2000/svg" xmlns:xlink="http://www.w3.org/1999/xlink"><defs><style>*{stroke-linecap:butt;stroke-linejoin:round;stroke-miterlimit:100000}</style></defs><g id="figure_1"><path d="M0 484.4h618.77V0H0v484.4z" fill="none" id="patch_1"/><g id="axes_1"><path d="M53.57 438h558V34.8h-558V438z" fill="none" id="patch_2"/><g id="matplotlib.axis_1"><g id="xtick_1"><g id="line2d_1"><defs><path d="M0 0v-6" id="mfcb10a9111"/></defs><use x="84.57" xlink:href="#mfcb10a9111" y="437.99"/></g><g id="line2d_2"><defs><path d="M0 0v6" id="m05dcab7eb1"/></defs><use x="84.57" xlink:href="#m05dcab7eb1" y="34.79"/></g><g id="text_1"><defs><path d="M26.8 5.3c-8.1 0-13 6.7-14 19.1 4.3 6 9.3 8.4 13.3 8.4 7.9 0 11.8-5.2 11.8-13.5 0-8.4-4.8-14-11.1-14m17.7 52.9C40.9 62.1 36 65 29.1 65 16.4 65 4.8 55.1 4.8 29.5c0-20.5 9.5-30.7 22-30.7 10.3 0 18.9 8.3 18.9 20.5 0 13.1-7.2 19.7-18.2 19.7-5.2 0-10.9-3.1-14.9-8 .4 20.2 7.9 27.1 16.8 27.1 4 0 7.9-1.9 10.5-5z" id="SourceSansPro-Regular-36"/></defs><use xlink:href="#SourceSansPro-Regular-36" transform="matrix(.12 0 0 -.12 81.6 456.54)"/></g></g><g id="xtick_2"><use x="146.57" xlink:href="#mfcb10a9111" y="437.99" id="line2d_3"/><use x="146.57" xlink:href="#m05dcab7eb1" y="34.79" id="line2d_4"/><g id="text_2"><defs><path d="M2.5 7.5c4.4-4.4 10.7-8.7 20.9-8.7 11.1 0 21.5 7.8 21.5 21.6s-8.9 20-19.8 20c-3.9 0-6.8-1-9.8-2.6L17 56.7h24.7v7.1H9.8L7.7 33.1l4.4-2.8c3.8 2.5 6.5 3.9 10.9 3.9 8.2 0 13.6-5.2 13.6-14 0-8.9-6.2-14.6-14-14.6-7.5 0-12.3 3.5-16.1 7.3z" id="SourceSansPro-Regular-35"/><path d="M6.5 5a6 6 0 0 1 6-6.2c3.2 0 5.9 2.6 5.9 6.2 0 3.8-2.7 6.4-5.9 6.4-3.3 0-6-2.6-6-6.4" id="SourceSansPro-Regular-2e"/></defs><g transform="matrix(.12 0 0 -.12 139.11 456.54)"><use xlink:href="#SourceSansPro-Regular-36"/><use x="49.7" xlink:href="#SourceSansPro-Regular-2e"/><use x="74.6" xlink:href="#SourceSansPro-Regular-35"/></g></g></g><g id="xtick_3"><use x="208.57" xlink:href="#mfcb10a9111" y="437.99" id="line2d_5"/><use x="208.57" xlink:href="#m05dcab7eb1" y="34.79" id="line2d_6"/><g id="text_3"><defs><path d="M17.7 0h8.5c1.1 24.9 4.2 39.4 19.3 58.7v5.1H4.4v-7.1h31.8C23.6 39.2 18.8 24 17.7 0" id="SourceSansPro-Regular-37"/></defs><use xlink:href="#SourceSansPro-Regular-37" transform="matrix(.12 0 0 -.12 205.6 456.54)"/></g></g><g id="xtick_4"><use x="270.57" xlink:href="#mfcb10a9111" y="437.99" id="line2d_7"/><use x="270.57" xlink:href="#m05dcab7eb1" y="34.79" id="line2d_8"/><g transform="matrix(.12 0 0 -.12 263.11 456.54)" id="text_4"><use xlink:href="#SourceSansPro-Regular-37"/><use x="49.7" xlink:href="#SourceSansPro-Regular-2e"/><use x="74.6" xlink:href="#SourceSansPro-Regular-35"/></g></g><g id="xtick_5"><use x="332.57" xlink:href="#mfcb10a9111" y="437.99" id="line2d_9"/><use x="332.57" xlink:href="#m05dcab7eb1" y="34.79" id="line2d_10"/><g id="text_5"><defs><path d="M11.5 17.1c0 5.8 3.8 10.5 8.9 13.9 9.2-3.7 17.3-6.7 17.3-14.9 0-6.6-5.1-11.2-12.5-11.2-7.8 0-13.7 5.1-13.7 12.2m18 17.7c-7.7 3-14.7 6.2-14.7 13.8 0 6.2 4.4 10.3 10.3 10.3 7 0 11.1-5 11.1-11.3 0-4.7-2.4-9-6.7-12.8M4.1 16.3C4.1 6.2 13-1.2 25-1.2c12.4 0 20.6 7.5 20.6 17 0 8.6-5.4 13.1-11.1 16.4v.4c3.9 3 8.8 8.7 8.8 15.4 0 9.9-6.9 17-18 17C15 65 7.2 58.4 7.2 48.6c0-6.7 4.2-11.4 8.9-14.7v-.4c-6-3.2-12-8.9-12-17.2" id="SourceSansPro-Regular-38"/></defs><use xlink:href="#SourceSansPro-Regular-38" transform="matrix(.12 0 0 -.12 329.6 456.54)"/></g></g><g id="xtick_6"><use x="394.57" xlink:href="#mfcb10a9111" y="437.99" id="line2d_11"/><use x="394.57" xlink:href="#m05dcab7eb1" y="34.79" id="line2d_12"/><g transform="matrix(.12 0 0 -.12 387.11 456.54)" id="text_6"><use xlink:href="#SourceSansPro-Regular-38"/><use x="49.7" xlink:href="#SourceSansPro-Regular-2e"/><use x="74.6" xlink:href="#SourceSansPro-Regular-35"/></g></g><g id="xtick_7"><use x="456.57" xlink:href="#mfcb10a9111" y="437.99" id="line2d_13"/><use x="456.57" xlink:href="#m05dcab7eb1" y="34.79" id="line2d_14"/><g id="text_7"><defs><path d="M23.5 31c-7.9 0-11.8 5.2-11.8 13.5 0 8.4 4.9 14 11.1 14 8.1 0 13-6.6 14.1-19-4.3-6.1-9.3-8.5-13.4-8.5M5.1 5.5c3.5-3.8 8.6-6.7 15.4-6.7 12.7 0 24.3 9.9 24.3 35.5 0 20.5-9.4 30.7-22 30.7C12.6 65 4 56.7 4 44.5c0-13.1 7.1-19.7 18.1-19.7 5.3 0 11 3.1 15 8.2-.3-20.4-7.9-27.4-16.9-27.4-4 0-7.9 2-10.5 5.1z" id="SourceSansPro-Regular-39"/></defs><use xlink:href="#SourceSansPro-Regular-39" transform="matrix(.12 0 0 -.12 453.6 456.54)"/></g></g><g id="xtick_8"><use x="518.57" xlink:href="#mfcb10a9111" y="437.99" id="line2d_15"/><use x="518.57" xlink:href="#m05dcab7eb1" y="34.79" id="line2d_16"/><g transform="matrix(.12 0 0 -.12 511.11 456.54)" id="text_8"><use xlink:href="#SourceSansPro-Regular-39"/><use x="49.7" xlink:href="#SourceSansPro-Regular-2e"/><use x="74.6" xlink:href="#SourceSansPro-Regular-35"/></g></g><g id="xtick_9"><use x="580.57" xlink:href="#mfcb10a9111" y="437.99" id="line2d_17"/><use x="580.57" xlink:href="#m05dcab7eb1" y="34.79" id="line2d_18"/><g id="text_9"><defs><path d="M7.9 0h36v6.8H30.7v57h-6.3c-3.5-2.1-7.7-3.7-13.5-4.7v-5.3h11.6v-47H7.9z" id="SourceSansPro-Regular-31"/><path d="M24.9-1.2c12.7 0 20.4 11.9 20.4 33.3S37.6 65 24.9 65C12.1 65 4.4 53.5 4.4 32.1S12.1-1.2 24.9-1.2m0 6.6c-7.5 0-12.5 8-12.5 26.7s5 26.3 12.5 26.3c7.4 0 12.4-7.6 12.4-26.3 0-18.7-5-26.7-12.4-26.7" id="SourceSansPro-Regular-30"/></defs><g transform="matrix(.12 0 0 -.12 574.6 456.54)"><use xlink:href="#SourceSansPro-Regular-31"/><use x="49.7" xlink:href="#SourceSansPro-Regular-30"/></g></g></g><g id="text_10"><defs><path d="M4.6 24.2C4.6 8.1 15.2-1.2 27.1-1.2s22.5 9.3 22.5 25.4c0 16.3-10.6 25.6-22.5 25.6S4.6 40.5 4.6 24.2m8.5 0c0 11.2 5.7 18.8 14 18.8 8.4 0 14-7.6 14-18.8 0-11.1-5.6-18.6-14-18.6-8.3 0-14 7.5-14 18.6" id="SourceSansPro-Regular-6f"/><path d="M8.2 0h8.2v31.2c3.3 8.2 8.2 11.2 12.3 11.2 2 0 3.1-.3 4.7-.8l1.6 7.2a12 12 0 0 1-5.2 1c-5.5 0-10.5-3.9-13.8-10h-.3l-.7 8.8H8.2z" id="SourceSansPro-Regular-72"/><path d="M4.6 24.2c0-16.1 9.9-25.4 22.8-25.4 5.8 0 11.4 2.4 15.8 6.3l-3.7 5.4c-2.9-2.6-6.8-4.9-11.4-4.9-8.9 0-15 7.5-15 18.6 0 11.2 6.4 18.8 15.2 18.8 3.9 0 6.9-1.8 9.8-4.3l4.1 5.3c-3.3 3.1-7.8 5.8-14.2 5.8-12.5 0-23.4-9.3-23.4-25.6" id="SourceSansPro-Regular-63"/><path d="M4.2 8.5c5.7-5.9 13.8-9.7 23-9.7 13.8 0 22.3 8.3 22.3 18.7 0 9.7-5.9 14.2-13.5 17.5l-9.3 4c-5.2 2.2-10.9 4.6-10.9 10.9 0 5.9 4.9 9.6 12.2 9.6 6.1 0 10.9-2.4 14.9-6.2l4.5 5.4c-4.7 4.8-11.6 8.1-19.4 8.1-11.9 0-20.6-7.4-20.6-17.4 0-9.6 7.1-14.3 13.3-16.9l9.4-4.1C36.3 25.6 41 23.5 41 16.8c0-6.4-5.1-10.7-13.7-10.7-6.8 0-13.4 3.3-18.1 8.2z" id="SourceSansPro-Regular-53"/><path d="M4.6 24.2C4.6 8.3 14.9-1.2 27.9-1.2c6.6 0 11.8 2.3 16 5L41 9.2c-3.6-2.3-7.5-3.8-12.1-3.8-9.3 0-15.6 6.6-16.2 17.1h32.8c.2 1.2.3 2.8.3 4.5 0 13.9-7 22.8-19.4 22.8-11.1 0-21.8-9.7-21.8-25.6m8 3.7c1 9.8 7.2 15.4 14 15.4 7.6 0 12-5.5 12-15.4z" id="SourceSansPro-Regular-65"/></defs><g transform="matrix(.144 0 0 -.144 315.47 474.25)"><use xlink:href="#SourceSansPro-Regular-53"/><use x="53.4" xlink:href="#SourceSansPro-Regular-63"/><use x="99" xlink:href="#SourceSansPro-Regular-6f"/><use x="153.2" xlink:href="#SourceSansPro-Regular-72"/><use x="187.9" xlink:href="#SourceSansPro-Regular-65"/></g></g></g><g id="matplotlib.axis_2"><g id="ytick_1"><path clip-path="url(#p5dc936c845)" d="M53.57 337.2h558" fill="none" stroke="#8fa7bf" stroke-linecap="square" stroke-width=".5" id="line2d_19"/><g id="line2d_20"><defs><path d="M0 0h6" id="m8f05c21ed4"/></defs><use x="53.57" xlink:href="#m8f05c21ed4" y="337.19"/></g><g id="line2d_21"><defs><path d="M0 0h-6" id="m9b3af846ec"/></defs><use x="611.57" xlink:href="#m9b3af846ec" y="337.19"/></g><g id="text_11"><defs><path d="M4 0h41.2v7.1H26.7c-3.3 0-7.2-.3-10.7-.6 15.1 15.8 26 27.7 26 39.7C42 57.5 34.7 65 22.9 65c-8.3 0-14-3.9-19.3-9.7l4.7-4.7c3.7 4.3 8.3 7.7 13.6 7.7C30 58.3 34 53.1 34 45.8 34 35.5 23.2 24 4 4.9z" id="SourceSansPro-Regular-32"/></defs><g transform="matrix(.12 0 0 -.12 31.64 340.23)"><use xlink:href="#SourceSansPro-Regular-32"/><use x="49.7" xlink:href="#SourceSansPro-Regular-35"/></g></g></g><g id="ytick_2"><path clip-path="url(#p5dc936c845)" d="M53.57 236.4h558" fill="none" stroke="#8fa7bf" stroke-linecap="square" stroke-width=".5" id="line2d_22"/><use x="53.57" xlink:href="#m8f05c21ed4" y="236.39" id="line2d_23"/><use x="611.57" xlink:href="#m9b3af846ec" y="236.39" id="line2d_24"/><g transform="matrix(.12 0 0 -.12 31.64 239.43)" id="text_12"><use xlink:href="#SourceSansPro-Regular-35"/><use x="49.7" xlink:href="#SourceSansPro-Regular-30"/></g></g><g id="ytick_3"><path clip-path="url(#p5dc936c845)" d="M53.57 135.6h558" fill="none" stroke="#8fa7bf" stroke-linecap="square" stroke-width=".5" id="line2d_25"/><use x="53.57" xlink:href="#m8f05c21ed4" y="135.59" id="line2d_26"/><use x="611.57" xlink:href="#m9b3af846ec" y="135.59" id="line2d_27"/><g transform="matrix(.12 0 0 -.12 31.64 138.63)" id="text_13"><use xlink:href="#SourceSansPro-Regular-37"/><use x="49.7" xlink:href="#SourceSansPro-Regular-35"/></g></g><g id="ytick_4"><path clip-path="url(#p5dc936c845)" d="M53.57 34.8h558" fill="none" stroke="#8fa7bf" stroke-linecap="square" stroke-width=".5" id="line2d_28"/><use x="53.57" xlink:href="#m8f05c21ed4" y="34.79" id="line2d_29"/><use x="611.57" xlink:href="#m9b3af846ec" y="34.79" id="line2d_30"/><g transform="matrix(.12 0 0 -.12 25.68 37.83)" id="text_14"><use xlink:href="#SourceSansPro-Regular-31"/><use x="49.7" xlink:href="#SourceSansPro-Regular-30"/><use x="99.4" xlink:href="#SourceSansPro-Regular-30"/></g></g><g id="text_15"><defs><path d="M9.6 15c0-9.6 3.5-16.2 13.9-16.2 3 0 6.3.9 9 1.8l-1.6 6.2c-1.6-.6-3.8-1.3-5.5-1.3-5.6 0-7.5 3.4-7.5 9.4v27H31v6.7H17.9v13.6H11l-1-13.6-7.6-.5v-6.2h7.2z" id="SourceSansPro-Regular-74"/><path d="M5.8 12.6c0-8.7 6.1-13.8 14.3-13.8 6 0 11.4 3.2 16.1 7h.2l.7-5.8h6.8v29.8c0 12.1-5 20-16.9 20-7.8 0-14.6-3.4-19.1-6.3l3.3-5.7C15 40.4 20 43 25.7 43c7.9 0 10-6 10-12.2C15 28.5 5.8 23.2 5.8 12.6m8.1.6c0 6.2 5.5 10.2 21.8 12.2V11.9C31 7.7 27.1 5.4 22.4 5.4c-4.8 0-8.5 2.3-8.5 7.8" id="SourceSansPro-Regular-61"/><path d="M16 19.8h7.2c-1.6 14 14.5 19.3 14.5 32.4 0 9.9-6.8 16-17.1 16-7.1 0-12.6-3.5-16.8-8.3l4.7-4.3c3.1 3.6 7.1 5.8 11.5 5.8 6.4 0 9.7-4.4 9.7-9.7 0-10.6-15.9-16.3-13.7-31.9M13.9 5c0-3.6 2.6-6.2 5.9-6.2a6 6 0 0 1 6 6.2c0 3.8-2.7 6.4-6 6.4S13.9 8.8 13.9 5" id="SourceSansPro-Regular-3f"/><path d="M8.2 9.8c0-7.1 2.5-11 8.7-11 2.2 0 3.6.3 4.7.8l-1.1 6.2c-.9-.2-1.3-.2-1.8-.2-1.2 0-2.3 1-2.3 3.6v62H8.2z" id="SourceSansPro-Regular-6c"/><path d="M18.4 25.4c8.9 0 14.9 7.6 14.9 20.8 0 13.2-6 20.6-14.9 20.6-9 0-14.9-7.4-14.9-20.6 0-13.2 5.9-20.8 14.9-20.8m0 5.1c-5.2 0-8.7 5.3-8.7 15.7 0 10.5 3.5 15.5 8.7 15.5 5.1 0 8.6-5 8.6-15.5 0-10.4-3.5-15.7-8.6-15.7m7.4-31.7l36.2 68h-5.5l-36.2-68zm38.3 0C73-1.2 79 6.3 79 19.6c0 13.1-6 20.6-14.9 20.6-9 0-14.9-7.5-14.9-20.6 0-13.3 5.9-20.8 14.9-20.8m0 5.1c-5.1 0-8.7 5.3-8.7 15.7 0 10.4 3.6 15.5 8.7 15.5s8.6-5.1 8.6-15.5-3.5-15.7-8.6-15.7" id="SourceSansPro-Regular-25"/><path d="M19.6 0H28v25.4l19.7 40.2H39l-8.4-18.5c-2-4.8-4.3-9.4-6.6-14.3h-.4c-2.2 4.9-4.2 9.5-6.3 14.3L8.8 65.6H-.1l19.7-40.2z" id="SourceSansPro-Regular-59"/><path d="M8.2 0h8.2v35.2c4.9 4.9 8.3 7.5 13.3 7.5 6.4 0 9.2-3.9 9.2-13V0h8.2v30.8c0 12.4-4.6 19-14.8 19-6.7 0-11.7-3.6-16.3-8.2h-.3l-.7 7H8.2z" id="SourceSansPro-Regular-6e"/><path d="M7.5 17.8c0-12.4 4.6-19 14.9-19 6.7 0 11.5 3.5 16 8.8h.3l.7-7.6h6.8v48.6H38V14.1c-4.6-5.7-8.1-8.2-13.1-8.2-6.4 0-9.1 3.9-9.1 13v29.7H7.5z" id="SourceSansPro-Regular-75"/><path d="M4.9-13.4l-1.6-6.5c1.6-.6 3.5-1 5.7-1 9.8 0 14.8 7.3 18.2 16.9l18.3 52.6h-8l-8.7-26.9c-1.3-4.3-2.7-9.3-4.1-13.7h-.4c-1.5 4.5-3.2 9.5-4.7 13.7L9.7 48.6H1.2L20.7-.1l-1.1-3.6c-2-6-5.5-10.4-11-10.4-1.2 0-2.7.4-3.7.7" id="SourceSansPro-Regular-79"/><path d="M16.3 69.6c-6.9-4-10.6-9.8-10.6-17.8 0-5.8 2.3-9 6.3-9 3.1 0 5.3 2.1 5.3 5.5 0 3.3-2.6 5.1-5.3 5.1-.3 0-.6 0-.9-.1 0 5.7 2.5 9.1 7.6 12.4zm17.7 0c-7-4-10.7-9.8-10.7-17.8 0-5.8 2.3-9 6.3-9 3.1 0 5.3 2.1 5.3 5.5 0 3.3-2.5 5.1-5.3 5.1-.3 0-.6 0-.9-.1 0 5.7 2.6 9.1 7.6 12.4z" id="SourceSansPro-Regular-201c"/><path d="M16.2 0h9.9l9.7 39.5c1.1 5.1 2.3 9.8 3.3 14.9h.4c1-5.1 2-9.8 3.2-14.9L52.6 0h10l13.6 65.6h-8l-6.9-35.7c-1.3-7-2.5-14.1-3.7-21.2h-.4C55.6 15.8 54 23 52.4 29.9l-9.1 35.7h-7.6l-9.1-35.7c-1.5-7-3.1-14.1-4.6-21.2h-.4c-1.2 7.1-2.6 14.1-3.8 21.2l-6.9 35.7H2.3z" id="SourceSansPro-Regular-57"/><path d="M2.8 5.5C7.4 1.7 14-1.2 20.9-1.2c11.5 0 17.8 6.6 17.8 14.5 0 9.2-7.8 12.1-14.8 14.7-5.5 2.1-10.8 3.8-10.8 8.4 0 3.7 2.8 7 8.9 7 4.3 0 7.8-1.8 11.1-4.3l3.9 5.2c-3.7 3-9 5.5-15.1 5.5-10.5 0-16.7-6-16.7-13.8 0-8.2 7.6-11.5 14.5-14 5.3-2 11.1-4.2 11.1-9.2 0-4.2-3.2-7.6-9.6-7.6-5.8 0-10.1 2.4-14.3 5.8z" id="SourceSansPro-Regular-73"/><path d="M8.6 43.1c6.9 4 10.7 9.7 10.7 17.7 0 5.8-2.4 9.1-6.3 9.1-3.1 0-5.3-2.1-5.3-5.6 0-3.2 2.5-5 5.3-5 .3 0 .5 0 .8.1 0-5.8-2.5-9.2-7.5-12.5zm17.7 0c6.9 4 10.6 9.7 10.6 17.7 0 5.8-2.3 9.1-6.3 9.1-3.1 0-5.3-2.1-5.3-5.6 0-3.2 2.5-5 5.3-5 .3 0 .6 0 .9.1 0-5.8-2.6-9.2-7.6-12.5z" id="SourceSansPro-Regular-201d"/><path d="M12.4 58.6c3.2 0 5.7 2.2 5.7 5.3 0 3.2-2.5 5.3-5.7 5.3s-5.7-2.1-5.7-5.3c0-3.1 2.5-5.3 5.7-5.3M8.2 0h8.2v48.6H8.2z" id="SourceSansPro-Regular-69"/><path d="M4.7 24.2C4.7 8 12.6-1.2 24.8-1.2c5.7 0 10.9 3.2 14.7 6.9h.3l.7-5.7h6.8v71.2H39V52.5l.4-8.3c-4.3 3.5-8 5.6-13.6 5.6-11.1 0-21.1-9.8-21.1-25.6m8.5.1c0 11.1 6.2 18.6 14 18.6 4 0 7.7-1.4 11.8-5.1V12.4c-4-4.5-7.9-6.7-12.4-6.7-8.5 0-13.4 7-13.4 18.6" id="SourceSansPro-Regular-64"/><path d="M11.7-8.2c0 2.8 1.5 5.7 5 8.2 2.1-.6 4.4-.8 6.3-.8h8.4c6.3 0 9.8-1.5 9.8-6 0-5.1-6.1-9.9-15.4-9.9-8.8 0-14.1 3.3-14.1 8.5M4.5-9.3c0-8.4 8.2-13.1 20.1-13.1 15.1 0 24.6 7.8 24.6 16.8 0 8.1-5.7 11.6-17 11.6h-9.4c-6.6 0-8.6 2.2-8.6 5.3 0 2.7 1.4 4.3 3.1 5.8 2.2-1.1 4.9-1.7 7.3-1.7 9.9 0 17.8 6.5 17.8 16.9 0 4.1-1.7 7.8-4 10h10v6.3H31.5c-1.8.7-4.2 1.2-6.9 1.2-9.9 0-18.3-6.7-18.3-17.3 0-5.8 3.1-10.5 6.3-13.1V19c-2.5-1.7-5.3-4.9-5.3-9a9 9 0 0 1 4.3-7.9v-.4c-4.4-3-7.1-6.9-7.1-11m20.1 30.2c-5.6 0-10.3 4.5-10.3 11.6s4.6 11.3 10.3 11.3c5.7 0 10.3-4.2 10.3-11.3 0-7.1-4.7-11.6-10.3-11.6" id="SourceSansPro-Regular-67"/><path d="M8.2 0h8.2v35.2c4.5 5 8.6 7.5 12.2 7.5 6.2 0 9.1-3.9 9.1-13V0h8.2v35.2c4.5 5 8.4 7.5 12.2 7.5 6.1 0 9-3.9 9-13V0h8.2v30.8c0 12.4-4.8 19-14.8 19-5.9 0-10.9-3.8-16-9.3-2 5.8-6 9.3-13.4 9.3-5.8 0-10.9-3.6-15.1-8.2h-.3l-.7 7H8.2z" id="SourceSansPro-Regular-6d"/></defs><g transform="matrix(0 -.144 -.144 0 17.45 339.35)"><use xlink:href="#SourceSansPro-Regular-25"/><use x="82.4" xlink:href="#SourceSansPro-Regular-20"/><use x="102.6" xlink:href="#SourceSansPro-Regular-59"/><use x="150.2" xlink:href="#SourceSansPro-Regular-65"/><use x="199.8" xlink:href="#SourceSansPro-Regular-73"/><use x="241.7" xlink:href="#SourceSansPro-Regular-20"/><use x="261.9" xlink:href="#SourceSansPro-Regular-74"/><use x="295.7" xlink:href="#SourceSansPro-Regular-6f"/><use x="349.9" xlink:href="#SourceSansPro-Regular-20"/><use x="370.1" xlink:href="#SourceSansPro-Regular-201c"/><use x="412.7" xlink:href="#SourceSansPro-Regular-57"/><use x="491.3" xlink:href="#SourceSansPro-Regular-6f"/><use x="545.5" xlink:href="#SourceSansPro-Regular-75"/><use x="599.9" xlink:href="#SourceSansPro-Regular-6c"/><use x="625.4" xlink:href="#SourceSansPro-Regular-64"/><use x="680.9" xlink:href="#SourceSansPro-Regular-20"/><use x="701.1" xlink:href="#SourceSansPro-Regular-79"/><use x="747.8" xlink:href="#SourceSansPro-Regular-6f"/><use x="802" xlink:href="#SourceSansPro-Regular-75"/><use x="856.4" xlink:href="#SourceSansPro-Regular-20"/><use x="876.6" xlink:href="#SourceSansPro-Regular-6d"/><use x="959.5" xlink:href="#SourceSansPro-Regular-65"/><use x="1009.1" xlink:href="#SourceSansPro-Regular-65"/><use x="1058.7" xlink:href="#SourceSansPro-Regular-74"/><use x="1092.5" xlink:href="#SourceSansPro-Regular-20"/><use x="1112.7" xlink:href="#SourceSansPro-Regular-61"/><use x="1163.9" xlink:href="#SourceSansPro-Regular-67"/><use x="1214.3" xlink:href="#SourceSansPro-Regular-61"/><use x="1265.5" xlink:href="#SourceSansPro-Regular-69"/><use x="1290.1" xlink:href="#SourceSansPro-Regular-6e"/><use x="1344.8" xlink:href="#SourceSansPro-Regular-3f"/><use x="1387.3" xlink:href="#SourceSansPro-Regular-201d"/></g></g></g><path clip-path="url(#p5dc936c845)" d="M-690.43 438h62-62z" fill="#1369bf" stroke="#000" stroke-width=".5" id="patch_3"/><path clip-path="url(#p5dc936c845)" d="M-628.43 438h62-62z" fill="#1369bf" stroke="#000" stroke-width=".5" id="patch_4"/><path clip-path="url(#p5dc936c845)" d="M-566.43 438h62-62z" fill="#1369bf" stroke="#000" stroke-width=".5" id="patch_5"/><path clip-path="url(#p5dc936c845)" d="M-504.43 438h62-62z" fill="#1369bf" stroke="#000" stroke-width=".5" id="patch_6"/><path clip-path="url(#p5dc936c845)" d="M-442.43 438h62-62z" fill="#1369bf" stroke="#000" stroke-width=".5" id="patch_7"/><path clip-path="url(#p5dc936c845)" d="M-380.43 438h62-62z" fill="#1369bf" stroke="#000" stroke-width=".5" id="patch_8"/><path clip-path="url(#p5dc936c845)" d="M-318.43 438h62-62z" fill="#1369bf" stroke="#000" stroke-width=".5" id="patch_9"/><path clip-path="url(#p5dc936c845)" d="M-256.43 438h62-62z" fill="#1369bf" stroke="#000" stroke-width=".5" id="patch_10"/><path clip-path="url(#p5dc936c845)" d="M-194.43 438h62-62z" fill="#1369bf" stroke="#000" stroke-width=".5" id="patch_11"/><path clip-path="url(#p5dc936c845)" d="M-132.43 438h62-62z" fill="#1369bf" stroke="#000" stroke-width=".5" id="patch_12"/><path clip-path="url(#p5dc936c845)" d="M-70.43 438h62-62z" fill="#1369bf" stroke="#000" stroke-width=".5" id="patch_13"/><path clip-path="url(#p5dc936c845)" d="M-8.43 438h62-62z" fill="#1369bf" stroke="#000" stroke-width=".5" id="patch_14"/><path clip-path="url(#p5dc936c845)" d="M53.57 438h62v-19.2h-62z" fill="#1369bf" stroke="#000" stroke-width=".5" id="patch_15"/><path clip-path="url(#p5dc936c845)" d="M115.57 438h62v-31.02h-62z" fill="#1369bf" stroke="#000" stroke-width=".5" id="patch_16"/><path clip-path="url(#p5dc936c845)" d="M177.57 438h62V335.94h-62z" fill="#1369bf" stroke="#000" stroke-width=".5" id="patch_17"/><path clip-path="url(#p5dc936c845)" d="M239.57 438h62V257.24h-62z" fill="#1369bf" stroke="#000" stroke-width=".5" id="patch_18"/><path clip-path="url(#p5dc936c845)" d="M301.57 438h62V207h-62z" fill="#1369bf" stroke="#000" stroke-width=".5" id="patch_19"/><path clip-path="url(#p5dc936c845)" d="M363.57 438h62V118.8h-62z" fill="#1369bf" stroke="#000" stroke-width=".5" id="patch_20"/><path clip-path="url(#p5dc936c845)" d="M425.57 438h62V105.45h-62z" fill="#1369bf" stroke="#000" stroke-width=".5" id="patch_21"/><path clip-path="url(#p5dc936c845)" d="M487.57 438h62V34.8h-62z" fill="#1369bf" stroke="#000" stroke-width=".5" id="patch_22"/><path clip-path="url(#p5dc936c845)" d="M549.57 438h62V125.5h-62z" fill="#1369bf" stroke="#000" stroke-width=".5" id="patch_23"/><path d="M611.57 438V34.8" fill="none" stroke="#000" stroke-linecap="square" id="patch_24"/><path d="M53.57 438h558" fill="none" stroke="#000" stroke-linecap="square" id="patch_25"/><path d="M53.57 34.8h558" fill="none" stroke="#000" stroke-linecap="square" id="patch_26"/><path d="M53.57 438V34.8" fill="none" stroke="#000" stroke-linecap="square" id="patch_27"/><g id="text_16"><defs><path d="M8.2 0h6.6l.7 4.8h.3c4.3-3.8 9.4-6 13.9-6 11.1 0 21 9.7 21 26.3 0 15-6.7 24.7-19.3 24.7-5.4 0-10.8-2.9-15.2-6.8l.2 8.8v19.4H8.2zm8.2 10.8v25.5c4.6 4.3 8.9 6.6 13 6.6 9.2 0 12.8-7.2 12.8-17.9 0-12-5.9-19.3-13.9-19.3-3.2 0-7.6 1.4-11.9 5.1" id="SourceSansPro-Regular-62"/><path d="M9 0h16.8c19.8 0 30.6 12.2 30.6 33.1 0 20.8-10.8 32.5-31 32.5H9zm8.3 6.8v52h7.5c15.3 0 23-9.2 23-25.7 0-16.6-7.7-26.3-23-26.3z" id="SourceSansPro-Regular-44"/><path d="M31.9 70.8c-2.2.9-5.1 1.6-8.1 1.6-9.7 0-14.2-6.2-14.2-16.1v-7.7L3 48.1v-6.2h6.6V0h8.2v41.9h10.3v6.7H17.8v7.7c0 6.2 2.2 9.4 6.8 9.4 1.8 0 3.7-.4 5.5-1.2z" id="SourceSansPro-Regular-66"/></defs><g transform="matrix(.1728 0 0 -.1728 220.18 19.71)"><use xlink:href="#SourceSansPro-Regular-44"/><use x="61.5" xlink:href="#SourceSansPro-Regular-65"/><use x="111.1" xlink:href="#SourceSansPro-Regular-73"/><use x="153" xlink:href="#SourceSansPro-Regular-69"/><use x="177.6" xlink:href="#SourceSansPro-Regular-72"/><use x="212.3" xlink:href="#SourceSansPro-Regular-65"/><use x="261.9" xlink:href="#SourceSansPro-Regular-20"/><use x="282.1" xlink:href="#SourceSansPro-Regular-66"/><use x="311.3" xlink:href="#SourceSansPro-Regular-6f"/><use x="365.5" xlink:href="#SourceSansPro-Regular-72"/><use x="400.2" xlink:href="#SourceSansPro-Regular-20"/><use x="420.4" xlink:href="#SourceSansPro-Regular-73"/><use x="462.3" xlink:href="#SourceSansPro-Regular-65"/><use x="511.9" xlink:href="#SourceSansPro-Regular-63"/><use x="557.5" xlink:href="#SourceSansPro-Regular-6f"/><use x="611.7" xlink:href="#SourceSansPro-Regular-6e"/><use x="666.4" xlink:href="#SourceSansPro-Regular-64"/><use x="721.9" xlink:href="#SourceSansPro-Regular-20"/><use x="742.1" xlink:href="#SourceSansPro-Regular-64"/><use x="797.6" xlink:href="#SourceSansPro-Regular-61"/><use x="848.8" xlink:href="#SourceSansPro-Regular-74"/><use x="882.6" xlink:href="#SourceSansPro-Regular-65"/><use x="932.2" xlink:href="#SourceSansPro-Regular-20"/><use x="952.4" xlink:href="#SourceSansPro-Regular-62"/><use x="1007.9" xlink:href="#SourceSansPro-Regular-79"/><use x="1054.6" xlink:href="#SourceSansPro-Regular-20"/><use x="1074.8" xlink:href="#SourceSansPro-Regular-73"/><use x="1116.7" xlink:href="#SourceSansPro-Regular-63"/><use x="1162.3" xlink:href="#SourceSansPro-Regular-6f"/><use x="1216.5" xlink:href="#SourceSansPro-Regular-72"/><use x="1251.2" xlink:href="#SourceSansPro-Regular-65"/></g></g></g></g><defs><clipPath id="p5dc936c845"><path d="M53.57 34.79h558v403.2h-558z"/></clipPath></defs></svg>