<?xml version="1.0" encoding="utf-8" standalone="no"?>
<!DOCTYPE svg PUBLIC "-//W3C//DTD SVG 1.1//EN"
  "http://www.w3.org/Graphics/SVG/1.1/DTD/svg11.dtd">
<!-- Created with matplotlib (http://matplotlib.org/) -->
<svg height="484pt" version="1.1" viewBox="0 0 618 484" width="618pt" xmlns="http://www.w3.org/2000/svg" xmlns:xlink="http://www.w3.org/1999/xlink">
 <defs>
  <style type="text/css">
*{stroke-linecap:butt;stroke-linejoin:round;stroke-miterlimit:100000;}
  </style>
 </defs>
 <g id="figure_1">
  <g id="patch_1">
   <path d="M 0 484.366775 
L 618.730125 484.366775 
L 618.730125 0 
L 0 0 
L 0 484.366775 
z
" style="fill:none;"/>
  </g>
  <g id="axes_1">
   <g id="patch_2">
    <path d="M 53.530125 437.7839 
L 611.530125 437.7839 
L 611.530125 34.5839 
L 53.530125 34.5839 
L 53.530125 437.7839 
z
" style="fill:none;"/>
   </g>
   <g id="matplotlib.axis_1">
    <g id="xtick_1">
     <g id="line2d_1">
      <defs>
       <path d="M 0 0 
L 0 -6 
" id="md98a7db69c"/>
      </defs>
      <g>
       <use x="66.8158392857" xlink:href="#md98a7db69c" y="437.7839"/>
      </g>
     </g>
     <g id="line2d_2">
      <defs>
       <path d="M 0 0 
L 0 6 
" id="m8b010facb1"/>
      </defs>
      <g>
       <use x="66.8158392857" xlink:href="#m8b010facb1" y="34.5839"/>
      </g>
     </g>
     <g id="text_1">
      <!-- 0 -->
      <defs>
       <path d="M 24.90625 -1.203125 
C 37.59375 -1.203125 45.296875 10.703125 45.296875 32.09375 
C 45.296875 53.5 37.59375 65 24.90625 65 
C 12.09375 65 4.40625 53.5 4.40625 32.09375 
C 4.40625 10.703125 12.09375 -1.203125 24.90625 -1.203125 
M 24.90625 5.40625 
C 17.40625 5.40625 12.40625 13.40625 12.40625 32.09375 
C 12.40625 50.796875 17.40625 58.40625 24.90625 58.40625 
C 32.296875 58.40625 37.296875 50.796875 37.296875 32.09375 
C 37.296875 13.40625 32.296875 5.40625 24.90625 5.40625 
" id="SourceSansPro-Regular-30"/>
      </defs>
      <g transform="translate(63.8336517857 456.328275)scale(0.12 -0.12)">
       <use xlink:href="#SourceSansPro-Regular-30"/>
      </g>
     </g>
    </g>
    <g id="xtick_2">
     <g id="line2d_3">
      <g>
       <use x="119.958696429" xlink:href="#md98a7db69c" y="437.7839"/>
      </g>
     </g>
     <g id="line2d_4">
      <g>
       <use x="119.958696429" xlink:href="#m8b010facb1" y="34.5839"/>
      </g>
     </g>
     <g id="text_2">
      <!-- 1 -->
      <defs>
       <path d="M 7.90625 0 
L 43.90625 0 
L 43.90625 6.796875 
L 30.703125 6.796875 
L 30.703125 63.796875 
L 24.40625 63.796875 
C 20.90625 61.703125 16.703125 60.09375 10.90625 59.09375 
L 10.90625 53.796875 
L 22.5 53.796875 
L 22.5 6.796875 
L 7.90625 6.796875 
z
" id="SourceSansPro-Regular-31"/>
      </defs>
      <g transform="translate(116.976508929 456.328275)scale(0.12 -0.12)">
       <use xlink:href="#SourceSansPro-Regular-31"/>
      </g>
     </g>
    </g>
    <g id="xtick_3">
     <g id="line2d_5">
      <g>
       <use x="173.101553571" xlink:href="#md98a7db69c" y="437.7839"/>
      </g>
     </g>
     <g id="line2d_6">
      <g>
       <use x="173.101553571" xlink:href="#m8b010facb1" y="34.5839"/>
      </g>
     </g>
     <g id="text_3">
      <!-- 2 -->
      <defs>
       <path d="M 4 0 
L 45.203125 0 
L 45.203125 7.09375 
L 26.703125 7.09375 
C 23.40625 7.09375 19.5 6.796875 16 6.5 
C 31.09375 22.296875 42 34.203125 42 46.203125 
C 42 57.5 34.703125 65 22.90625 65 
C 14.59375 65 8.90625 61.09375 3.59375 55.296875 
L 8.296875 50.59375 
C 12 54.90625 16.59375 58.296875 21.90625 58.296875 
C 30 58.296875 34 53.09375 34 45.796875 
C 34 35.5 23.203125 24 4 4.90625 
z
" id="SourceSansPro-Regular-32"/>
      </defs>
      <g transform="translate(170.119366071 456.328275)scale(0.12 -0.12)">
       <use xlink:href="#SourceSansPro-Regular-32"/>
      </g>
     </g>
    </g>
    <g id="xtick_4">
     <g id="line2d_7">
      <g>
       <use x="226.244410714" xlink:href="#md98a7db69c" y="437.7839"/>
      </g>
     </g>
     <g id="line2d_8">
      <g>
       <use x="226.244410714" xlink:href="#m8b010facb1" y="34.5839"/>
      </g>
     </g>
     <g id="text_4">
      <!-- 3 -->
      <defs>
       <path d="M 2.59375 7.796875 
C 6.90625 3.09375 13.40625 -1.203125 23.59375 -1.203125 
C 35.296875 -1.203125 44.59375 5.703125 44.59375 17 
C 44.59375 25.796875 38.5 31.40625 30.796875 33.203125 
L 30.796875 33.59375 
C 37.703125 36.203125 42.40625 41.09375 42.40625 48.796875 
C 42.40625 59.09375 34.40625 65 23.296875 65 
C 15.796875 65 9.90625 61.59375 5 57 
L 9.40625 51.796875 
C 13.203125 55.59375 17.703125 58.296875 23 58.296875 
C 29.796875 58.296875 34 54.40625 34 48.203125 
C 34 41.5 29.5 36.296875 15.90625 36.296875 
L 15.90625 30 
C 31.09375 30 36.296875 24.90625 36.296875 17.296875 
C 36.296875 10.203125 30.796875 5.59375 23.09375 5.59375 
C 15.59375 5.59375 10.59375 9.203125 6.796875 13.203125 
z
" id="SourceSansPro-Regular-33"/>
      </defs>
      <g transform="translate(223.262223214 456.328275)scale(0.12 -0.12)">
       <use xlink:href="#SourceSansPro-Regular-33"/>
      </g>
     </g>
    </g>
    <g id="xtick_5">
     <g id="line2d_9">
      <g>
       <use x="279.387267857" xlink:href="#md98a7db69c" y="437.7839"/>
      </g>
     </g>
     <g id="line2d_10">
      <g>
       <use x="279.387267857" xlink:href="#m8b010facb1" y="34.5839"/>
      </g>
     </g>
     <g id="text_5">
      <!-- 4 -->
      <defs>
       <path d="M 10.40625 24.203125 
L 25.296875 46 
C 27.09375 49.09375 28.90625 51.90625 30.5 55 
L 30.90625 55 
C 30.703125 51.59375 30.40625 46.09375 30.40625 42.703125 
L 30.40625 24.203125 
z
M 46.90625 24.203125 
L 38.203125 24.203125 
L 38.203125 63.796875 
L 29 63.796875 
L 1.703125 23 
L 1.703125 17.59375 
L 30.40625 17.59375 
L 30.40625 0 
L 38.203125 0 
L 38.203125 17.59375 
L 46.90625 17.59375 
z
" id="SourceSansPro-Regular-34"/>
      </defs>
      <g transform="translate(276.405080357 456.328275)scale(0.12 -0.12)">
       <use xlink:href="#SourceSansPro-Regular-34"/>
      </g>
     </g>
    </g>
    <g id="xtick_6">
     <g id="line2d_11">
      <g>
       <use x="332.530125" xlink:href="#md98a7db69c" y="437.7839"/>
      </g>
     </g>
     <g id="line2d_12">
      <g>
       <use x="332.530125" xlink:href="#m8b010facb1" y="34.5839"/>
      </g>
     </g>
     <g id="text_6">
      <!-- 5 -->
      <defs>
       <path d="M 2.5 7.5 
C 6.90625 3.09375 13.203125 -1.203125 23.40625 -1.203125 
C 34.5 -1.203125 44.90625 6.59375 44.90625 20.40625 
C 44.90625 34.203125 36 40.40625 25.09375 40.40625 
C 21.203125 40.40625 18.296875 39.40625 15.296875 37.796875 
L 17 56.703125 
L 41.703125 56.703125 
L 41.703125 63.796875 
L 9.796875 63.796875 
L 7.703125 33.09375 
L 12.09375 30.296875 
C 15.90625 32.796875 18.59375 34.203125 23 34.203125 
C 31.203125 34.203125 36.59375 29 36.59375 20.203125 
C 36.59375 11.296875 30.40625 5.59375 22.59375 5.59375 
C 15.09375 5.59375 10.296875 9.09375 6.5 12.90625 
z
" id="SourceSansPro-Regular-35"/>
      </defs>
      <g transform="translate(329.5479375 456.328275)scale(0.12 -0.12)">
       <use xlink:href="#SourceSansPro-Regular-35"/>
      </g>
     </g>
    </g>
    <g id="xtick_7">
     <g id="line2d_13">
      <g>
       <use x="385.672982143" xlink:href="#md98a7db69c" y="437.7839"/>
      </g>
     </g>
     <g id="line2d_14">
      <g>
       <use x="385.672982143" xlink:href="#m8b010facb1" y="34.5839"/>
      </g>
     </g>
     <g id="text_7">
      <!-- 6 -->
      <defs>
       <path d="M 26.796875 5.296875 
C 18.703125 5.296875 13.796875 12 12.796875 24.40625 
C 17.09375 30.40625 22.09375 32.796875 26.09375 32.796875 
C 34 32.796875 37.90625 27.59375 37.90625 19.296875 
C 37.90625 10.90625 33.09375 5.296875 26.796875 5.296875 
M 44.5 58.203125 
C 40.90625 62.09375 36 65 29.09375 65 
C 16.40625 65 4.796875 55.09375 4.796875 29.5 
C 4.796875 9 14.296875 -1.203125 26.796875 -1.203125 
C 37.09375 -1.203125 45.703125 7.09375 45.703125 19.296875 
C 45.703125 32.40625 38.5 39 27.5 39 
C 22.296875 39 16.59375 35.90625 12.59375 31 
C 13 51.203125 20.5 58.09375 29.40625 58.09375 
C 33.40625 58.09375 37.296875 56.203125 39.90625 53.09375 
z
" id="SourceSansPro-Regular-36"/>
      </defs>
      <g transform="translate(382.690794643 456.328275)scale(0.12 -0.12)">
       <use xlink:href="#SourceSansPro-Regular-36"/>
      </g>
     </g>
    </g>
    <g id="xtick_8">
     <g id="line2d_15">
      <g>
       <use x="438.815839286" xlink:href="#md98a7db69c" y="437.7839"/>
      </g>
     </g>
     <g id="line2d_16">
      <g>
       <use x="438.815839286" xlink:href="#m8b010facb1" y="34.5839"/>
      </g>
     </g>
     <g id="text_8">
      <!-- 7 -->
      <defs>
       <path d="M 17.703125 0 
L 26.203125 0 
C 27.296875 24.90625 30.40625 39.40625 45.5 58.703125 
L 45.5 63.796875 
L 4.40625 63.796875 
L 4.40625 56.703125 
L 36.203125 56.703125 
C 23.59375 39.203125 18.796875 24 17.703125 0 
" id="SourceSansPro-Regular-37"/>
      </defs>
      <g transform="translate(435.833651786 456.328275)scale(0.12 -0.12)">
       <use xlink:href="#SourceSansPro-Regular-37"/>
      </g>
     </g>
    </g>
    <g id="xtick_9">
     <g id="line2d_17">
      <g>
       <use x="491.958696429" xlink:href="#md98a7db69c" y="437.7839"/>
      </g>
     </g>
     <g id="line2d_18">
      <g>
       <use x="491.958696429" xlink:href="#m8b010facb1" y="34.5839"/>
      </g>
     </g>
     <g id="text_9">
      <!-- 8 -->
      <defs>
       <path d="M 11.5 17.09375 
C 11.5 22.90625 15.296875 27.59375 20.40625 31 
C 29.59375 27.296875 37.703125 24.296875 37.703125 16.09375 
C 37.703125 9.5 32.59375 4.90625 25.203125 4.90625 
C 17.40625 4.90625 11.5 10 11.5 17.09375 
M 29.5 34.796875 
C 21.796875 37.796875 14.796875 41 14.796875 48.59375 
C 14.796875 54.796875 19.203125 58.90625 25.09375 58.90625 
C 32.09375 58.90625 36.203125 53.90625 36.203125 47.59375 
C 36.203125 42.90625 33.796875 38.59375 29.5 34.796875 
M 4.09375 16.296875 
C 4.09375 6.203125 13 -1.203125 25 -1.203125 
C 37.40625 -1.203125 45.59375 6.296875 45.59375 15.796875 
C 45.59375 24.40625 40.203125 28.90625 34.5 32.203125 
L 34.5 32.59375 
C 38.40625 35.59375 43.296875 41.296875 43.296875 48 
C 43.296875 57.90625 36.40625 65 25.296875 65 
C 15 65 7.203125 58.40625 7.203125 48.59375 
C 7.203125 41.90625 11.40625 37.203125 16.09375 33.90625 
L 16.09375 33.5 
C 10.09375 30.296875 4.09375 24.59375 4.09375 16.296875 
" id="SourceSansPro-Regular-38"/>
      </defs>
      <g transform="translate(488.976508929 456.328275)scale(0.12 -0.12)">
       <use xlink:href="#SourceSansPro-Regular-38"/>
      </g>
     </g>
    </g>
    <g id="xtick_10">
     <g id="line2d_19">
      <g>
       <use x="545.101553571" xlink:href="#md98a7db69c" y="437.7839"/>
      </g>
     </g>
     <g id="line2d_20">
      <g>
       <use x="545.101553571" xlink:href="#m8b010facb1" y="34.5839"/>
      </g>
     </g>
     <g id="text_10">
      <!-- 9 -->
      <defs>
       <path d="M 23.5 31 
C 15.59375 31 11.703125 36.203125 11.703125 44.5 
C 11.703125 52.90625 16.59375 58.5 22.796875 58.5 
C 30.90625 58.5 35.796875 51.90625 36.90625 39.5 
C 32.59375 33.40625 27.59375 31 23.5 31 
M 5.09375 5.5 
C 8.59375 1.703125 13.703125 -1.203125 20.5 -1.203125 
C 33.203125 -1.203125 44.796875 8.703125 44.796875 34.296875 
C 44.796875 54.796875 35.40625 65 22.796875 65 
C 12.59375 65 4 56.703125 4 44.5 
C 4 31.40625 11.09375 24.796875 22.09375 24.796875 
C 27.40625 24.796875 33.09375 27.90625 37.09375 33 
C 36.796875 12.59375 29.203125 5.59375 20.203125 5.59375 
C 16.203125 5.59375 12.296875 7.59375 9.703125 10.703125 
z
" id="SourceSansPro-Regular-39"/>
      </defs>
      <g transform="translate(542.119366071 456.328275)scale(0.12 -0.12)">
       <use xlink:href="#SourceSansPro-Regular-39"/>
      </g>
     </g>
    </g>
    <g id="xtick_11">
     <g id="line2d_21">
      <g>
       <use x="598.244410714" xlink:href="#md98a7db69c" y="437.7839"/>
      </g>
     </g>
     <g id="line2d_22">
      <g>
       <use x="598.244410714" xlink:href="#m8b010facb1" y="34.5839"/>
      </g>
     </g>
     <g id="text_11">
      <!-- 10 -->
      <g transform="translate(592.280035714 456.328275)scale(0.12 -0.12)">
       <use xlink:href="#SourceSansPro-Regular-31"/>
       <use x="49.69999694824219" xlink:href="#SourceSansPro-Regular-30"/>
      </g>
     </g>
    </g>
    <g id="text_12">
     <!-- Score, in half-point intervals -->
     <defs>
      <path d="M 4.59375 24.203125 
C 4.59375 8.09375 15.203125 -1.203125 27.09375 -1.203125 
C 39 -1.203125 49.59375 8.09375 49.59375 24.203125 
C 49.59375 40.5 39 49.796875 27.09375 49.796875 
C 15.203125 49.796875 4.59375 40.5 4.59375 24.203125 
M 13.09375 24.203125 
C 13.09375 35.40625 18.796875 43 27.09375 43 
C 35.5 43 41.09375 35.40625 41.09375 24.203125 
C 41.09375 13.09375 35.5 5.59375 27.09375 5.59375 
C 18.796875 5.59375 13.09375 13.09375 13.09375 24.203125 
" id="SourceSansPro-Regular-6f"/>
      <path d="M 5.796875 12.59375 
C 5.796875 3.90625 11.90625 -1.203125 20.09375 -1.203125 
C 26.09375 -1.203125 31.5 2 36.203125 5.796875 
L 36.40625 5.796875 
L 37.09375 0 
L 43.90625 0 
L 43.90625 29.796875 
C 43.90625 41.90625 38.90625 49.796875 27 49.796875 
C 19.203125 49.796875 12.40625 46.40625 7.90625 43.5 
L 11.203125 37.796875 
C 15 40.40625 20 43 25.703125 43 
C 33.59375 43 35.703125 37 35.703125 30.796875 
C 15 28.5 5.796875 23.203125 5.796875 12.59375 
M 13.90625 13.203125 
C 13.90625 19.40625 19.40625 23.40625 35.703125 25.40625 
L 35.703125 11.90625 
C 31 7.703125 27.09375 5.40625 22.40625 5.40625 
C 17.59375 5.40625 13.90625 7.703125 13.90625 13.203125 
" id="SourceSansPro-Regular-61"/>
      <path d="M 18.703125 0 
L 28.296875 0 
L 45.5 48.59375 
L 37.40625 48.59375 
L 28.203125 21 
C 26.796875 16.203125 25.203125 11.296875 23.796875 6.703125 
L 23.40625 6.703125 
C 21.90625 11.296875 20.296875 16.203125 18.90625 21 
L 9.703125 48.59375 
L 1.203125 48.59375 
z
" id="SourceSansPro-Regular-76"/>
      <path d="M 31.90625 70.796875 
C 29.703125 71.703125 26.796875 72.40625 23.796875 72.40625 
C 14.09375 72.40625 9.59375 66.203125 9.59375 56.296875 
L 9.59375 48.59375 
L 3 48.09375 
L 3 41.90625 
L 9.59375 41.90625 
L 9.59375 0 
L 17.796875 0 
L 17.796875 41.90625 
L 28.09375 41.90625 
L 28.09375 48.59375 
L 17.796875 48.59375 
L 17.796875 56.296875 
C 17.796875 62.5 20 65.703125 24.59375 65.703125 
C 26.40625 65.703125 28.296875 65.296875 30.09375 64.5 
z
" id="SourceSansPro-Regular-66"/>
      <path d="M 8.203125 0 
L 16.40625 0 
L 16.40625 31.203125 
C 19.703125 39.40625 24.59375 42.40625 28.703125 42.40625 
C 30.703125 42.40625 31.796875 42.09375 33.40625 41.59375 
L 35 48.796875 
C 33.40625 49.5 31.90625 49.796875 29.796875 49.796875 
C 24.296875 49.796875 19.296875 45.90625 16 39.796875 
L 15.703125 39.796875 
L 15 48.59375 
L 8.203125 48.59375 
z
" id="SourceSansPro-Regular-72"/>
      <path d="M 8.203125 0 
L 16.40625 0 
L 16.40625 35.203125 
C 21.296875 40.09375 24.703125 42.703125 29.703125 42.703125 
C 36.09375 42.703125 38.90625 38.796875 38.90625 29.703125 
L 38.90625 0 
L 47.09375 0 
L 47.09375 30.796875 
C 47.09375 43.203125 42.5 49.796875 32.296875 49.796875 
C 25.59375 49.796875 20.703125 46.203125 16.09375 41.796875 
L 16.40625 51.796875 
L 16.40625 71.203125 
L 8.203125 71.203125 
z
" id="SourceSansPro-Regular-68"/>
      <path d="M 8.203125 9.796875 
C 8.203125 2.703125 10.703125 -1.203125 16.90625 -1.203125 
C 19.09375 -1.203125 20.5 -0.90625 21.59375 -0.40625 
L 20.5 5.796875 
C 19.59375 5.59375 19.203125 5.59375 18.703125 5.59375 
C 17.5 5.59375 16.40625 6.59375 16.40625 9.203125 
L 16.40625 71.203125 
L 8.203125 71.203125 
z
" id="SourceSansPro-Regular-6c"/>
      <path d="M 4.59375 24.203125 
C 4.59375 8.09375 14.5 -1.203125 27.40625 -1.203125 
C 33.203125 -1.203125 38.796875 1.203125 43.203125 5.09375 
L 39.5 10.5 
C 36.59375 7.90625 32.703125 5.59375 28.09375 5.59375 
C 19.203125 5.59375 13.09375 13.09375 13.09375 24.203125 
C 13.09375 35.40625 19.5 43 28.296875 43 
C 32.203125 43 35.203125 41.203125 38.09375 38.703125 
L 42.203125 44 
C 38.90625 47.09375 34.40625 49.796875 28 49.796875 
C 15.5 49.796875 4.59375 40.5 4.59375 24.203125 
" id="SourceSansPro-Regular-63"/>
      <path id="SourceSansPro-Regular-20"/>
      <path d="M 2.796875 5.5 
C 7.40625 1.703125 14 -1.203125 20.90625 -1.203125 
C 32.40625 -1.203125 38.703125 5.40625 38.703125 13.296875 
C 38.703125 22.5 30.90625 25.40625 23.90625 28 
C 18.40625 30.09375 13.09375 31.796875 13.09375 36.40625 
C 13.09375 40.09375 15.90625 43.40625 22 43.40625 
C 26.296875 43.40625 29.796875 41.59375 33.09375 39.09375 
L 37 44.296875 
C 33.296875 47.296875 28 49.796875 21.90625 49.796875 
C 11.40625 49.796875 5.203125 43.796875 5.203125 36 
C 5.203125 27.796875 12.796875 24.5 19.703125 22 
C 25 20 30.796875 17.796875 30.796875 12.796875 
C 30.796875 8.59375 27.59375 5.203125 21.203125 5.203125 
C 15.40625 5.203125 11.09375 7.59375 6.90625 11 
z
" id="SourceSansPro-Regular-73"/>
      <path d="M 4.59375 24.203125 
C 4.59375 8.296875 14.90625 -1.203125 27.90625 -1.203125 
C 34.5 -1.203125 39.703125 1.09375 43.90625 3.796875 
L 41 9.203125 
C 37.40625 6.90625 33.5 5.40625 28.90625 5.40625 
C 19.59375 5.40625 13.296875 12 12.703125 22.5 
L 45.5 22.5 
C 45.703125 23.703125 45.796875 25.296875 45.796875 27 
C 45.796875 40.90625 38.796875 49.796875 26.40625 49.796875 
C 15.296875 49.796875 4.59375 40.09375 4.59375 24.203125 
M 12.59375 27.90625 
C 13.59375 37.703125 19.796875 43.296875 26.59375 43.296875 
C 34.203125 43.296875 38.59375 37.796875 38.59375 27.90625 
z
" id="SourceSansPro-Regular-65"/>
      <path d="M 6.703125 -17 
C 14.796875 -13.59375 19.796875 -6.90625 19.796875 1.703125 
C 19.796875 7.703125 17.203125 11.40625 12.90625 11.40625 
C 9.59375 11.40625 6.796875 9.203125 6.796875 5.59375 
C 6.796875 1.90625 9.5 -0.09375 12.703125 -0.09375 
C 13 -0.09375 13.40625 -0.09375 13.703125 0 
C 13.703125 -5.40625 10.296875 -9.703125 4.703125 -12.203125 
z
" id="SourceSansPro-Regular-2c"/>
      <path d="M 4.09375 21.90625 
L 27.09375 21.90625 
L 27.09375 28.203125 
L 4.09375 28.203125 
z
" id="SourceSansPro-Regular-2d"/>
      <path d="M 4.203125 8.5 
C 9.90625 2.59375 18 -1.203125 27.203125 -1.203125 
C 41 -1.203125 49.5 7.09375 49.5 17.5 
C 49.5 27.203125 43.59375 31.703125 36 35 
L 26.703125 39 
C 21.5 41.203125 15.796875 43.59375 15.796875 49.90625 
C 15.796875 55.796875 20.703125 59.5 28 59.5 
C 34.09375 59.5 38.90625 57.09375 42.90625 53.296875 
L 47.40625 58.703125 
C 42.703125 63.5 35.796875 66.796875 28 66.796875 
C 16.09375 66.796875 7.40625 59.40625 7.40625 49.40625 
C 7.40625 39.796875 14.5 35.09375 20.703125 32.5 
L 30.09375 28.40625 
C 36.296875 25.59375 41 23.5 41 16.796875 
C 41 10.40625 35.90625 6.09375 27.296875 6.09375 
C 20.5 6.09375 13.90625 9.40625 9.203125 14.296875 
z
" id="SourceSansPro-Regular-53"/>
      <path d="M 16.203125 4.40625 
C 20.703125 0.90625 25.203125 -1.203125 29.703125 -1.203125 
C 40.796875 -1.203125 50.703125 8.5 50.703125 25 
C 50.703125 40.09375 44 49.796875 31.5 49.796875 
C 25.796875 49.796875 20.40625 46.703125 16 43 
L 15.703125 43 
L 15 48.59375 
L 8.203125 48.59375 
L 8.203125 -20.5 
L 16.40625 -20.5 
L 16.40625 -4.09375 
z
M 16.40625 10.796875 
L 16.40625 36.296875 
C 21.203125 40.59375 25.296875 42.90625 29.40625 42.90625 
C 38.59375 42.90625 42.203125 35.703125 42.203125 25 
C 42.203125 13 36.296875 5.703125 28.296875 5.703125 
C 25.09375 5.703125 20.796875 7.09375 16.40625 10.796875 
" id="SourceSansPro-Regular-70"/>
      <path d="M 8.203125 0 
L 16.40625 0 
L 16.40625 35.203125 
C 21.296875 40.09375 24.703125 42.703125 29.703125 42.703125 
C 36.09375 42.703125 38.90625 38.796875 38.90625 29.703125 
L 38.90625 0 
L 47.09375 0 
L 47.09375 30.796875 
C 47.09375 43.203125 42.5 49.796875 32.296875 49.796875 
C 25.59375 49.796875 20.59375 46.203125 16 41.59375 
L 15.703125 41.59375 
L 15 48.59375 
L 8.203125 48.59375 
z
" id="SourceSansPro-Regular-6e"/>
      <path d="M 9.59375 15 
C 9.59375 5.40625 13.09375 -1.203125 23.5 -1.203125 
C 26.5 -1.203125 29.796875 -0.296875 32.5 0.59375 
L 30.90625 6.796875 
C 29.296875 6.203125 27.09375 5.5 25.40625 5.5 
C 19.796875 5.5 17.90625 8.90625 17.90625 14.90625 
L 17.90625 41.90625 
L 31 41.90625 
L 31 48.59375 
L 17.90625 48.59375 
L 17.90625 62.203125 
L 11 62.203125 
L 10 48.59375 
L 2.40625 48.09375 
L 2.40625 41.90625 
L 9.59375 41.90625 
z
" id="SourceSansPro-Regular-74"/>
      <path d="M 12.40625 58.59375 
C 15.59375 58.59375 18.09375 60.796875 18.09375 63.90625 
C 18.09375 67.09375 15.59375 69.203125 12.40625 69.203125 
C 9.203125 69.203125 6.703125 67.09375 6.703125 63.90625 
C 6.703125 60.796875 9.203125 58.59375 12.40625 58.59375 
M 8.203125 0 
L 16.40625 0 
L 16.40625 48.59375 
L 8.203125 48.59375 
z
" id="SourceSansPro-Regular-69"/>
     </defs>
     <g transform="translate(247.626375 474.214775)scale(0.144 -0.144)">
      <use xlink:href="#SourceSansPro-Regular-53"/>
      <use x="53.399993896484375" xlink:href="#SourceSansPro-Regular-63"/>
      <use x="98.99998474121094" xlink:href="#SourceSansPro-Regular-6f"/>
      <use x="153.19998168945312" xlink:href="#SourceSansPro-Regular-72"/>
      <use x="187.8999786376953" xlink:href="#SourceSansPro-Regular-65"/>
      <use x="237.49996948242188" xlink:href="#SourceSansPro-Regular-2c"/>
      <use x="262.39996337890625" xlink:href="#SourceSansPro-Regular-20"/>
      <use x="282.59996032714844" xlink:href="#SourceSansPro-Regular-69"/>
      <use x="307.199951171875" xlink:href="#SourceSansPro-Regular-6e"/>
      <use x="361.8999481201172" xlink:href="#SourceSansPro-Regular-20"/>
      <use x="382.0999450683594" xlink:href="#SourceSansPro-Regular-68"/>
      <use x="436.49993896484375" xlink:href="#SourceSansPro-Regular-61"/>
      <use x="487.69993591308594" xlink:href="#SourceSansPro-Regular-6c"/>
      <use x="513.1999206542969" xlink:href="#SourceSansPro-Regular-66"/>
      <use x="542.3999176025391" xlink:href="#SourceSansPro-Regular-2d"/>
      <use x="573.4999084472656" xlink:href="#SourceSansPro-Regular-70"/>
      <use x="628.9998931884766" xlink:href="#SourceSansPro-Regular-6f"/>
      <use x="683.1998901367188" xlink:href="#SourceSansPro-Regular-69"/>
      <use x="707.7998809814453" xlink:href="#SourceSansPro-Regular-6e"/>
      <use x="762.4998779296875" xlink:href="#SourceSansPro-Regular-74"/>
      <use x="796.2998657226562" xlink:href="#SourceSansPro-Regular-20"/>
      <use x="816.4998626708984" xlink:href="#SourceSansPro-Regular-69"/>
      <use x="841.099853515625" xlink:href="#SourceSansPro-Regular-6e"/>
      <use x="895.7998504638672" xlink:href="#SourceSansPro-Regular-74"/>
      <use x="929.5998382568359" xlink:href="#SourceSansPro-Regular-65"/>
      <use x="979.1998291015625" xlink:href="#SourceSansPro-Regular-72"/>
      <use x="1013.8998260498047" xlink:href="#SourceSansPro-Regular-76"/>
      <use x="1060.5998229980469" xlink:href="#SourceSansPro-Regular-61"/>
      <use x="1111.799819946289" xlink:href="#SourceSansPro-Regular-6c"/>
      <use x="1137.2998046875" xlink:href="#SourceSansPro-Regular-73"/>
     </g>
    </g>
   </g>
   <g id="matplotlib.axis_2">
    <g id="ytick_1">
     <g id="line2d_23">
      <path clip-path="url(#p15f504cb8e)" d="M 53.530125 387.3839 
L 611.530125 387.3839 
" style="fill:none;stroke:#8fa7bf;stroke-linecap:square;stroke-width:0.5;"/>
     </g>
     <g id="line2d_24">
      <defs>
       <path d="M 0 0 
L 6 0 
" id="m62416b7cce"/>
      </defs>
      <g>
       <use x="53.530125" xlink:href="#m62416b7cce" y="387.3839"/>
      </g>
     </g>
     <g id="line2d_25">
      <defs>
       <path d="M 0 0 
L -6 0 
" id="mf4ce49e384"/>
      </defs>
      <g>
       <use x="611.530125" xlink:href="#mf4ce49e384" y="387.3839"/>
      </g>
     </g>
     <g id="text_13">
      <!-- 25 -->
      <g transform="translate(31.601375 390.4260875)scale(0.12 -0.12)">
       <use xlink:href="#SourceSansPro-Regular-32"/>
       <use x="49.69999694824219" xlink:href="#SourceSansPro-Regular-35"/>
      </g>
     </g>
    </g>
    <g id="ytick_2">
     <g id="line2d_26">
      <path clip-path="url(#p15f504cb8e)" d="M 53.530125 336.9839 
L 611.530125 336.9839 
" style="fill:none;stroke:#8fa7bf;stroke-linecap:square;stroke-width:0.5;"/>
     </g>
     <g id="line2d_27">
      <g>
       <use x="53.530125" xlink:href="#m62416b7cce" y="336.9839"/>
      </g>
     </g>
     <g id="line2d_28">
      <g>
       <use x="611.530125" xlink:href="#mf4ce49e384" y="336.9839"/>
      </g>
     </g>
     <g id="text_14">
      <!-- 50 -->
      <g transform="translate(31.601375 340.0260875)scale(0.12 -0.12)">
       <use xlink:href="#SourceSansPro-Regular-35"/>
       <use x="49.69999694824219" xlink:href="#SourceSansPro-Regular-30"/>
      </g>
     </g>
    </g>
    <g id="ytick_3">
     <g id="line2d_29">
      <path clip-path="url(#p15f504cb8e)" d="M 53.530125 286.5839 
L 611.530125 286.5839 
" style="fill:none;stroke:#8fa7bf;stroke-linecap:square;stroke-width:0.5;"/>
     </g>
     <g id="line2d_30">
      <g>
       <use x="53.530125" xlink:href="#m62416b7cce" y="286.5839"/>
      </g>
     </g>
     <g id="line2d_31">
      <g>
       <use x="611.530125" xlink:href="#mf4ce49e384" y="286.5839"/>
      </g>
     </g>
     <g id="text_15">
      <!-- 75 -->
      <g transform="translate(31.601375 289.6260875)scale(0.12 -0.12)">
       <use xlink:href="#SourceSansPro-Regular-37"/>
       <use x="49.69999694824219" xlink:href="#SourceSansPro-Regular-35"/>
      </g>
     </g>
    </g>
    <g id="ytick_4">
     <g id="line2d_32">
      <path clip-path="url(#p15f504cb8e)" d="M 53.530125 236.1839 
L 611.530125 236.1839 
" style="fill:none;stroke:#8fa7bf;stroke-linecap:square;stroke-width:0.5;"/>
     </g>
     <g id="line2d_33">
      <g>
       <use x="53.530125" xlink:href="#m62416b7cce" y="236.1839"/>
      </g>
     </g>
     <g id="line2d_34">
      <g>
       <use x="611.530125" xlink:href="#mf4ce49e384" y="236.1839"/>
      </g>
     </g>
     <g id="text_16">
      <!-- 100 -->
      <g transform="translate(25.637 239.2260875)scale(0.12 -0.12)">
       <use xlink:href="#SourceSansPro-Regular-31"/>
       <use x="49.69999694824219" xlink:href="#SourceSansPro-Regular-30"/>
       <use x="99.39999389648438" xlink:href="#SourceSansPro-Regular-30"/>
      </g>
     </g>
    </g>
    <g id="ytick_5">
     <g id="line2d_35">
      <path clip-path="url(#p15f504cb8e)" d="M 53.530125 185.7839 
L 611.530125 185.7839 
" style="fill:none;stroke:#8fa7bf;stroke-linecap:square;stroke-width:0.5;"/>
     </g>
     <g id="line2d_36">
      <g>
       <use x="53.530125" xlink:href="#m62416b7cce" y="185.7839"/>
      </g>
     </g>
     <g id="line2d_37">
      <g>
       <use x="611.530125" xlink:href="#mf4ce49e384" y="185.7839"/>
      </g>
     </g>
     <g id="text_17">
      <!-- 125 -->
      <g transform="translate(25.637 188.8260875)scale(0.12 -0.12)">
       <use xlink:href="#SourceSansPro-Regular-31"/>
       <use x="49.69999694824219" xlink:href="#SourceSansPro-Regular-32"/>
       <use x="99.39999389648438" xlink:href="#SourceSansPro-Regular-35"/>
      </g>
     </g>
    </g>
    <g id="ytick_6">
     <g id="line2d_38">
      <path clip-path="url(#p15f504cb8e)" d="M 53.530125 135.3839 
L 611.530125 135.3839 
" style="fill:none;stroke:#8fa7bf;stroke-linecap:square;stroke-width:0.5;"/>
     </g>
     <g id="line2d_39">
      <g>
       <use x="53.530125" xlink:href="#m62416b7cce" y="135.3839"/>
      </g>
     </g>
     <g id="line2d_40">
      <g>
       <use x="611.530125" xlink:href="#mf4ce49e384" y="135.3839"/>
      </g>
     </g>
     <g id="text_18">
      <!-- 150 -->
      <g transform="translate(25.637 138.4260875)scale(0.12 -0.12)">
       <use xlink:href="#SourceSansPro-Regular-31"/>
       <use x="49.69999694824219" xlink:href="#SourceSansPro-Regular-35"/>
       <use x="99.39999389648438" xlink:href="#SourceSansPro-Regular-30"/>
      </g>
     </g>
    </g>
    <g id="ytick_7">
     <g id="line2d_41">
      <path clip-path="url(#p15f504cb8e)" d="M 53.530125 84.9839 
L 611.530125 84.9839 
" style="fill:none;stroke:#8fa7bf;stroke-linecap:square;stroke-width:0.5;"/>
     </g>
     <g id="line2d_42">
      <g>
       <use x="53.530125" xlink:href="#m62416b7cce" y="84.9839"/>
      </g>
     </g>
     <g id="line2d_43">
      <g>
       <use x="611.530125" xlink:href="#mf4ce49e384" y="84.9839"/>
      </g>
     </g>
     <g id="text_19">
      <!-- 175 -->
      <g transform="translate(25.637 88.0260875)scale(0.12 -0.12)">
       <use xlink:href="#SourceSansPro-Regular-31"/>
       <use x="49.69999694824219" xlink:href="#SourceSansPro-Regular-37"/>
       <use x="99.39999389648438" xlink:href="#SourceSansPro-Regular-35"/>
      </g>
     </g>
    </g>
    <g id="ytick_8">
     <g id="line2d_44">
      <path clip-path="url(#p15f504cb8e)" d="M 53.530125 34.5839 
L 611.530125 34.5839 
" style="fill:none;stroke:#8fa7bf;stroke-linecap:square;stroke-width:0.5;"/>
     </g>
     <g id="line2d_45">
      <g>
       <use x="53.530125" xlink:href="#m62416b7cce" y="34.5839"/>
      </g>
     </g>
     <g id="line2d_46">
      <g>
       <use x="611.530125" xlink:href="#mf4ce49e384" y="34.5839"/>
      </g>
     </g>
     <g id="text_20">
      <!-- 200 -->
      <g transform="translate(25.637 37.6260875)scale(0.12 -0.12)">
       <use xlink:href="#SourceSansPro-Regular-32"/>
       <use x="49.69999694824219" xlink:href="#SourceSansPro-Regular-30"/>
       <use x="99.39999389648438" xlink:href="#SourceSansPro-Regular-30"/>
      </g>
     </g>
    </g>
    <g id="text_21">
     <!-- Score frequency -->
     <defs>
      <path d="M 4.703125 24.203125 
C 4.703125 8 12.59375 -1.203125 24.796875 -1.203125 
C 30.40625 -1.203125 35.5 1.796875 39.40625 5.40625 
L 39 -3.203125 
L 39 -20.5 
L 47.296875 -20.5 
L 47.296875 48.59375 
L 40.703125 48.59375 
L 39.90625 44 
L 39.703125 44 
C 35.296875 47.796875 31.40625 49.796875 25.796875 49.796875 
C 14.703125 49.796875 4.703125 40 4.703125 24.203125 
M 13.203125 24.296875 
C 13.203125 35.40625 19.40625 42.90625 27.203125 42.90625 
C 31.203125 42.90625 34.90625 41.5 39 37.796875 
L 39 12.40625 
C 35 7.90625 31.09375 5.703125 26.59375 5.703125 
C 18.09375 5.703125 13.203125 12.703125 13.203125 24.296875 
" id="SourceSansPro-Regular-71"/>
      <path d="M 4.90625 -13.40625 
L 3.296875 -19.90625 
C 4.90625 -20.5 6.796875 -20.90625 9 -20.90625 
C 18.796875 -20.90625 23.796875 -13.59375 27.203125 -4 
L 45.5 48.59375 
L 37.5 48.59375 
L 28.796875 21.703125 
C 27.5 17.40625 26.09375 12.40625 24.703125 8 
L 24.296875 8 
C 22.796875 12.5 21.09375 17.5 19.59375 21.703125 
L 9.703125 48.59375 
L 1.203125 48.59375 
L 20.703125 -0.09375 
L 19.59375 -3.703125 
C 17.59375 -9.703125 14.09375 -14.09375 8.59375 -14.09375 
C 7.40625 -14.09375 5.90625 -13.703125 4.90625 -13.40625 
" id="SourceSansPro-Regular-79"/>
      <path d="M 7.5 17.796875 
C 7.5 5.40625 12.09375 -1.203125 22.40625 -1.203125 
C 29.09375 -1.203125 33.90625 2.296875 38.40625 7.59375 
L 38.703125 7.59375 
L 39.40625 0 
L 46.203125 0 
L 46.203125 48.59375 
L 38 48.59375 
L 38 14.09375 
C 33.40625 8.40625 29.90625 5.90625 24.90625 5.90625 
C 18.5 5.90625 15.796875 9.796875 15.796875 18.90625 
L 15.796875 48.59375 
L 7.5 48.59375 
z
" id="SourceSansPro-Regular-75"/>
     </defs>
     <g transform="translate(17.6265 284.942525)rotate(-90.0)scale(0.144 -0.144)">
      <use xlink:href="#SourceSansPro-Regular-53"/>
      <use x="53.399993896484375" xlink:href="#SourceSansPro-Regular-63"/>
      <use x="98.99998474121094" xlink:href="#SourceSansPro-Regular-6f"/>
      <use x="153.19998168945312" xlink:href="#SourceSansPro-Regular-72"/>
      <use x="187.8999786376953" xlink:href="#SourceSansPro-Regular-65"/>
      <use x="237.49996948242188" xlink:href="#SourceSansPro-Regular-20"/>
      <use x="257.69996643066406" xlink:href="#SourceSansPro-Regular-66"/>
      <use x="286.89996337890625" xlink:href="#SourceSansPro-Regular-72"/>
      <use x="321.59996032714844" xlink:href="#SourceSansPro-Regular-65"/>
      <use x="371.199951171875" xlink:href="#SourceSansPro-Regular-71"/>
      <use x="426.19993591308594" xlink:href="#SourceSansPro-Regular-75"/>
      <use x="480.5999298095703" xlink:href="#SourceSansPro-Regular-65"/>
      <use x="530.1999206542969" xlink:href="#SourceSansPro-Regular-6e"/>
      <use x="584.8999176025391" xlink:href="#SourceSansPro-Regular-63"/>
      <use x="630.4999084472656" xlink:href="#SourceSansPro-Regular-79"/>
     </g>
    </g>
   </g>
   <g id="patch_3">
    <path clip-path="url(#p15f504cb8e)" d="M 53.530125 437.7839 
L 80.101554 437.7839 
L 80.101554 437.7839 
L 53.530125 437.7839 
z
" style="fill:#afb7bf;stroke:#000000;stroke-linejoin:miter;"/>
   </g>
   <g id="patch_4">
    <path clip-path="url(#p15f504cb8e)" d="M 80.101554 437.7839 
L 106.672982 437.7839 
L 106.672982 437.7839 
L 80.101554 437.7839 
z
" style="fill:#afb7bf;stroke:#000000;stroke-linejoin:miter;"/>
   </g>
   <g id="patch_5">
    <path clip-path="url(#p15f504cb8e)" d="M 106.672982 437.7839 
L 133.244411 437.7839 
L 133.244411 435.7679 
L 106.672982 435.7679 
z
" style="fill:#afb7bf;stroke:#000000;stroke-linejoin:miter;"/>
   </g>
   <g id="patch_6">
    <path clip-path="url(#p15f504cb8e)" d="M 133.244411 437.7839 
L 159.815839 437.7839 
L 159.815839 437.7839 
L 133.244411 437.7839 
z
" style="fill:#afb7bf;stroke:#000000;stroke-linejoin:miter;"/>
   </g>
   <g id="patch_7">
    <path clip-path="url(#p15f504cb8e)" d="M 159.815839 437.7839 
L 186.387268 437.7839 
L 186.387268 431.7359 
L 159.815839 431.7359 
z
" style="fill:#afb7bf;stroke:#000000;stroke-linejoin:miter;"/>
   </g>
   <g id="patch_8">
    <path clip-path="url(#p15f504cb8e)" d="M 186.387268 437.7839 
L 212.958696 437.7839 
L 212.958696 437.7839 
L 186.387268 437.7839 
z
" style="fill:#afb7bf;stroke:#000000;stroke-linejoin:miter;"/>
   </g>
   <g id="patch_9">
    <path clip-path="url(#p15f504cb8e)" d="M 212.958696 437.7839 
L 239.530125 437.7839 
L 239.530125 437.7839 
L 212.958696 437.7839 
z
" style="fill:#afb7bf;stroke:#000000;stroke-linejoin:miter;"/>
   </g>
   <g id="patch_10">
    <path clip-path="url(#p15f504cb8e)" d="M 239.530125 437.7839 
L 266.101554 437.7839 
L 266.101554 437.7839 
L 239.530125 437.7839 
z
" style="fill:#afb7bf;stroke:#000000;stroke-linejoin:miter;"/>
   </g>
   <g id="patch_11">
    <path clip-path="url(#p15f504cb8e)" d="M 266.101554 437.7839 
L 292.672982 437.7839 
L 292.672982 417.6239 
L 266.101554 417.6239 
z
" style="fill:#afb7bf;stroke:#000000;stroke-linejoin:miter;"/>
   </g>
   <g id="patch_12">
    <path clip-path="url(#p15f504cb8e)" d="M 292.672982 437.7839 
L 319.244411 437.7839 
L 319.244411 437.7839 
L 292.672982 437.7839 
z
" style="fill:#afb7bf;stroke:#000000;stroke-linejoin:miter;"/>
   </g>
   <g id="patch_13">
    <path clip-path="url(#p15f504cb8e)" d="M 319.244411 437.7839 
L 345.815839 437.7839 
L 345.815839 395.4479 
L 319.244411 395.4479 
z
" style="fill:#afb7bf;stroke:#000000;stroke-linejoin:miter;"/>
   </g>
   <g id="patch_14">
    <path clip-path="url(#p15f504cb8e)" d="M 345.815839 437.7839 
L 372.387268 437.7839 
L 372.387268 437.7839 
L 345.815839 437.7839 
z
" style="fill:#afb7bf;stroke:#000000;stroke-linejoin:miter;"/>
   </g>
   <g id="patch_15">
    <path clip-path="url(#p15f504cb8e)" d="M 372.387268 437.7839 
L 398.958696 437.7839 
L 398.958696 353.1119 
L 372.387268 353.1119 
z
" style="fill:#afb7bf;stroke:#000000;stroke-linejoin:miter;"/>
   </g>
   <g id="patch_16">
    <path clip-path="url(#p15f504cb8e)" d="M 398.958696 437.7839 
L 425.530125 437.7839 
L 425.530125 411.5759 
L 398.958696 411.5759 
z
" style="fill:#afb7bf;stroke:#000000;stroke-linejoin:miter;"/>
   </g>
   <g id="patch_17">
    <path clip-path="url(#p15f504cb8e)" d="M 425.530125 437.7839 
L 452.101554 437.7839 
L 452.101554 111.1919 
L 425.530125 111.1919 
z
" style="fill:#afb7bf;stroke:#000000;stroke-linejoin:miter;"/>
   </g>
   <g id="patch_18">
    <path clip-path="url(#p15f504cb8e)" d="M 452.101554 437.7839 
L 478.672982 437.7839 
L 478.672982 379.3199 
L 452.101554 379.3199 
z
" style="fill:#afb7bf;stroke:#000000;stroke-linejoin:miter;"/>
   </g>
   <g id="patch_19">
    <path clip-path="url(#p15f504cb8e)" d="M 478.672982 437.7839 
L 505.244411 437.7839 
L 505.244411 50.7119 
L 478.672982 50.7119 
z
" style="fill:#afb7bf;stroke:#000000;stroke-linejoin:miter;"/>
   </g>
   <g id="patch_20">
    <path clip-path="url(#p15f504cb8e)" d="M 505.244411 437.7839 
L 531.815839 437.7839 
L 531.815839 389.3999 
L 505.244411 389.3999 
z
" style="fill:#afb7bf;stroke:#000000;stroke-linejoin:miter;"/>
   </g>
   <g id="patch_21">
    <path clip-path="url(#p15f504cb8e)" d="M 531.815839 437.7839 
L 558.387268 437.7839 
L 558.387268 242.2319 
L 531.815839 242.2319 
z
" style="fill:#afb7bf;stroke:#000000;stroke-linejoin:miter;"/>
   </g>
   <g id="patch_22">
    <path clip-path="url(#p15f504cb8e)" d="M 558.387268 437.7839 
L 584.958696 437.7839 
L 584.958696 433.7519 
L 558.387268 433.7519 
z
" style="fill:#afb7bf;stroke:#000000;stroke-linejoin:miter;"/>
   </g>
   <g id="patch_23">
    <path clip-path="url(#p15f504cb8e)" d="M 584.958696 437.7839 
L 611.530125 437.7839 
L 611.530125 357.1439 
L 584.958696 357.1439 
z
" style="fill:#afb7bf;stroke:#000000;stroke-linejoin:miter;"/>
   </g>
   <g id="patch_24">
    <path clip-path="url(#p15f504cb8e)" d="M 53.530125 437.7839 
L 80.101554 437.7839 
L 80.101554 437.7839 
L 53.530125 437.7839 
z
" style="fill:#bd3338;stroke:#000000;stroke-linejoin:miter;stroke-width:0.5;"/>
   </g>
   <g id="patch_25">
    <path clip-path="url(#p15f504cb8e)" d="M 80.101554 437.7839 
L 106.672982 437.7839 
L 106.672982 437.7839 
L 80.101554 437.7839 
z
" style="fill:#bd3338;stroke:#000000;stroke-linejoin:miter;stroke-width:0.5;"/>
   </g>
   <g id="patch_26">
    <path clip-path="url(#p15f504cb8e)" d="M 106.672982 437.7839 
L 133.244411 437.7839 
L 133.244411 437.7839 
L 106.672982 437.7839 
z
" style="fill:#bd3338;stroke:#000000;stroke-linejoin:miter;stroke-width:0.5;"/>
   </g>
   <g id="patch_27">
    <path clip-path="url(#p15f504cb8e)" d="M 133.244411 437.7839 
L 159.815839 437.7839 
L 159.815839 437.7839 
L 133.244411 437.7839 
z
" style="fill:#bd3338;stroke:#000000;stroke-linejoin:miter;stroke-width:0.5;"/>
   </g>
   <g id="patch_28">
    <path clip-path="url(#p15f504cb8e)" d="M 159.815839 437.7839 
L 186.387268 437.7839 
L 186.387268 437.7839 
L 159.815839 437.7839 
z
" style="fill:#bd3338;stroke:#000000;stroke-linejoin:miter;stroke-width:0.5;"/>
   </g>
   <g id="patch_29">
    <path clip-path="url(#p15f504cb8e)" d="M 186.387268 437.7839 
L 212.958696 437.7839 
L 212.958696 437.7839 
L 186.387268 437.7839 
z
" style="fill:#bd3338;stroke:#000000;stroke-linejoin:miter;stroke-width:0.5;"/>
   </g>
   <g id="patch_30">
    <path clip-path="url(#p15f504cb8e)" d="M 212.958696 437.7839 
L 239.530125 437.7839 
L 239.530125 437.7839 
L 212.958696 437.7839 
z
" style="fill:#bd3338;stroke:#000000;stroke-linejoin:miter;stroke-width:0.5;"/>
   </g>
   <g id="patch_31">
    <path clip-path="url(#p15f504cb8e)" d="M 239.530125 437.7839 
L 266.101554 437.7839 
L 266.101554 437.7839 
L 239.530125 437.7839 
z
" style="fill:#bd3338;stroke:#000000;stroke-linejoin:miter;stroke-width:0.5;"/>
   </g>
   <g id="patch_32">
    <path clip-path="url(#p15f504cb8e)" d="M 266.101554 437.7839 
L 292.672982 437.7839 
L 292.672982 437.7839 
L 266.101554 437.7839 
z
" style="fill:#bd3338;stroke:#000000;stroke-linejoin:miter;stroke-width:0.5;"/>
   </g>
   <g id="patch_33">
    <path clip-path="url(#p15f504cb8e)" d="M 292.672982 437.7839 
L 319.244411 437.7839 
L 319.244411 437.7839 
L 292.672982 437.7839 
z
" style="fill:#bd3338;stroke:#000000;stroke-linejoin:miter;stroke-width:0.5;"/>
   </g>
   <g id="patch_34">
    <path clip-path="url(#p15f504cb8e)" d="M 319.244411 437.7839 
L 345.815839 437.7839 
L 345.815839 437.7839 
L 319.244411 437.7839 
z
" style="fill:#bd3338;stroke:#000000;stroke-linejoin:miter;stroke-width:0.5;"/>
   </g>
   <g id="patch_35">
    <path clip-path="url(#p15f504cb8e)" d="M 345.815839 437.7839 
L 372.387268 437.7839 
L 372.387268 437.7839 
L 345.815839 437.7839 
z
" style="fill:#bd3338;stroke:#000000;stroke-linejoin:miter;stroke-width:0.5;"/>
   </g>
   <g id="patch_36">
    <path clip-path="url(#p15f504cb8e)" d="M 372.387268 437.7839 
L 398.958696 437.7839 
L 398.958696 433.7519 
L 372.387268 433.7519 
z
" style="fill:#bd3338;stroke:#000000;stroke-linejoin:miter;stroke-width:0.5;"/>
   </g>
   <g id="patch_37">
    <path clip-path="url(#p15f504cb8e)" d="M 398.958696 437.7839 
L 425.530125 437.7839 
L 425.530125 435.7679 
L 398.958696 435.7679 
z
" style="fill:#bd3338;stroke:#000000;stroke-linejoin:miter;stroke-width:0.5;"/>
   </g>
   <g id="patch_38">
    <path clip-path="url(#p15f504cb8e)" d="M 425.530125 437.7839 
L 452.101554 437.7839 
L 452.101554 355.1279 
L 425.530125 355.1279 
z
" style="fill:#bd3338;stroke:#000000;stroke-linejoin:miter;stroke-width:0.5;"/>
   </g>
   <g id="patch_39">
    <path clip-path="url(#p15f504cb8e)" d="M 452.101554 437.7839 
L 478.672982 437.7839 
L 478.672982 411.5759 
L 452.101554 411.5759 
z
" style="fill:#bd3338;stroke:#000000;stroke-linejoin:miter;stroke-width:0.5;"/>
   </g>
   <g id="patch_40">
    <path clip-path="url(#p15f504cb8e)" d="M 478.672982 437.7839 
L 505.244411 437.7839 
L 505.244411 216.0239 
L 478.672982 216.0239 
z
" style="fill:#bd3338;stroke:#000000;stroke-linejoin:miter;stroke-width:0.5;"/>
   </g>
   <g id="patch_41">
    <path clip-path="url(#p15f504cb8e)" d="M 505.244411 437.7839 
L 531.815839 437.7839 
L 531.815839 399.4799 
L 505.244411 399.4799 
z
" style="fill:#bd3338;stroke:#000000;stroke-linejoin:miter;stroke-width:0.5;"/>
   </g>
   <g id="patch_42">
    <path clip-path="url(#p15f504cb8e)" d="M 531.815839 437.7839 
L 558.387268 437.7839 
L 558.387268 276.5039 
L 531.815839 276.5039 
z
" style="fill:#bd3338;stroke:#000000;stroke-linejoin:miter;stroke-width:0.5;"/>
   </g>
   <g id="patch_43">
    <path clip-path="url(#p15f504cb8e)" d="M 558.387268 437.7839 
L 584.958696 437.7839 
L 584.958696 433.7519 
L 558.387268 433.7519 
z
" style="fill:#bd3338;stroke:#000000;stroke-linejoin:miter;stroke-width:0.5;"/>
   </g>
   <g id="patch_44">
    <path clip-path="url(#p15f504cb8e)" d="M 584.958696 437.7839 
L 611.530125 437.7839 
L 611.530125 375.2879 
L 584.958696 375.2879 
z
" style="fill:#bd3338;stroke:#000000;stroke-linejoin:miter;stroke-width:0.5;"/>
   </g>
   <g id="patch_45">
    <path d="M 611.530125 437.7839 
L 611.530125 34.5839 
" style="fill:none;stroke:#000000;stroke-linecap:square;stroke-linejoin:miter;"/>
   </g>
   <g id="patch_46">
    <path d="M 53.530125 437.7839 
L 611.530125 437.7839 
" style="fill:none;stroke:#000000;stroke-linecap:square;stroke-linejoin:miter;"/>
   </g>
   <g id="patch_47">
    <path d="M 53.530125 34.5839 
L 611.530125 34.5839 
" style="fill:none;stroke:#000000;stroke-linecap:square;stroke-linejoin:miter;"/>
   </g>
   <g id="patch_48">
    <path d="M 53.530125 437.7839 
L 53.530125 34.5839 
" style="fill:none;stroke:#000000;stroke-linecap:square;stroke-linejoin:miter;"/>
   </g>
   <g id="text_22">
    <!-- Guardian Blind Date score distribution, Jan 2009–Oct 2016 -->
    <defs>
     <path d="M 8.203125 0 
L 14.796875 0 
L 15.5 4.796875 
L 15.796875 4.796875 
C 20.09375 1 25.203125 -1.203125 29.703125 -1.203125 
C 40.796875 -1.203125 50.703125 8.5 50.703125 25.09375 
C 50.703125 40.09375 44 49.796875 31.40625 49.796875 
C 26 49.796875 20.59375 46.90625 16.203125 43 
L 16.40625 51.796875 
L 16.40625 71.203125 
L 8.203125 71.203125 
z
M 16.40625 10.796875 
L 16.40625 36.296875 
C 21 40.59375 25.296875 42.90625 29.40625 42.90625 
C 38.59375 42.90625 42.203125 35.703125 42.203125 25 
C 42.203125 13 36.296875 5.703125 28.296875 5.703125 
C 25.09375 5.703125 20.703125 7.09375 16.40625 10.796875 
" id="SourceSansPro-Regular-62"/>
     <path d="M 33.203125 -1.203125 
C 49.703125 -1.203125 61.296875 12 61.296875 33.09375 
C 61.296875 54 49.703125 66.796875 33.203125 66.796875 
C 16.703125 66.796875 5.203125 54.09375 5.203125 33.09375 
C 5.203125 12 16.703125 -1.203125 33.203125 -1.203125 
M 33.203125 6.09375 
C 21.5 6.09375 13.796875 16.703125 13.796875 33.09375 
C 13.796875 49.40625 21.5 59.5 33.203125 59.5 
C 44.90625 59.5 52.59375 49.40625 52.59375 33.09375 
C 52.59375 16.703125 44.90625 6.09375 33.203125 6.09375 
" id="SourceSansPro-Regular-4f"/>
     <path d="M 5.203125 32.796875 
C 5.203125 11.40625 17.5 -1.203125 34.703125 -1.203125 
C 43.5 -1.203125 50.703125 2 55 6.40625 
L 55 34 
L 33.5 34 
L 33.5 27.09375 
L 47.40625 27.09375 
L 47.40625 10 
C 44.796875 7.59375 40.296875 6.09375 35.59375 6.09375 
C 21.59375 6.09375 13.796875 16.5 13.796875 33 
C 13.796875 49.296875 22.296875 59.5 35.5 59.5 
C 42.09375 59.5 46.203125 56.90625 49.5 53.40625 
L 54.203125 58.703125 
C 50.40625 62.703125 44.40625 66.796875 35.40625 66.796875 
C 17.90625 66.796875 5.203125 53.90625 5.203125 32.796875 
" id="SourceSansPro-Regular-47"/>
     <path d="M 3.09375 9.296875 
C 6.90625 2.40625 12.90625 -1.203125 21.203125 -1.203125 
C 34 -1.203125 39.296875 8 39.296875 19.296875 
L 39.296875 65.59375 
L 30.90625 65.59375 
L 30.90625 20.09375 
C 30.90625 10.09375 27.40625 6.09375 20.40625 6.09375 
C 15.703125 6.09375 12 8.296875 9.09375 13.5 
z
" id="SourceSansPro-Regular-4a"/>
     <path d="M 9 0 
L 25.796875 0 
C 45.59375 0 56.40625 12.203125 56.40625 33.09375 
C 56.40625 53.90625 45.59375 65.59375 25.40625 65.59375 
L 9 65.59375 
z
M 17.296875 6.796875 
L 17.296875 58.796875 
L 24.796875 58.796875 
C 40.09375 58.796875 47.796875 49.59375 47.796875 33.09375 
C 47.796875 16.5 40.09375 6.796875 24.796875 6.796875 
z
" id="SourceSansPro-Regular-44"/>
     <path d="M 4.703125 24.203125 
C 4.703125 8 12.59375 -1.203125 24.796875 -1.203125 
C 30.5 -1.203125 35.703125 2 39.5 5.703125 
L 39.796875 5.703125 
L 40.5 0 
L 47.296875 0 
L 47.296875 71.203125 
L 39 71.203125 
L 39 52.5 
L 39.40625 44.203125 
C 35.09375 47.703125 31.40625 49.796875 25.796875 49.796875 
C 14.703125 49.796875 4.703125 40 4.703125 24.203125 
M 13.203125 24.296875 
C 13.203125 35.40625 19.40625 42.90625 27.203125 42.90625 
C 31.203125 42.90625 34.90625 41.5 39 37.796875 
L 39 12.40625 
C 35 7.90625 31.09375 5.703125 26.59375 5.703125 
C 18.09375 5.703125 13.203125 12.703125 13.203125 24.296875 
" id="SourceSansPro-Regular-64"/>
     <path d="M 4.09375 22.296875 
L 43.90625 22.296875 
L 43.90625 28 
L 4.09375 28 
z
" id="SourceSansPro-Regular-2013"/>
     <path d="M 9 0 
L 29.90625 0 
C 44.59375 0 54.796875 6.296875 54.796875 19.203125 
C 54.796875 28.203125 49.203125 33.40625 39.59375 34.90625 
L 39.59375 35.296875 
C 47.296875 37.296875 51 43.09375 51 49.59375 
C 51 61.09375 41.796875 65.59375 28.5 65.59375 
L 9 65.59375 
z
M 17.296875 37.59375 
L 17.296875 59 
L 27.40625 59 
C 37.59375 59 42.796875 56 42.796875 48.90625 
C 42.796875 41.59375 38.203125 37.59375 27 37.59375 
z
M 17.296875 6.59375 
L 17.296875 31.40625 
L 28.703125 31.40625 
C 40.203125 31.40625 46.59375 27.703125 46.59375 19.59375 
C 46.59375 10.703125 40 6.59375 28.703125 6.59375 
z
" id="SourceSansPro-Regular-42"/>
    </defs>
    <g transform="translate(122.305425 19.5039)scale(0.1728 -0.1728)">
     <use xlink:href="#SourceSansPro-Regular-47"/>
     <use x="61.69999694824219" xlink:href="#SourceSansPro-Regular-75"/>
     <use x="116.09999084472656" xlink:href="#SourceSansPro-Regular-61"/>
     <use x="167.29998779296875" xlink:href="#SourceSansPro-Regular-72"/>
     <use x="201.99998474121094" xlink:href="#SourceSansPro-Regular-64"/>
     <use x="257.4999694824219" xlink:href="#SourceSansPro-Regular-69"/>
     <use x="282.09996032714844" xlink:href="#SourceSansPro-Regular-61"/>
     <use x="333.2999572753906" xlink:href="#SourceSansPro-Regular-6e"/>
     <use x="387.9999542236328" xlink:href="#SourceSansPro-Regular-20"/>
     <use x="408.199951171875" xlink:href="#SourceSansPro-Regular-42"/>
     <use x="466.99993896484375" xlink:href="#SourceSansPro-Regular-6c"/>
     <use x="492.4999237060547" xlink:href="#SourceSansPro-Regular-69"/>
     <use x="517.0999145507812" xlink:href="#SourceSansPro-Regular-6e"/>
     <use x="571.7999114990234" xlink:href="#SourceSansPro-Regular-64"/>
     <use x="627.2998962402344" xlink:href="#SourceSansPro-Regular-20"/>
     <use x="647.4998931884766" xlink:href="#SourceSansPro-Regular-44"/>
     <use x="708.9998779296875" xlink:href="#SourceSansPro-Regular-61"/>
     <use x="760.1998748779297" xlink:href="#SourceSansPro-Regular-74"/>
     <use x="793.9998626708984" xlink:href="#SourceSansPro-Regular-65"/>
     <use x="843.599853515625" xlink:href="#SourceSansPro-Regular-20"/>
     <use x="863.7998504638672" xlink:href="#SourceSansPro-Regular-73"/>
     <use x="905.6998443603516" xlink:href="#SourceSansPro-Regular-63"/>
     <use x="951.2998352050781" xlink:href="#SourceSansPro-Regular-6f"/>
     <use x="1005.4998321533203" xlink:href="#SourceSansPro-Regular-72"/>
     <use x="1040.1998291015625" xlink:href="#SourceSansPro-Regular-65"/>
     <use x="1089.799819946289" xlink:href="#SourceSansPro-Regular-20"/>
     <use x="1109.9998168945312" xlink:href="#SourceSansPro-Regular-64"/>
     <use x="1165.4998016357422" xlink:href="#SourceSansPro-Regular-69"/>
     <use x="1190.0997924804688" xlink:href="#SourceSansPro-Regular-73"/>
     <use x="1231.9997863769531" xlink:href="#SourceSansPro-Regular-74"/>
     <use x="1265.7997741699219" xlink:href="#SourceSansPro-Regular-72"/>
     <use x="1300.499771118164" xlink:href="#SourceSansPro-Regular-69"/>
     <use x="1325.0997619628906" xlink:href="#SourceSansPro-Regular-62"/>
     <use x="1380.5997467041016" xlink:href="#SourceSansPro-Regular-75"/>
     <use x="1434.999740600586" xlink:href="#SourceSansPro-Regular-74"/>
     <use x="1468.7997283935547" xlink:href="#SourceSansPro-Regular-69"/>
     <use x="1493.3997192382812" xlink:href="#SourceSansPro-Regular-6f"/>
     <use x="1547.5997161865234" xlink:href="#SourceSansPro-Regular-6e"/>
     <use x="1602.2997131347656" xlink:href="#SourceSansPro-Regular-2c"/>
     <use x="1627.19970703125" xlink:href="#SourceSansPro-Regular-20"/>
     <use x="1647.3997039794922" xlink:href="#SourceSansPro-Regular-4a"/>
     <use x="1695.3996887207031" xlink:href="#SourceSansPro-Regular-61"/>
     <use x="1746.5996856689453" xlink:href="#SourceSansPro-Regular-6e"/>
     <use x="1801.2996826171875" xlink:href="#SourceSansPro-Regular-20"/>
     <use x="1821.4996795654297" xlink:href="#SourceSansPro-Regular-32"/>
     <use x="1871.1996765136719" xlink:href="#SourceSansPro-Regular-30"/>
     <use x="1920.899673461914" xlink:href="#SourceSansPro-Regular-30"/>
     <use x="1970.5996704101562" xlink:href="#SourceSansPro-Regular-39"/>
     <use x="2020.2996673583984" xlink:href="#SourceSansPro-Regular-2013"/>
     <use x="2068.2996520996094" xlink:href="#SourceSansPro-Regular-4f"/>
     <use x="2134.6996459960938" xlink:href="#SourceSansPro-Regular-63"/>
     <use x="2180.2996368408203" xlink:href="#SourceSansPro-Regular-74"/>
     <use x="2214.099624633789" xlink:href="#SourceSansPro-Regular-20"/>
     <use x="2234.2996215820312" xlink:href="#SourceSansPro-Regular-32"/>
     <use x="2283.9996185302734" xlink:href="#SourceSansPro-Regular-30"/>
     <use x="2333.6996154785156" xlink:href="#SourceSansPro-Regular-31"/>
     <use x="2383.399612426758" xlink:href="#SourceSansPro-Regular-36"/>
    </g>
   </g>
   <g id="legend_1">
    <g id="patch_49">
     <path d="M 60.730125 87.1889 
L 251.804625 87.1889 
L 251.804625 41.7839 
L 60.730125 41.7839 
z
" style="fill:#f7f8f9;stroke:#000000;stroke-linejoin:miter;"/>
    </g>
    <g id="patch_50">
     <path d="M 66.490125 57.79715 
L 95.290125 57.79715 
L 95.290125 47.71715 
L 66.490125 47.71715 
z
" style="fill:#afb7bf;stroke:#000000;stroke-linejoin:miter;"/>
    </g>
    <g id="text_23">
     <!-- All dates -->
     <defs>
      <path d="M 17.203125 26.703125 
L 20.296875 36.703125 
C 22.703125 44 24.796875 51.203125 26.796875 58.796875 
L 27.203125 58.796875 
C 29.296875 51.203125 31.40625 44 33.796875 36.703125 
L 36.90625 26.703125 
z
M 45.203125 0 
L 54.09375 0 
L 31.90625 65.59375 
L 22.5 65.59375 
L 0.296875 0 
L 8.796875 0 
L 15.09375 20 
L 39 20 
z
" id="SourceSansPro-Regular-41"/>
     </defs>
     <g transform="translate(106.810125 57.79715)scale(0.144 -0.144)">
      <use xlink:href="#SourceSansPro-Regular-41"/>
      <use x="54.399993896484375" xlink:href="#SourceSansPro-Regular-6c"/>
      <use x="79.89997863769531" xlink:href="#SourceSansPro-Regular-6c"/>
      <use x="105.39996337890625" xlink:href="#SourceSansPro-Regular-20"/>
      <use x="125.59996032714844" xlink:href="#SourceSansPro-Regular-64"/>
      <use x="181.09994506835938" xlink:href="#SourceSansPro-Regular-61"/>
      <use x="232.29994201660156" xlink:href="#SourceSansPro-Regular-74"/>
      <use x="266.0999298095703" xlink:href="#SourceSansPro-Regular-65"/>
      <use x="315.6999206542969" xlink:href="#SourceSansPro-Regular-73"/>
     </g>
    </g>
    <g id="patch_51">
     <path d="M 66.490125 78.2024 
L 95.290125 78.2024 
L 95.290125 68.1224 
L 66.490125 68.1224 
z
" style="fill:#bd3338;stroke:#000000;stroke-linejoin:miter;stroke-width:0.5;"/>
    </g>
    <g id="text_24">
     <!-- Would meet date again -->
     <defs>
      <path d="M 16.203125 0 
L 26.09375 0 
L 35.796875 39.5 
C 36.90625 44.59375 38.09375 49.296875 39.09375 54.40625 
L 39.5 54.40625 
C 40.5 49.296875 41.5 44.59375 42.703125 39.5 
L 52.59375 0 
L 62.59375 0 
L 76.203125 65.59375 
L 68.203125 65.59375 
L 61.296875 29.90625 
C 60 22.90625 58.796875 15.796875 57.59375 8.703125 
L 57.203125 8.703125 
C 55.59375 15.796875 54 23 52.40625 29.90625 
L 43.296875 65.59375 
L 35.703125 65.59375 
L 26.59375 29.90625 
C 25.09375 22.90625 23.5 15.796875 22 8.703125 
L 21.59375 8.703125 
C 20.40625 15.796875 19 22.796875 17.796875 29.90625 
L 10.90625 65.59375 
L 2.296875 65.59375 
z
" id="SourceSansPro-Regular-57"/>
      <path d="M 11.703125 -8.203125 
C 11.703125 -5.40625 13.203125 -2.5 16.703125 0 
C 18.796875 -0.59375 21.09375 -0.796875 23 -0.796875 
L 31.40625 -0.796875 
C 37.703125 -0.796875 41.203125 -2.296875 41.203125 -6.796875 
C 41.203125 -11.90625 35.09375 -16.703125 25.796875 -16.703125 
C 17 -16.703125 11.703125 -13.40625 11.703125 -8.203125 
M 4.5 -9.296875 
C 4.5 -17.703125 12.703125 -22.40625 24.59375 -22.40625 
C 39.703125 -22.40625 49.203125 -14.59375 49.203125 -5.59375 
C 49.203125 2.5 43.5 6 32.203125 6 
L 22.796875 6 
C 16.203125 6 14.203125 8.203125 14.203125 11.296875 
C 14.203125 14 15.59375 15.59375 17.296875 17.09375 
C 19.5 16 22.203125 15.40625 24.59375 15.40625 
C 34.5 15.40625 42.40625 21.90625 42.40625 32.296875 
C 42.40625 36.40625 40.703125 40.09375 38.40625 42.296875 
L 48.40625 42.296875 
L 48.40625 48.59375 
L 31.5 48.59375 
C 29.703125 49.296875 27.296875 49.796875 24.59375 49.796875 
C 14.703125 49.796875 6.296875 43.09375 6.296875 32.5 
C 6.296875 26.703125 9.40625 22 12.59375 19.40625 
L 12.59375 19 
C 10.09375 17.296875 7.296875 14.09375 7.296875 10 
C 7.296875 6.203125 9.203125 3.59375 11.59375 2.09375 
L 11.59375 1.703125 
C 7.203125 -1.296875 4.5 -5.203125 4.5 -9.296875 
M 24.59375 20.90625 
C 19 20.90625 14.296875 25.40625 14.296875 32.5 
C 14.296875 39.59375 18.90625 43.796875 24.59375 43.796875 
C 30.296875 43.796875 34.90625 39.59375 34.90625 32.5 
C 34.90625 25.40625 30.203125 20.90625 24.59375 20.90625 
" id="SourceSansPro-Regular-67"/>
      <path d="M 8.203125 0 
L 16.40625 0 
L 16.40625 35.203125 
C 20.90625 40.203125 25 42.703125 28.59375 42.703125 
C 34.796875 42.703125 37.703125 38.796875 37.703125 29.703125 
L 37.703125 0 
L 45.90625 0 
L 45.90625 35.203125 
C 50.40625 40.203125 54.296875 42.703125 58.09375 42.703125 
C 64.203125 42.703125 67.09375 38.796875 67.09375 29.703125 
L 67.09375 0 
L 75.296875 0 
L 75.296875 30.796875 
C 75.296875 43.203125 70.5 49.796875 60.5 49.796875 
C 54.59375 49.796875 49.59375 46 44.5 40.5 
C 42.5 46.296875 38.5 49.796875 31.09375 49.796875 
C 25.296875 49.796875 20.203125 46.203125 16 41.59375 
L 15.703125 41.59375 
L 15 48.59375 
L 8.203125 48.59375 
z
" id="SourceSansPro-Regular-6d"/>
     </defs>
     <g transform="translate(106.810125 78.2024)scale(0.144 -0.144)">
      <use xlink:href="#SourceSansPro-Regular-57"/>
      <use x="78.59999084472656" xlink:href="#SourceSansPro-Regular-6f"/>
      <use x="132.79998779296875" xlink:href="#SourceSansPro-Regular-75"/>
      <use x="187.19998168945312" xlink:href="#SourceSansPro-Regular-6c"/>
      <use x="212.69996643066406" xlink:href="#SourceSansPro-Regular-64"/>
      <use x="268.199951171875" xlink:href="#SourceSansPro-Regular-20"/>
      <use x="288.3999481201172" xlink:href="#SourceSansPro-Regular-6d"/>
      <use x="371.29994201660156" xlink:href="#SourceSansPro-Regular-65"/>
      <use x="420.8999328613281" xlink:href="#SourceSansPro-Regular-65"/>
      <use x="470.4999237060547" xlink:href="#SourceSansPro-Regular-74"/>
      <use x="504.29991149902344" xlink:href="#SourceSansPro-Regular-20"/>
      <use x="524.4999084472656" xlink:href="#SourceSansPro-Regular-64"/>
      <use x="579.9998931884766" xlink:href="#SourceSansPro-Regular-61"/>
      <use x="631.1998901367188" xlink:href="#SourceSansPro-Regular-74"/>
      <use x="664.9998779296875" xlink:href="#SourceSansPro-Regular-65"/>
      <use x="714.5998687744141" xlink:href="#SourceSansPro-Regular-20"/>
      <use x="734.7998657226562" xlink:href="#SourceSansPro-Regular-61"/>
      <use x="785.9998626708984" xlink:href="#SourceSansPro-Regular-67"/>
      <use x="836.3998565673828" xlink:href="#SourceSansPro-Regular-61"/>
      <use x="887.599853515625" xlink:href="#SourceSansPro-Regular-69"/>
      <use x="912.1998443603516" xlink:href="#SourceSansPro-Regular-6e"/>
     </g>
    </g>
   </g>
  </g>
 </g>
 <defs>
  <clipPath id="p15f504cb8e">
   <rect height="403.2" width="558.0" x="53.530125" y="34.5839"/>
  </clipPath>
 </defs>
</svg>
