<svg height="488" viewBox="0 0 730 366" width="730pt" xmlns="http://www.w3.org/2000/svg" xmlns:xlink="http://www.w3.org/1999/xlink"><defs><style>*{stroke-linecap:butt;stroke-linejoin:round;stroke-miterlimit:100000}</style></defs><g id="figure_1"><path d="M0 366.35h730.44V0H0v366.35z" fill="none" id="patch_1"/><g id="axes_1"><path d="M53.64 319.7h669.6v-288H53.64v288z" fill="none" id="patch_2"/><g id="matplotlib.axis_1"><g id="xtick_1"><g id="text_1"><defs><path d="M2.5 7.5c4.4-4.4 10.7-8.7 20.9-8.7 11.1 0 21.5 7.8 21.5 21.6s-8.9 20-19.8 20c-3.9 0-6.8-1-9.8-2.6L17 56.7h24.7v7.1H9.8L7.7 33.1l4.4-2.8c3.8 2.5 6.5 3.9 10.9 3.9 8.2 0 13.6-5.2 13.6-14 0-8.9-6.2-14.6-14-14.6-7.5 0-12.3 3.5-16.1 7.3z" id="SourceSansPro-Regular-35"/></defs><use xlink:href="#SourceSansPro-Regular-35" transform="matrix(.12 0 0 -.12 67.4 338.25)"/></g></g><g id="xtick_2"><g id="text_2"><defs><path d="M26.8 5.3c-8.1 0-13 6.7-14 19.1 4.3 6 9.3 8.4 13.3 8.4 7.9 0 11.8-5.2 11.8-13.5 0-8.4-4.8-14-11.1-14m17.7 52.9C40.9 62.1 36 65 29.1 65 16.4 65 4.8 55.1 4.8 29.5c0-20.5 9.5-30.7 22-30.7 10.3 0 18.9 8.3 18.9 20.5 0 13.1-7.2 19.7-18.2 19.7-5.2 0-10.9-3.1-14.9-8 .4 20.2 7.9 27.1 16.8 27.1 4 0 7.9-1.9 10.5-5z" id="SourceSansPro-Regular-36"/></defs><use xlink:href="#SourceSansPro-Regular-36" transform="matrix(.12 0 0 -.12 100.88 338.25)"/></g></g><g id="xtick_3"><g id="text_3"><defs><path d="M17.7 0h8.5c1.1 24.9 4.2 39.4 19.3 58.7v5.1H4.4v-7.1h31.8C23.6 39.2 18.8 24 17.7 0" id="SourceSansPro-Regular-37"/></defs><use xlink:href="#SourceSansPro-Regular-37" transform="matrix(.12 0 0 -.12 134.36 338.25)"/></g></g><g id="xtick_4"><g id="text_4"><defs><path d="M11.5 17.1c0 5.8 3.8 10.5 8.9 13.9 9.2-3.7 17.3-6.7 17.3-14.9 0-6.6-5.1-11.2-12.5-11.2-7.8 0-13.7 5.1-13.7 12.2m18 17.7c-7.7 3-14.7 6.2-14.7 13.8 0 6.2 4.4 10.3 10.3 10.3 7 0 11.1-5 11.1-11.3 0-4.7-2.4-9-6.7-12.8M4.1 16.3C4.1 6.2 13-1.2 25-1.2c12.4 0 20.6 7.5 20.6 17 0 8.6-5.4 13.1-11.1 16.4v.4c3.9 3 8.8 8.7 8.8 15.4 0 9.9-6.9 17-18 17C15 65 7.2 58.4 7.2 48.6c0-6.7 4.2-11.4 8.9-14.7v-.4c-6-3.2-12-8.9-12-17.2" id="SourceSansPro-Regular-38"/></defs><use xlink:href="#SourceSansPro-Regular-38" transform="matrix(.12 0 0 -.12 167.84 338.25)"/></g></g><g id="xtick_5"><g id="text_5"><defs><path d="M23.5 31c-7.9 0-11.8 5.2-11.8 13.5 0 8.4 4.9 14 11.1 14 8.1 0 13-6.6 14.1-19-4.3-6.1-9.3-8.5-13.4-8.5M5.1 5.5c3.5-3.8 8.6-6.7 15.4-6.7 12.7 0 24.3 9.9 24.3 35.5 0 20.5-9.4 30.7-22 30.7C12.6 65 4 56.7 4 44.5c0-13.1 7.1-19.7 18.1-19.7 5.3 0 11 3.1 15 8.2-.3-20.4-7.9-27.4-16.9-27.4-4 0-7.9 2-10.5 5.1z" id="SourceSansPro-Regular-39"/></defs><use xlink:href="#SourceSansPro-Regular-39" transform="matrix(.12 0 0 -.12 201.32 338.25)"/></g></g><g id="xtick_6"><g id="text_6"><defs><path d="M24.9-1.2c12.7 0 20.4 11.9 20.4 33.3S37.6 65 24.9 65C12.1 65 4.4 53.5 4.4 32.1S12.1-1.2 24.9-1.2m0 6.6c-7.5 0-12.5 8-12.5 26.7s5 26.3 12.5 26.3c7.4 0 12.4-7.6 12.4-26.3 0-18.7-5-26.7-12.4-26.7" id="SourceSansPro-Regular-30"/><path d="M7.9 0h36v6.8H30.7v57h-6.3c-3.5-2.1-7.7-3.7-13.5-4.7v-5.3h11.6v-47H7.9z" id="SourceSansPro-Regular-31"/></defs><g transform="matrix(.12 0 0 -.12 231.82 338.25)"><use xlink:href="#SourceSansPro-Regular-31"/><use x="49.7" xlink:href="#SourceSansPro-Regular-30"/></g></g></g><g id="xtick_7"><g transform="matrix(.12 0 0 -.12 265.3 338.25)" id="text_7"><use xlink:href="#SourceSansPro-Regular-31"/><use x="49.7" xlink:href="#SourceSansPro-Regular-31"/></g></g><g id="xtick_8"><g id="text_8"><defs><path d="M4 0h41.2v7.1H26.7c-3.3 0-7.2-.3-10.7-.6 15.1 15.8 26 27.7 26 39.7C42 57.5 34.7 65 22.9 65c-8.3 0-14-3.9-19.3-9.7l4.7-4.7c3.7 4.3 8.3 7.7 13.6 7.7C30 58.3 34 53.1 34 45.8 34 35.5 23.2 24 4 4.9z" id="SourceSansPro-Regular-32"/></defs><g transform="matrix(.12 0 0 -.12 298.78 338.25)"><use xlink:href="#SourceSansPro-Regular-31"/><use x="49.7" xlink:href="#SourceSansPro-Regular-32"/></g></g></g><g id="xtick_9"><g id="text_9"><defs><path d="M2.6 7.8c4.3-4.7 10.8-9 21-9 11.7 0 21 6.9 21 18.2 0 8.8-6.1 14.4-13.8 16.2v.4c6.9 2.6 11.6 7.5 11.6 15.2 0 10.3-8 16.2-19.1 16.2-7.5 0-13.4-3.4-18.3-8l4.4-5.2c3.8 3.8 8.3 6.5 13.6 6.5 6.8 0 11-3.9 11-10.1 0-6.7-4.5-11.9-18.1-11.9V30c15.2 0 20.4-5.1 20.4-12.7 0-7.1-5.5-11.7-13.2-11.7-7.5 0-12.5 3.6-16.3 7.6z" id="SourceSansPro-Regular-33"/></defs><g transform="matrix(.12 0 0 -.12 332.26 338.25)"><use xlink:href="#SourceSansPro-Regular-31"/><use x="49.7" xlink:href="#SourceSansPro-Regular-33"/></g></g></g><g id="xtick_10"><g id="text_10"><defs><path d="M10.4 24.2L25.3 46c1.8 3.1 3.6 5.9 5.2 9h.4c-.2-3.4-.5-8.9-.5-12.3V24.2zm36.5 0h-8.7v39.6H29L1.7 23v-5.4h28.7V0h7.8v17.6h8.7z" id="SourceSansPro-Regular-34"/></defs><g transform="matrix(.12 0 0 -.12 365.74 338.25)"><use xlink:href="#SourceSansPro-Regular-31"/><use x="49.7" xlink:href="#SourceSansPro-Regular-34"/></g></g></g><g id="xtick_11"><g transform="matrix(.12 0 0 -.12 399.22 338.25)" id="text_11"><use xlink:href="#SourceSansPro-Regular-31"/><use x="49.7" xlink:href="#SourceSansPro-Regular-35"/></g></g><g id="xtick_12"><g transform="matrix(.12 0 0 -.12 432.7 338.25)" id="text_12"><use xlink:href="#SourceSansPro-Regular-31"/><use x="49.7" xlink:href="#SourceSansPro-Regular-36"/></g></g><g id="xtick_13"><g transform="matrix(.12 0 0 -.12 466.18 338.25)" id="text_13"><use xlink:href="#SourceSansPro-Regular-31"/><use x="49.7" xlink:href="#SourceSansPro-Regular-37"/></g></g><g id="xtick_14"><g transform="matrix(.12 0 0 -.12 499.66 338.25)" id="text_14"><use xlink:href="#SourceSansPro-Regular-31"/><use x="49.7" xlink:href="#SourceSansPro-Regular-38"/></g></g><g id="xtick_15"><g transform="matrix(.12 0 0 -.12 533.14 338.25)" id="text_15"><use xlink:href="#SourceSansPro-Regular-31"/><use x="49.7" xlink:href="#SourceSansPro-Regular-39"/></g></g><g id="xtick_16"><g transform="matrix(.12 0 0 -.12 566.62 338.25)" id="text_16"><use xlink:href="#SourceSansPro-Regular-32"/><use x="49.7" xlink:href="#SourceSansPro-Regular-30"/></g></g><g id="xtick_17"><g transform="matrix(.12 0 0 -.12 600.1 338.25)" id="text_17"><use xlink:href="#SourceSansPro-Regular-32"/><use x="49.7" xlink:href="#SourceSansPro-Regular-31"/></g></g><g id="xtick_18"><g transform="matrix(.12 0 0 -.12 633.58 338.25)" id="text_18"><use xlink:href="#SourceSansPro-Regular-32"/><use x="49.7" xlink:href="#SourceSansPro-Regular-32"/></g></g><g id="xtick_19"><g transform="matrix(.12 0 0 -.12 667.06 338.25)" id="text_19"><use xlink:href="#SourceSansPro-Regular-32"/><use x="49.7" xlink:href="#SourceSansPro-Regular-33"/></g></g><g id="xtick_20"><use xlink:href="#SourceSansPro-Regular-30" transform="matrix(.12 0 0 -.12 703.52 338.25)" id="text_20"/></g><g id="text_21"><defs><path d="M4.9-13.4l-1.6-6.5c1.6-.6 3.5-1 5.7-1 9.8 0 14.8 7.3 18.2 16.9l18.3 52.6h-8l-8.7-26.9c-1.3-4.3-2.7-9.3-4.1-13.7h-.4c-1.5 4.5-3.2 9.5-4.7 13.7L9.7 48.6H1.2L20.7-.1l-1.1-3.6c-2-6-5.5-10.4-11-10.4-1.2 0-2.7.4-3.7.7" id="SourceSansPro-Regular-79"/><path d="M9 0h8.3v30.9h30.5V0h8.4v65.6h-8.4V38.1H17.3v27.5H9z" id="SourceSansPro-Regular-48"/><path d="M7.5 17.8c0-12.4 4.6-19 14.9-19 6.7 0 11.5 3.5 16 8.8h.3l.7-7.6h6.8v48.6H38V14.1c-4.6-5.7-8.1-8.2-13.1-8.2-6.4 0-9.1 3.9-9.1 13v29.7H7.5z" id="SourceSansPro-Regular-75"/><path d="M5.8 12.6c0-8.7 6.1-13.8 14.3-13.8 6 0 11.4 3.2 16.1 7h.2l.7-5.8h6.8v29.8c0 12.1-5 20-16.9 20-7.8 0-14.6-3.4-19.1-6.3l3.3-5.7C15 40.4 20 43 25.7 43c7.9 0 10-6 10-12.2C15 28.5 5.8 23.2 5.8 12.6m8.1.6c0 6.2 5.5 10.2 21.8 12.2V11.9C31 7.7 27.1 5.4 22.4 5.4c-4.8 0-8.5 2.3-8.5 7.8" id="SourceSansPro-Regular-61"/><path d="M4.7 24.2C4.7 8 12.6-1.2 24.8-1.2c5.7 0 10.9 3.2 14.7 6.9h.3l.7-5.7h6.8v71.2H39V52.5l.4-8.3c-4.3 3.5-8 5.6-13.6 5.6-11.1 0-21.1-9.8-21.1-25.6m8.5.1c0 11.1 6.2 18.6 14 18.6 4 0 7.7-1.4 11.8-5.1V12.4c-4-4.5-7.9-6.7-12.4-6.7-8.5 0-13.4 7-13.4 18.6" id="SourceSansPro-Regular-64"/><path d="M4.6 24.2C4.6 8.1 15.2-1.2 27.1-1.2s22.5 9.3 22.5 25.4c0 16.3-10.6 25.6-22.5 25.6S4.6 40.5 4.6 24.2m8.5 0c0 11.2 5.7 18.8 14 18.8 8.4 0 14-7.6 14-18.8 0-11.1-5.6-18.6-14-18.6-8.3 0-14 7.5-14 18.6" id="SourceSansPro-Regular-6f"/><path d="M8.2 0h8.2v31.2c3.3 8.2 8.2 11.2 12.3 11.2 2 0 3.1-.3 4.7-.8l1.6 7.2a12 12 0 0 1-5.2 1c-5.5 0-10.5-3.9-13.8-10h-.3l-.7 8.8H8.2z" id="SourceSansPro-Regular-72"/><path d="M31.9 70.8c-2.2.9-5.1 1.6-8.1 1.6-9.7 0-14.2-6.2-14.2-16.1v-7.7L3 48.1v-6.2h6.6V0h8.2v41.9h10.3v6.7H17.8v7.7c0 6.2 2.2 9.4 6.8 9.4 1.8 0 3.7-.4 5.5-1.2z" id="SourceSansPro-Regular-66"/></defs><g transform="matrix(.144 0 0 -.144 353.47 356.13)"><use xlink:href="#SourceSansPro-Regular-48"/><use x="65.2" xlink:href="#SourceSansPro-Regular-6f"/><use x="119.4" xlink:href="#SourceSansPro-Regular-75"/><use x="173.8" xlink:href="#SourceSansPro-Regular-72"/><use x="208.5" xlink:href="#SourceSansPro-Regular-20"/><use x="228.7" xlink:href="#SourceSansPro-Regular-6f"/><use x="282.9" xlink:href="#SourceSansPro-Regular-66"/><use x="312.1" xlink:href="#SourceSansPro-Regular-20"/><use x="332.3" xlink:href="#SourceSansPro-Regular-64"/><use x="387.8" xlink:href="#SourceSansPro-Regular-61"/><use x="439" xlink:href="#SourceSansPro-Regular-79"/></g></g></g><g id="matplotlib.axis_2"><g id="ytick_1"><path clip-path="url(#p6ec2de5265)" d="M53.64 319.7h669.6" fill="none" stroke="#8fa7bf" stroke-linecap="square" stroke-width=".5" id="line2d_1"/><g id="line2d_2"><defs><path d="M0 0h6" id="m7deddbb32f" stroke="#000" stroke-width=".5"/></defs><use x="53.64" xlink:href="#m7deddbb32f" y="319.7" stroke="#000" stroke-width=".5"/></g><use xlink:href="#SourceSansPro-Regular-30" transform="matrix(.12 0 0 -.12 37.68 322.75)" id="text_22"/></g><g id="ytick_2"><path clip-path="url(#p6ec2de5265)" d="M53.64 287.7h669.6" fill="none" stroke="#8fa7bf" stroke-linecap="square" stroke-width=".5" id="line2d_3"/><use x="53.64" xlink:href="#m7deddbb32f" y="287.7" stroke="#000" stroke-width=".5" id="line2d_4"/><g transform="matrix(.12 0 0 -.12 31.72 290.75)" id="text_23"><use xlink:href="#SourceSansPro-Regular-32"/><use x="49.7" xlink:href="#SourceSansPro-Regular-30"/></g></g><g id="ytick_3"><path clip-path="url(#p6ec2de5265)" d="M53.64 255.7h669.6" fill="none" stroke="#8fa7bf" stroke-linecap="square" stroke-width=".5" id="line2d_5"/><use x="53.64" xlink:href="#m7deddbb32f" y="255.7" stroke="#000" stroke-width=".5" id="line2d_6"/><g transform="matrix(.12 0 0 -.12 31.72 258.75)" id="text_24"><use xlink:href="#SourceSansPro-Regular-34"/><use x="49.7" xlink:href="#SourceSansPro-Regular-30"/></g></g><g id="ytick_4"><path clip-path="url(#p6ec2de5265)" d="M53.64 223.7h669.6" fill="none" stroke="#8fa7bf" stroke-linecap="square" stroke-width=".5" id="line2d_7"/><use x="53.64" xlink:href="#m7deddbb32f" y="223.7" stroke="#000" stroke-width=".5" id="line2d_8"/><g transform="matrix(.12 0 0 -.12 31.72 226.75)" id="text_25"><use xlink:href="#SourceSansPro-Regular-36"/><use x="49.7" xlink:href="#SourceSansPro-Regular-30"/></g></g><g id="ytick_5"><path clip-path="url(#p6ec2de5265)" d="M53.64 191.7h669.6" fill="none" stroke="#8fa7bf" stroke-linecap="square" stroke-width=".5" id="line2d_9"/><use x="53.64" xlink:href="#m7deddbb32f" y="191.7" stroke="#000" stroke-width=".5" id="line2d_10"/><g transform="matrix(.12 0 0 -.12 31.72 194.75)" id="text_26"><use xlink:href="#SourceSansPro-Regular-38"/><use x="49.7" xlink:href="#SourceSansPro-Regular-30"/></g></g><g id="ytick_6"><path clip-path="url(#p6ec2de5265)" d="M53.64 159.7h669.6" fill="none" stroke="#8fa7bf" stroke-linecap="square" stroke-width=".5" id="line2d_11"/><use x="53.64" xlink:href="#m7deddbb32f" y="159.7" stroke="#000" stroke-width=".5" id="line2d_12"/><g transform="matrix(.12 0 0 -.12 25.75 162.75)" id="text_27"><use xlink:href="#SourceSansPro-Regular-31"/><use x="49.7" xlink:href="#SourceSansPro-Regular-30"/><use x="99.4" xlink:href="#SourceSansPro-Regular-30"/></g></g><g id="ytick_7"><path clip-path="url(#p6ec2de5265)" d="M53.64 127.7h669.6" fill="none" stroke="#8fa7bf" stroke-linecap="square" stroke-width=".5" id="line2d_13"/><use x="53.64" xlink:href="#m7deddbb32f" y="127.7" stroke="#000" stroke-width=".5" id="line2d_14"/><g transform="matrix(.12 0 0 -.12 25.75 130.75)" id="text_28"><use xlink:href="#SourceSansPro-Regular-31"/><use x="49.7" xlink:href="#SourceSansPro-Regular-32"/><use x="99.4" xlink:href="#SourceSansPro-Regular-30"/></g></g><g id="ytick_8"><path clip-path="url(#p6ec2de5265)" d="M53.64 95.7h669.6" fill="none" stroke="#8fa7bf" stroke-linecap="square" stroke-width=".5" id="line2d_15"/><use x="53.64" xlink:href="#m7deddbb32f" y="95.7" stroke="#000" stroke-width=".5" id="line2d_16"/><g transform="matrix(.12 0 0 -.12 25.75 98.75)" id="text_29"><use xlink:href="#SourceSansPro-Regular-31"/><use x="49.7" xlink:href="#SourceSansPro-Regular-34"/><use x="99.4" xlink:href="#SourceSansPro-Regular-30"/></g></g><g id="ytick_9"><path clip-path="url(#p6ec2de5265)" d="M53.64 63.7h669.6" fill="none" stroke="#8fa7bf" stroke-linecap="square" stroke-width=".5" id="line2d_17"/><use x="53.64" xlink:href="#m7deddbb32f" y="63.7" stroke="#000" stroke-width=".5" id="line2d_18"/><g transform="matrix(.12 0 0 -.12 25.75 66.75)" id="text_30"><use xlink:href="#SourceSansPro-Regular-31"/><use x="49.7" xlink:href="#SourceSansPro-Regular-36"/><use x="99.4" xlink:href="#SourceSansPro-Regular-30"/></g></g><g id="ytick_10"><path clip-path="url(#p6ec2de5265)" d="M53.64 31.7h669.6" fill="none" stroke="#8fa7bf" stroke-linecap="square" stroke-width=".5" id="line2d_19"/><use x="53.64" xlink:href="#m7deddbb32f" y="31.7" stroke="#000" stroke-width=".5" id="line2d_20"/><g transform="matrix(.12 0 0 -.12 25.75 34.75)" id="text_31"><use xlink:href="#SourceSansPro-Regular-31"/><use x="49.7" xlink:href="#SourceSansPro-Regular-38"/><use x="99.4" xlink:href="#SourceSansPro-Regular-30"/></g></g><g id="text_32"><defs><path d="M8.2 0h8.2v35.2c4.5 5 8.6 7.5 12.2 7.5 6.2 0 9.1-3.9 9.1-13V0h8.2v35.2c4.5 5 8.4 7.5 12.2 7.5 6.1 0 9-3.9 9-13V0h8.2v30.8c0 12.4-4.8 19-14.8 19-5.9 0-10.9-3.8-16-9.3-2 5.8-6 9.3-13.4 9.3-5.8 0-10.9-3.6-15.1-8.2h-.3l-.7 7H8.2z" id="SourceSansPro-Regular-6d"/><path d="M8.2 0h6.6l.7 4.8h.3c4.3-3.8 9.4-6 13.9-6 11.1 0 21 9.7 21 26.3 0 15-6.7 24.7-19.3 24.7-5.4 0-10.8-2.9-15.2-6.8l.2 8.8v19.4H8.2zm8.2 10.8v25.5c4.6 4.3 8.9 6.6 13 6.6 9.2 0 12.8-7.2 12.8-17.9 0-12-5.9-19.3-13.9-19.3-3.2 0-7.6 1.4-11.9 5.1" id="SourceSansPro-Regular-62"/><path d="M2.8 5.5C7.4 1.7 14-1.2 20.9-1.2c11.5 0 17.8 6.6 17.8 14.5 0 9.2-7.8 12.1-14.8 14.7-5.5 2.1-10.8 3.8-10.8 8.4 0 3.7 2.8 7 8.9 7 4.3 0 7.8-1.8 11.1-4.3l3.9 5.2c-3.7 3-9 5.5-15.1 5.5-10.5 0-16.7-6-16.7-13.8 0-8.2 7.6-11.5 14.5-14 5.3-2 11.1-4.2 11.1-9.2 0-4.2-3.2-7.6-9.6-7.6-5.8 0-10.1 2.4-14.3 5.8z" id="SourceSansPro-Regular-73"/><path d="M8.2 0h8.2v35.2c4.9 4.9 8.3 7.5 13.3 7.5 6.4 0 9.2-3.9 9.2-13V0h8.2v30.8c0 12.4-4.6 19-14.8 19-6.7 0-11.7-3.6-16.3-8.2h-.3l-.7 7H8.2z" id="SourceSansPro-Regular-6e"/><path d="M9 0h7.9v34.3c0 6.9-.6 13.9-1.1 20.5h.4l7.1-13.5L47.1 0h8.6v65.6h-7.9V31.7c0-6.9.6-14.3 1-20.9h-.4l-7.1 13.6-23.7 41.2H9z" id="SourceSansPro-Regular-4e"/><path d="M4.6 24.2C4.6 8.3 14.9-1.2 27.9-1.2c6.6 0 11.8 2.3 16 5L41 9.2c-3.6-2.3-7.5-3.8-12.1-3.8-9.3 0-15.6 6.6-16.2 17.1h32.8c.2 1.2.3 2.8.3 4.5 0 13.9-7 22.8-19.4 22.8-11.1 0-21.8-9.7-21.8-25.6m8 3.7c1 9.8 7.2 15.4 14 15.4 7.6 0 12-5.5 12-15.4z" id="SourceSansPro-Regular-65"/><path d="M8.3-5.5c0-5.9-1.2-9.5-6-9.5-1.7 0-3.4.4-4.6.8L-4-20.4c1.7-.7 4.2-1.3 7.2-1.3 9.7 0 13.3 6.3 13.3 16.2v54.1H8.3zm4.2 64.1c3.1 0 5.6 2.2 5.6 5.3 0 3.2-2.5 5.3-5.6 5.3-3.2 0-5.7-2.1-5.7-5.3 0-3.1 2.5-5.3 5.7-5.3" id="SourceSansPro-Regular-6a"/></defs><g transform="matrix(0 -.144 -.144 0 17.63 235.22)"><use xlink:href="#SourceSansPro-Regular-4e"/><use x="64.7" xlink:href="#SourceSansPro-Regular-75"/><use x="119.1" xlink:href="#SourceSansPro-Regular-6d"/><use x="202" xlink:href="#SourceSansPro-Regular-62"/><use x="257.5" xlink:href="#SourceSansPro-Regular-65"/><use x="307.1" xlink:href="#SourceSansPro-Regular-72"/><use x="341.8" xlink:href="#SourceSansPro-Regular-20"/><use x="362" xlink:href="#SourceSansPro-Regular-6f"/><use x="416.2" xlink:href="#SourceSansPro-Regular-66"/><use x="445.4" xlink:href="#SourceSansPro-Regular-20"/><use x="465.6" xlink:href="#SourceSansPro-Regular-6a"/><use x="490.3" xlink:href="#SourceSansPro-Regular-6f"/><use x="544.5" xlink:href="#SourceSansPro-Regular-75"/><use x="598.9" xlink:href="#SourceSansPro-Regular-72"/><use x="633.6" xlink:href="#SourceSansPro-Regular-6e"/><use x="688.3" xlink:href="#SourceSansPro-Regular-65"/><use x="737.9" xlink:href="#SourceSansPro-Regular-79"/><use x="784.6" xlink:href="#SourceSansPro-Regular-73"/></g></g></g><path clip-path="url(#p6ec2de5265)" d="M53.64 319.7h33.48-33.48z" fill="#1369bf" stroke="#000" stroke-width=".5" id="patch_3"/><path clip-path="url(#p6ec2de5265)" d="M87.12 319.7h33.48v-1.6H87.12z" fill="#1369bf" stroke="#000" stroke-width=".5" id="patch_4"/><path clip-path="url(#p6ec2de5265)" d="M120.6 319.7h33.48v-3.2H120.6z" fill="#1369bf" stroke="#000" stroke-width=".5" id="patch_5"/><path clip-path="url(#p6ec2de5265)" d="M154.08 319.7h33.48v-12.8h-33.48z" fill="#1369bf" stroke="#000" stroke-width=".5" id="patch_6"/><path clip-path="url(#p6ec2de5265)" d="M187.56 319.7h33.48v-54.4h-33.48z" fill="#1369bf" stroke="#000" stroke-width=".5" id="patch_7"/><path clip-path="url(#p6ec2de5265)" d="M221.04 319.7h33.48V54.1h-33.48z" fill="#1369bf" stroke="#000" stroke-width=".5" id="patch_8"/><path clip-path="url(#p6ec2de5265)" d="M254.52 319.7H288V89.3h-33.48z" fill="#1369bf" stroke="#000" stroke-width=".5" id="patch_9"/><path clip-path="url(#p6ec2de5265)" d="M288 319.7h33.48v-56H288z" fill="#1369bf" stroke="#000" stroke-width=".5" id="patch_10"/><path clip-path="url(#p6ec2de5265)" d="M321.48 319.7h33.48v-33.6h-33.48z" fill="#1369bf" stroke="#000" stroke-width=".5" id="patch_11"/><path clip-path="url(#p6ec2de5265)" d="M354.96 319.7h33.48v-32h-33.48z" fill="#1369bf" stroke="#000" stroke-width=".5" id="patch_12"/><path clip-path="url(#p6ec2de5265)" d="M388.44 319.7h33.48v-24h-33.48z" fill="#1369bf" stroke="#000" stroke-width=".5" id="patch_13"/><path clip-path="url(#p6ec2de5265)" d="M421.92 319.7h33.48v-32h-33.48z" fill="#1369bf" stroke="#000" stroke-width=".5" id="patch_14"/><path clip-path="url(#p6ec2de5265)" d="M455.4 319.7h33.48v-32H455.4z" fill="#1369bf" stroke="#000" stroke-width=".5" id="patch_15"/><path clip-path="url(#p6ec2de5265)" d="M488.88 319.7h33.48v-36.8h-33.48z" fill="#1369bf" stroke="#000" stroke-width=".5" id="patch_16"/><path clip-path="url(#p6ec2de5265)" d="M522.36 319.7h33.48v-272h-33.48z" fill="#1369bf" stroke="#000" stroke-width=".5" id="patch_17"/><path clip-path="url(#p6ec2de5265)" d="M555.84 319.7h33.48V177.3h-33.48z" fill="#1369bf" stroke="#000" stroke-width=".5" id="patch_18"/><path clip-path="url(#p6ec2de5265)" d="M589.32 319.7h33.48v-70.4h-33.48z" fill="#1369bf" stroke="#000" stroke-width=".5" id="patch_19"/><path clip-path="url(#p6ec2de5265)" d="M622.8 319.7h33.48v-89.6H622.8z" fill="#1369bf" stroke="#000" stroke-width=".5" id="patch_20"/><path clip-path="url(#p6ec2de5265)" d="M656.28 319.7h33.48v-73.6h-33.48z" fill="#1369bf" stroke="#000" stroke-width=".5" id="patch_21"/><path clip-path="url(#p6ec2de5265)" d="M689.76 319.7h33.48v-8h-33.48z" fill="#1369bf" stroke="#000" stroke-width=".5" id="patch_22"/><path d="M53.64 319.7v-288" fill="none" stroke="#000" stroke-linecap="square" id="patch_23"/><path d="M53.64 319.7h669.6" fill="none" stroke="#000" stroke-linecap="square" id="patch_24"/><g id="text_33"><defs><path d="M3.1 9.3C6.9 2.4 12.9-1.2 21.2-1.2 34-1.2 39.3 8 39.3 19.3v46.3h-8.4V20.1c0-10-3.5-14-10.5-14-4.7 0-8.4 2.2-11.3 7.4z" id="SourceSansPro-Regular-4a"/><path d="M8.2 0h8.2v35.2c4.9 4.9 8.3 7.5 13.3 7.5 6.4 0 9.2-3.9 9.2-13V0h8.2v30.8c0 12.4-4.6 19-14.8 19-6.7 0-11.6-3.6-16.2-8l.3 10v19.4H8.2z" id="SourceSansPro-Regular-68"/><path d="M9.6 15c0-9.6 3.5-16.2 13.9-16.2 3 0 6.3.9 9 1.8l-1.6 6.2c-1.6-.6-3.8-1.3-5.5-1.3-5.6 0-7.5 3.4-7.5 9.4v27H31v6.7H17.9v13.6H11l-1-13.6-7.6-.5v-6.2h7.2z" id="SourceSansPro-Regular-74"/></defs><g transform="matrix(.1728 0 0 -.1728 298.14 19.5)"><use xlink:href="#SourceSansPro-Regular-4a"/><use x="48" xlink:href="#SourceSansPro-Regular-6f"/><use x="102.2" xlink:href="#SourceSansPro-Regular-75"/><use x="156.6" xlink:href="#SourceSansPro-Regular-72"/><use x="191.3" xlink:href="#SourceSansPro-Regular-6e"/><use x="246" xlink:href="#SourceSansPro-Regular-65"/><use x="295.6" xlink:href="#SourceSansPro-Regular-79"/><use x="342.3" xlink:href="#SourceSansPro-Regular-73"/><use x="384.2" xlink:href="#SourceSansPro-Regular-20"/><use x="404.4" xlink:href="#SourceSansPro-Regular-62"/><use x="459.9" xlink:href="#SourceSansPro-Regular-79"/><use x="506.6" xlink:href="#SourceSansPro-Regular-20"/><use x="526.8" xlink:href="#SourceSansPro-Regular-68"/><use x="581.2" xlink:href="#SourceSansPro-Regular-6f"/><use x="635.4" xlink:href="#SourceSansPro-Regular-75"/><use x="689.8" xlink:href="#SourceSansPro-Regular-72"/><use x="724.5" xlink:href="#SourceSansPro-Regular-20"/><use x="744.7" xlink:href="#SourceSansPro-Regular-73"/><use x="786.6" xlink:href="#SourceSansPro-Regular-74"/><use x="820.4" xlink:href="#SourceSansPro-Regular-61"/><use x="871.6" xlink:href="#SourceSansPro-Regular-72"/><use x="906.3" xlink:href="#SourceSansPro-Regular-74"/><use x="940.1" xlink:href="#SourceSansPro-Regular-65"/><use x="989.7" xlink:href="#SourceSansPro-Regular-64"/></g></g></g></g><defs><clipPath id="p6ec2de5265"><path d="M53.64 31.7h669.6v288H53.64z"/></clipPath></defs></svg>