<?xml version="1.0" encoding="utf-8" standalone="no"?>
<!DOCTYPE svg PUBLIC "-//W3C//DTD SVG 1.1//EN"
  "http://www.w3.org/Graphics/SVG/1.1/DTD/svg11.dtd">
<!-- Created with matplotlib (http://matplotlib.org/) -->
<svg height="430pt" version="1.1" viewBox="0 0 506 430" width="506pt" xmlns="http://www.w3.org/2000/svg" xmlns:xlink="http://www.w3.org/1999/xlink">
 <defs>
  <style type="text/css">
*{stroke-linecap:butt;stroke-linejoin:round;stroke-miterlimit:100000;}
  </style>
 </defs>
 <g id="figure_1">
  <g id="patch_1">
   <path d="M 0 430.382275 
L 506.898375 430.382275 
L 506.898375 0 
L 0 0 
L 0 430.382275 
z
" style="fill:none;"/>
  </g>
  <g id="axes_1">
   <g id="patch_2">
    <path d="M 53.298375 378.7439 
L 499.698375 378.7439 
L 499.698375 33.1439 
L 53.298375 33.1439 
L 53.298375 378.7439 
z
" style="fill:none;"/>
   </g>
   <g id="matplotlib.axis_1">
    <g id="xtick_1">
     <g id="line2d_1">
      <defs>
       <path d="M 0 0 
L 0 -6 
" id="mf11403d07c"/>
      </defs>
      <g>
       <use x="109.098375" xlink:href="#mf11403d07c" y="378.7439"/>
      </g>
     </g>
     <g id="line2d_2">
      <defs>
       <path d="M 0 0 
L 0 6 
" id="mf6b8bf44a7"/>
      </defs>
      <g>
       <use x="109.098375" xlink:href="#mf6b8bf44a7" y="33.1439"/>
      </g>
     </g>
     <g id="text_1">
      <!-- Member -->
      <defs>
       <path d="M 8.203125 0 
L 16.40625 0 
L 16.40625 35.203125 
C 20.90625 40.203125 25 42.703125 28.59375 42.703125 
C 34.796875 42.703125 37.703125 38.796875 37.703125 29.703125 
L 37.703125 0 
L 45.90625 0 
L 45.90625 35.203125 
C 50.40625 40.203125 54.296875 42.703125 58.09375 42.703125 
C 64.203125 42.703125 67.09375 38.796875 67.09375 29.703125 
L 67.09375 0 
L 75.296875 0 
L 75.296875 30.796875 
C 75.296875 43.203125 70.5 49.796875 60.5 49.796875 
C 54.59375 49.796875 49.59375 46 44.5 40.5 
C 42.5 46.296875 38.5 49.796875 31.09375 49.796875 
C 25.296875 49.796875 20.203125 46.203125 16 41.59375 
L 15.703125 41.59375 
L 15 48.59375 
L 8.203125 48.59375 
z
" id="SourceSansPro-Regular-6d"/>
       <path d="M 8.203125 0 
L 16.40625 0 
L 16.40625 31.203125 
C 19.703125 39.40625 24.59375 42.40625 28.703125 42.40625 
C 30.703125 42.40625 31.796875 42.09375 33.40625 41.59375 
L 35 48.796875 
C 33.40625 49.5 31.90625 49.796875 29.796875 49.796875 
C 24.296875 49.796875 19.296875 45.90625 16 39.796875 
L 15.703125 39.796875 
L 15 48.59375 
L 8.203125 48.59375 
z
" id="SourceSansPro-Regular-72"/>
       <path d="M 8.203125 0 
L 14.796875 0 
L 15.5 4.796875 
L 15.796875 4.796875 
C 20.09375 1 25.203125 -1.203125 29.703125 -1.203125 
C 40.796875 -1.203125 50.703125 8.5 50.703125 25.09375 
C 50.703125 40.09375 44 49.796875 31.40625 49.796875 
C 26 49.796875 20.59375 46.90625 16.203125 43 
L 16.40625 51.796875 
L 16.40625 71.203125 
L 8.203125 71.203125 
z
M 16.40625 10.796875 
L 16.40625 36.296875 
C 21 40.59375 25.296875 42.90625 29.40625 42.90625 
C 38.59375 42.90625 42.203125 35.703125 42.203125 25 
C 42.203125 13 36.296875 5.703125 28.296875 5.703125 
C 25.09375 5.703125 20.703125 7.09375 16.40625 10.796875 
" id="SourceSansPro-Regular-62"/>
       <path d="M 4.59375 24.203125 
C 4.59375 8.296875 14.90625 -1.203125 27.90625 -1.203125 
C 34.5 -1.203125 39.703125 1.09375 43.90625 3.796875 
L 41 9.203125 
C 37.40625 6.90625 33.5 5.40625 28.90625 5.40625 
C 19.59375 5.40625 13.296875 12 12.703125 22.5 
L 45.5 22.5 
C 45.703125 23.703125 45.796875 25.296875 45.796875 27 
C 45.796875 40.90625 38.796875 49.796875 26.40625 49.796875 
C 15.296875 49.796875 4.59375 40.09375 4.59375 24.203125 
M 12.59375 27.90625 
C 13.59375 37.703125 19.796875 43.296875 26.59375 43.296875 
C 34.203125 43.296875 38.59375 37.796875 38.59375 27.90625 
z
" id="SourceSansPro-Regular-65"/>
       <path d="M 9 0 
L 16.703125 0 
L 16.703125 36.09375 
C 16.703125 41.90625 16 49.703125 15.59375 55.5 
L 16 55.5 
L 21.203125 40.90625 
L 33.90625 6.59375 
L 38.59375 6.59375 
L 51.203125 40.90625 
L 56.5 55.5 
L 56.90625 55.5 
C 56.40625 49.703125 55.796875 41.90625 55.796875 36.09375 
L 55.796875 0 
L 63.703125 0 
L 63.703125 65.59375 
L 53.90625 65.59375 
L 41.296875 30.40625 
L 36.703125 17 
L 36.296875 17 
L 31.5 30.40625 
L 18.796875 65.59375 
L 9 65.59375 
z
" id="SourceSansPro-Regular-4d"/>
      </defs>
      <g transform="translate(88.398375 397.288275)scale(0.12 -0.12)">
       <use xlink:href="#SourceSansPro-Regular-4d"/>
       <use x="72.69998168945312" xlink:href="#SourceSansPro-Regular-65"/>
       <use x="122.29997253417969" xlink:href="#SourceSansPro-Regular-6d"/>
       <use x="205.19996643066406" xlink:href="#SourceSansPro-Regular-62"/>
       <use x="260.699951171875" xlink:href="#SourceSansPro-Regular-65"/>
       <use x="310.29994201660156" xlink:href="#SourceSansPro-Regular-72"/>
      </g>
     </g>
    </g>
    <g id="xtick_2">
     <g id="line2d_3">
      <g>
       <use x="220.698375" xlink:href="#mf11403d07c" y="378.7439"/>
      </g>
     </g>
     <g id="line2d_4">
      <g>
       <use x="220.698375" xlink:href="#mf6b8bf44a7" y="33.1439"/>
      </g>
     </g>
     <g id="text_2">
      <!-- Registered -->
      <defs>
       <path d="M 11.703125 -8.203125 
C 11.703125 -5.40625 13.203125 -2.5 16.703125 0 
C 18.796875 -0.59375 21.09375 -0.796875 23 -0.796875 
L 31.40625 -0.796875 
C 37.703125 -0.796875 41.203125 -2.296875 41.203125 -6.796875 
C 41.203125 -11.90625 35.09375 -16.703125 25.796875 -16.703125 
C 17 -16.703125 11.703125 -13.40625 11.703125 -8.203125 
M 4.5 -9.296875 
C 4.5 -17.703125 12.703125 -22.40625 24.59375 -22.40625 
C 39.703125 -22.40625 49.203125 -14.59375 49.203125 -5.59375 
C 49.203125 2.5 43.5 6 32.203125 6 
L 22.796875 6 
C 16.203125 6 14.203125 8.203125 14.203125 11.296875 
C 14.203125 14 15.59375 15.59375 17.296875 17.09375 
C 19.5 16 22.203125 15.40625 24.59375 15.40625 
C 34.5 15.40625 42.40625 21.90625 42.40625 32.296875 
C 42.40625 36.40625 40.703125 40.09375 38.40625 42.296875 
L 48.40625 42.296875 
L 48.40625 48.59375 
L 31.5 48.59375 
C 29.703125 49.296875 27.296875 49.796875 24.59375 49.796875 
C 14.703125 49.796875 6.296875 43.09375 6.296875 32.5 
C 6.296875 26.703125 9.40625 22 12.59375 19.40625 
L 12.59375 19 
C 10.09375 17.296875 7.296875 14.09375 7.296875 10 
C 7.296875 6.203125 9.203125 3.59375 11.59375 2.09375 
L 11.59375 1.703125 
C 7.203125 -1.296875 4.5 -5.203125 4.5 -9.296875 
M 24.59375 20.90625 
C 19 20.90625 14.296875 25.40625 14.296875 32.5 
C 14.296875 39.59375 18.90625 43.796875 24.59375 43.796875 
C 30.296875 43.796875 34.90625 39.59375 34.90625 32.5 
C 34.90625 25.40625 30.203125 20.90625 24.59375 20.90625 
" id="SourceSansPro-Regular-67"/>
       <path d="M 2.796875 5.5 
C 7.40625 1.703125 14 -1.203125 20.90625 -1.203125 
C 32.40625 -1.203125 38.703125 5.40625 38.703125 13.296875 
C 38.703125 22.5 30.90625 25.40625 23.90625 28 
C 18.40625 30.09375 13.09375 31.796875 13.09375 36.40625 
C 13.09375 40.09375 15.90625 43.40625 22 43.40625 
C 26.296875 43.40625 29.796875 41.59375 33.09375 39.09375 
L 37 44.296875 
C 33.296875 47.296875 28 49.796875 21.90625 49.796875 
C 11.40625 49.796875 5.203125 43.796875 5.203125 36 
C 5.203125 27.796875 12.796875 24.5 19.703125 22 
C 25 20 30.796875 17.796875 30.796875 12.796875 
C 30.796875 8.59375 27.59375 5.203125 21.203125 5.203125 
C 15.40625 5.203125 11.09375 7.59375 6.90625 11 
z
" id="SourceSansPro-Regular-73"/>
       <path d="M 9.59375 15 
C 9.59375 5.40625 13.09375 -1.203125 23.5 -1.203125 
C 26.5 -1.203125 29.796875 -0.296875 32.5 0.59375 
L 30.90625 6.796875 
C 29.296875 6.203125 27.09375 5.5 25.40625 5.5 
C 19.796875 5.5 17.90625 8.90625 17.90625 14.90625 
L 17.90625 41.90625 
L 31 41.90625 
L 31 48.59375 
L 17.90625 48.59375 
L 17.90625 62.203125 
L 11 62.203125 
L 10 48.59375 
L 2.40625 48.09375 
L 2.40625 41.90625 
L 9.59375 41.90625 
z
" id="SourceSansPro-Regular-74"/>
       <path d="M 12.40625 58.59375 
C 15.59375 58.59375 18.09375 60.796875 18.09375 63.90625 
C 18.09375 67.09375 15.59375 69.203125 12.40625 69.203125 
C 9.203125 69.203125 6.703125 67.09375 6.703125 63.90625 
C 6.703125 60.796875 9.203125 58.59375 12.40625 58.59375 
M 8.203125 0 
L 16.40625 0 
L 16.40625 48.59375 
L 8.203125 48.59375 
z
" id="SourceSansPro-Regular-69"/>
       <path d="M 17.296875 58.90625 
L 28.296875 58.90625 
C 38.5 58.90625 44.203125 55.796875 44.203125 47.203125 
C 44.203125 38.703125 38.5 34.5 28.296875 34.5 
L 17.296875 34.5 
z
M 54.40625 0 
L 37.796875 28.59375 
C 46.703125 30.796875 52.5 37 52.5 47.203125 
C 52.5 60.796875 42.90625 65.59375 29.5 65.59375 
L 9 65.59375 
L 9 0 
L 17.296875 0 
L 17.296875 27.703125 
L 29.203125 27.703125 
L 45 0 
z
" id="SourceSansPro-Regular-52"/>
       <path d="M 4.703125 24.203125 
C 4.703125 8 12.59375 -1.203125 24.796875 -1.203125 
C 30.5 -1.203125 35.703125 2 39.5 5.703125 
L 39.796875 5.703125 
L 40.5 0 
L 47.296875 0 
L 47.296875 71.203125 
L 39 71.203125 
L 39 52.5 
L 39.40625 44.203125 
C 35.09375 47.703125 31.40625 49.796875 25.796875 49.796875 
C 14.703125 49.796875 4.703125 40 4.703125 24.203125 
M 13.203125 24.296875 
C 13.203125 35.40625 19.40625 42.90625 27.203125 42.90625 
C 31.203125 42.90625 34.90625 41.5 39 37.796875 
L 39 12.40625 
C 35 7.90625 31.09375 5.703125 26.59375 5.703125 
C 18.09375 5.703125 13.203125 12.703125 13.203125 24.296875 
" id="SourceSansPro-Regular-64"/>
      </defs>
      <g transform="translate(193.8315 397.288275)scale(0.12 -0.12)">
       <use xlink:href="#SourceSansPro-Regular-52"/>
       <use x="58.09999084472656" xlink:href="#SourceSansPro-Regular-65"/>
       <use x="107.69998168945312" xlink:href="#SourceSansPro-Regular-67"/>
       <use x="158.0999755859375" xlink:href="#SourceSansPro-Regular-69"/>
       <use x="182.69996643066406" xlink:href="#SourceSansPro-Regular-73"/>
       <use x="224.59996032714844" xlink:href="#SourceSansPro-Regular-74"/>
       <use x="258.3999481201172" xlink:href="#SourceSansPro-Regular-65"/>
       <use x="307.99993896484375" xlink:href="#SourceSansPro-Regular-72"/>
       <use x="342.69993591308594" xlink:href="#SourceSansPro-Regular-65"/>
       <use x="392.2999267578125" xlink:href="#SourceSansPro-Regular-64"/>
      </g>
     </g>
    </g>
    <g id="xtick_3">
     <g id="line2d_5">
      <g>
       <use x="332.298375" xlink:href="#mf11403d07c" y="378.7439"/>
      </g>
     </g>
     <g id="line2d_6">
      <g>
       <use x="332.298375" xlink:href="#mf6b8bf44a7" y="33.1439"/>
      </g>
     </g>
     <g id="text_3">
      <!-- Affiliated -->
      <defs>
       <path d="M 5.796875 12.59375 
C 5.796875 3.90625 11.90625 -1.203125 20.09375 -1.203125 
C 26.09375 -1.203125 31.5 2 36.203125 5.796875 
L 36.40625 5.796875 
L 37.09375 0 
L 43.90625 0 
L 43.90625 29.796875 
C 43.90625 41.90625 38.90625 49.796875 27 49.796875 
C 19.203125 49.796875 12.40625 46.40625 7.90625 43.5 
L 11.203125 37.796875 
C 15 40.40625 20 43 25.703125 43 
C 33.59375 43 35.703125 37 35.703125 30.796875 
C 15 28.5 5.796875 23.203125 5.796875 12.59375 
M 13.90625 13.203125 
C 13.90625 19.40625 19.40625 23.40625 35.703125 25.40625 
L 35.703125 11.90625 
C 31 7.703125 27.09375 5.40625 22.40625 5.40625 
C 17.59375 5.40625 13.90625 7.703125 13.90625 13.203125 
" id="SourceSansPro-Regular-61"/>
       <path d="M 8.203125 9.796875 
C 8.203125 2.703125 10.703125 -1.203125 16.90625 -1.203125 
C 19.09375 -1.203125 20.5 -0.90625 21.59375 -0.40625 
L 20.5 5.796875 
C 19.59375 5.59375 19.203125 5.59375 18.703125 5.59375 
C 17.5 5.59375 16.40625 6.59375 16.40625 9.203125 
L 16.40625 71.203125 
L 8.203125 71.203125 
z
" id="SourceSansPro-Regular-6c"/>
       <path d="M 31.90625 70.796875 
C 29.703125 71.703125 26.796875 72.40625 23.796875 72.40625 
C 14.09375 72.40625 9.59375 66.203125 9.59375 56.296875 
L 9.59375 48.59375 
L 3 48.09375 
L 3 41.90625 
L 9.59375 41.90625 
L 9.59375 0 
L 17.796875 0 
L 17.796875 41.90625 
L 28.09375 41.90625 
L 28.09375 48.59375 
L 17.796875 48.59375 
L 17.796875 56.296875 
C 17.796875 62.5 20 65.703125 24.59375 65.703125 
C 26.40625 65.703125 28.296875 65.296875 30.09375 64.5 
z
" id="SourceSansPro-Regular-66"/>
       <path d="M 17.203125 26.703125 
L 20.296875 36.703125 
C 22.703125 44 24.796875 51.203125 26.796875 58.796875 
L 27.203125 58.796875 
C 29.296875 51.203125 31.40625 44 33.796875 36.703125 
L 36.90625 26.703125 
z
M 45.203125 0 
L 54.09375 0 
L 31.90625 65.59375 
L 22.5 65.59375 
L 0.296875 0 
L 8.796875 0 
L 15.09375 20 
L 39 20 
z
" id="SourceSansPro-Regular-41"/>
      </defs>
      <g transform="translate(309.64275 397.288275)scale(0.12 -0.12)">
       <use xlink:href="#SourceSansPro-Regular-41"/>
       <use x="54.399993896484375" xlink:href="#SourceSansPro-Regular-66"/>
       <use x="83.59999084472656" xlink:href="#SourceSansPro-Regular-66"/>
       <use x="112.79998779296875" xlink:href="#SourceSansPro-Regular-69"/>
       <use x="137.3999786376953" xlink:href="#SourceSansPro-Regular-6c"/>
       <use x="162.89996337890625" xlink:href="#SourceSansPro-Regular-69"/>
       <use x="187.4999542236328" xlink:href="#SourceSansPro-Regular-61"/>
       <use x="238.699951171875" xlink:href="#SourceSansPro-Regular-74"/>
       <use x="272.49993896484375" xlink:href="#SourceSansPro-Regular-65"/>
       <use x="322.0999298095703" xlink:href="#SourceSansPro-Regular-64"/>
      </g>
     </g>
    </g>
    <g id="xtick_4">
     <g id="line2d_7">
      <g>
       <use x="443.898375" xlink:href="#mf11403d07c" y="378.7439"/>
      </g>
     </g>
     <g id="line2d_8">
      <g>
       <use x="443.898375" xlink:href="#mf6b8bf44a7" y="33.1439"/>
      </g>
     </g>
     <g id="text_4">
      <!-- Total -->
      <defs>
       <path d="M 22.59375 0 
L 31 0 
L 31 58.59375 
L 50.796875 58.59375 
L 50.796875 65.59375 
L 2.796875 65.59375 
L 2.796875 58.59375 
L 22.59375 58.59375 
z
" id="SourceSansPro-Regular-54"/>
       <path d="M 4.59375 24.203125 
C 4.59375 8.09375 15.203125 -1.203125 27.09375 -1.203125 
C 39 -1.203125 49.59375 8.09375 49.59375 24.203125 
C 49.59375 40.5 39 49.796875 27.09375 49.796875 
C 15.203125 49.796875 4.59375 40.5 4.59375 24.203125 
M 13.09375 24.203125 
C 13.09375 35.40625 18.796875 43 27.09375 43 
C 35.5 43 41.09375 35.40625 41.09375 24.203125 
C 41.09375 13.09375 35.5 5.59375 27.09375 5.59375 
C 18.796875 5.59375 13.09375 13.09375 13.09375 24.203125 
" id="SourceSansPro-Regular-6f"/>
      </defs>
      <g transform="translate(430.8005625 397.288275)scale(0.12 -0.12)">
       <use xlink:href="#SourceSansPro-Regular-54"/>
       <use x="53.59999084472656" xlink:href="#SourceSansPro-Regular-6f"/>
       <use x="107.79998779296875" xlink:href="#SourceSansPro-Regular-74"/>
       <use x="141.5999755859375" xlink:href="#SourceSansPro-Regular-61"/>
       <use x="192.7999725341797" xlink:href="#SourceSansPro-Regular-6c"/>
      </g>
     </g>
    </g>
    <g id="text_5">
     <!-- Voter category -->
     <defs>
      <path d="M 4.90625 -13.40625 
L 3.296875 -19.90625 
C 4.90625 -20.5 6.796875 -20.90625 9 -20.90625 
C 18.796875 -20.90625 23.796875 -13.59375 27.203125 -4 
L 45.5 48.59375 
L 37.5 48.59375 
L 28.796875 21.703125 
C 27.5 17.40625 26.09375 12.40625 24.703125 8 
L 24.296875 8 
C 22.796875 12.5 21.09375 17.5 19.59375 21.703125 
L 9.703125 48.59375 
L 1.203125 48.59375 
L 20.703125 -0.09375 
L 19.59375 -3.703125 
C 17.59375 -9.703125 14.09375 -14.09375 8.59375 -14.09375 
C 7.40625 -14.09375 5.90625 -13.703125 4.90625 -13.40625 
" id="SourceSansPro-Regular-79"/>
      <path id="SourceSansPro-Regular-20"/>
      <path d="M 21 0 
L 30.703125 0 
L 51.5 65.59375 
L 43 65.59375 
L 32.5 30.203125 
C 30.203125 22.40625 28.59375 16.203125 26.203125 8.5 
L 25.796875 8.5 
C 23.296875 16.203125 21.796875 22.40625 19.40625 30.203125 
L 8.90625 65.59375 
L 0 65.59375 
z
" id="SourceSansPro-Regular-56"/>
      <path d="M 4.59375 24.203125 
C 4.59375 8.09375 14.5 -1.203125 27.40625 -1.203125 
C 33.203125 -1.203125 38.796875 1.203125 43.203125 5.09375 
L 39.5 10.5 
C 36.59375 7.90625 32.703125 5.59375 28.09375 5.59375 
C 19.203125 5.59375 13.09375 13.09375 13.09375 24.203125 
C 13.09375 35.40625 19.5 43 28.296875 43 
C 32.203125 43 35.203125 41.203125 38.09375 38.703125 
L 42.203125 44 
C 38.90625 47.09375 34.40625 49.796875 28 49.796875 
C 15.5 49.796875 4.59375 40.5 4.59375 24.203125 
" id="SourceSansPro-Regular-63"/>
     </defs>
     <g transform="translate(232.56375 419.955775)scale(0.144 -0.144)">
      <use xlink:href="#SourceSansPro-Regular-56"/>
      <use x="51.49998474121094" xlink:href="#SourceSansPro-Regular-6f"/>
      <use x="105.69998168945312" xlink:href="#SourceSansPro-Regular-74"/>
      <use x="139.49996948242188" xlink:href="#SourceSansPro-Regular-65"/>
      <use x="189.09996032714844" xlink:href="#SourceSansPro-Regular-72"/>
      <use x="223.79995727539062" xlink:href="#SourceSansPro-Regular-20"/>
      <use x="243.9999542236328" xlink:href="#SourceSansPro-Regular-63"/>
      <use x="289.5999450683594" xlink:href="#SourceSansPro-Regular-61"/>
      <use x="340.79994201660156" xlink:href="#SourceSansPro-Regular-74"/>
      <use x="374.5999298095703" xlink:href="#SourceSansPro-Regular-65"/>
      <use x="424.1999206542969" xlink:href="#SourceSansPro-Regular-67"/>
      <use x="474.59991455078125" xlink:href="#SourceSansPro-Regular-6f"/>
      <use x="528.7999114990234" xlink:href="#SourceSansPro-Regular-72"/>
      <use x="563.4999084472656" xlink:href="#SourceSansPro-Regular-79"/>
     </g>
    </g>
   </g>
   <g id="matplotlib.axis_2">
    <g id="ytick_1">
     <g id="line2d_9">
      <path clip-path="url(#pa495930c66)" d="M 53.298375 344.1839 
L 499.698375 344.1839 
" style="fill:none;stroke:#8fa7bf;stroke-linecap:square;stroke-width:0.5;"/>
     </g>
     <g id="line2d_10">
      <defs>
       <path d="M 0 0 
L 6 0 
" id="m0563d4a749"/>
      </defs>
      <g>
       <use x="53.298375" xlink:href="#m0563d4a749" y="344.1839"/>
      </g>
     </g>
     <g id="line2d_11">
      <defs>
       <path d="M 0 0 
L -6 0 
" id="m5e7bb69287"/>
      </defs>
      <g>
       <use x="499.698375" xlink:href="#m5e7bb69287" y="344.1839"/>
      </g>
     </g>
     <g id="text_6">
      <!-- 10 -->
      <defs>
       <path d="M 24.90625 -1.203125 
C 37.59375 -1.203125 45.296875 10.703125 45.296875 32.09375 
C 45.296875 53.5 37.59375 65 24.90625 65 
C 12.09375 65 4.40625 53.5 4.40625 32.09375 
C 4.40625 10.703125 12.09375 -1.203125 24.90625 -1.203125 
M 24.90625 5.40625 
C 17.40625 5.40625 12.40625 13.40625 12.40625 32.09375 
C 12.40625 50.796875 17.40625 58.40625 24.90625 58.40625 
C 32.296875 58.40625 37.296875 50.796875 37.296875 32.09375 
C 37.296875 13.40625 32.296875 5.40625 24.90625 5.40625 
" id="SourceSansPro-Regular-30"/>
       <path d="M 7.90625 0 
L 43.90625 0 
L 43.90625 6.796875 
L 30.703125 6.796875 
L 30.703125 63.796875 
L 24.40625 63.796875 
C 20.90625 61.703125 16.703125 60.09375 10.90625 59.09375 
L 10.90625 53.796875 
L 22.5 53.796875 
L 22.5 6.796875 
L 7.90625 6.796875 
z
" id="SourceSansPro-Regular-31"/>
      </defs>
      <g transform="translate(31.369625 347.2260875)scale(0.12 -0.12)">
       <use xlink:href="#SourceSansPro-Regular-31"/>
       <use x="49.69999694824219" xlink:href="#SourceSansPro-Regular-30"/>
      </g>
     </g>
    </g>
    <g id="ytick_2">
     <g id="line2d_12">
      <path clip-path="url(#pa495930c66)" d="M 53.298375 309.6239 
L 499.698375 309.6239 
" style="fill:none;stroke:#8fa7bf;stroke-linecap:square;stroke-width:0.5;"/>
     </g>
     <g id="line2d_13">
      <g>
       <use x="53.298375" xlink:href="#m0563d4a749" y="309.6239"/>
      </g>
     </g>
     <g id="line2d_14">
      <g>
       <use x="499.698375" xlink:href="#m5e7bb69287" y="309.6239"/>
      </g>
     </g>
     <g id="text_7">
      <!-- 20 -->
      <defs>
       <path d="M 4 0 
L 45.203125 0 
L 45.203125 7.09375 
L 26.703125 7.09375 
C 23.40625 7.09375 19.5 6.796875 16 6.5 
C 31.09375 22.296875 42 34.203125 42 46.203125 
C 42 57.5 34.703125 65 22.90625 65 
C 14.59375 65 8.90625 61.09375 3.59375 55.296875 
L 8.296875 50.59375 
C 12 54.90625 16.59375 58.296875 21.90625 58.296875 
C 30 58.296875 34 53.09375 34 45.796875 
C 34 35.5 23.203125 24 4 4.90625 
z
" id="SourceSansPro-Regular-32"/>
      </defs>
      <g transform="translate(31.369625 312.6660875)scale(0.12 -0.12)">
       <use xlink:href="#SourceSansPro-Regular-32"/>
       <use x="49.69999694824219" xlink:href="#SourceSansPro-Regular-30"/>
      </g>
     </g>
    </g>
    <g id="ytick_3">
     <g id="line2d_15">
      <path clip-path="url(#pa495930c66)" d="M 53.298375 275.0639 
L 499.698375 275.0639 
" style="fill:none;stroke:#8fa7bf;stroke-linecap:square;stroke-width:0.5;"/>
     </g>
     <g id="line2d_16">
      <g>
       <use x="53.298375" xlink:href="#m0563d4a749" y="275.0639"/>
      </g>
     </g>
     <g id="line2d_17">
      <g>
       <use x="499.698375" xlink:href="#m5e7bb69287" y="275.0639"/>
      </g>
     </g>
     <g id="text_8">
      <!-- 30 -->
      <defs>
       <path d="M 2.59375 7.796875 
C 6.90625 3.09375 13.40625 -1.203125 23.59375 -1.203125 
C 35.296875 -1.203125 44.59375 5.703125 44.59375 17 
C 44.59375 25.796875 38.5 31.40625 30.796875 33.203125 
L 30.796875 33.59375 
C 37.703125 36.203125 42.40625 41.09375 42.40625 48.796875 
C 42.40625 59.09375 34.40625 65 23.296875 65 
C 15.796875 65 9.90625 61.59375 5 57 
L 9.40625 51.796875 
C 13.203125 55.59375 17.703125 58.296875 23 58.296875 
C 29.796875 58.296875 34 54.40625 34 48.203125 
C 34 41.5 29.5 36.296875 15.90625 36.296875 
L 15.90625 30 
C 31.09375 30 36.296875 24.90625 36.296875 17.296875 
C 36.296875 10.203125 30.796875 5.59375 23.09375 5.59375 
C 15.59375 5.59375 10.59375 9.203125 6.796875 13.203125 
z
" id="SourceSansPro-Regular-33"/>
      </defs>
      <g transform="translate(31.369625 278.1060875)scale(0.12 -0.12)">
       <use xlink:href="#SourceSansPro-Regular-33"/>
       <use x="49.69999694824219" xlink:href="#SourceSansPro-Regular-30"/>
      </g>
     </g>
    </g>
    <g id="ytick_4">
     <g id="line2d_18">
      <path clip-path="url(#pa495930c66)" d="M 53.298375 240.5039 
L 499.698375 240.5039 
" style="fill:none;stroke:#8fa7bf;stroke-linecap:square;stroke-width:0.5;"/>
     </g>
     <g id="line2d_19">
      <g>
       <use x="53.298375" xlink:href="#m0563d4a749" y="240.5039"/>
      </g>
     </g>
     <g id="line2d_20">
      <g>
       <use x="499.698375" xlink:href="#m5e7bb69287" y="240.5039"/>
      </g>
     </g>
     <g id="text_9">
      <!-- 40 -->
      <defs>
       <path d="M 10.40625 24.203125 
L 25.296875 46 
C 27.09375 49.09375 28.90625 51.90625 30.5 55 
L 30.90625 55 
C 30.703125 51.59375 30.40625 46.09375 30.40625 42.703125 
L 30.40625 24.203125 
z
M 46.90625 24.203125 
L 38.203125 24.203125 
L 38.203125 63.796875 
L 29 63.796875 
L 1.703125 23 
L 1.703125 17.59375 
L 30.40625 17.59375 
L 30.40625 0 
L 38.203125 0 
L 38.203125 17.59375 
L 46.90625 17.59375 
z
" id="SourceSansPro-Regular-34"/>
      </defs>
      <g transform="translate(31.369625 243.5460875)scale(0.12 -0.12)">
       <use xlink:href="#SourceSansPro-Regular-34"/>
       <use x="49.69999694824219" xlink:href="#SourceSansPro-Regular-30"/>
      </g>
     </g>
    </g>
    <g id="ytick_5">
     <g id="line2d_21">
      <path clip-path="url(#pa495930c66)" d="M 53.298375 205.9439 
L 499.698375 205.9439 
" style="fill:none;stroke:#8fa7bf;stroke-linecap:square;stroke-width:0.5;"/>
     </g>
     <g id="line2d_22">
      <g>
       <use x="53.298375" xlink:href="#m0563d4a749" y="205.9439"/>
      </g>
     </g>
     <g id="line2d_23">
      <g>
       <use x="499.698375" xlink:href="#m5e7bb69287" y="205.9439"/>
      </g>
     </g>
     <g id="text_10">
      <!-- 50 -->
      <defs>
       <path d="M 2.5 7.5 
C 6.90625 3.09375 13.203125 -1.203125 23.40625 -1.203125 
C 34.5 -1.203125 44.90625 6.59375 44.90625 20.40625 
C 44.90625 34.203125 36 40.40625 25.09375 40.40625 
C 21.203125 40.40625 18.296875 39.40625 15.296875 37.796875 
L 17 56.703125 
L 41.703125 56.703125 
L 41.703125 63.796875 
L 9.796875 63.796875 
L 7.703125 33.09375 
L 12.09375 30.296875 
C 15.90625 32.796875 18.59375 34.203125 23 34.203125 
C 31.203125 34.203125 36.59375 29 36.59375 20.203125 
C 36.59375 11.296875 30.40625 5.59375 22.59375 5.59375 
C 15.09375 5.59375 10.296875 9.09375 6.5 12.90625 
z
" id="SourceSansPro-Regular-35"/>
      </defs>
      <g transform="translate(31.369625 208.9860875)scale(0.12 -0.12)">
       <use xlink:href="#SourceSansPro-Regular-35"/>
       <use x="49.69999694824219" xlink:href="#SourceSansPro-Regular-30"/>
      </g>
     </g>
    </g>
    <g id="ytick_6">
     <g id="line2d_24">
      <path clip-path="url(#pa495930c66)" d="M 53.298375 171.3839 
L 499.698375 171.3839 
" style="fill:none;stroke:#8fa7bf;stroke-linecap:square;stroke-width:0.5;"/>
     </g>
     <g id="line2d_25">
      <g>
       <use x="53.298375" xlink:href="#m0563d4a749" y="171.3839"/>
      </g>
     </g>
     <g id="line2d_26">
      <g>
       <use x="499.698375" xlink:href="#m5e7bb69287" y="171.3839"/>
      </g>
     </g>
     <g id="text_11">
      <!-- 60 -->
      <defs>
       <path d="M 26.796875 5.296875 
C 18.703125 5.296875 13.796875 12 12.796875 24.40625 
C 17.09375 30.40625 22.09375 32.796875 26.09375 32.796875 
C 34 32.796875 37.90625 27.59375 37.90625 19.296875 
C 37.90625 10.90625 33.09375 5.296875 26.796875 5.296875 
M 44.5 58.203125 
C 40.90625 62.09375 36 65 29.09375 65 
C 16.40625 65 4.796875 55.09375 4.796875 29.5 
C 4.796875 9 14.296875 -1.203125 26.796875 -1.203125 
C 37.09375 -1.203125 45.703125 7.09375 45.703125 19.296875 
C 45.703125 32.40625 38.5 39 27.5 39 
C 22.296875 39 16.59375 35.90625 12.59375 31 
C 13 51.203125 20.5 58.09375 29.40625 58.09375 
C 33.40625 58.09375 37.296875 56.203125 39.90625 53.09375 
z
" id="SourceSansPro-Regular-36"/>
      </defs>
      <g transform="translate(31.369625 174.4260875)scale(0.12 -0.12)">
       <use xlink:href="#SourceSansPro-Regular-36"/>
       <use x="49.69999694824219" xlink:href="#SourceSansPro-Regular-30"/>
      </g>
     </g>
    </g>
    <g id="ytick_7">
     <g id="line2d_27">
      <path clip-path="url(#pa495930c66)" d="M 53.298375 136.8239 
L 499.698375 136.8239 
" style="fill:none;stroke:#8fa7bf;stroke-linecap:square;stroke-width:0.5;"/>
     </g>
     <g id="line2d_28">
      <g>
       <use x="53.298375" xlink:href="#m0563d4a749" y="136.8239"/>
      </g>
     </g>
     <g id="line2d_29">
      <g>
       <use x="499.698375" xlink:href="#m5e7bb69287" y="136.8239"/>
      </g>
     </g>
     <g id="text_12">
      <!-- 70 -->
      <defs>
       <path d="M 17.703125 0 
L 26.203125 0 
C 27.296875 24.90625 30.40625 39.40625 45.5 58.703125 
L 45.5 63.796875 
L 4.40625 63.796875 
L 4.40625 56.703125 
L 36.203125 56.703125 
C 23.59375 39.203125 18.796875 24 17.703125 0 
" id="SourceSansPro-Regular-37"/>
      </defs>
      <g transform="translate(31.369625 139.8660875)scale(0.12 -0.12)">
       <use xlink:href="#SourceSansPro-Regular-37"/>
       <use x="49.69999694824219" xlink:href="#SourceSansPro-Regular-30"/>
      </g>
     </g>
    </g>
    <g id="ytick_8">
     <g id="line2d_30">
      <path clip-path="url(#pa495930c66)" d="M 53.298375 102.2639 
L 499.698375 102.2639 
" style="fill:none;stroke:#8fa7bf;stroke-linecap:square;stroke-width:0.5;"/>
     </g>
     <g id="line2d_31">
      <g>
       <use x="53.298375" xlink:href="#m0563d4a749" y="102.2639"/>
      </g>
     </g>
     <g id="line2d_32">
      <g>
       <use x="499.698375" xlink:href="#m5e7bb69287" y="102.2639"/>
      </g>
     </g>
     <g id="text_13">
      <!-- 80 -->
      <defs>
       <path d="M 11.5 17.09375 
C 11.5 22.90625 15.296875 27.59375 20.40625 31 
C 29.59375 27.296875 37.703125 24.296875 37.703125 16.09375 
C 37.703125 9.5 32.59375 4.90625 25.203125 4.90625 
C 17.40625 4.90625 11.5 10 11.5 17.09375 
M 29.5 34.796875 
C 21.796875 37.796875 14.796875 41 14.796875 48.59375 
C 14.796875 54.796875 19.203125 58.90625 25.09375 58.90625 
C 32.09375 58.90625 36.203125 53.90625 36.203125 47.59375 
C 36.203125 42.90625 33.796875 38.59375 29.5 34.796875 
M 4.09375 16.296875 
C 4.09375 6.203125 13 -1.203125 25 -1.203125 
C 37.40625 -1.203125 45.59375 6.296875 45.59375 15.796875 
C 45.59375 24.40625 40.203125 28.90625 34.5 32.203125 
L 34.5 32.59375 
C 38.40625 35.59375 43.296875 41.296875 43.296875 48 
C 43.296875 57.90625 36.40625 65 25.296875 65 
C 15 65 7.203125 58.40625 7.203125 48.59375 
C 7.203125 41.90625 11.40625 37.203125 16.09375 33.90625 
L 16.09375 33.5 
C 10.09375 30.296875 4.09375 24.59375 4.09375 16.296875 
" id="SourceSansPro-Regular-38"/>
      </defs>
      <g transform="translate(31.369625 105.3060875)scale(0.12 -0.12)">
       <use xlink:href="#SourceSansPro-Regular-38"/>
       <use x="49.69999694824219" xlink:href="#SourceSansPro-Regular-30"/>
      </g>
     </g>
    </g>
    <g id="ytick_9">
     <g id="line2d_33">
      <path clip-path="url(#pa495930c66)" d="M 53.298375 67.7039 
L 499.698375 67.7039 
" style="fill:none;stroke:#8fa7bf;stroke-linecap:square;stroke-width:0.5;"/>
     </g>
     <g id="line2d_34">
      <g>
       <use x="53.298375" xlink:href="#m0563d4a749" y="67.7039"/>
      </g>
     </g>
     <g id="line2d_35">
      <g>
       <use x="499.698375" xlink:href="#m5e7bb69287" y="67.7039"/>
      </g>
     </g>
     <g id="text_14">
      <!-- 90 -->
      <defs>
       <path d="M 23.5 31 
C 15.59375 31 11.703125 36.203125 11.703125 44.5 
C 11.703125 52.90625 16.59375 58.5 22.796875 58.5 
C 30.90625 58.5 35.796875 51.90625 36.90625 39.5 
C 32.59375 33.40625 27.59375 31 23.5 31 
M 5.09375 5.5 
C 8.59375 1.703125 13.703125 -1.203125 20.5 -1.203125 
C 33.203125 -1.203125 44.796875 8.703125 44.796875 34.296875 
C 44.796875 54.796875 35.40625 65 22.796875 65 
C 12.59375 65 4 56.703125 4 44.5 
C 4 31.40625 11.09375 24.796875 22.09375 24.796875 
C 27.40625 24.796875 33.09375 27.90625 37.09375 33 
C 36.796875 12.59375 29.203125 5.59375 20.203125 5.59375 
C 16.203125 5.59375 12.296875 7.59375 9.703125 10.703125 
z
" id="SourceSansPro-Regular-39"/>
      </defs>
      <g transform="translate(31.369625 70.7460875)scale(0.12 -0.12)">
       <use xlink:href="#SourceSansPro-Regular-39"/>
       <use x="49.69999694824219" xlink:href="#SourceSansPro-Regular-30"/>
      </g>
     </g>
    </g>
    <g id="ytick_10">
     <g id="line2d_36">
      <path clip-path="url(#pa495930c66)" d="M 53.298375 33.1439 
L 499.698375 33.1439 
" style="fill:none;stroke:#8fa7bf;stroke-linecap:square;stroke-width:0.5;"/>
     </g>
     <g id="line2d_37">
      <g>
       <use x="53.298375" xlink:href="#m0563d4a749" y="33.1439"/>
      </g>
     </g>
     <g id="line2d_38">
      <g>
       <use x="499.698375" xlink:href="#m5e7bb69287" y="33.1439"/>
      </g>
     </g>
     <g id="text_15">
      <!-- 100 -->
      <g transform="translate(25.40525 36.1860875)scale(0.12 -0.12)">
       <use xlink:href="#SourceSansPro-Regular-31"/>
       <use x="49.69999694824219" xlink:href="#SourceSansPro-Regular-30"/>
       <use x="99.39999389648438" xlink:href="#SourceSansPro-Regular-30"/>
      </g>
     </g>
    </g>
    <g id="text_16">
     <!-- Percentage won -->
     <defs>
      <path d="M 8.203125 0 
L 16.40625 0 
L 16.40625 35.203125 
C 21.296875 40.09375 24.703125 42.703125 29.703125 42.703125 
C 36.09375 42.703125 38.90625 38.796875 38.90625 29.703125 
L 38.90625 0 
L 47.09375 0 
L 47.09375 30.796875 
C 47.09375 43.203125 42.5 49.796875 32.296875 49.796875 
C 25.59375 49.796875 20.59375 46.203125 16 41.59375 
L 15.703125 41.59375 
L 15 48.59375 
L 8.203125 48.59375 
z
" id="SourceSansPro-Regular-6e"/>
      <path d="M 9 0 
L 17.296875 0 
L 17.296875 26 
L 29.09375 26 
C 43.5 26 53.296875 32.5 53.296875 46.296875 
C 53.296875 60.703125 43.59375 65.59375 29.09375 65.59375 
L 9 65.59375 
z
M 17.296875 32.796875 
L 17.296875 58.90625 
L 28.09375 58.90625 
C 39.40625 58.90625 45 55.796875 45 46.296875 
C 45 37 39.5 32.796875 28.09375 32.796875 
z
" id="SourceSansPro-Regular-50"/>
      <path d="M 15.90625 0 
L 25.5 0 
L 32.296875 26 
C 33.59375 30.59375 34.59375 35.203125 35.703125 40.09375 
L 36.09375 40.09375 
C 37.296875 35.203125 38.203125 30.703125 39.40625 26.09375 
L 46.40625 0 
L 56.40625 0 
L 69.40625 48.59375 
L 61.59375 48.59375 
L 54.5 20.5 
C 53.5 15.90625 52.59375 11.5 51.5 7 
L 51.09375 7 
C 50 11.5 48.90625 15.90625 47.703125 20.5 
L 40.09375 48.59375 
L 32.09375 48.59375 
L 24.59375 20.5 
C 23.40625 16 22.40625 11.5 21.296875 7 
L 20.90625 7 
C 20 11.5 19.09375 15.90625 18 20.5 
L 10.796875 48.59375 
L 2.40625 48.59375 
z
" id="SourceSansPro-Regular-77"/>
     </defs>
     <g transform="translate(17.17875 254.7374)rotate(-90.0)scale(0.144 -0.144)">
      <use xlink:href="#SourceSansPro-Regular-50"/>
      <use x="57.59999084472656" xlink:href="#SourceSansPro-Regular-65"/>
      <use x="107.19998168945312" xlink:href="#SourceSansPro-Regular-72"/>
      <use x="141.8999786376953" xlink:href="#SourceSansPro-Regular-63"/>
      <use x="187.49996948242188" xlink:href="#SourceSansPro-Regular-65"/>
      <use x="237.09996032714844" xlink:href="#SourceSansPro-Regular-6e"/>
      <use x="291.7999572753906" xlink:href="#SourceSansPro-Regular-74"/>
      <use x="325.5999450683594" xlink:href="#SourceSansPro-Regular-61"/>
      <use x="376.79994201660156" xlink:href="#SourceSansPro-Regular-67"/>
      <use x="427.19993591308594" xlink:href="#SourceSansPro-Regular-65"/>
      <use x="476.7999267578125" xlink:href="#SourceSansPro-Regular-20"/>
      <use x="496.9999237060547" xlink:href="#SourceSansPro-Regular-77"/>
      <use x="568.7999114990234" xlink:href="#SourceSansPro-Regular-6f"/>
      <use x="622.9999084472656" xlink:href="#SourceSansPro-Regular-6e"/>
     </g>
    </g>
   </g>
   <g id="patch_3">
    <path clip-path="url(#pa495930c66)" d="M 67.248375 378.7439 
L 106.308375 378.7439 
L 106.308375 207.364193 
L 67.248375 207.364193 
z
" style="fill:#1369bf;"/>
   </g>
   <g id="patch_4">
    <path clip-path="url(#pa495930c66)" d="M 178.848375 378.7439 
L 217.908375 378.7439 
L 217.908375 89.268963 
L 178.848375 89.268963 
z
" style="fill:#1369bf;"/>
   </g>
   <g id="patch_5">
    <path clip-path="url(#pa495930c66)" d="M 290.448375 378.7439 
L 329.508375 378.7439 
L 329.508375 179.646883 
L 290.448375 179.646883 
z
" style="fill:#1369bf;"/>
   </g>
   <g id="patch_6">
    <path clip-path="url(#pa495930c66)" d="M 402.048375 378.7439 
L 441.108375 378.7439 
L 441.108375 173.167567 
L 402.048375 173.167567 
z
" style="fill:#1369bf;"/>
   </g>
   <g id="patch_7">
    <path clip-path="url(#pa495930c66)" d="M 111.888375 378.7439 
L 150.948375 378.7439 
L 150.948375 174.885758 
L 111.888375 174.885758 
z
" style="fill:#bd3338;"/>
   </g>
   <g id="patch_8">
    <path clip-path="url(#pa495930c66)" d="M 223.488375 378.7439 
L 262.548375 378.7439 
L 262.548375 137.233158 
L 223.488375 137.233158 
z
" style="fill:#bd3338;"/>
   </g>
   <g id="patch_9">
    <path clip-path="url(#pa495930c66)" d="M 335.088375 378.7439 
L 374.148375 378.7439 
L 374.148375 170.593918 
L 335.088375 170.593918 
z
" style="fill:#bd3338;"/>
   </g>
   <g id="patch_10">
    <path clip-path="url(#pa495930c66)" d="M 446.688375 378.7439 
L 485.748375 378.7439 
L 485.748375 165.005929 
L 446.688375 165.005929 
z
" style="fill:#bd3338;"/>
   </g>
   <g id="patch_11">
    <path d="M 53.298375 378.7439 
L 53.298375 33.1439 
" style="fill:none;stroke:#000000;stroke-linecap:square;stroke-linejoin:miter;"/>
   </g>
   <g id="patch_12">
    <path d="M 53.298375 378.7439 
L 499.698375 378.7439 
" style="fill:none;stroke:#000000;stroke-linecap:square;stroke-linejoin:miter;"/>
   </g>
   <g id="text_17">
    <!-- Jeremy Corbyn leadership result by section -->
    <defs>
     <path d="M 3.09375 9.296875 
C 6.90625 2.40625 12.90625 -1.203125 21.203125 -1.203125 
C 34 -1.203125 39.296875 8 39.296875 19.296875 
L 39.296875 65.59375 
L 30.90625 65.59375 
L 30.90625 20.09375 
C 30.90625 10.09375 27.40625 6.09375 20.40625 6.09375 
C 15.703125 6.09375 12 8.296875 9.09375 13.5 
z
" id="SourceSansPro-Regular-4a"/>
     <path d="M 5.203125 32.796875 
C 5.203125 11.40625 17.40625 -1.203125 33.90625 -1.203125 
C 42.296875 -1.203125 48.703125 2.296875 53.90625 8.296875 
L 49.203125 13.40625 
C 45 8.703125 40.40625 6.09375 34.09375 6.09375 
C 21.703125 6.09375 13.796875 16.5 13.796875 33 
C 13.796875 49.296875 22 59.5 34.5 59.5 
C 40 59.5 44.203125 57.09375 47.59375 53.40625 
L 52.296875 58.703125 
C 48.5 63 42.296875 66.796875 34.40625 66.796875 
C 17.59375 66.796875 5.203125 53.90625 5.203125 32.796875 
" id="SourceSansPro-Regular-43"/>
     <path d="M 8.203125 0 
L 16.40625 0 
L 16.40625 35.203125 
C 21.296875 40.09375 24.703125 42.703125 29.703125 42.703125 
C 36.09375 42.703125 38.90625 38.796875 38.90625 29.703125 
L 38.90625 0 
L 47.09375 0 
L 47.09375 30.796875 
C 47.09375 43.203125 42.5 49.796875 32.296875 49.796875 
C 25.59375 49.796875 20.703125 46.203125 16.09375 41.796875 
L 16.40625 51.796875 
L 16.40625 71.203125 
L 8.203125 71.203125 
z
" id="SourceSansPro-Regular-68"/>
     <path d="M 16.203125 4.40625 
C 20.703125 0.90625 25.203125 -1.203125 29.703125 -1.203125 
C 40.796875 -1.203125 50.703125 8.5 50.703125 25 
C 50.703125 40.09375 44 49.796875 31.5 49.796875 
C 25.796875 49.796875 20.40625 46.703125 16 43 
L 15.703125 43 
L 15 48.59375 
L 8.203125 48.59375 
L 8.203125 -20.5 
L 16.40625 -20.5 
L 16.40625 -4.09375 
z
M 16.40625 10.796875 
L 16.40625 36.296875 
C 21.203125 40.59375 25.296875 42.90625 29.40625 42.90625 
C 38.59375 42.90625 42.203125 35.703125 42.203125 25 
C 42.203125 13 36.296875 5.703125 28.296875 5.703125 
C 25.09375 5.703125 20.796875 7.09375 16.40625 10.796875 
" id="SourceSansPro-Regular-70"/>
     <path d="M 7.5 17.796875 
C 7.5 5.40625 12.09375 -1.203125 22.40625 -1.203125 
C 29.09375 -1.203125 33.90625 2.296875 38.40625 7.59375 
L 38.703125 7.59375 
L 39.40625 0 
L 46.203125 0 
L 46.203125 48.59375 
L 38 48.59375 
L 38 14.09375 
C 33.40625 8.40625 29.90625 5.90625 24.90625 5.90625 
C 18.5 5.90625 15.796875 9.796875 15.796875 18.90625 
L 15.796875 48.59375 
L 7.5 48.59375 
z
" id="SourceSansPro-Regular-75"/>
    </defs>
    <g transform="translate(120.596325 19.5039)scale(0.1728 -0.1728)">
     <use xlink:href="#SourceSansPro-Regular-4a"/>
     <use x="47.99998474121094" xlink:href="#SourceSansPro-Regular-65"/>
     <use x="97.5999755859375" xlink:href="#SourceSansPro-Regular-72"/>
     <use x="132.2999725341797" xlink:href="#SourceSansPro-Regular-65"/>
     <use x="181.89996337890625" xlink:href="#SourceSansPro-Regular-6d"/>
     <use x="264.7999572753906" xlink:href="#SourceSansPro-Regular-79"/>
     <use x="311.4999542236328" xlink:href="#SourceSansPro-Regular-20"/>
     <use x="331.699951171875" xlink:href="#SourceSansPro-Regular-43"/>
     <use x="388.79994201660156" xlink:href="#SourceSansPro-Regular-6f"/>
     <use x="442.99993896484375" xlink:href="#SourceSansPro-Regular-72"/>
     <use x="477.69993591308594" xlink:href="#SourceSansPro-Regular-62"/>
     <use x="533.1999206542969" xlink:href="#SourceSansPro-Regular-79"/>
     <use x="579.8999176025391" xlink:href="#SourceSansPro-Regular-6e"/>
     <use x="634.5999145507812" xlink:href="#SourceSansPro-Regular-20"/>
     <use x="654.7999114990234" xlink:href="#SourceSansPro-Regular-6c"/>
     <use x="680.2998962402344" xlink:href="#SourceSansPro-Regular-65"/>
     <use x="729.8998870849609" xlink:href="#SourceSansPro-Regular-61"/>
     <use x="781.0998840332031" xlink:href="#SourceSansPro-Regular-64"/>
     <use x="836.5998687744141" xlink:href="#SourceSansPro-Regular-65"/>
     <use x="886.1998596191406" xlink:href="#SourceSansPro-Regular-72"/>
     <use x="920.8998565673828" xlink:href="#SourceSansPro-Regular-73"/>
     <use x="962.7998504638672" xlink:href="#SourceSansPro-Regular-68"/>
     <use x="1017.1998443603516" xlink:href="#SourceSansPro-Regular-69"/>
     <use x="1041.7998352050781" xlink:href="#SourceSansPro-Regular-70"/>
     <use x="1097.299819946289" xlink:href="#SourceSansPro-Regular-20"/>
     <use x="1117.4998168945312" xlink:href="#SourceSansPro-Regular-72"/>
     <use x="1152.1998138427734" xlink:href="#SourceSansPro-Regular-65"/>
     <use x="1201.7998046875" xlink:href="#SourceSansPro-Regular-73"/>
     <use x="1243.6997985839844" xlink:href="#SourceSansPro-Regular-75"/>
     <use x="1298.0997924804688" xlink:href="#SourceSansPro-Regular-6c"/>
     <use x="1323.5997772216797" xlink:href="#SourceSansPro-Regular-74"/>
     <use x="1357.3997650146484" xlink:href="#SourceSansPro-Regular-20"/>
     <use x="1377.5997619628906" xlink:href="#SourceSansPro-Regular-62"/>
     <use x="1433.0997467041016" xlink:href="#SourceSansPro-Regular-79"/>
     <use x="1479.7997436523438" xlink:href="#SourceSansPro-Regular-20"/>
     <use x="1499.999740600586" xlink:href="#SourceSansPro-Regular-73"/>
     <use x="1541.8997344970703" xlink:href="#SourceSansPro-Regular-65"/>
     <use x="1591.4997253417969" xlink:href="#SourceSansPro-Regular-63"/>
     <use x="1637.0997161865234" xlink:href="#SourceSansPro-Regular-74"/>
     <use x="1670.8997039794922" xlink:href="#SourceSansPro-Regular-69"/>
     <use x="1695.4996948242188" xlink:href="#SourceSansPro-Regular-6f"/>
     <use x="1749.699691772461" xlink:href="#SourceSansPro-Regular-6e"/>
    </g>
   </g>
   <g id="legend_1">
    <g id="patch_13">
     <path d="M 410.418375 84.9839 
L 490.887375 84.9839 
L 490.887375 39.8534 
L 410.418375 39.8534 
z
" style="fill:#f7f8f9;stroke:#000000;stroke-linejoin:miter;"/>
    </g>
    <g id="patch_14">
     <path d="M 416.178375 55.86665 
L 444.978375 55.86665 
L 444.978375 45.78665 
L 416.178375 45.78665 
z
" style="fill:#1369bf;"/>
    </g>
    <g id="text_18">
     <!-- 2015 -->
     <g transform="translate(456.498375 55.86665)scale(0.144 -0.144)">
      <use xlink:href="#SourceSansPro-Regular-32"/>
      <use x="49.69999694824219" xlink:href="#SourceSansPro-Regular-30"/>
      <use x="99.39999389648438" xlink:href="#SourceSansPro-Regular-31"/>
      <use x="149.09999084472656" xlink:href="#SourceSansPro-Regular-35"/>
     </g>
    </g>
    <g id="patch_15">
     <path d="M 416.178375 76.2719 
L 444.978375 76.2719 
L 444.978375 66.1919 
L 416.178375 66.1919 
z
" style="fill:#bd3338;"/>
    </g>
    <g id="text_19">
     <!-- 2016 -->
     <g transform="translate(456.498375 76.2719)scale(0.144 -0.144)">
      <use xlink:href="#SourceSansPro-Regular-32"/>
      <use x="49.69999694824219" xlink:href="#SourceSansPro-Regular-30"/>
      <use x="99.39999389648438" xlink:href="#SourceSansPro-Regular-31"/>
      <use x="149.09999084472656" xlink:href="#SourceSansPro-Regular-36"/>
     </g>
    </g>
   </g>
  </g>
 </g>
 <defs>
  <clipPath id="pa495930c66">
   <rect height="345.6" width="446.4" x="53.298375" y="33.1439"/>
  </clipPath>
 </defs>
</svg>
