<?xml version="1.0" encoding="utf-8" standalone="no"?>
<!DOCTYPE svg PUBLIC "-//W3C//DTD SVG 1.1//EN"
  "http://www.w3.org/Graphics/SVG/1.1/DTD/svg11.dtd">
<!-- Created with matplotlib (http://matplotlib.org/) -->
<svg height="425pt" version="1.1" viewBox="0 0 637 425" width="637pt" xmlns="http://www.w3.org/2000/svg" xmlns:xlink="http://www.w3.org/1999/xlink">
 <defs>
  <style type="text/css">
*{stroke-linecap:butt;stroke-linejoin:round;stroke-miterlimit:100000;}
  </style>
 </defs>
 <g id="figure_1">
  <g id="patch_1">
   <path d="M 0 425.500025 
L 637.947813 425.500025 
L 637.947813 0 
L 0 0 
L 0 425.500025 
z
" style="fill:none;"/>
  </g>
  <g id="axes_1">
   <g id="patch_2">
    <path d="M 119.60125 378.7439 
L 621.80125 378.7439 
L 621.80125 33.1439 
L 119.60125 33.1439 
L 119.60125 378.7439 
z
" style="fill:none;"/>
   </g>
   <g id="matplotlib.axis_1">
    <g id="xtick_1">
     <g id="line2d_1">
      <path clip-path="url(#p8e79e7582a)" d="M 119.60125 378.7439 
L 119.60125 33.1439 
" style="fill:none;stroke:#8fa7bf;stroke-linecap:square;stroke-width:0.5;"/>
     </g>
     <g id="text_1">
      <!-- 0 -->
      <defs>
       <path d="M 24.90625 -1.203125 
C 37.59375 -1.203125 45.296875 10.703125 45.296875 32.09375 
C 45.296875 53.5 37.59375 65 24.90625 65 
C 12.09375 65 4.40625 53.5 4.40625 32.09375 
C 4.40625 10.703125 12.09375 -1.203125 24.90625 -1.203125 
M 24.90625 5.40625 
C 17.40625 5.40625 12.40625 13.40625 12.40625 32.09375 
C 12.40625 50.796875 17.40625 58.40625 24.90625 58.40625 
C 32.296875 58.40625 37.296875 50.796875 37.296875 32.09375 
C 37.296875 13.40625 32.296875 5.40625 24.90625 5.40625 
" id="SourceSansPro-Regular-30"/>
      </defs>
      <g transform="translate(116.6190625 397.288275)scale(0.12 -0.12)">
       <use xlink:href="#SourceSansPro-Regular-30"/>
      </g>
     </g>
    </g>
    <g id="xtick_2">
     <g id="line2d_2">
      <path clip-path="url(#p8e79e7582a)" d="M 191.344107 378.7439 
L 191.344107 33.1439 
" style="fill:none;stroke:#8fa7bf;stroke-linecap:square;stroke-width:0.5;"/>
     </g>
     <g id="text_2">
      <!-- 50 -->
      <defs>
       <path d="M 2.5 7.5 
C 6.90625 3.09375 13.203125 -1.203125 23.40625 -1.203125 
C 34.5 -1.203125 44.90625 6.59375 44.90625 20.40625 
C 44.90625 34.203125 36 40.40625 25.09375 40.40625 
C 21.203125 40.40625 18.296875 39.40625 15.296875 37.796875 
L 17 56.703125 
L 41.703125 56.703125 
L 41.703125 63.796875 
L 9.796875 63.796875 
L 7.703125 33.09375 
L 12.09375 30.296875 
C 15.90625 32.796875 18.59375 34.203125 23 34.203125 
C 31.203125 34.203125 36.59375 29 36.59375 20.203125 
C 36.59375 11.296875 30.40625 5.59375 22.59375 5.59375 
C 15.09375 5.59375 10.296875 9.09375 6.5 12.90625 
z
" id="SourceSansPro-Regular-35"/>
      </defs>
      <g transform="translate(185.379732143 397.288275)scale(0.12 -0.12)">
       <use xlink:href="#SourceSansPro-Regular-35"/>
       <use x="49.69999694824219" xlink:href="#SourceSansPro-Regular-30"/>
      </g>
     </g>
    </g>
    <g id="xtick_3">
     <g id="line2d_3">
      <path clip-path="url(#p8e79e7582a)" d="M 263.086964 378.7439 
L 263.086964 33.1439 
" style="fill:none;stroke:#8fa7bf;stroke-linecap:square;stroke-width:0.5;"/>
     </g>
     <g id="text_3">
      <!-- 100 -->
      <defs>
       <path d="M 7.90625 0 
L 43.90625 0 
L 43.90625 6.796875 
L 30.703125 6.796875 
L 30.703125 63.796875 
L 24.40625 63.796875 
C 20.90625 61.703125 16.703125 60.09375 10.90625 59.09375 
L 10.90625 53.796875 
L 22.5 53.796875 
L 22.5 6.796875 
L 7.90625 6.796875 
z
" id="SourceSansPro-Regular-31"/>
      </defs>
      <g transform="translate(254.140401786 397.288275)scale(0.12 -0.12)">
       <use xlink:href="#SourceSansPro-Regular-31"/>
       <use x="49.69999694824219" xlink:href="#SourceSansPro-Regular-30"/>
       <use x="99.39999389648438" xlink:href="#SourceSansPro-Regular-30"/>
      </g>
     </g>
    </g>
    <g id="xtick_4">
     <g id="line2d_4">
      <path clip-path="url(#p8e79e7582a)" d="M 334.829821 378.7439 
L 334.829821 33.1439 
" style="fill:none;stroke:#8fa7bf;stroke-linecap:square;stroke-width:0.5;"/>
     </g>
     <g id="text_4">
      <!-- 150 -->
      <g transform="translate(325.883258929 397.288275)scale(0.12 -0.12)">
       <use xlink:href="#SourceSansPro-Regular-31"/>
       <use x="49.69999694824219" xlink:href="#SourceSansPro-Regular-35"/>
       <use x="99.39999389648438" xlink:href="#SourceSansPro-Regular-30"/>
      </g>
     </g>
    </g>
    <g id="xtick_5">
     <g id="line2d_5">
      <path clip-path="url(#p8e79e7582a)" d="M 406.572679 378.7439 
L 406.572679 33.1439 
" style="fill:none;stroke:#8fa7bf;stroke-linecap:square;stroke-width:0.5;"/>
     </g>
     <g id="text_5">
      <!-- 200 -->
      <defs>
       <path d="M 4 0 
L 45.203125 0 
L 45.203125 7.09375 
L 26.703125 7.09375 
C 23.40625 7.09375 19.5 6.796875 16 6.5 
C 31.09375 22.296875 42 34.203125 42 46.203125 
C 42 57.5 34.703125 65 22.90625 65 
C 14.59375 65 8.90625 61.09375 3.59375 55.296875 
L 8.296875 50.59375 
C 12 54.90625 16.59375 58.296875 21.90625 58.296875 
C 30 58.296875 34 53.09375 34 45.796875 
C 34 35.5 23.203125 24 4 4.90625 
z
" id="SourceSansPro-Regular-32"/>
      </defs>
      <g transform="translate(397.626116071 397.288275)scale(0.12 -0.12)">
       <use xlink:href="#SourceSansPro-Regular-32"/>
       <use x="49.69999694824219" xlink:href="#SourceSansPro-Regular-30"/>
       <use x="99.39999389648438" xlink:href="#SourceSansPro-Regular-30"/>
      </g>
     </g>
    </g>
    <g id="xtick_6">
     <g id="line2d_6">
      <path clip-path="url(#p8e79e7582a)" d="M 478.315536 378.7439 
L 478.315536 33.1439 
" style="fill:none;stroke:#8fa7bf;stroke-linecap:square;stroke-width:0.5;"/>
     </g>
     <g id="text_6">
      <!-- 250 -->
      <g transform="translate(469.368973214 397.288275)scale(0.12 -0.12)">
       <use xlink:href="#SourceSansPro-Regular-32"/>
       <use x="49.69999694824219" xlink:href="#SourceSansPro-Regular-35"/>
       <use x="99.39999389648438" xlink:href="#SourceSansPro-Regular-30"/>
      </g>
     </g>
    </g>
    <g id="xtick_7">
     <g id="line2d_7">
      <path clip-path="url(#p8e79e7582a)" d="M 550.058393 378.7439 
L 550.058393 33.1439 
" style="fill:none;stroke:#8fa7bf;stroke-linecap:square;stroke-width:0.5;"/>
     </g>
     <g id="text_7">
      <!-- 300 -->
      <defs>
       <path d="M 2.59375 7.796875 
C 6.90625 3.09375 13.40625 -1.203125 23.59375 -1.203125 
C 35.296875 -1.203125 44.59375 5.703125 44.59375 17 
C 44.59375 25.796875 38.5 31.40625 30.796875 33.203125 
L 30.796875 33.59375 
C 37.703125 36.203125 42.40625 41.09375 42.40625 48.796875 
C 42.40625 59.09375 34.40625 65 23.296875 65 
C 15.796875 65 9.90625 61.59375 5 57 
L 9.40625 51.796875 
C 13.203125 55.59375 17.703125 58.296875 23 58.296875 
C 29.796875 58.296875 34 54.40625 34 48.203125 
C 34 41.5 29.5 36.296875 15.90625 36.296875 
L 15.90625 30 
C 31.09375 30 36.296875 24.90625 36.296875 17.296875 
C 36.296875 10.203125 30.796875 5.59375 23.09375 5.59375 
C 15.59375 5.59375 10.59375 9.203125 6.796875 13.203125 
z
" id="SourceSansPro-Regular-33"/>
      </defs>
      <g transform="translate(541.111830357 397.288275)scale(0.12 -0.12)">
       <use xlink:href="#SourceSansPro-Regular-33"/>
       <use x="49.69999694824219" xlink:href="#SourceSansPro-Regular-30"/>
       <use x="99.39999389648438" xlink:href="#SourceSansPro-Regular-30"/>
      </g>
     </g>
    </g>
    <g id="xtick_8">
     <g id="line2d_8">
      <path clip-path="url(#p8e79e7582a)" d="M 621.80125 378.7439 
L 621.80125 33.1439 
" style="fill:none;stroke:#8fa7bf;stroke-linecap:square;stroke-width:0.5;"/>
     </g>
     <g id="text_8">
      <!-- 350 -->
      <g transform="translate(612.8546875 397.288275)scale(0.12 -0.12)">
       <use xlink:href="#SourceSansPro-Regular-33"/>
       <use x="49.69999694824219" xlink:href="#SourceSansPro-Regular-35"/>
       <use x="99.39999389648438" xlink:href="#SourceSansPro-Regular-30"/>
      </g>
     </g>
    </g>
    <g id="text_9">
     <!-- Number of journeys -->
     <defs>
      <path d="M 8.203125 0 
L 16.40625 0 
L 16.40625 35.203125 
C 20.90625 40.203125 25 42.703125 28.59375 42.703125 
C 34.796875 42.703125 37.703125 38.796875 37.703125 29.703125 
L 37.703125 0 
L 45.90625 0 
L 45.90625 35.203125 
C 50.40625 40.203125 54.296875 42.703125 58.09375 42.703125 
C 64.203125 42.703125 67.09375 38.796875 67.09375 29.703125 
L 67.09375 0 
L 75.296875 0 
L 75.296875 30.796875 
C 75.296875 43.203125 70.5 49.796875 60.5 49.796875 
C 54.59375 49.796875 49.59375 46 44.5 40.5 
C 42.5 46.296875 38.5 49.796875 31.09375 49.796875 
C 25.296875 49.796875 20.203125 46.203125 16 41.59375 
L 15.703125 41.59375 
L 15 48.59375 
L 8.203125 48.59375 
z
" id="SourceSansPro-Regular-6d"/>
      <path d="M 8.203125 0 
L 16.40625 0 
L 16.40625 31.203125 
C 19.703125 39.40625 24.59375 42.40625 28.703125 42.40625 
C 30.703125 42.40625 31.796875 42.09375 33.40625 41.59375 
L 35 48.796875 
C 33.40625 49.5 31.90625 49.796875 29.796875 49.796875 
C 24.296875 49.796875 19.296875 45.90625 16 39.796875 
L 15.703125 39.796875 
L 15 48.59375 
L 8.203125 48.59375 
z
" id="SourceSansPro-Regular-72"/>
      <path d="M 9 0 
L 16.90625 0 
L 16.90625 34.296875 
C 16.90625 41.203125 16.296875 48.203125 15.796875 54.796875 
L 16.203125 54.796875 
L 23.296875 41.296875 
L 47.09375 0 
L 55.703125 0 
L 55.703125 65.59375 
L 47.796875 65.59375 
L 47.796875 31.703125 
C 47.796875 24.796875 48.40625 17.40625 48.796875 10.796875 
L 48.40625 10.796875 
L 41.296875 24.40625 
L 17.59375 65.59375 
L 9 65.59375 
z
" id="SourceSansPro-Regular-4e"/>
      <path d="M 4.59375 24.203125 
C 4.59375 8.09375 15.203125 -1.203125 27.09375 -1.203125 
C 39 -1.203125 49.59375 8.09375 49.59375 24.203125 
C 49.59375 40.5 39 49.796875 27.09375 49.796875 
C 15.203125 49.796875 4.59375 40.5 4.59375 24.203125 
M 13.09375 24.203125 
C 13.09375 35.40625 18.796875 43 27.09375 43 
C 35.5 43 41.09375 35.40625 41.09375 24.203125 
C 41.09375 13.09375 35.5 5.59375 27.09375 5.59375 
C 18.796875 5.59375 13.09375 13.09375 13.09375 24.203125 
" id="SourceSansPro-Regular-6f"/>
      <path d="M 31.90625 70.796875 
C 29.703125 71.703125 26.796875 72.40625 23.796875 72.40625 
C 14.09375 72.40625 9.59375 66.203125 9.59375 56.296875 
L 9.59375 48.59375 
L 3 48.09375 
L 3 41.90625 
L 9.59375 41.90625 
L 9.59375 0 
L 17.796875 0 
L 17.796875 41.90625 
L 28.09375 41.90625 
L 28.09375 48.59375 
L 17.796875 48.59375 
L 17.796875 56.296875 
C 17.796875 62.5 20 65.703125 24.59375 65.703125 
C 26.40625 65.703125 28.296875 65.296875 30.09375 64.5 
z
" id="SourceSansPro-Regular-66"/>
      <path d="M 8.203125 0 
L 14.796875 0 
L 15.5 4.796875 
L 15.796875 4.796875 
C 20.09375 1 25.203125 -1.203125 29.703125 -1.203125 
C 40.796875 -1.203125 50.703125 8.5 50.703125 25.09375 
C 50.703125 40.09375 44 49.796875 31.40625 49.796875 
C 26 49.796875 20.59375 46.90625 16.203125 43 
L 16.40625 51.796875 
L 16.40625 71.203125 
L 8.203125 71.203125 
z
M 16.40625 10.796875 
L 16.40625 36.296875 
C 21 40.59375 25.296875 42.90625 29.40625 42.90625 
C 38.59375 42.90625 42.203125 35.703125 42.203125 25 
C 42.203125 13 36.296875 5.703125 28.296875 5.703125 
C 25.09375 5.703125 20.703125 7.09375 16.40625 10.796875 
" id="SourceSansPro-Regular-62"/>
      <path d="M 7.5 17.796875 
C 7.5 5.40625 12.09375 -1.203125 22.40625 -1.203125 
C 29.09375 -1.203125 33.90625 2.296875 38.40625 7.59375 
L 38.703125 7.59375 
L 39.40625 0 
L 46.203125 0 
L 46.203125 48.59375 
L 38 48.59375 
L 38 14.09375 
C 33.40625 8.40625 29.90625 5.90625 24.90625 5.90625 
C 18.5 5.90625 15.796875 9.796875 15.796875 18.90625 
L 15.796875 48.59375 
L 7.5 48.59375 
z
" id="SourceSansPro-Regular-75"/>
      <path d="M 2.796875 5.5 
C 7.40625 1.703125 14 -1.203125 20.90625 -1.203125 
C 32.40625 -1.203125 38.703125 5.40625 38.703125 13.296875 
C 38.703125 22.5 30.90625 25.40625 23.90625 28 
C 18.40625 30.09375 13.09375 31.796875 13.09375 36.40625 
C 13.09375 40.09375 15.90625 43.40625 22 43.40625 
C 26.296875 43.40625 29.796875 41.59375 33.09375 39.09375 
L 37 44.296875 
C 33.296875 47.296875 28 49.796875 21.90625 49.796875 
C 11.40625 49.796875 5.203125 43.796875 5.203125 36 
C 5.203125 27.796875 12.796875 24.5 19.703125 22 
C 25 20 30.796875 17.796875 30.796875 12.796875 
C 30.796875 8.59375 27.59375 5.203125 21.203125 5.203125 
C 15.40625 5.203125 11.09375 7.59375 6.90625 11 
z
" id="SourceSansPro-Regular-73"/>
      <path id="SourceSansPro-Regular-20"/>
      <path d="M 8.203125 0 
L 16.40625 0 
L 16.40625 35.203125 
C 21.296875 40.09375 24.703125 42.703125 29.703125 42.703125 
C 36.09375 42.703125 38.90625 38.796875 38.90625 29.703125 
L 38.90625 0 
L 47.09375 0 
L 47.09375 30.796875 
C 47.09375 43.203125 42.5 49.796875 32.296875 49.796875 
C 25.59375 49.796875 20.59375 46.203125 16 41.59375 
L 15.703125 41.59375 
L 15 48.59375 
L 8.203125 48.59375 
z
" id="SourceSansPro-Regular-6e"/>
      <path d="M 8.296875 -5.5 
C 8.296875 -11.40625 7.09375 -15 2.296875 -15 
C 0.59375 -15 -1.09375 -14.59375 -2.296875 -14.203125 
L -4 -20.40625 
C -2.296875 -21.09375 0.203125 -21.703125 3.203125 -21.703125 
C 12.90625 -21.703125 16.5 -15.40625 16.5 -5.5 
L 16.5 48.59375 
L 8.296875 48.59375 
z
M 12.5 58.59375 
C 15.59375 58.59375 18.09375 60.796875 18.09375 63.90625 
C 18.09375 67.09375 15.59375 69.203125 12.5 69.203125 
C 9.296875 69.203125 6.796875 67.09375 6.796875 63.90625 
C 6.796875 60.796875 9.296875 58.59375 12.5 58.59375 
" id="SourceSansPro-Regular-6a"/>
      <path d="M 4.59375 24.203125 
C 4.59375 8.296875 14.90625 -1.203125 27.90625 -1.203125 
C 34.5 -1.203125 39.703125 1.09375 43.90625 3.796875 
L 41 9.203125 
C 37.40625 6.90625 33.5 5.40625 28.90625 5.40625 
C 19.59375 5.40625 13.296875 12 12.703125 22.5 
L 45.5 22.5 
C 45.703125 23.703125 45.796875 25.296875 45.796875 27 
C 45.796875 40.90625 38.796875 49.796875 26.40625 49.796875 
C 15.296875 49.796875 4.59375 40.09375 4.59375 24.203125 
M 12.59375 27.90625 
C 13.59375 37.703125 19.796875 43.296875 26.59375 43.296875 
C 34.203125 43.296875 38.59375 37.796875 38.59375 27.90625 
z
" id="SourceSansPro-Regular-65"/>
      <path d="M 4.90625 -13.40625 
L 3.296875 -19.90625 
C 4.90625 -20.5 6.796875 -20.90625 9 -20.90625 
C 18.796875 -20.90625 23.796875 -13.59375 27.203125 -4 
L 45.5 48.59375 
L 37.5 48.59375 
L 28.796875 21.703125 
C 27.5 17.40625 26.09375 12.40625 24.703125 8 
L 24.296875 8 
C 22.796875 12.5 21.09375 17.5 19.59375 21.703125 
L 9.703125 48.59375 
L 1.203125 48.59375 
L 20.703125 -0.09375 
L 19.59375 -3.703125 
C 17.59375 -9.703125 14.09375 -14.09375 8.59375 -14.09375 
C 7.40625 -14.09375 5.90625 -13.703125 4.90625 -13.40625 
" id="SourceSansPro-Regular-79"/>
     </defs>
     <g transform="translate(311.189875 415.174775)scale(0.144 -0.144)">
      <use xlink:href="#SourceSansPro-Regular-4e"/>
      <use x="64.69999694824219" xlink:href="#SourceSansPro-Regular-75"/>
      <use x="119.09999084472656" xlink:href="#SourceSansPro-Regular-6d"/>
      <use x="201.99998474121094" xlink:href="#SourceSansPro-Regular-62"/>
      <use x="257.4999694824219" xlink:href="#SourceSansPro-Regular-65"/>
      <use x="307.09996032714844" xlink:href="#SourceSansPro-Regular-72"/>
      <use x="341.7999572753906" xlink:href="#SourceSansPro-Regular-20"/>
      <use x="361.9999542236328" xlink:href="#SourceSansPro-Regular-6f"/>
      <use x="416.199951171875" xlink:href="#SourceSansPro-Regular-66"/>
      <use x="445.3999481201172" xlink:href="#SourceSansPro-Regular-20"/>
      <use x="465.5999450683594" xlink:href="#SourceSansPro-Regular-6a"/>
      <use x="490.29994201660156" xlink:href="#SourceSansPro-Regular-6f"/>
      <use x="544.4999389648438" xlink:href="#SourceSansPro-Regular-75"/>
      <use x="598.8999328613281" xlink:href="#SourceSansPro-Regular-72"/>
      <use x="633.5999298095703" xlink:href="#SourceSansPro-Regular-6e"/>
      <use x="688.2999267578125" xlink:href="#SourceSansPro-Regular-65"/>
      <use x="737.8999176025391" xlink:href="#SourceSansPro-Regular-79"/>
      <use x="784.5999145507812" xlink:href="#SourceSansPro-Regular-73"/>
     </g>
    </g>
   </g>
   <g id="matplotlib.axis_2">
    <g id="ytick_1">
     <g id="text_10">
      <!-- Highbury &amp; Islington -->
      <defs>
       <path d="M 9.59375 15 
C 9.59375 5.40625 13.09375 -1.203125 23.5 -1.203125 
C 26.5 -1.203125 29.796875 -0.296875 32.5 0.59375 
L 30.90625 6.796875 
C 29.296875 6.203125 27.09375 5.5 25.40625 5.5 
C 19.796875 5.5 17.90625 8.90625 17.90625 14.90625 
L 17.90625 41.90625 
L 31 41.90625 
L 31 48.59375 
L 17.90625 48.59375 
L 17.90625 62.203125 
L 11 62.203125 
L 10 48.59375 
L 2.40625 48.09375 
L 2.40625 41.90625 
L 9.59375 41.90625 
z
" id="SourceSansPro-Regular-74"/>
       <path d="M 11.203125 17.5 
C 11.203125 22.59375 14.796875 26.5 19.40625 30.203125 
C 24 23.203125 30.203125 16.296875 36.59375 10.703125 
C 32.796875 7.40625 28.59375 5.40625 24.09375 5.40625 
C 16.90625 5.40625 11.203125 10.203125 11.203125 17.5 
M 18.90625 51.40625 
C 18.90625 56.796875 22.09375 60.90625 27 60.90625 
C 31.40625 60.90625 33.203125 57.5 33.203125 53.703125 
C 33.203125 47.90625 28 43.90625 22 39.90625 
C 20.09375 43.90625 18.90625 47.796875 18.90625 51.40625 
M 59.40625 5.59375 
C 55.796875 6.59375 51.59375 8.796875 47.09375 11.90625 
C 52.296875 18.796875 56 26.796875 58.59375 35.40625 
L 50.90625 35.40625 
C 48.90625 27.90625 45.703125 21.40625 41.703125 16 
C 35.5 21.203125 29.40625 27.703125 25.09375 34.40625 
C 32.40625 39.703125 39.90625 45.203125 39.90625 53.796875 
C 39.90625 61.5 35.09375 66.796875 27 66.796875 
C 17.90625 66.796875 11.796875 60 11.796875 51.296875 
C 11.796875 46.5 13.40625 41.296875 16.09375 35.90625 
C 9.40625 31.296875 3.203125 25.796875 3.203125 17 
C 3.203125 6.40625 11.296875 -1.203125 23.203125 -1.203125 
C 30.90625 -1.203125 37.09375 1.796875 42.09375 6.296875 
C 47.40625 2.59375 52.59375 0.09375 57.203125 -1.203125 
z
" id="SourceSansPro-Regular-26"/>
       <path d="M 11.703125 -8.203125 
C 11.703125 -5.40625 13.203125 -2.5 16.703125 0 
C 18.796875 -0.59375 21.09375 -0.796875 23 -0.796875 
L 31.40625 -0.796875 
C 37.703125 -0.796875 41.203125 -2.296875 41.203125 -6.796875 
C 41.203125 -11.90625 35.09375 -16.703125 25.796875 -16.703125 
C 17 -16.703125 11.703125 -13.40625 11.703125 -8.203125 
M 4.5 -9.296875 
C 4.5 -17.703125 12.703125 -22.40625 24.59375 -22.40625 
C 39.703125 -22.40625 49.203125 -14.59375 49.203125 -5.59375 
C 49.203125 2.5 43.5 6 32.203125 6 
L 22.796875 6 
C 16.203125 6 14.203125 8.203125 14.203125 11.296875 
C 14.203125 14 15.59375 15.59375 17.296875 17.09375 
C 19.5 16 22.203125 15.40625 24.59375 15.40625 
C 34.5 15.40625 42.40625 21.90625 42.40625 32.296875 
C 42.40625 36.40625 40.703125 40.09375 38.40625 42.296875 
L 48.40625 42.296875 
L 48.40625 48.59375 
L 31.5 48.59375 
C 29.703125 49.296875 27.296875 49.796875 24.59375 49.796875 
C 14.703125 49.796875 6.296875 43.09375 6.296875 32.5 
C 6.296875 26.703125 9.40625 22 12.59375 19.40625 
L 12.59375 19 
C 10.09375 17.296875 7.296875 14.09375 7.296875 10 
C 7.296875 6.203125 9.203125 3.59375 11.59375 2.09375 
L 11.59375 1.703125 
C 7.203125 -1.296875 4.5 -5.203125 4.5 -9.296875 
M 24.59375 20.90625 
C 19 20.90625 14.296875 25.40625 14.296875 32.5 
C 14.296875 39.59375 18.90625 43.796875 24.59375 43.796875 
C 30.296875 43.796875 34.90625 39.59375 34.90625 32.5 
C 34.90625 25.40625 30.203125 20.90625 24.59375 20.90625 
" id="SourceSansPro-Regular-67"/>
       <path d="M 8.203125 9.796875 
C 8.203125 2.703125 10.703125 -1.203125 16.90625 -1.203125 
C 19.09375 -1.203125 20.5 -0.90625 21.59375 -0.40625 
L 20.5 5.796875 
C 19.59375 5.59375 19.203125 5.59375 18.703125 5.59375 
C 17.5 5.59375 16.40625 6.59375 16.40625 9.203125 
L 16.40625 71.203125 
L 8.203125 71.203125 
z
" id="SourceSansPro-Regular-6c"/>
       <path d="M 12.40625 58.59375 
C 15.59375 58.59375 18.09375 60.796875 18.09375 63.90625 
C 18.09375 67.09375 15.59375 69.203125 12.40625 69.203125 
C 9.203125 69.203125 6.703125 67.09375 6.703125 63.90625 
C 6.703125 60.796875 9.203125 58.59375 12.40625 58.59375 
M 8.203125 0 
L 16.40625 0 
L 16.40625 48.59375 
L 8.203125 48.59375 
z
" id="SourceSansPro-Regular-69"/>
       <path d="M 9 0 
L 17.296875 0 
L 17.296875 65.59375 
L 9 65.59375 
z
" id="SourceSansPro-Regular-49"/>
       <path d="M 9 0 
L 17.296875 0 
L 17.296875 30.90625 
L 47.796875 30.90625 
L 47.796875 0 
L 56.203125 0 
L 56.203125 65.59375 
L 47.796875 65.59375 
L 47.796875 38.09375 
L 17.296875 38.09375 
L 17.296875 65.59375 
L 9 65.59375 
z
" id="SourceSansPro-Regular-48"/>
       <path d="M 8.203125 0 
L 16.40625 0 
L 16.40625 35.203125 
C 21.296875 40.09375 24.703125 42.703125 29.703125 42.703125 
C 36.09375 42.703125 38.90625 38.796875 38.90625 29.703125 
L 38.90625 0 
L 47.09375 0 
L 47.09375 30.796875 
C 47.09375 43.203125 42.5 49.796875 32.296875 49.796875 
C 25.59375 49.796875 20.703125 46.203125 16.09375 41.796875 
L 16.40625 51.796875 
L 16.40625 71.203125 
L 8.203125 71.203125 
z
" id="SourceSansPro-Regular-68"/>
      </defs>
      <g transform="translate(7.2 359.0134625)scale(0.12 -0.12)">
       <use xlink:href="#SourceSansPro-Regular-48"/>
       <use x="65.19999694824219" xlink:href="#SourceSansPro-Regular-69"/>
       <use x="89.79998779296875" xlink:href="#SourceSansPro-Regular-67"/>
       <use x="140.19998168945312" xlink:href="#SourceSansPro-Regular-68"/>
       <use x="194.5999755859375" xlink:href="#SourceSansPro-Regular-62"/>
       <use x="250.09996032714844" xlink:href="#SourceSansPro-Regular-75"/>
       <use x="304.4999542236328" xlink:href="#SourceSansPro-Regular-72"/>
       <use x="339.199951171875" xlink:href="#SourceSansPro-Regular-79"/>
       <use x="385.8999481201172" xlink:href="#SourceSansPro-Regular-20"/>
       <use x="406.0999450683594" xlink:href="#SourceSansPro-Regular-26"/>
       <use x="466.99993896484375" xlink:href="#SourceSansPro-Regular-20"/>
       <use x="487.19993591308594" xlink:href="#SourceSansPro-Regular-49"/>
       <use x="513.4999237060547" xlink:href="#SourceSansPro-Regular-73"/>
       <use x="555.3999176025391" xlink:href="#SourceSansPro-Regular-6c"/>
       <use x="580.89990234375" xlink:href="#SourceSansPro-Regular-69"/>
       <use x="605.4998931884766" xlink:href="#SourceSansPro-Regular-6e"/>
       <use x="660.1998901367188" xlink:href="#SourceSansPro-Regular-67"/>
       <use x="710.5998840332031" xlink:href="#SourceSansPro-Regular-74"/>
       <use x="744.3998718261719" xlink:href="#SourceSansPro-Regular-6f"/>
       <use x="798.5998687744141" xlink:href="#SourceSansPro-Regular-6e"/>
      </g>
      <!-- ←→ Woolwich -->
      <defs>
       <path d="M 15.90625 0 
L 25.5 0 
L 32.296875 26 
C 33.59375 30.59375 34.59375 35.203125 35.703125 40.09375 
L 36.09375 40.09375 
C 37.296875 35.203125 38.203125 30.703125 39.40625 26.09375 
L 46.40625 0 
L 56.40625 0 
L 69.40625 48.59375 
L 61.59375 48.59375 
L 54.5 20.5 
C 53.5 15.90625 52.59375 11.5 51.5 7 
L 51.09375 7 
C 50 11.5 48.90625 15.90625 47.703125 20.5 
L 40.09375 48.59375 
L 32.09375 48.59375 
L 24.59375 20.5 
C 23.40625 16 22.40625 11.5 21.296875 7 
L 20.90625 7 
C 20 11.5 19.09375 15.90625 18 20.5 
L 10.796875 48.59375 
L 2.40625 48.59375 
z
" id="SourceSansPro-Regular-77"/>
       <path d="M 2.59375 25 
L 29.90625 -1.5 
L 34.09375 3.09375 
L 14 21.796875 
L 57.90625 21.796875 
L 57.90625 28.59375 
L 14 28.59375 
L 34.09375 47.296875 
L 29.90625 51.90625 
L 2.59375 25.40625 
z
" id="SourceSansPro-Regular-2190"/>
       <path d="M 59.09375 25.40625 
L 31.90625 51.90625 
L 27.59375 47.296875 
L 47.703125 28.59375 
L 3.90625 28.59375 
L 3.90625 21.796875 
L 47.703125 21.796875 
L 27.59375 3.09375 
L 31.90625 -1.5 
L 59.09375 25 
z
" id="SourceSansPro-Regular-2192"/>
       <path d="M 16.203125 0 
L 26.09375 0 
L 35.796875 39.5 
C 36.90625 44.59375 38.09375 49.296875 39.09375 54.40625 
L 39.5 54.40625 
C 40.5 49.296875 41.5 44.59375 42.703125 39.5 
L 52.59375 0 
L 62.59375 0 
L 76.203125 65.59375 
L 68.203125 65.59375 
L 61.296875 29.90625 
C 60 22.90625 58.796875 15.796875 57.59375 8.703125 
L 57.203125 8.703125 
C 55.59375 15.796875 54 23 52.40625 29.90625 
L 43.296875 65.59375 
L 35.703125 65.59375 
L 26.59375 29.90625 
C 25.09375 22.90625 23.5 15.796875 22 8.703125 
L 21.59375 8.703125 
C 20.40625 15.796875 19 22.796875 17.796875 29.90625 
L 10.90625 65.59375 
L 2.296875 65.59375 
z
" id="SourceSansPro-Regular-57"/>
       <path d="M 4.59375 24.203125 
C 4.59375 8.09375 14.5 -1.203125 27.40625 -1.203125 
C 33.203125 -1.203125 38.796875 1.203125 43.203125 5.09375 
L 39.5 10.5 
C 36.59375 7.90625 32.703125 5.59375 28.09375 5.59375 
C 19.203125 5.59375 13.09375 13.09375 13.09375 24.203125 
C 13.09375 35.40625 19.5 43 28.296875 43 
C 32.203125 43 35.203125 41.203125 38.09375 38.703125 
L 42.203125 44 
C 38.90625 47.09375 34.40625 49.796875 28 49.796875 
C 15.5 49.796875 4.59375 40.5 4.59375 24.203125 
" id="SourceSansPro-Regular-63"/>
      </defs>
      <g transform="translate(43.2525 371.9554625)scale(0.12 -0.12)">
       <use xlink:href="#SourceSansPro-Regular-2190"/>
       <use x="61.899993896484375" xlink:href="#SourceSansPro-Regular-2192"/>
       <use x="123.79998779296875" xlink:href="#SourceSansPro-Regular-20"/>
       <use x="143.99998474121094" xlink:href="#SourceSansPro-Regular-57"/>
       <use x="222.5999755859375" xlink:href="#SourceSansPro-Regular-6f"/>
       <use x="276.7999725341797" xlink:href="#SourceSansPro-Regular-6f"/>
       <use x="330.9999694824219" xlink:href="#SourceSansPro-Regular-6c"/>
       <use x="356.4999542236328" xlink:href="#SourceSansPro-Regular-77"/>
       <use x="428.29994201660156" xlink:href="#SourceSansPro-Regular-69"/>
       <use x="452.8999328613281" xlink:href="#SourceSansPro-Regular-63"/>
       <use x="498.4999237060547" xlink:href="#SourceSansPro-Regular-68"/>
      </g>
     </g>
    </g>
    <g id="ytick_2">
     <g id="text_11">
      <!-- Hackney Wick ←→ -->
      <defs>
       <path d="M 8.203125 0 
L 16.296875 0 
L 16.296875 12.796875 
L 25.40625 23.40625 
L 39.59375 0 
L 48.59375 0 
L 30.09375 29.09375 
L 46.40625 48.59375 
L 37.296875 48.59375 
L 16.59375 23 
L 16.296875 23 
L 16.296875 71.203125 
L 8.203125 71.203125 
z
" id="SourceSansPro-Regular-6b"/>
       <path d="M 5.796875 12.59375 
C 5.796875 3.90625 11.90625 -1.203125 20.09375 -1.203125 
C 26.09375 -1.203125 31.5 2 36.203125 5.796875 
L 36.40625 5.796875 
L 37.09375 0 
L 43.90625 0 
L 43.90625 29.796875 
C 43.90625 41.90625 38.90625 49.796875 27 49.796875 
C 19.203125 49.796875 12.40625 46.40625 7.90625 43.5 
L 11.203125 37.796875 
C 15 40.40625 20 43 25.703125 43 
C 33.59375 43 35.703125 37 35.703125 30.796875 
C 15 28.5 5.796875 23.203125 5.796875 12.59375 
M 13.90625 13.203125 
C 13.90625 19.40625 19.40625 23.40625 35.703125 25.40625 
L 35.703125 11.90625 
C 31 7.703125 27.09375 5.40625 22.40625 5.40625 
C 17.59375 5.40625 13.90625 7.703125 13.90625 13.203125 
" id="SourceSansPro-Regular-61"/>
      </defs>
      <g transform="translate(22.60125 324.2247125)scale(0.12 -0.12)">
       <use xlink:href="#SourceSansPro-Regular-48"/>
       <use x="65.19999694824219" xlink:href="#SourceSansPro-Regular-61"/>
       <use x="116.39999389648438" xlink:href="#SourceSansPro-Regular-63"/>
       <use x="161.99998474121094" xlink:href="#SourceSansPro-Regular-6b"/>
       <use x="211.49996948242188" xlink:href="#SourceSansPro-Regular-6e"/>
       <use x="266.19996643066406" xlink:href="#SourceSansPro-Regular-65"/>
       <use x="315.7999572753906" xlink:href="#SourceSansPro-Regular-79"/>
       <use x="362.4999542236328" xlink:href="#SourceSansPro-Regular-20"/>
       <use x="382.699951171875" xlink:href="#SourceSansPro-Regular-57"/>
       <use x="461.29994201660156" xlink:href="#SourceSansPro-Regular-69"/>
       <use x="485.8999328613281" xlink:href="#SourceSansPro-Regular-63"/>
       <use x="531.4999237060547" xlink:href="#SourceSansPro-Regular-6b"/>
       <use x="580.9999084472656" xlink:href="#SourceSansPro-Regular-20"/>
       <use x="601.1999053955078" xlink:href="#SourceSansPro-Regular-2190"/>
       <use x="663.0998992919922" xlink:href="#SourceSansPro-Regular-2192"/>
      </g>
      <!-- Highbury &amp; Islington -->
      <g transform="translate(7.2 336.9867125)scale(0.12 -0.12)">
       <use xlink:href="#SourceSansPro-Regular-48"/>
       <use x="65.19999694824219" xlink:href="#SourceSansPro-Regular-69"/>
       <use x="89.79998779296875" xlink:href="#SourceSansPro-Regular-67"/>
       <use x="140.19998168945312" xlink:href="#SourceSansPro-Regular-68"/>
       <use x="194.5999755859375" xlink:href="#SourceSansPro-Regular-62"/>
       <use x="250.09996032714844" xlink:href="#SourceSansPro-Regular-75"/>
       <use x="304.4999542236328" xlink:href="#SourceSansPro-Regular-72"/>
       <use x="339.199951171875" xlink:href="#SourceSansPro-Regular-79"/>
       <use x="385.8999481201172" xlink:href="#SourceSansPro-Regular-20"/>
       <use x="406.0999450683594" xlink:href="#SourceSansPro-Regular-26"/>
       <use x="466.99993896484375" xlink:href="#SourceSansPro-Regular-20"/>
       <use x="487.19993591308594" xlink:href="#SourceSansPro-Regular-49"/>
       <use x="513.4999237060547" xlink:href="#SourceSansPro-Regular-73"/>
       <use x="555.3999176025391" xlink:href="#SourceSansPro-Regular-6c"/>
       <use x="580.89990234375" xlink:href="#SourceSansPro-Regular-69"/>
       <use x="605.4998931884766" xlink:href="#SourceSansPro-Regular-6e"/>
       <use x="660.1998901367188" xlink:href="#SourceSansPro-Regular-67"/>
       <use x="710.5998840332031" xlink:href="#SourceSansPro-Regular-74"/>
       <use x="744.3998718261719" xlink:href="#SourceSansPro-Regular-6f"/>
       <use x="798.5998687744141" xlink:href="#SourceSansPro-Regular-6e"/>
      </g>
     </g>
    </g>
    <g id="ytick_3">
     <g id="text_12">
      <!-- Westminster -->
      <g transform="translate(46.47 289.8934625)scale(0.12 -0.12)">
       <use xlink:href="#SourceSansPro-Regular-57"/>
       <use x="78.59999084472656" xlink:href="#SourceSansPro-Regular-65"/>
       <use x="128.19998168945312" xlink:href="#SourceSansPro-Regular-73"/>
       <use x="170.0999755859375" xlink:href="#SourceSansPro-Regular-74"/>
       <use x="203.89996337890625" xlink:href="#SourceSansPro-Regular-6d"/>
       <use x="286.7999572753906" xlink:href="#SourceSansPro-Regular-69"/>
       <use x="311.3999481201172" xlink:href="#SourceSansPro-Regular-6e"/>
       <use x="366.0999450683594" xlink:href="#SourceSansPro-Regular-73"/>
       <use x="407.99993896484375" xlink:href="#SourceSansPro-Regular-74"/>
       <use x="441.7999267578125" xlink:href="#SourceSansPro-Regular-65"/>
       <use x="491.39991760253906" xlink:href="#SourceSansPro-Regular-72"/>
      </g>
      <!-- ←→ Woolwich -->
      <g transform="translate(43.2525 302.6067125)scale(0.12 -0.12)">
       <use xlink:href="#SourceSansPro-Regular-2190"/>
       <use x="61.899993896484375" xlink:href="#SourceSansPro-Regular-2192"/>
       <use x="123.79998779296875" xlink:href="#SourceSansPro-Regular-20"/>
       <use x="143.99998474121094" xlink:href="#SourceSansPro-Regular-57"/>
       <use x="222.5999755859375" xlink:href="#SourceSansPro-Regular-6f"/>
       <use x="276.7999725341797" xlink:href="#SourceSansPro-Regular-6f"/>
       <use x="330.9999694824219" xlink:href="#SourceSansPro-Regular-6c"/>
       <use x="356.4999542236328" xlink:href="#SourceSansPro-Regular-77"/>
       <use x="428.29994201660156" xlink:href="#SourceSansPro-Regular-69"/>
       <use x="452.8999328613281" xlink:href="#SourceSansPro-Regular-63"/>
       <use x="498.4999237060547" xlink:href="#SourceSansPro-Regular-68"/>
      </g>
     </g>
    </g>
    <g id="ytick_4">
     <g id="text_13">
      <!-- Waterloo ←→ -->
      <g transform="translate(46.50375 255.3334625)scale(0.12 -0.12)">
       <use xlink:href="#SourceSansPro-Regular-57"/>
       <use x="78.59999084472656" xlink:href="#SourceSansPro-Regular-61"/>
       <use x="129.79998779296875" xlink:href="#SourceSansPro-Regular-74"/>
       <use x="163.5999755859375" xlink:href="#SourceSansPro-Regular-65"/>
       <use x="213.19996643066406" xlink:href="#SourceSansPro-Regular-72"/>
       <use x="247.89996337890625" xlink:href="#SourceSansPro-Regular-6c"/>
       <use x="273.3999481201172" xlink:href="#SourceSansPro-Regular-6f"/>
       <use x="327.5999450683594" xlink:href="#SourceSansPro-Regular-6f"/>
       <use x="381.79994201660156" xlink:href="#SourceSansPro-Regular-20"/>
       <use x="401.99993896484375" xlink:href="#SourceSansPro-Regular-2190"/>
       <use x="463.8999328613281" xlink:href="#SourceSansPro-Regular-2192"/>
      </g>
      <!-- Woolwich -->
      <g transform="translate(60.534375 268.0467125)scale(0.12 -0.12)">
       <use xlink:href="#SourceSansPro-Regular-57"/>
       <use x="78.59999084472656" xlink:href="#SourceSansPro-Regular-6f"/>
       <use x="132.79998779296875" xlink:href="#SourceSansPro-Regular-6f"/>
       <use x="186.99998474121094" xlink:href="#SourceSansPro-Regular-6c"/>
       <use x="212.49996948242188" xlink:href="#SourceSansPro-Regular-77"/>
       <use x="284.2999572753906" xlink:href="#SourceSansPro-Regular-69"/>
       <use x="308.8999481201172" xlink:href="#SourceSansPro-Regular-63"/>
       <use x="354.49993896484375" xlink:href="#SourceSansPro-Regular-68"/>
      </g>
     </g>
    </g>
    <g id="ytick_5">
     <g id="text_14">
      <!-- Oxford Circus -->
      <defs>
       <path d="M 1.40625 0 
L 10 0 
L 16.59375 11.296875 
C 18.203125 14.296875 19.796875 17.203125 21.5 20 
L 21.90625 20 
C 23.703125 17.203125 25.5 14.203125 27.203125 11.296875 
L 34.296875 0 
L 43.203125 0 
L 27.40625 24.5 
L 42.09375 48.59375 
L 33.5 48.59375 
L 27.59375 37.90625 
C 26.09375 35.296875 24.59375 32.5 23.203125 29.796875 
L 22.796875 29.796875 
C 21.09375 32.5 19.5 35.296875 18 37.90625 
L 11.5 48.59375 
L 2.59375 48.59375 
L 17.296875 25.40625 
z
" id="SourceSansPro-Regular-78"/>
       <path d="M 33.203125 -1.203125 
C 49.703125 -1.203125 61.296875 12 61.296875 33.09375 
C 61.296875 54 49.703125 66.796875 33.203125 66.796875 
C 16.703125 66.796875 5.203125 54.09375 5.203125 33.09375 
C 5.203125 12 16.703125 -1.203125 33.203125 -1.203125 
M 33.203125 6.09375 
C 21.5 6.09375 13.796875 16.703125 13.796875 33.09375 
C 13.796875 49.40625 21.5 59.5 33.203125 59.5 
C 44.90625 59.5 52.59375 49.40625 52.59375 33.09375 
C 52.59375 16.703125 44.90625 6.09375 33.203125 6.09375 
" id="SourceSansPro-Regular-4f"/>
       <path d="M 4.703125 24.203125 
C 4.703125 8 12.59375 -1.203125 24.796875 -1.203125 
C 30.5 -1.203125 35.703125 2 39.5 5.703125 
L 39.796875 5.703125 
L 40.5 0 
L 47.296875 0 
L 47.296875 71.203125 
L 39 71.203125 
L 39 52.5 
L 39.40625 44.203125 
C 35.09375 47.703125 31.40625 49.796875 25.796875 49.796875 
C 14.703125 49.796875 4.703125 40 4.703125 24.203125 
M 13.203125 24.296875 
C 13.203125 35.40625 19.40625 42.90625 27.203125 42.90625 
C 31.203125 42.90625 34.90625 41.5 39 37.796875 
L 39 12.40625 
C 35 7.90625 31.09375 5.703125 26.59375 5.703125 
C 18.09375 5.703125 13.203125 12.703125 13.203125 24.296875 
" id="SourceSansPro-Regular-64"/>
       <path d="M 5.203125 32.796875 
C 5.203125 11.40625 17.40625 -1.203125 33.90625 -1.203125 
C 42.296875 -1.203125 48.703125 2.296875 53.90625 8.296875 
L 49.203125 13.40625 
C 45 8.703125 40.40625 6.09375 34.09375 6.09375 
C 21.703125 6.09375 13.796875 16.5 13.796875 33 
C 13.796875 49.296875 22 59.5 34.5 59.5 
C 40 59.5 44.203125 57.09375 47.59375 53.40625 
L 52.296875 58.703125 
C 48.5 63 42.296875 66.796875 34.40625 66.796875 
C 17.59375 66.796875 5.203125 53.90625 5.203125 32.796875 
" id="SourceSansPro-Regular-43"/>
      </defs>
      <g transform="translate(42.028125 220.7734625)scale(0.12 -0.12)">
       <use xlink:href="#SourceSansPro-Regular-4f"/>
       <use x="66.39999389648438" xlink:href="#SourceSansPro-Regular-78"/>
       <use x="110.99998474121094" xlink:href="#SourceSansPro-Regular-66"/>
       <use x="140.19998168945312" xlink:href="#SourceSansPro-Regular-6f"/>
       <use x="194.3999786376953" xlink:href="#SourceSansPro-Regular-72"/>
       <use x="229.0999755859375" xlink:href="#SourceSansPro-Regular-64"/>
       <use x="284.59996032714844" xlink:href="#SourceSansPro-Regular-20"/>
       <use x="304.7999572753906" xlink:href="#SourceSansPro-Regular-43"/>
       <use x="361.8999481201172" xlink:href="#SourceSansPro-Regular-69"/>
       <use x="386.49993896484375" xlink:href="#SourceSansPro-Regular-72"/>
       <use x="421.19993591308594" xlink:href="#SourceSansPro-Regular-63"/>
       <use x="466.7999267578125" xlink:href="#SourceSansPro-Regular-75"/>
       <use x="521.1999206542969" xlink:href="#SourceSansPro-Regular-73"/>
      </g>
      <!-- ←→ Woolwich -->
      <g transform="translate(43.2525 233.4867125)scale(0.12 -0.12)">
       <use xlink:href="#SourceSansPro-Regular-2190"/>
       <use x="61.899993896484375" xlink:href="#SourceSansPro-Regular-2192"/>
       <use x="123.79998779296875" xlink:href="#SourceSansPro-Regular-20"/>
       <use x="143.99998474121094" xlink:href="#SourceSansPro-Regular-57"/>
       <use x="222.5999755859375" xlink:href="#SourceSansPro-Regular-6f"/>
       <use x="276.7999725341797" xlink:href="#SourceSansPro-Regular-6f"/>
       <use x="330.9999694824219" xlink:href="#SourceSansPro-Regular-6c"/>
       <use x="356.4999542236328" xlink:href="#SourceSansPro-Regular-77"/>
       <use x="428.29994201660156" xlink:href="#SourceSansPro-Regular-69"/>
       <use x="452.8999328613281" xlink:href="#SourceSansPro-Regular-63"/>
       <use x="498.4999237060547" xlink:href="#SourceSansPro-Regular-68"/>
      </g>
     </g>
    </g>
    <g id="ytick_6">
     <g id="text_15">
      <!-- Kings Cross -->
      <defs>
       <path d="M 9 0 
L 17.296875 0 
L 17.296875 20.796875 
L 28.59375 34.09375 
L 48.203125 0 
L 57.5 0 
L 33.796875 40.59375 
L 54.296875 65.59375 
L 44.90625 65.59375 
L 17.59375 32.703125 
L 17.296875 32.703125 
L 17.296875 65.59375 
L 9 65.59375 
z
" id="SourceSansPro-Regular-4b"/>
      </defs>
      <g transform="translate(52.0575 186.0990875)scale(0.12 -0.12)">
       <use xlink:href="#SourceSansPro-Regular-4b"/>
       <use x="57.899993896484375" xlink:href="#SourceSansPro-Regular-69"/>
       <use x="82.49998474121094" xlink:href="#SourceSansPro-Regular-6e"/>
       <use x="137.19998168945312" xlink:href="#SourceSansPro-Regular-67"/>
       <use x="187.5999755859375" xlink:href="#SourceSansPro-Regular-73"/>
       <use x="229.49996948242188" xlink:href="#SourceSansPro-Regular-20"/>
       <use x="249.69996643066406" xlink:href="#SourceSansPro-Regular-43"/>
       <use x="306.7999572753906" xlink:href="#SourceSansPro-Regular-72"/>
       <use x="341.4999542236328" xlink:href="#SourceSansPro-Regular-6f"/>
       <use x="395.699951171875" xlink:href="#SourceSansPro-Regular-73"/>
       <use x="437.5999450683594" xlink:href="#SourceSansPro-Regular-73"/>
      </g>
      <!-- ←→ Woolwich -->
      <g transform="translate(43.2525 199.0410875)scale(0.12 -0.12)">
       <use xlink:href="#SourceSansPro-Regular-2190"/>
       <use x="61.899993896484375" xlink:href="#SourceSansPro-Regular-2192"/>
       <use x="123.79998779296875" xlink:href="#SourceSansPro-Regular-20"/>
       <use x="143.99998474121094" xlink:href="#SourceSansPro-Regular-57"/>
       <use x="222.5999755859375" xlink:href="#SourceSansPro-Regular-6f"/>
       <use x="276.7999725341797" xlink:href="#SourceSansPro-Regular-6f"/>
       <use x="330.9999694824219" xlink:href="#SourceSansPro-Regular-6c"/>
       <use x="356.4999542236328" xlink:href="#SourceSansPro-Regular-77"/>
       <use x="428.29994201660156" xlink:href="#SourceSansPro-Regular-69"/>
       <use x="452.8999328613281" xlink:href="#SourceSansPro-Regular-63"/>
       <use x="498.4999237060547" xlink:href="#SourceSansPro-Regular-68"/>
      </g>
     </g>
    </g>
    <g id="ytick_7">
     <g id="text_16">
      <!-- North Greenwich -->
      <defs>
       <path d="M 5.203125 32.796875 
C 5.203125 11.40625 17.5 -1.203125 34.703125 -1.203125 
C 43.5 -1.203125 50.703125 2 55 6.40625 
L 55 34 
L 33.5 34 
L 33.5 27.09375 
L 47.40625 27.09375 
L 47.40625 10 
C 44.796875 7.59375 40.296875 6.09375 35.59375 6.09375 
C 21.59375 6.09375 13.796875 16.5 13.796875 33 
C 13.796875 49.296875 22.296875 59.5 35.5 59.5 
C 42.09375 59.5 46.203125 56.90625 49.5 53.40625 
L 54.203125 58.703125 
C 50.40625 62.703125 44.40625 66.796875 35.40625 66.796875 
C 17.90625 66.796875 5.203125 53.90625 5.203125 32.796875 
" id="SourceSansPro-Regular-47"/>
      </defs>
      <g transform="translate(24.556875 151.6534625)scale(0.12 -0.12)">
       <use xlink:href="#SourceSansPro-Regular-4e"/>
       <use x="64.69999694824219" xlink:href="#SourceSansPro-Regular-6f"/>
       <use x="118.89999389648438" xlink:href="#SourceSansPro-Regular-72"/>
       <use x="153.59999084472656" xlink:href="#SourceSansPro-Regular-74"/>
       <use x="187.3999786376953" xlink:href="#SourceSansPro-Regular-68"/>
       <use x="241.7999725341797" xlink:href="#SourceSansPro-Regular-20"/>
       <use x="261.9999694824219" xlink:href="#SourceSansPro-Regular-47"/>
       <use x="323.69996643066406" xlink:href="#SourceSansPro-Regular-72"/>
       <use x="358.39996337890625" xlink:href="#SourceSansPro-Regular-65"/>
       <use x="407.9999542236328" xlink:href="#SourceSansPro-Regular-65"/>
       <use x="457.5999450683594" xlink:href="#SourceSansPro-Regular-6e"/>
       <use x="512.2999420166016" xlink:href="#SourceSansPro-Regular-77"/>
       <use x="584.0999298095703" xlink:href="#SourceSansPro-Regular-69"/>
       <use x="608.6999206542969" xlink:href="#SourceSansPro-Regular-63"/>
       <use x="654.2999114990234" xlink:href="#SourceSansPro-Regular-68"/>
      </g>
      <!-- ←→ Woolwich -->
      <g transform="translate(43.2525 164.3667125)scale(0.12 -0.12)">
       <use xlink:href="#SourceSansPro-Regular-2190"/>
       <use x="61.899993896484375" xlink:href="#SourceSansPro-Regular-2192"/>
       <use x="123.79998779296875" xlink:href="#SourceSansPro-Regular-20"/>
       <use x="143.99998474121094" xlink:href="#SourceSansPro-Regular-57"/>
       <use x="222.5999755859375" xlink:href="#SourceSansPro-Regular-6f"/>
       <use x="276.7999725341797" xlink:href="#SourceSansPro-Regular-6f"/>
       <use x="330.9999694824219" xlink:href="#SourceSansPro-Regular-6c"/>
       <use x="356.4999542236328" xlink:href="#SourceSansPro-Regular-77"/>
       <use x="428.29994201660156" xlink:href="#SourceSansPro-Regular-69"/>
       <use x="452.8999328613281" xlink:href="#SourceSansPro-Regular-63"/>
       <use x="498.4999237060547" xlink:href="#SourceSansPro-Regular-68"/>
      </g>
     </g>
    </g>
    <g id="ytick_8">
     <g id="text_17">
      <!-- Pudding Mill Lane -->
      <defs>
       <path d="M 9 0 
L 17.296875 0 
L 17.296875 26 
L 29.09375 26 
C 43.5 26 53.296875 32.5 53.296875 46.296875 
C 53.296875 60.703125 43.59375 65.59375 29.09375 65.59375 
L 9 65.59375 
z
M 17.296875 32.796875 
L 17.296875 58.90625 
L 28.09375 58.90625 
C 39.40625 58.90625 45 55.796875 45 46.296875 
C 45 37 39.5 32.796875 28.09375 32.796875 
z
" id="SourceSansPro-Regular-50"/>
       <path d="M 9 0 
L 16.703125 0 
L 16.703125 36.09375 
C 16.703125 41.90625 16 49.703125 15.59375 55.5 
L 16 55.5 
L 21.203125 40.90625 
L 33.90625 6.59375 
L 38.59375 6.59375 
L 51.203125 40.90625 
L 56.5 55.5 
L 56.90625 55.5 
C 56.40625 49.703125 55.796875 41.90625 55.796875 36.09375 
L 55.796875 0 
L 63.703125 0 
L 63.703125 65.59375 
L 53.90625 65.59375 
L 41.296875 30.40625 
L 36.703125 17 
L 36.296875 17 
L 31.5 30.40625 
L 18.796875 65.59375 
L 9 65.59375 
z
" id="SourceSansPro-Regular-4d"/>
       <path d="M 9 0 
L 46 0 
L 46 7.09375 
L 17.296875 7.09375 
L 17.296875 65.59375 
L 9 65.59375 
z
" id="SourceSansPro-Regular-4c"/>
      </defs>
      <g transform="translate(20.14125 117.0934625)scale(0.12 -0.12)">
       <use xlink:href="#SourceSansPro-Regular-50"/>
       <use x="57.59999084472656" xlink:href="#SourceSansPro-Regular-75"/>
       <use x="111.99998474121094" xlink:href="#SourceSansPro-Regular-64"/>
       <use x="167.49996948242188" xlink:href="#SourceSansPro-Regular-64"/>
       <use x="222.9999542236328" xlink:href="#SourceSansPro-Regular-69"/>
       <use x="247.59994506835938" xlink:href="#SourceSansPro-Regular-6e"/>
       <use x="302.29994201660156" xlink:href="#SourceSansPro-Regular-67"/>
       <use x="352.69993591308594" xlink:href="#SourceSansPro-Regular-20"/>
       <use x="372.8999328613281" xlink:href="#SourceSansPro-Regular-4d"/>
       <use x="445.59991455078125" xlink:href="#SourceSansPro-Regular-69"/>
       <use x="470.1999053955078" xlink:href="#SourceSansPro-Regular-6c"/>
       <use x="495.69989013671875" xlink:href="#SourceSansPro-Regular-6c"/>
       <use x="521.1998748779297" xlink:href="#SourceSansPro-Regular-20"/>
       <use x="541.3998718261719" xlink:href="#SourceSansPro-Regular-4c"/>
       <use x="589.9998626708984" xlink:href="#SourceSansPro-Regular-61"/>
       <use x="641.1998596191406" xlink:href="#SourceSansPro-Regular-6e"/>
       <use x="695.8998565673828" xlink:href="#SourceSansPro-Regular-65"/>
      </g>
      <!-- ←→ Woolwich -->
      <g transform="translate(43.2525 130.0354625)scale(0.12 -0.12)">
       <use xlink:href="#SourceSansPro-Regular-2190"/>
       <use x="61.899993896484375" xlink:href="#SourceSansPro-Regular-2192"/>
       <use x="123.79998779296875" xlink:href="#SourceSansPro-Regular-20"/>
       <use x="143.99998474121094" xlink:href="#SourceSansPro-Regular-57"/>
       <use x="222.5999755859375" xlink:href="#SourceSansPro-Regular-6f"/>
       <use x="276.7999725341797" xlink:href="#SourceSansPro-Regular-6f"/>
       <use x="330.9999694824219" xlink:href="#SourceSansPro-Regular-6c"/>
       <use x="356.4999542236328" xlink:href="#SourceSansPro-Regular-77"/>
       <use x="428.29994201660156" xlink:href="#SourceSansPro-Regular-69"/>
       <use x="452.8999328613281" xlink:href="#SourceSansPro-Regular-63"/>
       <use x="498.4999237060547" xlink:href="#SourceSansPro-Regular-68"/>
      </g>
     </g>
    </g>
    <g id="ytick_9">
     <g id="text_18">
      <!-- Stratford Int’l -->
      <defs>
       <path d="M 8.59375 43.09375 
C 15.5 47.09375 19.296875 52.796875 19.296875 60.796875 
C 19.296875 66.59375 16.90625 69.90625 13 69.90625 
C 9.90625 69.90625 7.703125 67.796875 7.703125 64.296875 
C 7.703125 61.09375 10.203125 59.296875 13 59.296875 
C 13.296875 59.296875 13.5 59.296875 13.796875 59.40625 
C 13.796875 53.59375 11.296875 50.203125 6.296875 46.90625 
z
" id="SourceSansPro-Regular-2019"/>
       <path d="M 4.203125 8.5 
C 9.90625 2.59375 18 -1.203125 27.203125 -1.203125 
C 41 -1.203125 49.5 7.09375 49.5 17.5 
C 49.5 27.203125 43.59375 31.703125 36 35 
L 26.703125 39 
C 21.5 41.203125 15.796875 43.59375 15.796875 49.90625 
C 15.796875 55.796875 20.703125 59.5 28 59.5 
C 34.09375 59.5 38.90625 57.09375 42.90625 53.296875 
L 47.40625 58.703125 
C 42.703125 63.5 35.796875 66.796875 28 66.796875 
C 16.09375 66.796875 7.40625 59.40625 7.40625 49.40625 
C 7.40625 39.796875 14.5 35.09375 20.703125 32.5 
L 30.09375 28.40625 
C 36.296875 25.59375 41 23.5 41 16.796875 
C 41 10.40625 35.90625 6.09375 27.296875 6.09375 
C 20.5 6.09375 13.90625 9.40625 9.203125 14.296875 
z
" id="SourceSansPro-Regular-53"/>
      </defs>
      <g transform="translate(41.690625 82.5334625)scale(0.12 -0.12)">
       <use xlink:href="#SourceSansPro-Regular-53"/>
       <use x="53.399993896484375" xlink:href="#SourceSansPro-Regular-74"/>
       <use x="87.19998168945312" xlink:href="#SourceSansPro-Regular-72"/>
       <use x="121.89997863769531" xlink:href="#SourceSansPro-Regular-61"/>
       <use x="173.0999755859375" xlink:href="#SourceSansPro-Regular-74"/>
       <use x="206.89996337890625" xlink:href="#SourceSansPro-Regular-66"/>
       <use x="236.09996032714844" xlink:href="#SourceSansPro-Regular-6f"/>
       <use x="290.2999572753906" xlink:href="#SourceSansPro-Regular-72"/>
       <use x="324.9999542236328" xlink:href="#SourceSansPro-Regular-64"/>
       <use x="380.49993896484375" xlink:href="#SourceSansPro-Regular-20"/>
       <use x="400.69993591308594" xlink:href="#SourceSansPro-Regular-49"/>
       <use x="426.9999237060547" xlink:href="#SourceSansPro-Regular-6e"/>
       <use x="481.6999206542969" xlink:href="#SourceSansPro-Regular-74"/>
       <use x="515.4999084472656" xlink:href="#SourceSansPro-Regular-2019"/>
       <use x="540.39990234375" xlink:href="#SourceSansPro-Regular-6c"/>
      </g>
      <!-- ←→ Woolwich -->
      <g transform="translate(43.2525 95.2467125)scale(0.12 -0.12)">
       <use xlink:href="#SourceSansPro-Regular-2190"/>
       <use x="61.899993896484375" xlink:href="#SourceSansPro-Regular-2192"/>
       <use x="123.79998779296875" xlink:href="#SourceSansPro-Regular-20"/>
       <use x="143.99998474121094" xlink:href="#SourceSansPro-Regular-57"/>
       <use x="222.5999755859375" xlink:href="#SourceSansPro-Regular-6f"/>
       <use x="276.7999725341797" xlink:href="#SourceSansPro-Regular-6f"/>
       <use x="330.9999694824219" xlink:href="#SourceSansPro-Regular-6c"/>
       <use x="356.4999542236328" xlink:href="#SourceSansPro-Regular-77"/>
       <use x="428.29994201660156" xlink:href="#SourceSansPro-Regular-69"/>
       <use x="452.8999328613281" xlink:href="#SourceSansPro-Regular-63"/>
       <use x="498.4999237060547" xlink:href="#SourceSansPro-Regular-68"/>
      </g>
     </g>
    </g>
    <g id="ytick_10">
     <g id="text_19">
      <!-- Stratford -->
      <g transform="translate(63.939375 47.9734625)scale(0.12 -0.12)">
       <use xlink:href="#SourceSansPro-Regular-53"/>
       <use x="53.399993896484375" xlink:href="#SourceSansPro-Regular-74"/>
       <use x="87.19998168945312" xlink:href="#SourceSansPro-Regular-72"/>
       <use x="121.89997863769531" xlink:href="#SourceSansPro-Regular-61"/>
       <use x="173.0999755859375" xlink:href="#SourceSansPro-Regular-74"/>
       <use x="206.89996337890625" xlink:href="#SourceSansPro-Regular-66"/>
       <use x="236.09996032714844" xlink:href="#SourceSansPro-Regular-6f"/>
       <use x="290.2999572753906" xlink:href="#SourceSansPro-Regular-72"/>
       <use x="324.9999542236328" xlink:href="#SourceSansPro-Regular-64"/>
      </g>
      <!-- ←→ Woolwich -->
      <g transform="translate(43.2525 60.6867125)scale(0.12 -0.12)">
       <use xlink:href="#SourceSansPro-Regular-2190"/>
       <use x="61.899993896484375" xlink:href="#SourceSansPro-Regular-2192"/>
       <use x="123.79998779296875" xlink:href="#SourceSansPro-Regular-20"/>
       <use x="143.99998474121094" xlink:href="#SourceSansPro-Regular-57"/>
       <use x="222.5999755859375" xlink:href="#SourceSansPro-Regular-6f"/>
       <use x="276.7999725341797" xlink:href="#SourceSansPro-Regular-6f"/>
       <use x="330.9999694824219" xlink:href="#SourceSansPro-Regular-6c"/>
       <use x="356.4999542236328" xlink:href="#SourceSansPro-Regular-77"/>
       <use x="428.29994201660156" xlink:href="#SourceSansPro-Regular-69"/>
       <use x="452.8999328613281" xlink:href="#SourceSansPro-Regular-63"/>
       <use x="498.4999237060547" xlink:href="#SourceSansPro-Regular-68"/>
      </g>
     </g>
    </g>
   </g>
   <g id="patch_3">
    <path clip-path="url(#p8e79e7582a)" d="M 119.60125 375.2879 
L 131.080107 375.2879 
L 131.080107 347.6399 
L 119.60125 347.6399 
z
" style="fill:#1369bf;"/>
   </g>
   <g id="patch_4">
    <path clip-path="url(#p8e79e7582a)" d="M 119.60125 340.7279 
L 132.514964 340.7279 
L 132.514964 313.0799 
L 119.60125 313.0799 
z
" style="fill:#1369bf;"/>
   </g>
   <g id="patch_5">
    <path clip-path="url(#p8e79e7582a)" d="M 119.60125 306.1679 
L 132.514964 306.1679 
L 132.514964 278.5199 
L 119.60125 278.5199 
z
" style="fill:#1369bf;"/>
   </g>
   <g id="patch_6">
    <path clip-path="url(#p8e79e7582a)" d="M 119.60125 271.6079 
L 135.384679 271.6079 
L 135.384679 243.9599 
L 119.60125 243.9599 
z
" style="fill:#1369bf;"/>
   </g>
   <g id="patch_7">
    <path clip-path="url(#p8e79e7582a)" d="M 119.60125 237.0479 
L 141.124107 237.0479 
L 141.124107 209.3999 
L 119.60125 209.3999 
z
" style="fill:#1369bf;"/>
   </g>
   <g id="patch_8">
    <path clip-path="url(#p8e79e7582a)" d="M 119.60125 202.4879 
L 154.037821 202.4879 
L 154.037821 174.8399 
L 119.60125 174.8399 
z
" style="fill:#1369bf;"/>
   </g>
   <g id="patch_9">
    <path clip-path="url(#p8e79e7582a)" d="M 119.60125 167.9279 
L 159.77725 167.9279 
L 159.77725 140.2799 
L 119.60125 140.2799 
z
" style="fill:#1369bf;"/>
   </g>
   <g id="patch_10">
    <path clip-path="url(#p8e79e7582a)" d="M 119.60125 133.3679 
L 296.088679 133.3679 
L 296.088679 105.7199 
L 119.60125 105.7199 
z
" style="fill:#1369bf;"/>
   </g>
   <g id="patch_11">
    <path clip-path="url(#p8e79e7582a)" d="M 119.60125 98.8079 
L 359.222393 98.8079 
L 359.222393 71.1599 
L 119.60125 71.1599 
z
" style="fill:#1369bf;"/>
   </g>
   <g id="patch_12">
    <path clip-path="url(#p8e79e7582a)" d="M 119.60125 64.2479 
L 580.190393 64.2479 
L 580.190393 36.5999 
L 119.60125 36.5999 
z
" style="fill:#1369bf;"/>
   </g>
   <g id="text_20">
    <!-- Most common journey endpoints -->
    <defs>
     <path d="M 16.203125 4.40625 
C 20.703125 0.90625 25.203125 -1.203125 29.703125 -1.203125 
C 40.796875 -1.203125 50.703125 8.5 50.703125 25 
C 50.703125 40.09375 44 49.796875 31.5 49.796875 
C 25.796875 49.796875 20.40625 46.703125 16 43 
L 15.703125 43 
L 15 48.59375 
L 8.203125 48.59375 
L 8.203125 -20.5 
L 16.40625 -20.5 
L 16.40625 -4.09375 
z
M 16.40625 10.796875 
L 16.40625 36.296875 
C 21.203125 40.59375 25.296875 42.90625 29.40625 42.90625 
C 38.59375 42.90625 42.203125 35.703125 42.203125 25 
C 42.203125 13 36.296875 5.703125 28.296875 5.703125 
C 25.09375 5.703125 20.796875 7.09375 16.40625 10.796875 
" id="SourceSansPro-Regular-70"/>
    </defs>
    <g transform="translate(201.14125 19.5039)scale(0.1728 -0.1728)">
     <use xlink:href="#SourceSansPro-Regular-4d"/>
     <use x="72.69998168945312" xlink:href="#SourceSansPro-Regular-6f"/>
     <use x="126.89997863769531" xlink:href="#SourceSansPro-Regular-73"/>
     <use x="168.7999725341797" xlink:href="#SourceSansPro-Regular-74"/>
     <use x="202.59996032714844" xlink:href="#SourceSansPro-Regular-20"/>
     <use x="222.79995727539062" xlink:href="#SourceSansPro-Regular-63"/>
     <use x="268.3999481201172" xlink:href="#SourceSansPro-Regular-6f"/>
     <use x="322.5999450683594" xlink:href="#SourceSansPro-Regular-6d"/>
     <use x="405.49993896484375" xlink:href="#SourceSansPro-Regular-6d"/>
     <use x="488.3999328613281" xlink:href="#SourceSansPro-Regular-6f"/>
     <use x="542.5999298095703" xlink:href="#SourceSansPro-Regular-6e"/>
     <use x="597.2999267578125" xlink:href="#SourceSansPro-Regular-20"/>
     <use x="617.4999237060547" xlink:href="#SourceSansPro-Regular-6a"/>
     <use x="642.1999206542969" xlink:href="#SourceSansPro-Regular-6f"/>
     <use x="696.3999176025391" xlink:href="#SourceSansPro-Regular-75"/>
     <use x="750.7999114990234" xlink:href="#SourceSansPro-Regular-72"/>
     <use x="785.4999084472656" xlink:href="#SourceSansPro-Regular-6e"/>
     <use x="840.1999053955078" xlink:href="#SourceSansPro-Regular-65"/>
     <use x="889.7998962402344" xlink:href="#SourceSansPro-Regular-79"/>
     <use x="936.4998931884766" xlink:href="#SourceSansPro-Regular-20"/>
     <use x="956.6998901367188" xlink:href="#SourceSansPro-Regular-65"/>
     <use x="1006.2998809814453" xlink:href="#SourceSansPro-Regular-6e"/>
     <use x="1060.9998779296875" xlink:href="#SourceSansPro-Regular-64"/>
     <use x="1116.4998626708984" xlink:href="#SourceSansPro-Regular-70"/>
     <use x="1171.9998474121094" xlink:href="#SourceSansPro-Regular-6f"/>
     <use x="1226.1998443603516" xlink:href="#SourceSansPro-Regular-69"/>
     <use x="1250.7998352050781" xlink:href="#SourceSansPro-Regular-6e"/>
     <use x="1305.4998321533203" xlink:href="#SourceSansPro-Regular-74"/>
     <use x="1339.299819946289" xlink:href="#SourceSansPro-Regular-73"/>
    </g>
   </g>
  </g>
 </g>
 <defs>
  <clipPath id="p8e79e7582a">
   <rect height="345.6" width="502.2" x="119.60125" y="33.1439"/>
  </clipPath>
 </defs>
</svg>
