<?xml version="1.0" encoding="utf-8" standalone="no"?>
<!DOCTYPE svg PUBLIC "-//W3C//DTD SVG 1.1//EN"
  "http://www.w3.org/Graphics/SVG/1.1/DTD/svg11.dtd">
<!-- Created with matplotlib (http://matplotlib.org/) -->
<svg height="347pt" version="1.1" viewBox="0 0 742 347" width="742pt" xmlns="http://www.w3.org/2000/svg" xmlns:xlink="http://www.w3.org/1999/xlink">
 <defs>
  <style type="text/css">
*{stroke-linecap:butt;stroke-linejoin:round;stroke-miterlimit:100000;}
  </style>
 </defs>
 <g id="figure_1">
  <g id="patch_1">
   <path d="M 0 347.908275 
L 742.314937 347.908275 
L 742.314937 0 
L 0 0 
L 0 347.908275 
z
" style="fill:none;"/>
  </g>
  <g id="axes_1">
   <g id="patch_2">
    <path d="M 47.334 319.7039 
L 716.934 319.7039 
L 716.934 31.7039 
L 47.334 31.7039 
L 47.334 319.7039 
z
" style="fill:none;"/>
   </g>
   <g id="matplotlib.axis_1">
    <g id="xtick_1">
     <g id="line2d_1">
      <path clip-path="url(#p1097783663)" d="M 47.334 319.7039 
L 47.334 31.7039 
" style="fill:none;stroke:#8fa7bf;stroke-linecap:square;stroke-width:0.5;"/>
     </g>
     <g id="text_1">
      <!-- Sep '14 -->
      <defs>
       <path d="M 10.40625 24.203125 
L 25.296875 46 
C 27.09375 49.09375 28.90625 51.90625 30.5 55 
L 30.90625 55 
C 30.703125 51.59375 30.40625 46.09375 30.40625 42.703125 
L 30.40625 24.203125 
z
M 46.90625 24.203125 
L 38.203125 24.203125 
L 38.203125 63.796875 
L 29 63.796875 
L 1.703125 23 
L 1.703125 17.59375 
L 30.40625 17.59375 
L 30.40625 0 
L 38.203125 0 
L 38.203125 17.59375 
L 46.90625 17.59375 
z
" id="SourceSansPro-Regular-34"/>
       <path d="M 4.59375 24.203125 
C 4.59375 8.296875 14.90625 -1.203125 27.90625 -1.203125 
C 34.5 -1.203125 39.703125 1.09375 43.90625 3.796875 
L 41 9.203125 
C 37.40625 6.90625 33.5 5.40625 28.90625 5.40625 
C 19.59375 5.40625 13.296875 12 12.703125 22.5 
L 45.5 22.5 
C 45.703125 23.703125 45.796875 25.296875 45.796875 27 
C 45.796875 40.90625 38.796875 49.796875 26.40625 49.796875 
C 15.296875 49.796875 4.59375 40.09375 4.59375 24.203125 
M 12.59375 27.90625 
C 13.59375 37.703125 19.796875 43.296875 26.59375 43.296875 
C 34.203125 43.296875 38.59375 37.796875 38.59375 27.90625 
z
" id="SourceSansPro-Regular-65"/>
       <path id="SourceSansPro-Regular-20"/>
       <path d="M 7.90625 0 
L 43.90625 0 
L 43.90625 6.796875 
L 30.703125 6.796875 
L 30.703125 63.796875 
L 24.40625 63.796875 
C 20.90625 61.703125 16.703125 60.09375 10.90625 59.09375 
L 10.90625 53.796875 
L 22.5 53.796875 
L 22.5 6.796875 
L 7.90625 6.796875 
z
" id="SourceSansPro-Regular-31"/>
       <path d="M 4.203125 8.5 
C 9.90625 2.59375 18 -1.203125 27.203125 -1.203125 
C 41 -1.203125 49.5 7.09375 49.5 17.5 
C 49.5 27.203125 43.59375 31.703125 36 35 
L 26.703125 39 
C 21.5 41.203125 15.796875 43.59375 15.796875 49.90625 
C 15.796875 55.796875 20.703125 59.5 28 59.5 
C 34.09375 59.5 38.90625 57.09375 42.90625 53.296875 
L 47.40625 58.703125 
C 42.703125 63.5 35.796875 66.796875 28 66.796875 
C 16.09375 66.796875 7.40625 59.40625 7.40625 49.40625 
C 7.40625 39.796875 14.5 35.09375 20.703125 32.5 
L 30.09375 28.40625 
C 36.296875 25.59375 41 23.5 41 16.796875 
C 41 10.40625 35.90625 6.09375 27.296875 6.09375 
C 20.5 6.09375 13.90625 9.40625 9.203125 14.296875 
z
" id="SourceSansPro-Regular-53"/>
       <path d="M 16.203125 4.40625 
C 20.703125 0.90625 25.203125 -1.203125 29.703125 -1.203125 
C 40.796875 -1.203125 50.703125 8.5 50.703125 25 
C 50.703125 40.09375 44 49.796875 31.5 49.796875 
C 25.796875 49.796875 20.40625 46.703125 16 43 
L 15.703125 43 
L 15 48.59375 
L 8.203125 48.59375 
L 8.203125 -20.5 
L 16.40625 -20.5 
L 16.40625 -4.09375 
z
M 16.40625 10.796875 
L 16.40625 36.296875 
C 21.203125 40.59375 25.296875 42.90625 29.40625 42.90625 
C 38.59375 42.90625 42.203125 35.703125 42.203125 25 
C 42.203125 13 36.296875 5.703125 28.296875 5.703125 
C 25.09375 5.703125 20.796875 7.09375 16.40625 10.796875 
" id="SourceSansPro-Regular-70"/>
       <path d="M 9.90625 43.09375 
L 14.90625 43.09375 
L 16.5 59.796875 
L 16.796875 69 
L 8 69 
L 8.296875 59.796875 
z
" id="SourceSansPro-Regular-27"/>
      </defs>
      <g transform="translate(29.1530625 338.248275)scale(0.12 -0.12)">
       <use xlink:href="#SourceSansPro-Regular-53"/>
       <use x="53.399993896484375" xlink:href="#SourceSansPro-Regular-65"/>
       <use x="102.99998474121094" xlink:href="#SourceSansPro-Regular-70"/>
       <use x="158.49996948242188" xlink:href="#SourceSansPro-Regular-20"/>
       <use x="178.69996643066406" xlink:href="#SourceSansPro-Regular-27"/>
       <use x="203.59996032714844" xlink:href="#SourceSansPro-Regular-31"/>
       <use x="253.29995727539062" xlink:href="#SourceSansPro-Regular-34"/>
      </g>
     </g>
    </g>
    <g id="xtick_2">
     <g id="line2d_2">
      <path clip-path="url(#p1097783663)" d="M 130.690498 319.7039 
L 130.690498 31.7039 
" style="fill:none;stroke:#8fa7bf;stroke-linecap:square;stroke-width:0.5;"/>
     </g>
     <g id="text_2">
      <!-- Dec '14 -->
      <defs>
       <path d="M 4.59375 24.203125 
C 4.59375 8.09375 14.5 -1.203125 27.40625 -1.203125 
C 33.203125 -1.203125 38.796875 1.203125 43.203125 5.09375 
L 39.5 10.5 
C 36.59375 7.90625 32.703125 5.59375 28.09375 5.59375 
C 19.203125 5.59375 13.09375 13.09375 13.09375 24.203125 
C 13.09375 35.40625 19.5 43 28.296875 43 
C 32.203125 43 35.203125 41.203125 38.09375 38.703125 
L 42.203125 44 
C 38.90625 47.09375 34.40625 49.796875 28 49.796875 
C 15.5 49.796875 4.59375 40.5 4.59375 24.203125 
" id="SourceSansPro-Regular-63"/>
       <path d="M 9 0 
L 25.796875 0 
C 45.59375 0 56.40625 12.203125 56.40625 33.09375 
C 56.40625 53.90625 45.59375 65.59375 25.40625 65.59375 
L 9 65.59375 
z
M 17.296875 6.796875 
L 17.296875 58.796875 
L 24.796875 58.796875 
C 40.09375 58.796875 47.796875 49.59375 47.796875 33.09375 
C 47.796875 16.5 40.09375 6.796875 24.796875 6.796875 
z
" id="SourceSansPro-Regular-44"/>
      </defs>
      <g transform="translate(112.618310448 338.248275)scale(0.12 -0.12)">
       <use xlink:href="#SourceSansPro-Regular-44"/>
       <use x="61.49998474121094" xlink:href="#SourceSansPro-Regular-65"/>
       <use x="111.0999755859375" xlink:href="#SourceSansPro-Regular-63"/>
       <use x="156.69996643066406" xlink:href="#SourceSansPro-Regular-20"/>
       <use x="176.89996337890625" xlink:href="#SourceSansPro-Regular-27"/>
       <use x="201.79995727539062" xlink:href="#SourceSansPro-Regular-31"/>
       <use x="251.4999542236328" xlink:href="#SourceSansPro-Regular-34"/>
      </g>
     </g>
    </g>
    <g id="xtick_3">
     <g id="line2d_3">
      <path clip-path="url(#p1097783663)" d="M 213.13099 319.7039 
L 213.13099 31.7039 
" style="fill:none;stroke:#8fa7bf;stroke-linecap:square;stroke-width:0.5;"/>
     </g>
     <g id="text_3">
      <!-- Mar '15 -->
      <defs>
       <path d="M 9 0 
L 16.703125 0 
L 16.703125 36.09375 
C 16.703125 41.90625 16 49.703125 15.59375 55.5 
L 16 55.5 
L 21.203125 40.90625 
L 33.90625 6.59375 
L 38.59375 6.59375 
L 51.203125 40.90625 
L 56.5 55.5 
L 56.90625 55.5 
C 56.40625 49.703125 55.796875 41.90625 55.796875 36.09375 
L 55.796875 0 
L 63.703125 0 
L 63.703125 65.59375 
L 53.90625 65.59375 
L 41.296875 30.40625 
L 36.703125 17 
L 36.296875 17 
L 31.5 30.40625 
L 18.796875 65.59375 
L 9 65.59375 
z
" id="SourceSansPro-Regular-4d"/>
       <path d="M 8.203125 0 
L 16.40625 0 
L 16.40625 31.203125 
C 19.703125 39.40625 24.59375 42.40625 28.703125 42.40625 
C 30.703125 42.40625 31.796875 42.09375 33.40625 41.59375 
L 35 48.796875 
C 33.40625 49.5 31.90625 49.796875 29.796875 49.796875 
C 24.296875 49.796875 19.296875 45.90625 16 39.796875 
L 15.703125 39.796875 
L 15 48.59375 
L 8.203125 48.59375 
z
" id="SourceSansPro-Regular-72"/>
       <path d="M 2.5 7.5 
C 6.90625 3.09375 13.203125 -1.203125 23.40625 -1.203125 
C 34.5 -1.203125 44.90625 6.59375 44.90625 20.40625 
C 44.90625 34.203125 36 40.40625 25.09375 40.40625 
C 21.203125 40.40625 18.296875 39.40625 15.296875 37.796875 
L 17 56.703125 
L 41.703125 56.703125 
L 41.703125 63.796875 
L 9.796875 63.796875 
L 7.703125 33.09375 
L 12.09375 30.296875 
C 15.90625 32.796875 18.59375 34.203125 23 34.203125 
C 31.203125 34.203125 36.59375 29 36.59375 20.203125 
C 36.59375 11.296875 30.40625 5.59375 22.59375 5.59375 
C 15.09375 5.59375 10.296875 9.09375 6.5 12.90625 
z
" id="SourceSansPro-Regular-35"/>
       <path d="M 5.796875 12.59375 
C 5.796875 3.90625 11.90625 -1.203125 20.09375 -1.203125 
C 26.09375 -1.203125 31.5 2 36.203125 5.796875 
L 36.40625 5.796875 
L 37.09375 0 
L 43.90625 0 
L 43.90625 29.796875 
C 43.90625 41.90625 38.90625 49.796875 27 49.796875 
C 19.203125 49.796875 12.40625 46.40625 7.90625 43.5 
L 11.203125 37.796875 
C 15 40.40625 20 43 25.703125 43 
C 33.59375 43 35.703125 37 35.703125 30.796875 
C 15 28.5 5.796875 23.203125 5.796875 12.59375 
M 13.90625 13.203125 
C 13.90625 19.40625 19.40625 23.40625 35.703125 25.40625 
L 35.703125 11.90625 
C 31 7.703125 27.09375 5.40625 22.40625 5.40625 
C 17.59375 5.40625 13.90625 7.703125 13.90625 13.203125 
" id="SourceSansPro-Regular-61"/>
      </defs>
      <g transform="translate(194.943490424 338.248275)scale(0.12 -0.12)">
       <use xlink:href="#SourceSansPro-Regular-4d"/>
       <use x="72.69998168945312" xlink:href="#SourceSansPro-Regular-61"/>
       <use x="123.89997863769531" xlink:href="#SourceSansPro-Regular-72"/>
       <use x="158.5999755859375" xlink:href="#SourceSansPro-Regular-20"/>
       <use x="178.7999725341797" xlink:href="#SourceSansPro-Regular-27"/>
       <use x="203.69996643066406" xlink:href="#SourceSansPro-Regular-31"/>
       <use x="253.39996337890625" xlink:href="#SourceSansPro-Regular-35"/>
      </g>
     </g>
    </g>
    <g id="xtick_4">
     <g id="line2d_4">
      <path clip-path="url(#p1097783663)" d="M 297.403494 319.7039 
L 297.403494 31.7039 
" style="fill:none;stroke:#8fa7bf;stroke-linecap:square;stroke-width:0.5;"/>
     </g>
     <g id="text_4">
      <!-- Jun '15 -->
      <defs>
       <path d="M 3.09375 9.296875 
C 6.90625 2.40625 12.90625 -1.203125 21.203125 -1.203125 
C 34 -1.203125 39.296875 8 39.296875 19.296875 
L 39.296875 65.59375 
L 30.90625 65.59375 
L 30.90625 20.09375 
C 30.90625 10.09375 27.40625 6.09375 20.40625 6.09375 
C 15.703125 6.09375 12 8.296875 9.09375 13.5 
z
" id="SourceSansPro-Regular-4a"/>
       <path d="M 8.203125 0 
L 16.40625 0 
L 16.40625 35.203125 
C 21.296875 40.09375 24.703125 42.703125 29.703125 42.703125 
C 36.09375 42.703125 38.90625 38.796875 38.90625 29.703125 
L 38.90625 0 
L 47.09375 0 
L 47.09375 30.796875 
C 47.09375 43.203125 42.5 49.796875 32.296875 49.796875 
C 25.59375 49.796875 20.59375 46.203125 16 41.59375 
L 15.703125 41.59375 
L 15 48.59375 
L 8.203125 48.59375 
z
" id="SourceSansPro-Regular-6e"/>
       <path d="M 7.5 17.796875 
C 7.5 5.40625 12.09375 -1.203125 22.40625 -1.203125 
C 29.09375 -1.203125 33.90625 2.296875 38.40625 7.59375 
L 38.703125 7.59375 
L 39.40625 0 
L 46.203125 0 
L 46.203125 48.59375 
L 38 48.59375 
L 38 14.09375 
C 33.40625 8.40625 29.90625 5.90625 24.90625 5.90625 
C 18.5 5.90625 15.796875 9.796875 15.796875 18.90625 
L 15.796875 48.59375 
L 7.5 48.59375 
z
" id="SourceSansPro-Regular-75"/>
      </defs>
      <g transform="translate(279.305993844 338.248275)scale(0.12 -0.12)">
       <use xlink:href="#SourceSansPro-Regular-4a"/>
       <use x="47.99998474121094" xlink:href="#SourceSansPro-Regular-75"/>
       <use x="102.39997863769531" xlink:href="#SourceSansPro-Regular-6e"/>
       <use x="157.0999755859375" xlink:href="#SourceSansPro-Regular-20"/>
       <use x="177.2999725341797" xlink:href="#SourceSansPro-Regular-27"/>
       <use x="202.19996643066406" xlink:href="#SourceSansPro-Regular-31"/>
       <use x="251.89996337890625" xlink:href="#SourceSansPro-Regular-35"/>
      </g>
     </g>
    </g>
    <g id="xtick_5">
     <g id="line2d_5">
      <path clip-path="url(#p1097783663)" d="M 381.675997 319.7039 
L 381.675997 31.7039 
" style="fill:none;stroke:#8fa7bf;stroke-linecap:square;stroke-width:0.5;"/>
     </g>
     <g id="text_5">
      <!-- Sep '15 -->
      <g transform="translate(363.495059764 338.248275)scale(0.12 -0.12)">
       <use xlink:href="#SourceSansPro-Regular-53"/>
       <use x="53.399993896484375" xlink:href="#SourceSansPro-Regular-65"/>
       <use x="102.99998474121094" xlink:href="#SourceSansPro-Regular-70"/>
       <use x="158.49996948242188" xlink:href="#SourceSansPro-Regular-20"/>
       <use x="178.69996643066406" xlink:href="#SourceSansPro-Regular-27"/>
       <use x="203.59996032714844" xlink:href="#SourceSansPro-Regular-31"/>
       <use x="253.29995727539062" xlink:href="#SourceSansPro-Regular-35"/>
      </g>
     </g>
    </g>
    <g id="xtick_6">
     <g id="line2d_6">
      <path clip-path="url(#p1097783663)" d="M 465.032495 319.7039 
L 465.032495 31.7039 
" style="fill:none;stroke:#8fa7bf;stroke-linecap:square;stroke-width:0.5;"/>
     </g>
     <g id="text_6">
      <!-- Dec '15 -->
      <g transform="translate(446.960307712 338.248275)scale(0.12 -0.12)">
       <use xlink:href="#SourceSansPro-Regular-44"/>
       <use x="61.49998474121094" xlink:href="#SourceSansPro-Regular-65"/>
       <use x="111.0999755859375" xlink:href="#SourceSansPro-Regular-63"/>
       <use x="156.69996643066406" xlink:href="#SourceSansPro-Regular-20"/>
       <use x="176.89996337890625" xlink:href="#SourceSansPro-Regular-27"/>
       <use x="201.79995727539062" xlink:href="#SourceSansPro-Regular-31"/>
       <use x="251.4999542236328" xlink:href="#SourceSansPro-Regular-35"/>
      </g>
     </g>
    </g>
    <g id="xtick_7">
     <g id="line2d_7">
      <path clip-path="url(#p1097783663)" d="M 548.388993 319.7039 
L 548.388993 31.7039 
" style="fill:none;stroke:#8fa7bf;stroke-linecap:square;stroke-width:0.5;"/>
     </g>
     <g id="text_7">
      <!-- Mar '16 -->
      <defs>
       <path d="M 26.796875 5.296875 
C 18.703125 5.296875 13.796875 12 12.796875 24.40625 
C 17.09375 30.40625 22.09375 32.796875 26.09375 32.796875 
C 34 32.796875 37.90625 27.59375 37.90625 19.296875 
C 37.90625 10.90625 33.09375 5.296875 26.796875 5.296875 
M 44.5 58.203125 
C 40.90625 62.09375 36 65 29.09375 65 
C 16.40625 65 4.796875 55.09375 4.796875 29.5 
C 4.796875 9 14.296875 -1.203125 26.796875 -1.203125 
C 37.09375 -1.203125 45.703125 7.09375 45.703125 19.296875 
C 45.703125 32.40625 38.5 39 27.5 39 
C 22.296875 39 16.59375 35.90625 12.59375 31 
C 13 51.203125 20.5 58.09375 29.40625 58.09375 
C 33.40625 58.09375 37.296875 56.203125 39.90625 53.09375 
z
" id="SourceSansPro-Regular-36"/>
      </defs>
      <g transform="translate(530.20149316 338.248275)scale(0.12 -0.12)">
       <use xlink:href="#SourceSansPro-Regular-4d"/>
       <use x="72.69998168945312" xlink:href="#SourceSansPro-Regular-61"/>
       <use x="123.89997863769531" xlink:href="#SourceSansPro-Regular-72"/>
       <use x="158.5999755859375" xlink:href="#SourceSansPro-Regular-20"/>
       <use x="178.7999725341797" xlink:href="#SourceSansPro-Regular-27"/>
       <use x="203.69996643066406" xlink:href="#SourceSansPro-Regular-31"/>
       <use x="253.39996337890625" xlink:href="#SourceSansPro-Regular-36"/>
      </g>
     </g>
    </g>
    <g id="xtick_8">
     <g id="line2d_8">
      <path clip-path="url(#p1097783663)" d="M 632.661497 319.7039 
L 632.661497 31.7039 
" style="fill:none;stroke:#8fa7bf;stroke-linecap:square;stroke-width:0.5;"/>
     </g>
     <g id="text_8">
      <!-- Jun '16 -->
      <g transform="translate(614.56399658 338.248275)scale(0.12 -0.12)">
       <use xlink:href="#SourceSansPro-Regular-4a"/>
       <use x="47.99998474121094" xlink:href="#SourceSansPro-Regular-75"/>
       <use x="102.39997863769531" xlink:href="#SourceSansPro-Regular-6e"/>
       <use x="157.0999755859375" xlink:href="#SourceSansPro-Regular-20"/>
       <use x="177.2999725341797" xlink:href="#SourceSansPro-Regular-27"/>
       <use x="202.19996643066406" xlink:href="#SourceSansPro-Regular-31"/>
       <use x="251.89996337890625" xlink:href="#SourceSansPro-Regular-36"/>
      </g>
     </g>
    </g>
    <g id="xtick_9">
     <g id="line2d_9">
      <path clip-path="url(#p1097783663)" d="M 716.934 319.7039 
L 716.934 31.7039 
" style="fill:none;stroke:#8fa7bf;stroke-linecap:square;stroke-width:0.5;"/>
     </g>
     <g id="text_9">
      <!-- Sep '16 -->
      <g transform="translate(698.7530625 338.248275)scale(0.12 -0.12)">
       <use xlink:href="#SourceSansPro-Regular-53"/>
       <use x="53.399993896484375" xlink:href="#SourceSansPro-Regular-65"/>
       <use x="102.99998474121094" xlink:href="#SourceSansPro-Regular-70"/>
       <use x="158.49996948242188" xlink:href="#SourceSansPro-Regular-20"/>
       <use x="178.69996643066406" xlink:href="#SourceSansPro-Regular-27"/>
       <use x="203.59996032714844" xlink:href="#SourceSansPro-Regular-31"/>
       <use x="253.29995727539062" xlink:href="#SourceSansPro-Regular-36"/>
      </g>
     </g>
    </g>
   </g>
   <g id="matplotlib.axis_2">
    <g id="ytick_1">
     <g id="line2d_10">
      <path clip-path="url(#p1097783663)" d="M 47.334 319.7039 
L 716.934 319.7039 
" style="fill:none;stroke:#8fa7bf;stroke-linecap:square;stroke-width:0.5;"/>
     </g>
     <g id="text_10">
      <!-- 0 -->
      <defs>
       <path d="M 24.90625 -1.203125 
C 37.59375 -1.203125 45.296875 10.703125 45.296875 32.09375 
C 45.296875 53.5 37.59375 65 24.90625 65 
C 12.09375 65 4.40625 53.5 4.40625 32.09375 
C 4.40625 10.703125 12.09375 -1.203125 24.90625 -1.203125 
M 24.90625 5.40625 
C 17.40625 5.40625 12.40625 13.40625 12.40625 32.09375 
C 12.40625 50.796875 17.40625 58.40625 24.90625 58.40625 
C 32.296875 58.40625 37.296875 50.796875 37.296875 32.09375 
C 37.296875 13.40625 32.296875 5.40625 24.90625 5.40625 
" id="SourceSansPro-Regular-30"/>
      </defs>
      <g transform="translate(31.369625 322.7460875)scale(0.12 -0.12)">
       <use xlink:href="#SourceSansPro-Regular-30"/>
      </g>
     </g>
    </g>
    <g id="ytick_2">
     <g id="line2d_11">
      <path clip-path="url(#p1097783663)" d="M 47.334 283.7039 
L 716.934 283.7039 
" style="fill:none;stroke:#8fa7bf;stroke-linecap:square;stroke-width:0.5;"/>
     </g>
     <g id="text_11">
      <!-- 5 -->
      <g transform="translate(31.369625 286.7460875)scale(0.12 -0.12)">
       <use xlink:href="#SourceSansPro-Regular-35"/>
      </g>
     </g>
    </g>
    <g id="ytick_3">
     <g id="line2d_12">
      <path clip-path="url(#p1097783663)" d="M 47.334 247.7039 
L 716.934 247.7039 
" style="fill:none;stroke:#8fa7bf;stroke-linecap:square;stroke-width:0.5;"/>
     </g>
     <g id="text_12">
      <!-- 10 -->
      <g transform="translate(25.40525 250.7460875)scale(0.12 -0.12)">
       <use xlink:href="#SourceSansPro-Regular-31"/>
       <use x="49.69999694824219" xlink:href="#SourceSansPro-Regular-30"/>
      </g>
     </g>
    </g>
    <g id="ytick_4">
     <g id="line2d_13">
      <path clip-path="url(#p1097783663)" d="M 47.334 211.7039 
L 716.934 211.7039 
" style="fill:none;stroke:#8fa7bf;stroke-linecap:square;stroke-width:0.5;"/>
     </g>
     <g id="text_13">
      <!-- 15 -->
      <g transform="translate(25.40525 214.7460875)scale(0.12 -0.12)">
       <use xlink:href="#SourceSansPro-Regular-31"/>
       <use x="49.69999694824219" xlink:href="#SourceSansPro-Regular-35"/>
      </g>
     </g>
    </g>
    <g id="ytick_5">
     <g id="line2d_14">
      <path clip-path="url(#p1097783663)" d="M 47.334 175.7039 
L 716.934 175.7039 
" style="fill:none;stroke:#8fa7bf;stroke-linecap:square;stroke-width:0.5;"/>
     </g>
     <g id="text_14">
      <!-- 20 -->
      <defs>
       <path d="M 4 0 
L 45.203125 0 
L 45.203125 7.09375 
L 26.703125 7.09375 
C 23.40625 7.09375 19.5 6.796875 16 6.5 
C 31.09375 22.296875 42 34.203125 42 46.203125 
C 42 57.5 34.703125 65 22.90625 65 
C 14.59375 65 8.90625 61.09375 3.59375 55.296875 
L 8.296875 50.59375 
C 12 54.90625 16.59375 58.296875 21.90625 58.296875 
C 30 58.296875 34 53.09375 34 45.796875 
C 34 35.5 23.203125 24 4 4.90625 
z
" id="SourceSansPro-Regular-32"/>
      </defs>
      <g transform="translate(25.40525 178.7460875)scale(0.12 -0.12)">
       <use xlink:href="#SourceSansPro-Regular-32"/>
       <use x="49.69999694824219" xlink:href="#SourceSansPro-Regular-30"/>
      </g>
     </g>
    </g>
    <g id="ytick_6">
     <g id="line2d_15">
      <path clip-path="url(#p1097783663)" d="M 47.334 139.7039 
L 716.934 139.7039 
" style="fill:none;stroke:#8fa7bf;stroke-linecap:square;stroke-width:0.5;"/>
     </g>
     <g id="text_15">
      <!-- 25 -->
      <g transform="translate(25.40525 142.7460875)scale(0.12 -0.12)">
       <use xlink:href="#SourceSansPro-Regular-32"/>
       <use x="49.69999694824219" xlink:href="#SourceSansPro-Regular-35"/>
      </g>
     </g>
    </g>
    <g id="ytick_7">
     <g id="line2d_16">
      <path clip-path="url(#p1097783663)" d="M 47.334 103.7039 
L 716.934 103.7039 
" style="fill:none;stroke:#8fa7bf;stroke-linecap:square;stroke-width:0.5;"/>
     </g>
     <g id="text_16">
      <!-- 30 -->
      <defs>
       <path d="M 2.59375 7.796875 
C 6.90625 3.09375 13.40625 -1.203125 23.59375 -1.203125 
C 35.296875 -1.203125 44.59375 5.703125 44.59375 17 
C 44.59375 25.796875 38.5 31.40625 30.796875 33.203125 
L 30.796875 33.59375 
C 37.703125 36.203125 42.40625 41.09375 42.40625 48.796875 
C 42.40625 59.09375 34.40625 65 23.296875 65 
C 15.796875 65 9.90625 61.59375 5 57 
L 9.40625 51.796875 
C 13.203125 55.59375 17.703125 58.296875 23 58.296875 
C 29.796875 58.296875 34 54.40625 34 48.203125 
C 34 41.5 29.5 36.296875 15.90625 36.296875 
L 15.90625 30 
C 31.09375 30 36.296875 24.90625 36.296875 17.296875 
C 36.296875 10.203125 30.796875 5.59375 23.09375 5.59375 
C 15.59375 5.59375 10.59375 9.203125 6.796875 13.203125 
z
" id="SourceSansPro-Regular-33"/>
      </defs>
      <g transform="translate(25.40525 106.7460875)scale(0.12 -0.12)">
       <use xlink:href="#SourceSansPro-Regular-33"/>
       <use x="49.69999694824219" xlink:href="#SourceSansPro-Regular-30"/>
      </g>
     </g>
    </g>
    <g id="ytick_8">
     <g id="line2d_17">
      <path clip-path="url(#p1097783663)" d="M 47.334 67.7039 
L 716.934 67.7039 
" style="fill:none;stroke:#8fa7bf;stroke-linecap:square;stroke-width:0.5;"/>
     </g>
     <g id="text_17">
      <!-- 35 -->
      <g transform="translate(25.40525 70.7460875)scale(0.12 -0.12)">
       <use xlink:href="#SourceSansPro-Regular-33"/>
       <use x="49.69999694824219" xlink:href="#SourceSansPro-Regular-35"/>
      </g>
     </g>
    </g>
    <g id="ytick_9">
     <g id="line2d_18">
      <path clip-path="url(#p1097783663)" d="M 47.334 31.7039 
L 716.934 31.7039 
" style="fill:none;stroke:#8fa7bf;stroke-linecap:square;stroke-width:0.5;"/>
     </g>
     <g id="text_18">
      <!-- 40 -->
      <g transform="translate(25.40525 34.7460875)scale(0.12 -0.12)">
       <use xlink:href="#SourceSansPro-Regular-34"/>
       <use x="49.69999694824219" xlink:href="#SourceSansPro-Regular-30"/>
      </g>
     </g>
    </g>
    <g id="text_19">
     <!-- Cost (£) -->
     <defs>
      <path d="M 9.59375 15 
C 9.59375 5.40625 13.09375 -1.203125 23.5 -1.203125 
C 26.5 -1.203125 29.796875 -0.296875 32.5 0.59375 
L 30.90625 6.796875 
C 29.296875 6.203125 27.09375 5.5 25.40625 5.5 
C 19.796875 5.5 17.90625 8.90625 17.90625 14.90625 
L 17.90625 41.90625 
L 31 41.90625 
L 31 48.59375 
L 17.90625 48.59375 
L 17.90625 62.203125 
L 11 62.203125 
L 10 48.59375 
L 2.40625 48.09375 
L 2.40625 41.90625 
L 9.59375 41.90625 
z
" id="SourceSansPro-Regular-74"/>
      <path d="M 3.796875 -15.203125 
L 8.90625 -17.59375 
C 17.203125 -4.203125 22.09375 10.203125 22.09375 27.796875 
C 22.09375 45.40625 17.203125 59.796875 8.90625 73.203125 
L 3.796875 70.796875 
C 11.5 58.09375 15.296875 43 15.296875 27.796875 
C 15.296875 12.59375 11.5 -2.5 3.796875 -15.203125 
" id="SourceSansPro-Regular-29"/>
      <path d="M 21.40625 -17.59375 
L 26.5 -15.203125 
C 18.796875 -2.5 15 12.59375 15 27.796875 
C 15 43 18.796875 58.09375 26.5 70.796875 
L 21.40625 73.203125 
C 13.09375 59.796875 8.203125 45.40625 8.203125 27.796875 
C 8.203125 10.203125 13.09375 -4.203125 21.40625 -17.59375 
" id="SourceSansPro-Regular-28"/>
      <path d="M 5.203125 32.796875 
C 5.203125 11.40625 17.40625 -1.203125 33.90625 -1.203125 
C 42.296875 -1.203125 48.703125 2.296875 53.90625 8.296875 
L 49.203125 13.40625 
C 45 8.703125 40.40625 6.09375 34.09375 6.09375 
C 21.703125 6.09375 13.796875 16.5 13.796875 33 
C 13.796875 49.296875 22 59.5 34.5 59.5 
C 40 59.5 44.203125 57.09375 47.59375 53.40625 
L 52.296875 58.703125 
C 48.5 63 42.296875 66.796875 34.40625 66.796875 
C 17.59375 66.796875 5.203125 53.90625 5.203125 32.796875 
" id="SourceSansPro-Regular-43"/>
      <path d="M 4.59375 24.203125 
C 4.59375 8.09375 15.203125 -1.203125 27.09375 -1.203125 
C 39 -1.203125 49.59375 8.09375 49.59375 24.203125 
C 49.59375 40.5 39 49.796875 27.09375 49.796875 
C 15.203125 49.796875 4.59375 40.5 4.59375 24.203125 
M 13.09375 24.203125 
C 13.09375 35.40625 18.796875 43 27.09375 43 
C 35.5 43 41.09375 35.40625 41.09375 24.203125 
C 41.09375 13.09375 35.5 5.59375 27.09375 5.59375 
C 18.796875 5.59375 13.09375 13.09375 13.09375 24.203125 
" id="SourceSansPro-Regular-6f"/>
      <path d="M 17.203125 7.09375 
L 17.203125 7.5 
C 21.203125 11.59375 23.40625 15.90625 23.40625 22.90625 
C 23.40625 24.90625 23.203125 26.703125 22.90625 28.5 
L 37.5 28.5 
L 37.5 34.09375 
L 21.59375 34.09375 
C 20.40625 38.296875 19.203125 42.203125 19.203125 46.40625 
C 19.203125 53.296875 23.09375 58.09375 30.296875 58.09375 
C 34.796875 58.09375 37.90625 55.90625 40.40625 52.796875 
L 45.203125 57.5 
C 41.703125 61.796875 36.796875 65 29.703125 65 
C 18.59375 65 11.09375 57.90625 11.09375 46.59375 
C 11.09375 42.40625 12.5 38.296875 13.796875 34.09375 
L 12 34.09375 
L 5.296875 33.703125 
L 5.296875 28.5 
L 15.296875 28.5 
C 15.703125 26.703125 16 24.90625 16 23 
C 16 15.5 12.203125 8.703125 5.40625 5 
L 5.40625 0 
L 45.296875 0 
L 45.296875 7.09375 
z
" id="SourceSansPro-Regular-a3"/>
      <path d="M 2.796875 5.5 
C 7.40625 1.703125 14 -1.203125 20.90625 -1.203125 
C 32.40625 -1.203125 38.703125 5.40625 38.703125 13.296875 
C 38.703125 22.5 30.90625 25.40625 23.90625 28 
C 18.40625 30.09375 13.09375 31.796875 13.09375 36.40625 
C 13.09375 40.09375 15.90625 43.40625 22 43.40625 
C 26.296875 43.40625 29.796875 41.59375 33.09375 39.09375 
L 37 44.296875 
C 33.296875 47.296875 28 49.796875 21.90625 49.796875 
C 11.40625 49.796875 5.203125 43.796875 5.203125 36 
C 5.203125 27.796875 12.796875 24.5 19.703125 22 
C 25 20 30.796875 17.796875 30.796875 12.796875 
C 30.796875 8.59375 27.59375 5.203125 21.203125 5.203125 
C 15.40625 5.203125 11.09375 7.59375 6.90625 11 
z
" id="SourceSansPro-Regular-73"/>
     </defs>
     <g transform="translate(17.45325 198.5639)rotate(-90.0)scale(0.144 -0.144)">
      <use xlink:href="#SourceSansPro-Regular-43"/>
      <use x="57.09999084472656" xlink:href="#SourceSansPro-Regular-6f"/>
      <use x="111.29998779296875" xlink:href="#SourceSansPro-Regular-73"/>
      <use x="153.19998168945312" xlink:href="#SourceSansPro-Regular-74"/>
      <use x="186.99996948242188" xlink:href="#SourceSansPro-Regular-20"/>
      <use x="207.19996643066406" xlink:href="#SourceSansPro-Regular-28"/>
      <use x="237.4999542236328" xlink:href="#SourceSansPro-Regular-a3"/>
      <use x="287.199951171875" xlink:href="#SourceSansPro-Regular-29"/>
     </g>
    </g>
   </g>
   <g id="line2d_19">
    <path clip-path="url(#p1097783663)" d="M 47.334 247.7039 
L 716.934 247.7039 
" style="fill:none;stroke:#607080;stroke-linecap:square;stroke-width:0.75;"/>
   </g>
   <g id="line2d_20">
    <path clip-path="url(#p1097783663)" d="M 47.334 211.7039 
L 716.934 211.7039 
" style="fill:none;stroke:#607080;stroke-linecap:square;stroke-width:0.75;"/>
   </g>
   <g id="line2d_21">
    <defs>
     <path d="M 0 1.5 
C 0.397805 1.5 0.77937 1.341951 1.06066 1.06066 
C 1.341951 0.77937 1.5 0.397805 1.5 0 
C 1.5 -0.397805 1.341951 -0.77937 1.06066 -1.06066 
C 0.77937 -1.341951 0.397805 -1.5 0 -1.5 
C -0.397805 -1.5 -0.77937 -1.341951 -1.06066 -1.06066 
C -1.341951 -0.77937 -1.5 -0.397805 -1.5 0 
C -1.5 0.397805 -1.341951 0.77937 -1.06066 1.06066 
C -0.77937 1.341951 -0.397805 1.5 0 1.5 
z
" id="m919c02fa7a"/>
    </defs>
    <g clip-path="url(#p1097783663)">
     <use style="fill:#1369bf;" x="57.4100601915" xlink:href="#m919c02fa7a" y="130.3439"/>
     <use style="fill:#1369bf;" x="63.8220984952" xlink:href="#m919c02fa7a" y="112.3439"/>
     <use style="fill:#1369bf;" x="70.234136799" xlink:href="#m919c02fa7a" y="138.9839"/>
     <use style="fill:#1369bf;" x="76.6461751027" xlink:href="#m919c02fa7a" y="169.9439"/>
     <use style="fill:#1369bf;" x="83.0582134064" xlink:href="#m919c02fa7a" y="141.8639"/>
     <use style="fill:#1369bf;" x="89.47025171" xlink:href="#m919c02fa7a" y="160.9439"/>
     <use style="fill:#1369bf;" x="95.8822900137" xlink:href="#m919c02fa7a" y="200.9039"/>
     <use style="fill:#1369bf;" x="102.294328317" xlink:href="#m919c02fa7a" y="168.5039"/>
     <use style="fill:#1369bf;" x="108.706366621" xlink:href="#m919c02fa7a" y="39.6239"/>
     <use style="fill:#1369bf;" x="115.118404925" xlink:href="#m919c02fa7a" y="179.3039"/>
     <use style="fill:#1369bf;" x="121.530443229" xlink:href="#m919c02fa7a" y="138.2639"/>
     <use style="fill:#1369bf;" x="127.942481532" xlink:href="#m919c02fa7a" y="179.3039"/>
     <use style="fill:#1369bf;" x="134.354519836" xlink:href="#m919c02fa7a" y="182.9039"/>
     <use style="fill:#1369bf;" x="140.76655814" xlink:href="#m919c02fa7a" y="108.0239"/>
     <use style="fill:#1369bf;" x="147.178596443" xlink:href="#m919c02fa7a" y="200.9039"/>
     <use style="fill:#1369bf;" x="153.590634747" xlink:href="#m919c02fa7a" y="298.1039"/>
     <use style="fill:#1369bf;" x="160.002673051" xlink:href="#m919c02fa7a" y="169.9439"/>
     <use style="fill:#1369bf;" x="166.414711354" xlink:href="#m919c02fa7a" y="234.7439"/>
     <use style="fill:#1369bf;" x="172.826749658" xlink:href="#m919c02fa7a" y="184.3439"/>
     <use style="fill:#1369bf;" x="179.238787962" xlink:href="#m919c02fa7a" y="179.3039"/>
     <use style="fill:#1369bf;" x="185.650826265" xlink:href="#m919c02fa7a" y="221.0639"/>
     <use style="fill:#1369bf;" x="192.062864569" xlink:href="#m919c02fa7a" y="227.5439"/>
     <use style="fill:#1369bf;" x="198.474902873" xlink:href="#m919c02fa7a" y="149.7839"/>
     <use style="fill:#1369bf;" x="204.886941176" xlink:href="#m919c02fa7a" y="211.7039"/>
     <use style="fill:#1369bf;" x="211.29897948" xlink:href="#m919c02fa7a" y="298.1039"/>
     <use style="fill:#1369bf;" x="217.711017784" xlink:href="#m919c02fa7a" y="177.8639"/>
     <use style="fill:#1369bf;" x="224.123056088" xlink:href="#m919c02fa7a" y="200.9039"/>
     <use style="fill:#1369bf;" x="230.535094391" xlink:href="#m919c02fa7a" y="190.1039"/>
     <use style="fill:#1369bf;" x="236.947132695" xlink:href="#m919c02fa7a" y="194.4239"/>
     <use style="fill:#1369bf;" x="243.359170999" xlink:href="#m919c02fa7a" y="234.0239"/>
     <use style="fill:#1369bf;" x="249.771209302" xlink:href="#m919c02fa7a" y="228.2639"/>
     <use style="fill:#1369bf;" x="256.183247606" xlink:href="#m919c02fa7a" y="218.1839"/>
     <use style="fill:#1369bf;" x="262.59528591" xlink:href="#m919c02fa7a" y="235.4639"/>
     <use style="fill:#1369bf;" x="269.007324213" xlink:href="#m919c02fa7a" y="278.6639"/>
     <use style="fill:#1369bf;" x="275.419362517" xlink:href="#m919c02fa7a" y="221.0639"/>
     <use style="fill:#1369bf;" x="281.831400821" xlink:href="#m919c02fa7a" y="305.3039"/>
     <use style="fill:#1369bf;" x="288.243439125" xlink:href="#m919c02fa7a" y="319.7039"/>
     <use style="fill:#1369bf;" x="294.655477428" xlink:href="#m919c02fa7a" y="183.6239"/>
     <use style="fill:#1369bf;" x="301.067515732" xlink:href="#m919c02fa7a" y="170.6639"/>
     <use style="fill:#1369bf;" x="307.479554036" xlink:href="#m919c02fa7a" y="211.7039"/>
     <use style="fill:#1369bf;" x="313.891592339" xlink:href="#m919c02fa7a" y="206.6639"/>
     <use style="fill:#1369bf;" x="320.303630643" xlink:href="#m919c02fa7a" y="279.0239"/>
     <use style="fill:#1369bf;" x="326.715668947" xlink:href="#m919c02fa7a" y="319.7039"/>
     <use style="fill:#1369bf;" x="333.12770725" xlink:href="#m919c02fa7a" y="236.9039"/>
     <use style="fill:#1369bf;" x="339.539745554" xlink:href="#m919c02fa7a" y="247.7039"/>
     <use style="fill:#1369bf;" x="345.951783858" xlink:href="#m919c02fa7a" y="197.6639"/>
     <use style="fill:#1369bf;" x="352.363822161" xlink:href="#m919c02fa7a" y="262.1039"/>
     <use style="fill:#1369bf;" x="358.775860465" xlink:href="#m919c02fa7a" y="252.7439"/>
     <use style="fill:#1369bf;" x="365.187898769" xlink:href="#m919c02fa7a" y="262.1039"/>
     <use style="fill:#1369bf;" x="371.599937073" xlink:href="#m919c02fa7a" y="243.3839"/>
     <use style="fill:#1369bf;" x="378.011975376" xlink:href="#m919c02fa7a" y="319.7039"/>
     <use style="fill:#1369bf;" x="384.42401368" xlink:href="#m919c02fa7a" y="224.6639"/>
     <use style="fill:#1369bf;" x="390.836051984" xlink:href="#m919c02fa7a" y="190.8239"/>
     <use style="fill:#1369bf;" x="397.248090287" xlink:href="#m919c02fa7a" y="206.6639"/>
     <use style="fill:#1369bf;" x="403.660128591" xlink:href="#m919c02fa7a" y="255.9839"/>
     <use style="fill:#1369bf;" x="410.072166895" xlink:href="#m919c02fa7a" y="234.3839"/>
     <use style="fill:#1369bf;" x="416.484205198" xlink:href="#m919c02fa7a" y="247.7039"/>
     <use style="fill:#1369bf;" x="422.896243502" xlink:href="#m919c02fa7a" y="188.6639"/>
     <use style="fill:#1369bf;" x="429.308281806" xlink:href="#m919c02fa7a" y="228.2639"/>
     <use style="fill:#1369bf;" x="435.72032011" xlink:href="#m919c02fa7a" y="247.7039"/>
     <use style="fill:#1369bf;" x="442.132358413" xlink:href="#m919c02fa7a" y="230.7839"/>
     <use style="fill:#1369bf;" x="448.544396717" xlink:href="#m919c02fa7a" y="319.7039"/>
     <use style="fill:#1369bf;" x="454.956435021" xlink:href="#m919c02fa7a" y="319.7039"/>
     <use style="fill:#1369bf;" x="461.368473324" xlink:href="#m919c02fa7a" y="319.7039"/>
     <use style="fill:#1369bf;" x="467.780511628" xlink:href="#m919c02fa7a" y="239.4239"/>
     <use style="fill:#1369bf;" x="474.192549932" xlink:href="#m919c02fa7a" y="176.7839"/>
     <use style="fill:#1369bf;" x="480.604588235" xlink:href="#m919c02fa7a" y="290.9039"/>
     <use style="fill:#1369bf;" x="487.016626539" xlink:href="#m919c02fa7a" y="263.1839"/>
     <use style="fill:#1369bf;" x="493.428664843" xlink:href="#m919c02fa7a" y="250.9439"/>
     <use style="fill:#1369bf;" x="499.840703146" xlink:href="#m919c02fa7a" y="247.7039"/>
     <use style="fill:#1369bf;" x="506.25274145" xlink:href="#m919c02fa7a" y="233.3039"/>
     <use style="fill:#1369bf;" x="512.664779754" xlink:href="#m919c02fa7a" y="208.4639"/>
     <use style="fill:#1369bf;" x="519.076818057" xlink:href="#m919c02fa7a" y="287.3039"/>
     <use style="fill:#1369bf;" x="525.488856361" xlink:href="#m919c02fa7a" y="319.7039"/>
     <use style="fill:#1369bf;" x="531.900894665" xlink:href="#m919c02fa7a" y="233.3039"/>
     <use style="fill:#1369bf;" x="538.312932969" xlink:href="#m919c02fa7a" y="133.9439"/>
     <use style="fill:#1369bf;" x="544.724971272" xlink:href="#m919c02fa7a" y="204.5039"/>
     <use style="fill:#1369bf;" x="551.137009576" xlink:href="#m919c02fa7a" y="41.7839"/>
     <use style="fill:#1369bf;" x="557.54904788" xlink:href="#m919c02fa7a" y="234.7439"/>
     <use style="fill:#1369bf;" x="563.961086183" xlink:href="#m919c02fa7a" y="99.3839"/>
     <use style="fill:#1369bf;" x="570.373124487" xlink:href="#m919c02fa7a" y="149.7839"/>
     <use style="fill:#1369bf;" x="576.785162791" xlink:href="#m919c02fa7a" y="192.9839"/>
     <use style="fill:#1369bf;" x="583.197201094" xlink:href="#m919c02fa7a" y="166.3439"/>
     <use style="fill:#1369bf;" x="589.609239398" xlink:href="#m919c02fa7a" y="192.9839"/>
     <use style="fill:#1369bf;" x="596.021277702" xlink:href="#m919c02fa7a" y="174.2639"/>
     <use style="fill:#1369bf;" x="602.433316006" xlink:href="#m919c02fa7a" y="51.1439"/>
     <use style="fill:#1369bf;" x="608.845354309" xlink:href="#m919c02fa7a" y="144.7439"/>
     <use style="fill:#1369bf;" x="615.257392613" xlink:href="#m919c02fa7a" y="67.7039"/>
     <use style="fill:#1369bf;" x="621.669430917" xlink:href="#m919c02fa7a" y="319.7039"/>
     <use style="fill:#1369bf;" x="628.08146922" xlink:href="#m919c02fa7a" y="246.9839"/>
     <use style="fill:#1369bf;" x="634.493507524" xlink:href="#m919c02fa7a" y="115.2239"/>
     <use style="fill:#1369bf;" x="640.905545828" xlink:href="#m919c02fa7a" y="298.1039"/>
     <use style="fill:#1369bf;" x="647.317584131" xlink:href="#m919c02fa7a" y="214.5839"/>
     <use style="fill:#1369bf;" x="653.729622435" xlink:href="#m919c02fa7a" y="240.5039"/>
     <use style="fill:#1369bf;" x="660.141660739" xlink:href="#m919c02fa7a" y="287.3039"/>
     <use style="fill:#1369bf;" x="666.553699042" xlink:href="#m919c02fa7a" y="254.9039"/>
     <use style="fill:#1369bf;" x="672.965737346" xlink:href="#m919c02fa7a" y="145.4639"/>
     <use style="fill:#1369bf;" x="679.37777565" xlink:href="#m919c02fa7a" y="197.3039"/>
     <use style="fill:#1369bf;" x="685.789813954" xlink:href="#m919c02fa7a" y="298.1039"/>
     <use style="fill:#1369bf;" x="692.201852257" xlink:href="#m919c02fa7a" y="264.9839"/>
     <use style="fill:#1369bf;" x="698.613890561" xlink:href="#m919c02fa7a" y="298.1039"/>
     <use style="fill:#1369bf;" x="705.025928865" xlink:href="#m919c02fa7a" y="302.4239"/>
    </g>
   </g>
   <g id="line2d_22">
    <path clip-path="url(#p1097783663)" d="M 102.294328 152.9789 
L 108.706367 141.6389 
L 115.118405 150.0089 
L 121.530443 149.9189 
L 127.942482 151.0889 
L 134.35452 156.2189 
L 140.766558 149.6039 
L 147.178596 149.6039 
L 153.590635 165.8039 
L 160.002673 182.0939 
L 166.414711 189.0239 
L 172.82675 194.7839 
L 179.238788 194.7839 
L 185.650826 199.5539 
L 192.062865 214.4939 
L 198.474903 208.1039 
L 204.886941 197.3039 
L 211.298979 213.3239 
L 217.711018 206.2139 
L 224.123056 208.2839 
L 230.535094 209.6339 
L 236.947133 206.3039 
L 243.359171 207.1139 
L 249.771209 216.9239 
L 256.183248 217.7339 
L 262.595286 209.9039 
L 269.007324 222.5039 
L 275.419363 225.0239 
L 281.831401 239.4239 
L 288.243439 255.0839 
L 294.655477 248.7839 
L 301.067516 241.5839 
L 307.479554 240.7739 
L 313.891592 237.1739 
L 320.303631 237.2189 
L 326.715669 249.5489 
L 333.127707 240.9989 
L 339.539746 231.9989 
L 345.951784 233.7539 
L 352.363822 245.1839 
L 358.77586 250.3139 
L 365.187899 257.2439 
L 371.599937 252.7889 
L 378.011975 252.7889 
L 384.424014 251.2589 
L 390.836052 244.1489 
L 397.24809 245.2739 
L 403.660129 244.5089 
L 410.072167 242.2139 
L 416.484205 240.4139 
L 422.896244 233.5739 
L 429.308282 222.1439 
L 435.72032 225.0239 
L 442.132358 230.0189 
L 448.544397 244.1489 
L 454.956435 252.1139 
L 461.368473 262.7789 
L 467.780512 261.7439 
L 474.19255 260.2589 
L 480.604588 268.0889 
L 487.016627 270.0239 
L 493.428665 272.5439 
L 499.840703 263.5439 
L 506.252741 252.7439 
L 512.66478 238.8389 
L 519.076818 244.8239 
L 525.488856 262.6889 
L 531.900895 255.4889 
L 538.312933 239.3339 
L 544.724971 233.5289 
L 551.13701 207.7889 
L 557.549048 207.9689 
L 563.961086 194.3339 
L 570.373124 177.1439 
L 576.785163 161.3039 
L 583.197201 152.9339 
L 589.609239 160.3139 
L 596.021278 156.5339 
L 602.433316 157.7039 
L 608.845354 146.4539 
L 615.257393 142.4939 
L 621.669431 163.7339 
L 628.081469 170.4839 
L 634.493508 164.0939 
L 640.905546 177.2339 
L 647.317584 182.2739 
L 653.729622 205.9439 
L 660.141661 223.7639 
L 666.553699 247.1639 
L 672.965737 225.3839 
L 679.377776 219.1739 
L 685.789814 242.0339 
L 692.201852 237.8939 
L 698.613891 248.3339 
L 705.025929 256.0739 
" style="fill:none;stroke:#bd3338;stroke-linecap:square;stroke-width:2.0;"/>
   </g>
   <g id="text_20">
    <!-- Weekly transport spending and six-week moving average -->
    <defs>
     <path d="M 8.203125 0 
L 16.40625 0 
L 16.40625 35.203125 
C 20.90625 40.203125 25 42.703125 28.59375 42.703125 
C 34.796875 42.703125 37.703125 38.796875 37.703125 29.703125 
L 37.703125 0 
L 45.90625 0 
L 45.90625 35.203125 
C 50.40625 40.203125 54.296875 42.703125 58.09375 42.703125 
C 64.203125 42.703125 67.09375 38.796875 67.09375 29.703125 
L 67.09375 0 
L 75.296875 0 
L 75.296875 30.796875 
C 75.296875 43.203125 70.5 49.796875 60.5 49.796875 
C 54.59375 49.796875 49.59375 46 44.5 40.5 
C 42.5 46.296875 38.5 49.796875 31.09375 49.796875 
C 25.296875 49.796875 20.203125 46.203125 16 41.59375 
L 15.703125 41.59375 
L 15 48.59375 
L 8.203125 48.59375 
z
" id="SourceSansPro-Regular-6d"/>
     <path d="M 15.90625 0 
L 25.5 0 
L 32.296875 26 
C 33.59375 30.59375 34.59375 35.203125 35.703125 40.09375 
L 36.09375 40.09375 
C 37.296875 35.203125 38.203125 30.703125 39.40625 26.09375 
L 46.40625 0 
L 56.40625 0 
L 69.40625 48.59375 
L 61.59375 48.59375 
L 54.5 20.5 
C 53.5 15.90625 52.59375 11.5 51.5 7 
L 51.09375 7 
C 50 11.5 48.90625 15.90625 47.703125 20.5 
L 40.09375 48.59375 
L 32.09375 48.59375 
L 24.59375 20.5 
C 23.40625 16 22.40625 11.5 21.296875 7 
L 20.90625 7 
C 20 11.5 19.09375 15.90625 18 20.5 
L 10.796875 48.59375 
L 2.40625 48.59375 
z
" id="SourceSansPro-Regular-77"/>
     <path d="M 1.40625 0 
L 10 0 
L 16.59375 11.296875 
C 18.203125 14.296875 19.796875 17.203125 21.5 20 
L 21.90625 20 
C 23.703125 17.203125 25.5 14.203125 27.203125 11.296875 
L 34.296875 0 
L 43.203125 0 
L 27.40625 24.5 
L 42.09375 48.59375 
L 33.5 48.59375 
L 27.59375 37.90625 
C 26.09375 35.296875 24.59375 32.5 23.203125 29.796875 
L 22.796875 29.796875 
C 21.09375 32.5 19.5 35.296875 18 37.90625 
L 11.5 48.59375 
L 2.59375 48.59375 
L 17.296875 25.40625 
z
" id="SourceSansPro-Regular-78"/>
     <path d="M 4.703125 24.203125 
C 4.703125 8 12.59375 -1.203125 24.796875 -1.203125 
C 30.5 -1.203125 35.703125 2 39.5 5.703125 
L 39.796875 5.703125 
L 40.5 0 
L 47.296875 0 
L 47.296875 71.203125 
L 39 71.203125 
L 39 52.5 
L 39.40625 44.203125 
C 35.09375 47.703125 31.40625 49.796875 25.796875 49.796875 
C 14.703125 49.796875 4.703125 40 4.703125 24.203125 
M 13.203125 24.296875 
C 13.203125 35.40625 19.40625 42.90625 27.203125 42.90625 
C 31.203125 42.90625 34.90625 41.5 39 37.796875 
L 39 12.40625 
C 35 7.90625 31.09375 5.703125 26.59375 5.703125 
C 18.09375 5.703125 13.203125 12.703125 13.203125 24.296875 
" id="SourceSansPro-Regular-64"/>
     <path d="M 8.203125 9.796875 
C 8.203125 2.703125 10.703125 -1.203125 16.90625 -1.203125 
C 19.09375 -1.203125 20.5 -0.90625 21.59375 -0.40625 
L 20.5 5.796875 
C 19.59375 5.59375 19.203125 5.59375 18.703125 5.59375 
C 17.5 5.59375 16.40625 6.59375 16.40625 9.203125 
L 16.40625 71.203125 
L 8.203125 71.203125 
z
" id="SourceSansPro-Regular-6c"/>
     <path d="M 12.40625 58.59375 
C 15.59375 58.59375 18.09375 60.796875 18.09375 63.90625 
C 18.09375 67.09375 15.59375 69.203125 12.40625 69.203125 
C 9.203125 69.203125 6.703125 67.09375 6.703125 63.90625 
C 6.703125 60.796875 9.203125 58.59375 12.40625 58.59375 
M 8.203125 0 
L 16.40625 0 
L 16.40625 48.59375 
L 8.203125 48.59375 
z
" id="SourceSansPro-Regular-69"/>
     <path d="M 16.203125 0 
L 26.09375 0 
L 35.796875 39.5 
C 36.90625 44.59375 38.09375 49.296875 39.09375 54.40625 
L 39.5 54.40625 
C 40.5 49.296875 41.5 44.59375 42.703125 39.5 
L 52.59375 0 
L 62.59375 0 
L 76.203125 65.59375 
L 68.203125 65.59375 
L 61.296875 29.90625 
C 60 22.90625 58.796875 15.796875 57.59375 8.703125 
L 57.203125 8.703125 
C 55.59375 15.796875 54 23 52.40625 29.90625 
L 43.296875 65.59375 
L 35.703125 65.59375 
L 26.59375 29.90625 
C 25.09375 22.90625 23.5 15.796875 22 8.703125 
L 21.59375 8.703125 
C 20.40625 15.796875 19 22.796875 17.796875 29.90625 
L 10.90625 65.59375 
L 2.296875 65.59375 
z
" id="SourceSansPro-Regular-57"/>
     <path d="M 18.703125 0 
L 28.296875 0 
L 45.5 48.59375 
L 37.40625 48.59375 
L 28.203125 21 
C 26.796875 16.203125 25.203125 11.296875 23.796875 6.703125 
L 23.40625 6.703125 
C 21.90625 11.296875 20.296875 16.203125 18.90625 21 
L 9.703125 48.59375 
L 1.203125 48.59375 
z
" id="SourceSansPro-Regular-76"/>
     <path d="M 4.09375 21.90625 
L 27.09375 21.90625 
L 27.09375 28.203125 
L 4.09375 28.203125 
z
" id="SourceSansPro-Regular-2d"/>
     <path d="M 11.703125 -8.203125 
C 11.703125 -5.40625 13.203125 -2.5 16.703125 0 
C 18.796875 -0.59375 21.09375 -0.796875 23 -0.796875 
L 31.40625 -0.796875 
C 37.703125 -0.796875 41.203125 -2.296875 41.203125 -6.796875 
C 41.203125 -11.90625 35.09375 -16.703125 25.796875 -16.703125 
C 17 -16.703125 11.703125 -13.40625 11.703125 -8.203125 
M 4.5 -9.296875 
C 4.5 -17.703125 12.703125 -22.40625 24.59375 -22.40625 
C 39.703125 -22.40625 49.203125 -14.59375 49.203125 -5.59375 
C 49.203125 2.5 43.5 6 32.203125 6 
L 22.796875 6 
C 16.203125 6 14.203125 8.203125 14.203125 11.296875 
C 14.203125 14 15.59375 15.59375 17.296875 17.09375 
C 19.5 16 22.203125 15.40625 24.59375 15.40625 
C 34.5 15.40625 42.40625 21.90625 42.40625 32.296875 
C 42.40625 36.40625 40.703125 40.09375 38.40625 42.296875 
L 48.40625 42.296875 
L 48.40625 48.59375 
L 31.5 48.59375 
C 29.703125 49.296875 27.296875 49.796875 24.59375 49.796875 
C 14.703125 49.796875 6.296875 43.09375 6.296875 32.5 
C 6.296875 26.703125 9.40625 22 12.59375 19.40625 
L 12.59375 19 
C 10.09375 17.296875 7.296875 14.09375 7.296875 10 
C 7.296875 6.203125 9.203125 3.59375 11.59375 2.09375 
L 11.59375 1.703125 
C 7.203125 -1.296875 4.5 -5.203125 4.5 -9.296875 
M 24.59375 20.90625 
C 19 20.90625 14.296875 25.40625 14.296875 32.5 
C 14.296875 39.59375 18.90625 43.796875 24.59375 43.796875 
C 30.296875 43.796875 34.90625 39.59375 34.90625 32.5 
C 34.90625 25.40625 30.203125 20.90625 24.59375 20.90625 
" id="SourceSansPro-Regular-67"/>
     <path d="M 8.203125 0 
L 16.296875 0 
L 16.296875 12.796875 
L 25.40625 23.40625 
L 39.59375 0 
L 48.59375 0 
L 30.09375 29.09375 
L 46.40625 48.59375 
L 37.296875 48.59375 
L 16.59375 23 
L 16.296875 23 
L 16.296875 71.203125 
L 8.203125 71.203125 
z
" id="SourceSansPro-Regular-6b"/>
     <path d="M 4.90625 -13.40625 
L 3.296875 -19.90625 
C 4.90625 -20.5 6.796875 -20.90625 9 -20.90625 
C 18.796875 -20.90625 23.796875 -13.59375 27.203125 -4 
L 45.5 48.59375 
L 37.5 48.59375 
L 28.796875 21.703125 
C 27.5 17.40625 26.09375 12.40625 24.703125 8 
L 24.296875 8 
C 22.796875 12.5 21.09375 17.5 19.59375 21.703125 
L 9.703125 48.59375 
L 1.203125 48.59375 
L 20.703125 -0.09375 
L 19.59375 -3.703125 
C 17.59375 -9.703125 14.09375 -14.09375 8.59375 -14.09375 
C 7.40625 -14.09375 5.90625 -13.703125 4.90625 -13.40625 
" id="SourceSansPro-Regular-79"/>
    </defs>
    <g transform="translate(177.096 19.5039)scale(0.1728 -0.1728)">
     <use xlink:href="#SourceSansPro-Regular-57"/>
     <use x="78.59999084472656" xlink:href="#SourceSansPro-Regular-65"/>
     <use x="128.19998168945312" xlink:href="#SourceSansPro-Regular-65"/>
     <use x="177.7999725341797" xlink:href="#SourceSansPro-Regular-6b"/>
     <use x="227.29995727539062" xlink:href="#SourceSansPro-Regular-6c"/>
     <use x="252.79994201660156" xlink:href="#SourceSansPro-Regular-79"/>
     <use x="299.49993896484375" xlink:href="#SourceSansPro-Regular-20"/>
     <use x="319.69993591308594" xlink:href="#SourceSansPro-Regular-74"/>
     <use x="353.4999237060547" xlink:href="#SourceSansPro-Regular-72"/>
     <use x="388.1999206542969" xlink:href="#SourceSansPro-Regular-61"/>
     <use x="439.39991760253906" xlink:href="#SourceSansPro-Regular-6e"/>
     <use x="494.09991455078125" xlink:href="#SourceSansPro-Regular-73"/>
     <use x="535.9999084472656" xlink:href="#SourceSansPro-Regular-70"/>
     <use x="591.4998931884766" xlink:href="#SourceSansPro-Regular-6f"/>
     <use x="645.6998901367188" xlink:href="#SourceSansPro-Regular-72"/>
     <use x="680.3998870849609" xlink:href="#SourceSansPro-Regular-74"/>
     <use x="714.1998748779297" xlink:href="#SourceSansPro-Regular-20"/>
     <use x="734.3998718261719" xlink:href="#SourceSansPro-Regular-73"/>
     <use x="776.2998657226562" xlink:href="#SourceSansPro-Regular-70"/>
     <use x="831.7998504638672" xlink:href="#SourceSansPro-Regular-65"/>
     <use x="881.3998413085938" xlink:href="#SourceSansPro-Regular-6e"/>
     <use x="936.0998382568359" xlink:href="#SourceSansPro-Regular-64"/>
     <use x="991.5998229980469" xlink:href="#SourceSansPro-Regular-69"/>
     <use x="1016.1998138427734" xlink:href="#SourceSansPro-Regular-6e"/>
     <use x="1070.8998107910156" xlink:href="#SourceSansPro-Regular-67"/>
     <use x="1121.2998046875" xlink:href="#SourceSansPro-Regular-20"/>
     <use x="1141.4998016357422" xlink:href="#SourceSansPro-Regular-61"/>
     <use x="1192.6997985839844" xlink:href="#SourceSansPro-Regular-6e"/>
     <use x="1247.3997955322266" xlink:href="#SourceSansPro-Regular-64"/>
     <use x="1302.8997802734375" xlink:href="#SourceSansPro-Regular-20"/>
     <use x="1323.0997772216797" xlink:href="#SourceSansPro-Regular-73"/>
     <use x="1364.999771118164" xlink:href="#SourceSansPro-Regular-69"/>
     <use x="1389.5997619628906" xlink:href="#SourceSansPro-Regular-78"/>
     <use x="1434.1997528076172" xlink:href="#SourceSansPro-Regular-2d"/>
     <use x="1465.2997436523438" xlink:href="#SourceSansPro-Regular-77"/>
     <use x="1537.0997314453125" xlink:href="#SourceSansPro-Regular-65"/>
     <use x="1586.699722290039" xlink:href="#SourceSansPro-Regular-65"/>
     <use x="1636.2997131347656" xlink:href="#SourceSansPro-Regular-6b"/>
     <use x="1685.7996978759766" xlink:href="#SourceSansPro-Regular-20"/>
     <use x="1705.9996948242188" xlink:href="#SourceSansPro-Regular-6d"/>
     <use x="1788.8996887207031" xlink:href="#SourceSansPro-Regular-6f"/>
     <use x="1843.0996856689453" xlink:href="#SourceSansPro-Regular-76"/>
     <use x="1889.7996826171875" xlink:href="#SourceSansPro-Regular-69"/>
     <use x="1914.399673461914" xlink:href="#SourceSansPro-Regular-6e"/>
     <use x="1969.0996704101562" xlink:href="#SourceSansPro-Regular-67"/>
     <use x="2019.4996643066406" xlink:href="#SourceSansPro-Regular-20"/>
     <use x="2039.6996612548828" xlink:href="#SourceSansPro-Regular-61"/>
     <use x="2090.899658203125" xlink:href="#SourceSansPro-Regular-76"/>
     <use x="2137.599655151367" xlink:href="#SourceSansPro-Regular-65"/>
     <use x="2187.1996459960938" xlink:href="#SourceSansPro-Regular-72"/>
     <use x="2221.899642944336" xlink:href="#SourceSansPro-Regular-61"/>
     <use x="2273.099639892578" xlink:href="#SourceSansPro-Regular-67"/>
     <use x="2323.4996337890625" xlink:href="#SourceSansPro-Regular-65"/>
    </g>
   </g>
  </g>
 </g>
 <defs>
  <clipPath id="p1097783663">
   <rect height="288.0" width="669.6" x="47.334" y="31.7039"/>
  </clipPath>
 </defs>
</svg>
