<svg height="512" viewBox="0 0 631 384" width="631pt" xmlns="http://www.w3.org/2000/svg" xmlns:xlink="http://www.w3.org/1999/xlink"><defs><style>*{stroke-linecap:butt;stroke-linejoin:round;stroke-miterlimit:100000}</style></defs><g id="figure_1"><path d="M0 385h631.92V0H0z" fill="none" id="patch_1"/><g id="axes_1"><path d="M53.3 338.59h558v-288h-558z" fill="none" id="patch_2"/><g id="matplotlib.axis_1"><g id="xtick_1"><path clip-path="url(#p0dc42d9402)" d="M66.9 338.59v-288" fill="none" stroke="#8fa7bf" stroke-linecap="square" stroke-width=".5" id="line2d_1"/><g id="line2d_2"><defs><path d="M0 0v-6" id="m66df3b8828" stroke="#000" stroke-width=".5"/></defs><use x="66.91" xlink:href="#m66df3b8828" y="338.59" stroke="#000" stroke-width=".5"/></g><g id="line2d_3"><defs><path d="M0 0v6" id="mfeae7e5b8d" stroke="#000" stroke-width=".5"/></defs><use x="66.91" xlink:href="#mfeae7e5b8d" y="50.59" stroke="#000" stroke-width=".5"/></g><g id="text_1"><defs><path d="M6.5 41.1c0-3.7 2.7-6.2 6-6.2 3.2 0 5.9 2.5 5.9 6.2 0 3.8-2.7 6.3-5.9 6.3-3.3 0-6-2.5-6-6.3M6.5 5a6 6 0 0 1 6-6.2c3.2 0 5.9 2.6 5.9 6.2 0 3.8-2.7 6.4-5.9 6.4-3.3 0-6-2.6-6-6.4" id="SourceSansPro-Regular-3a"/><path d="M10.4 24.2L25.3 46c1.8 3.1 3.6 5.9 5.2 9h.4c-.2-3.4-.5-8.9-.5-12.3V24.2zm36.5 0h-8.7v39.6H29L1.7 23v-5.4h28.7V0h7.8v17.6h8.7z" id="SourceSansPro-Regular-34"/><path d="M24.9-1.2c12.7 0 20.4 11.9 20.4 33.3S37.6 65 24.9 65C12.1 65 4.4 53.5 4.4 32.1S12.1-1.2 24.9-1.2m0 6.6c-7.5 0-12.5 8-12.5 26.7s5 26.3 12.5 26.3c7.4 0 12.4-7.6 12.4-26.3 0-18.7-5-26.7-12.4-26.7" id="SourceSansPro-Regular-30"/><path d="M7.9 0h36v6.8H30.7v57h-6.3c-3.5-2.1-7.7-3.7-13.5-4.7v-5.3h11.6v-47H7.9z" id="SourceSansPro-Regular-31"/></defs><g transform="matrix(.12 0 0 -.12 53.49 357.13)"><use xlink:href="#SourceSansPro-Regular-31"/><use x="49.7" xlink:href="#SourceSansPro-Regular-34"/><use x="99.4" xlink:href="#SourceSansPro-Regular-3a"/><use x="124.3" xlink:href="#SourceSansPro-Regular-30"/><use x="174" xlink:href="#SourceSansPro-Regular-30"/></g></g></g><g id="xtick_2"><path clip-path="url(#p0dc42d9402)" d="M121.35 338.59v-288" fill="none" stroke="#8fa7bf" stroke-linecap="square" stroke-width=".5" id="line2d_4"/><use x="121.35" xlink:href="#m66df3b8828" y="338.59" stroke="#000" stroke-width=".5" id="line2d_5"/><use x="121.35" xlink:href="#mfeae7e5b8d" y="50.59" stroke="#000" stroke-width=".5" id="line2d_6"/><g id="text_2"><defs><path d="M2.5 7.5c4.4-4.4 10.7-8.7 20.9-8.7 11.1 0 21.5 7.8 21.5 21.6s-8.9 20-19.8 20c-3.9 0-6.8-1-9.8-2.6L17 56.7h24.7v7.1H9.8L7.7 33.1l4.4-2.8c3.8 2.5 6.5 3.9 10.9 3.9 8.2 0 13.6-5.2 13.6-14 0-8.9-6.2-14.6-14-14.6-7.5 0-12.3 3.5-16.1 7.3z" id="SourceSansPro-Regular-35"/></defs><g transform="matrix(.12 0 0 -.12 107.92 357.13)"><use xlink:href="#SourceSansPro-Regular-31"/><use x="49.7" xlink:href="#SourceSansPro-Regular-35"/><use x="99.4" xlink:href="#SourceSansPro-Regular-3a"/><use x="124.3" xlink:href="#SourceSansPro-Regular-30"/><use x="174" xlink:href="#SourceSansPro-Regular-30"/></g></g></g><g id="xtick_3"><path clip-path="url(#p0dc42d9402)" d="M175.79 338.59v-288" fill="none" stroke="#8fa7bf" stroke-linecap="square" stroke-width=".5" id="line2d_7"/><use x="175.79" xlink:href="#m66df3b8828" y="338.59" stroke="#000" stroke-width=".5" id="line2d_8"/><use x="175.79" xlink:href="#mfeae7e5b8d" y="50.59" stroke="#000" stroke-width=".5" id="line2d_9"/><g id="text_3"><defs><path d="M26.8 5.3c-8.1 0-13 6.7-14 19.1 4.3 6 9.3 8.4 13.3 8.4 7.9 0 11.8-5.2 11.8-13.5 0-8.4-4.8-14-11.1-14m17.7 52.9C40.9 62.1 36 65 29.1 65 16.4 65 4.8 55.1 4.8 29.5c0-20.5 9.5-30.7 22-30.7 10.3 0 18.9 8.3 18.9 20.5 0 13.1-7.2 19.7-18.2 19.7-5.2 0-10.9-3.1-14.9-8 .4 20.2 7.9 27.1 16.8 27.1 4 0 7.9-1.9 10.5-5z" id="SourceSansPro-Regular-36"/></defs><g transform="matrix(.12 0 0 -.12 162.36 357.13)"><use xlink:href="#SourceSansPro-Regular-31"/><use x="49.7" xlink:href="#SourceSansPro-Regular-36"/><use x="99.4" xlink:href="#SourceSansPro-Regular-3a"/><use x="124.3" xlink:href="#SourceSansPro-Regular-30"/><use x="174" xlink:href="#SourceSansPro-Regular-30"/></g></g></g><g id="xtick_4"><path clip-path="url(#p0dc42d9402)" d="M230.23 338.59v-288" fill="none" stroke="#8fa7bf" stroke-linecap="square" stroke-width=".5" id="line2d_10"/><use x="230.23" xlink:href="#m66df3b8828" y="338.59" stroke="#000" stroke-width=".5" id="line2d_11"/><use x="230.23" xlink:href="#mfeae7e5b8d" y="50.59" stroke="#000" stroke-width=".5" id="line2d_12"/><g id="text_4"><defs><path d="M17.7 0h8.5c1.1 24.9 4.2 39.4 19.3 58.7v5.1H4.4v-7.1h31.8C23.6 39.2 18.8 24 17.7 0" id="SourceSansPro-Regular-37"/></defs><g transform="matrix(.12 0 0 -.12 216.8 357.13)"><use xlink:href="#SourceSansPro-Regular-31"/><use x="49.7" xlink:href="#SourceSansPro-Regular-37"/><use x="99.4" xlink:href="#SourceSansPro-Regular-3a"/><use x="124.3" xlink:href="#SourceSansPro-Regular-30"/><use x="174" xlink:href="#SourceSansPro-Regular-30"/></g></g></g><g id="xtick_5"><path clip-path="url(#p0dc42d9402)" d="M284.66 338.59v-288" fill="none" stroke="#8fa7bf" stroke-linecap="square" stroke-width=".5" id="line2d_13"/><use x="284.66" xlink:href="#m66df3b8828" y="338.59" stroke="#000" stroke-width=".5" id="line2d_14"/><use x="284.66" xlink:href="#mfeae7e5b8d" y="50.59" stroke="#000" stroke-width=".5" id="line2d_15"/><g id="text_5"><defs><path d="M11.5 17.1c0 5.8 3.8 10.5 8.9 13.9 9.2-3.7 17.3-6.7 17.3-14.9 0-6.6-5.1-11.2-12.5-11.2-7.8 0-13.7 5.1-13.7 12.2m18 17.7c-7.7 3-14.7 6.2-14.7 13.8 0 6.2 4.4 10.3 10.3 10.3 7 0 11.1-5 11.1-11.3 0-4.7-2.4-9-6.7-12.8M4.1 16.3C4.1 6.2 13-1.2 25-1.2c12.4 0 20.6 7.5 20.6 17 0 8.6-5.4 13.1-11.1 16.4v.4c3.9 3 8.8 8.7 8.8 15.4 0 9.9-6.9 17-18 17C15 65 7.2 58.4 7.2 48.6c0-6.7 4.2-11.4 8.9-14.7v-.4c-6-3.2-12-8.9-12-17.2" id="SourceSansPro-Regular-38"/></defs><g transform="matrix(.12 0 0 -.12 271.24 357.13)"><use xlink:href="#SourceSansPro-Regular-31"/><use x="49.7" xlink:href="#SourceSansPro-Regular-38"/><use x="99.4" xlink:href="#SourceSansPro-Regular-3a"/><use x="124.3" xlink:href="#SourceSansPro-Regular-30"/><use x="174" xlink:href="#SourceSansPro-Regular-30"/></g></g></g><g id="xtick_6"><path clip-path="url(#p0dc42d9402)" d="M339.1 338.59v-288" fill="none" stroke="#8fa7bf" stroke-linecap="square" stroke-width=".5" id="line2d_16"/><use x="339.1" xlink:href="#m66df3b8828" y="338.59" stroke="#000" stroke-width=".5" id="line2d_17"/><use x="339.1" xlink:href="#mfeae7e5b8d" y="50.59" stroke="#000" stroke-width=".5" id="line2d_18"/><g id="text_6"><defs><path d="M23.5 31c-7.9 0-11.8 5.2-11.8 13.5 0 8.4 4.9 14 11.1 14 8.1 0 13-6.6 14.1-19-4.3-6.1-9.3-8.5-13.4-8.5M5.1 5.5c3.5-3.8 8.6-6.7 15.4-6.7 12.7 0 24.3 9.9 24.3 35.5 0 20.5-9.4 30.7-22 30.7C12.6 65 4 56.7 4 44.5c0-13.1 7.1-19.7 18.1-19.7 5.3 0 11 3.1 15 8.2-.3-20.4-7.9-27.4-16.9-27.4-4 0-7.9 2-10.5 5.1z" id="SourceSansPro-Regular-39"/></defs><g transform="matrix(.12 0 0 -.12 325.68 357.13)"><use xlink:href="#SourceSansPro-Regular-31"/><use x="49.7" xlink:href="#SourceSansPro-Regular-39"/><use x="99.4" xlink:href="#SourceSansPro-Regular-3a"/><use x="124.3" xlink:href="#SourceSansPro-Regular-30"/><use x="174" xlink:href="#SourceSansPro-Regular-30"/></g></g></g><g id="xtick_7"><path clip-path="url(#p0dc42d9402)" d="M393.54 338.59v-288" fill="none" stroke="#8fa7bf" stroke-linecap="square" stroke-width=".5" id="line2d_19"/><use x="393.54" xlink:href="#m66df3b8828" y="338.59" stroke="#000" stroke-width=".5" id="line2d_20"/><use x="393.54" xlink:href="#mfeae7e5b8d" y="50.59" stroke="#000" stroke-width=".5" id="line2d_21"/><g id="text_7"><defs><path d="M4 0h41.2v7.1H26.7c-3.3 0-7.2-.3-10.7-.6 15.1 15.8 26 27.7 26 39.7C42 57.5 34.7 65 22.9 65c-8.3 0-14-3.9-19.3-9.7l4.7-4.7c3.7 4.3 8.3 7.7 13.6 7.7C30 58.3 34 53.1 34 45.8 34 35.5 23.2 24 4 4.9z" id="SourceSansPro-Regular-32"/></defs><g transform="matrix(.12 0 0 -.12 380.12 357.13)"><use xlink:href="#SourceSansPro-Regular-32"/><use x="49.7" xlink:href="#SourceSansPro-Regular-30"/><use x="99.4" xlink:href="#SourceSansPro-Regular-3a"/><use x="124.3" xlink:href="#SourceSansPro-Regular-30"/><use x="174" xlink:href="#SourceSansPro-Regular-30"/></g></g></g><g id="xtick_8"><path clip-path="url(#p0dc42d9402)" d="M447.98 338.59v-288" fill="none" stroke="#8fa7bf" stroke-linecap="square" stroke-width=".5" id="line2d_22"/><use x="447.98" xlink:href="#m66df3b8828" y="338.59" stroke="#000" stroke-width=".5" id="line2d_23"/><use x="447.98" xlink:href="#mfeae7e5b8d" y="50.59" stroke="#000" stroke-width=".5" id="line2d_24"/><g transform="matrix(.12 0 0 -.12 434.56 357.13)" id="text_8"><use xlink:href="#SourceSansPro-Regular-32"/><use x="49.7" xlink:href="#SourceSansPro-Regular-31"/><use x="99.4" xlink:href="#SourceSansPro-Regular-3a"/><use x="124.3" xlink:href="#SourceSansPro-Regular-30"/><use x="174" xlink:href="#SourceSansPro-Regular-30"/></g></g><g id="xtick_9"><path clip-path="url(#p0dc42d9402)" d="M502.42 338.59v-288" fill="none" stroke="#8fa7bf" stroke-linecap="square" stroke-width=".5" id="line2d_25"/><use x="502.42" xlink:href="#m66df3b8828" y="338.59" stroke="#000" stroke-width=".5" id="line2d_26"/><use x="502.42" xlink:href="#mfeae7e5b8d" y="50.59" stroke="#000" stroke-width=".5" id="line2d_27"/><g transform="matrix(.12 0 0 -.12 489 357.13)" id="text_9"><use xlink:href="#SourceSansPro-Regular-32"/><use x="49.7" xlink:href="#SourceSansPro-Regular-32"/><use x="99.4" xlink:href="#SourceSansPro-Regular-3a"/><use x="124.3" xlink:href="#SourceSansPro-Regular-30"/><use x="174" xlink:href="#SourceSansPro-Regular-30"/></g></g><g id="xtick_10"><path clip-path="url(#p0dc42d9402)" d="M556.86 338.59v-288" fill="none" stroke="#8fa7bf" stroke-linecap="square" stroke-width=".5" id="line2d_28"/><use x="556.86" xlink:href="#m66df3b8828" y="338.59" stroke="#000" stroke-width=".5" id="line2d_29"/><use x="556.86" xlink:href="#mfeae7e5b8d" y="50.59" stroke="#000" stroke-width=".5" id="line2d_30"/><g id="text_10"><defs><path d="M2.6 7.8c4.3-4.7 10.8-9 21-9 11.7 0 21 6.9 21 18.2 0 8.8-6.1 14.4-13.8 16.2v.4c6.9 2.6 11.6 7.5 11.6 15.2 0 10.3-8 16.2-19.1 16.2-7.5 0-13.4-3.4-18.3-8l4.4-5.2c3.8 3.8 8.3 6.5 13.6 6.5 6.8 0 11-3.9 11-10.1 0-6.7-4.5-11.9-18.1-11.9V30c15.2 0 20.4-5.1 20.4-12.7 0-7.1-5.5-11.7-13.2-11.7-7.5 0-12.5 3.6-16.3 7.6z" id="SourceSansPro-Regular-33"/></defs><g transform="matrix(.12 0 0 -.12 543.44 357.13)"><use xlink:href="#SourceSansPro-Regular-32"/><use x="49.7" xlink:href="#SourceSansPro-Regular-33"/><use x="99.4" xlink:href="#SourceSansPro-Regular-3a"/><use x="124.3" xlink:href="#SourceSansPro-Regular-30"/><use x="174" xlink:href="#SourceSansPro-Regular-30"/></g></g></g><g id="xtick_11"><path clip-path="url(#p0dc42d9402)" d="M611.3 338.59v-288" fill="none" stroke="#8fa7bf" stroke-linecap="square" stroke-width=".5" id="line2d_31"/><use x="611.3" xlink:href="#m66df3b8828" y="338.59" stroke="#000" stroke-width=".5" id="line2d_32"/><use x="611.3" xlink:href="#mfeae7e5b8d" y="50.59" stroke="#000" stroke-width=".5" id="line2d_33"/><g transform="matrix(.12 0 0 -.12 597.88 357.13)" id="text_11"><use xlink:href="#SourceSansPro-Regular-30"/><use x="49.7" xlink:href="#SourceSansPro-Regular-30"/><use x="99.4" xlink:href="#SourceSansPro-Regular-3a"/><use x="124.3" xlink:href="#SourceSansPro-Regular-30"/><use x="174" xlink:href="#SourceSansPro-Regular-30"/></g></g><g id="text_12"><defs><path d="M4.6 24.2C4.6 8.3 14.9-1.2 27.9-1.2c6.6 0 11.8 2.3 16 5L41 9.2c-3.6-2.3-7.5-3.8-12.1-3.8-9.3 0-15.6 6.6-16.2 17.1h32.8c.2 1.2.3 2.8.3 4.5 0 13.9-7 22.8-19.4 22.8-11.1 0-21.8-9.7-21.8-25.6m8 3.7c1 9.8 7.2 15.4 14 15.4 7.6 0 12-5.5 12-15.4z" id="SourceSansPro-Regular-65"/><path d="M8.2 0h8.2v35.2c4.5 5 8.6 7.5 12.2 7.5 6.2 0 9.1-3.9 9.1-13V0h8.2v35.2c4.5 5 8.4 7.5 12.2 7.5 6.1 0 9-3.9 9-13V0h8.2v30.8c0 12.4-4.8 19-14.8 19-5.9 0-10.9-3.8-16-9.3-2 5.8-6 9.3-13.4 9.3-5.8 0-10.9-3.6-15.1-8.2h-.3l-.7 7H8.2z" id="SourceSansPro-Regular-6d"/><path d="M12.4 58.6c3.2 0 5.7 2.2 5.7 5.3 0 3.2-2.5 5.3-5.7 5.3s-5.7-2.1-5.7-5.3c0-3.1 2.5-5.3 5.7-5.3M8.2 0h8.2v48.6H8.2z" id="SourceSansPro-Regular-69"/><path d="M22.6 0H31v58.6h19.8v7h-48v-7h19.8z" id="SourceSansPro-Regular-54"/></defs><g transform="matrix(.144 0 0 -.144 317.13 374.85)"><use xlink:href="#SourceSansPro-Regular-54"/><use x="53.6" xlink:href="#SourceSansPro-Regular-69"/><use x="78.2" xlink:href="#SourceSansPro-Regular-6d"/><use x="161.1" xlink:href="#SourceSansPro-Regular-65"/></g></g></g><g id="matplotlib.axis_2"><g id="ytick_1"><path clip-path="url(#p0dc42d9402)" d="M53.3 309.79h558" fill="none" stroke="#8fa7bf" stroke-linecap="square" stroke-width=".5" id="line2d_34"/><g id="line2d_35"><defs><path d="M0 0h6" id="m86f9c7bff4" stroke="#000" stroke-width=".5"/></defs><use x="53.3" xlink:href="#m86f9c7bff4" y="309.79" stroke="#000" stroke-width=".5"/></g><g id="line2d_36"><defs><path d="M0 0h-6" id="m81bba7a794" stroke="#000" stroke-width=".5"/></defs><use x="611.3" xlink:href="#m81bba7a794" y="309.79" stroke="#000" stroke-width=".5"/></g><g transform="matrix(.12 0 0 -.12 31.37 312.83)" id="text_13"><use xlink:href="#SourceSansPro-Regular-31"/><use x="49.7" xlink:href="#SourceSansPro-Regular-30"/></g></g><g id="ytick_2"><path clip-path="url(#p0dc42d9402)" d="M53.3 280.99h558" fill="none" stroke="#8fa7bf" stroke-linecap="square" stroke-width=".5" id="line2d_37"/><use x="53.3" xlink:href="#m86f9c7bff4" y="280.99" stroke="#000" stroke-width=".5" id="line2d_38"/><use x="611.3" xlink:href="#m81bba7a794" y="280.99" stroke="#000" stroke-width=".5" id="line2d_39"/><g transform="matrix(.12 0 0 -.12 31.37 284.03)" id="text_14"><use xlink:href="#SourceSansPro-Regular-32"/><use x="49.7" xlink:href="#SourceSansPro-Regular-30"/></g></g><g id="ytick_3"><path clip-path="url(#p0dc42d9402)" d="M53.3 252.19h558" fill="none" stroke="#8fa7bf" stroke-linecap="square" stroke-width=".5" id="line2d_40"/><use x="53.3" xlink:href="#m86f9c7bff4" y="252.19" stroke="#000" stroke-width=".5" id="line2d_41"/><use x="611.3" xlink:href="#m81bba7a794" y="252.19" stroke="#000" stroke-width=".5" id="line2d_42"/><g transform="matrix(.12 0 0 -.12 31.37 255.23)" id="text_15"><use xlink:href="#SourceSansPro-Regular-33"/><use x="49.7" xlink:href="#SourceSansPro-Regular-30"/></g></g><g id="ytick_4"><path clip-path="url(#p0dc42d9402)" d="M53.3 223.39h558" fill="none" stroke="#8fa7bf" stroke-linecap="square" stroke-width=".5" id="line2d_43"/><use x="53.3" xlink:href="#m86f9c7bff4" y="223.39" stroke="#000" stroke-width=".5" id="line2d_44"/><use x="611.3" xlink:href="#m81bba7a794" y="223.39" stroke="#000" stroke-width=".5" id="line2d_45"/><g transform="matrix(.12 0 0 -.12 31.37 226.43)" id="text_16"><use xlink:href="#SourceSansPro-Regular-34"/><use x="49.7" xlink:href="#SourceSansPro-Regular-30"/></g></g><g id="ytick_5"><path clip-path="url(#p0dc42d9402)" d="M53.3 194.59h558" fill="none" stroke="#8fa7bf" stroke-linecap="square" stroke-width=".5" id="line2d_46"/><use x="53.3" xlink:href="#m86f9c7bff4" y="194.59" stroke="#000" stroke-width=".5" id="line2d_47"/><use x="611.3" xlink:href="#m81bba7a794" y="194.59" stroke="#000" stroke-width=".5" id="line2d_48"/><g transform="matrix(.12 0 0 -.12 31.37 197.63)" id="text_17"><use xlink:href="#SourceSansPro-Regular-35"/><use x="49.7" xlink:href="#SourceSansPro-Regular-30"/></g></g><g id="ytick_6"><path clip-path="url(#p0dc42d9402)" d="M53.3 165.79h558" fill="none" stroke="#8fa7bf" stroke-linecap="square" stroke-width=".5" id="line2d_49"/><use x="53.3" xlink:href="#m86f9c7bff4" y="165.79" stroke="#000" stroke-width=".5" id="line2d_50"/><use x="611.3" xlink:href="#m81bba7a794" y="165.79" stroke="#000" stroke-width=".5" id="line2d_51"/><g transform="matrix(.12 0 0 -.12 31.37 168.83)" id="text_18"><use xlink:href="#SourceSansPro-Regular-36"/><use x="49.7" xlink:href="#SourceSansPro-Regular-30"/></g></g><g id="ytick_7"><path clip-path="url(#p0dc42d9402)" d="M53.3 136.99h558" fill="none" stroke="#8fa7bf" stroke-linecap="square" stroke-width=".5" id="line2d_52"/><use x="53.3" xlink:href="#m86f9c7bff4" y="136.99" stroke="#000" stroke-width=".5" id="line2d_53"/><use x="611.3" xlink:href="#m81bba7a794" y="136.99" stroke="#000" stroke-width=".5" id="line2d_54"/><g transform="matrix(.12 0 0 -.12 31.37 140.03)" id="text_19"><use xlink:href="#SourceSansPro-Regular-37"/><use x="49.7" xlink:href="#SourceSansPro-Regular-30"/></g></g><g id="ytick_8"><path clip-path="url(#p0dc42d9402)" d="M53.3 108.19h558" fill="none" stroke="#8fa7bf" stroke-linecap="square" stroke-width=".5" id="line2d_55"/><use x="53.3" xlink:href="#m86f9c7bff4" y="108.19" stroke="#000" stroke-width=".5" id="line2d_56"/><use x="611.3" xlink:href="#m81bba7a794" y="108.19" stroke="#000" stroke-width=".5" id="line2d_57"/><g transform="matrix(.12 0 0 -.12 31.37 111.23)" id="text_20"><use xlink:href="#SourceSansPro-Regular-38"/><use x="49.7" xlink:href="#SourceSansPro-Regular-30"/></g></g><g id="ytick_9"><path clip-path="url(#p0dc42d9402)" d="M53.3 79.39h558" fill="none" stroke="#8fa7bf" stroke-linecap="square" stroke-width=".5" id="line2d_58"/><use x="53.3" xlink:href="#m86f9c7bff4" y="79.39" stroke="#000" stroke-width=".5" id="line2d_59"/><use x="611.3" xlink:href="#m81bba7a794" y="79.39" stroke="#000" stroke-width=".5" id="line2d_60"/><g transform="matrix(.12 0 0 -.12 31.37 82.43)" id="text_21"><use xlink:href="#SourceSansPro-Regular-39"/><use x="49.7" xlink:href="#SourceSansPro-Regular-30"/></g></g><g id="ytick_10"><path clip-path="url(#p0dc42d9402)" d="M53.3 50.59h558" fill="none" stroke="#8fa7bf" stroke-linecap="square" stroke-width=".5" id="line2d_61"/><use x="53.3" xlink:href="#m86f9c7bff4" y="50.59" stroke="#000" stroke-width=".5" id="line2d_62"/><use x="611.3" xlink:href="#m81bba7a794" y="50.59" stroke="#000" stroke-width=".5" id="line2d_63"/><g transform="matrix(.12 0 0 -.12 25.4 53.63)" id="text_22"><use xlink:href="#SourceSansPro-Regular-31"/><use x="49.7" xlink:href="#SourceSansPro-Regular-30"/><use x="99.4" xlink:href="#SourceSansPro-Regular-30"/></g></g><g id="text_23"><defs><path d="M4.6 24.2c0-16.1 9.9-25.4 22.8-25.4 5.8 0 11.4 2.4 15.8 6.3l-3.7 5.4c-2.9-2.6-6.8-4.9-11.4-4.9-8.9 0-15 7.5-15 18.6 0 11.2 6.4 18.8 15.2 18.8 3.9 0 6.9-1.8 9.8-4.3l4.1 5.3c-3.3 3.1-7.8 5.8-14.2 5.8-12.5 0-23.4-9.3-23.4-25.6" id="SourceSansPro-Regular-63"/><path d="M2.8 5.5C7.4 1.7 14-1.2 20.9-1.2c11.5 0 17.8 6.6 17.8 14.5 0 9.2-7.8 12.1-14.8 14.7-5.5 2.1-10.8 3.8-10.8 8.4 0 3.7 2.8 7 8.9 7 4.3 0 7.8-1.8 11.1-4.3l3.9 5.2c-3.7 3-9 5.5-15.1 5.5-10.5 0-16.7-6-16.7-13.8 0-8.2 7.6-11.5 14.5-14 5.3-2 11.1-4.2 11.1-9.2 0-4.2-3.2-7.6-9.6-7.6-5.8 0-10.1 2.4-14.3 5.8z" id="SourceSansPro-Regular-73"/><path d="M44.2 12.5c-3.4-4.6-6.9-7.1-11.8-7.1-8.2 0-13.5 6.8-15.2 18.1h21.3v4.8H16.7c-.1 1.2-.1 2.5-.1 3.8 0 1 0 2 .1 2.9h25.8v4.9H17.1c1.6 11.5 7.1 18.5 15.9 18.5 4.2 0 7.5-2.4 10.3-5.9l4.9 4.7c-3.5 4.4-8.9 7.8-14.9 7.8C20.2 65 11 55.6 8.7 39.9l-6.4-.5V35h5.9c-.1-1-.1-2.1-.1-3.2 0-1.2 0-2.4.1-3.6l-5.9-.4v-4.3h6.4C11 7.9 19.9-1.2 31.9-1.2c7.3 0 12.8 3.5 17.2 9.3z" id="SourceSansPro-Regular-20ac"/><path d="M8.2 0h8.1v12.8l9.1 10.6L39.6 0h9L30.1 29.1l16.3 19.5h-9.1L16.6 23h-.3v48.2H8.2z" id="SourceSansPro-Regular-6b"/><path d="M9.6 15c0-9.6 3.5-16.2 13.9-16.2 3 0 6.3.9 9 1.8l-1.6 6.2c-1.6-.6-3.8-1.3-5.5-1.3-5.6 0-7.5 3.4-7.5 9.4v27H31v6.7H17.9v13.6H11l-1-13.6-7.6-.5v-6.2h7.2z" id="SourceSansPro-Regular-74"/><path d="M4.6 24.2C4.6 8.1 15.2-1.2 27.1-1.2s22.5 9.3 22.5 25.4c0 16.3-10.6 25.6-22.5 25.6S4.6 40.5 4.6 24.2m8.5 0c0 11.2 5.7 18.8 14 18.8 8.4 0 14-7.6 14-18.8 0-11.1-5.6-18.6-14-18.6-8.3 0-14 7.5-14 18.6" id="SourceSansPro-Regular-6f"/><path d="M21.4-17.6l5.1 2.4C18.8-2.5 15 12.6 15 27.8s3.8 30.3 11.5 43l-5.1 2.4C13.1 59.8 8.2 45.4 8.2 27.8c0-17.6 4.9-32 13.2-45.4" id="SourceSansPro-Regular-28"/><path d="M3.8-15.2l5.1-2.4c8.3 13.4 13.2 27.8 13.2 45.4 0 17.6-4.9 32-13.2 45.4l-5.1-2.4c7.7-12.7 11.5-27.8 11.5-43s-3.8-30.3-11.5-43" id="SourceSansPro-Regular-29"/></defs><g transform="matrix(0 -.144 -.144 0 17.45 236.56)"><use xlink:href="#SourceSansPro-Regular-54"/><use x="53.6" xlink:href="#SourceSansPro-Regular-69"/><use x="78.2" xlink:href="#SourceSansPro-Regular-63"/><use x="123.8" xlink:href="#SourceSansPro-Regular-6b"/><use x="173.3" xlink:href="#SourceSansPro-Regular-65"/><use x="222.9" xlink:href="#SourceSansPro-Regular-74"/><use x="256.7" xlink:href="#SourceSansPro-Regular-20"/><use x="276.9" xlink:href="#SourceSansPro-Regular-63"/><use x="322.5" xlink:href="#SourceSansPro-Regular-6f"/><use x="376.7" xlink:href="#SourceSansPro-Regular-73"/><use x="418.6" xlink:href="#SourceSansPro-Regular-74"/><use x="452.4" xlink:href="#SourceSansPro-Regular-20"/><use x="472.6" xlink:href="#SourceSansPro-Regular-28"/><use x="502.9" xlink:href="#SourceSansPro-Regular-20ac"/><use x="552.6" xlink:href="#SourceSansPro-Regular-29"/></g></g></g><g id="line2d_64"><defs><path d="M0-4l-4 8h8z" id="md2d3f13061" stroke="#000"/></defs><g clip-path="url(#p0dc42d9402)" fill="#bd3338" stroke="#000"><use x="80.52" xlink:href="#md2d3f13061" y="192.86"/><use x="90.5" xlink:href="#md2d3f13061" y="138"/><use x="93.22" xlink:href="#md2d3f13061" y="150.01"/><use x="119.53" xlink:href="#md2d3f13061" y="138"/><use x="134.96" xlink:href="#md2d3f13061" y="192.86"/><use x="144.94" xlink:href="#md2d3f13061" y="95.14"/><use x="147.66" xlink:href="#md2d3f13061" y="66"/><use x="173.97" xlink:href="#md2d3f13061" y="66"/><use x="189.4" xlink:href="#md2d3f13061" y="150.01"/><use x="199.38" xlink:href="#md2d3f13061" y="66"/><use x="202.1" xlink:href="#md2d3f13061" y="150.01"/><use x="227.5" xlink:href="#md2d3f13061" y="66"/><use x="230.23" xlink:href="#md2d3f13061" y="66"/><use x="243.83" xlink:href="#md2d3f13061" y="95.14"/><use x="257.44" xlink:href="#md2d3f13061" y="66"/><use x="271.05" xlink:href="#md2d3f13061" y="95.14"/><use x="281.94" xlink:href="#md2d3f13061" y="66"/><use x="298.27" xlink:href="#md2d3f13061" y="150.01"/><use x="307.35" xlink:href="#md2d3f13061" y="150.01"/><use x="311.88" xlink:href="#md2d3f13061" y="95.14"/><use x="336.38" xlink:href="#md2d3f13061" y="95.14"/><use x="352.71" xlink:href="#md2d3f13061" y="138"/><use x="364.51" xlink:href="#md2d3f13061" y="138"/><use x="368.14" xlink:href="#md2d3f13061" y="192.86"/><use x="389.01" xlink:href="#md2d3f13061" y="150.01"/><use x="407.15" xlink:href="#md2d3f13061" y="150.01"/><use x="417.13" xlink:href="#md2d3f13061" y="192.86"/><use x="420.76" xlink:href="#md2d3f13061" y="192.86"/><use x="443.44" xlink:href="#md2d3f13061" y="192.86"/><use x="447.98" xlink:href="#md2d3f13061" y="192.86"/><use x="475.2" xlink:href="#md2d3f13061" y="278.6"/><use x="502.42" xlink:href="#md2d3f13061" y="258.01"/><use x="525.1" xlink:href="#md2d3f13061" y="268.29"/><use x="570.47" xlink:href="#md2d3f13061" y="278.6"/></g></g><path clip-path="url(#p0dc42d9402)" d="M80.52 192.86l9.98-27.43 2.72-5.14 26.31-5.57 15.43 7.63 9.98-19.55 2.72-14.4 26.31-16.8 15.43 2.4 9.98-25.37 2.72 10.97h28.13l13.6-.74 13.61-25.58 13.61 4.38 10.9-1.95 16.32 18.75 9.08 10.97 4.53-1.71 24.5 7.54 16.33 14.4 11.8-9.09 3.63 24.43 20.87 1.8 18.14 10.97 9.98 10.98 3.63 10.97h22.68l4.54 8.57 27.22 30 27.22 28.87 22.68 25.14 45.37 5.14" fill="none" stroke="#bd3338" stroke-linecap="square" id="line2d_65"/><g id="line2d_66"><defs><path d="M0 4a4 4 0 1 0 0-8 4 4 0 0 0 0 8z" id="m37ba28cae6" stroke="#000"/></defs><g clip-path="url(#p0dc42d9402)" fill="#1369bf" stroke="#000"><use x="91.41" xlink:href="#m37ba28cae6" y="203.23"/><use x="148.57" xlink:href="#m37ba28cae6" y="223.39"/><use x="201.19" xlink:href="#m37ba28cae6" y="203.23"/><use x="257.44" xlink:href="#m37ba28cae6" y="203.23"/><use x="309.16" xlink:href="#m37ba28cae6" y="203.23"/><use x="363.6" xlink:href="#m37ba28cae6" y="203.23"/><use x="418.04" xlink:href="#m37ba28cae6" y="203.23"/><use x="475.2" xlink:href="#m37ba28cae6" y="203.23"/><use x="526.92" xlink:href="#m37ba28cae6" y="203.23"/></g></g><g id="line2d_67"><defs><path d="M0 4l4-8h-8z" id="m70b3c5c6de" stroke="#000"/></defs><g clip-path="url(#p0dc42d9402)" fill="#7436b3" stroke="#000"><use x="70.54" xlink:href="#m70b3c5c6de" y="283.87"/><use x="179.42" xlink:href="#m70b3c5c6de" y="272.93"/><use x="203.91" xlink:href="#m70b3c5c6de" y="275.23"/><use x="233.85" xlink:href="#m70b3c5c6de" y="272.93"/><use x="236.58" xlink:href="#m70b3c5c6de" y="272.93"/><use x="258.35" xlink:href="#m70b3c5c6de" y="272.93"/><use x="285.57" xlink:href="#m70b3c5c6de" y="272.93"/><use x="312.79" xlink:href="#m70b3c5c6de" y="283.87"/><use x="342.73" xlink:href="#m70b3c5c6de" y="272.93"/><use x="345.45" xlink:href="#m70b3c5c6de" y="272.93"/><use x="367.23" xlink:href="#m70b3c5c6de" y="275.23"/><use x="397.17" xlink:href="#m70b3c5c6de" y="283.87"/><use x="454.33" xlink:href="#m70b3c5c6de" y="272.93"/><use x="527.83" xlink:href="#m70b3c5c6de" y="272.93"/></g></g><g id="line2d_68"><defs><path d="M-4 4h8v-8h-8z" id="mc3a61ebe4a" stroke="#000"/></defs><g clip-path="url(#p0dc42d9402)" fill="#00800a" stroke="#000"><use x="75.98" xlink:href="#mc3a61ebe4a" y="283.29"/><use x="103.2" xlink:href="#mc3a61ebe4a" y="283.29"/><use x="130.42" xlink:href="#mc3a61ebe4a" y="283.29"/><use x="157.64" xlink:href="#mc3a61ebe4a" y="283.29"/><use x="184.86" xlink:href="#mc3a61ebe4a" y="283.29"/><use x="212.08" xlink:href="#mc3a61ebe4a" y="283.29"/><use x="239.3" xlink:href="#mc3a61ebe4a" y="283.29"/><use x="266.52" xlink:href="#mc3a61ebe4a" y="283.29"/><use x="293.74" xlink:href="#mc3a61ebe4a" y="283.29"/><use x="320.96" xlink:href="#mc3a61ebe4a" y="283.29"/><use x="348.18" xlink:href="#mc3a61ebe4a" y="283.29"/><use x="375.4" xlink:href="#mc3a61ebe4a" y="283.29"/><use x="402.62" xlink:href="#mc3a61ebe4a" y="283.29"/><use x="429.83" xlink:href="#mc3a61ebe4a" y="283.29"/><use x="457.05" xlink:href="#mc3a61ebe4a" y="283.29"/><use x="484.27" xlink:href="#mc3a61ebe4a" y="283.29"/><use x="511.49" xlink:href="#mc3a61ebe4a" y="283.29"/><use x="538.71" xlink:href="#mc3a61ebe4a" y="283.29"/><use x="564.12" xlink:href="#mc3a61ebe4a" y="283.29"/><use x="591.34" xlink:href="#mc3a61ebe4a" y="283.29"/></g></g><path d="M53.3 338.59v-288" fill="none" stroke="#000" stroke-linecap="square" id="patch_3"/><path d="M611.3 338.59v-288" fill="none" stroke="#000" stroke-linecap="square" id="patch_4"/><path d="M53.3 50.59h558" fill="none" stroke="#000" stroke-linecap="square" id="patch_5"/><path d="M53.3 338.59h558" fill="none" stroke="#000" stroke-linecap="square" id="patch_6"/><g id="text_24"><defs><path d="M18.7 0h9.6l17.2 48.6h-8.1L28.2 21c-1.4-4.8-3-9.7-4.4-14.3h-.4c-1.5 4.6-3.1 9.5-4.5 14.3L9.7 48.6H1.2z" id="SourceSansPro-Regular-76"/><path d="M8.2 9.8c0-7.1 2.5-11 8.7-11 2.2 0 3.6.3 4.7.8l-1.1 6.2c-.9-.2-1.3-.2-1.8-.2-1.2 0-2.3 1-2.3 3.6v62H8.2z" id="SourceSansPro-Regular-6c"/><path d="M5.8 12.6c0-8.7 6.1-13.8 14.3-13.8 6 0 11.4 3.2 16.1 7h.2l.7-5.8h6.8v29.8c0 12.1-5 20-16.9 20-7.8 0-14.6-3.4-19.1-6.3l3.3-5.7C15 40.4 20 43 25.7 43c7.9 0 10-6 10-12.2C15 28.5 5.8 23.2 5.8 12.6m8.1.6c0 6.2 5.5 10.2 21.8 12.2V11.9C31 7.7 27.1 5.4 22.4 5.4c-4.8 0-8.5 2.3-8.5 7.8" id="SourceSansPro-Regular-61"/><path d="M8.2 0h8.2v31.2c3.3 8.2 8.2 11.2 12.3 11.2 2 0 3.1-.3 4.7-.8l1.6 7.2a12 12 0 0 1-5.2 1c-5.5 0-10.5-3.9-13.8-10h-.3l-.7 8.8H8.2z" id="SourceSansPro-Regular-72"/><path d="M31.9 70.8c-2.2.9-5.1 1.6-8.1 1.6-9.7 0-14.2-6.2-14.2-16.1v-7.7L3 48.1v-6.2h6.6V0h8.2v41.9h10.3v6.7H17.8v7.7c0 6.2 2.2 9.4 6.8 9.4 1.8 0 3.7-.4 5.5-1.2z" id="SourceSansPro-Regular-66"/><path d="M5.2 32.8c0-21.4 12.2-34 28.7-34 8.4 0 14.8 3.5 20 9.5l-4.7 5.1C45 8.7 40.4 6.1 34.1 6.1 21.7 6.1 13.8 16.5 13.8 33c0 16.3 8.2 26.5 20.7 26.5 5.5 0 9.7-2.4 13.1-6.1l4.7 5.3c-3.8 4.3-10 8.1-17.9 8.1-16.8 0-29.2-12.9-29.2-34" id="SourceSansPro-Regular-43"/><path d="M9 0h38.8v7.1H17.3v23.8h24.9V38H17.3v20.6h29.5v7H9z" id="SourceSansPro-Regular-45"/><path d="M8.2 0h8.2v35.2c4.9 4.9 8.3 7.5 13.3 7.5 6.4 0 9.2-3.9 9.2-13V0h8.2v30.8c0 12.4-4.6 19-14.8 19-6.7 0-11.7-3.6-16.3-8.2h-.3l-.7 7H8.2z" id="SourceSansPro-Regular-6e"/><path d="M16.2 4.4c4.5-3.5 9-5.6 13.5-5.6 11.1 0 21 9.7 21 26.2 0 15.1-6.7 24.8-19.2 24.8-5.7 0-11.1-3.1-15.5-6.8h-.3l-.7 5.6H8.2v-69.1h8.2v16.4zm.2 6.4v25.5c4.8 4.3 8.9 6.6 13 6.6 9.2 0 12.8-7.2 12.8-17.9 0-12-5.9-19.3-13.9-19.3-3.2 0-7.5 1.4-11.9 5.1" id="SourceSansPro-Regular-70"/><path d="M11.7-8.2c0 2.8 1.5 5.7 5 8.2 2.1-.6 4.4-.8 6.3-.8h8.4c6.3 0 9.8-1.5 9.8-6 0-5.1-6.1-9.9-15.4-9.9-8.8 0-14.1 3.3-14.1 8.5M4.5-9.3c0-8.4 8.2-13.1 20.1-13.1 15.1 0 24.6 7.8 24.6 16.8 0 8.1-5.7 11.6-17 11.6h-9.4c-6.6 0-8.6 2.2-8.6 5.3 0 2.7 1.4 4.3 3.1 5.8 2.2-1.1 4.9-1.7 7.3-1.7 9.9 0 17.8 6.5 17.8 16.9 0 4.1-1.7 7.8-4 10h10v6.3H31.5c-1.8.7-4.2 1.2-6.9 1.2-9.9 0-18.3-6.7-18.3-17.3 0-5.8 3.1-10.5 6.3-13.1V19c-2.5-1.7-5.3-4.9-5.3-9a9 9 0 0 1 4.3-7.9v-.4c-4.4-3-7.1-6.9-7.1-11m20.1 30.2c-5.6 0-10.3 4.5-10.3 11.6s4.6 11.3 10.3 11.3c5.7 0 10.3-4.2 10.3-11.3 0-7.1-4.7-11.6-10.3-11.6" id="SourceSansPro-Regular-67"/><path d="M7.5 17.8c0-12.4 4.6-19 14.9-19 6.7 0 11.5 3.5 16 8.8h.3l.7-7.6h6.8v48.6H38V14.1c-4.6-5.7-8.1-8.2-13.1-8.2-6.4 0-9.1 3.9-9.1 13v29.7H7.5z" id="SourceSansPro-Regular-75"/></defs><g transform="matrix(.1728 0 0 -.1728 174.55 19.97)"><use xlink:href="#SourceSansPro-Regular-43"/><use x="57.1" xlink:href="#SourceSansPro-Regular-6f"/><use x="111.3" xlink:href="#SourceSansPro-Regular-73"/><use x="153.2" xlink:href="#SourceSansPro-Regular-74"/><use x="187" xlink:href="#SourceSansPro-Regular-20"/><use x="207.2" xlink:href="#SourceSansPro-Regular-6f"/><use x="261.4" xlink:href="#SourceSansPro-Regular-66"/><use x="290.6" xlink:href="#SourceSansPro-Regular-20"/><use x="310.8" xlink:href="#SourceSansPro-Regular-73"/><use x="352.7" xlink:href="#SourceSansPro-Regular-69"/><use x="377.3" xlink:href="#SourceSansPro-Regular-6e"/><use x="432" xlink:href="#SourceSansPro-Regular-67"/><use x="482.4" xlink:href="#SourceSansPro-Regular-6c"/><use x="507.9" xlink:href="#SourceSansPro-Regular-65"/><use x="557.5" xlink:href="#SourceSansPro-Regular-20"/><use x="577.7" xlink:href="#SourceSansPro-Regular-74"/><use x="611.5" xlink:href="#SourceSansPro-Regular-72"/><use x="646.2" xlink:href="#SourceSansPro-Regular-61"/><use x="697.4" xlink:href="#SourceSansPro-Regular-69"/><use x="722" xlink:href="#SourceSansPro-Regular-6e"/><use x="776.7" xlink:href="#SourceSansPro-Regular-20"/><use x="796.9" xlink:href="#SourceSansPro-Regular-74"/><use x="830.7" xlink:href="#SourceSansPro-Regular-69"/><use x="855.3" xlink:href="#SourceSansPro-Regular-63"/><use x="900.9" xlink:href="#SourceSansPro-Regular-6b"/><use x="950.4" xlink:href="#SourceSansPro-Regular-65"/><use x="1000" xlink:href="#SourceSansPro-Regular-74"/><use x="1033.8" xlink:href="#SourceSansPro-Regular-73"/><use x="1075.7" xlink:href="#SourceSansPro-Regular-20"/><use x="1095.9" xlink:href="#SourceSansPro-Regular-6c"/><use x="1121.4" xlink:href="#SourceSansPro-Regular-65"/><use x="1171" xlink:href="#SourceSansPro-Regular-61"/><use x="1222.2" xlink:href="#SourceSansPro-Regular-76"/><use x="1268.9" xlink:href="#SourceSansPro-Regular-69"/><use x="1293.5" xlink:href="#SourceSansPro-Regular-6e"/><use x="1348.2" xlink:href="#SourceSansPro-Regular-67"/><use x="1398.6" xlink:href="#SourceSansPro-Regular-20"/><use x="1418.8" xlink:href="#SourceSansPro-Regular-45"/><use x="1471.5" xlink:href="#SourceSansPro-Regular-75"/><use x="1525.9" xlink:href="#SourceSansPro-Regular-72"/><use x="1560.6" xlink:href="#SourceSansPro-Regular-6f"/><use x="1614.8" xlink:href="#SourceSansPro-Regular-70"/><use x="1670.3" xlink:href="#SourceSansPro-Regular-65"/><use x="1719.9" xlink:href="#SourceSansPro-Regular-61"/><use x="1771.1" xlink:href="#SourceSansPro-Regular-6e"/></g><defs><path d="M4.9-13.4l-1.6-6.5c1.6-.6 3.5-1 5.7-1 9.8 0 14.8 7.3 18.2 16.9l18.3 52.6h-8l-8.7-26.9c-1.3-4.3-2.7-9.3-4.1-13.7h-.4c-1.5 4.5-3.2 9.5-4.7 13.7L9.7 48.6H1.2L20.7-.1l-1.1-3.6c-2-6-5.5-10.4-11-10.4-1.2 0-2.7.4-3.7.7" id="SourceSansPro-Regular-79"/><path d="M9 0h8.3v29.4h25v7h-25v22.2h29.5v7H9z" id="SourceSansPro-Regular-46"/><path d="M9 0h16.8c19.8 0 30.6 12.2 30.6 33.1 0 20.8-10.8 32.5-31 32.5H9zm8.3 6.8v52h7.5c15.3 0 23-9.2 23-25.7 0-16.6-7.7-26.3-23-26.3z" id="SourceSansPro-Regular-44"/><path d="M8.2 0h6.6l.7 4.8h.3c4.3-3.8 9.4-6 13.9-6 11.1 0 21 9.7 21 26.3 0 15-6.7 24.7-19.3 24.7-5.4 0-10.8-2.9-15.2-6.8l.2 8.8v19.4H8.2zm8.2 10.8v25.5c4.6 4.3 8.9 6.6 13 6.6 9.2 0 12.8-7.2 12.8-17.9 0-12-5.9-19.3-13.9-19.3-3.2 0-7.6 1.4-11.9 5.1" id="SourceSansPro-Regular-62"/><path d="M4.7 24.2C4.7 8 12.6-1.2 24.8-1.2c5.7 0 10.9 3.2 14.7 6.9h.3l.7-5.7h6.8v71.2H39V52.5l.4-8.3c-4.3 3.5-8 5.6-13.6 5.6-11.1 0-21.1-9.8-21.1-25.6m8.5.1c0 11.1 6.2 18.6 14 18.6 4 0 7.7-1.4 11.8-5.1V12.4c-4-4.5-7.9-6.7-12.4-6.7-8.5 0-13.4 7-13.4 18.6" id="SourceSansPro-Regular-64"/></defs><g transform="matrix(.1728 0 0 -.1728 183.1 38.6)"><use xlink:href="#SourceSansPro-Regular-63"/><use x="45.6" xlink:href="#SourceSansPro-Regular-61"/><use x="96.8" xlink:href="#SourceSansPro-Regular-70"/><use x="152.3" xlink:href="#SourceSansPro-Regular-69"/><use x="176.9" xlink:href="#SourceSansPro-Regular-74"/><use x="210.7" xlink:href="#SourceSansPro-Regular-61"/><use x="261.9" xlink:href="#SourceSansPro-Regular-6c"/><use x="287.4" xlink:href="#SourceSansPro-Regular-20"/><use x="307.6" xlink:href="#SourceSansPro-Regular-63"/><use x="353.2" xlink:href="#SourceSansPro-Regular-69"/><use x="377.8" xlink:href="#SourceSansPro-Regular-74"/><use x="411.6" xlink:href="#SourceSansPro-Regular-69"/><use x="436.2" xlink:href="#SourceSansPro-Regular-65"/><use x="485.8" xlink:href="#SourceSansPro-Regular-73"/><use x="527.7" xlink:href="#SourceSansPro-Regular-20"/><use x="547.9" xlink:href="#SourceSansPro-Regular-6f"/><use x="602.1" xlink:href="#SourceSansPro-Regular-6e"/><use x="656.8" xlink:href="#SourceSansPro-Regular-20"/><use x="677" xlink:href="#SourceSansPro-Regular-46"/><use x="726.4" xlink:href="#SourceSansPro-Regular-72"/><use x="761.1" xlink:href="#SourceSansPro-Regular-69"/><use x="785.7" xlink:href="#SourceSansPro-Regular-64"/><use x="841.2" xlink:href="#SourceSansPro-Regular-61"/><use x="892.4" xlink:href="#SourceSansPro-Regular-79"/><use x="939.1" xlink:href="#SourceSansPro-Regular-20"/><use x="959.3" xlink:href="#SourceSansPro-Regular-44"/><use x="1020.8" xlink:href="#SourceSansPro-Regular-65"/><use x="1070.4" xlink:href="#SourceSansPro-Regular-63"/><use x="1116" xlink:href="#SourceSansPro-Regular-65"/><use x="1165.6" xlink:href="#SourceSansPro-Regular-6d"/><use x="1248.5" xlink:href="#SourceSansPro-Regular-62"/><use x="1304" xlink:href="#SourceSansPro-Regular-65"/><use x="1353.6" xlink:href="#SourceSansPro-Regular-72"/><use x="1388.3" xlink:href="#SourceSansPro-Regular-20"/><use x="1408.5" xlink:href="#SourceSansPro-Regular-32"/><use x="1458.2" xlink:href="#SourceSansPro-Regular-33"/><use x="1507.9" xlink:href="#SourceSansPro-Regular-20"/><use x="1528.1" xlink:href="#SourceSansPro-Regular-32"/><use x="1577.8" xlink:href="#SourceSansPro-Regular-30"/><use x="1627.5" xlink:href="#SourceSansPro-Regular-31"/><use x="1677.2" xlink:href="#SourceSansPro-Regular-36"/></g></g><g id="legend_1"><path d="M495.45 143.73H604.1V57.8H495.45z" fill="#f7f8f9" stroke="#000" id="patch_7"/><use x="515.61" xlink:href="#md2d3f13061" y="68.76" fill="#bd3338" stroke="#000" id="line2d_70"/><g id="text_25"><defs><path d="M9 0h7.7v36.1c0 5.8-.7 13.6-1.1 19.4h.4l5.2-14.6L33.9 6.6h4.7l12.6 34.3 5.3 14.6h.4c-.5-5.8-1.1-13.6-1.1-19.4V0h7.9v65.6h-9.8L41.3 30.4 36.7 17h-.4l-4.8 13.4-12.7 35.2H9z" id="SourceSansPro-Regular-4d"/></defs><g transform="matrix(.144 0 0 -.144 541.53 73.8)"><use xlink:href="#SourceSansPro-Regular-45"/><use x="52.7" xlink:href="#SourceSansPro-Regular-61"/><use x="103.9" xlink:href="#SourceSansPro-Regular-73"/><use x="145.8" xlink:href="#SourceSansPro-Regular-74"/><use x="179.6" xlink:href="#SourceSansPro-Regular-20"/><use x="199.8" xlink:href="#SourceSansPro-Regular-4d"/><use x="272.5" xlink:href="#SourceSansPro-Regular-69"/><use x="297.1" xlink:href="#SourceSansPro-Regular-64"/><use x="352.6" xlink:href="#SourceSansPro-Regular-73"/></g></g><use x="515.61" xlink:href="#m37ba28cae6" y="89.17" fill="#1369bf" stroke="#000" id="line2d_72"/><g id="text_26"><defs><path d="M9 0h20.9c14.7 0 24.9 6.3 24.9 19.2 0 9-5.6 14.2-15.2 15.7v.4c7.7 2 11.4 7.8 11.4 14.3 0 11.5-9.2 16-22.5 16H9zm8.3 37.6V59h10.1c10.2 0 15.4-3 15.4-10.1 0-7.3-4.6-11.3-15.8-11.3zm0-31v24.8h11.4c11.5 0 17.9-3.7 17.9-11.8 0-8.9-6.6-13-17.9-13z" id="SourceSansPro-Regular-42"/></defs><g transform="matrix(.144 0 0 -.144 541.53 94.2)"><use xlink:href="#SourceSansPro-Regular-44"/><use x="61.5" xlink:href="#SourceSansPro-Regular-42"/></g></g><use x="515.61" xlink:href="#m70b3c5c6de" y="109.57" fill="#7436b3" stroke="#000" id="line2d_74"/><g id="text_27"><defs><path d="M9 0h7.9v34.3c0 6.9-.6 13.9-1.1 20.5h.4l7.1-13.5L47.1 0h8.6v65.6h-7.9V31.7c0-6.9.6-14.3 1-20.9h-.4l-7.1 13.6-23.7 41.2H9z" id="SourceSansPro-Regular-4e"/><path d="M4.2 8.5c5.7-5.9 13.8-9.7 23-9.7 13.8 0 22.3 8.3 22.3 18.7 0 9.7-5.9 14.2-13.5 17.5l-9.3 4c-5.2 2.2-10.9 4.6-10.9 10.9 0 5.9 4.9 9.6 12.2 9.6 6.1 0 10.9-2.4 14.9-6.2l4.5 5.4c-4.7 4.8-11.6 8.1-19.4 8.1-11.9 0-20.6-7.4-20.6-17.4 0-9.6 7.1-14.3 13.3-16.9l9.4-4.1C36.3 25.6 41 23.5 41 16.8c0-6.4-5.1-10.7-13.7-10.7-6.8 0-13.4 3.3-18.1 8.2z" id="SourceSansPro-Regular-53"/></defs><g transform="matrix(.144 0 0 -.144 541.53 114.61)"><use xlink:href="#SourceSansPro-Regular-53"/><use x="53.4" xlink:href="#SourceSansPro-Regular-4e"/><use x="118.1" xlink:href="#SourceSansPro-Regular-43"/><use x="175.2" xlink:href="#SourceSansPro-Regular-46"/></g></g><use x="515.61" xlink:href="#mc3a61ebe4a" y="129.98" fill="#00800a" stroke="#000" id="line2d_76"/><g transform="matrix(.144 0 0 -.144 541.53 135.02)" id="text_28"><use xlink:href="#SourceSansPro-Regular-4e"/><use x="64.7" xlink:href="#SourceSansPro-Regular-53"/></g></g></g></g><defs><clipPath id="p0dc42d9402"><path d="M53.3 50.59h558v288h-558z"/></clipPath></defs></svg>