<?xml version="1.0" encoding="utf-8" standalone="no"?>
<!DOCTYPE svg PUBLIC "-//W3C//DTD SVG 1.1//EN"
  "http://www.w3.org/Graphics/SVG/1.1/DTD/svg11.dtd">
<!-- Created with matplotlib (http://matplotlib.org/) -->
<svg height="366pt" version="1.1" viewBox="0 0 618 366" width="618pt" xmlns="http://www.w3.org/2000/svg" xmlns:xlink="http://www.w3.org/1999/xlink">
 <defs>
  <style type="text/css">
*{stroke-linecap:butt;stroke-linejoin:round;stroke-miterlimit:100000;}
  </style>
 </defs>
 <g id="figure_1">
  <g id="patch_1">
   <path d="M 0 366.379925 
L 618.498375 366.379925 
L 618.498375 0 
L 0 0 
L 0 366.379925 
z
" style="fill:none;"/>
  </g>
  <g id="axes_1">
   <g id="patch_2">
    <path d="M 53.298375 319.9118 
L 611.298375 319.9118 
L 611.298375 31.9118 
L 53.298375 31.9118 
L 53.298375 319.9118 
z
" style="fill:none;"/>
   </g>
   <g id="matplotlib.axis_1">
    <g id="xtick_1">
     <g id="line2d_1">
      <path clip-path="url(#p010828342a)" d="M 53.298375 319.9118 
L 53.298375 31.9118 
" style="fill:none;stroke:#8fa7bf;stroke-linecap:square;stroke-width:0.5;"/>
     </g>
     <g id="line2d_2">
      <defs>
       <path d="M 0 0 
L 0 -6 
" id="mfbe01e3efa" style="stroke:#000000;stroke-width:0.5;"/>
      </defs>
      <g>
       <use style="stroke:#000000;stroke-width:0.5;" x="53.298375" xlink:href="#mfbe01e3efa" y="319.9118"/>
      </g>
     </g>
     <g id="line2d_3">
      <defs>
       <path d="M 0 0 
L 0 6 
" id="mfd2a92c865" style="stroke:#000000;stroke-width:0.5;"/>
      </defs>
      <g>
       <use style="stroke:#000000;stroke-width:0.5;" x="53.298375" xlink:href="#mfd2a92c865" y="31.9118"/>
      </g>
     </g>
     <g id="text_1">
      <!-- 1 -->
      <defs>
       <path d="M 7.90625 0 
L 43.90625 0 
L 43.90625 6.796875 
L 30.703125 6.796875 
L 30.703125 63.796875 
L 24.40625 63.796875 
C 20.90625 61.703125 16.703125 60.09375 10.90625 59.09375 
L 10.90625 53.796875 
L 22.5 53.796875 
L 22.5 6.796875 
L 7.90625 6.796875 
z
" id="SourceSansPro-Regular-31"/>
      </defs>
      <g transform="translate(50.3161875 338.456175)scale(0.12 -0.12)">
       <use xlink:href="#SourceSansPro-Regular-31"/>
      </g>
     </g>
    </g>
    <g id="xtick_2">
     <g id="line2d_4">
      <path clip-path="url(#p010828342a)" d="M 128.70378 319.9118 
L 128.70378 31.9118 
" style="fill:none;stroke:#8fa7bf;stroke-linecap:square;stroke-width:0.5;"/>
     </g>
     <g id="line2d_5">
      <g>
       <use style="stroke:#000000;stroke-width:0.5;" x="128.703780405" xlink:href="#mfbe01e3efa" y="319.9118"/>
      </g>
     </g>
     <g id="line2d_6">
      <g>
       <use style="stroke:#000000;stroke-width:0.5;" x="128.703780405" xlink:href="#mfd2a92c865" y="31.9118"/>
      </g>
     </g>
     <g id="text_2">
      <!-- 6 -->
      <defs>
       <path d="M 26.796875 5.296875 
C 18.703125 5.296875 13.796875 12 12.796875 24.40625 
C 17.09375 30.40625 22.09375 32.796875 26.09375 32.796875 
C 34 32.796875 37.90625 27.59375 37.90625 19.296875 
C 37.90625 10.90625 33.09375 5.296875 26.796875 5.296875 
M 44.5 58.203125 
C 40.90625 62.09375 36 65 29.09375 65 
C 16.40625 65 4.796875 55.09375 4.796875 29.5 
C 4.796875 9 14.296875 -1.203125 26.796875 -1.203125 
C 37.09375 -1.203125 45.703125 7.09375 45.703125 19.296875 
C 45.703125 32.40625 38.5 39 27.5 39 
C 22.296875 39 16.59375 35.90625 12.59375 31 
C 13 51.203125 20.5 58.09375 29.40625 58.09375 
C 33.40625 58.09375 37.296875 56.203125 39.90625 53.09375 
z
" id="SourceSansPro-Regular-36"/>
      </defs>
      <g transform="translate(125.721592905 338.456175)scale(0.12 -0.12)">
       <use xlink:href="#SourceSansPro-Regular-36"/>
      </g>
     </g>
    </g>
    <g id="xtick_3">
     <g id="line2d_7">
      <path clip-path="url(#p010828342a)" d="M 204.109186 319.9118 
L 204.109186 31.9118 
" style="fill:none;stroke:#8fa7bf;stroke-linecap:square;stroke-width:0.5;"/>
     </g>
     <g id="line2d_8">
      <g>
       <use style="stroke:#000000;stroke-width:0.5;" x="204.109185811" xlink:href="#mfbe01e3efa" y="319.9118"/>
      </g>
     </g>
     <g id="line2d_9">
      <g>
       <use style="stroke:#000000;stroke-width:0.5;" x="204.109185811" xlink:href="#mfd2a92c865" y="31.9118"/>
      </g>
     </g>
     <g id="text_3">
      <!-- 11 -->
      <g transform="translate(198.144810811 338.456175)scale(0.12 -0.12)">
       <use xlink:href="#SourceSansPro-Regular-31"/>
       <use x="49.69999694824219" xlink:href="#SourceSansPro-Regular-31"/>
      </g>
     </g>
    </g>
    <g id="xtick_4">
     <g id="line2d_10">
      <path clip-path="url(#p010828342a)" d="M 279.514591 319.9118 
L 279.514591 31.9118 
" style="fill:none;stroke:#8fa7bf;stroke-linecap:square;stroke-width:0.5;"/>
     </g>
     <g id="line2d_11">
      <g>
       <use style="stroke:#000000;stroke-width:0.5;" x="279.514591216" xlink:href="#mfbe01e3efa" y="319.9118"/>
      </g>
     </g>
     <g id="line2d_12">
      <g>
       <use style="stroke:#000000;stroke-width:0.5;" x="279.514591216" xlink:href="#mfd2a92c865" y="31.9118"/>
      </g>
     </g>
     <g id="text_4">
      <!-- 16 -->
      <g transform="translate(273.550216216 338.456175)scale(0.12 -0.12)">
       <use xlink:href="#SourceSansPro-Regular-31"/>
       <use x="49.69999694824219" xlink:href="#SourceSansPro-Regular-36"/>
      </g>
     </g>
    </g>
    <g id="xtick_5">
     <g id="line2d_13">
      <path clip-path="url(#p010828342a)" d="M 354.919997 319.9118 
L 354.919997 31.9118 
" style="fill:none;stroke:#8fa7bf;stroke-linecap:square;stroke-width:0.5;"/>
     </g>
     <g id="line2d_14">
      <g>
       <use style="stroke:#000000;stroke-width:0.5;" x="354.919996622" xlink:href="#mfbe01e3efa" y="319.9118"/>
      </g>
     </g>
     <g id="line2d_15">
      <g>
       <use style="stroke:#000000;stroke-width:0.5;" x="354.919996622" xlink:href="#mfd2a92c865" y="31.9118"/>
      </g>
     </g>
     <g id="text_5">
      <!-- 21 -->
      <defs>
       <path d="M 4 0 
L 45.203125 0 
L 45.203125 7.09375 
L 26.703125 7.09375 
C 23.40625 7.09375 19.5 6.796875 16 6.5 
C 31.09375 22.296875 42 34.203125 42 46.203125 
C 42 57.5 34.703125 65 22.90625 65 
C 14.59375 65 8.90625 61.09375 3.59375 55.296875 
L 8.296875 50.59375 
C 12 54.90625 16.59375 58.296875 21.90625 58.296875 
C 30 58.296875 34 53.09375 34 45.796875 
C 34 35.5 23.203125 24 4 4.90625 
z
" id="SourceSansPro-Regular-32"/>
      </defs>
      <g transform="translate(348.955621622 338.456175)scale(0.12 -0.12)">
       <use xlink:href="#SourceSansPro-Regular-32"/>
       <use x="49.69999694824219" xlink:href="#SourceSansPro-Regular-31"/>
      </g>
     </g>
    </g>
    <g id="xtick_6">
     <g id="line2d_16">
      <path clip-path="url(#p010828342a)" d="M 430.325402 319.9118 
L 430.325402 31.9118 
" style="fill:none;stroke:#8fa7bf;stroke-linecap:square;stroke-width:0.5;"/>
     </g>
     <g id="line2d_17">
      <g>
       <use style="stroke:#000000;stroke-width:0.5;" x="430.325402027" xlink:href="#mfbe01e3efa" y="319.9118"/>
      </g>
     </g>
     <g id="line2d_18">
      <g>
       <use style="stroke:#000000;stroke-width:0.5;" x="430.325402027" xlink:href="#mfd2a92c865" y="31.9118"/>
      </g>
     </g>
     <g id="text_6">
      <!-- 26 -->
      <g transform="translate(424.361027027 338.456175)scale(0.12 -0.12)">
       <use xlink:href="#SourceSansPro-Regular-32"/>
       <use x="49.69999694824219" xlink:href="#SourceSansPro-Regular-36"/>
      </g>
     </g>
    </g>
    <g id="xtick_7">
     <g id="line2d_19">
      <path clip-path="url(#p010828342a)" d="M 505.730807 319.9118 
L 505.730807 31.9118 
" style="fill:none;stroke:#8fa7bf;stroke-linecap:square;stroke-width:0.5;"/>
     </g>
     <g id="line2d_20">
      <g>
       <use style="stroke:#000000;stroke-width:0.5;" x="505.730807432" xlink:href="#mfbe01e3efa" y="319.9118"/>
      </g>
     </g>
     <g id="line2d_21">
      <g>
       <use style="stroke:#000000;stroke-width:0.5;" x="505.730807432" xlink:href="#mfd2a92c865" y="31.9118"/>
      </g>
     </g>
     <g id="text_7">
      <!-- 31 -->
      <defs>
       <path d="M 2.59375 7.796875 
C 6.90625 3.09375 13.40625 -1.203125 23.59375 -1.203125 
C 35.296875 -1.203125 44.59375 5.703125 44.59375 17 
C 44.59375 25.796875 38.5 31.40625 30.796875 33.203125 
L 30.796875 33.59375 
C 37.703125 36.203125 42.40625 41.09375 42.40625 48.796875 
C 42.40625 59.09375 34.40625 65 23.296875 65 
C 15.796875 65 9.90625 61.59375 5 57 
L 9.40625 51.796875 
C 13.203125 55.59375 17.703125 58.296875 23 58.296875 
C 29.796875 58.296875 34 54.40625 34 48.203125 
C 34 41.5 29.5 36.296875 15.90625 36.296875 
L 15.90625 30 
C 31.09375 30 36.296875 24.90625 36.296875 17.296875 
C 36.296875 10.203125 30.796875 5.59375 23.09375 5.59375 
C 15.59375 5.59375 10.59375 9.203125 6.796875 13.203125 
z
" id="SourceSansPro-Regular-33"/>
      </defs>
      <g transform="translate(499.766432432 338.456175)scale(0.12 -0.12)">
       <use xlink:href="#SourceSansPro-Regular-33"/>
       <use x="49.69999694824219" xlink:href="#SourceSansPro-Regular-31"/>
      </g>
     </g>
    </g>
    <g id="xtick_8">
     <g id="line2d_22">
      <path clip-path="url(#p010828342a)" d="M 581.136213 319.9118 
L 581.136213 31.9118 
" style="fill:none;stroke:#8fa7bf;stroke-linecap:square;stroke-width:0.5;"/>
     </g>
     <g id="line2d_23">
      <g>
       <use style="stroke:#000000;stroke-width:0.5;" x="581.136212838" xlink:href="#mfbe01e3efa" y="319.9118"/>
      </g>
     </g>
     <g id="line2d_24">
      <g>
       <use style="stroke:#000000;stroke-width:0.5;" x="581.136212838" xlink:href="#mfd2a92c865" y="31.9118"/>
      </g>
     </g>
     <g id="text_8">
      <!-- 36 -->
      <g transform="translate(575.171837838 338.456175)scale(0.12 -0.12)">
       <use xlink:href="#SourceSansPro-Regular-33"/>
       <use x="49.69999694824219" xlink:href="#SourceSansPro-Regular-36"/>
      </g>
     </g>
    </g>
    <g id="text_9">
     <!-- Games played -->
     <defs>
      <path d="M 2.796875 5.5 
C 7.40625 1.703125 14 -1.203125 20.90625 -1.203125 
C 32.40625 -1.203125 38.703125 5.40625 38.703125 13.296875 
C 38.703125 22.5 30.90625 25.40625 23.90625 28 
C 18.40625 30.09375 13.09375 31.796875 13.09375 36.40625 
C 13.09375 40.09375 15.90625 43.40625 22 43.40625 
C 26.296875 43.40625 29.796875 41.59375 33.09375 39.09375 
L 37 44.296875 
C 33.296875 47.296875 28 49.796875 21.90625 49.796875 
C 11.40625 49.796875 5.203125 43.796875 5.203125 36 
C 5.203125 27.796875 12.796875 24.5 19.703125 22 
C 25 20 30.796875 17.796875 30.796875 12.796875 
C 30.796875 8.59375 27.59375 5.203125 21.203125 5.203125 
C 15.40625 5.203125 11.09375 7.59375 6.90625 11 
z
" id="SourceSansPro-Regular-73"/>
      <path d="M 5.796875 12.59375 
C 5.796875 3.90625 11.90625 -1.203125 20.09375 -1.203125 
C 26.09375 -1.203125 31.5 2 36.203125 5.796875 
L 36.40625 5.796875 
L 37.09375 0 
L 43.90625 0 
L 43.90625 29.796875 
C 43.90625 41.90625 38.90625 49.796875 27 49.796875 
C 19.203125 49.796875 12.40625 46.40625 7.90625 43.5 
L 11.203125 37.796875 
C 15 40.40625 20 43 25.703125 43 
C 33.59375 43 35.703125 37 35.703125 30.796875 
C 15 28.5 5.796875 23.203125 5.796875 12.59375 
M 13.90625 13.203125 
C 13.90625 19.40625 19.40625 23.40625 35.703125 25.40625 
L 35.703125 11.90625 
C 31 7.703125 27.09375 5.40625 22.40625 5.40625 
C 17.59375 5.40625 13.90625 7.703125 13.90625 13.203125 
" id="SourceSansPro-Regular-61"/>
      <path d="M 5.203125 32.796875 
C 5.203125 11.40625 17.5 -1.203125 34.703125 -1.203125 
C 43.5 -1.203125 50.703125 2 55 6.40625 
L 55 34 
L 33.5 34 
L 33.5 27.09375 
L 47.40625 27.09375 
L 47.40625 10 
C 44.796875 7.59375 40.296875 6.09375 35.59375 6.09375 
C 21.59375 6.09375 13.796875 16.5 13.796875 33 
C 13.796875 49.296875 22.296875 59.5 35.5 59.5 
C 42.09375 59.5 46.203125 56.90625 49.5 53.40625 
L 54.203125 58.703125 
C 50.40625 62.703125 44.40625 66.796875 35.40625 66.796875 
C 17.90625 66.796875 5.203125 53.90625 5.203125 32.796875 
" id="SourceSansPro-Regular-47"/>
      <path d="M 4.90625 -13.40625 
L 3.296875 -19.90625 
C 4.90625 -20.5 6.796875 -20.90625 9 -20.90625 
C 18.796875 -20.90625 23.796875 -13.59375 27.203125 -4 
L 45.5 48.59375 
L 37.5 48.59375 
L 28.796875 21.703125 
C 27.5 17.40625 26.09375 12.40625 24.703125 8 
L 24.296875 8 
C 22.796875 12.5 21.09375 17.5 19.59375 21.703125 
L 9.703125 48.59375 
L 1.203125 48.59375 
L 20.703125 -0.09375 
L 19.59375 -3.703125 
C 17.59375 -9.703125 14.09375 -14.09375 8.59375 -14.09375 
C 7.40625 -14.09375 5.90625 -13.703125 4.90625 -13.40625 
" id="SourceSansPro-Regular-79"/>
      <path d="M 8.203125 9.796875 
C 8.203125 2.703125 10.703125 -1.203125 16.90625 -1.203125 
C 19.09375 -1.203125 20.5 -0.90625 21.59375 -0.40625 
L 20.5 5.796875 
C 19.59375 5.59375 19.203125 5.59375 18.703125 5.59375 
C 17.5 5.59375 16.40625 6.59375 16.40625 9.203125 
L 16.40625 71.203125 
L 8.203125 71.203125 
z
" id="SourceSansPro-Regular-6c"/>
      <path d="M 16.203125 4.40625 
C 20.703125 0.90625 25.203125 -1.203125 29.703125 -1.203125 
C 40.796875 -1.203125 50.703125 8.5 50.703125 25 
C 50.703125 40.09375 44 49.796875 31.5 49.796875 
C 25.796875 49.796875 20.40625 46.703125 16 43 
L 15.703125 43 
L 15 48.59375 
L 8.203125 48.59375 
L 8.203125 -20.5 
L 16.40625 -20.5 
L 16.40625 -4.09375 
z
M 16.40625 10.796875 
L 16.40625 36.296875 
C 21.203125 40.59375 25.296875 42.90625 29.40625 42.90625 
C 38.59375 42.90625 42.203125 35.703125 42.203125 25 
C 42.203125 13 36.296875 5.703125 28.296875 5.703125 
C 25.09375 5.703125 20.796875 7.09375 16.40625 10.796875 
" id="SourceSansPro-Regular-70"/>
      <path id="SourceSansPro-Regular-20"/>
      <path d="M 4.703125 24.203125 
C 4.703125 8 12.59375 -1.203125 24.796875 -1.203125 
C 30.5 -1.203125 35.703125 2 39.5 5.703125 
L 39.796875 5.703125 
L 40.5 0 
L 47.296875 0 
L 47.296875 71.203125 
L 39 71.203125 
L 39 52.5 
L 39.40625 44.203125 
C 35.09375 47.703125 31.40625 49.796875 25.796875 49.796875 
C 14.703125 49.796875 4.703125 40 4.703125 24.203125 
M 13.203125 24.296875 
C 13.203125 35.40625 19.40625 42.90625 27.203125 42.90625 
C 31.203125 42.90625 34.90625 41.5 39 37.796875 
L 39 12.40625 
C 35 7.90625 31.09375 5.703125 26.59375 5.703125 
C 18.09375 5.703125 13.203125 12.703125 13.203125 24.296875 
" id="SourceSansPro-Regular-64"/>
      <path d="M 4.59375 24.203125 
C 4.59375 8.296875 14.90625 -1.203125 27.90625 -1.203125 
C 34.5 -1.203125 39.703125 1.09375 43.90625 3.796875 
L 41 9.203125 
C 37.40625 6.90625 33.5 5.40625 28.90625 5.40625 
C 19.59375 5.40625 13.296875 12 12.703125 22.5 
L 45.5 22.5 
C 45.703125 23.703125 45.796875 25.296875 45.796875 27 
C 45.796875 40.90625 38.796875 49.796875 26.40625 49.796875 
C 15.296875 49.796875 4.59375 40.09375 4.59375 24.203125 
M 12.59375 27.90625 
C 13.59375 37.703125 19.796875 43.296875 26.59375 43.296875 
C 34.203125 43.296875 38.59375 37.796875 38.59375 27.90625 
z
" id="SourceSansPro-Regular-65"/>
      <path d="M 8.203125 0 
L 16.40625 0 
L 16.40625 35.203125 
C 20.90625 40.203125 25 42.703125 28.59375 42.703125 
C 34.796875 42.703125 37.703125 38.796875 37.703125 29.703125 
L 37.703125 0 
L 45.90625 0 
L 45.90625 35.203125 
C 50.40625 40.203125 54.296875 42.703125 58.09375 42.703125 
C 64.203125 42.703125 67.09375 38.796875 67.09375 29.703125 
L 67.09375 0 
L 75.296875 0 
L 75.296875 30.796875 
C 75.296875 43.203125 70.5 49.796875 60.5 49.796875 
C 54.59375 49.796875 49.59375 46 44.5 40.5 
C 42.5 46.296875 38.5 49.796875 31.09375 49.796875 
C 25.296875 49.796875 20.203125 46.203125 16 41.59375 
L 15.703125 41.59375 
L 15 48.59375 
L 8.203125 48.59375 
z
" id="SourceSansPro-Regular-6d"/>
     </defs>
     <g transform="translate(289.70925 356.169425)scale(0.144 -0.144)">
      <use xlink:href="#SourceSansPro-Regular-47"/>
      <use x="61.69999694824219" xlink:href="#SourceSansPro-Regular-61"/>
      <use x="112.89999389648438" xlink:href="#SourceSansPro-Regular-6d"/>
      <use x="195.79998779296875" xlink:href="#SourceSansPro-Regular-65"/>
      <use x="245.3999786376953" xlink:href="#SourceSansPro-Regular-73"/>
      <use x="287.2999725341797" xlink:href="#SourceSansPro-Regular-20"/>
      <use x="307.4999694824219" xlink:href="#SourceSansPro-Regular-70"/>
      <use x="362.9999542236328" xlink:href="#SourceSansPro-Regular-6c"/>
      <use x="388.49993896484375" xlink:href="#SourceSansPro-Regular-61"/>
      <use x="439.69993591308594" xlink:href="#SourceSansPro-Regular-79"/>
      <use x="486.3999328613281" xlink:href="#SourceSansPro-Regular-65"/>
      <use x="535.9999237060547" xlink:href="#SourceSansPro-Regular-64"/>
     </g>
    </g>
   </g>
   <g id="matplotlib.axis_2">
    <g id="ytick_1">
     <g id="line2d_25">
      <path clip-path="url(#p010828342a)" d="M 53.298375 319.9118 
L 611.298375 319.9118 
" style="fill:none;stroke:#8fa7bf;stroke-linecap:square;stroke-width:0.5;"/>
     </g>
     <g id="line2d_26">
      <defs>
       <path d="M 0 0 
L 6 0 
" id="m4f850c133f" style="stroke:#000000;stroke-width:0.5;"/>
      </defs>
      <g>
       <use style="stroke:#000000;stroke-width:0.5;" x="53.298375" xlink:href="#m4f850c133f" y="319.9118"/>
      </g>
     </g>
     <g id="line2d_27">
      <defs>
       <path d="M 0 0 
L -6 0 
" id="m44f395b525" style="stroke:#000000;stroke-width:0.5;"/>
      </defs>
      <g>
       <use style="stroke:#000000;stroke-width:0.5;" x="611.298375" xlink:href="#m44f395b525" y="319.9118"/>
      </g>
     </g>
     <g id="text_10">
      <!-- −20 -->
      <defs>
       <path d="M 24.90625 -1.203125 
C 37.59375 -1.203125 45.296875 10.703125 45.296875 32.09375 
C 45.296875 53.5 37.59375 65 24.90625 65 
C 12.09375 65 4.40625 53.5 4.40625 32.09375 
C 4.40625 10.703125 12.09375 -1.203125 24.90625 -1.203125 
M 24.90625 5.40625 
C 17.40625 5.40625 12.40625 13.40625 12.40625 32.09375 
C 12.40625 50.796875 17.40625 58.40625 24.90625 58.40625 
C 32.296875 58.40625 37.296875 50.796875 37.296875 32.09375 
C 37.296875 13.40625 32.296875 5.40625 24.90625 5.40625 
" id="SourceSansPro-Regular-30"/>
       <path d="M 3.40625 29.90625 
L 46.296875 29.90625 
L 46.296875 36.09375 
L 3.40625 36.09375 
z
" id="SourceSansPro-Regular-2212"/>
      </defs>
      <g transform="translate(25.40525 322.9539875)scale(0.12 -0.12)">
       <use xlink:href="#SourceSansPro-Regular-2212"/>
       <use x="49.69999694824219" xlink:href="#SourceSansPro-Regular-32"/>
       <use x="99.39999389648438" xlink:href="#SourceSansPro-Regular-30"/>
      </g>
     </g>
    </g>
    <g id="ytick_2">
     <g id="line2d_28">
      <path clip-path="url(#p010828342a)" d="M 53.298375 278.768943 
L 611.298375 278.768943 
" style="fill:none;stroke:#8fa7bf;stroke-linecap:square;stroke-width:0.5;"/>
     </g>
     <g id="line2d_29">
      <g>
       <use style="stroke:#000000;stroke-width:0.5;" x="53.298375" xlink:href="#m4f850c133f" y="278.768942857"/>
      </g>
     </g>
     <g id="line2d_30">
      <g>
       <use style="stroke:#000000;stroke-width:0.5;" x="611.298375" xlink:href="#m44f395b525" y="278.768942857"/>
      </g>
     </g>
     <g id="text_11">
      <!-- −10 -->
      <g transform="translate(25.40525 281.811130357)scale(0.12 -0.12)">
       <use xlink:href="#SourceSansPro-Regular-2212"/>
       <use x="49.69999694824219" xlink:href="#SourceSansPro-Regular-31"/>
       <use x="99.39999389648438" xlink:href="#SourceSansPro-Regular-30"/>
      </g>
     </g>
    </g>
    <g id="ytick_3">
     <g id="line2d_31">
      <path clip-path="url(#p010828342a)" d="M 53.298375 237.626086 
L 611.298375 237.626086 
" style="fill:none;stroke:#8fa7bf;stroke-linecap:square;stroke-width:0.5;"/>
     </g>
     <g id="line2d_32">
      <g>
       <use style="stroke:#000000;stroke-width:0.5;" x="53.298375" xlink:href="#m4f850c133f" y="237.626085714"/>
      </g>
     </g>
     <g id="line2d_33">
      <g>
       <use style="stroke:#000000;stroke-width:0.5;" x="611.298375" xlink:href="#m44f395b525" y="237.626085714"/>
      </g>
     </g>
     <g id="text_12">
      <!-- 0 -->
      <g transform="translate(37.334 240.668273214)scale(0.12 -0.12)">
       <use xlink:href="#SourceSansPro-Regular-30"/>
      </g>
     </g>
    </g>
    <g id="ytick_4">
     <g id="line2d_34">
      <path clip-path="url(#p010828342a)" d="M 53.298375 196.483229 
L 611.298375 196.483229 
" style="fill:none;stroke:#8fa7bf;stroke-linecap:square;stroke-width:0.5;"/>
     </g>
     <g id="line2d_35">
      <g>
       <use style="stroke:#000000;stroke-width:0.5;" x="53.298375" xlink:href="#m4f850c133f" y="196.483228571"/>
      </g>
     </g>
     <g id="line2d_36">
      <g>
       <use style="stroke:#000000;stroke-width:0.5;" x="611.298375" xlink:href="#m44f395b525" y="196.483228571"/>
      </g>
     </g>
     <g id="text_13">
      <!-- 10 -->
      <g transform="translate(31.369625 199.525416071)scale(0.12 -0.12)">
       <use xlink:href="#SourceSansPro-Regular-31"/>
       <use x="49.69999694824219" xlink:href="#SourceSansPro-Regular-30"/>
      </g>
     </g>
    </g>
    <g id="ytick_5">
     <g id="line2d_37">
      <path clip-path="url(#p010828342a)" d="M 53.298375 155.340371 
L 611.298375 155.340371 
" style="fill:none;stroke:#8fa7bf;stroke-linecap:square;stroke-width:0.5;"/>
     </g>
     <g id="line2d_38">
      <g>
       <use style="stroke:#000000;stroke-width:0.5;" x="53.298375" xlink:href="#m4f850c133f" y="155.340371429"/>
      </g>
     </g>
     <g id="line2d_39">
      <g>
       <use style="stroke:#000000;stroke-width:0.5;" x="611.298375" xlink:href="#m44f395b525" y="155.340371429"/>
      </g>
     </g>
     <g id="text_14">
      <!-- 20 -->
      <g transform="translate(31.369625 158.382558929)scale(0.12 -0.12)">
       <use xlink:href="#SourceSansPro-Regular-32"/>
       <use x="49.69999694824219" xlink:href="#SourceSansPro-Regular-30"/>
      </g>
     </g>
    </g>
    <g id="ytick_6">
     <g id="line2d_40">
      <path clip-path="url(#p010828342a)" d="M 53.298375 114.197514 
L 611.298375 114.197514 
" style="fill:none;stroke:#8fa7bf;stroke-linecap:square;stroke-width:0.5;"/>
     </g>
     <g id="line2d_41">
      <g>
       <use style="stroke:#000000;stroke-width:0.5;" x="53.298375" xlink:href="#m4f850c133f" y="114.197514286"/>
      </g>
     </g>
     <g id="line2d_42">
      <g>
       <use style="stroke:#000000;stroke-width:0.5;" x="611.298375" xlink:href="#m44f395b525" y="114.197514286"/>
      </g>
     </g>
     <g id="text_15">
      <!-- 30 -->
      <g transform="translate(31.369625 117.239701786)scale(0.12 -0.12)">
       <use xlink:href="#SourceSansPro-Regular-33"/>
       <use x="49.69999694824219" xlink:href="#SourceSansPro-Regular-30"/>
      </g>
     </g>
    </g>
    <g id="ytick_7">
     <g id="line2d_43">
      <path clip-path="url(#p010828342a)" d="M 53.298375 73.054657 
L 611.298375 73.054657 
" style="fill:none;stroke:#8fa7bf;stroke-linecap:square;stroke-width:0.5;"/>
     </g>
     <g id="line2d_44">
      <g>
       <use style="stroke:#000000;stroke-width:0.5;" x="53.298375" xlink:href="#m4f850c133f" y="73.0546571429"/>
      </g>
     </g>
     <g id="line2d_45">
      <g>
       <use style="stroke:#000000;stroke-width:0.5;" x="611.298375" xlink:href="#m44f395b525" y="73.0546571429"/>
      </g>
     </g>
     <g id="text_16">
      <!-- 40 -->
      <defs>
       <path d="M 10.40625 24.203125 
L 25.296875 46 
C 27.09375 49.09375 28.90625 51.90625 30.5 55 
L 30.90625 55 
C 30.703125 51.59375 30.40625 46.09375 30.40625 42.703125 
L 30.40625 24.203125 
z
M 46.90625 24.203125 
L 38.203125 24.203125 
L 38.203125 63.796875 
L 29 63.796875 
L 1.703125 23 
L 1.703125 17.59375 
L 30.40625 17.59375 
L 30.40625 0 
L 38.203125 0 
L 38.203125 17.59375 
L 46.90625 17.59375 
z
" id="SourceSansPro-Regular-34"/>
      </defs>
      <g transform="translate(31.369625 76.0968446429)scale(0.12 -0.12)">
       <use xlink:href="#SourceSansPro-Regular-34"/>
       <use x="49.69999694824219" xlink:href="#SourceSansPro-Regular-30"/>
      </g>
     </g>
    </g>
    <g id="ytick_8">
     <g id="line2d_46">
      <path clip-path="url(#p010828342a)" d="M 53.298375 31.9118 
L 611.298375 31.9118 
" style="fill:none;stroke:#8fa7bf;stroke-linecap:square;stroke-width:0.5;"/>
     </g>
     <g id="line2d_47">
      <g>
       <use style="stroke:#000000;stroke-width:0.5;" x="53.298375" xlink:href="#m4f850c133f" y="31.9118"/>
      </g>
     </g>
     <g id="line2d_48">
      <g>
       <use style="stroke:#000000;stroke-width:0.5;" x="611.298375" xlink:href="#m44f395b525" y="31.9118"/>
      </g>
     </g>
     <g id="text_17">
      <!-- 50 -->
      <defs>
       <path d="M 2.5 7.5 
C 6.90625 3.09375 13.203125 -1.203125 23.40625 -1.203125 
C 34.5 -1.203125 44.90625 6.59375 44.90625 20.40625 
C 44.90625 34.203125 36 40.40625 25.09375 40.40625 
C 21.203125 40.40625 18.296875 39.40625 15.296875 37.796875 
L 17 56.703125 
L 41.703125 56.703125 
L 41.703125 63.796875 
L 9.796875 63.796875 
L 7.703125 33.09375 
L 12.09375 30.296875 
C 15.90625 32.796875 18.59375 34.203125 23 34.203125 
C 31.203125 34.203125 36.59375 29 36.59375 20.203125 
C 36.59375 11.296875 30.40625 5.59375 22.59375 5.59375 
C 15.09375 5.59375 10.296875 9.09375 6.5 12.90625 
z
" id="SourceSansPro-Regular-35"/>
      </defs>
      <g transform="translate(31.369625 34.9539875)scale(0.12 -0.12)">
       <use xlink:href="#SourceSansPro-Regular-35"/>
       <use x="49.69999694824219" xlink:href="#SourceSansPro-Regular-30"/>
      </g>
     </g>
    </g>
    <g id="text_18">
     <!-- Points difference -->
     <defs>
      <path d="M 12.40625 58.59375 
C 15.59375 58.59375 18.09375 60.796875 18.09375 63.90625 
C 18.09375 67.09375 15.59375 69.203125 12.40625 69.203125 
C 9.203125 69.203125 6.703125 67.09375 6.703125 63.90625 
C 6.703125 60.796875 9.203125 58.59375 12.40625 58.59375 
M 8.203125 0 
L 16.40625 0 
L 16.40625 48.59375 
L 8.203125 48.59375 
z
" id="SourceSansPro-Regular-69"/>
      <path d="M 9.59375 15 
C 9.59375 5.40625 13.09375 -1.203125 23.5 -1.203125 
C 26.5 -1.203125 29.796875 -0.296875 32.5 0.59375 
L 30.90625 6.796875 
C 29.296875 6.203125 27.09375 5.5 25.40625 5.5 
C 19.796875 5.5 17.90625 8.90625 17.90625 14.90625 
L 17.90625 41.90625 
L 31 41.90625 
L 31 48.59375 
L 17.90625 48.59375 
L 17.90625 62.203125 
L 11 62.203125 
L 10 48.59375 
L 2.40625 48.09375 
L 2.40625 41.90625 
L 9.59375 41.90625 
z
" id="SourceSansPro-Regular-74"/>
      <path d="M 31.90625 70.796875 
C 29.703125 71.703125 26.796875 72.40625 23.796875 72.40625 
C 14.09375 72.40625 9.59375 66.203125 9.59375 56.296875 
L 9.59375 48.59375 
L 3 48.09375 
L 3 41.90625 
L 9.59375 41.90625 
L 9.59375 0 
L 17.796875 0 
L 17.796875 41.90625 
L 28.09375 41.90625 
L 28.09375 48.59375 
L 17.796875 48.59375 
L 17.796875 56.296875 
C 17.796875 62.5 20 65.703125 24.59375 65.703125 
C 26.40625 65.703125 28.296875 65.296875 30.09375 64.5 
z
" id="SourceSansPro-Regular-66"/>
      <path d="M 4.59375 24.203125 
C 4.59375 8.09375 14.5 -1.203125 27.40625 -1.203125 
C 33.203125 -1.203125 38.796875 1.203125 43.203125 5.09375 
L 39.5 10.5 
C 36.59375 7.90625 32.703125 5.59375 28.09375 5.59375 
C 19.203125 5.59375 13.09375 13.09375 13.09375 24.203125 
C 13.09375 35.40625 19.5 43 28.296875 43 
C 32.203125 43 35.203125 41.203125 38.09375 38.703125 
L 42.203125 44 
C 38.90625 47.09375 34.40625 49.796875 28 49.796875 
C 15.5 49.796875 4.59375 40.5 4.59375 24.203125 
" id="SourceSansPro-Regular-63"/>
      <path d="M 4.59375 24.203125 
C 4.59375 8.09375 15.203125 -1.203125 27.09375 -1.203125 
C 39 -1.203125 49.59375 8.09375 49.59375 24.203125 
C 49.59375 40.5 39 49.796875 27.09375 49.796875 
C 15.203125 49.796875 4.59375 40.5 4.59375 24.203125 
M 13.09375 24.203125 
C 13.09375 35.40625 18.796875 43 27.09375 43 
C 35.5 43 41.09375 35.40625 41.09375 24.203125 
C 41.09375 13.09375 35.5 5.59375 27.09375 5.59375 
C 18.796875 5.59375 13.09375 13.09375 13.09375 24.203125 
" id="SourceSansPro-Regular-6f"/>
      <path d="M 8.203125 0 
L 16.40625 0 
L 16.40625 35.203125 
C 21.296875 40.09375 24.703125 42.703125 29.703125 42.703125 
C 36.09375 42.703125 38.90625 38.796875 38.90625 29.703125 
L 38.90625 0 
L 47.09375 0 
L 47.09375 30.796875 
C 47.09375 43.203125 42.5 49.796875 32.296875 49.796875 
C 25.59375 49.796875 20.59375 46.203125 16 41.59375 
L 15.703125 41.59375 
L 15 48.59375 
L 8.203125 48.59375 
z
" id="SourceSansPro-Regular-6e"/>
      <path d="M 8.203125 0 
L 16.40625 0 
L 16.40625 31.203125 
C 19.703125 39.40625 24.59375 42.40625 28.703125 42.40625 
C 30.703125 42.40625 31.796875 42.09375 33.40625 41.59375 
L 35 48.796875 
C 33.40625 49.5 31.90625 49.796875 29.796875 49.796875 
C 24.296875 49.796875 19.296875 45.90625 16 39.796875 
L 15.703125 39.796875 
L 15 48.59375 
L 8.203125 48.59375 
z
" id="SourceSansPro-Regular-72"/>
      <path d="M 9 0 
L 17.296875 0 
L 17.296875 26 
L 29.09375 26 
C 43.5 26 53.296875 32.5 53.296875 46.296875 
C 53.296875 60.703125 43.59375 65.59375 29.09375 65.59375 
L 9 65.59375 
z
M 17.296875 32.796875 
L 17.296875 58.90625 
L 28.09375 58.90625 
C 39.40625 58.90625 45 55.796875 45 46.296875 
C 45 37 39.5 32.796875 28.09375 32.796875 
z
" id="SourceSansPro-Regular-50"/>
     </defs>
     <g transform="translate(17.45325 226.98005)rotate(-90.0)scale(0.144 -0.144)">
      <use xlink:href="#SourceSansPro-Regular-50"/>
      <use x="57.59999084472656" xlink:href="#SourceSansPro-Regular-6f"/>
      <use x="111.79998779296875" xlink:href="#SourceSansPro-Regular-69"/>
      <use x="136.3999786376953" xlink:href="#SourceSansPro-Regular-6e"/>
      <use x="191.0999755859375" xlink:href="#SourceSansPro-Regular-74"/>
      <use x="224.89996337890625" xlink:href="#SourceSansPro-Regular-73"/>
      <use x="266.7999572753906" xlink:href="#SourceSansPro-Regular-20"/>
      <use x="286.9999542236328" xlink:href="#SourceSansPro-Regular-64"/>
      <use x="342.49993896484375" xlink:href="#SourceSansPro-Regular-69"/>
      <use x="367.0999298095703" xlink:href="#SourceSansPro-Regular-66"/>
      <use x="396.2999267578125" xlink:href="#SourceSansPro-Regular-66"/>
      <use x="425.4999237060547" xlink:href="#SourceSansPro-Regular-65"/>
      <use x="475.09991455078125" xlink:href="#SourceSansPro-Regular-72"/>
      <use x="509.79991149902344" xlink:href="#SourceSansPro-Regular-65"/>
      <use x="559.39990234375" xlink:href="#SourceSansPro-Regular-6e"/>
      <use x="614.0998992919922" xlink:href="#SourceSansPro-Regular-63"/>
      <use x="659.6998901367188" xlink:href="#SourceSansPro-Regular-65"/>
     </g>
    </g>
   </g>
   <g id="line2d_49">
    <path clip-path="url(#p010828342a)" d="M 53.298375 237.626086 
L 611.298375 237.626086 
" style="fill:none;stroke:#607080;stroke-linecap:square;"/>
   </g>
   <g id="line2d_50">
    <path clip-path="url(#p010828342a)" d="M 53.298375 237.842627 
L 68.379456 242.173454 
L 83.460537 242.389995 
L 98.541618 234.377965 
L 113.622699 226.365935 
L 128.70378 230.696762 
L 143.784861 230.913304 
L 158.865943 235.244131 
L 173.947024 239.574958 
L 189.028105 243.905785 
L 204.109186 248.236612 
L 219.190267 248.453153 
L 234.271348 252.78398 
L 249.352429 257.114808 
L 264.43351 261.445635 
L 279.514591 265.776462 
L 294.595672 270.107289 
L 309.676753 274.438116 
L 324.757834 266.426086 
L 339.838916 266.642627 
L 354.919997 258.630597 
L 370.001078 262.961424 
L 385.082159 267.292251 
L 400.16324 271.623078 
L 415.244321 275.953905 
L 430.325402 276.170447 
L 445.406483 280.501274 
L 460.487564 284.832101 
L 475.568645 285.048642 
L 490.649726 289.379469 
L 505.730807 281.367439 
L 520.811889 273.355409 
L 535.89297 265.343379 
L 550.974051 257.331349 
L 566.055132 249.319319 
L 581.136213 241.307289 
L 596.217294 241.52383 
L 611.298375 233.5118 
" style="fill:none;stroke:#1369bf;stroke-linecap:square;stroke-width:2.0;"/>
   </g>
   <g id="line2d_51">
    <path clip-path="url(#p010828342a)" d="M 53.298375 229.614056 
L 68.379456 221.602026 
L 83.460537 221.818567 
L 98.541618 222.035108 
L 113.622699 214.023078 
L 128.70378 214.23962 
L 143.784861 218.570447 
L 158.865943 210.558417 
L 173.947024 210.774958 
L 189.028105 202.762928 
L 204.109186 194.750898 
L 219.190267 186.738868 
L 234.271348 178.726838 
L 249.352429 178.943379 
L 264.43351 170.931349 
L 279.514591 162.919319 
L 294.595672 154.907289 
L 309.676753 159.238116 
L 324.757834 159.454657 
L 339.838916 159.671198 
L 354.919997 151.659168 
L 370.001078 151.87571 
L 385.082159 143.86368 
L 400.16324 135.85165 
L 415.244321 127.83962 
L 430.325402 132.170447 
L 445.406483 124.158417 
L 460.487564 124.374958 
L 475.568645 116.362928 
L 490.649726 108.350898 
L 505.730807 100.338868 
L 520.811889 92.326838 
L 535.89297 84.314808 
L 550.974051 84.531349 
L 566.055132 76.519319 
L 581.136213 76.73586 
L 596.217294 68.72383 
L 611.298375 68.940371 
" style="fill:none;stroke:#bd3338;stroke-linecap:square;stroke-width:2.0;"/>
   </g>
   <g id="line2d_52">
    <path clip-path="url(#p010828342a)" d="M 53.298375 241.956913 
L 68.379456 242.173454 
L 83.460537 234.161424 
L 98.541618 238.492251 
L 113.622699 230.480221 
" style="fill:none;stroke:#00800a;stroke-linecap:square;stroke-width:2.0;"/>
   </g>
   <g id="patch_3">
    <path d="M 53.298375 319.9118 
L 611.298375 319.9118 
" style="fill:none;stroke:#000000;stroke-linecap:square;stroke-linejoin:miter;"/>
   </g>
   <g id="patch_4">
    <path d="M 53.298375 31.9118 
L 611.298375 31.9118 
" style="fill:none;stroke:#000000;stroke-linecap:square;stroke-linejoin:miter;"/>
   </g>
   <g id="patch_5">
    <path d="M 611.298375 319.9118 
L 611.298375 31.9118 
" style="fill:none;stroke:#000000;stroke-linecap:square;stroke-linejoin:miter;"/>
   </g>
   <g id="patch_6">
    <path d="M 53.298375 319.9118 
L 53.298375 31.9118 
" style="fill:none;stroke:#000000;stroke-linecap:square;stroke-linejoin:miter;"/>
   </g>
   <g id="text_19">
    <!-- Leicester City points distant from safety trend, 2014-15 to 2016-17 seasons -->
    <defs>
     <path d="M 4.09375 21.90625 
L 27.09375 21.90625 
L 27.09375 28.203125 
L 4.09375 28.203125 
z
" id="SourceSansPro-Regular-2d"/>
     <path d="M 5.203125 32.796875 
C 5.203125 11.40625 17.40625 -1.203125 33.90625 -1.203125 
C 42.296875 -1.203125 48.703125 2.296875 53.90625 8.296875 
L 49.203125 13.40625 
C 45 8.703125 40.40625 6.09375 34.09375 6.09375 
C 21.703125 6.09375 13.796875 16.5 13.796875 33 
C 13.796875 49.296875 22 59.5 34.5 59.5 
C 40 59.5 44.203125 57.09375 47.59375 53.40625 
L 52.296875 58.703125 
C 48.5 63 42.296875 66.796875 34.40625 66.796875 
C 17.59375 66.796875 5.203125 53.90625 5.203125 32.796875 
" id="SourceSansPro-Regular-43"/>
     <path d="M 17.703125 0 
L 26.203125 0 
C 27.296875 24.90625 30.40625 39.40625 45.5 58.703125 
L 45.5 63.796875 
L 4.40625 63.796875 
L 4.40625 56.703125 
L 36.203125 56.703125 
C 23.59375 39.203125 18.796875 24 17.703125 0 
" id="SourceSansPro-Regular-37"/>
     <path d="M 6.703125 -17 
C 14.796875 -13.59375 19.796875 -6.90625 19.796875 1.703125 
C 19.796875 7.703125 17.203125 11.40625 12.90625 11.40625 
C 9.59375 11.40625 6.796875 9.203125 6.796875 5.59375 
C 6.796875 1.90625 9.5 -0.09375 12.703125 -0.09375 
C 13 -0.09375 13.40625 -0.09375 13.703125 0 
C 13.703125 -5.40625 10.296875 -9.703125 4.703125 -12.203125 
z
" id="SourceSansPro-Regular-2c"/>
     <path d="M 9 0 
L 46 0 
L 46 7.09375 
L 17.296875 7.09375 
L 17.296875 65.59375 
L 9 65.59375 
z
" id="SourceSansPro-Regular-4c"/>
    </defs>
    <g transform="translate(65.230575 19.7118)scale(0.1728 -0.1728)">
     <use xlink:href="#SourceSansPro-Regular-4c"/>
     <use x="48.59999084472656" xlink:href="#SourceSansPro-Regular-65"/>
     <use x="98.19998168945312" xlink:href="#SourceSansPro-Regular-69"/>
     <use x="122.79997253417969" xlink:href="#SourceSansPro-Regular-63"/>
     <use x="168.39996337890625" xlink:href="#SourceSansPro-Regular-65"/>
     <use x="217.9999542236328" xlink:href="#SourceSansPro-Regular-73"/>
     <use x="259.8999481201172" xlink:href="#SourceSansPro-Regular-74"/>
     <use x="293.69993591308594" xlink:href="#SourceSansPro-Regular-65"/>
     <use x="343.2999267578125" xlink:href="#SourceSansPro-Regular-72"/>
     <use x="377.9999237060547" xlink:href="#SourceSansPro-Regular-20"/>
     <use x="398.1999206542969" xlink:href="#SourceSansPro-Regular-43"/>
     <use x="455.29991149902344" xlink:href="#SourceSansPro-Regular-69"/>
     <use x="479.89990234375" xlink:href="#SourceSansPro-Regular-74"/>
     <use x="513.6998901367188" xlink:href="#SourceSansPro-Regular-79"/>
     <use x="560.3998870849609" xlink:href="#SourceSansPro-Regular-20"/>
     <use x="580.5998840332031" xlink:href="#SourceSansPro-Regular-70"/>
     <use x="636.0998687744141" xlink:href="#SourceSansPro-Regular-6f"/>
     <use x="690.2998657226562" xlink:href="#SourceSansPro-Regular-69"/>
     <use x="714.8998565673828" xlink:href="#SourceSansPro-Regular-6e"/>
     <use x="769.599853515625" xlink:href="#SourceSansPro-Regular-74"/>
     <use x="803.3998413085938" xlink:href="#SourceSansPro-Regular-73"/>
     <use x="845.2998352050781" xlink:href="#SourceSansPro-Regular-20"/>
     <use x="865.4998321533203" xlink:href="#SourceSansPro-Regular-64"/>
     <use x="920.9998168945312" xlink:href="#SourceSansPro-Regular-69"/>
     <use x="945.5998077392578" xlink:href="#SourceSansPro-Regular-73"/>
     <use x="987.4998016357422" xlink:href="#SourceSansPro-Regular-74"/>
     <use x="1021.2997894287109" xlink:href="#SourceSansPro-Regular-61"/>
     <use x="1072.4997863769531" xlink:href="#SourceSansPro-Regular-6e"/>
     <use x="1127.1997833251953" xlink:href="#SourceSansPro-Regular-74"/>
     <use x="1160.999771118164" xlink:href="#SourceSansPro-Regular-20"/>
     <use x="1181.1997680664062" xlink:href="#SourceSansPro-Regular-66"/>
     <use x="1210.3997650146484" xlink:href="#SourceSansPro-Regular-72"/>
     <use x="1245.0997619628906" xlink:href="#SourceSansPro-Regular-6f"/>
     <use x="1299.2997589111328" xlink:href="#SourceSansPro-Regular-6d"/>
     <use x="1382.1997528076172" xlink:href="#SourceSansPro-Regular-20"/>
     <use x="1402.3997497558594" xlink:href="#SourceSansPro-Regular-73"/>
     <use x="1444.2997436523438" xlink:href="#SourceSansPro-Regular-61"/>
     <use x="1495.499740600586" xlink:href="#SourceSansPro-Regular-66"/>
     <use x="1524.6997375488281" xlink:href="#SourceSansPro-Regular-65"/>
     <use x="1574.2997283935547" xlink:href="#SourceSansPro-Regular-74"/>
     <use x="1608.0997161865234" xlink:href="#SourceSansPro-Regular-79"/>
     <use x="1654.7997131347656" xlink:href="#SourceSansPro-Regular-20"/>
     <use x="1674.9997100830078" xlink:href="#SourceSansPro-Regular-74"/>
     <use x="1708.7996978759766" xlink:href="#SourceSansPro-Regular-72"/>
     <use x="1743.4996948242188" xlink:href="#SourceSansPro-Regular-65"/>
     <use x="1793.0996856689453" xlink:href="#SourceSansPro-Regular-6e"/>
     <use x="1847.7996826171875" xlink:href="#SourceSansPro-Regular-64"/>
     <use x="1903.2996673583984" xlink:href="#SourceSansPro-Regular-2c"/>
     <use x="1928.1996612548828" xlink:href="#SourceSansPro-Regular-20"/>
     <use x="1948.399658203125" xlink:href="#SourceSansPro-Regular-32"/>
     <use x="1998.0996551513672" xlink:href="#SourceSansPro-Regular-30"/>
     <use x="2047.7996520996094" xlink:href="#SourceSansPro-Regular-31"/>
     <use x="2097.4996490478516" xlink:href="#SourceSansPro-Regular-34"/>
     <use x="2147.1996459960938" xlink:href="#SourceSansPro-Regular-2d"/>
     <use x="2178.2996368408203" xlink:href="#SourceSansPro-Regular-31"/>
     <use x="2227.9996337890625" xlink:href="#SourceSansPro-Regular-35"/>
     <use x="2277.6996307373047" xlink:href="#SourceSansPro-Regular-20"/>
     <use x="2297.899627685547" xlink:href="#SourceSansPro-Regular-74"/>
     <use x="2331.6996154785156" xlink:href="#SourceSansPro-Regular-6f"/>
     <use x="2385.899612426758" xlink:href="#SourceSansPro-Regular-20"/>
     <use x="2406.099609375" xlink:href="#SourceSansPro-Regular-32"/>
     <use x="2455.799606323242" xlink:href="#SourceSansPro-Regular-30"/>
     <use x="2505.4996032714844" xlink:href="#SourceSansPro-Regular-31"/>
     <use x="2555.1996002197266" xlink:href="#SourceSansPro-Regular-36"/>
     <use x="2604.8995971679688" xlink:href="#SourceSansPro-Regular-2d"/>
     <use x="2635.9995880126953" xlink:href="#SourceSansPro-Regular-31"/>
     <use x="2685.6995849609375" xlink:href="#SourceSansPro-Regular-37"/>
     <use x="2735.3995819091797" xlink:href="#SourceSansPro-Regular-20"/>
     <use x="2755.599578857422" xlink:href="#SourceSansPro-Regular-73"/>
     <use x="2797.4995727539062" xlink:href="#SourceSansPro-Regular-65"/>
     <use x="2847.099563598633" xlink:href="#SourceSansPro-Regular-61"/>
     <use x="2898.299560546875" xlink:href="#SourceSansPro-Regular-73"/>
     <use x="2940.1995544433594" xlink:href="#SourceSansPro-Regular-6f"/>
     <use x="2994.3995513916016" xlink:href="#SourceSansPro-Regular-6e"/>
     <use x="3049.0995483398438" xlink:href="#SourceSansPro-Regular-73"/>
    </g>
   </g>
   <g id="legend_1">
    <g id="patch_7">
     <path d="M 60.498375 104.64755 
L 159.759375 104.64755 
L 159.759375 39.1118 
L 60.498375 39.1118 
z
" style="fill:#f7f8f9;stroke:#000000;stroke-linejoin:miter;"/>
    </g>
    <g id="line2d_53">
     <path d="M 70.578375 50.08505 
L 90.738375 50.08505 
" style="fill:none;stroke:#1369bf;stroke-linecap:square;stroke-width:2.0;"/>
    </g>
    <g id="line2d_54"/>
    <g id="text_20">
     <!-- 2014-15 -->
     <g transform="translate(106.578375 55.12505)scale(0.144 -0.144)">
      <use xlink:href="#SourceSansPro-Regular-32"/>
      <use x="49.69999694824219" xlink:href="#SourceSansPro-Regular-30"/>
      <use x="99.39999389648438" xlink:href="#SourceSansPro-Regular-31"/>
      <use x="149.09999084472656" xlink:href="#SourceSansPro-Regular-34"/>
      <use x="198.79998779296875" xlink:href="#SourceSansPro-Regular-2d"/>
      <use x="229.8999786376953" xlink:href="#SourceSansPro-Regular-31"/>
      <use x="279.5999755859375" xlink:href="#SourceSansPro-Regular-35"/>
     </g>
    </g>
    <g id="line2d_55">
     <path d="M 70.578375 70.4903 
L 90.738375 70.4903 
" style="fill:none;stroke:#bd3338;stroke-linecap:square;stroke-width:2.0;"/>
    </g>
    <g id="line2d_56"/>
    <g id="text_21">
     <!-- 2015-16 -->
     <g transform="translate(106.578375 75.5303)scale(0.144 -0.144)">
      <use xlink:href="#SourceSansPro-Regular-32"/>
      <use x="49.69999694824219" xlink:href="#SourceSansPro-Regular-30"/>
      <use x="99.39999389648438" xlink:href="#SourceSansPro-Regular-31"/>
      <use x="149.09999084472656" xlink:href="#SourceSansPro-Regular-35"/>
      <use x="198.79998779296875" xlink:href="#SourceSansPro-Regular-2d"/>
      <use x="229.8999786376953" xlink:href="#SourceSansPro-Regular-31"/>
      <use x="279.5999755859375" xlink:href="#SourceSansPro-Regular-36"/>
     </g>
    </g>
    <g id="line2d_57">
     <path d="M 70.578375 90.89555 
L 90.738375 90.89555 
" style="fill:none;stroke:#00800a;stroke-linecap:square;stroke-width:2.0;"/>
    </g>
    <g id="line2d_58"/>
    <g id="text_22">
     <!-- 2016-17 -->
     <g transform="translate(106.578375 95.93555)scale(0.144 -0.144)">
      <use xlink:href="#SourceSansPro-Regular-32"/>
      <use x="49.69999694824219" xlink:href="#SourceSansPro-Regular-30"/>
      <use x="99.39999389648438" xlink:href="#SourceSansPro-Regular-31"/>
      <use x="149.09999084472656" xlink:href="#SourceSansPro-Regular-36"/>
      <use x="198.79998779296875" xlink:href="#SourceSansPro-Regular-2d"/>
      <use x="229.8999786376953" xlink:href="#SourceSansPro-Regular-31"/>
      <use x="279.5999755859375" xlink:href="#SourceSansPro-Regular-37"/>
     </g>
    </g>
   </g>
  </g>
 </g>
 <defs>
  <clipPath id="p010828342a">
   <rect height="288.0" width="558.0" x="53.298375" y="31.9118"/>
  </clipPath>
 </defs>
</svg>
