<svg height="347pt" viewBox="0 0 742 347" width="742pt" xmlns="http://www.w3.org/2000/svg" xmlns:xlink="http://www.w3.org/1999/xlink"><defs><style>*{stroke-linecap:butt;stroke-linejoin:round;stroke-miterlimit:100000}</style></defs><g id="figure_1"><path d="M0 347.9h742.31V0H0v347.9z" fill="none" id="patch_1"/><g id="axes_1"><path d="M47.33 319.7h669.6v-288H47.33v288z" fill="none" id="patch_2"/><g id="matplotlib.axis_1"><g id="xtick_1"><path clip-path="url(#p1097783663)" d="M47.33 319.7v-288" fill="none" stroke="#8fa7bf" stroke-linecap="square" stroke-width=".5" id="line2d_1"/><g id="text_1"><defs><path d="M10.4 24.2L25.3 46c1.8 3.1 3.6 5.9 5.2 9h.4c-.2-3.4-.5-8.9-.5-12.3V24.2zm36.5 0h-8.7v39.6H29L1.7 23v-5.4h28.7V0h7.8v17.6h8.7z" id="SourceSansPro-Regular-34"/><path d="M4.6 24.2C4.6 8.3 14.9-1.2 27.9-1.2c6.6 0 11.8 2.3 16 5L41 9.2c-3.6-2.3-7.5-3.8-12.1-3.8-9.3 0-15.6 6.6-16.2 17.1h32.8c.2 1.2.3 2.8.3 4.5 0 13.9-7 22.8-19.4 22.8-11.1 0-21.8-9.7-21.8-25.6m8 3.7c1 9.8 7.2 15.4 14 15.4 7.6 0 12-5.5 12-15.4z" id="SourceSansPro-Regular-65"/><path d="M7.9 0h36v6.8H30.7v57h-6.3c-3.5-2.1-7.7-3.7-13.5-4.7v-5.3h11.6v-47H7.9z" id="SourceSansPro-Regular-31"/><path d="M4.2 8.5c5.7-5.9 13.8-9.7 23-9.7 13.8 0 22.3 8.3 22.3 18.7 0 9.7-5.9 14.2-13.5 17.5l-9.3 4c-5.2 2.2-10.9 4.6-10.9 10.9 0 5.9 4.9 9.6 12.2 9.6 6.1 0 10.9-2.4 14.9-6.2l4.5 5.4c-4.7 4.8-11.6 8.1-19.4 8.1-11.9 0-20.6-7.4-20.6-17.4 0-9.6 7.1-14.3 13.3-16.9l9.4-4.1C36.3 25.6 41 23.5 41 16.8c0-6.4-5.1-10.7-13.7-10.7-6.8 0-13.4 3.3-18.1 8.2z" id="SourceSansPro-Regular-53"/><path d="M16.2 4.4c4.5-3.5 9-5.6 13.5-5.6 11.1 0 21 9.7 21 26.2 0 15.1-6.7 24.8-19.2 24.8-5.7 0-11.1-3.1-15.5-6.8h-.3l-.7 5.6H8.2v-69.1h8.2v16.4zm.2 6.4v25.5c4.8 4.3 8.9 6.6 13 6.6 9.2 0 12.8-7.2 12.8-17.9 0-12-5.9-19.3-13.9-19.3-3.2 0-7.5 1.4-11.9 5.1" id="SourceSansPro-Regular-70"/><path d="M9.9 43.1h5l1.6 16.7.3 9.2H8l.3-9.2z" id="SourceSansPro-Regular-27"/></defs><g transform="matrix(.12 0 0 -.12 29.15 338.25)"><use xlink:href="#SourceSansPro-Regular-53"/><use x="53.4" xlink:href="#SourceSansPro-Regular-65"/><use x="103" xlink:href="#SourceSansPro-Regular-70"/><use x="158.5" xlink:href="#SourceSansPro-Regular-20"/><use x="178.7" xlink:href="#SourceSansPro-Regular-27"/><use x="203.6" xlink:href="#SourceSansPro-Regular-31"/><use x="253.3" xlink:href="#SourceSansPro-Regular-34"/></g></g></g><g id="xtick_2"><path clip-path="url(#p1097783663)" d="M130.69 319.7v-288" fill="none" stroke="#8fa7bf" stroke-linecap="square" stroke-width=".5" id="line2d_2"/><g id="text_2"><defs><path d="M4.6 24.2c0-16.1 9.9-25.4 22.8-25.4 5.8 0 11.4 2.4 15.8 6.3l-3.7 5.4c-2.9-2.6-6.8-4.9-11.4-4.9-8.9 0-15 7.5-15 18.6 0 11.2 6.4 18.8 15.2 18.8 3.9 0 6.9-1.8 9.8-4.3l4.1 5.3c-3.3 3.1-7.8 5.8-14.2 5.8-12.5 0-23.4-9.3-23.4-25.6" id="SourceSansPro-Regular-63"/><path d="M9 0h16.8c19.8 0 30.6 12.2 30.6 33.1 0 20.8-10.8 32.5-31 32.5H9zm8.3 6.8v52h7.5c15.3 0 23-9.2 23-25.7 0-16.6-7.7-26.3-23-26.3z" id="SourceSansPro-Regular-44"/></defs><g transform="matrix(.12 0 0 -.12 112.62 338.25)"><use xlink:href="#SourceSansPro-Regular-44"/><use x="61.5" xlink:href="#SourceSansPro-Regular-65"/><use x="111.1" xlink:href="#SourceSansPro-Regular-63"/><use x="156.7" xlink:href="#SourceSansPro-Regular-20"/><use x="176.9" xlink:href="#SourceSansPro-Regular-27"/><use x="201.8" xlink:href="#SourceSansPro-Regular-31"/><use x="251.5" xlink:href="#SourceSansPro-Regular-34"/></g></g></g><g id="xtick_3"><path clip-path="url(#p1097783663)" d="M213.13 319.7v-288" fill="none" stroke="#8fa7bf" stroke-linecap="square" stroke-width=".5" id="line2d_3"/><g id="text_3"><defs><path d="M9 0h7.7v36.1c0 5.8-.7 13.6-1.1 19.4h.4l5.2-14.6L33.9 6.6h4.7l12.6 34.3 5.3 14.6h.4c-.5-5.8-1.1-13.6-1.1-19.4V0h7.9v65.6h-9.8L41.3 30.4 36.7 17h-.4l-4.8 13.4-12.7 35.2H9z" id="SourceSansPro-Regular-4d"/><path d="M8.2 0h8.2v31.2c3.3 8.2 8.2 11.2 12.3 11.2 2 0 3.1-.3 4.7-.8l1.6 7.2a12 12 0 0 1-5.2 1c-5.5 0-10.5-3.9-13.8-10h-.3l-.7 8.8H8.2z" id="SourceSansPro-Regular-72"/><path d="M2.5 7.5c4.4-4.4 10.7-8.7 20.9-8.7 11.1 0 21.5 7.8 21.5 21.6s-8.9 20-19.8 20c-3.9 0-6.8-1-9.8-2.6L17 56.7h24.7v7.1H9.8L7.7 33.1l4.4-2.8c3.8 2.5 6.5 3.9 10.9 3.9 8.2 0 13.6-5.2 13.6-14 0-8.9-6.2-14.6-14-14.6-7.5 0-12.3 3.5-16.1 7.3z" id="SourceSansPro-Regular-35"/><path d="M5.8 12.6c0-8.7 6.1-13.8 14.3-13.8 6 0 11.4 3.2 16.1 7h.2l.7-5.8h6.8v29.8c0 12.1-5 20-16.9 20-7.8 0-14.6-3.4-19.1-6.3l3.3-5.7C15 40.4 20 43 25.7 43c7.9 0 10-6 10-12.2C15 28.5 5.8 23.2 5.8 12.6m8.1.6c0 6.2 5.5 10.2 21.8 12.2V11.9C31 7.7 27.1 5.4 22.4 5.4c-4.8 0-8.5 2.3-8.5 7.8" id="SourceSansPro-Regular-61"/></defs><g transform="matrix(.12 0 0 -.12 194.94 338.25)"><use xlink:href="#SourceSansPro-Regular-4d"/><use x="72.7" xlink:href="#SourceSansPro-Regular-61"/><use x="123.9" xlink:href="#SourceSansPro-Regular-72"/><use x="158.6" xlink:href="#SourceSansPro-Regular-20"/><use x="178.8" xlink:href="#SourceSansPro-Regular-27"/><use x="203.7" xlink:href="#SourceSansPro-Regular-31"/><use x="253.4" xlink:href="#SourceSansPro-Regular-35"/></g></g></g><g id="xtick_4"><path clip-path="url(#p1097783663)" d="M297.4 319.7v-288" fill="none" stroke="#8fa7bf" stroke-linecap="square" stroke-width=".5" id="line2d_4"/><g id="text_4"><defs><path d="M3.1 9.3C6.9 2.4 12.9-1.2 21.2-1.2 34-1.2 39.3 8 39.3 19.3v46.3h-8.4V20.1c0-10-3.5-14-10.5-14-4.7 0-8.4 2.2-11.3 7.4z" id="SourceSansPro-Regular-4a"/><path d="M8.2 0h8.2v35.2c4.9 4.9 8.3 7.5 13.3 7.5 6.4 0 9.2-3.9 9.2-13V0h8.2v30.8c0 12.4-4.6 19-14.8 19-6.7 0-11.7-3.6-16.3-8.2h-.3l-.7 7H8.2z" id="SourceSansPro-Regular-6e"/><path d="M7.5 17.8c0-12.4 4.6-19 14.9-19 6.7 0 11.5 3.5 16 8.8h.3l.7-7.6h6.8v48.6H38V14.1c-4.6-5.7-8.1-8.2-13.1-8.2-6.4 0-9.1 3.9-9.1 13v29.7H7.5z" id="SourceSansPro-Regular-75"/></defs><g transform="matrix(.12 0 0 -.12 279.3 338.25)"><use xlink:href="#SourceSansPro-Regular-4a"/><use x="48" xlink:href="#SourceSansPro-Regular-75"/><use x="102.4" xlink:href="#SourceSansPro-Regular-6e"/><use x="157.1" xlink:href="#SourceSansPro-Regular-20"/><use x="177.3" xlink:href="#SourceSansPro-Regular-27"/><use x="202.2" xlink:href="#SourceSansPro-Regular-31"/><use x="251.9" xlink:href="#SourceSansPro-Regular-35"/></g></g></g><g id="xtick_5"><path clip-path="url(#p1097783663)" d="M381.68 319.7v-288" fill="none" stroke="#8fa7bf" stroke-linecap="square" stroke-width=".5" id="line2d_5"/><g transform="matrix(.12 0 0 -.12 363.5 338.25)" id="text_5"><use xlink:href="#SourceSansPro-Regular-53"/><use x="53.4" xlink:href="#SourceSansPro-Regular-65"/><use x="103" xlink:href="#SourceSansPro-Regular-70"/><use x="158.5" xlink:href="#SourceSansPro-Regular-20"/><use x="178.7" xlink:href="#SourceSansPro-Regular-27"/><use x="203.6" xlink:href="#SourceSansPro-Regular-31"/><use x="253.3" xlink:href="#SourceSansPro-Regular-35"/></g></g><g id="xtick_6"><path clip-path="url(#p1097783663)" d="M465.03 319.7v-288" fill="none" stroke="#8fa7bf" stroke-linecap="square" stroke-width=".5" id="line2d_6"/><g transform="matrix(.12 0 0 -.12 446.96 338.25)" id="text_6"><use xlink:href="#SourceSansPro-Regular-44"/><use x="61.5" xlink:href="#SourceSansPro-Regular-65"/><use x="111.1" xlink:href="#SourceSansPro-Regular-63"/><use x="156.7" xlink:href="#SourceSansPro-Regular-20"/><use x="176.9" xlink:href="#SourceSansPro-Regular-27"/><use x="201.8" xlink:href="#SourceSansPro-Regular-31"/><use x="251.5" xlink:href="#SourceSansPro-Regular-35"/></g></g><g id="xtick_7"><path clip-path="url(#p1097783663)" d="M548.39 319.7v-288" fill="none" stroke="#8fa7bf" stroke-linecap="square" stroke-width=".5" id="line2d_7"/><g id="text_7"><defs><path d="M26.8 5.3c-8.1 0-13 6.7-14 19.1 4.3 6 9.3 8.4 13.3 8.4 7.9 0 11.8-5.2 11.8-13.5 0-8.4-4.8-14-11.1-14m17.7 52.9C40.9 62.1 36 65 29.1 65 16.4 65 4.8 55.1 4.8 29.5c0-20.5 9.5-30.7 22-30.7 10.3 0 18.9 8.3 18.9 20.5 0 13.1-7.2 19.7-18.2 19.7-5.2 0-10.9-3.1-14.9-8 .4 20.2 7.9 27.1 16.8 27.1 4 0 7.9-1.9 10.5-5z" id="SourceSansPro-Regular-36"/></defs><g transform="matrix(.12 0 0 -.12 530.2 338.25)"><use xlink:href="#SourceSansPro-Regular-4d"/><use x="72.7" xlink:href="#SourceSansPro-Regular-61"/><use x="123.9" xlink:href="#SourceSansPro-Regular-72"/><use x="158.6" xlink:href="#SourceSansPro-Regular-20"/><use x="178.8" xlink:href="#SourceSansPro-Regular-27"/><use x="203.7" xlink:href="#SourceSansPro-Regular-31"/><use x="253.4" xlink:href="#SourceSansPro-Regular-36"/></g></g></g><g id="xtick_8"><path clip-path="url(#p1097783663)" d="M632.66 319.7v-288" fill="none" stroke="#8fa7bf" stroke-linecap="square" stroke-width=".5" id="line2d_8"/><g transform="matrix(.12 0 0 -.12 614.56 338.25)" id="text_8"><use xlink:href="#SourceSansPro-Regular-4a"/><use x="48" xlink:href="#SourceSansPro-Regular-75"/><use x="102.4" xlink:href="#SourceSansPro-Regular-6e"/><use x="157.1" xlink:href="#SourceSansPro-Regular-20"/><use x="177.3" xlink:href="#SourceSansPro-Regular-27"/><use x="202.2" xlink:href="#SourceSansPro-Regular-31"/><use x="251.9" xlink:href="#SourceSansPro-Regular-36"/></g></g><g id="xtick_9"><path clip-path="url(#p1097783663)" d="M716.93 319.7v-288" fill="none" stroke="#8fa7bf" stroke-linecap="square" stroke-width=".5" id="line2d_9"/><g transform="matrix(.12 0 0 -.12 698.75 338.25)" id="text_9"><use xlink:href="#SourceSansPro-Regular-53"/><use x="53.4" xlink:href="#SourceSansPro-Regular-65"/><use x="103" xlink:href="#SourceSansPro-Regular-70"/><use x="158.5" xlink:href="#SourceSansPro-Regular-20"/><use x="178.7" xlink:href="#SourceSansPro-Regular-27"/><use x="203.6" xlink:href="#SourceSansPro-Regular-31"/><use x="253.3" xlink:href="#SourceSansPro-Regular-36"/></g></g></g><g id="matplotlib.axis_2"><g id="ytick_1"><path clip-path="url(#p1097783663)" d="M47.33 319.7h669.6" fill="none" stroke="#8fa7bf" stroke-linecap="square" stroke-width=".5" id="line2d_10"/><g id="text_10"><defs><path d="M24.9-1.2c12.7 0 20.4 11.9 20.4 33.3S37.6 65 24.9 65C12.1 65 4.4 53.5 4.4 32.1S12.1-1.2 24.9-1.2m0 6.6c-7.5 0-12.5 8-12.5 26.7s5 26.3 12.5 26.3c7.4 0 12.4-7.6 12.4-26.3 0-18.7-5-26.7-12.4-26.7" id="SourceSansPro-Regular-30"/></defs><use xlink:href="#SourceSansPro-Regular-30" transform="matrix(.12 0 0 -.12 31.37 322.75)"/></g></g><g id="ytick_2"><path clip-path="url(#p1097783663)" d="M47.33 283.7h669.6" fill="none" stroke="#8fa7bf" stroke-linecap="square" stroke-width=".5" id="line2d_11"/><use xlink:href="#SourceSansPro-Regular-35" transform="matrix(.12 0 0 -.12 31.37 286.75)" id="text_11"/></g><g id="ytick_3"><path clip-path="url(#p1097783663)" d="M47.33 247.7h669.6" fill="none" stroke="#8fa7bf" stroke-linecap="square" stroke-width=".5" id="line2d_12"/><g transform="matrix(.12 0 0 -.12 25.4 250.75)" id="text_12"><use xlink:href="#SourceSansPro-Regular-31"/><use x="49.7" xlink:href="#SourceSansPro-Regular-30"/></g></g><g id="ytick_4"><path clip-path="url(#p1097783663)" d="M47.33 211.7h669.6" fill="none" stroke="#8fa7bf" stroke-linecap="square" stroke-width=".5" id="line2d_13"/><g transform="matrix(.12 0 0 -.12 25.4 214.75)" id="text_13"><use xlink:href="#SourceSansPro-Regular-31"/><use x="49.7" xlink:href="#SourceSansPro-Regular-35"/></g></g><g id="ytick_5"><path clip-path="url(#p1097783663)" d="M47.33 175.7h669.6" fill="none" stroke="#8fa7bf" stroke-linecap="square" stroke-width=".5" id="line2d_14"/><g id="text_14"><defs><path d="M4 0h41.2v7.1H26.7c-3.3 0-7.2-.3-10.7-.6 15.1 15.8 26 27.7 26 39.7C42 57.5 34.7 65 22.9 65c-8.3 0-14-3.9-19.3-9.7l4.7-4.7c3.7 4.3 8.3 7.7 13.6 7.7C30 58.3 34 53.1 34 45.8 34 35.5 23.2 24 4 4.9z" id="SourceSansPro-Regular-32"/></defs><g transform="matrix(.12 0 0 -.12 25.4 178.75)"><use xlink:href="#SourceSansPro-Regular-32"/><use x="49.7" xlink:href="#SourceSansPro-Regular-30"/></g></g></g><g id="ytick_6"><path clip-path="url(#p1097783663)" d="M47.33 139.7h669.6" fill="none" stroke="#8fa7bf" stroke-linecap="square" stroke-width=".5" id="line2d_15"/><g transform="matrix(.12 0 0 -.12 25.4 142.75)" id="text_15"><use xlink:href="#SourceSansPro-Regular-32"/><use x="49.7" xlink:href="#SourceSansPro-Regular-35"/></g></g><g id="ytick_7"><path clip-path="url(#p1097783663)" d="M47.33 103.7h669.6" fill="none" stroke="#8fa7bf" stroke-linecap="square" stroke-width=".5" id="line2d_16"/><g id="text_16"><defs><path d="M2.6 7.8c4.3-4.7 10.8-9 21-9 11.7 0 21 6.9 21 18.2 0 8.8-6.1 14.4-13.8 16.2v.4c6.9 2.6 11.6 7.5 11.6 15.2 0 10.3-8 16.2-19.1 16.2-7.5 0-13.4-3.4-18.3-8l4.4-5.2c3.8 3.8 8.3 6.5 13.6 6.5 6.8 0 11-3.9 11-10.1 0-6.7-4.5-11.9-18.1-11.9V30c15.2 0 20.4-5.1 20.4-12.7 0-7.1-5.5-11.7-13.2-11.7-7.5 0-12.5 3.6-16.3 7.6z" id="SourceSansPro-Regular-33"/></defs><g transform="matrix(.12 0 0 -.12 25.4 106.75)"><use xlink:href="#SourceSansPro-Regular-33"/><use x="49.7" xlink:href="#SourceSansPro-Regular-30"/></g></g></g><g id="ytick_8"><path clip-path="url(#p1097783663)" d="M47.33 67.7h669.6" fill="none" stroke="#8fa7bf" stroke-linecap="square" stroke-width=".5" id="line2d_17"/><g transform="matrix(.12 0 0 -.12 25.4 70.75)" id="text_17"><use xlink:href="#SourceSansPro-Regular-33"/><use x="49.7" xlink:href="#SourceSansPro-Regular-35"/></g></g><g id="ytick_9"><path clip-path="url(#p1097783663)" d="M47.33 31.7h669.6" fill="none" stroke="#8fa7bf" stroke-linecap="square" stroke-width=".5" id="line2d_18"/><g transform="matrix(.12 0 0 -.12 25.4 34.75)" id="text_18"><use xlink:href="#SourceSansPro-Regular-34"/><use x="49.7" xlink:href="#SourceSansPro-Regular-30"/></g></g><g id="text_19"><defs><path d="M9.6 15c0-9.6 3.5-16.2 13.9-16.2 3 0 6.3.9 9 1.8l-1.6 6.2c-1.6-.6-3.8-1.3-5.5-1.3-5.6 0-7.5 3.4-7.5 9.4v27H31v6.7H17.9v13.6H11l-1-13.6-7.6-.5v-6.2h7.2z" id="SourceSansPro-Regular-74"/><path d="M3.8-15.2l5.1-2.4c8.3 13.4 13.2 27.8 13.2 45.4 0 17.6-4.9 32-13.2 45.4l-5.1-2.4c7.7-12.7 11.5-27.8 11.5-43s-3.8-30.3-11.5-43" id="SourceSansPro-Regular-29"/><path d="M21.4-17.6l5.1 2.4C18.8-2.5 15 12.6 15 27.8s3.8 30.3 11.5 43l-5.1 2.4C13.1 59.8 8.2 45.4 8.2 27.8c0-17.6 4.9-32 13.2-45.4" id="SourceSansPro-Regular-28"/><path d="M5.2 32.8c0-21.4 12.2-34 28.7-34 8.4 0 14.8 3.5 20 9.5l-4.7 5.1C45 8.7 40.4 6.1 34.1 6.1 21.7 6.1 13.8 16.5 13.8 33c0 16.3 8.2 26.5 20.7 26.5 5.5 0 9.7-2.4 13.1-6.1l4.7 5.3c-3.8 4.3-10 8.1-17.9 8.1-16.8 0-29.2-12.9-29.2-34" id="SourceSansPro-Regular-43"/><path d="M4.6 24.2C4.6 8.1 15.2-1.2 27.1-1.2s22.5 9.3 22.5 25.4c0 16.3-10.6 25.6-22.5 25.6S4.6 40.5 4.6 24.2m8.5 0c0 11.2 5.7 18.8 14 18.8 8.4 0 14-7.6 14-18.8 0-11.1-5.6-18.6-14-18.6-8.3 0-14 7.5-14 18.6" id="SourceSansPro-Regular-6f"/><path d="M17.2 7.1v.4c4 4.1 6.2 8.4 6.2 15.4 0 2-.2 3.8-.5 5.6h14.6v5.6H21.6c-1.2 4.2-2.4 8.1-2.4 12.3 0 6.9 3.9 11.7 11.1 11.7 4.5 0 7.6-2.2 10.1-5.3l4.8 4.7c-3.5 4.3-8.4 7.5-15.5 7.5-11.1 0-18.6-7.1-18.6-18.4 0-4.2 1.4-8.3 2.7-12.5H12l-6.7-.4v-5.2h10c.4-1.8.7-3.6.7-5.5 0-7.5-3.8-14.3-10.6-18V0h39.9v7.1z" id="SourceSansPro-Regular-a3"/><path d="M2.8 5.5C7.4 1.7 14-1.2 20.9-1.2c11.5 0 17.8 6.6 17.8 14.5 0 9.2-7.8 12.1-14.8 14.7-5.5 2.1-10.8 3.8-10.8 8.4 0 3.7 2.8 7 8.9 7 4.3 0 7.8-1.8 11.1-4.3l3.9 5.2c-3.7 3-9 5.5-15.1 5.5-10.5 0-16.7-6-16.7-13.8 0-8.2 7.6-11.5 14.5-14 5.3-2 11.1-4.2 11.1-9.2 0-4.2-3.2-7.6-9.6-7.6-5.8 0-10.1 2.4-14.3 5.8z" id="SourceSansPro-Regular-73"/></defs><g transform="matrix(0 -.144 -.144 0 17.45 198.56)"><use xlink:href="#SourceSansPro-Regular-43"/><use x="57.1" xlink:href="#SourceSansPro-Regular-6f"/><use x="111.3" xlink:href="#SourceSansPro-Regular-73"/><use x="153.2" xlink:href="#SourceSansPro-Regular-74"/><use x="187" xlink:href="#SourceSansPro-Regular-20"/><use x="207.2" xlink:href="#SourceSansPro-Regular-28"/><use x="237.5" xlink:href="#SourceSansPro-Regular-a3"/><use x="287.2" xlink:href="#SourceSansPro-Regular-29"/></g></g></g><path clip-path="url(#p1097783663)" d="M47.33 247.7h669.6" fill="none" stroke="#607080" stroke-linecap="square" stroke-width=".75" id="line2d_19"/><path clip-path="url(#p1097783663)" d="M47.33 211.7h669.6" fill="none" stroke="#607080" stroke-linecap="square" stroke-width=".75" id="line2d_20"/><g id="line2d_21"><defs><path d="M0 1.5a1.5 1.5 0 1 0 0-3 1.5 1.5 0 0 0 0 3z" id="m919c02fa7a"/></defs><g clip-path="url(#p1097783663)" fill="#1369bf"><use x="57.41" xlink:href="#m919c02fa7a" y="130.34"/><use x="63.82" xlink:href="#m919c02fa7a" y="112.34"/><use x="70.23" xlink:href="#m919c02fa7a" y="138.98"/><use x="76.65" xlink:href="#m919c02fa7a" y="169.94"/><use x="83.06" xlink:href="#m919c02fa7a" y="141.86"/><use x="89.47" xlink:href="#m919c02fa7a" y="160.94"/><use x="95.88" xlink:href="#m919c02fa7a" y="200.9"/><use x="102.29" xlink:href="#m919c02fa7a" y="168.5"/><use x="108.71" xlink:href="#m919c02fa7a" y="39.62"/><use x="115.12" xlink:href="#m919c02fa7a" y="179.3"/><use x="121.53" xlink:href="#m919c02fa7a" y="138.26"/><use x="127.94" xlink:href="#m919c02fa7a" y="179.3"/><use x="134.35" xlink:href="#m919c02fa7a" y="182.9"/><use x="140.77" xlink:href="#m919c02fa7a" y="108.02"/><use x="147.18" xlink:href="#m919c02fa7a" y="200.9"/><use x="153.59" xlink:href="#m919c02fa7a" y="298.1"/><use x="160" xlink:href="#m919c02fa7a" y="169.94"/><use x="166.41" xlink:href="#m919c02fa7a" y="234.74"/><use x="172.83" xlink:href="#m919c02fa7a" y="184.34"/><use x="179.24" xlink:href="#m919c02fa7a" y="179.3"/><use x="185.65" xlink:href="#m919c02fa7a" y="221.06"/><use x="192.06" xlink:href="#m919c02fa7a" y="227.54"/><use x="198.47" xlink:href="#m919c02fa7a" y="149.78"/><use x="204.89" xlink:href="#m919c02fa7a" y="211.7"/><use x="211.3" xlink:href="#m919c02fa7a" y="298.1"/><use x="217.71" xlink:href="#m919c02fa7a" y="177.86"/><use x="224.12" xlink:href="#m919c02fa7a" y="200.9"/><use x="230.54" xlink:href="#m919c02fa7a" y="190.1"/><use x="236.95" xlink:href="#m919c02fa7a" y="194.42"/><use x="243.36" xlink:href="#m919c02fa7a" y="234.02"/><use x="249.77" xlink:href="#m919c02fa7a" y="228.26"/><use x="256.18" xlink:href="#m919c02fa7a" y="218.18"/><use x="262.6" xlink:href="#m919c02fa7a" y="235.46"/><use x="269.01" xlink:href="#m919c02fa7a" y="278.66"/><use x="275.42" xlink:href="#m919c02fa7a" y="221.06"/><use x="281.83" xlink:href="#m919c02fa7a" y="305.3"/><use x="288.24" xlink:href="#m919c02fa7a" y="319.7"/><use x="294.66" xlink:href="#m919c02fa7a" y="183.62"/><use x="301.07" xlink:href="#m919c02fa7a" y="170.66"/><use x="307.48" xlink:href="#m919c02fa7a" y="211.7"/><use x="313.89" xlink:href="#m919c02fa7a" y="206.66"/><use x="320.3" xlink:href="#m919c02fa7a" y="279.02"/><use x="326.72" xlink:href="#m919c02fa7a" y="319.7"/><use x="333.13" xlink:href="#m919c02fa7a" y="236.9"/><use x="339.54" xlink:href="#m919c02fa7a" y="247.7"/><use x="345.95" xlink:href="#m919c02fa7a" y="197.66"/><use x="352.36" xlink:href="#m919c02fa7a" y="262.1"/><use x="358.78" xlink:href="#m919c02fa7a" y="252.74"/><use x="365.19" xlink:href="#m919c02fa7a" y="262.1"/><use x="371.6" xlink:href="#m919c02fa7a" y="243.38"/><use x="378.01" xlink:href="#m919c02fa7a" y="319.7"/><use x="384.42" xlink:href="#m919c02fa7a" y="224.66"/><use x="390.84" xlink:href="#m919c02fa7a" y="190.82"/><use x="397.25" xlink:href="#m919c02fa7a" y="206.66"/><use x="403.66" xlink:href="#m919c02fa7a" y="255.98"/><use x="410.07" xlink:href="#m919c02fa7a" y="234.38"/><use x="416.48" xlink:href="#m919c02fa7a" y="247.7"/><use x="422.9" xlink:href="#m919c02fa7a" y="188.66"/><use x="429.31" xlink:href="#m919c02fa7a" y="228.26"/><use x="435.72" xlink:href="#m919c02fa7a" y="247.7"/><use x="442.13" xlink:href="#m919c02fa7a" y="230.78"/><use x="448.54" xlink:href="#m919c02fa7a" y="319.7"/><use x="454.96" xlink:href="#m919c02fa7a" y="319.7"/><use x="461.37" xlink:href="#m919c02fa7a" y="319.7"/><use x="467.78" xlink:href="#m919c02fa7a" y="239.42"/><use x="474.19" xlink:href="#m919c02fa7a" y="176.78"/><use x="480.6" xlink:href="#m919c02fa7a" y="290.9"/><use x="487.02" xlink:href="#m919c02fa7a" y="263.18"/><use x="493.43" xlink:href="#m919c02fa7a" y="250.94"/><use x="499.84" xlink:href="#m919c02fa7a" y="247.7"/><use x="506.25" xlink:href="#m919c02fa7a" y="233.3"/><use x="512.66" xlink:href="#m919c02fa7a" y="208.46"/><use x="519.08" xlink:href="#m919c02fa7a" y="287.3"/><use x="525.49" xlink:href="#m919c02fa7a" y="319.7"/><use x="531.9" xlink:href="#m919c02fa7a" y="233.3"/><use x="538.31" xlink:href="#m919c02fa7a" y="133.94"/><use x="544.72" xlink:href="#m919c02fa7a" y="204.5"/><use x="551.14" xlink:href="#m919c02fa7a" y="41.78"/><use x="557.55" xlink:href="#m919c02fa7a" y="234.74"/><use x="563.96" xlink:href="#m919c02fa7a" y="99.38"/><use x="570.37" xlink:href="#m919c02fa7a" y="149.78"/><use x="576.79" xlink:href="#m919c02fa7a" y="192.98"/><use x="583.2" xlink:href="#m919c02fa7a" y="166.34"/><use x="589.61" xlink:href="#m919c02fa7a" y="192.98"/><use x="596.02" xlink:href="#m919c02fa7a" y="174.26"/><use x="602.43" xlink:href="#m919c02fa7a" y="51.14"/><use x="608.85" xlink:href="#m919c02fa7a" y="144.74"/><use x="615.26" xlink:href="#m919c02fa7a" y="67.7"/><use x="621.67" xlink:href="#m919c02fa7a" y="319.7"/><use x="628.08" xlink:href="#m919c02fa7a" y="246.98"/><use x="634.49" xlink:href="#m919c02fa7a" y="115.22"/><use x="640.91" xlink:href="#m919c02fa7a" y="298.1"/><use x="647.32" xlink:href="#m919c02fa7a" y="214.58"/><use x="653.73" xlink:href="#m919c02fa7a" y="240.5"/><use x="660.14" xlink:href="#m919c02fa7a" y="287.3"/><use x="666.55" xlink:href="#m919c02fa7a" y="254.9"/><use x="672.97" xlink:href="#m919c02fa7a" y="145.46"/><use x="679.38" xlink:href="#m919c02fa7a" y="197.3"/><use x="685.79" xlink:href="#m919c02fa7a" y="298.1"/><use x="692.2" xlink:href="#m919c02fa7a" y="264.98"/><use x="698.61" xlink:href="#m919c02fa7a" y="298.1"/><use x="705.03" xlink:href="#m919c02fa7a" y="302.42"/></g></g><path clip-path="url(#p1097783663)" d="M102.3 152.98l6.4-11.34 6.42 8.37 6.41-.1 6.41 1.18 6.41 5.13 6.42-6.62h6.4l6.42 16.2 6.41 16.3 6.41 6.92 6.42 5.76h6.4l6.42 4.77 6.41 14.94 6.41-6.39 6.42-10.8 6.4 16.02 6.42-7.1 6.41 2.06 6.42 1.35 6.4-3.33 6.42.81 6.41 9.81 6.41.81 6.42-7.83 6.4 12.6 6.42 2.52 6.41 14.4 6.41 15.66 6.42-6.3 6.4-7.2 6.42-.8 6.41-3.6 6.41.04 6.42 12.33 6.4-8.55 6.42-9 6.41 1.75 6.41 11.43 6.42 5.13 6.4 6.93 6.42-4.45h6.41l6.41-1.53 6.42-7.11 6.4 1.12 6.42-.76 6.41-2.3 6.41-1.8 6.42-6.84 6.4-11.43 6.42 2.88 6.41 5 6.41 14.13 6.42 7.96 6.4 10.67 6.42-1.04 6.41-1.48 6.41 7.83 6.42 1.93 6.4 2.52 6.42-9 6.41-10.8 6.41-13.9 6.42 5.98 6.4 17.87 6.42-7.2 6.41-16.16 6.41-5.8 6.42-25.74 6.4.18 6.42-13.64 6.41-17.19 6.42-15.84 6.4-8.37 6.42 7.38 6.41-3.78 6.41 1.17 6.42-11.25 6.4-3.96 6.42 21.24 6.41 6.75 6.41-6.39 6.42 13.14 6.4 5.04 6.42 23.67 6.41 17.82 6.41 23.4 6.42-21.78 6.4-6.2 6.42 22.85 6.41-4.14 6.41 10.44 6.42 7.74" fill="none" stroke="#bd3338" stroke-linecap="square" stroke-width="2" id="line2d_22"/><g id="text_20"><defs><path d="M8.2 0h8.2v35.2c4.5 5 8.6 7.5 12.2 7.5 6.2 0 9.1-3.9 9.1-13V0h8.2v35.2c4.5 5 8.4 7.5 12.2 7.5 6.1 0 9-3.9 9-13V0h8.2v30.8c0 12.4-4.8 19-14.8 19-5.9 0-10.9-3.8-16-9.3-2 5.8-6 9.3-13.4 9.3-5.8 0-10.9-3.6-15.1-8.2h-.3l-.7 7H8.2z" id="SourceSansPro-Regular-6d"/><path d="M15.9 0h9.6l6.8 26c1.3 4.6 2.3 9.2 3.4 14.1h.4c1.2-4.9 2.1-9.4 3.3-14l7-26.1h10l13 48.6h-7.8l-7.1-28.1c-1-4.6-1.9-9-3-13.5h-.4c-1.1 4.5-2.2 8.9-3.4 13.5l-7.6 28.1h-8l-7.5-28.1c-1.2-4.5-2.2-9-3.3-13.5h-.4c-.9 4.5-1.8 8.9-2.9 13.5l-7.2 28.1H2.4z" id="SourceSansPro-Regular-77"/><path d="M1.4 0H10l6.6 11.3c1.6 3 3.2 5.9 4.9 8.7h.4c1.8-2.8 3.6-5.8 5.3-8.7L34.3 0h8.9L27.4 24.5l14.7 24.1h-8.6l-5.9-10.7c-1.5-2.6-3-5.4-4.4-8.1h-.4c-1.7 2.7-3.3 5.5-4.8 8.1l-6.5 10.7H2.6l14.7-23.2z" id="SourceSansPro-Regular-78"/><path d="M4.7 24.2C4.7 8 12.6-1.2 24.8-1.2c5.7 0 10.9 3.2 14.7 6.9h.3l.7-5.7h6.8v71.2H39V52.5l.4-8.3c-4.3 3.5-8 5.6-13.6 5.6-11.1 0-21.1-9.8-21.1-25.6m8.5.1c0 11.1 6.2 18.6 14 18.6 4 0 7.7-1.4 11.8-5.1V12.4c-4-4.5-7.9-6.7-12.4-6.7-8.5 0-13.4 7-13.4 18.6" id="SourceSansPro-Regular-64"/><path d="M8.2 9.8c0-7.1 2.5-11 8.7-11 2.2 0 3.6.3 4.7.8l-1.1 6.2c-.9-.2-1.3-.2-1.8-.2-1.2 0-2.3 1-2.3 3.6v62H8.2z" id="SourceSansPro-Regular-6c"/><path d="M12.4 58.6c3.2 0 5.7 2.2 5.7 5.3 0 3.2-2.5 5.3-5.7 5.3s-5.7-2.1-5.7-5.3c0-3.1 2.5-5.3 5.7-5.3M8.2 0h8.2v48.6H8.2z" id="SourceSansPro-Regular-69"/><path d="M16.2 0h9.9l9.7 39.5c1.1 5.1 2.3 9.8 3.3 14.9h.4c1-5.1 2-9.8 3.2-14.9L52.6 0h10l13.6 65.6h-8l-6.9-35.7c-1.3-7-2.5-14.1-3.7-21.2h-.4C55.6 15.8 54 23 52.4 29.9l-9.1 35.7h-7.6l-9.1-35.7c-1.5-7-3.1-14.1-4.6-21.2h-.4c-1.2 7.1-2.6 14.1-3.8 21.2l-6.9 35.7H2.3z" id="SourceSansPro-Regular-57"/><path d="M18.7 0h9.6l17.2 48.6h-8.1L28.2 21c-1.4-4.8-3-9.7-4.4-14.3h-.4c-1.5 4.6-3.1 9.5-4.5 14.3L9.7 48.6H1.2z" id="SourceSansPro-Regular-76"/><path d="M4.1 21.9h23v6.3h-23z" id="SourceSansPro-Regular-2d"/><path d="M11.7-8.2c0 2.8 1.5 5.7 5 8.2 2.1-.6 4.4-.8 6.3-.8h8.4c6.3 0 9.8-1.5 9.8-6 0-5.1-6.1-9.9-15.4-9.9-8.8 0-14.1 3.3-14.1 8.5M4.5-9.3c0-8.4 8.2-13.1 20.1-13.1 15.1 0 24.6 7.8 24.6 16.8 0 8.1-5.7 11.6-17 11.6h-9.4c-6.6 0-8.6 2.2-8.6 5.3 0 2.7 1.4 4.3 3.1 5.8 2.2-1.1 4.9-1.7 7.3-1.7 9.9 0 17.8 6.5 17.8 16.9 0 4.1-1.7 7.8-4 10h10v6.3H31.5c-1.8.7-4.2 1.2-6.9 1.2-9.9 0-18.3-6.7-18.3-17.3 0-5.8 3.1-10.5 6.3-13.1V19c-2.5-1.7-5.3-4.9-5.3-9a9 9 0 0 1 4.3-7.9v-.4c-4.4-3-7.1-6.9-7.1-11m20.1 30.2c-5.6 0-10.3 4.5-10.3 11.6s4.6 11.3 10.3 11.3c5.7 0 10.3-4.2 10.3-11.3 0-7.1-4.7-11.6-10.3-11.6" id="SourceSansPro-Regular-67"/><path d="M8.2 0h8.1v12.8l9.1 10.6L39.6 0h9L30.1 29.1l16.3 19.5h-9.1L16.6 23h-.3v48.2H8.2z" id="SourceSansPro-Regular-6b"/><path d="M4.9-13.4l-1.6-6.5c1.6-.6 3.5-1 5.7-1 9.8 0 14.8 7.3 18.2 16.9l18.3 52.6h-8l-8.7-26.9c-1.3-4.3-2.7-9.3-4.1-13.7h-.4c-1.5 4.5-3.2 9.5-4.7 13.7L9.7 48.6H1.2L20.7-.1l-1.1-3.6c-2-6-5.5-10.4-11-10.4-1.2 0-2.7.4-3.7.7" id="SourceSansPro-Regular-79"/></defs><g transform="matrix(.1728 0 0 -.1728 177.1 19.5)"><use xlink:href="#SourceSansPro-Regular-57"/><use x="78.6" xlink:href="#SourceSansPro-Regular-65"/><use x="128.2" xlink:href="#SourceSansPro-Regular-65"/><use x="177.8" xlink:href="#SourceSansPro-Regular-6b"/><use x="227.3" xlink:href="#SourceSansPro-Regular-6c"/><use x="252.8" xlink:href="#SourceSansPro-Regular-79"/><use x="299.5" xlink:href="#SourceSansPro-Regular-20"/><use x="319.7" xlink:href="#SourceSansPro-Regular-74"/><use x="353.5" xlink:href="#SourceSansPro-Regular-72"/><use x="388.2" xlink:href="#SourceSansPro-Regular-61"/><use x="439.4" xlink:href="#SourceSansPro-Regular-6e"/><use x="494.1" xlink:href="#SourceSansPro-Regular-73"/><use x="536" xlink:href="#SourceSansPro-Regular-70"/><use x="591.5" xlink:href="#SourceSansPro-Regular-6f"/><use x="645.7" xlink:href="#SourceSansPro-Regular-72"/><use x="680.4" xlink:href="#SourceSansPro-Regular-74"/><use x="714.2" xlink:href="#SourceSansPro-Regular-20"/><use x="734.4" xlink:href="#SourceSansPro-Regular-73"/><use x="776.3" xlink:href="#SourceSansPro-Regular-70"/><use x="831.8" xlink:href="#SourceSansPro-Regular-65"/><use x="881.4" xlink:href="#SourceSansPro-Regular-6e"/><use x="936.1" xlink:href="#SourceSansPro-Regular-64"/><use x="991.6" xlink:href="#SourceSansPro-Regular-69"/><use x="1016.2" xlink:href="#SourceSansPro-Regular-6e"/><use x="1070.9" xlink:href="#SourceSansPro-Regular-67"/><use x="1121.3" xlink:href="#SourceSansPro-Regular-20"/><use x="1141.5" xlink:href="#SourceSansPro-Regular-61"/><use x="1192.7" xlink:href="#SourceSansPro-Regular-6e"/><use x="1247.4" xlink:href="#SourceSansPro-Regular-64"/><use x="1302.9" xlink:href="#SourceSansPro-Regular-20"/><use x="1323.1" xlink:href="#SourceSansPro-Regular-73"/><use x="1365" xlink:href="#SourceSansPro-Regular-69"/><use x="1389.6" xlink:href="#SourceSansPro-Regular-78"/><use x="1434.2" xlink:href="#SourceSansPro-Regular-2d"/><use x="1465.3" xlink:href="#SourceSansPro-Regular-77"/><use x="1537.1" xlink:href="#SourceSansPro-Regular-65"/><use x="1586.7" xlink:href="#SourceSansPro-Regular-65"/><use x="1636.3" xlink:href="#SourceSansPro-Regular-6b"/><use x="1685.8" xlink:href="#SourceSansPro-Regular-20"/><use x="1706" xlink:href="#SourceSansPro-Regular-6d"/><use x="1788.9" xlink:href="#SourceSansPro-Regular-6f"/><use x="1843.1" xlink:href="#SourceSansPro-Regular-76"/><use x="1889.8" xlink:href="#SourceSansPro-Regular-69"/><use x="1914.4" xlink:href="#SourceSansPro-Regular-6e"/><use x="1969.1" xlink:href="#SourceSansPro-Regular-67"/><use x="2019.5" xlink:href="#SourceSansPro-Regular-20"/><use x="2039.7" xlink:href="#SourceSansPro-Regular-61"/><use x="2090.9" xlink:href="#SourceSansPro-Regular-76"/><use x="2137.6" xlink:href="#SourceSansPro-Regular-65"/><use x="2187.2" xlink:href="#SourceSansPro-Regular-72"/><use x="2221.9" xlink:href="#SourceSansPro-Regular-61"/><use x="2273.1" xlink:href="#SourceSansPro-Regular-67"/><use x="2323.5" xlink:href="#SourceSansPro-Regular-65"/></g></g></g></g><defs><clipPath id="p1097783663"><path d="M47.33 31.7h669.6v288H47.33z"/></clipPath></defs></svg>