<svg height="484pt" viewBox="0 0 618 484" width="824" xmlns="http://www.w3.org/2000/svg" xmlns:xlink="http://www.w3.org/1999/xlink"><defs><style>*{stroke-linecap:butt;stroke-linejoin:round;stroke-miterlimit:100000}</style></defs><g id="figure_1"><path d="M0 484.37h618.73V0H0v484.37z" fill="none" id="patch_1"/><g id="axes_1"><path d="M53.53 437.78h558V34.58h-558v403.2z" fill="none" id="patch_2"/><g id="matplotlib.axis_1"><g id="xtick_1"><g id="line2d_1"><defs><path d="M0 0v-6" id="md98a7db69c"/></defs><use x="66.82" xlink:href="#md98a7db69c" y="437.78"/></g><g id="line2d_2"><defs><path d="M0 0v6" id="m8b010facb1"/></defs><use x="66.82" xlink:href="#m8b010facb1" y="34.58"/></g><g id="text_1"><defs><path d="M24.9-1.2c12.7 0 20.4 11.9 20.4 33.3S37.6 65 24.9 65C12.1 65 4.4 53.5 4.4 32.1S12.1-1.2 24.9-1.2m0 6.6c-7.5 0-12.5 8-12.5 26.7s5 26.3 12.5 26.3c7.4 0 12.4-7.6 12.4-26.3 0-18.7-5-26.7-12.4-26.7" id="SourceSansPro-Regular-30"/></defs><use xlink:href="#SourceSansPro-Regular-30" transform="matrix(.12 0 0 -.12 63.83 456.33)"/></g></g><g id="xtick_2"><use x="119.96" xlink:href="#md98a7db69c" y="437.78" id="line2d_3"/><use x="119.96" xlink:href="#m8b010facb1" y="34.58" id="line2d_4"/><g id="text_2"><defs><path d="M7.9 0h36v6.8H30.7v57h-6.3c-3.5-2.1-7.7-3.7-13.5-4.7v-5.3h11.6v-47H7.9z" id="SourceSansPro-Regular-31"/></defs><use xlink:href="#SourceSansPro-Regular-31" transform="matrix(.12 0 0 -.12 116.98 456.33)"/></g></g><g id="xtick_3"><use x="173.1" xlink:href="#md98a7db69c" y="437.78" id="line2d_5"/><use x="173.1" xlink:href="#m8b010facb1" y="34.58" id="line2d_6"/><g id="text_3"><defs><path d="M4 0h41.2v7.1H26.7c-3.3 0-7.2-.3-10.7-.6 15.1 15.8 26 27.7 26 39.7C42 57.5 34.7 65 22.9 65c-8.3 0-14-3.9-19.3-9.7l4.7-4.7c3.7 4.3 8.3 7.7 13.6 7.7C30 58.3 34 53.1 34 45.8 34 35.5 23.2 24 4 4.9z" id="SourceSansPro-Regular-32"/></defs><use xlink:href="#SourceSansPro-Regular-32" transform="matrix(.12 0 0 -.12 170.12 456.33)"/></g></g><g id="xtick_4"><use x="226.24" xlink:href="#md98a7db69c" y="437.78" id="line2d_7"/><use x="226.24" xlink:href="#m8b010facb1" y="34.58" id="line2d_8"/><g id="text_4"><defs><path d="M2.6 7.8c4.3-4.7 10.8-9 21-9 11.7 0 21 6.9 21 18.2 0 8.8-6.1 14.4-13.8 16.2v.4c6.9 2.6 11.6 7.5 11.6 15.2 0 10.3-8 16.2-19.1 16.2-7.5 0-13.4-3.4-18.3-8l4.4-5.2c3.8 3.8 8.3 6.5 13.6 6.5 6.8 0 11-3.9 11-10.1 0-6.7-4.5-11.9-18.1-11.9V30c15.2 0 20.4-5.1 20.4-12.7 0-7.1-5.5-11.7-13.2-11.7-7.5 0-12.5 3.6-16.3 7.6z" id="SourceSansPro-Regular-33"/></defs><use xlink:href="#SourceSansPro-Regular-33" transform="matrix(.12 0 0 -.12 223.26 456.33)"/></g></g><g id="xtick_5"><use x="279.39" xlink:href="#md98a7db69c" y="437.78" id="line2d_9"/><use x="279.39" xlink:href="#m8b010facb1" y="34.58" id="line2d_10"/><g id="text_5"><defs><path d="M10.4 24.2L25.3 46c1.8 3.1 3.6 5.9 5.2 9h.4c-.2-3.4-.5-8.9-.5-12.3V24.2zm36.5 0h-8.7v39.6H29L1.7 23v-5.4h28.7V0h7.8v17.6h8.7z" id="SourceSansPro-Regular-34"/></defs><use xlink:href="#SourceSansPro-Regular-34" transform="matrix(.12 0 0 -.12 276.4 456.33)"/></g></g><g id="xtick_6"><use x="332.53" xlink:href="#md98a7db69c" y="437.78" id="line2d_11"/><use x="332.53" xlink:href="#m8b010facb1" y="34.58" id="line2d_12"/><g id="text_6"><defs><path d="M2.5 7.5c4.4-4.4 10.7-8.7 20.9-8.7 11.1 0 21.5 7.8 21.5 21.6s-8.9 20-19.8 20c-3.9 0-6.8-1-9.8-2.6L17 56.7h24.7v7.1H9.8L7.7 33.1l4.4-2.8c3.8 2.5 6.5 3.9 10.9 3.9 8.2 0 13.6-5.2 13.6-14 0-8.9-6.2-14.6-14-14.6-7.5 0-12.3 3.5-16.1 7.3z" id="SourceSansPro-Regular-35"/></defs><use xlink:href="#SourceSansPro-Regular-35" transform="matrix(.12 0 0 -.12 329.55 456.33)"/></g></g><g id="xtick_7"><use x="385.67" xlink:href="#md98a7db69c" y="437.78" id="line2d_13"/><use x="385.67" xlink:href="#m8b010facb1" y="34.58" id="line2d_14"/><g id="text_7"><defs><path d="M26.8 5.3c-8.1 0-13 6.7-14 19.1 4.3 6 9.3 8.4 13.3 8.4 7.9 0 11.8-5.2 11.8-13.5 0-8.4-4.8-14-11.1-14m17.7 52.9C40.9 62.1 36 65 29.1 65 16.4 65 4.8 55.1 4.8 29.5c0-20.5 9.5-30.7 22-30.7 10.3 0 18.9 8.3 18.9 20.5 0 13.1-7.2 19.7-18.2 19.7-5.2 0-10.9-3.1-14.9-8 .4 20.2 7.9 27.1 16.8 27.1 4 0 7.9-1.9 10.5-5z" id="SourceSansPro-Regular-36"/></defs><use xlink:href="#SourceSansPro-Regular-36" transform="matrix(.12 0 0 -.12 382.7 456.33)"/></g></g><g id="xtick_8"><use x="438.82" xlink:href="#md98a7db69c" y="437.78" id="line2d_15"/><use x="438.82" xlink:href="#m8b010facb1" y="34.58" id="line2d_16"/><g id="text_8"><defs><path d="M17.7 0h8.5c1.1 24.9 4.2 39.4 19.3 58.7v5.1H4.4v-7.1h31.8C23.6 39.2 18.8 24 17.7 0" id="SourceSansPro-Regular-37"/></defs><use xlink:href="#SourceSansPro-Regular-37" transform="matrix(.12 0 0 -.12 435.83 456.33)"/></g></g><g id="xtick_9"><use x="491.96" xlink:href="#md98a7db69c" y="437.78" id="line2d_17"/><use x="491.96" xlink:href="#m8b010facb1" y="34.58" id="line2d_18"/><g id="text_9"><defs><path d="M11.5 17.1c0 5.8 3.8 10.5 8.9 13.9 9.2-3.7 17.3-6.7 17.3-14.9 0-6.6-5.1-11.2-12.5-11.2-7.8 0-13.7 5.1-13.7 12.2m18 17.7c-7.7 3-14.7 6.2-14.7 13.8 0 6.2 4.4 10.3 10.3 10.3 7 0 11.1-5 11.1-11.3 0-4.7-2.4-9-6.7-12.8M4.1 16.3C4.1 6.2 13-1.2 25-1.2c12.4 0 20.6 7.5 20.6 17 0 8.6-5.4 13.1-11.1 16.4v.4c3.9 3 8.8 8.7 8.8 15.4 0 9.9-6.9 17-18 17C15 65 7.2 58.4 7.2 48.6c0-6.7 4.2-11.4 8.9-14.7v-.4c-6-3.2-12-8.9-12-17.2" id="SourceSansPro-Regular-38"/></defs><use xlink:href="#SourceSansPro-Regular-38" transform="matrix(.12 0 0 -.12 488.98 456.33)"/></g></g><g id="xtick_10"><use x="545.1" xlink:href="#md98a7db69c" y="437.78" id="line2d_19"/><use x="545.1" xlink:href="#m8b010facb1" y="34.58" id="line2d_20"/><g id="text_10"><defs><path d="M23.5 31c-7.9 0-11.8 5.2-11.8 13.5 0 8.4 4.9 14 11.1 14 8.1 0 13-6.6 14.1-19-4.3-6.1-9.3-8.5-13.4-8.5M5.1 5.5c3.5-3.8 8.6-6.7 15.4-6.7 12.7 0 24.3 9.9 24.3 35.5 0 20.5-9.4 30.7-22 30.7C12.6 65 4 56.7 4 44.5c0-13.1 7.1-19.7 18.1-19.7 5.3 0 11 3.1 15 8.2-.3-20.4-7.9-27.4-16.9-27.4-4 0-7.9 2-10.5 5.1z" id="SourceSansPro-Regular-39"/></defs><use xlink:href="#SourceSansPro-Regular-39" transform="matrix(.12 0 0 -.12 542.12 456.33)"/></g></g><g id="xtick_11"><use x="598.24" xlink:href="#md98a7db69c" y="437.78" id="line2d_21"/><use x="598.24" xlink:href="#m8b010facb1" y="34.58" id="line2d_22"/><g transform="matrix(.12 0 0 -.12 592.28 456.33)" id="text_11"><use xlink:href="#SourceSansPro-Regular-31"/><use x="49.7" xlink:href="#SourceSansPro-Regular-30"/></g></g><g id="text_12"><defs><path d="M4.6 24.2C4.6 8.1 15.2-1.2 27.1-1.2s22.5 9.3 22.5 25.4c0 16.3-10.6 25.6-22.5 25.6S4.6 40.5 4.6 24.2m8.5 0c0 11.2 5.7 18.8 14 18.8 8.4 0 14-7.6 14-18.8 0-11.1-5.6-18.6-14-18.6-8.3 0-14 7.5-14 18.6" id="SourceSansPro-Regular-6f"/><path d="M5.8 12.6c0-8.7 6.1-13.8 14.3-13.8 6 0 11.4 3.2 16.1 7h.2l.7-5.8h6.8v29.8c0 12.1-5 20-16.9 20-7.8 0-14.6-3.4-19.1-6.3l3.3-5.7C15 40.4 20 43 25.7 43c7.9 0 10-6 10-12.2C15 28.5 5.8 23.2 5.8 12.6m8.1.6c0 6.2 5.5 10.2 21.8 12.2V11.9C31 7.7 27.1 5.4 22.4 5.4c-4.8 0-8.5 2.3-8.5 7.8" id="SourceSansPro-Regular-61"/><path d="M18.7 0h9.6l17.2 48.6h-8.1L28.2 21c-1.4-4.8-3-9.7-4.4-14.3h-.4c-1.5 4.6-3.1 9.5-4.5 14.3L9.7 48.6H1.2z" id="SourceSansPro-Regular-76"/><path d="M31.9 70.8c-2.2.9-5.1 1.6-8.1 1.6-9.7 0-14.2-6.2-14.2-16.1v-7.7L3 48.1v-6.2h6.6V0h8.2v41.9h10.3v6.7H17.8v7.7c0 6.2 2.2 9.4 6.8 9.4 1.8 0 3.7-.4 5.5-1.2z" id="SourceSansPro-Regular-66"/><path d="M8.2 0h8.2v31.2c3.3 8.2 8.2 11.2 12.3 11.2 2 0 3.1-.3 4.7-.8l1.6 7.2a12 12 0 0 1-5.2 1c-5.5 0-10.5-3.9-13.8-10h-.3l-.7 8.8H8.2z" id="SourceSansPro-Regular-72"/><path d="M8.2 0h8.2v35.2c4.9 4.9 8.3 7.5 13.3 7.5 6.4 0 9.2-3.9 9.2-13V0h8.2v30.8c0 12.4-4.6 19-14.8 19-6.7 0-11.6-3.6-16.2-8l.3 10v19.4H8.2z" id="SourceSansPro-Regular-68"/><path d="M8.2 9.8c0-7.1 2.5-11 8.7-11 2.2 0 3.6.3 4.7.8l-1.1 6.2c-.9-.2-1.3-.2-1.8-.2-1.2 0-2.3 1-2.3 3.6v62H8.2z" id="SourceSansPro-Regular-6c"/><path d="M4.6 24.2c0-16.1 9.9-25.4 22.8-25.4 5.8 0 11.4 2.4 15.8 6.3l-3.7 5.4c-2.9-2.6-6.8-4.9-11.4-4.9-8.9 0-15 7.5-15 18.6 0 11.2 6.4 18.8 15.2 18.8 3.9 0 6.9-1.8 9.8-4.3l4.1 5.3c-3.3 3.1-7.8 5.8-14.2 5.8-12.5 0-23.4-9.3-23.4-25.6" id="SourceSansPro-Regular-63"/><path d="M2.8 5.5C7.4 1.7 14-1.2 20.9-1.2c11.5 0 17.8 6.6 17.8 14.5 0 9.2-7.8 12.1-14.8 14.7-5.5 2.1-10.8 3.8-10.8 8.4 0 3.7 2.8 7 8.9 7 4.3 0 7.8-1.8 11.1-4.3l3.9 5.2c-3.7 3-9 5.5-15.1 5.5-10.5 0-16.7-6-16.7-13.8 0-8.2 7.6-11.5 14.5-14 5.3-2 11.1-4.2 11.1-9.2 0-4.2-3.2-7.6-9.6-7.6-5.8 0-10.1 2.4-14.3 5.8z" id="SourceSansPro-Regular-73"/><path d="M4.6 24.2C4.6 8.3 14.9-1.2 27.9-1.2c6.6 0 11.8 2.3 16 5L41 9.2c-3.6-2.3-7.5-3.8-12.1-3.8-9.3 0-15.6 6.6-16.2 17.1h32.8c.2 1.2.3 2.8.3 4.5 0 13.9-7 22.8-19.4 22.8-11.1 0-21.8-9.7-21.8-25.6m8 3.7c1 9.8 7.2 15.4 14 15.4 7.6 0 12-5.5 12-15.4z" id="SourceSansPro-Regular-65"/><path d="M6.7-17c8.1 3.4 13.1 10.1 13.1 18.7 0 6-2.6 9.7-6.9 9.7-3.3 0-6.1-2.2-6.1-5.8 0-3.7 2.7-5.7 5.9-5.7.3 0 .7 0 1 .1 0-5.4-3.4-9.7-9-12.2z" id="SourceSansPro-Regular-2c"/><path d="M4.1 21.9h23v6.3h-23z" id="SourceSansPro-Regular-2d"/><path d="M4.2 8.5c5.7-5.9 13.8-9.7 23-9.7 13.8 0 22.3 8.3 22.3 18.7 0 9.7-5.9 14.2-13.5 17.5l-9.3 4c-5.2 2.2-10.9 4.6-10.9 10.9 0 5.9 4.9 9.6 12.2 9.6 6.1 0 10.9-2.4 14.9-6.2l4.5 5.4c-4.7 4.8-11.6 8.1-19.4 8.1-11.9 0-20.6-7.4-20.6-17.4 0-9.6 7.1-14.3 13.3-16.9l9.4-4.1C36.3 25.6 41 23.5 41 16.8c0-6.4-5.1-10.7-13.7-10.7-6.8 0-13.4 3.3-18.1 8.2z" id="SourceSansPro-Regular-53"/><path d="M16.2 4.4c4.5-3.5 9-5.6 13.5-5.6 11.1 0 21 9.7 21 26.2 0 15.1-6.7 24.8-19.2 24.8-5.7 0-11.1-3.1-15.5-6.8h-.3l-.7 5.6H8.2v-69.1h8.2v16.4zm.2 6.4v25.5c4.8 4.3 8.9 6.6 13 6.6 9.2 0 12.8-7.2 12.8-17.9 0-12-5.9-19.3-13.9-19.3-3.2 0-7.5 1.4-11.9 5.1" id="SourceSansPro-Regular-70"/><path d="M8.2 0h8.2v35.2c4.9 4.9 8.3 7.5 13.3 7.5 6.4 0 9.2-3.9 9.2-13V0h8.2v30.8c0 12.4-4.6 19-14.8 19-6.7 0-11.7-3.6-16.3-8.2h-.3l-.7 7H8.2z" id="SourceSansPro-Regular-6e"/><path d="M9.6 15c0-9.6 3.5-16.2 13.9-16.2 3 0 6.3.9 9 1.8l-1.6 6.2c-1.6-.6-3.8-1.3-5.5-1.3-5.6 0-7.5 3.4-7.5 9.4v27H31v6.7H17.9v13.6H11l-1-13.6-7.6-.5v-6.2h7.2z" id="SourceSansPro-Regular-74"/><path d="M12.4 58.6c3.2 0 5.7 2.2 5.7 5.3 0 3.2-2.5 5.3-5.7 5.3s-5.7-2.1-5.7-5.3c0-3.1 2.5-5.3 5.7-5.3M8.2 0h8.2v48.6H8.2z" id="SourceSansPro-Regular-69"/></defs><g transform="matrix(.144 0 0 -.144 247.63 474.21)"><use xlink:href="#SourceSansPro-Regular-53"/><use x="53.4" xlink:href="#SourceSansPro-Regular-63"/><use x="99" xlink:href="#SourceSansPro-Regular-6f"/><use x="153.2" xlink:href="#SourceSansPro-Regular-72"/><use x="187.9" xlink:href="#SourceSansPro-Regular-65"/><use x="237.5" xlink:href="#SourceSansPro-Regular-2c"/><use x="262.4" xlink:href="#SourceSansPro-Regular-20"/><use x="282.6" xlink:href="#SourceSansPro-Regular-69"/><use x="307.2" xlink:href="#SourceSansPro-Regular-6e"/><use x="361.9" xlink:href="#SourceSansPro-Regular-20"/><use x="382.1" xlink:href="#SourceSansPro-Regular-68"/><use x="436.5" xlink:href="#SourceSansPro-Regular-61"/><use x="487.7" xlink:href="#SourceSansPro-Regular-6c"/><use x="513.2" xlink:href="#SourceSansPro-Regular-66"/><use x="542.4" xlink:href="#SourceSansPro-Regular-2d"/><use x="573.5" xlink:href="#SourceSansPro-Regular-70"/><use x="629" xlink:href="#SourceSansPro-Regular-6f"/><use x="683.2" xlink:href="#SourceSansPro-Regular-69"/><use x="707.8" xlink:href="#SourceSansPro-Regular-6e"/><use x="762.5" xlink:href="#SourceSansPro-Regular-74"/><use x="796.3" xlink:href="#SourceSansPro-Regular-20"/><use x="816.5" xlink:href="#SourceSansPro-Regular-69"/><use x="841.1" xlink:href="#SourceSansPro-Regular-6e"/><use x="895.8" xlink:href="#SourceSansPro-Regular-74"/><use x="929.6" xlink:href="#SourceSansPro-Regular-65"/><use x="979.2" xlink:href="#SourceSansPro-Regular-72"/><use x="1013.9" xlink:href="#SourceSansPro-Regular-76"/><use x="1060.6" xlink:href="#SourceSansPro-Regular-61"/><use x="1111.8" xlink:href="#SourceSansPro-Regular-6c"/><use x="1137.3" xlink:href="#SourceSansPro-Regular-73"/></g></g></g><g id="matplotlib.axis_2"><g id="ytick_1"><path clip-path="url(#p15f504cb8e)" d="M53.53 387.38h558" fill="none" stroke="#8fa7bf" stroke-linecap="square" stroke-width=".5" id="line2d_23"/><g id="line2d_24"><defs><path d="M0 0h6" id="m62416b7cce"/></defs><use x="53.53" xlink:href="#m62416b7cce" y="387.38"/></g><g id="line2d_25"><defs><path d="M0 0h-6" id="mf4ce49e384"/></defs><use x="611.53" xlink:href="#mf4ce49e384" y="387.38"/></g><g transform="matrix(.12 0 0 -.12 31.6 390.43)" id="text_13"><use xlink:href="#SourceSansPro-Regular-32"/><use x="49.7" xlink:href="#SourceSansPro-Regular-35"/></g></g><g id="ytick_2"><path clip-path="url(#p15f504cb8e)" d="M53.53 336.98h558" fill="none" stroke="#8fa7bf" stroke-linecap="square" stroke-width=".5" id="line2d_26"/><use x="53.53" xlink:href="#m62416b7cce" y="336.98" id="line2d_27"/><use x="611.53" xlink:href="#mf4ce49e384" y="336.98" id="line2d_28"/><g transform="matrix(.12 0 0 -.12 31.6 340.03)" id="text_14"><use xlink:href="#SourceSansPro-Regular-35"/><use x="49.7" xlink:href="#SourceSansPro-Regular-30"/></g></g><g id="ytick_3"><path clip-path="url(#p15f504cb8e)" d="M53.53 286.58h558" fill="none" stroke="#8fa7bf" stroke-linecap="square" stroke-width=".5" id="line2d_29"/><use x="53.53" xlink:href="#m62416b7cce" y="286.58" id="line2d_30"/><use x="611.53" xlink:href="#mf4ce49e384" y="286.58" id="line2d_31"/><g transform="matrix(.12 0 0 -.12 31.6 289.63)" id="text_15"><use xlink:href="#SourceSansPro-Regular-37"/><use x="49.7" xlink:href="#SourceSansPro-Regular-35"/></g></g><g id="ytick_4"><path clip-path="url(#p15f504cb8e)" d="M53.53 236.18h558" fill="none" stroke="#8fa7bf" stroke-linecap="square" stroke-width=".5" id="line2d_32"/><use x="53.53" xlink:href="#m62416b7cce" y="236.18" id="line2d_33"/><use x="611.53" xlink:href="#mf4ce49e384" y="236.18" id="line2d_34"/><g transform="matrix(.12 0 0 -.12 25.64 239.23)" id="text_16"><use xlink:href="#SourceSansPro-Regular-31"/><use x="49.7" xlink:href="#SourceSansPro-Regular-30"/><use x="99.4" xlink:href="#SourceSansPro-Regular-30"/></g></g><g id="ytick_5"><path clip-path="url(#p15f504cb8e)" d="M53.53 185.78h558" fill="none" stroke="#8fa7bf" stroke-linecap="square" stroke-width=".5" id="line2d_35"/><use x="53.53" xlink:href="#m62416b7cce" y="185.78" id="line2d_36"/><use x="611.53" xlink:href="#mf4ce49e384" y="185.78" id="line2d_37"/><g transform="matrix(.12 0 0 -.12 25.64 188.83)" id="text_17"><use xlink:href="#SourceSansPro-Regular-31"/><use x="49.7" xlink:href="#SourceSansPro-Regular-32"/><use x="99.4" xlink:href="#SourceSansPro-Regular-35"/></g></g><g id="ytick_6"><path clip-path="url(#p15f504cb8e)" d="M53.53 135.38h558" fill="none" stroke="#8fa7bf" stroke-linecap="square" stroke-width=".5" id="line2d_38"/><use x="53.53" xlink:href="#m62416b7cce" y="135.38" id="line2d_39"/><use x="611.53" xlink:href="#mf4ce49e384" y="135.38" id="line2d_40"/><g transform="matrix(.12 0 0 -.12 25.64 138.43)" id="text_18"><use xlink:href="#SourceSansPro-Regular-31"/><use x="49.7" xlink:href="#SourceSansPro-Regular-35"/><use x="99.4" xlink:href="#SourceSansPro-Regular-30"/></g></g><g id="ytick_7"><path clip-path="url(#p15f504cb8e)" d="M53.53 84.98h558" fill="none" stroke="#8fa7bf" stroke-linecap="square" stroke-width=".5" id="line2d_41"/><use x="53.53" xlink:href="#m62416b7cce" y="84.98" id="line2d_42"/><use x="611.53" xlink:href="#mf4ce49e384" y="84.98" id="line2d_43"/><g transform="matrix(.12 0 0 -.12 25.64 88.03)" id="text_19"><use xlink:href="#SourceSansPro-Regular-31"/><use x="49.7" xlink:href="#SourceSansPro-Regular-37"/><use x="99.4" xlink:href="#SourceSansPro-Regular-35"/></g></g><g id="ytick_8"><path clip-path="url(#p15f504cb8e)" d="M53.53 34.58h558" fill="none" stroke="#8fa7bf" stroke-linecap="square" stroke-width=".5" id="line2d_44"/><use x="53.53" xlink:href="#m62416b7cce" y="34.58" id="line2d_45"/><use x="611.53" xlink:href="#mf4ce49e384" y="34.58" id="line2d_46"/><g transform="matrix(.12 0 0 -.12 25.64 37.63)" id="text_20"><use xlink:href="#SourceSansPro-Regular-32"/><use x="49.7" xlink:href="#SourceSansPro-Regular-30"/><use x="99.4" xlink:href="#SourceSansPro-Regular-30"/></g></g><g id="text_21"><defs><path d="M4.7 24.2C4.7 8 12.6-1.2 24.8-1.2c5.6 0 10.7 3 14.6 6.6L39-3.2v-17.3h8.3v69.1h-6.6l-.8-4.6h-.2c-4.4 3.8-8.3 5.8-13.9 5.8-11.1 0-21.1-9.8-21.1-25.6m8.5.1c0 11.1 6.2 18.6 14 18.6 4 0 7.7-1.4 11.8-5.1V12.4c-4-4.5-7.9-6.7-12.4-6.7-8.5 0-13.4 7-13.4 18.6" id="SourceSansPro-Regular-71"/><path d="M4.9-13.4l-1.6-6.5c1.6-.6 3.5-1 5.7-1 9.8 0 14.8 7.3 18.2 16.9l18.3 52.6h-8l-8.7-26.9c-1.3-4.3-2.7-9.3-4.1-13.7h-.4c-1.5 4.5-3.2 9.5-4.7 13.7L9.7 48.6H1.2L20.7-.1l-1.1-3.6c-2-6-5.5-10.4-11-10.4-1.2 0-2.7.4-3.7.7" id="SourceSansPro-Regular-79"/><path d="M7.5 17.8c0-12.4 4.6-19 14.9-19 6.7 0 11.5 3.5 16 8.8h.3l.7-7.6h6.8v48.6H38V14.1c-4.6-5.7-8.1-8.2-13.1-8.2-6.4 0-9.1 3.9-9.1 13v29.7H7.5z" id="SourceSansPro-Regular-75"/></defs><g transform="matrix(0 -.144 -.144 0 17.63 284.94)"><use xlink:href="#SourceSansPro-Regular-53"/><use x="53.4" xlink:href="#SourceSansPro-Regular-63"/><use x="99" xlink:href="#SourceSansPro-Regular-6f"/><use x="153.2" xlink:href="#SourceSansPro-Regular-72"/><use x="187.9" xlink:href="#SourceSansPro-Regular-65"/><use x="237.5" xlink:href="#SourceSansPro-Regular-20"/><use x="257.7" xlink:href="#SourceSansPro-Regular-66"/><use x="286.9" xlink:href="#SourceSansPro-Regular-72"/><use x="321.6" xlink:href="#SourceSansPro-Regular-65"/><use x="371.2" xlink:href="#SourceSansPro-Regular-71"/><use x="426.2" xlink:href="#SourceSansPro-Regular-75"/><use x="480.6" xlink:href="#SourceSansPro-Regular-65"/><use x="530.2" xlink:href="#SourceSansPro-Regular-6e"/><use x="584.9" xlink:href="#SourceSansPro-Regular-63"/><use x="630.5" xlink:href="#SourceSansPro-Regular-79"/></g></g></g><path clip-path="url(#p15f504cb8e)" d="M53.53 437.78H80.1 53.53z" fill="#afb7bf" stroke="#000" id="patch_3"/><path clip-path="url(#p15f504cb8e)" d="M80.1 437.78h26.57H80.1z" fill="#afb7bf" stroke="#000" id="patch_4"/><path clip-path="url(#p15f504cb8e)" d="M106.67 437.78h26.57v-2.01h-26.57z" fill="#afb7bf" stroke="#000" id="patch_5"/><path clip-path="url(#p15f504cb8e)" d="M133.24 437.78h26.58-26.58z" fill="#afb7bf" stroke="#000" id="patch_6"/><path clip-path="url(#p15f504cb8e)" d="M159.82 437.78h26.57v-6.04h-26.57z" fill="#afb7bf" stroke="#000" id="patch_7"/><path clip-path="url(#p15f504cb8e)" d="M186.39 437.78h26.57-26.57z" fill="#afb7bf" stroke="#000" id="patch_8"/><path clip-path="url(#p15f504cb8e)" d="M212.96 437.78h26.57-26.57z" fill="#afb7bf" stroke="#000" id="patch_9"/><path clip-path="url(#p15f504cb8e)" d="M239.53 437.78h26.57-26.57z" fill="#afb7bf" stroke="#000" id="patch_10"/><path clip-path="url(#p15f504cb8e)" d="M266.1 437.78h26.57v-20.16H266.1z" fill="#afb7bf" stroke="#000" id="patch_11"/><path clip-path="url(#p15f504cb8e)" d="M292.67 437.78h26.57-26.57z" fill="#afb7bf" stroke="#000" id="patch_12"/><path clip-path="url(#p15f504cb8e)" d="M319.24 437.78h26.58v-42.33h-26.58z" fill="#afb7bf" stroke="#000" id="patch_13"/><path clip-path="url(#p15f504cb8e)" d="M345.82 437.78h26.57-26.57z" fill="#afb7bf" stroke="#000" id="patch_14"/><path clip-path="url(#p15f504cb8e)" d="M372.39 437.78h26.57v-84.67h-26.57z" fill="#afb7bf" stroke="#000" id="patch_15"/><path clip-path="url(#p15f504cb8e)" d="M398.96 437.78h26.57v-26.2h-26.57z" fill="#afb7bf" stroke="#000" id="patch_16"/><path clip-path="url(#p15f504cb8e)" d="M425.53 437.78h26.57V111.2h-26.57z" fill="#afb7bf" stroke="#000" id="patch_17"/><path clip-path="url(#p15f504cb8e)" d="M452.1 437.78h26.57v-58.46H452.1z" fill="#afb7bf" stroke="#000" id="patch_18"/><path clip-path="url(#p15f504cb8e)" d="M478.67 437.78h26.57V50.71h-26.57z" fill="#afb7bf" stroke="#000" id="patch_19"/><path clip-path="url(#p15f504cb8e)" d="M505.24 437.78h26.58V389.4h-26.58z" fill="#afb7bf" stroke="#000" id="patch_20"/><path clip-path="url(#p15f504cb8e)" d="M531.82 437.78h26.57V242.23h-26.57z" fill="#afb7bf" stroke="#000" id="patch_21"/><path clip-path="url(#p15f504cb8e)" d="M558.39 437.78h26.57v-4.03h-26.57z" fill="#afb7bf" stroke="#000" id="patch_22"/><path clip-path="url(#p15f504cb8e)" d="M584.96 437.78h26.57v-80.64h-26.57z" fill="#afb7bf" stroke="#000" id="patch_23"/><path clip-path="url(#p15f504cb8e)" d="M53.53 437.78H80.1 53.53z" fill="#bd3338" stroke="#000" stroke-width=".5" id="patch_24"/><path clip-path="url(#p15f504cb8e)" d="M80.1 437.78h26.57H80.1z" fill="#bd3338" stroke="#000" stroke-width=".5" id="patch_25"/><path clip-path="url(#p15f504cb8e)" d="M106.67 437.78h26.57-26.57z" fill="#bd3338" stroke="#000" stroke-width=".5" id="patch_26"/><path clip-path="url(#p15f504cb8e)" d="M133.24 437.78h26.58-26.58z" fill="#bd3338" stroke="#000" stroke-width=".5" id="patch_27"/><path clip-path="url(#p15f504cb8e)" d="M159.82 437.78h26.57-26.57z" fill="#bd3338" stroke="#000" stroke-width=".5" id="patch_28"/><path clip-path="url(#p15f504cb8e)" d="M186.39 437.78h26.57-26.57z" fill="#bd3338" stroke="#000" stroke-width=".5" id="patch_29"/><path clip-path="url(#p15f504cb8e)" d="M212.96 437.78h26.57-26.57z" fill="#bd3338" stroke="#000" stroke-width=".5" id="patch_30"/><path clip-path="url(#p15f504cb8e)" d="M239.53 437.78h26.57-26.57z" fill="#bd3338" stroke="#000" stroke-width=".5" id="patch_31"/><path clip-path="url(#p15f504cb8e)" d="M266.1 437.78h26.57-26.57z" fill="#bd3338" stroke="#000" stroke-width=".5" id="patch_32"/><path clip-path="url(#p15f504cb8e)" d="M292.67 437.78h26.57-26.57z" fill="#bd3338" stroke="#000" stroke-width=".5" id="patch_33"/><path clip-path="url(#p15f504cb8e)" d="M319.24 437.78h26.58-26.58z" fill="#bd3338" stroke="#000" stroke-width=".5" id="patch_34"/><path clip-path="url(#p15f504cb8e)" d="M345.82 437.78h26.57-26.57z" fill="#bd3338" stroke="#000" stroke-width=".5" id="patch_35"/><path clip-path="url(#p15f504cb8e)" d="M372.39 437.78h26.57v-4.03h-26.57z" fill="#bd3338" stroke="#000" stroke-width=".5" id="patch_36"/><path clip-path="url(#p15f504cb8e)" d="M398.96 437.78h26.57v-2.01h-26.57z" fill="#bd3338" stroke="#000" stroke-width=".5" id="patch_37"/><path clip-path="url(#p15f504cb8e)" d="M425.53 437.78h26.57v-82.65h-26.57z" fill="#bd3338" stroke="#000" stroke-width=".5" id="patch_38"/><path clip-path="url(#p15f504cb8e)" d="M452.1 437.78h26.57v-26.2H452.1z" fill="#bd3338" stroke="#000" stroke-width=".5" id="patch_39"/><path clip-path="url(#p15f504cb8e)" d="M478.67 437.78h26.57V216.02h-26.57z" fill="#bd3338" stroke="#000" stroke-width=".5" id="patch_40"/><path clip-path="url(#p15f504cb8e)" d="M505.24 437.78h26.58v-38.3h-26.58z" fill="#bd3338" stroke="#000" stroke-width=".5" id="patch_41"/><path clip-path="url(#p15f504cb8e)" d="M531.82 437.78h26.57V276.5h-26.57z" fill="#bd3338" stroke="#000" stroke-width=".5" id="patch_42"/><path clip-path="url(#p15f504cb8e)" d="M558.39 437.78h26.57v-4.03h-26.57z" fill="#bd3338" stroke="#000" stroke-width=".5" id="patch_43"/><path clip-path="url(#p15f504cb8e)" d="M584.96 437.78h26.57v-62.5h-26.57z" fill="#bd3338" stroke="#000" stroke-width=".5" id="patch_44"/><path d="M611.53 437.78V34.58" fill="none" stroke="#000" stroke-linecap="square" id="patch_45"/><path d="M53.53 437.78h558" fill="none" stroke="#000" stroke-linecap="square" id="patch_46"/><path d="M53.53 34.58h558" fill="none" stroke="#000" stroke-linecap="square" id="patch_47"/><path d="M53.53 437.78V34.58" fill="none" stroke="#000" stroke-linecap="square" id="patch_48"/><g id="text_22"><defs><path d="M8.2 0h6.6l.7 4.8h.3c4.3-3.8 9.4-6 13.9-6 11.1 0 21 9.7 21 26.3 0 15-6.7 24.7-19.3 24.7-5.4 0-10.8-2.9-15.2-6.8l.2 8.8v19.4H8.2zm8.2 10.8v25.5c4.6 4.3 8.9 6.6 13 6.6 9.2 0 12.8-7.2 12.8-17.9 0-12-5.9-19.3-13.9-19.3-3.2 0-7.6 1.4-11.9 5.1" id="SourceSansPro-Regular-62"/><path d="M33.2-1.2c16.5 0 28.1 13.2 28.1 34.3 0 20.9-11.6 33.7-28.1 33.7s-28-12.7-28-33.7c0-21.1 11.5-34.3 28-34.3m0 7.3c-11.7 0-19.4 10.6-19.4 27 0 16.3 7.7 26.4 19.4 26.4s19.4-10.1 19.4-26.4c0-16.4-7.7-27-19.4-27" id="SourceSansPro-Regular-4f"/><path d="M5.2 32.8c0-21.4 12.3-34 29.5-34 8.8 0 16 3.2 20.3 7.6V34H33.5v-6.9h13.9V10c-2.6-2.4-7.1-3.9-11.8-3.9-14 0-21.8 10.4-21.8 26.9 0 16.3 8.5 26.5 21.7 26.5 6.6 0 10.7-2.6 14-6.1l4.7 5.3c-3.8 4-9.8 8.1-18.8 8.1-17.5 0-30.2-12.9-30.2-34" id="SourceSansPro-Regular-47"/><path d="M3.1 9.3C6.9 2.4 12.9-1.2 21.2-1.2 34-1.2 39.3 8 39.3 19.3v46.3h-8.4V20.1c0-10-3.5-14-10.5-14-4.7 0-8.4 2.2-11.3 7.4z" id="SourceSansPro-Regular-4a"/><path d="M9 0h16.8c19.8 0 30.6 12.2 30.6 33.1 0 20.8-10.8 32.5-31 32.5H9zm8.3 6.8v52h7.5c15.3 0 23-9.2 23-25.7 0-16.6-7.7-26.3-23-26.3z" id="SourceSansPro-Regular-44"/><path d="M4.7 24.2C4.7 8 12.6-1.2 24.8-1.2c5.7 0 10.9 3.2 14.7 6.9h.3l.7-5.7h6.8v71.2H39V52.5l.4-8.3c-4.3 3.5-8 5.6-13.6 5.6-11.1 0-21.1-9.8-21.1-25.6m8.5.1c0 11.1 6.2 18.6 14 18.6 4 0 7.7-1.4 11.8-5.1V12.4c-4-4.5-7.9-6.7-12.4-6.7-8.5 0-13.4 7-13.4 18.6" id="SourceSansPro-Regular-64"/><path d="M4.1 22.3h39.8V28H4.1z" id="SourceSansPro-Regular-2013"/><path d="M9 0h20.9c14.7 0 24.9 6.3 24.9 19.2 0 9-5.6 14.2-15.2 15.7v.4c7.7 2 11.4 7.8 11.4 14.3 0 11.5-9.2 16-22.5 16H9zm8.3 37.6V59h10.1c10.2 0 15.4-3 15.4-10.1 0-7.3-4.6-11.3-15.8-11.3zm0-31v24.8h11.4c11.5 0 17.9-3.7 17.9-11.8 0-8.9-6.6-13-17.9-13z" id="SourceSansPro-Regular-42"/></defs><g transform="matrix(.1728 0 0 -.1728 122.3 19.5)"><use xlink:href="#SourceSansPro-Regular-47"/><use x="61.7" xlink:href="#SourceSansPro-Regular-75"/><use x="116.1" xlink:href="#SourceSansPro-Regular-61"/><use x="167.3" xlink:href="#SourceSansPro-Regular-72"/><use x="202" xlink:href="#SourceSansPro-Regular-64"/><use x="257.5" xlink:href="#SourceSansPro-Regular-69"/><use x="282.1" xlink:href="#SourceSansPro-Regular-61"/><use x="333.3" xlink:href="#SourceSansPro-Regular-6e"/><use x="388" xlink:href="#SourceSansPro-Regular-20"/><use x="408.2" xlink:href="#SourceSansPro-Regular-42"/><use x="467" xlink:href="#SourceSansPro-Regular-6c"/><use x="492.5" xlink:href="#SourceSansPro-Regular-69"/><use x="517.1" xlink:href="#SourceSansPro-Regular-6e"/><use x="571.8" xlink:href="#SourceSansPro-Regular-64"/><use x="627.3" xlink:href="#SourceSansPro-Regular-20"/><use x="647.5" xlink:href="#SourceSansPro-Regular-44"/><use x="709" xlink:href="#SourceSansPro-Regular-61"/><use x="760.2" xlink:href="#SourceSansPro-Regular-74"/><use x="794" xlink:href="#SourceSansPro-Regular-65"/><use x="843.6" xlink:href="#SourceSansPro-Regular-20"/><use x="863.8" xlink:href="#SourceSansPro-Regular-73"/><use x="905.7" xlink:href="#SourceSansPro-Regular-63"/><use x="951.3" xlink:href="#SourceSansPro-Regular-6f"/><use x="1005.5" xlink:href="#SourceSansPro-Regular-72"/><use x="1040.2" xlink:href="#SourceSansPro-Regular-65"/><use x="1089.8" xlink:href="#SourceSansPro-Regular-20"/><use x="1110" xlink:href="#SourceSansPro-Regular-64"/><use x="1165.5" xlink:href="#SourceSansPro-Regular-69"/><use x="1190.1" xlink:href="#SourceSansPro-Regular-73"/><use x="1232" xlink:href="#SourceSansPro-Regular-74"/><use x="1265.8" xlink:href="#SourceSansPro-Regular-72"/><use x="1300.5" xlink:href="#SourceSansPro-Regular-69"/><use x="1325.1" xlink:href="#SourceSansPro-Regular-62"/><use x="1380.6" xlink:href="#SourceSansPro-Regular-75"/><use x="1435" xlink:href="#SourceSansPro-Regular-74"/><use x="1468.8" xlink:href="#SourceSansPro-Regular-69"/><use x="1493.4" xlink:href="#SourceSansPro-Regular-6f"/><use x="1547.6" xlink:href="#SourceSansPro-Regular-6e"/><use x="1602.3" xlink:href="#SourceSansPro-Regular-2c"/><use x="1627.2" xlink:href="#SourceSansPro-Regular-20"/><use x="1647.4" xlink:href="#SourceSansPro-Regular-4a"/><use x="1695.4" xlink:href="#SourceSansPro-Regular-61"/><use x="1746.6" xlink:href="#SourceSansPro-Regular-6e"/><use x="1801.3" xlink:href="#SourceSansPro-Regular-20"/><use x="1821.5" xlink:href="#SourceSansPro-Regular-32"/><use x="1871.2" xlink:href="#SourceSansPro-Regular-30"/><use x="1920.9" xlink:href="#SourceSansPro-Regular-30"/><use x="1970.6" xlink:href="#SourceSansPro-Regular-39"/><use x="2020.3" xlink:href="#SourceSansPro-Regular-2013"/><use x="2068.3" xlink:href="#SourceSansPro-Regular-4f"/><use x="2134.7" xlink:href="#SourceSansPro-Regular-63"/><use x="2180.3" xlink:href="#SourceSansPro-Regular-74"/><use x="2214.1" xlink:href="#SourceSansPro-Regular-20"/><use x="2234.3" xlink:href="#SourceSansPro-Regular-32"/><use x="2284" xlink:href="#SourceSansPro-Regular-30"/><use x="2333.7" xlink:href="#SourceSansPro-Regular-31"/><use x="2383.4" xlink:href="#SourceSansPro-Regular-36"/></g></g><g id="legend_1"><path d="M60.73 87.19H251.8v-45.4H60.73z" fill="#f7f8f9" stroke="#000" id="patch_49"/><path d="M66.49 57.8h28.8V47.72h-28.8z" fill="#afb7bf" stroke="#000" id="patch_50"/><g id="text_23"><defs><path d="M17.2 26.7l3.1 10c2.4 7.3 4.5 14.5 6.5 22.1h.4c2.1-7.6 4.2-14.8 6.6-22.1l3.1-10zM45.2 0h8.9L31.9 65.6h-9.4L.3 0h8.5l6.3 20H39z" id="SourceSansPro-Regular-41"/></defs><g transform="matrix(.144 0 0 -.144 106.81 57.8)"><use xlink:href="#SourceSansPro-Regular-41"/><use x="54.4" xlink:href="#SourceSansPro-Regular-6c"/><use x="79.9" xlink:href="#SourceSansPro-Regular-6c"/><use x="105.4" xlink:href="#SourceSansPro-Regular-20"/><use x="125.6" xlink:href="#SourceSansPro-Regular-64"/><use x="181.1" xlink:href="#SourceSansPro-Regular-61"/><use x="232.3" xlink:href="#SourceSansPro-Regular-74"/><use x="266.1" xlink:href="#SourceSansPro-Regular-65"/><use x="315.7" xlink:href="#SourceSansPro-Regular-73"/></g></g><path d="M66.49 78.2h28.8V68.12h-28.8z" fill="#bd3338" stroke="#000" stroke-width=".5" id="patch_51"/><g id="text_24"><defs><path d="M16.2 0h9.9l9.7 39.5c1.1 5.1 2.3 9.8 3.3 14.9h.4c1-5.1 2-9.8 3.2-14.9L52.6 0h10l13.6 65.6h-8l-6.9-35.7c-1.3-7-2.5-14.1-3.7-21.2h-.4C55.6 15.8 54 23 52.4 29.9l-9.1 35.7h-7.6l-9.1-35.7c-1.5-7-3.1-14.1-4.6-21.2h-.4c-1.2 7.1-2.6 14.1-3.8 21.2l-6.9 35.7H2.3z" id="SourceSansPro-Regular-57"/><path d="M11.7-8.2c0 2.8 1.5 5.7 5 8.2 2.1-.6 4.4-.8 6.3-.8h8.4c6.3 0 9.8-1.5 9.8-6 0-5.1-6.1-9.9-15.4-9.9-8.8 0-14.1 3.3-14.1 8.5M4.5-9.3c0-8.4 8.2-13.1 20.1-13.1 15.1 0 24.6 7.8 24.6 16.8 0 8.1-5.7 11.6-17 11.6h-9.4c-6.6 0-8.6 2.2-8.6 5.3 0 2.7 1.4 4.3 3.1 5.8 2.2-1.1 4.9-1.7 7.3-1.7 9.9 0 17.8 6.5 17.8 16.9 0 4.1-1.7 7.8-4 10h10v6.3H31.5c-1.8.7-4.2 1.2-6.9 1.2-9.9 0-18.3-6.7-18.3-17.3 0-5.8 3.1-10.5 6.3-13.1V19c-2.5-1.7-5.3-4.9-5.3-9a9 9 0 0 1 4.3-7.9v-.4c-4.4-3-7.1-6.9-7.1-11m20.1 30.2c-5.6 0-10.3 4.5-10.3 11.6s4.6 11.3 10.3 11.3c5.7 0 10.3-4.2 10.3-11.3 0-7.1-4.7-11.6-10.3-11.6" id="SourceSansPro-Regular-67"/><path d="M8.2 0h8.2v35.2c4.5 5 8.6 7.5 12.2 7.5 6.2 0 9.1-3.9 9.1-13V0h8.2v35.2c4.5 5 8.4 7.5 12.2 7.5 6.1 0 9-3.9 9-13V0h8.2v30.8c0 12.4-4.8 19-14.8 19-5.9 0-10.9-3.8-16-9.3-2 5.8-6 9.3-13.4 9.3-5.8 0-10.9-3.6-15.1-8.2h-.3l-.7 7H8.2z" id="SourceSansPro-Regular-6d"/></defs><g transform="matrix(.144 0 0 -.144 106.81 78.2)"><use xlink:href="#SourceSansPro-Regular-57"/><use x="78.6" xlink:href="#SourceSansPro-Regular-6f"/><use x="132.8" xlink:href="#SourceSansPro-Regular-75"/><use x="187.2" xlink:href="#SourceSansPro-Regular-6c"/><use x="212.7" xlink:href="#SourceSansPro-Regular-64"/><use x="268.2" xlink:href="#SourceSansPro-Regular-20"/><use x="288.4" xlink:href="#SourceSansPro-Regular-6d"/><use x="371.3" xlink:href="#SourceSansPro-Regular-65"/><use x="420.9" xlink:href="#SourceSansPro-Regular-65"/><use x="470.5" xlink:href="#SourceSansPro-Regular-74"/><use x="504.3" xlink:href="#SourceSansPro-Regular-20"/><use x="524.5" xlink:href="#SourceSansPro-Regular-64"/><use x="580" xlink:href="#SourceSansPro-Regular-61"/><use x="631.2" xlink:href="#SourceSansPro-Regular-74"/><use x="665" xlink:href="#SourceSansPro-Regular-65"/><use x="714.6" xlink:href="#SourceSansPro-Regular-20"/><use x="734.8" xlink:href="#SourceSansPro-Regular-61"/><use x="786" xlink:href="#SourceSansPro-Regular-67"/><use x="836.4" xlink:href="#SourceSansPro-Regular-61"/><use x="887.6" xlink:href="#SourceSansPro-Regular-69"/><use x="912.2" xlink:href="#SourceSansPro-Regular-6e"/></g></g></g></g></g><defs><clipPath id="p15f504cb8e"><path d="M53.53 34.58h558v403.2h-558z"/></clipPath></defs></svg>