<?xml version="1.0" encoding="utf-8" standalone="no"?>
<!DOCTYPE svg PUBLIC "-//W3C//DTD SVG 1.1//EN"
  "http://www.w3.org/Graphics/SVG/1.1/DTD/svg11.dtd">
<!-- Created with matplotlib (http://matplotlib.org/) -->
<svg height="384pt" version="1.1" viewBox="0 0 631 384" width="631pt" xmlns="http://www.w3.org/2000/svg" xmlns:xlink="http://www.w3.org/1999/xlink">
 <defs>
  <style type="text/css">
*{stroke-linecap:butt;stroke-linejoin:round;stroke-miterlimit:100000;}
  </style>
 </defs>
 <g id="figure_1">
  <g id="patch_1">
   <path d="M 0 384.999485 
L 631.9215 384.999485 
L 631.9215 0 
L 0 0 
z
" style="fill:none;"/>
  </g>
  <g id="axes_1">
   <g id="patch_2">
    <path d="M 53.298375 338.58986 
L 611.298375 338.58986 
L 611.298375 50.58986 
L 53.298375 50.58986 
z
" style="fill:none;"/>
   </g>
   <g id="matplotlib.axis_1">
    <g id="xtick_1">
     <g id="line2d_1">
      <path clip-path="url(#p9cb792d456)" d="M 66.908131 338.58986 
L 66.908131 50.58986 
" style="fill:none;stroke:#8fa7bf;stroke-linecap:square;stroke-width:0.5;"/>
     </g>
     <g id="line2d_2">
      <defs>
       <path d="M 0 0 
L 0 -6 
" id="md0b7b6dd5d" style="stroke:#000000;stroke-width:0.5;"/>
      </defs>
      <g>
       <use style="stroke:#000000;stroke-width:0.5;" x="66.9081312418" xlink:href="#md0b7b6dd5d" y="338.58986"/>
      </g>
     </g>
     <g id="line2d_3">
      <defs>
       <path d="M 0 0 
L 0 6 
" id="m3544f0ccc0" style="stroke:#000000;stroke-width:0.5;"/>
      </defs>
      <g>
       <use style="stroke:#000000;stroke-width:0.5;" x="66.9081312418" xlink:href="#m3544f0ccc0" y="50.58986"/>
      </g>
     </g>
     <g id="text_1">
      <!-- 14:00 -->
      <defs>
       <path d="M 6.5 41.09375 
C 6.5 37.40625 9.203125 34.90625 12.5 34.90625 
C 15.703125 34.90625 18.40625 37.40625 18.40625 41.09375 
C 18.40625 44.90625 15.703125 47.40625 12.5 47.40625 
C 9.203125 47.40625 6.5 44.90625 6.5 41.09375 
M 6.5 5 
C 6.5 1.40625 9.203125 -1.203125 12.5 -1.203125 
C 15.703125 -1.203125 18.40625 1.40625 18.40625 5 
C 18.40625 8.796875 15.703125 11.40625 12.5 11.40625 
C 9.203125 11.40625 6.5 8.796875 6.5 5 
" id="SourceSansPro-Regular-3a"/>
       <path d="M 24.90625 -1.203125 
C 37.59375 -1.203125 45.296875 10.703125 45.296875 32.09375 
C 45.296875 53.5 37.59375 65 24.90625 65 
C 12.09375 65 4.40625 53.5 4.40625 32.09375 
C 4.40625 10.703125 12.09375 -1.203125 24.90625 -1.203125 
M 24.90625 5.40625 
C 17.40625 5.40625 12.40625 13.40625 12.40625 32.09375 
C 12.40625 50.796875 17.40625 58.40625 24.90625 58.40625 
C 32.296875 58.40625 37.296875 50.796875 37.296875 32.09375 
C 37.296875 13.40625 32.296875 5.40625 24.90625 5.40625 
" id="SourceSansPro-Regular-30"/>
       <path d="M 10.40625 24.203125 
L 25.296875 46 
C 27.09375 49.09375 28.90625 51.90625 30.5 55 
L 30.90625 55 
C 30.703125 51.59375 30.40625 46.09375 30.40625 42.703125 
L 30.40625 24.203125 
z
M 46.90625 24.203125 
L 38.203125 24.203125 
L 38.203125 63.796875 
L 29 63.796875 
L 1.703125 23 
L 1.703125 17.59375 
L 30.40625 17.59375 
L 30.40625 0 
L 38.203125 0 
L 38.203125 17.59375 
L 46.90625 17.59375 
z
" id="SourceSansPro-Regular-34"/>
       <path d="M 7.90625 0 
L 43.90625 0 
L 43.90625 6.796875 
L 30.703125 6.796875 
L 30.703125 63.796875 
L 24.40625 63.796875 
C 20.90625 61.703125 16.703125 60.09375 10.90625 59.09375 
L 10.90625 53.796875 
L 22.5 53.796875 
L 22.5 6.796875 
L 7.90625 6.796875 
z
" id="SourceSansPro-Regular-31"/>
      </defs>
      <g transform="translate(53.4850062418 357.134235)scale(0.12 -0.12)">
       <use xlink:href="#SourceSansPro-Regular-31"/>
       <use x="49.69999694824219" xlink:href="#SourceSansPro-Regular-34"/>
       <use x="99.39999389648438" xlink:href="#SourceSansPro-Regular-3a"/>
       <use x="124.29998779296875" xlink:href="#SourceSansPro-Regular-30"/>
       <use x="173.99998474121094" xlink:href="#SourceSansPro-Regular-30"/>
      </g>
     </g>
    </g>
    <g id="xtick_2">
     <g id="line2d_4">
      <path clip-path="url(#p9cb792d456)" d="M 121.347156 338.58986 
L 121.347156 50.58986 
" style="fill:none;stroke:#8fa7bf;stroke-linecap:square;stroke-width:0.5;"/>
     </g>
     <g id="line2d_5">
      <g>
       <use style="stroke:#000000;stroke-width:0.5;" x="121.347155571" xlink:href="#md0b7b6dd5d" y="338.58986"/>
      </g>
     </g>
     <g id="line2d_6">
      <g>
       <use style="stroke:#000000;stroke-width:0.5;" x="121.347155571" xlink:href="#m3544f0ccc0" y="50.58986"/>
      </g>
     </g>
     <g id="text_2">
      <!-- 15:00 -->
      <defs>
       <path d="M 2.5 7.5 
C 6.90625 3.09375 13.203125 -1.203125 23.40625 -1.203125 
C 34.5 -1.203125 44.90625 6.59375 44.90625 20.40625 
C 44.90625 34.203125 36 40.40625 25.09375 40.40625 
C 21.203125 40.40625 18.296875 39.40625 15.296875 37.796875 
L 17 56.703125 
L 41.703125 56.703125 
L 41.703125 63.796875 
L 9.796875 63.796875 
L 7.703125 33.09375 
L 12.09375 30.296875 
C 15.90625 32.796875 18.59375 34.203125 23 34.203125 
C 31.203125 34.203125 36.59375 29 36.59375 20.203125 
C 36.59375 11.296875 30.40625 5.59375 22.59375 5.59375 
C 15.09375 5.59375 10.296875 9.09375 6.5 12.90625 
z
" id="SourceSansPro-Regular-35"/>
      </defs>
      <g transform="translate(107.924030571 357.134235)scale(0.12 -0.12)">
       <use xlink:href="#SourceSansPro-Regular-31"/>
       <use x="49.69999694824219" xlink:href="#SourceSansPro-Regular-35"/>
       <use x="99.39999389648438" xlink:href="#SourceSansPro-Regular-3a"/>
       <use x="124.29998779296875" xlink:href="#SourceSansPro-Regular-30"/>
       <use x="173.99998474121094" xlink:href="#SourceSansPro-Regular-30"/>
      </g>
     </g>
    </g>
    <g id="xtick_3">
     <g id="line2d_7">
      <path clip-path="url(#p9cb792d456)" d="M 175.78618 338.58986 
L 175.78618 50.58986 
" style="fill:none;stroke:#8fa7bf;stroke-linecap:square;stroke-width:0.5;"/>
     </g>
     <g id="line2d_8">
      <g>
       <use style="stroke:#000000;stroke-width:0.5;" x="175.7861799" xlink:href="#md0b7b6dd5d" y="338.58986"/>
      </g>
     </g>
     <g id="line2d_9">
      <g>
       <use style="stroke:#000000;stroke-width:0.5;" x="175.7861799" xlink:href="#m3544f0ccc0" y="50.58986"/>
      </g>
     </g>
     <g id="text_3">
      <!-- 16:00 -->
      <defs>
       <path d="M 26.796875 5.296875 
C 18.703125 5.296875 13.796875 12 12.796875 24.40625 
C 17.09375 30.40625 22.09375 32.796875 26.09375 32.796875 
C 34 32.796875 37.90625 27.59375 37.90625 19.296875 
C 37.90625 10.90625 33.09375 5.296875 26.796875 5.296875 
M 44.5 58.203125 
C 40.90625 62.09375 36 65 29.09375 65 
C 16.40625 65 4.796875 55.09375 4.796875 29.5 
C 4.796875 9 14.296875 -1.203125 26.796875 -1.203125 
C 37.09375 -1.203125 45.703125 7.09375 45.703125 19.296875 
C 45.703125 32.40625 38.5 39 27.5 39 
C 22.296875 39 16.59375 35.90625 12.59375 31 
C 13 51.203125 20.5 58.09375 29.40625 58.09375 
C 33.40625 58.09375 37.296875 56.203125 39.90625 53.09375 
z
" id="SourceSansPro-Regular-36"/>
      </defs>
      <g transform="translate(162.3630549 357.134235)scale(0.12 -0.12)">
       <use xlink:href="#SourceSansPro-Regular-31"/>
       <use x="49.69999694824219" xlink:href="#SourceSansPro-Regular-36"/>
       <use x="99.39999389648438" xlink:href="#SourceSansPro-Regular-3a"/>
       <use x="124.29998779296875" xlink:href="#SourceSansPro-Regular-30"/>
       <use x="173.99998474121094" xlink:href="#SourceSansPro-Regular-30"/>
      </g>
     </g>
    </g>
    <g id="xtick_4">
     <g id="line2d_10">
      <path clip-path="url(#p9cb792d456)" d="M 230.225204 338.58986 
L 230.225204 50.58986 
" style="fill:none;stroke:#8fa7bf;stroke-linecap:square;stroke-width:0.5;"/>
     </g>
     <g id="line2d_11">
      <g>
       <use style="stroke:#000000;stroke-width:0.5;" x="230.225204468" xlink:href="#md0b7b6dd5d" y="338.58986"/>
      </g>
     </g>
     <g id="line2d_12">
      <g>
       <use style="stroke:#000000;stroke-width:0.5;" x="230.225204468" xlink:href="#m3544f0ccc0" y="50.58986"/>
      </g>
     </g>
     <g id="text_4">
      <!-- 17:00 -->
      <defs>
       <path d="M 17.703125 0 
L 26.203125 0 
C 27.296875 24.90625 30.40625 39.40625 45.5 58.703125 
L 45.5 63.796875 
L 4.40625 63.796875 
L 4.40625 56.703125 
L 36.203125 56.703125 
C 23.59375 39.203125 18.796875 24 17.703125 0 
" id="SourceSansPro-Regular-37"/>
      </defs>
      <g transform="translate(216.802079468 357.134235)scale(0.12 -0.12)">
       <use xlink:href="#SourceSansPro-Regular-31"/>
       <use x="49.69999694824219" xlink:href="#SourceSansPro-Regular-37"/>
       <use x="99.39999389648438" xlink:href="#SourceSansPro-Regular-3a"/>
       <use x="124.29998779296875" xlink:href="#SourceSansPro-Regular-30"/>
       <use x="173.99998474121094" xlink:href="#SourceSansPro-Regular-30"/>
      </g>
     </g>
    </g>
    <g id="xtick_5">
     <g id="line2d_13">
      <path clip-path="url(#p9cb792d456)" d="M 284.664229 338.58986 
L 284.664229 50.58986 
" style="fill:none;stroke:#8fa7bf;stroke-linecap:square;stroke-width:0.5;"/>
     </g>
     <g id="line2d_14">
      <g>
       <use style="stroke:#000000;stroke-width:0.5;" x="284.664228797" xlink:href="#md0b7b6dd5d" y="338.58986"/>
      </g>
     </g>
     <g id="line2d_15">
      <g>
       <use style="stroke:#000000;stroke-width:0.5;" x="284.664228797" xlink:href="#m3544f0ccc0" y="50.58986"/>
      </g>
     </g>
     <g id="text_5">
      <!-- 18:00 -->
      <defs>
       <path d="M 11.5 17.09375 
C 11.5 22.90625 15.296875 27.59375 20.40625 31 
C 29.59375 27.296875 37.703125 24.296875 37.703125 16.09375 
C 37.703125 9.5 32.59375 4.90625 25.203125 4.90625 
C 17.40625 4.90625 11.5 10 11.5 17.09375 
M 29.5 34.796875 
C 21.796875 37.796875 14.796875 41 14.796875 48.59375 
C 14.796875 54.796875 19.203125 58.90625 25.09375 58.90625 
C 32.09375 58.90625 36.203125 53.90625 36.203125 47.59375 
C 36.203125 42.90625 33.796875 38.59375 29.5 34.796875 
M 4.09375 16.296875 
C 4.09375 6.203125 13 -1.203125 25 -1.203125 
C 37.40625 -1.203125 45.59375 6.296875 45.59375 15.796875 
C 45.59375 24.40625 40.203125 28.90625 34.5 32.203125 
L 34.5 32.59375 
C 38.40625 35.59375 43.296875 41.296875 43.296875 48 
C 43.296875 57.90625 36.40625 65 25.296875 65 
C 15 65 7.203125 58.40625 7.203125 48.59375 
C 7.203125 41.90625 11.40625 37.203125 16.09375 33.90625 
L 16.09375 33.5 
C 10.09375 30.296875 4.09375 24.59375 4.09375 16.296875 
" id="SourceSansPro-Regular-38"/>
      </defs>
      <g transform="translate(271.241103797 357.134235)scale(0.12 -0.12)">
       <use xlink:href="#SourceSansPro-Regular-31"/>
       <use x="49.69999694824219" xlink:href="#SourceSansPro-Regular-38"/>
       <use x="99.39999389648438" xlink:href="#SourceSansPro-Regular-3a"/>
       <use x="124.29998779296875" xlink:href="#SourceSansPro-Regular-30"/>
       <use x="173.99998474121094" xlink:href="#SourceSansPro-Regular-30"/>
      </g>
     </g>
    </g>
    <g id="xtick_6">
     <g id="line2d_16">
      <path clip-path="url(#p9cb792d456)" d="M 339.103253 338.58986 
L 339.103253 50.58986 
" style="fill:none;stroke:#8fa7bf;stroke-linecap:square;stroke-width:0.5;"/>
     </g>
     <g id="line2d_17">
      <g>
       <use style="stroke:#000000;stroke-width:0.5;" x="339.103253126" xlink:href="#md0b7b6dd5d" y="338.58986"/>
      </g>
     </g>
     <g id="line2d_18">
      <g>
       <use style="stroke:#000000;stroke-width:0.5;" x="339.103253126" xlink:href="#m3544f0ccc0" y="50.58986"/>
      </g>
     </g>
     <g id="text_6">
      <!-- 19:00 -->
      <defs>
       <path d="M 23.5 31 
C 15.59375 31 11.703125 36.203125 11.703125 44.5 
C 11.703125 52.90625 16.59375 58.5 22.796875 58.5 
C 30.90625 58.5 35.796875 51.90625 36.90625 39.5 
C 32.59375 33.40625 27.59375 31 23.5 31 
M 5.09375 5.5 
C 8.59375 1.703125 13.703125 -1.203125 20.5 -1.203125 
C 33.203125 -1.203125 44.796875 8.703125 44.796875 34.296875 
C 44.796875 54.796875 35.40625 65 22.796875 65 
C 12.59375 65 4 56.703125 4 44.5 
C 4 31.40625 11.09375 24.796875 22.09375 24.796875 
C 27.40625 24.796875 33.09375 27.90625 37.09375 33 
C 36.796875 12.59375 29.203125 5.59375 20.203125 5.59375 
C 16.203125 5.59375 12.296875 7.59375 9.703125 10.703125 
z
" id="SourceSansPro-Regular-39"/>
      </defs>
      <g transform="translate(325.680128126 357.134235)scale(0.12 -0.12)">
       <use xlink:href="#SourceSansPro-Regular-31"/>
       <use x="49.69999694824219" xlink:href="#SourceSansPro-Regular-39"/>
       <use x="99.39999389648438" xlink:href="#SourceSansPro-Regular-3a"/>
       <use x="124.29998779296875" xlink:href="#SourceSansPro-Regular-30"/>
       <use x="173.99998474121094" xlink:href="#SourceSansPro-Regular-30"/>
      </g>
     </g>
    </g>
    <g id="xtick_7">
     <g id="line2d_19">
      <path clip-path="url(#p9cb792d456)" d="M 393.542278 338.58986 
L 393.542278 50.58986 
" style="fill:none;stroke:#8fa7bf;stroke-linecap:square;stroke-width:0.5;"/>
     </g>
     <g id="line2d_20">
      <g>
       <use style="stroke:#000000;stroke-width:0.5;" x="393.542277575" xlink:href="#md0b7b6dd5d" y="338.58986"/>
      </g>
     </g>
     <g id="line2d_21">
      <g>
       <use style="stroke:#000000;stroke-width:0.5;" x="393.542277575" xlink:href="#m3544f0ccc0" y="50.58986"/>
      </g>
     </g>
     <g id="text_7">
      <!-- 20:00 -->
      <defs>
       <path d="M 4 0 
L 45.203125 0 
L 45.203125 7.09375 
L 26.703125 7.09375 
C 23.40625 7.09375 19.5 6.796875 16 6.5 
C 31.09375 22.296875 42 34.203125 42 46.203125 
C 42 57.5 34.703125 65 22.90625 65 
C 14.59375 65 8.90625 61.09375 3.59375 55.296875 
L 8.296875 50.59375 
C 12 54.90625 16.59375 58.296875 21.90625 58.296875 
C 30 58.296875 34 53.09375 34 45.796875 
C 34 35.5 23.203125 24 4 4.90625 
z
" id="SourceSansPro-Regular-32"/>
      </defs>
      <g transform="translate(380.119152575 357.134235)scale(0.12 -0.12)">
       <use xlink:href="#SourceSansPro-Regular-32"/>
       <use x="49.69999694824219" xlink:href="#SourceSansPro-Regular-30"/>
       <use x="99.39999389648438" xlink:href="#SourceSansPro-Regular-3a"/>
       <use x="124.29998779296875" xlink:href="#SourceSansPro-Regular-30"/>
       <use x="173.99998474121094" xlink:href="#SourceSansPro-Regular-30"/>
      </g>
     </g>
    </g>
    <g id="xtick_8">
     <g id="line2d_22">
      <path clip-path="url(#p9cb792d456)" d="M 447.981302 338.58986 
L 447.981302 50.58986 
" style="fill:none;stroke:#8fa7bf;stroke-linecap:square;stroke-width:0.5;"/>
     </g>
     <g id="line2d_23">
      <g>
       <use style="stroke:#000000;stroke-width:0.5;" x="447.981301904" xlink:href="#md0b7b6dd5d" y="338.58986"/>
      </g>
     </g>
     <g id="line2d_24">
      <g>
       <use style="stroke:#000000;stroke-width:0.5;" x="447.981301904" xlink:href="#m3544f0ccc0" y="50.58986"/>
      </g>
     </g>
     <g id="text_8">
      <!-- 21:00 -->
      <g transform="translate(434.558176904 357.134235)scale(0.12 -0.12)">
       <use xlink:href="#SourceSansPro-Regular-32"/>
       <use x="49.69999694824219" xlink:href="#SourceSansPro-Regular-31"/>
       <use x="99.39999389648438" xlink:href="#SourceSansPro-Regular-3a"/>
       <use x="124.29998779296875" xlink:href="#SourceSansPro-Regular-30"/>
       <use x="173.99998474121094" xlink:href="#SourceSansPro-Regular-30"/>
      </g>
     </g>
    </g>
    <g id="xtick_9">
     <g id="line2d_25">
      <path clip-path="url(#p9cb792d456)" d="M 502.420326 338.58986 
L 502.420326 50.58986 
" style="fill:none;stroke:#8fa7bf;stroke-linecap:square;stroke-width:0.5;"/>
     </g>
     <g id="line2d_26">
      <g>
       <use style="stroke:#000000;stroke-width:0.5;" x="502.420326233" xlink:href="#md0b7b6dd5d" y="338.58986"/>
      </g>
     </g>
     <g id="line2d_27">
      <g>
       <use style="stroke:#000000;stroke-width:0.5;" x="502.420326233" xlink:href="#m3544f0ccc0" y="50.58986"/>
      </g>
     </g>
     <g id="text_9">
      <!-- 22:00 -->
      <g transform="translate(488.997201233 357.134235)scale(0.12 -0.12)">
       <use xlink:href="#SourceSansPro-Regular-32"/>
       <use x="49.69999694824219" xlink:href="#SourceSansPro-Regular-32"/>
       <use x="99.39999389648438" xlink:href="#SourceSansPro-Regular-3a"/>
       <use x="124.29998779296875" xlink:href="#SourceSansPro-Regular-30"/>
       <use x="173.99998474121094" xlink:href="#SourceSansPro-Regular-30"/>
      </g>
     </g>
    </g>
    <g id="xtick_10">
     <g id="line2d_28">
      <path clip-path="url(#p9cb792d456)" d="M 556.859351 338.58986 
L 556.859351 50.58986 
" style="fill:none;stroke:#8fa7bf;stroke-linecap:square;stroke-width:0.5;"/>
     </g>
     <g id="line2d_29">
      <g>
       <use style="stroke:#000000;stroke-width:0.5;" x="556.859350681" xlink:href="#md0b7b6dd5d" y="338.58986"/>
      </g>
     </g>
     <g id="line2d_30">
      <g>
       <use style="stroke:#000000;stroke-width:0.5;" x="556.859350681" xlink:href="#m3544f0ccc0" y="50.58986"/>
      </g>
     </g>
     <g id="text_10">
      <!-- 23:00 -->
      <defs>
       <path d="M 2.59375 7.796875 
C 6.90625 3.09375 13.40625 -1.203125 23.59375 -1.203125 
C 35.296875 -1.203125 44.59375 5.703125 44.59375 17 
C 44.59375 25.796875 38.5 31.40625 30.796875 33.203125 
L 30.796875 33.59375 
C 37.703125 36.203125 42.40625 41.09375 42.40625 48.796875 
C 42.40625 59.09375 34.40625 65 23.296875 65 
C 15.796875 65 9.90625 61.59375 5 57 
L 9.40625 51.796875 
C 13.203125 55.59375 17.703125 58.296875 23 58.296875 
C 29.796875 58.296875 34 54.40625 34 48.203125 
C 34 41.5 29.5 36.296875 15.90625 36.296875 
L 15.90625 30 
C 31.09375 30 36.296875 24.90625 36.296875 17.296875 
C 36.296875 10.203125 30.796875 5.59375 23.09375 5.59375 
C 15.59375 5.59375 10.59375 9.203125 6.796875 13.203125 
z
" id="SourceSansPro-Regular-33"/>
      </defs>
      <g transform="translate(543.436225681 357.134235)scale(0.12 -0.12)">
       <use xlink:href="#SourceSansPro-Regular-32"/>
       <use x="49.69999694824219" xlink:href="#SourceSansPro-Regular-33"/>
       <use x="99.39999389648438" xlink:href="#SourceSansPro-Regular-3a"/>
       <use x="124.29998779296875" xlink:href="#SourceSansPro-Regular-30"/>
       <use x="173.99998474121094" xlink:href="#SourceSansPro-Regular-30"/>
      </g>
     </g>
    </g>
    <g id="xtick_11">
     <g id="line2d_31">
      <path clip-path="url(#p9cb792d456)" d="M 611.298375 338.58986 
L 611.298375 50.58986 
" style="fill:none;stroke:#8fa7bf;stroke-linecap:square;stroke-width:0.5;"/>
     </g>
     <g id="line2d_32">
      <g>
       <use style="stroke:#000000;stroke-width:0.5;" x="611.29837513" xlink:href="#md0b7b6dd5d" y="338.58986"/>
      </g>
     </g>
     <g id="line2d_33">
      <g>
       <use style="stroke:#000000;stroke-width:0.5;" x="611.29837513" xlink:href="#m3544f0ccc0" y="50.58986"/>
      </g>
     </g>
     <g id="text_11">
      <!-- 00:00 -->
      <g transform="translate(597.87525013 357.134235)scale(0.12 -0.12)">
       <use xlink:href="#SourceSansPro-Regular-30"/>
       <use x="49.69999694824219" xlink:href="#SourceSansPro-Regular-30"/>
       <use x="99.39999389648438" xlink:href="#SourceSansPro-Regular-3a"/>
       <use x="124.29998779296875" xlink:href="#SourceSansPro-Regular-30"/>
       <use x="173.99998474121094" xlink:href="#SourceSansPro-Regular-30"/>
      </g>
     </g>
    </g>
    <g id="text_12">
     <!-- Time -->
     <defs>
      <path d="M 12.40625 58.59375 
C 15.59375 58.59375 18.09375 60.796875 18.09375 63.90625 
C 18.09375 67.09375 15.59375 69.203125 12.40625 69.203125 
C 9.203125 69.203125 6.703125 67.09375 6.703125 63.90625 
C 6.703125 60.796875 9.203125 58.59375 12.40625 58.59375 
M 8.203125 0 
L 16.40625 0 
L 16.40625 48.59375 
L 8.203125 48.59375 
z
" id="SourceSansPro-Regular-69"/>
      <path d="M 4.59375 24.203125 
C 4.59375 8.296875 14.90625 -1.203125 27.90625 -1.203125 
C 34.5 -1.203125 39.703125 1.09375 43.90625 3.796875 
L 41 9.203125 
C 37.40625 6.90625 33.5 5.40625 28.90625 5.40625 
C 19.59375 5.40625 13.296875 12 12.703125 22.5 
L 45.5 22.5 
C 45.703125 23.703125 45.796875 25.296875 45.796875 27 
C 45.796875 40.90625 38.796875 49.796875 26.40625 49.796875 
C 15.296875 49.796875 4.59375 40.09375 4.59375 24.203125 
M 12.59375 27.90625 
C 13.59375 37.703125 19.796875 43.296875 26.59375 43.296875 
C 34.203125 43.296875 38.59375 37.796875 38.59375 27.90625 
z
" id="SourceSansPro-Regular-65"/>
      <path d="M 8.203125 0 
L 16.40625 0 
L 16.40625 35.203125 
C 20.90625 40.203125 25 42.703125 28.59375 42.703125 
C 34.796875 42.703125 37.703125 38.796875 37.703125 29.703125 
L 37.703125 0 
L 45.90625 0 
L 45.90625 35.203125 
C 50.40625 40.203125 54.296875 42.703125 58.09375 42.703125 
C 64.203125 42.703125 67.09375 38.796875 67.09375 29.703125 
L 67.09375 0 
L 75.296875 0 
L 75.296875 30.796875 
C 75.296875 43.203125 70.5 49.796875 60.5 49.796875 
C 54.59375 49.796875 49.59375 46 44.5 40.5 
C 42.5 46.296875 38.5 49.796875 31.09375 49.796875 
C 25.296875 49.796875 20.203125 46.203125 16 41.59375 
L 15.703125 41.59375 
L 15 48.59375 
L 8.203125 48.59375 
z
" id="SourceSansPro-Regular-6d"/>
      <path d="M 22.59375 0 
L 31 0 
L 31 58.59375 
L 50.796875 58.59375 
L 50.796875 65.59375 
L 2.796875 65.59375 
L 2.796875 58.59375 
L 22.59375 58.59375 
z
" id="SourceSansPro-Regular-54"/>
     </defs>
     <g transform="translate(317.128875 374.847485)scale(0.144 -0.144)">
      <use xlink:href="#SourceSansPro-Regular-54"/>
      <use x="53.59999084472656" xlink:href="#SourceSansPro-Regular-69"/>
      <use x="78.19998168945312" xlink:href="#SourceSansPro-Regular-6d"/>
      <use x="161.0999755859375" xlink:href="#SourceSansPro-Regular-65"/>
     </g>
    </g>
   </g>
   <g id="matplotlib.axis_2">
    <g id="ytick_1">
     <g id="line2d_34">
      <path clip-path="url(#p9cb792d456)" d="M 53.298375 309.78986 
L 611.298375 309.78986 
" style="fill:none;stroke:#8fa7bf;stroke-linecap:square;stroke-width:0.5;"/>
     </g>
     <g id="line2d_35">
      <defs>
       <path d="M 0 0 
L 6 0 
" id="m8c75edaa14" style="stroke:#000000;stroke-width:0.5;"/>
      </defs>
      <g>
       <use style="stroke:#000000;stroke-width:0.5;" x="53.298375" xlink:href="#m8c75edaa14" y="309.78986"/>
      </g>
     </g>
     <g id="line2d_36">
      <defs>
       <path d="M 0 0 
L -6 0 
" id="m11e0927276" style="stroke:#000000;stroke-width:0.5;"/>
      </defs>
      <g>
       <use style="stroke:#000000;stroke-width:0.5;" x="611.298375" xlink:href="#m11e0927276" y="309.78986"/>
      </g>
     </g>
     <g id="text_13">
      <!-- 10 -->
      <g transform="translate(31.369625 312.8320475)scale(0.12 -0.12)">
       <use xlink:href="#SourceSansPro-Regular-31"/>
       <use x="49.69999694824219" xlink:href="#SourceSansPro-Regular-30"/>
      </g>
     </g>
    </g>
    <g id="ytick_2">
     <g id="line2d_37">
      <path clip-path="url(#p9cb792d456)" d="M 53.298375 280.98986 
L 611.298375 280.98986 
" style="fill:none;stroke:#8fa7bf;stroke-linecap:square;stroke-width:0.5;"/>
     </g>
     <g id="line2d_38">
      <g>
       <use style="stroke:#000000;stroke-width:0.5;" x="53.298375" xlink:href="#m8c75edaa14" y="280.98986"/>
      </g>
     </g>
     <g id="line2d_39">
      <g>
       <use style="stroke:#000000;stroke-width:0.5;" x="611.298375" xlink:href="#m11e0927276" y="280.98986"/>
      </g>
     </g>
     <g id="text_14">
      <!-- 20 -->
      <g transform="translate(31.369625 284.0320475)scale(0.12 -0.12)">
       <use xlink:href="#SourceSansPro-Regular-32"/>
       <use x="49.69999694824219" xlink:href="#SourceSansPro-Regular-30"/>
      </g>
     </g>
    </g>
    <g id="ytick_3">
     <g id="line2d_40">
      <path clip-path="url(#p9cb792d456)" d="M 53.298375 252.18986 
L 611.298375 252.18986 
" style="fill:none;stroke:#8fa7bf;stroke-linecap:square;stroke-width:0.5;"/>
     </g>
     <g id="line2d_41">
      <g>
       <use style="stroke:#000000;stroke-width:0.5;" x="53.298375" xlink:href="#m8c75edaa14" y="252.18986"/>
      </g>
     </g>
     <g id="line2d_42">
      <g>
       <use style="stroke:#000000;stroke-width:0.5;" x="611.298375" xlink:href="#m11e0927276" y="252.18986"/>
      </g>
     </g>
     <g id="text_15">
      <!-- 30 -->
      <g transform="translate(31.369625 255.2320475)scale(0.12 -0.12)">
       <use xlink:href="#SourceSansPro-Regular-33"/>
       <use x="49.69999694824219" xlink:href="#SourceSansPro-Regular-30"/>
      </g>
     </g>
    </g>
    <g id="ytick_4">
     <g id="line2d_43">
      <path clip-path="url(#p9cb792d456)" d="M 53.298375 223.38986 
L 611.298375 223.38986 
" style="fill:none;stroke:#8fa7bf;stroke-linecap:square;stroke-width:0.5;"/>
     </g>
     <g id="line2d_44">
      <g>
       <use style="stroke:#000000;stroke-width:0.5;" x="53.298375" xlink:href="#m8c75edaa14" y="223.38986"/>
      </g>
     </g>
     <g id="line2d_45">
      <g>
       <use style="stroke:#000000;stroke-width:0.5;" x="611.298375" xlink:href="#m11e0927276" y="223.38986"/>
      </g>
     </g>
     <g id="text_16">
      <!-- 40 -->
      <g transform="translate(31.369625 226.4320475)scale(0.12 -0.12)">
       <use xlink:href="#SourceSansPro-Regular-34"/>
       <use x="49.69999694824219" xlink:href="#SourceSansPro-Regular-30"/>
      </g>
     </g>
    </g>
    <g id="ytick_5">
     <g id="line2d_46">
      <path clip-path="url(#p9cb792d456)" d="M 53.298375 194.58986 
L 611.298375 194.58986 
" style="fill:none;stroke:#8fa7bf;stroke-linecap:square;stroke-width:0.5;"/>
     </g>
     <g id="line2d_47">
      <g>
       <use style="stroke:#000000;stroke-width:0.5;" x="53.298375" xlink:href="#m8c75edaa14" y="194.58986"/>
      </g>
     </g>
     <g id="line2d_48">
      <g>
       <use style="stroke:#000000;stroke-width:0.5;" x="611.298375" xlink:href="#m11e0927276" y="194.58986"/>
      </g>
     </g>
     <g id="text_17">
      <!-- 50 -->
      <g transform="translate(31.369625 197.6320475)scale(0.12 -0.12)">
       <use xlink:href="#SourceSansPro-Regular-35"/>
       <use x="49.69999694824219" xlink:href="#SourceSansPro-Regular-30"/>
      </g>
     </g>
    </g>
    <g id="ytick_6">
     <g id="line2d_49">
      <path clip-path="url(#p9cb792d456)" d="M 53.298375 165.78986 
L 611.298375 165.78986 
" style="fill:none;stroke:#8fa7bf;stroke-linecap:square;stroke-width:0.5;"/>
     </g>
     <g id="line2d_50">
      <g>
       <use style="stroke:#000000;stroke-width:0.5;" x="53.298375" xlink:href="#m8c75edaa14" y="165.78986"/>
      </g>
     </g>
     <g id="line2d_51">
      <g>
       <use style="stroke:#000000;stroke-width:0.5;" x="611.298375" xlink:href="#m11e0927276" y="165.78986"/>
      </g>
     </g>
     <g id="text_18">
      <!-- 60 -->
      <g transform="translate(31.369625 168.8320475)scale(0.12 -0.12)">
       <use xlink:href="#SourceSansPro-Regular-36"/>
       <use x="49.69999694824219" xlink:href="#SourceSansPro-Regular-30"/>
      </g>
     </g>
    </g>
    <g id="ytick_7">
     <g id="line2d_52">
      <path clip-path="url(#p9cb792d456)" d="M 53.298375 136.98986 
L 611.298375 136.98986 
" style="fill:none;stroke:#8fa7bf;stroke-linecap:square;stroke-width:0.5;"/>
     </g>
     <g id="line2d_53">
      <g>
       <use style="stroke:#000000;stroke-width:0.5;" x="53.298375" xlink:href="#m8c75edaa14" y="136.98986"/>
      </g>
     </g>
     <g id="line2d_54">
      <g>
       <use style="stroke:#000000;stroke-width:0.5;" x="611.298375" xlink:href="#m11e0927276" y="136.98986"/>
      </g>
     </g>
     <g id="text_19">
      <!-- 70 -->
      <g transform="translate(31.369625 140.0320475)scale(0.12 -0.12)">
       <use xlink:href="#SourceSansPro-Regular-37"/>
       <use x="49.69999694824219" xlink:href="#SourceSansPro-Regular-30"/>
      </g>
     </g>
    </g>
    <g id="ytick_8">
     <g id="line2d_55">
      <path clip-path="url(#p9cb792d456)" d="M 53.298375 108.18986 
L 611.298375 108.18986 
" style="fill:none;stroke:#8fa7bf;stroke-linecap:square;stroke-width:0.5;"/>
     </g>
     <g id="line2d_56">
      <g>
       <use style="stroke:#000000;stroke-width:0.5;" x="53.298375" xlink:href="#m8c75edaa14" y="108.18986"/>
      </g>
     </g>
     <g id="line2d_57">
      <g>
       <use style="stroke:#000000;stroke-width:0.5;" x="611.298375" xlink:href="#m11e0927276" y="108.18986"/>
      </g>
     </g>
     <g id="text_20">
      <!-- 80 -->
      <g transform="translate(31.369625 111.2320475)scale(0.12 -0.12)">
       <use xlink:href="#SourceSansPro-Regular-38"/>
       <use x="49.69999694824219" xlink:href="#SourceSansPro-Regular-30"/>
      </g>
     </g>
    </g>
    <g id="ytick_9">
     <g id="line2d_58">
      <path clip-path="url(#p9cb792d456)" d="M 53.298375 79.38986 
L 611.298375 79.38986 
" style="fill:none;stroke:#8fa7bf;stroke-linecap:square;stroke-width:0.5;"/>
     </g>
     <g id="line2d_59">
      <g>
       <use style="stroke:#000000;stroke-width:0.5;" x="53.298375" xlink:href="#m8c75edaa14" y="79.38986"/>
      </g>
     </g>
     <g id="line2d_60">
      <g>
       <use style="stroke:#000000;stroke-width:0.5;" x="611.298375" xlink:href="#m11e0927276" y="79.38986"/>
      </g>
     </g>
     <g id="text_21">
      <!-- 90 -->
      <g transform="translate(31.369625 82.4320475)scale(0.12 -0.12)">
       <use xlink:href="#SourceSansPro-Regular-39"/>
       <use x="49.69999694824219" xlink:href="#SourceSansPro-Regular-30"/>
      </g>
     </g>
    </g>
    <g id="ytick_10">
     <g id="line2d_61">
      <path clip-path="url(#p9cb792d456)" d="M 53.298375 50.58986 
L 611.298375 50.58986 
" style="fill:none;stroke:#8fa7bf;stroke-linecap:square;stroke-width:0.5;"/>
     </g>
     <g id="line2d_62">
      <g>
       <use style="stroke:#000000;stroke-width:0.5;" x="53.298375" xlink:href="#m8c75edaa14" y="50.58986"/>
      </g>
     </g>
     <g id="line2d_63">
      <g>
       <use style="stroke:#000000;stroke-width:0.5;" x="611.298375" xlink:href="#m11e0927276" y="50.58986"/>
      </g>
     </g>
     <g id="text_22">
      <!-- 100 -->
      <g transform="translate(25.40525 53.6320475)scale(0.12 -0.12)">
       <use xlink:href="#SourceSansPro-Regular-31"/>
       <use x="49.69999694824219" xlink:href="#SourceSansPro-Regular-30"/>
       <use x="99.39999389648438" xlink:href="#SourceSansPro-Regular-30"/>
      </g>
     </g>
    </g>
    <g id="text_23">
     <!-- Ticket cost (€) -->
     <defs>
      <path d="M 3.796875 -15.203125 
L 8.90625 -17.59375 
C 17.203125 -4.203125 22.09375 10.203125 22.09375 27.796875 
C 22.09375 45.40625 17.203125 59.796875 8.90625 73.203125 
L 3.796875 70.796875 
C 11.5 58.09375 15.296875 43 15.296875 27.796875 
C 15.296875 12.59375 11.5 -2.5 3.796875 -15.203125 
" id="SourceSansPro-Regular-29"/>
      <path id="SourceSansPro-Regular-20"/>
      <path d="M 44.203125 12.5 
C 40.796875 7.90625 37.296875 5.40625 32.40625 5.40625 
C 24.203125 5.40625 18.90625 12.203125 17.203125 23.5 
L 38.5 23.5 
L 38.5 28.296875 
L 16.703125 28.296875 
C 16.59375 29.5 16.59375 30.796875 16.59375 32.09375 
C 16.59375 33.09375 16.59375 34.09375 16.703125 35 
L 42.5 35 
L 42.5 39.90625 
L 17.09375 39.90625 
C 18.703125 51.40625 24.203125 58.40625 33 58.40625 
C 37.203125 58.40625 40.5 56 43.296875 52.5 
L 48.203125 57.203125 
C 44.703125 61.59375 39.296875 65 33.296875 65 
C 20.203125 65 11 55.59375 8.703125 39.90625 
L 2.296875 39.40625 
L 2.296875 35 
L 8.203125 35 
C 8.09375 34 8.09375 32.90625 8.09375 31.796875 
C 8.09375 30.59375 8.09375 29.40625 8.203125 28.203125 
L 2.296875 27.796875 
L 2.296875 23.5 
L 8.703125 23.5 
C 11 7.90625 19.90625 -1.203125 31.90625 -1.203125 
C 39.203125 -1.203125 44.703125 2.296875 49.09375 8.09375 
z
" id="SourceSansPro-Regular-20ac"/>
      <path d="M 2.796875 5.5 
C 7.40625 1.703125 14 -1.203125 20.90625 -1.203125 
C 32.40625 -1.203125 38.703125 5.40625 38.703125 13.296875 
C 38.703125 22.5 30.90625 25.40625 23.90625 28 
C 18.40625 30.09375 13.09375 31.796875 13.09375 36.40625 
C 13.09375 40.09375 15.90625 43.40625 22 43.40625 
C 26.296875 43.40625 29.796875 41.59375 33.09375 39.09375 
L 37 44.296875 
C 33.296875 47.296875 28 49.796875 21.90625 49.796875 
C 11.40625 49.796875 5.203125 43.796875 5.203125 36 
C 5.203125 27.796875 12.796875 24.5 19.703125 22 
C 25 20 30.796875 17.796875 30.796875 12.796875 
C 30.796875 8.59375 27.59375 5.203125 21.203125 5.203125 
C 15.40625 5.203125 11.09375 7.59375 6.90625 11 
z
" id="SourceSansPro-Regular-73"/>
      <path d="M 8.203125 0 
L 16.296875 0 
L 16.296875 12.796875 
L 25.40625 23.40625 
L 39.59375 0 
L 48.59375 0 
L 30.09375 29.09375 
L 46.40625 48.59375 
L 37.296875 48.59375 
L 16.59375 23 
L 16.296875 23 
L 16.296875 71.203125 
L 8.203125 71.203125 
z
" id="SourceSansPro-Regular-6b"/>
      <path d="M 4.59375 24.203125 
C 4.59375 8.09375 15.203125 -1.203125 27.09375 -1.203125 
C 39 -1.203125 49.59375 8.09375 49.59375 24.203125 
C 49.59375 40.5 39 49.796875 27.09375 49.796875 
C 15.203125 49.796875 4.59375 40.5 4.59375 24.203125 
M 13.09375 24.203125 
C 13.09375 35.40625 18.796875 43 27.09375 43 
C 35.5 43 41.09375 35.40625 41.09375 24.203125 
C 41.09375 13.09375 35.5 5.59375 27.09375 5.59375 
C 18.796875 5.59375 13.09375 13.09375 13.09375 24.203125 
" id="SourceSansPro-Regular-6f"/>
      <path d="M 9.59375 15 
C 9.59375 5.40625 13.09375 -1.203125 23.5 -1.203125 
C 26.5 -1.203125 29.796875 -0.296875 32.5 0.59375 
L 30.90625 6.796875 
C 29.296875 6.203125 27.09375 5.5 25.40625 5.5 
C 19.796875 5.5 17.90625 8.90625 17.90625 14.90625 
L 17.90625 41.90625 
L 31 41.90625 
L 31 48.59375 
L 17.90625 48.59375 
L 17.90625 62.203125 
L 11 62.203125 
L 10 48.59375 
L 2.40625 48.09375 
L 2.40625 41.90625 
L 9.59375 41.90625 
z
" id="SourceSansPro-Regular-74"/>
      <path d="M 21.40625 -17.59375 
L 26.5 -15.203125 
C 18.796875 -2.5 15 12.59375 15 27.796875 
C 15 43 18.796875 58.09375 26.5 70.796875 
L 21.40625 73.203125 
C 13.09375 59.796875 8.203125 45.40625 8.203125 27.796875 
C 8.203125 10.203125 13.09375 -4.203125 21.40625 -17.59375 
" id="SourceSansPro-Regular-28"/>
      <path d="M 4.59375 24.203125 
C 4.59375 8.09375 14.5 -1.203125 27.40625 -1.203125 
C 33.203125 -1.203125 38.796875 1.203125 43.203125 5.09375 
L 39.5 10.5 
C 36.59375 7.90625 32.703125 5.59375 28.09375 5.59375 
C 19.203125 5.59375 13.09375 13.09375 13.09375 24.203125 
C 13.09375 35.40625 19.5 43 28.296875 43 
C 32.203125 43 35.203125 41.203125 38.09375 38.703125 
L 42.203125 44 
C 38.90625 47.09375 34.40625 49.796875 28 49.796875 
C 15.5 49.796875 4.59375 40.5 4.59375 24.203125 
" id="SourceSansPro-Regular-63"/>
     </defs>
     <g transform="translate(17.45325 236.55686)rotate(-90.0)scale(0.144 -0.144)">
      <use xlink:href="#SourceSansPro-Regular-54"/>
      <use x="53.59999084472656" xlink:href="#SourceSansPro-Regular-69"/>
      <use x="78.19998168945312" xlink:href="#SourceSansPro-Regular-63"/>
      <use x="123.79997253417969" xlink:href="#SourceSansPro-Regular-6b"/>
      <use x="173.29995727539062" xlink:href="#SourceSansPro-Regular-65"/>
      <use x="222.8999481201172" xlink:href="#SourceSansPro-Regular-74"/>
      <use x="256.69993591308594" xlink:href="#SourceSansPro-Regular-20"/>
      <use x="276.8999328613281" xlink:href="#SourceSansPro-Regular-63"/>
      <use x="322.4999237060547" xlink:href="#SourceSansPro-Regular-6f"/>
      <use x="376.6999206542969" xlink:href="#SourceSansPro-Regular-73"/>
      <use x="418.59991455078125" xlink:href="#SourceSansPro-Regular-74"/>
      <use x="452.39990234375" xlink:href="#SourceSansPro-Regular-20"/>
      <use x="472.5998992919922" xlink:href="#SourceSansPro-Regular-28"/>
      <use x="502.89988708496094" xlink:href="#SourceSansPro-Regular-20ac"/>
      <use x="552.5998840332031" xlink:href="#SourceSansPro-Regular-29"/>
     </g>
    </g>
   </g>
   <g id="line2d_64">
    <defs>
     <path d="M 0 -4 
L -4 4 
L 4 4 
z
" id="m86c1754bcb" style="stroke:#000000;stroke-linejoin:miter;"/>
    </defs>
    <g clip-path="url(#p9cb792d456)">
     <use style="fill:#bd3338;stroke:#000000;stroke-linejoin:miter;" x="80.5178873539" xlink:href="#m86c1754bcb" y="192.86186"/>
     <use style="fill:#bd3338;stroke:#000000;stroke-linejoin:miter;" x="90.4983751774" xlink:href="#m86c1754bcb" y="137.99786"/>
     <use style="fill:#bd3338;stroke:#000000;stroke-linejoin:miter;" x="93.2203263044" xlink:href="#m86c1754bcb" y="150.00746"/>
     <use style="fill:#bd3338;stroke:#000000;stroke-linejoin:miter;" x="119.532521367" xlink:href="#m86c1754bcb" y="137.99786"/>
     <use style="fill:#bd3338;stroke:#000000;stroke-linejoin:miter;" x="134.956911683" xlink:href="#m86c1754bcb" y="192.86186"/>
     <use style="fill:#bd3338;stroke:#000000;stroke-linejoin:miter;" x="144.937399507" xlink:href="#m86c1754bcb" y="95.14346"/>
     <use style="fill:#bd3338;stroke:#000000;stroke-linejoin:miter;" x="147.659350634" xlink:href="#m86c1754bcb" y="65.99786"/>
     <use style="fill:#bd3338;stroke:#000000;stroke-linejoin:miter;" x="173.971545935" xlink:href="#m86c1754bcb" y="65.99786"/>
     <use style="fill:#bd3338;stroke:#000000;stroke-linejoin:miter;" x="189.395936131" xlink:href="#m86c1754bcb" y="150.00746"/>
     <use style="fill:#bd3338;stroke:#000000;stroke-linejoin:miter;" x="199.376423955" xlink:href="#m86c1754bcb" y="65.99786"/>
     <use style="fill:#bd3338;stroke:#000000;stroke-linejoin:miter;" x="202.098375201" xlink:href="#m86c1754bcb" y="150.00746"/>
     <use style="fill:#bd3338;stroke:#000000;stroke-linejoin:miter;" x="227.503253222" xlink:href="#m86c1754bcb" y="65.99786"/>
     <use style="fill:#bd3338;stroke:#000000;stroke-linejoin:miter;" x="230.225204468" xlink:href="#m86c1754bcb" y="65.99786"/>
     <use style="fill:#bd3338;stroke:#000000;stroke-linejoin:miter;" x="243.834960461" xlink:href="#m86c1754bcb" y="95.14346"/>
     <use style="fill:#bd3338;stroke:#000000;stroke-linejoin:miter;" x="257.444716573" xlink:href="#m86c1754bcb" y="65.99786"/>
     <use style="fill:#bd3338;stroke:#000000;stroke-linejoin:miter;" x="271.054472685" xlink:href="#m86c1754bcb" y="95.14346"/>
     <use style="fill:#bd3338;stroke:#000000;stroke-linejoin:miter;" x="281.942277551" xlink:href="#m86c1754bcb" y="65.99786"/>
     <use style="fill:#bd3338;stroke:#000000;stroke-linejoin:miter;" x="298.27398479" xlink:href="#m86c1754bcb" y="150.00746"/>
     <use style="fill:#bd3338;stroke:#000000;stroke-linejoin:miter;" x="307.347155571" xlink:href="#m86c1754bcb" y="150.00746"/>
     <use style="fill:#bd3338;stroke:#000000;stroke-linejoin:miter;" x="311.883741021" xlink:href="#m86c1754bcb" y="95.14346"/>
     <use style="fill:#bd3338;stroke:#000000;stroke-linejoin:miter;" x="336.38130188" xlink:href="#m86c1754bcb" y="95.14346"/>
     <use style="fill:#bd3338;stroke:#000000;stroke-linejoin:miter;" x="352.713009238" xlink:href="#m86c1754bcb" y="137.99786"/>
     <use style="fill:#bd3338;stroke:#000000;stroke-linejoin:miter;" x="364.508131146" xlink:href="#m86c1754bcb" y="137.99786"/>
     <use style="fill:#bd3338;stroke:#000000;stroke-linejoin:miter;" x="368.137399554" xlink:href="#m86c1754bcb" y="192.86186"/>
     <use style="fill:#bd3338;stroke:#000000;stroke-linejoin:miter;" x="389.005692124" xlink:href="#m86c1754bcb" y="150.00746"/>
     <use style="fill:#bd3338;stroke:#000000;stroke-linejoin:miter;" x="407.152033687" xlink:href="#m86c1754bcb" y="150.00746"/>
     <use style="fill:#bd3338;stroke:#000000;stroke-linejoin:miter;" x="417.132521391" xlink:href="#m86c1754bcb" y="192.86186"/>
     <use style="fill:#bd3338;stroke:#000000;stroke-linejoin:miter;" x="420.76178968" xlink:href="#m86c1754bcb" y="192.86186"/>
     <use style="fill:#bd3338;stroke:#000000;stroke-linejoin:miter;" x="443.444716573" xlink:href="#m86c1754bcb" y="192.86186"/>
     <use style="fill:#bd3338;stroke:#000000;stroke-linejoin:miter;" x="447.981301904" xlink:href="#m86c1754bcb" y="192.86186"/>
     <use style="fill:#bd3338;stroke:#000000;stroke-linejoin:miter;" x="475.200814128" xlink:href="#m86c1754bcb" y="278.59946"/>
     <use style="fill:#bd3338;stroke:#000000;stroke-linejoin:miter;" x="502.420326233" xlink:href="#m86c1754bcb" y="258.00746"/>
     <use style="fill:#bd3338;stroke:#000000;stroke-linejoin:miter;" x="525.103253126" xlink:href="#m86c1754bcb" y="268.28906"/>
     <use style="fill:#bd3338;stroke:#000000;stroke-linejoin:miter;" x="570.469106793" xlink:href="#m86c1754bcb" y="278.59946"/>
    </g>
   </g>
   <g id="line2d_65">
    <path clip-path="url(#p9cb792d456)" d="M 121.347156 154.71626 
L 175.78618 105.00026 
L 230.225204 99.6017 
L 284.664229 77.6561 
L 339.103253 122.57546 
L 393.542278 154.71626 
L 447.981302 184.29098 
L 502.420326 243.15626 
L 556.859351 263.14826 
L 611.298375 278.59946 
" style="fill:none;stroke:#bd3338;stroke-linecap:square;"/>
   </g>
   <g id="line2d_66">
    <defs>
     <path d="M 0 4 
C 1.060812 4 2.078319 3.578535 2.828427 2.828427 
C 3.578535 2.078319 4 1.060812 4 0 
C 4 -1.060812 3.578535 -2.078319 2.828427 -2.828427 
C 2.078319 -3.578535 1.060812 -4 0 -4 
C -1.060812 -4 -2.078319 -3.578535 -2.828427 -2.828427 
C -3.578535 -2.078319 -4 -1.060812 -4 0 
C -4 1.060812 -3.578535 2.078319 -2.828427 2.828427 
C -2.078319 3.578535 -1.060812 4 0 4 
z
" id="m3173db574c" style="stroke:#000000;"/>
    </defs>
    <g clip-path="url(#p9cb792d456)">
     <use style="fill:#1369bf;stroke:#000000;" x="91.4056921005" xlink:href="#m3173db574c" y="203.22986"/>
     <use style="fill:#1369bf;stroke:#000000;" x="148.566667795" xlink:href="#m3173db574c" y="223.38986"/>
     <use style="fill:#1369bf;stroke:#000000;" x="201.19105804" xlink:href="#m3173db574c" y="203.22986"/>
     <use style="fill:#1369bf;stroke:#000000;" x="257.444716573" xlink:href="#m3173db574c" y="203.22986"/>
     <use style="fill:#1369bf;stroke:#000000;" x="309.161789775" xlink:href="#m3173db574c" y="203.22986"/>
     <use style="fill:#1369bf;stroke:#000000;" x="363.600814104" xlink:href="#m3173db574c" y="203.22986"/>
     <use style="fill:#1369bf;stroke:#000000;" x="418.039838433" xlink:href="#m3173db574c" y="203.22986"/>
     <use style="fill:#1369bf;stroke:#000000;" x="475.200814128" xlink:href="#m3173db574c" y="203.22986"/>
     <use style="fill:#1369bf;stroke:#000000;" x="526.91788733" xlink:href="#m3173db574c" y="203.22986"/>
    </g>
   </g>
   <g id="line2d_67">
    <defs>
     <path d="M -0 4 
L 4 -4 
L -4 -4 
z
" id="m50b8df5c81" style="stroke:#000000;stroke-linejoin:miter;"/>
    </defs>
    <g clip-path="url(#p9cb792d456)">
     <use style="fill:#7436b3;stroke:#000000;stroke-linejoin:miter;" x="70.5373995304" xlink:href="#m50b8df5c81" y="283.86986"/>
     <use style="fill:#7436b3;stroke:#000000;stroke-linejoin:miter;" x="179.415448308" xlink:href="#m50b8df5c81" y="272.92586"/>
     <use style="fill:#7436b3;stroke:#000000;stroke-linejoin:miter;" x="203.913009167" xlink:href="#m50b8df5c81" y="275.22986"/>
     <use style="fill:#7436b3;stroke:#000000;stroke-linejoin:miter;" x="233.854472637" xlink:href="#m50b8df5c81" y="272.92586"/>
     <use style="fill:#7436b3;stroke:#000000;stroke-linejoin:miter;" x="236.576423883" xlink:href="#m50b8df5c81" y="272.92586"/>
     <use style="fill:#7436b3;stroke:#000000;stroke-linejoin:miter;" x="258.352033734" xlink:href="#m50b8df5c81" y="272.92586"/>
     <use style="fill:#7436b3;stroke:#000000;stroke-linejoin:miter;" x="285.571545839" xlink:href="#m50b8df5c81" y="272.92586"/>
     <use style="fill:#7436b3;stroke:#000000;stroke-linejoin:miter;" x="312.791058064" xlink:href="#m50b8df5c81" y="283.86986"/>
     <use style="fill:#7436b3;stroke:#000000;stroke-linejoin:miter;" x="342.732521534" xlink:href="#m50b8df5c81" y="272.92586"/>
     <use style="fill:#7436b3;stroke:#000000;stroke-linejoin:miter;" x="345.454472661" xlink:href="#m50b8df5c81" y="272.92586"/>
     <use style="fill:#7436b3;stroke:#000000;stroke-linejoin:miter;" x="367.230082393" xlink:href="#m50b8df5c81" y="275.22986"/>
     <use style="fill:#7436b3;stroke:#000000;stroke-linejoin:miter;" x="397.171545863" xlink:href="#m50b8df5c81" y="283.86986"/>
     <use style="fill:#7436b3;stroke:#000000;stroke-linejoin:miter;" x="454.332521319" xlink:href="#m50b8df5c81" y="272.92586"/>
     <use style="fill:#7436b3;stroke:#000000;stroke-linejoin:miter;" x="527.825204253" xlink:href="#m50b8df5c81" y="272.92586"/>
    </g>
   </g>
   <g id="line2d_68">
    <defs>
     <path d="M -4 4 
L 4 4 
L 4 -4 
L -4 -4 
z
" id="mc7d04580e6" style="stroke:#000000;stroke-linejoin:miter;"/>
    </defs>
    <g clip-path="url(#p9cb792d456)">
     <use style="fill:#00800a;stroke:#000000;stroke-linejoin:miter;" x="75.9813019037" xlink:href="#mc7d04580e6" y="283.29386"/>
     <use style="fill:#00800a;stroke:#000000;stroke-linejoin:miter;" x="103.200814128" xlink:href="#mc7d04580e6" y="283.29386"/>
     <use style="fill:#00800a;stroke:#000000;stroke-linejoin:miter;" x="130.420326352" xlink:href="#mc7d04580e6" y="283.29386"/>
     <use style="fill:#00800a;stroke:#000000;stroke-linejoin:miter;" x="157.639838457" xlink:href="#mc7d04580e6" y="283.29386"/>
     <use style="fill:#00800a;stroke:#000000;stroke-linejoin:miter;" x="184.859350681" xlink:href="#mc7d04580e6" y="283.29386"/>
     <use style="fill:#00800a;stroke:#000000;stroke-linejoin:miter;" x="212.078863025" xlink:href="#mc7d04580e6" y="283.29386"/>
     <use style="fill:#00800a;stroke:#000000;stroke-linejoin:miter;" x="239.29837513" xlink:href="#mc7d04580e6" y="283.29386"/>
     <use style="fill:#00800a;stroke:#000000;stroke-linejoin:miter;" x="266.517887354" xlink:href="#mc7d04580e6" y="283.29386"/>
     <use style="fill:#00800a;stroke:#000000;stroke-linejoin:miter;" x="293.737399578" xlink:href="#mc7d04580e6" y="283.29386"/>
     <use style="fill:#00800a;stroke:#000000;stroke-linejoin:miter;" x="320.956911683" xlink:href="#mc7d04580e6" y="283.29386"/>
     <use style="fill:#00800a;stroke:#000000;stroke-linejoin:miter;" x="348.176423907" xlink:href="#mc7d04580e6" y="283.29386"/>
     <use style="fill:#00800a;stroke:#000000;stroke-linejoin:miter;" x="375.395936131" xlink:href="#mc7d04580e6" y="283.29386"/>
     <use style="fill:#00800a;stroke:#000000;stroke-linejoin:miter;" x="402.615448236" xlink:href="#mc7d04580e6" y="283.29386"/>
     <use style="fill:#00800a;stroke:#000000;stroke-linejoin:miter;" x="429.834960461" xlink:href="#mc7d04580e6" y="283.29386"/>
     <use style="fill:#00800a;stroke:#000000;stroke-linejoin:miter;" x="457.054472685" xlink:href="#mc7d04580e6" y="283.29386"/>
     <use style="fill:#00800a;stroke:#000000;stroke-linejoin:miter;" x="484.27398479" xlink:href="#mc7d04580e6" y="283.29386"/>
     <use style="fill:#00800a;stroke:#000000;stroke-linejoin:miter;" x="511.493497014" xlink:href="#mc7d04580e6" y="283.29386"/>
     <use style="fill:#00800a;stroke:#000000;stroke-linejoin:miter;" x="538.713009238" xlink:href="#mc7d04580e6" y="283.29386"/>
     <use style="fill:#00800a;stroke:#000000;stroke-linejoin:miter;" x="564.117887378" xlink:href="#mc7d04580e6" y="283.29386"/>
     <use style="fill:#00800a;stroke:#000000;stroke-linejoin:miter;" x="591.337399483" xlink:href="#mc7d04580e6" y="283.29386"/>
    </g>
   </g>
   <g id="patch_3">
    <path d="M 53.298375 338.58986 
L 611.298375 338.58986 
" style="fill:none;stroke:#000000;stroke-linecap:square;stroke-linejoin:miter;"/>
   </g>
   <g id="patch_4">
    <path d="M 611.298375 338.58986 
L 611.298375 50.58986 
" style="fill:none;stroke:#000000;stroke-linecap:square;stroke-linejoin:miter;"/>
   </g>
   <g id="patch_5">
    <path d="M 53.298375 338.58986 
L 53.298375 50.58986 
" style="fill:none;stroke:#000000;stroke-linecap:square;stroke-linejoin:miter;"/>
   </g>
   <g id="patch_6">
    <path d="M 53.298375 50.58986 
L 611.298375 50.58986 
" style="fill:none;stroke:#000000;stroke-linecap:square;stroke-linejoin:miter;"/>
   </g>
   <g id="text_24">
    <!-- Cost of single train tickets leaving European -->
    <defs>
     <path d="M 31.90625 70.796875 
C 29.703125 71.703125 26.796875 72.40625 23.796875 72.40625 
C 14.09375 72.40625 9.59375 66.203125 9.59375 56.296875 
L 9.59375 48.59375 
L 3 48.09375 
L 3 41.90625 
L 9.59375 41.90625 
L 9.59375 0 
L 17.796875 0 
L 17.796875 41.90625 
L 28.09375 41.90625 
L 28.09375 48.59375 
L 17.796875 48.59375 
L 17.796875 56.296875 
C 17.796875 62.5 20 65.703125 24.59375 65.703125 
C 26.40625 65.703125 28.296875 65.296875 30.09375 64.5 
z
" id="SourceSansPro-Regular-66"/>
     <path d="M 9 0 
L 47.796875 0 
L 47.796875 7.09375 
L 17.296875 7.09375 
L 17.296875 30.90625 
L 42.203125 30.90625 
L 42.203125 38 
L 17.296875 38 
L 17.296875 58.59375 
L 46.796875 58.59375 
L 46.796875 65.59375 
L 9 65.59375 
z
" id="SourceSansPro-Regular-45"/>
     <path d="M 7.5 17.796875 
C 7.5 5.40625 12.09375 -1.203125 22.40625 -1.203125 
C 29.09375 -1.203125 33.90625 2.296875 38.40625 7.59375 
L 38.703125 7.59375 
L 39.40625 0 
L 46.203125 0 
L 46.203125 48.59375 
L 38 48.59375 
L 38 14.09375 
C 33.40625 8.40625 29.90625 5.90625 24.90625 5.90625 
C 18.5 5.90625 15.796875 9.796875 15.796875 18.90625 
L 15.796875 48.59375 
L 7.5 48.59375 
z
" id="SourceSansPro-Regular-75"/>
     <path d="M 11.703125 -8.203125 
C 11.703125 -5.40625 13.203125 -2.5 16.703125 0 
C 18.796875 -0.59375 21.09375 -0.796875 23 -0.796875 
L 31.40625 -0.796875 
C 37.703125 -0.796875 41.203125 -2.296875 41.203125 -6.796875 
C 41.203125 -11.90625 35.09375 -16.703125 25.796875 -16.703125 
C 17 -16.703125 11.703125 -13.40625 11.703125 -8.203125 
M 4.5 -9.296875 
C 4.5 -17.703125 12.703125 -22.40625 24.59375 -22.40625 
C 39.703125 -22.40625 49.203125 -14.59375 49.203125 -5.59375 
C 49.203125 2.5 43.5 6 32.203125 6 
L 22.796875 6 
C 16.203125 6 14.203125 8.203125 14.203125 11.296875 
C 14.203125 14 15.59375 15.59375 17.296875 17.09375 
C 19.5 16 22.203125 15.40625 24.59375 15.40625 
C 34.5 15.40625 42.40625 21.90625 42.40625 32.296875 
C 42.40625 36.40625 40.703125 40.09375 38.40625 42.296875 
L 48.40625 42.296875 
L 48.40625 48.59375 
L 31.5 48.59375 
C 29.703125 49.296875 27.296875 49.796875 24.59375 49.796875 
C 14.703125 49.796875 6.296875 43.09375 6.296875 32.5 
C 6.296875 26.703125 9.40625 22 12.59375 19.40625 
L 12.59375 19 
C 10.09375 17.296875 7.296875 14.09375 7.296875 10 
C 7.296875 6.203125 9.203125 3.59375 11.59375 2.09375 
L 11.59375 1.703125 
C 7.203125 -1.296875 4.5 -5.203125 4.5 -9.296875 
M 24.59375 20.90625 
C 19 20.90625 14.296875 25.40625 14.296875 32.5 
C 14.296875 39.59375 18.90625 43.796875 24.59375 43.796875 
C 30.296875 43.796875 34.90625 39.59375 34.90625 32.5 
C 34.90625 25.40625 30.203125 20.90625 24.59375 20.90625 
" id="SourceSansPro-Regular-67"/>
     <path d="M 8.203125 0 
L 16.40625 0 
L 16.40625 35.203125 
C 21.296875 40.09375 24.703125 42.703125 29.703125 42.703125 
C 36.09375 42.703125 38.90625 38.796875 38.90625 29.703125 
L 38.90625 0 
L 47.09375 0 
L 47.09375 30.796875 
C 47.09375 43.203125 42.5 49.796875 32.296875 49.796875 
C 25.59375 49.796875 20.59375 46.203125 16 41.59375 
L 15.703125 41.59375 
L 15 48.59375 
L 8.203125 48.59375 
z
" id="SourceSansPro-Regular-6e"/>
     <path d="M 8.203125 0 
L 16.40625 0 
L 16.40625 31.203125 
C 19.703125 39.40625 24.59375 42.40625 28.703125 42.40625 
C 30.703125 42.40625 31.796875 42.09375 33.40625 41.59375 
L 35 48.796875 
C 33.40625 49.5 31.90625 49.796875 29.796875 49.796875 
C 24.296875 49.796875 19.296875 45.90625 16 39.796875 
L 15.703125 39.796875 
L 15 48.59375 
L 8.203125 48.59375 
z
" id="SourceSansPro-Regular-72"/>
     <path d="M 18.703125 0 
L 28.296875 0 
L 45.5 48.59375 
L 37.40625 48.59375 
L 28.203125 21 
C 26.796875 16.203125 25.203125 11.296875 23.796875 6.703125 
L 23.40625 6.703125 
C 21.90625 11.296875 20.296875 16.203125 18.90625 21 
L 9.703125 48.59375 
L 1.203125 48.59375 
z
" id="SourceSansPro-Regular-76"/>
     <path d="M 5.203125 32.796875 
C 5.203125 11.40625 17.40625 -1.203125 33.90625 -1.203125 
C 42.296875 -1.203125 48.703125 2.296875 53.90625 8.296875 
L 49.203125 13.40625 
C 45 8.703125 40.40625 6.09375 34.09375 6.09375 
C 21.703125 6.09375 13.796875 16.5 13.796875 33 
C 13.796875 49.296875 22 59.5 34.5 59.5 
C 40 59.5 44.203125 57.09375 47.59375 53.40625 
L 52.296875 58.703125 
C 48.5 63 42.296875 66.796875 34.40625 66.796875 
C 17.59375 66.796875 5.203125 53.90625 5.203125 32.796875 
" id="SourceSansPro-Regular-43"/>
     <path d="M 5.796875 12.59375 
C 5.796875 3.90625 11.90625 -1.203125 20.09375 -1.203125 
C 26.09375 -1.203125 31.5 2 36.203125 5.796875 
L 36.40625 5.796875 
L 37.09375 0 
L 43.90625 0 
L 43.90625 29.796875 
C 43.90625 41.90625 38.90625 49.796875 27 49.796875 
C 19.203125 49.796875 12.40625 46.40625 7.90625 43.5 
L 11.203125 37.796875 
C 15 40.40625 20 43 25.703125 43 
C 33.59375 43 35.703125 37 35.703125 30.796875 
C 15 28.5 5.796875 23.203125 5.796875 12.59375 
M 13.90625 13.203125 
C 13.90625 19.40625 19.40625 23.40625 35.703125 25.40625 
L 35.703125 11.90625 
C 31 7.703125 27.09375 5.40625 22.40625 5.40625 
C 17.59375 5.40625 13.90625 7.703125 13.90625 13.203125 
" id="SourceSansPro-Regular-61"/>
     <path d="M 8.203125 9.796875 
C 8.203125 2.703125 10.703125 -1.203125 16.90625 -1.203125 
C 19.09375 -1.203125 20.5 -0.90625 21.59375 -0.40625 
L 20.5 5.796875 
C 19.59375 5.59375 19.203125 5.59375 18.703125 5.59375 
C 17.5 5.59375 16.40625 6.59375 16.40625 9.203125 
L 16.40625 71.203125 
L 8.203125 71.203125 
z
" id="SourceSansPro-Regular-6c"/>
     <path d="M 16.203125 4.40625 
C 20.703125 0.90625 25.203125 -1.203125 29.703125 -1.203125 
C 40.796875 -1.203125 50.703125 8.5 50.703125 25 
C 50.703125 40.09375 44 49.796875 31.5 49.796875 
C 25.796875 49.796875 20.40625 46.703125 16 43 
L 15.703125 43 
L 15 48.59375 
L 8.203125 48.59375 
L 8.203125 -20.5 
L 16.40625 -20.5 
L 16.40625 -4.09375 
z
M 16.40625 10.796875 
L 16.40625 36.296875 
C 21.203125 40.59375 25.296875 42.90625 29.40625 42.90625 
C 38.59375 42.90625 42.203125 35.703125 42.203125 25 
C 42.203125 13 36.296875 5.703125 28.296875 5.703125 
C 25.09375 5.703125 20.796875 7.09375 16.40625 10.796875 
" id="SourceSansPro-Regular-70"/>
    </defs>
    <g transform="translate(174.546825 19.971)scale(0.1728 -0.1728)">
     <use xlink:href="#SourceSansPro-Regular-43"/>
     <use x="57.09999084472656" xlink:href="#SourceSansPro-Regular-6f"/>
     <use x="111.29998779296875" xlink:href="#SourceSansPro-Regular-73"/>
     <use x="153.19998168945312" xlink:href="#SourceSansPro-Regular-74"/>
     <use x="186.99996948242188" xlink:href="#SourceSansPro-Regular-20"/>
     <use x="207.19996643066406" xlink:href="#SourceSansPro-Regular-6f"/>
     <use x="261.39996337890625" xlink:href="#SourceSansPro-Regular-66"/>
     <use x="290.59996032714844" xlink:href="#SourceSansPro-Regular-20"/>
     <use x="310.7999572753906" xlink:href="#SourceSansPro-Regular-73"/>
     <use x="352.699951171875" xlink:href="#SourceSansPro-Regular-69"/>
     <use x="377.29994201660156" xlink:href="#SourceSansPro-Regular-6e"/>
     <use x="431.99993896484375" xlink:href="#SourceSansPro-Regular-67"/>
     <use x="482.3999328613281" xlink:href="#SourceSansPro-Regular-6c"/>
     <use x="507.89991760253906" xlink:href="#SourceSansPro-Regular-65"/>
     <use x="557.4999084472656" xlink:href="#SourceSansPro-Regular-20"/>
     <use x="577.6999053955078" xlink:href="#SourceSansPro-Regular-74"/>
     <use x="611.4998931884766" xlink:href="#SourceSansPro-Regular-72"/>
     <use x="646.1998901367188" xlink:href="#SourceSansPro-Regular-61"/>
     <use x="697.3998870849609" xlink:href="#SourceSansPro-Regular-69"/>
     <use x="721.9998779296875" xlink:href="#SourceSansPro-Regular-6e"/>
     <use x="776.6998748779297" xlink:href="#SourceSansPro-Regular-20"/>
     <use x="796.8998718261719" xlink:href="#SourceSansPro-Regular-74"/>
     <use x="830.6998596191406" xlink:href="#SourceSansPro-Regular-69"/>
     <use x="855.2998504638672" xlink:href="#SourceSansPro-Regular-63"/>
     <use x="900.8998413085938" xlink:href="#SourceSansPro-Regular-6b"/>
     <use x="950.3998260498047" xlink:href="#SourceSansPro-Regular-65"/>
     <use x="999.9998168945312" xlink:href="#SourceSansPro-Regular-74"/>
     <use x="1033.7998046875" xlink:href="#SourceSansPro-Regular-73"/>
     <use x="1075.6997985839844" xlink:href="#SourceSansPro-Regular-20"/>
     <use x="1095.8997955322266" xlink:href="#SourceSansPro-Regular-6c"/>
     <use x="1121.3997802734375" xlink:href="#SourceSansPro-Regular-65"/>
     <use x="1170.999771118164" xlink:href="#SourceSansPro-Regular-61"/>
     <use x="1222.1997680664062" xlink:href="#SourceSansPro-Regular-76"/>
     <use x="1268.8997650146484" xlink:href="#SourceSansPro-Regular-69"/>
     <use x="1293.499755859375" xlink:href="#SourceSansPro-Regular-6e"/>
     <use x="1348.1997528076172" xlink:href="#SourceSansPro-Regular-67"/>
     <use x="1398.5997467041016" xlink:href="#SourceSansPro-Regular-20"/>
     <use x="1418.7997436523438" xlink:href="#SourceSansPro-Regular-45"/>
     <use x="1471.499740600586" xlink:href="#SourceSansPro-Regular-75"/>
     <use x="1525.8997344970703" xlink:href="#SourceSansPro-Regular-72"/>
     <use x="1560.5997314453125" xlink:href="#SourceSansPro-Regular-6f"/>
     <use x="1614.7997283935547" xlink:href="#SourceSansPro-Regular-70"/>
     <use x="1670.2997131347656" xlink:href="#SourceSansPro-Regular-65"/>
     <use x="1719.8997039794922" xlink:href="#SourceSansPro-Regular-61"/>
     <use x="1771.0997009277344" xlink:href="#SourceSansPro-Regular-6e"/>
    </g>
    <!-- capital cities on Friday December 23 2016 -->
    <defs>
     <path d="M 8.203125 0 
L 14.796875 0 
L 15.5 4.796875 
L 15.796875 4.796875 
C 20.09375 1 25.203125 -1.203125 29.703125 -1.203125 
C 40.796875 -1.203125 50.703125 8.5 50.703125 25.09375 
C 50.703125 40.09375 44 49.796875 31.40625 49.796875 
C 26 49.796875 20.59375 46.90625 16.203125 43 
L 16.40625 51.796875 
L 16.40625 71.203125 
L 8.203125 71.203125 
z
M 16.40625 10.796875 
L 16.40625 36.296875 
C 21 40.59375 25.296875 42.90625 29.40625 42.90625 
C 38.59375 42.90625 42.203125 35.703125 42.203125 25 
C 42.203125 13 36.296875 5.703125 28.296875 5.703125 
C 25.09375 5.703125 20.703125 7.09375 16.40625 10.796875 
" id="SourceSansPro-Regular-62"/>
     <path d="M 4.703125 24.203125 
C 4.703125 8 12.59375 -1.203125 24.796875 -1.203125 
C 30.5 -1.203125 35.703125 2 39.5 5.703125 
L 39.796875 5.703125 
L 40.5 0 
L 47.296875 0 
L 47.296875 71.203125 
L 39 71.203125 
L 39 52.5 
L 39.40625 44.203125 
C 35.09375 47.703125 31.40625 49.796875 25.796875 49.796875 
C 14.703125 49.796875 4.703125 40 4.703125 24.203125 
M 13.203125 24.296875 
C 13.203125 35.40625 19.40625 42.90625 27.203125 42.90625 
C 31.203125 42.90625 34.90625 41.5 39 37.796875 
L 39 12.40625 
C 35 7.90625 31.09375 5.703125 26.59375 5.703125 
C 18.09375 5.703125 13.203125 12.703125 13.203125 24.296875 
" id="SourceSansPro-Regular-64"/>
     <path d="M 4.90625 -13.40625 
L 3.296875 -19.90625 
C 4.90625 -20.5 6.796875 -20.90625 9 -20.90625 
C 18.796875 -20.90625 23.796875 -13.59375 27.203125 -4 
L 45.5 48.59375 
L 37.5 48.59375 
L 28.796875 21.703125 
C 27.5 17.40625 26.09375 12.40625 24.703125 8 
L 24.296875 8 
C 22.796875 12.5 21.09375 17.5 19.59375 21.703125 
L 9.703125 48.59375 
L 1.203125 48.59375 
L 20.703125 -0.09375 
L 19.59375 -3.703125 
C 17.59375 -9.703125 14.09375 -14.09375 8.59375 -14.09375 
C 7.40625 -14.09375 5.90625 -13.703125 4.90625 -13.40625 
" id="SourceSansPro-Regular-79"/>
     <path d="M 9 0 
L 25.796875 0 
C 45.59375 0 56.40625 12.203125 56.40625 33.09375 
C 56.40625 53.90625 45.59375 65.59375 25.40625 65.59375 
L 9 65.59375 
z
M 17.296875 6.796875 
L 17.296875 58.796875 
L 24.796875 58.796875 
C 40.09375 58.796875 47.796875 49.59375 47.796875 33.09375 
C 47.796875 16.5 40.09375 6.796875 24.796875 6.796875 
z
" id="SourceSansPro-Regular-44"/>
     <path d="M 9 0 
L 17.296875 0 
L 17.296875 29.40625 
L 42.296875 29.40625 
L 42.296875 36.40625 
L 17.296875 36.40625 
L 17.296875 58.59375 
L 46.796875 58.59375 
L 46.796875 65.59375 
L 9 65.59375 
z
" id="SourceSansPro-Regular-46"/>
    </defs>
    <g transform="translate(183.093675 38.60748)scale(0.1728 -0.1728)">
     <use xlink:href="#SourceSansPro-Regular-63"/>
     <use x="45.59999084472656" xlink:href="#SourceSansPro-Regular-61"/>
     <use x="96.79998779296875" xlink:href="#SourceSansPro-Regular-70"/>
     <use x="152.2999725341797" xlink:href="#SourceSansPro-Regular-69"/>
     <use x="176.89996337890625" xlink:href="#SourceSansPro-Regular-74"/>
     <use x="210.699951171875" xlink:href="#SourceSansPro-Regular-61"/>
     <use x="261.8999481201172" xlink:href="#SourceSansPro-Regular-6c"/>
     <use x="287.3999328613281" xlink:href="#SourceSansPro-Regular-20"/>
     <use x="307.5999298095703" xlink:href="#SourceSansPro-Regular-63"/>
     <use x="353.1999206542969" xlink:href="#SourceSansPro-Regular-69"/>
     <use x="377.79991149902344" xlink:href="#SourceSansPro-Regular-74"/>
     <use x="411.5998992919922" xlink:href="#SourceSansPro-Regular-69"/>
     <use x="436.19989013671875" xlink:href="#SourceSansPro-Regular-65"/>
     <use x="485.7998809814453" xlink:href="#SourceSansPro-Regular-73"/>
     <use x="527.6998748779297" xlink:href="#SourceSansPro-Regular-20"/>
     <use x="547.8998718261719" xlink:href="#SourceSansPro-Regular-6f"/>
     <use x="602.0998687744141" xlink:href="#SourceSansPro-Regular-6e"/>
     <use x="656.7998657226562" xlink:href="#SourceSansPro-Regular-20"/>
     <use x="676.9998626708984" xlink:href="#SourceSansPro-Regular-46"/>
     <use x="726.3998565673828" xlink:href="#SourceSansPro-Regular-72"/>
     <use x="761.099853515625" xlink:href="#SourceSansPro-Regular-69"/>
     <use x="785.6998443603516" xlink:href="#SourceSansPro-Regular-64"/>
     <use x="841.1998291015625" xlink:href="#SourceSansPro-Regular-61"/>
     <use x="892.3998260498047" xlink:href="#SourceSansPro-Regular-79"/>
     <use x="939.0998229980469" xlink:href="#SourceSansPro-Regular-20"/>
     <use x="959.2998199462891" xlink:href="#SourceSansPro-Regular-44"/>
     <use x="1020.7998046875" xlink:href="#SourceSansPro-Regular-65"/>
     <use x="1070.3997955322266" xlink:href="#SourceSansPro-Regular-63"/>
     <use x="1115.9997863769531" xlink:href="#SourceSansPro-Regular-65"/>
     <use x="1165.5997772216797" xlink:href="#SourceSansPro-Regular-6d"/>
     <use x="1248.499771118164" xlink:href="#SourceSansPro-Regular-62"/>
     <use x="1303.999755859375" xlink:href="#SourceSansPro-Regular-65"/>
     <use x="1353.5997467041016" xlink:href="#SourceSansPro-Regular-72"/>
     <use x="1388.2997436523438" xlink:href="#SourceSansPro-Regular-20"/>
     <use x="1408.499740600586" xlink:href="#SourceSansPro-Regular-32"/>
     <use x="1458.1997375488281" xlink:href="#SourceSansPro-Regular-33"/>
     <use x="1507.8997344970703" xlink:href="#SourceSansPro-Regular-20"/>
     <use x="1528.0997314453125" xlink:href="#SourceSansPro-Regular-32"/>
     <use x="1577.7997283935547" xlink:href="#SourceSansPro-Regular-30"/>
     <use x="1627.4997253417969" xlink:href="#SourceSansPro-Regular-31"/>
     <use x="1677.199722290039" xlink:href="#SourceSansPro-Regular-36"/>
    </g>
   </g>
   <g id="legend_1">
    <g id="patch_7">
     <path d="M 495.448125 143.73086 
L 604.098375 143.73086 
L 604.098375 57.78986 
L 495.448125 57.78986 
z
" style="fill:#f7f8f9;stroke:#000000;stroke-linejoin:miter;"/>
    </g>
    <g id="line2d_69"/>
    <g id="line2d_70">
     <g>
      <use style="fill:#bd3338;stroke:#000000;stroke-linejoin:miter;" x="515.608125" xlink:href="#m86c1754bcb" y="68.76311"/>
     </g>
    </g>
    <g id="text_25">
     <!-- East Mids -->
     <defs>
      <path d="M 9 0 
L 16.703125 0 
L 16.703125 36.09375 
C 16.703125 41.90625 16 49.703125 15.59375 55.5 
L 16 55.5 
L 21.203125 40.90625 
L 33.90625 6.59375 
L 38.59375 6.59375 
L 51.203125 40.90625 
L 56.5 55.5 
L 56.90625 55.5 
C 56.40625 49.703125 55.796875 41.90625 55.796875 36.09375 
L 55.796875 0 
L 63.703125 0 
L 63.703125 65.59375 
L 53.90625 65.59375 
L 41.296875 30.40625 
L 36.703125 17 
L 36.296875 17 
L 31.5 30.40625 
L 18.796875 65.59375 
L 9 65.59375 
z
" id="SourceSansPro-Regular-4d"/>
     </defs>
     <g transform="translate(541.528125 73.80311)scale(0.144 -0.144)">
      <use xlink:href="#SourceSansPro-Regular-45"/>
      <use x="52.69999694824219" xlink:href="#SourceSansPro-Regular-61"/>
      <use x="103.89999389648438" xlink:href="#SourceSansPro-Regular-73"/>
      <use x="145.79998779296875" xlink:href="#SourceSansPro-Regular-74"/>
      <use x="179.5999755859375" xlink:href="#SourceSansPro-Regular-20"/>
      <use x="199.7999725341797" xlink:href="#SourceSansPro-Regular-4d"/>
      <use x="272.4999542236328" xlink:href="#SourceSansPro-Regular-69"/>
      <use x="297.0999450683594" xlink:href="#SourceSansPro-Regular-64"/>
      <use x="352.5999298095703" xlink:href="#SourceSansPro-Regular-73"/>
     </g>
    </g>
    <g id="line2d_71"/>
    <g id="line2d_72">
     <g>
      <use style="fill:#1369bf;stroke:#000000;" x="515.608125" xlink:href="#m3173db574c" y="89.16836"/>
     </g>
    </g>
    <g id="text_26">
     <!-- DB -->
     <defs>
      <path d="M 9 0 
L 29.90625 0 
C 44.59375 0 54.796875 6.296875 54.796875 19.203125 
C 54.796875 28.203125 49.203125 33.40625 39.59375 34.90625 
L 39.59375 35.296875 
C 47.296875 37.296875 51 43.09375 51 49.59375 
C 51 61.09375 41.796875 65.59375 28.5 65.59375 
L 9 65.59375 
z
M 17.296875 37.59375 
L 17.296875 59 
L 27.40625 59 
C 37.59375 59 42.796875 56 42.796875 48.90625 
C 42.796875 41.59375 38.203125 37.59375 27 37.59375 
z
M 17.296875 6.59375 
L 17.296875 31.40625 
L 28.703125 31.40625 
C 40.203125 31.40625 46.59375 27.703125 46.59375 19.59375 
C 46.59375 10.703125 40 6.59375 28.703125 6.59375 
z
" id="SourceSansPro-Regular-42"/>
     </defs>
     <g transform="translate(541.528125 94.20836)scale(0.144 -0.144)">
      <use xlink:href="#SourceSansPro-Regular-44"/>
      <use x="61.49998474121094" xlink:href="#SourceSansPro-Regular-42"/>
     </g>
    </g>
    <g id="line2d_73"/>
    <g id="line2d_74">
     <g>
      <use style="fill:#7436b3;stroke:#000000;stroke-linejoin:miter;" x="515.608125" xlink:href="#m50b8df5c81" y="109.57361"/>
     </g>
    </g>
    <g id="text_27">
     <!-- SNCF -->
     <defs>
      <path d="M 4.203125 8.5 
C 9.90625 2.59375 18 -1.203125 27.203125 -1.203125 
C 41 -1.203125 49.5 7.09375 49.5 17.5 
C 49.5 27.203125 43.59375 31.703125 36 35 
L 26.703125 39 
C 21.5 41.203125 15.796875 43.59375 15.796875 49.90625 
C 15.796875 55.796875 20.703125 59.5 28 59.5 
C 34.09375 59.5 38.90625 57.09375 42.90625 53.296875 
L 47.40625 58.703125 
C 42.703125 63.5 35.796875 66.796875 28 66.796875 
C 16.09375 66.796875 7.40625 59.40625 7.40625 49.40625 
C 7.40625 39.796875 14.5 35.09375 20.703125 32.5 
L 30.09375 28.40625 
C 36.296875 25.59375 41 23.5 41 16.796875 
C 41 10.40625 35.90625 6.09375 27.296875 6.09375 
C 20.5 6.09375 13.90625 9.40625 9.203125 14.296875 
z
" id="SourceSansPro-Regular-53"/>
      <path d="M 9 0 
L 16.90625 0 
L 16.90625 34.296875 
C 16.90625 41.203125 16.296875 48.203125 15.796875 54.796875 
L 16.203125 54.796875 
L 23.296875 41.296875 
L 47.09375 0 
L 55.703125 0 
L 55.703125 65.59375 
L 47.796875 65.59375 
L 47.796875 31.703125 
C 47.796875 24.796875 48.40625 17.40625 48.796875 10.796875 
L 48.40625 10.796875 
L 41.296875 24.40625 
L 17.59375 65.59375 
L 9 65.59375 
z
" id="SourceSansPro-Regular-4e"/>
     </defs>
     <g transform="translate(541.528125 114.61361)scale(0.144 -0.144)">
      <use xlink:href="#SourceSansPro-Regular-53"/>
      <use x="53.399993896484375" xlink:href="#SourceSansPro-Regular-4e"/>
      <use x="118.09999084472656" xlink:href="#SourceSansPro-Regular-43"/>
      <use x="175.19998168945312" xlink:href="#SourceSansPro-Regular-46"/>
     </g>
    </g>
    <g id="line2d_75"/>
    <g id="line2d_76">
     <g>
      <use style="fill:#00800a;stroke:#000000;stroke-linejoin:miter;" x="515.608125" xlink:href="#mc7d04580e6" y="129.97886"/>
     </g>
    </g>
    <g id="text_28">
     <!-- NS -->
     <g transform="translate(541.528125 135.01886)scale(0.144 -0.144)">
      <use xlink:href="#SourceSansPro-Regular-4e"/>
      <use x="64.69999694824219" xlink:href="#SourceSansPro-Regular-53"/>
     </g>
    </g>
   </g>
  </g>
 </g>
 <defs>
  <clipPath id="p9cb792d456">
   <rect height="288.0" width="558.0" x="53.298375" y="50.58986"/>
  </clipPath>
 </defs>
</svg>
