<?xml version="1.0" encoding="utf-8" standalone="no"?>
<!DOCTYPE svg PUBLIC "-//W3C//DTD SVG 1.1//EN"
  "http://www.w3.org/Graphics/SVG/1.1/DTD/svg11.dtd">
<!-- Created with matplotlib (http://matplotlib.org/) -->
<svg height="484pt" version="1.1" viewBox="0 0 612 484" width="612pt" xmlns="http://www.w3.org/2000/svg" xmlns:xlink="http://www.w3.org/1999/xlink">
 <defs>
  <style type="text/css">
*{stroke-linecap:butt;stroke-linejoin:round;stroke-miterlimit:100000;}
  </style>
 </defs>
 <g id="figure_1">
  <g id="patch_1">
   <path d="M 0 484.181825 
L 612.534 484.181825 
L 612.534 0 
L 0 0 
L 0 484.181825 
z
" style="fill:none;"/>
  </g>
  <g id="axes_1">
   <g id="patch_2">
    <path d="M 47.334 437.7137 
L 605.334 437.7137 
L 605.334 34.5137 
L 47.334 34.5137 
L 47.334 437.7137 
z
" style="fill:none;"/>
   </g>
   <g id="matplotlib.axis_1">
    <g id="xtick_1">
     <g id="line2d_1">
      <path clip-path="url(#pe1826e869e)" d="M 47.334 437.7137 
L 47.334 34.5137 
" style="fill:none;stroke:#8fa7bf;stroke-linecap:square;stroke-width:0.5;"/>
     </g>
     <g id="line2d_2">
      <defs>
       <path d="M 0 0 
L 0 -6 
" id="m636838aabc" style="stroke:#000000;stroke-width:0.5;"/>
      </defs>
      <g>
       <use style="stroke:#000000;stroke-width:0.5;" x="47.334" xlink:href="#m636838aabc" y="437.7137"/>
      </g>
     </g>
     <g id="line2d_3">
      <defs>
       <path d="M 0 0 
L 0 6 
" id="ma875415214" style="stroke:#000000;stroke-width:0.5;"/>
      </defs>
      <g>
       <use style="stroke:#000000;stroke-width:0.5;" x="47.334" xlink:href="#ma875415214" y="34.5137"/>
      </g>
     </g>
     <g id="text_1">
      <!-- 1 -->
      <defs>
       <path d="M 7.90625 0 
L 43.90625 0 
L 43.90625 6.796875 
L 30.703125 6.796875 
L 30.703125 63.796875 
L 24.40625 63.796875 
C 20.90625 61.703125 16.703125 60.09375 10.90625 59.09375 
L 10.90625 53.796875 
L 22.5 53.796875 
L 22.5 6.796875 
L 7.90625 6.796875 
z
" id="SourceSansPro-Regular-31"/>
      </defs>
      <g transform="translate(44.3518125 456.258075)scale(0.12 -0.12)">
       <use xlink:href="#SourceSansPro-Regular-31"/>
      </g>
     </g>
    </g>
    <g id="xtick_2">
     <g id="line2d_4">
      <path clip-path="url(#pe1826e869e)" d="M 122.739405 437.7137 
L 122.739405 34.5137 
" style="fill:none;stroke:#8fa7bf;stroke-linecap:square;stroke-width:0.5;"/>
     </g>
     <g id="line2d_5">
      <g>
       <use style="stroke:#000000;stroke-width:0.5;" x="122.739405405" xlink:href="#m636838aabc" y="437.7137"/>
      </g>
     </g>
     <g id="line2d_6">
      <g>
       <use style="stroke:#000000;stroke-width:0.5;" x="122.739405405" xlink:href="#ma875415214" y="34.5137"/>
      </g>
     </g>
     <g id="text_2">
      <!-- 6 -->
      <defs>
       <path d="M 26.796875 5.296875 
C 18.703125 5.296875 13.796875 12 12.796875 24.40625 
C 17.09375 30.40625 22.09375 32.796875 26.09375 32.796875 
C 34 32.796875 37.90625 27.59375 37.90625 19.296875 
C 37.90625 10.90625 33.09375 5.296875 26.796875 5.296875 
M 44.5 58.203125 
C 40.90625 62.09375 36 65 29.09375 65 
C 16.40625 65 4.796875 55.09375 4.796875 29.5 
C 4.796875 9 14.296875 -1.203125 26.796875 -1.203125 
C 37.09375 -1.203125 45.703125 7.09375 45.703125 19.296875 
C 45.703125 32.40625 38.5 39 27.5 39 
C 22.296875 39 16.59375 35.90625 12.59375 31 
C 13 51.203125 20.5 58.09375 29.40625 58.09375 
C 33.40625 58.09375 37.296875 56.203125 39.90625 53.09375 
z
" id="SourceSansPro-Regular-36"/>
      </defs>
      <g transform="translate(119.757217905 456.258075)scale(0.12 -0.12)">
       <use xlink:href="#SourceSansPro-Regular-36"/>
      </g>
     </g>
    </g>
    <g id="xtick_3">
     <g id="line2d_7">
      <path clip-path="url(#pe1826e869e)" d="M 198.144811 437.7137 
L 198.144811 34.5137 
" style="fill:none;stroke:#8fa7bf;stroke-linecap:square;stroke-width:0.5;"/>
     </g>
     <g id="line2d_8">
      <g>
       <use style="stroke:#000000;stroke-width:0.5;" x="198.144810811" xlink:href="#m636838aabc" y="437.7137"/>
      </g>
     </g>
     <g id="line2d_9">
      <g>
       <use style="stroke:#000000;stroke-width:0.5;" x="198.144810811" xlink:href="#ma875415214" y="34.5137"/>
      </g>
     </g>
     <g id="text_3">
      <!-- 11 -->
      <g transform="translate(192.180435811 456.258075)scale(0.12 -0.12)">
       <use xlink:href="#SourceSansPro-Regular-31"/>
       <use x="49.69999694824219" xlink:href="#SourceSansPro-Regular-31"/>
      </g>
     </g>
    </g>
    <g id="xtick_4">
     <g id="line2d_10">
      <path clip-path="url(#pe1826e869e)" d="M 273.550216 437.7137 
L 273.550216 34.5137 
" style="fill:none;stroke:#8fa7bf;stroke-linecap:square;stroke-width:0.5;"/>
     </g>
     <g id="line2d_11">
      <g>
       <use style="stroke:#000000;stroke-width:0.5;" x="273.550216216" xlink:href="#m636838aabc" y="437.7137"/>
      </g>
     </g>
     <g id="line2d_12">
      <g>
       <use style="stroke:#000000;stroke-width:0.5;" x="273.550216216" xlink:href="#ma875415214" y="34.5137"/>
      </g>
     </g>
     <g id="text_4">
      <!-- 16 -->
      <g transform="translate(267.585841216 456.258075)scale(0.12 -0.12)">
       <use xlink:href="#SourceSansPro-Regular-31"/>
       <use x="49.69999694824219" xlink:href="#SourceSansPro-Regular-36"/>
      </g>
     </g>
    </g>
    <g id="xtick_5">
     <g id="line2d_13">
      <path clip-path="url(#pe1826e869e)" d="M 348.955622 437.7137 
L 348.955622 34.5137 
" style="fill:none;stroke:#8fa7bf;stroke-linecap:square;stroke-width:0.5;"/>
     </g>
     <g id="line2d_14">
      <g>
       <use style="stroke:#000000;stroke-width:0.5;" x="348.955621622" xlink:href="#m636838aabc" y="437.7137"/>
      </g>
     </g>
     <g id="line2d_15">
      <g>
       <use style="stroke:#000000;stroke-width:0.5;" x="348.955621622" xlink:href="#ma875415214" y="34.5137"/>
      </g>
     </g>
     <g id="text_5">
      <!-- 21 -->
      <defs>
       <path d="M 4 0 
L 45.203125 0 
L 45.203125 7.09375 
L 26.703125 7.09375 
C 23.40625 7.09375 19.5 6.796875 16 6.5 
C 31.09375 22.296875 42 34.203125 42 46.203125 
C 42 57.5 34.703125 65 22.90625 65 
C 14.59375 65 8.90625 61.09375 3.59375 55.296875 
L 8.296875 50.59375 
C 12 54.90625 16.59375 58.296875 21.90625 58.296875 
C 30 58.296875 34 53.09375 34 45.796875 
C 34 35.5 23.203125 24 4 4.90625 
z
" id="SourceSansPro-Regular-32"/>
      </defs>
      <g transform="translate(342.991246622 456.258075)scale(0.12 -0.12)">
       <use xlink:href="#SourceSansPro-Regular-32"/>
       <use x="49.69999694824219" xlink:href="#SourceSansPro-Regular-31"/>
      </g>
     </g>
    </g>
    <g id="xtick_6">
     <g id="line2d_16">
      <path clip-path="url(#pe1826e869e)" d="M 424.361027 437.7137 
L 424.361027 34.5137 
" style="fill:none;stroke:#8fa7bf;stroke-linecap:square;stroke-width:0.5;"/>
     </g>
     <g id="line2d_17">
      <g>
       <use style="stroke:#000000;stroke-width:0.5;" x="424.361027027" xlink:href="#m636838aabc" y="437.7137"/>
      </g>
     </g>
     <g id="line2d_18">
      <g>
       <use style="stroke:#000000;stroke-width:0.5;" x="424.361027027" xlink:href="#ma875415214" y="34.5137"/>
      </g>
     </g>
     <g id="text_6">
      <!-- 26 -->
      <g transform="translate(418.396652027 456.258075)scale(0.12 -0.12)">
       <use xlink:href="#SourceSansPro-Regular-32"/>
       <use x="49.69999694824219" xlink:href="#SourceSansPro-Regular-36"/>
      </g>
     </g>
    </g>
    <g id="xtick_7">
     <g id="line2d_19">
      <path clip-path="url(#pe1826e869e)" d="M 499.766432 437.7137 
L 499.766432 34.5137 
" style="fill:none;stroke:#8fa7bf;stroke-linecap:square;stroke-width:0.5;"/>
     </g>
     <g id="line2d_20">
      <g>
       <use style="stroke:#000000;stroke-width:0.5;" x="499.766432432" xlink:href="#m636838aabc" y="437.7137"/>
      </g>
     </g>
     <g id="line2d_21">
      <g>
       <use style="stroke:#000000;stroke-width:0.5;" x="499.766432432" xlink:href="#ma875415214" y="34.5137"/>
      </g>
     </g>
     <g id="text_7">
      <!-- 31 -->
      <defs>
       <path d="M 2.59375 7.796875 
C 6.90625 3.09375 13.40625 -1.203125 23.59375 -1.203125 
C 35.296875 -1.203125 44.59375 5.703125 44.59375 17 
C 44.59375 25.796875 38.5 31.40625 30.796875 33.203125 
L 30.796875 33.59375 
C 37.703125 36.203125 42.40625 41.09375 42.40625 48.796875 
C 42.40625 59.09375 34.40625 65 23.296875 65 
C 15.796875 65 9.90625 61.59375 5 57 
L 9.40625 51.796875 
C 13.203125 55.59375 17.703125 58.296875 23 58.296875 
C 29.796875 58.296875 34 54.40625 34 48.203125 
C 34 41.5 29.5 36.296875 15.90625 36.296875 
L 15.90625 30 
C 31.09375 30 36.296875 24.90625 36.296875 17.296875 
C 36.296875 10.203125 30.796875 5.59375 23.09375 5.59375 
C 15.59375 5.59375 10.59375 9.203125 6.796875 13.203125 
z
" id="SourceSansPro-Regular-33"/>
      </defs>
      <g transform="translate(493.802057432 456.258075)scale(0.12 -0.12)">
       <use xlink:href="#SourceSansPro-Regular-33"/>
       <use x="49.69999694824219" xlink:href="#SourceSansPro-Regular-31"/>
      </g>
     </g>
    </g>
    <g id="xtick_8">
     <g id="line2d_22">
      <path clip-path="url(#pe1826e869e)" d="M 575.171838 437.7137 
L 575.171838 34.5137 
" style="fill:none;stroke:#8fa7bf;stroke-linecap:square;stroke-width:0.5;"/>
     </g>
     <g id="line2d_23">
      <g>
       <use style="stroke:#000000;stroke-width:0.5;" x="575.171837838" xlink:href="#m636838aabc" y="437.7137"/>
      </g>
     </g>
     <g id="line2d_24">
      <g>
       <use style="stroke:#000000;stroke-width:0.5;" x="575.171837838" xlink:href="#ma875415214" y="34.5137"/>
      </g>
     </g>
     <g id="text_8">
      <!-- 36 -->
      <g transform="translate(569.207462838 456.258075)scale(0.12 -0.12)">
       <use xlink:href="#SourceSansPro-Regular-33"/>
       <use x="49.69999694824219" xlink:href="#SourceSansPro-Regular-36"/>
      </g>
     </g>
    </g>
    <g id="text_9">
     <!-- Games played -->
     <defs>
      <path d="M 4.703125 24.203125 
C 4.703125 8 12.59375 -1.203125 24.796875 -1.203125 
C 30.5 -1.203125 35.703125 2 39.5 5.703125 
L 39.796875 5.703125 
L 40.5 0 
L 47.296875 0 
L 47.296875 71.203125 
L 39 71.203125 
L 39 52.5 
L 39.40625 44.203125 
C 35.09375 47.703125 31.40625 49.796875 25.796875 49.796875 
C 14.703125 49.796875 4.703125 40 4.703125 24.203125 
M 13.203125 24.296875 
C 13.203125 35.40625 19.40625 42.90625 27.203125 42.90625 
C 31.203125 42.90625 34.90625 41.5 39 37.796875 
L 39 12.40625 
C 35 7.90625 31.09375 5.703125 26.59375 5.703125 
C 18.09375 5.703125 13.203125 12.703125 13.203125 24.296875 
" id="SourceSansPro-Regular-64"/>
      <path d="M 4.59375 24.203125 
C 4.59375 8.296875 14.90625 -1.203125 27.90625 -1.203125 
C 34.5 -1.203125 39.703125 1.09375 43.90625 3.796875 
L 41 9.203125 
C 37.40625 6.90625 33.5 5.40625 28.90625 5.40625 
C 19.59375 5.40625 13.296875 12 12.703125 22.5 
L 45.5 22.5 
C 45.703125 23.703125 45.796875 25.296875 45.796875 27 
C 45.796875 40.90625 38.796875 49.796875 26.40625 49.796875 
C 15.296875 49.796875 4.59375 40.09375 4.59375 24.203125 
M 12.59375 27.90625 
C 13.59375 37.703125 19.796875 43.296875 26.59375 43.296875 
C 34.203125 43.296875 38.59375 37.796875 38.59375 27.90625 
z
" id="SourceSansPro-Regular-65"/>
      <path d="M 16.203125 4.40625 
C 20.703125 0.90625 25.203125 -1.203125 29.703125 -1.203125 
C 40.796875 -1.203125 50.703125 8.5 50.703125 25 
C 50.703125 40.09375 44 49.796875 31.5 49.796875 
C 25.796875 49.796875 20.40625 46.703125 16 43 
L 15.703125 43 
L 15 48.59375 
L 8.203125 48.59375 
L 8.203125 -20.5 
L 16.40625 -20.5 
L 16.40625 -4.09375 
z
M 16.40625 10.796875 
L 16.40625 36.296875 
C 21.203125 40.59375 25.296875 42.90625 29.40625 42.90625 
C 38.59375 42.90625 42.203125 35.703125 42.203125 25 
C 42.203125 13 36.296875 5.703125 28.296875 5.703125 
C 25.09375 5.703125 20.796875 7.09375 16.40625 10.796875 
" id="SourceSansPro-Regular-70"/>
      <path d="M 5.203125 32.796875 
C 5.203125 11.40625 17.5 -1.203125 34.703125 -1.203125 
C 43.5 -1.203125 50.703125 2 55 6.40625 
L 55 34 
L 33.5 34 
L 33.5 27.09375 
L 47.40625 27.09375 
L 47.40625 10 
C 44.796875 7.59375 40.296875 6.09375 35.59375 6.09375 
C 21.59375 6.09375 13.796875 16.5 13.796875 33 
C 13.796875 49.296875 22.296875 59.5 35.5 59.5 
C 42.09375 59.5 46.203125 56.90625 49.5 53.40625 
L 54.203125 58.703125 
C 50.40625 62.703125 44.40625 66.796875 35.40625 66.796875 
C 17.90625 66.796875 5.203125 53.90625 5.203125 32.796875 
" id="SourceSansPro-Regular-47"/>
      <path d="M 2.796875 5.5 
C 7.40625 1.703125 14 -1.203125 20.90625 -1.203125 
C 32.40625 -1.203125 38.703125 5.40625 38.703125 13.296875 
C 38.703125 22.5 30.90625 25.40625 23.90625 28 
C 18.40625 30.09375 13.09375 31.796875 13.09375 36.40625 
C 13.09375 40.09375 15.90625 43.40625 22 43.40625 
C 26.296875 43.40625 29.796875 41.59375 33.09375 39.09375 
L 37 44.296875 
C 33.296875 47.296875 28 49.796875 21.90625 49.796875 
C 11.40625 49.796875 5.203125 43.796875 5.203125 36 
C 5.203125 27.796875 12.796875 24.5 19.703125 22 
C 25 20 30.796875 17.796875 30.796875 12.796875 
C 30.796875 8.59375 27.59375 5.203125 21.203125 5.203125 
C 15.40625 5.203125 11.09375 7.59375 6.90625 11 
z
" id="SourceSansPro-Regular-73"/>
      <path d="M 5.796875 12.59375 
C 5.796875 3.90625 11.90625 -1.203125 20.09375 -1.203125 
C 26.09375 -1.203125 31.5 2 36.203125 5.796875 
L 36.40625 5.796875 
L 37.09375 0 
L 43.90625 0 
L 43.90625 29.796875 
C 43.90625 41.90625 38.90625 49.796875 27 49.796875 
C 19.203125 49.796875 12.40625 46.40625 7.90625 43.5 
L 11.203125 37.796875 
C 15 40.40625 20 43 25.703125 43 
C 33.59375 43 35.703125 37 35.703125 30.796875 
C 15 28.5 5.796875 23.203125 5.796875 12.59375 
M 13.90625 13.203125 
C 13.90625 19.40625 19.40625 23.40625 35.703125 25.40625 
L 35.703125 11.90625 
C 31 7.703125 27.09375 5.40625 22.40625 5.40625 
C 17.59375 5.40625 13.90625 7.703125 13.90625 13.203125 
" id="SourceSansPro-Regular-61"/>
      <path d="M 4.90625 -13.40625 
L 3.296875 -19.90625 
C 4.90625 -20.5 6.796875 -20.90625 9 -20.90625 
C 18.796875 -20.90625 23.796875 -13.59375 27.203125 -4 
L 45.5 48.59375 
L 37.5 48.59375 
L 28.796875 21.703125 
C 27.5 17.40625 26.09375 12.40625 24.703125 8 
L 24.296875 8 
C 22.796875 12.5 21.09375 17.5 19.59375 21.703125 
L 9.703125 48.59375 
L 1.203125 48.59375 
L 20.703125 -0.09375 
L 19.59375 -3.703125 
C 17.59375 -9.703125 14.09375 -14.09375 8.59375 -14.09375 
C 7.40625 -14.09375 5.90625 -13.703125 4.90625 -13.40625 
" id="SourceSansPro-Regular-79"/>
      <path d="M 8.203125 0 
L 16.40625 0 
L 16.40625 35.203125 
C 20.90625 40.203125 25 42.703125 28.59375 42.703125 
C 34.796875 42.703125 37.703125 38.796875 37.703125 29.703125 
L 37.703125 0 
L 45.90625 0 
L 45.90625 35.203125 
C 50.40625 40.203125 54.296875 42.703125 58.09375 42.703125 
C 64.203125 42.703125 67.09375 38.796875 67.09375 29.703125 
L 67.09375 0 
L 75.296875 0 
L 75.296875 30.796875 
C 75.296875 43.203125 70.5 49.796875 60.5 49.796875 
C 54.59375 49.796875 49.59375 46 44.5 40.5 
C 42.5 46.296875 38.5 49.796875 31.09375 49.796875 
C 25.296875 49.796875 20.203125 46.203125 16 41.59375 
L 15.703125 41.59375 
L 15 48.59375 
L 8.203125 48.59375 
z
" id="SourceSansPro-Regular-6d"/>
      <path id="SourceSansPro-Regular-20"/>
      <path d="M 8.203125 9.796875 
C 8.203125 2.703125 10.703125 -1.203125 16.90625 -1.203125 
C 19.09375 -1.203125 20.5 -0.90625 21.59375 -0.40625 
L 20.5 5.796875 
C 19.59375 5.59375 19.203125 5.59375 18.703125 5.59375 
C 17.5 5.59375 16.40625 6.59375 16.40625 9.203125 
L 16.40625 71.203125 
L 8.203125 71.203125 
z
" id="SourceSansPro-Regular-6c"/>
     </defs>
     <g transform="translate(283.744875 473.971325)scale(0.144 -0.144)">
      <use xlink:href="#SourceSansPro-Regular-47"/>
      <use x="61.69999694824219" xlink:href="#SourceSansPro-Regular-61"/>
      <use x="112.89999389648438" xlink:href="#SourceSansPro-Regular-6d"/>
      <use x="195.79998779296875" xlink:href="#SourceSansPro-Regular-65"/>
      <use x="245.3999786376953" xlink:href="#SourceSansPro-Regular-73"/>
      <use x="287.2999725341797" xlink:href="#SourceSansPro-Regular-20"/>
      <use x="307.4999694824219" xlink:href="#SourceSansPro-Regular-70"/>
      <use x="362.9999542236328" xlink:href="#SourceSansPro-Regular-6c"/>
      <use x="388.49993896484375" xlink:href="#SourceSansPro-Regular-61"/>
      <use x="439.69993591308594" xlink:href="#SourceSansPro-Regular-79"/>
      <use x="486.3999328613281" xlink:href="#SourceSansPro-Regular-65"/>
      <use x="535.9999237060547" xlink:href="#SourceSansPro-Regular-64"/>
     </g>
    </g>
   </g>
   <g id="matplotlib.axis_2">
    <g id="ytick_1">
     <g id="line2d_25">
      <path clip-path="url(#pe1826e869e)" d="M 47.334 437.7137 
L 605.334 437.7137 
" style="fill:none;stroke:#8fa7bf;stroke-linecap:square;stroke-width:0.5;"/>
     </g>
     <g id="line2d_26">
      <defs>
       <path d="M 0 0 
L 6 0 
" id="m2188f22823" style="stroke:#000000;stroke-width:0.5;"/>
      </defs>
      <g>
       <use style="stroke:#000000;stroke-width:0.5;" x="47.334" xlink:href="#m2188f22823" y="437.7137"/>
      </g>
     </g>
     <g id="line2d_27">
      <defs>
       <path d="M 0 0 
L -6 0 
" id="md67c793cd0" style="stroke:#000000;stroke-width:0.5;"/>
      </defs>
      <g>
       <use style="stroke:#000000;stroke-width:0.5;" x="605.334" xlink:href="#md67c793cd0" y="437.7137"/>
      </g>
     </g>
     <g id="text_10">
      <!-- 0 -->
      <defs>
       <path d="M 24.90625 -1.203125 
C 37.59375 -1.203125 45.296875 10.703125 45.296875 32.09375 
C 45.296875 53.5 37.59375 65 24.90625 65 
C 12.09375 65 4.40625 53.5 4.40625 32.09375 
C 4.40625 10.703125 12.09375 -1.203125 24.90625 -1.203125 
M 24.90625 5.40625 
C 17.40625 5.40625 12.40625 13.40625 12.40625 32.09375 
C 12.40625 50.796875 17.40625 58.40625 24.90625 58.40625 
C 32.296875 58.40625 37.296875 50.796875 37.296875 32.09375 
C 37.296875 13.40625 32.296875 5.40625 24.90625 5.40625 
" id="SourceSansPro-Regular-30"/>
      </defs>
      <g transform="translate(31.369625 440.7558875)scale(0.12 -0.12)">
       <use xlink:href="#SourceSansPro-Regular-30"/>
      </g>
     </g>
    </g>
    <g id="ytick_2">
     <g id="line2d_28">
      <path clip-path="url(#pe1826e869e)" d="M 47.334 390.278406 
L 605.334 390.278406 
" style="fill:none;stroke:#8fa7bf;stroke-linecap:square;stroke-width:0.5;"/>
     </g>
     <g id="line2d_29">
      <g>
       <use style="stroke:#000000;stroke-width:0.5;" x="47.334" xlink:href="#m2188f22823" y="390.278405882"/>
      </g>
     </g>
     <g id="line2d_30">
      <g>
       <use style="stroke:#000000;stroke-width:0.5;" x="605.334" xlink:href="#md67c793cd0" y="390.278405882"/>
      </g>
     </g>
     <g id="text_11">
      <!-- 10 -->
      <g transform="translate(25.40525 393.320593382)scale(0.12 -0.12)">
       <use xlink:href="#SourceSansPro-Regular-31"/>
       <use x="49.69999694824219" xlink:href="#SourceSansPro-Regular-30"/>
      </g>
     </g>
    </g>
    <g id="ytick_3">
     <g id="line2d_31">
      <path clip-path="url(#pe1826e869e)" d="M 47.334 342.843112 
L 605.334 342.843112 
" style="fill:none;stroke:#8fa7bf;stroke-linecap:square;stroke-width:0.5;"/>
     </g>
     <g id="line2d_32">
      <g>
       <use style="stroke:#000000;stroke-width:0.5;" x="47.334" xlink:href="#m2188f22823" y="342.843111765"/>
      </g>
     </g>
     <g id="line2d_33">
      <g>
       <use style="stroke:#000000;stroke-width:0.5;" x="605.334" xlink:href="#md67c793cd0" y="342.843111765"/>
      </g>
     </g>
     <g id="text_12">
      <!-- 20 -->
      <g transform="translate(25.40525 345.885299265)scale(0.12 -0.12)">
       <use xlink:href="#SourceSansPro-Regular-32"/>
       <use x="49.69999694824219" xlink:href="#SourceSansPro-Regular-30"/>
      </g>
     </g>
    </g>
    <g id="ytick_4">
     <g id="line2d_34">
      <path clip-path="url(#pe1826e869e)" d="M 47.334 295.407818 
L 605.334 295.407818 
" style="fill:none;stroke:#8fa7bf;stroke-linecap:square;stroke-width:0.5;"/>
     </g>
     <g id="line2d_35">
      <g>
       <use style="stroke:#000000;stroke-width:0.5;" x="47.334" xlink:href="#m2188f22823" y="295.407817647"/>
      </g>
     </g>
     <g id="line2d_36">
      <g>
       <use style="stroke:#000000;stroke-width:0.5;" x="605.334" xlink:href="#md67c793cd0" y="295.407817647"/>
      </g>
     </g>
     <g id="text_13">
      <!-- 30 -->
      <g transform="translate(25.40525 298.450005147)scale(0.12 -0.12)">
       <use xlink:href="#SourceSansPro-Regular-33"/>
       <use x="49.69999694824219" xlink:href="#SourceSansPro-Regular-30"/>
      </g>
     </g>
    </g>
    <g id="ytick_5">
     <g id="line2d_37">
      <path clip-path="url(#pe1826e869e)" d="M 47.334 247.972524 
L 605.334 247.972524 
" style="fill:none;stroke:#8fa7bf;stroke-linecap:square;stroke-width:0.5;"/>
     </g>
     <g id="line2d_38">
      <g>
       <use style="stroke:#000000;stroke-width:0.5;" x="47.334" xlink:href="#m2188f22823" y="247.972523529"/>
      </g>
     </g>
     <g id="line2d_39">
      <g>
       <use style="stroke:#000000;stroke-width:0.5;" x="605.334" xlink:href="#md67c793cd0" y="247.972523529"/>
      </g>
     </g>
     <g id="text_14">
      <!-- 40 -->
      <defs>
       <path d="M 10.40625 24.203125 
L 25.296875 46 
C 27.09375 49.09375 28.90625 51.90625 30.5 55 
L 30.90625 55 
C 30.703125 51.59375 30.40625 46.09375 30.40625 42.703125 
L 30.40625 24.203125 
z
M 46.90625 24.203125 
L 38.203125 24.203125 
L 38.203125 63.796875 
L 29 63.796875 
L 1.703125 23 
L 1.703125 17.59375 
L 30.40625 17.59375 
L 30.40625 0 
L 38.203125 0 
L 38.203125 17.59375 
L 46.90625 17.59375 
z
" id="SourceSansPro-Regular-34"/>
      </defs>
      <g transform="translate(25.40525 251.014711029)scale(0.12 -0.12)">
       <use xlink:href="#SourceSansPro-Regular-34"/>
       <use x="49.69999694824219" xlink:href="#SourceSansPro-Regular-30"/>
      </g>
     </g>
    </g>
    <g id="ytick_6">
     <g id="line2d_40">
      <path clip-path="url(#pe1826e869e)" d="M 47.334 200.537229 
L 605.334 200.537229 
" style="fill:none;stroke:#8fa7bf;stroke-linecap:square;stroke-width:0.5;"/>
     </g>
     <g id="line2d_41">
      <g>
       <use style="stroke:#000000;stroke-width:0.5;" x="47.334" xlink:href="#m2188f22823" y="200.537229412"/>
      </g>
     </g>
     <g id="line2d_42">
      <g>
       <use style="stroke:#000000;stroke-width:0.5;" x="605.334" xlink:href="#md67c793cd0" y="200.537229412"/>
      </g>
     </g>
     <g id="text_15">
      <!-- 50 -->
      <defs>
       <path d="M 2.5 7.5 
C 6.90625 3.09375 13.203125 -1.203125 23.40625 -1.203125 
C 34.5 -1.203125 44.90625 6.59375 44.90625 20.40625 
C 44.90625 34.203125 36 40.40625 25.09375 40.40625 
C 21.203125 40.40625 18.296875 39.40625 15.296875 37.796875 
L 17 56.703125 
L 41.703125 56.703125 
L 41.703125 63.796875 
L 9.796875 63.796875 
L 7.703125 33.09375 
L 12.09375 30.296875 
C 15.90625 32.796875 18.59375 34.203125 23 34.203125 
C 31.203125 34.203125 36.59375 29 36.59375 20.203125 
C 36.59375 11.296875 30.40625 5.59375 22.59375 5.59375 
C 15.09375 5.59375 10.296875 9.09375 6.5 12.90625 
z
" id="SourceSansPro-Regular-35"/>
      </defs>
      <g transform="translate(25.40525 203.579416912)scale(0.12 -0.12)">
       <use xlink:href="#SourceSansPro-Regular-35"/>
       <use x="49.69999694824219" xlink:href="#SourceSansPro-Regular-30"/>
      </g>
     </g>
    </g>
    <g id="ytick_7">
     <g id="line2d_43">
      <path clip-path="url(#pe1826e869e)" d="M 47.334 153.101935 
L 605.334 153.101935 
" style="fill:none;stroke:#8fa7bf;stroke-linecap:square;stroke-width:0.5;"/>
     </g>
     <g id="line2d_44">
      <g>
       <use style="stroke:#000000;stroke-width:0.5;" x="47.334" xlink:href="#m2188f22823" y="153.101935294"/>
      </g>
     </g>
     <g id="line2d_45">
      <g>
       <use style="stroke:#000000;stroke-width:0.5;" x="605.334" xlink:href="#md67c793cd0" y="153.101935294"/>
      </g>
     </g>
     <g id="text_16">
      <!-- 60 -->
      <g transform="translate(25.40525 156.144122794)scale(0.12 -0.12)">
       <use xlink:href="#SourceSansPro-Regular-36"/>
       <use x="49.69999694824219" xlink:href="#SourceSansPro-Regular-30"/>
      </g>
     </g>
    </g>
    <g id="ytick_8">
     <g id="line2d_46">
      <path clip-path="url(#pe1826e869e)" d="M 47.334 105.666641 
L 605.334 105.666641 
" style="fill:none;stroke:#8fa7bf;stroke-linecap:square;stroke-width:0.5;"/>
     </g>
     <g id="line2d_47">
      <g>
       <use style="stroke:#000000;stroke-width:0.5;" x="47.334" xlink:href="#m2188f22823" y="105.666641176"/>
      </g>
     </g>
     <g id="line2d_48">
      <g>
       <use style="stroke:#000000;stroke-width:0.5;" x="605.334" xlink:href="#md67c793cd0" y="105.666641176"/>
      </g>
     </g>
     <g id="text_17">
      <!-- 70 -->
      <defs>
       <path d="M 17.703125 0 
L 26.203125 0 
C 27.296875 24.90625 30.40625 39.40625 45.5 58.703125 
L 45.5 63.796875 
L 4.40625 63.796875 
L 4.40625 56.703125 
L 36.203125 56.703125 
C 23.59375 39.203125 18.796875 24 17.703125 0 
" id="SourceSansPro-Regular-37"/>
      </defs>
      <g transform="translate(25.40525 108.708828676)scale(0.12 -0.12)">
       <use xlink:href="#SourceSansPro-Regular-37"/>
       <use x="49.69999694824219" xlink:href="#SourceSansPro-Regular-30"/>
      </g>
     </g>
    </g>
    <g id="ytick_9">
     <g id="line2d_49">
      <path clip-path="url(#pe1826e869e)" d="M 47.334 58.231347 
L 605.334 58.231347 
" style="fill:none;stroke:#8fa7bf;stroke-linecap:square;stroke-width:0.5;"/>
     </g>
     <g id="line2d_50">
      <g>
       <use style="stroke:#000000;stroke-width:0.5;" x="47.334" xlink:href="#m2188f22823" y="58.2313470588"/>
      </g>
     </g>
     <g id="line2d_51">
      <g>
       <use style="stroke:#000000;stroke-width:0.5;" x="605.334" xlink:href="#md67c793cd0" y="58.2313470588"/>
      </g>
     </g>
     <g id="text_18">
      <!-- 80 -->
      <defs>
       <path d="M 11.5 17.09375 
C 11.5 22.90625 15.296875 27.59375 20.40625 31 
C 29.59375 27.296875 37.703125 24.296875 37.703125 16.09375 
C 37.703125 9.5 32.59375 4.90625 25.203125 4.90625 
C 17.40625 4.90625 11.5 10 11.5 17.09375 
M 29.5 34.796875 
C 21.796875 37.796875 14.796875 41 14.796875 48.59375 
C 14.796875 54.796875 19.203125 58.90625 25.09375 58.90625 
C 32.09375 58.90625 36.203125 53.90625 36.203125 47.59375 
C 36.203125 42.90625 33.796875 38.59375 29.5 34.796875 
M 4.09375 16.296875 
C 4.09375 6.203125 13 -1.203125 25 -1.203125 
C 37.40625 -1.203125 45.59375 6.296875 45.59375 15.796875 
C 45.59375 24.40625 40.203125 28.90625 34.5 32.203125 
L 34.5 32.59375 
C 38.40625 35.59375 43.296875 41.296875 43.296875 48 
C 43.296875 57.90625 36.40625 65 25.296875 65 
C 15 65 7.203125 58.40625 7.203125 48.59375 
C 7.203125 41.90625 11.40625 37.203125 16.09375 33.90625 
L 16.09375 33.5 
C 10.09375 30.296875 4.09375 24.59375 4.09375 16.296875 
" id="SourceSansPro-Regular-38"/>
      </defs>
      <g transform="translate(25.40525 61.2735345588)scale(0.12 -0.12)">
       <use xlink:href="#SourceSansPro-Regular-38"/>
       <use x="49.69999694824219" xlink:href="#SourceSansPro-Regular-30"/>
      </g>
     </g>
    </g>
    <g id="text_19">
     <!-- Points total -->
     <defs>
      <path d="M 4.59375 24.203125 
C 4.59375 8.09375 15.203125 -1.203125 27.09375 -1.203125 
C 39 -1.203125 49.59375 8.09375 49.59375 24.203125 
C 49.59375 40.5 39 49.796875 27.09375 49.796875 
C 15.203125 49.796875 4.59375 40.5 4.59375 24.203125 
M 13.09375 24.203125 
C 13.09375 35.40625 18.796875 43 27.09375 43 
C 35.5 43 41.09375 35.40625 41.09375 24.203125 
C 41.09375 13.09375 35.5 5.59375 27.09375 5.59375 
C 18.796875 5.59375 13.09375 13.09375 13.09375 24.203125 
" id="SourceSansPro-Regular-6f"/>
      <path d="M 12.40625 58.59375 
C 15.59375 58.59375 18.09375 60.796875 18.09375 63.90625 
C 18.09375 67.09375 15.59375 69.203125 12.40625 69.203125 
C 9.203125 69.203125 6.703125 67.09375 6.703125 63.90625 
C 6.703125 60.796875 9.203125 58.59375 12.40625 58.59375 
M 8.203125 0 
L 16.40625 0 
L 16.40625 48.59375 
L 8.203125 48.59375 
z
" id="SourceSansPro-Regular-69"/>
      <path d="M 9 0 
L 17.296875 0 
L 17.296875 26 
L 29.09375 26 
C 43.5 26 53.296875 32.5 53.296875 46.296875 
C 53.296875 60.703125 43.59375 65.59375 29.09375 65.59375 
L 9 65.59375 
z
M 17.296875 32.796875 
L 17.296875 58.90625 
L 28.09375 58.90625 
C 39.40625 58.90625 45 55.796875 45 46.296875 
C 45 37 39.5 32.796875 28.09375 32.796875 
z
" id="SourceSansPro-Regular-50"/>
      <path d="M 8.203125 0 
L 16.40625 0 
L 16.40625 35.203125 
C 21.296875 40.09375 24.703125 42.703125 29.703125 42.703125 
C 36.09375 42.703125 38.90625 38.796875 38.90625 29.703125 
L 38.90625 0 
L 47.09375 0 
L 47.09375 30.796875 
C 47.09375 43.203125 42.5 49.796875 32.296875 49.796875 
C 25.59375 49.796875 20.59375 46.203125 16 41.59375 
L 15.703125 41.59375 
L 15 48.59375 
L 8.203125 48.59375 
z
" id="SourceSansPro-Regular-6e"/>
      <path d="M 9.59375 15 
C 9.59375 5.40625 13.09375 -1.203125 23.5 -1.203125 
C 26.5 -1.203125 29.796875 -0.296875 32.5 0.59375 
L 30.90625 6.796875 
C 29.296875 6.203125 27.09375 5.5 25.40625 5.5 
C 19.796875 5.5 17.90625 8.90625 17.90625 14.90625 
L 17.90625 41.90625 
L 31 41.90625 
L 31 48.59375 
L 17.90625 48.59375 
L 17.90625 62.203125 
L 11 62.203125 
L 10 48.59375 
L 2.40625 48.09375 
L 2.40625 41.90625 
L 9.59375 41.90625 
z
" id="SourceSansPro-Regular-74"/>
     </defs>
     <g transform="translate(17.45325 271.0697)rotate(-90.0)scale(0.144 -0.144)">
      <use xlink:href="#SourceSansPro-Regular-50"/>
      <use x="57.59999084472656" xlink:href="#SourceSansPro-Regular-6f"/>
      <use x="111.79998779296875" xlink:href="#SourceSansPro-Regular-69"/>
      <use x="136.3999786376953" xlink:href="#SourceSansPro-Regular-6e"/>
      <use x="191.0999755859375" xlink:href="#SourceSansPro-Regular-74"/>
      <use x="224.89996337890625" xlink:href="#SourceSansPro-Regular-73"/>
      <use x="266.7999572753906" xlink:href="#SourceSansPro-Regular-20"/>
      <use x="286.9999542236328" xlink:href="#SourceSansPro-Regular-74"/>
      <use x="320.79994201660156" xlink:href="#SourceSansPro-Regular-6f"/>
      <use x="374.99993896484375" xlink:href="#SourceSansPro-Regular-74"/>
      <use x="408.7999267578125" xlink:href="#SourceSansPro-Regular-61"/>
      <use x="459.9999237060547" xlink:href="#SourceSansPro-Regular-6c"/>
     </g>
    </g>
   </g>
   <g id="line2d_52">
    <path clip-path="url(#pe1826e869e)" d="M 47.334 247.972524 
L 605.334 247.972524 
" style="fill:none;stroke:#607080;stroke-linecap:square;"/>
   </g>
   <g id="line2d_53">
    <path clip-path="url(#pe1826e869e)" d="M 47.334 432.720511 
L 62.415081 427.727322 
L 77.496162 422.734133 
L 92.577243 417.740945 
L 107.658324 412.747756 
L 122.739405 407.754567 
L 137.820486 402.761378 
L 152.901568 397.768189 
L 167.982649 392.775 
L 183.06373 387.781811 
L 198.144811 382.788623 
L 213.225892 377.795434 
L 228.306973 372.802245 
L 243.388054 367.809056 
L 258.469135 362.815867 
L 273.550216 357.822678 
L 288.631297 352.829489 
L 303.712378 347.836301 
L 318.793459 342.843112 
L 333.874541 337.849923 
L 348.955622 332.856734 
L 364.036703 327.863545 
L 379.117784 322.870356 
L 394.198865 317.877167 
L 409.279946 312.883979 
L 424.361027 307.89079 
L 439.442108 302.897601 
L 454.523189 297.904412 
L 469.60427 292.911223 
L 484.685351 287.918034 
L 499.766432 282.924846 
L 514.847514 277.931657 
L 529.928595 272.938468 
L 545.009676 267.945279 
L 560.090757 262.95209 
L 575.171838 257.958901 
L 590.252919 252.965712 
L 605.334 247.972524 
" style="fill:none;stroke:#607080;stroke-dasharray:6.000000,6.000000;stroke-dashoffset:0.0;stroke-width:2.0;"/>
   </g>
   <g id="line2d_54">
    <path clip-path="url(#pe1826e869e)" d="M 47.334 432.970171 
L 62.415081 432.970171 
L 77.496162 428.226641 
L 92.577243 413.996053 
L 107.658324 399.765465 
L 122.739405 399.765465 
L 137.820486 395.021935 
L 152.901568 395.021935 
L 167.982649 395.021935 
L 183.06373 395.021935 
L 198.144811 395.021935 
L 213.225892 390.278406 
L 228.306973 390.278406 
L 243.388054 390.278406 
L 258.469135 390.278406 
L 273.550216 390.278406 
L 288.631297 390.278406 
L 303.712378 390.278406 
L 318.793459 376.047818 
L 333.874541 371.304288 
L 348.955622 357.0737 
L 364.036703 357.0737 
L 379.117784 357.0737 
L 394.198865 357.0737 
L 409.279946 357.0737 
L 424.361027 352.330171 
L 439.442108 352.330171 
L 454.523189 352.330171 
L 469.60427 347.586641 
L 484.685351 347.586641 
L 499.766432 333.356053 
L 514.847514 319.125465 
L 529.928595 304.894876 
L 545.009676 290.664288 
L 560.090757 276.4337 
L 575.171838 262.203112 
L 590.252919 257.459582 
L 605.334 243.228994 
" style="fill:none;stroke:#1369bf;stroke-linecap:square;stroke-width:2.0;"/>
   </g>
   <g id="line2d_55">
    <path clip-path="url(#pe1826e869e)" d="M 47.334 423.483112 
L 62.415081 409.252524 
L 77.496162 404.508994 
L 92.577243 399.765465 
L 107.658324 385.534876 
L 122.739405 380.791347 
L 137.820486 380.791347 
L 152.901568 366.560759 
L 167.982649 361.817229 
L 183.06373 347.586641 
L 198.144811 333.356053 
L 213.225892 319.125465 
L 228.306973 304.894876 
L 243.388054 300.151347 
L 258.469135 285.920759 
L 273.550216 271.690171 
L 288.631297 257.459582 
L 303.712378 257.459582 
L 318.793459 252.716053 
L 333.874541 247.972524 
L 348.955622 233.741935 
L 364.036703 228.998406 
L 379.117784 214.767818 
L 394.198865 200.537229 
L 409.279946 186.306641 
L 424.361027 186.306641 
L 439.442108 172.076053 
L 454.523189 167.332524 
L 469.60427 153.101935 
L 484.685351 138.871347 
L 499.766432 124.640759 
L 514.847514 110.410171 
L 529.928595 96.179582 
L 545.009676 91.436053 
L 560.090757 77.205465 
L 575.171838 72.461935 
L 590.252919 58.231347 
L 605.334 53.487818 
" style="fill:none;stroke:#bd3338;stroke-linecap:square;stroke-width:2.0;"/>
   </g>
   <g id="line2d_56">
    <path clip-path="url(#pe1826e869e)" d="M 47.334 437.7137 
L 62.415081 432.970171 
L 77.496162 418.739582 
L 92.577243 418.739582 
L 107.658324 404.508994 
" style="fill:none;stroke:#00800a;stroke-linecap:square;stroke-width:2.0;"/>
   </g>
   <g id="patch_3">
    <path d="M 47.334 34.5137 
L 605.334 34.5137 
" style="fill:none;stroke:#000000;stroke-linecap:square;stroke-linejoin:miter;"/>
   </g>
   <g id="patch_4">
    <path d="M 47.334 437.7137 
L 605.334 437.7137 
" style="fill:none;stroke:#000000;stroke-linecap:square;stroke-linejoin:miter;"/>
   </g>
   <g id="patch_5">
    <path d="M 47.334 437.7137 
L 47.334 34.5137 
" style="fill:none;stroke:#000000;stroke-linecap:square;stroke-linejoin:miter;"/>
   </g>
   <g id="patch_6">
    <path d="M 605.334 437.7137 
L 605.334 34.5137 
" style="fill:none;stroke:#000000;stroke-linecap:square;stroke-linejoin:miter;"/>
   </g>
   <g id="text_20">
    <!-- Leicester City points over time, 2014-15 to 2016-17 seasons -->
    <defs>
     <path d="M 4.09375 21.90625 
L 27.09375 21.90625 
L 27.09375 28.203125 
L 4.09375 28.203125 
z
" id="SourceSansPro-Regular-2d"/>
     <path d="M 5.203125 32.796875 
C 5.203125 11.40625 17.40625 -1.203125 33.90625 -1.203125 
C 42.296875 -1.203125 48.703125 2.296875 53.90625 8.296875 
L 49.203125 13.40625 
C 45 8.703125 40.40625 6.09375 34.09375 6.09375 
C 21.703125 6.09375 13.796875 16.5 13.796875 33 
C 13.796875 49.296875 22 59.5 34.5 59.5 
C 40 59.5 44.203125 57.09375 47.59375 53.40625 
L 52.296875 58.703125 
C 48.5 63 42.296875 66.796875 34.40625 66.796875 
C 17.59375 66.796875 5.203125 53.90625 5.203125 32.796875 
" id="SourceSansPro-Regular-43"/>
     <path d="M 18.703125 0 
L 28.296875 0 
L 45.5 48.59375 
L 37.40625 48.59375 
L 28.203125 21 
C 26.796875 16.203125 25.203125 11.296875 23.796875 6.703125 
L 23.40625 6.703125 
C 21.90625 11.296875 20.296875 16.203125 18.90625 21 
L 9.703125 48.59375 
L 1.203125 48.59375 
z
" id="SourceSansPro-Regular-76"/>
     <path d="M 9 0 
L 46 0 
L 46 7.09375 
L 17.296875 7.09375 
L 17.296875 65.59375 
L 9 65.59375 
z
" id="SourceSansPro-Regular-4c"/>
     <path d="M 8.203125 0 
L 16.40625 0 
L 16.40625 31.203125 
C 19.703125 39.40625 24.59375 42.40625 28.703125 42.40625 
C 30.703125 42.40625 31.796875 42.09375 33.40625 41.59375 
L 35 48.796875 
C 33.40625 49.5 31.90625 49.796875 29.796875 49.796875 
C 24.296875 49.796875 19.296875 45.90625 16 39.796875 
L 15.703125 39.796875 
L 15 48.59375 
L 8.203125 48.59375 
z
" id="SourceSansPro-Regular-72"/>
     <path d="M 6.703125 -17 
C 14.796875 -13.59375 19.796875 -6.90625 19.796875 1.703125 
C 19.796875 7.703125 17.203125 11.40625 12.90625 11.40625 
C 9.59375 11.40625 6.796875 9.203125 6.796875 5.59375 
C 6.796875 1.90625 9.5 -0.09375 12.703125 -0.09375 
C 13 -0.09375 13.40625 -0.09375 13.703125 0 
C 13.703125 -5.40625 10.296875 -9.703125 4.703125 -12.203125 
z
" id="SourceSansPro-Regular-2c"/>
     <path d="M 4.59375 24.203125 
C 4.59375 8.09375 14.5 -1.203125 27.40625 -1.203125 
C 33.203125 -1.203125 38.796875 1.203125 43.203125 5.09375 
L 39.5 10.5 
C 36.59375 7.90625 32.703125 5.59375 28.09375 5.59375 
C 19.203125 5.59375 13.09375 13.09375 13.09375 24.203125 
C 13.09375 35.40625 19.5 43 28.296875 43 
C 32.203125 43 35.203125 41.203125 38.09375 38.703125 
L 42.203125 44 
C 38.90625 47.09375 34.40625 49.796875 28 49.796875 
C 15.5 49.796875 4.59375 40.5 4.59375 24.203125 
" id="SourceSansPro-Regular-63"/>
    </defs>
    <g transform="translate(114.6945 19.4337)scale(0.1728 -0.1728)">
     <use xlink:href="#SourceSansPro-Regular-4c"/>
     <use x="48.59999084472656" xlink:href="#SourceSansPro-Regular-65"/>
     <use x="98.19998168945312" xlink:href="#SourceSansPro-Regular-69"/>
     <use x="122.79997253417969" xlink:href="#SourceSansPro-Regular-63"/>
     <use x="168.39996337890625" xlink:href="#SourceSansPro-Regular-65"/>
     <use x="217.9999542236328" xlink:href="#SourceSansPro-Regular-73"/>
     <use x="259.8999481201172" xlink:href="#SourceSansPro-Regular-74"/>
     <use x="293.69993591308594" xlink:href="#SourceSansPro-Regular-65"/>
     <use x="343.2999267578125" xlink:href="#SourceSansPro-Regular-72"/>
     <use x="377.9999237060547" xlink:href="#SourceSansPro-Regular-20"/>
     <use x="398.1999206542969" xlink:href="#SourceSansPro-Regular-43"/>
     <use x="455.29991149902344" xlink:href="#SourceSansPro-Regular-69"/>
     <use x="479.89990234375" xlink:href="#SourceSansPro-Regular-74"/>
     <use x="513.6998901367188" xlink:href="#SourceSansPro-Regular-79"/>
     <use x="560.3998870849609" xlink:href="#SourceSansPro-Regular-20"/>
     <use x="580.5998840332031" xlink:href="#SourceSansPro-Regular-70"/>
     <use x="636.0998687744141" xlink:href="#SourceSansPro-Regular-6f"/>
     <use x="690.2998657226562" xlink:href="#SourceSansPro-Regular-69"/>
     <use x="714.8998565673828" xlink:href="#SourceSansPro-Regular-6e"/>
     <use x="769.599853515625" xlink:href="#SourceSansPro-Regular-74"/>
     <use x="803.3998413085938" xlink:href="#SourceSansPro-Regular-73"/>
     <use x="845.2998352050781" xlink:href="#SourceSansPro-Regular-20"/>
     <use x="865.4998321533203" xlink:href="#SourceSansPro-Regular-6f"/>
     <use x="919.6998291015625" xlink:href="#SourceSansPro-Regular-76"/>
     <use x="966.3998260498047" xlink:href="#SourceSansPro-Regular-65"/>
     <use x="1015.9998168945312" xlink:href="#SourceSansPro-Regular-72"/>
     <use x="1050.6998138427734" xlink:href="#SourceSansPro-Regular-20"/>
     <use x="1070.8998107910156" xlink:href="#SourceSansPro-Regular-74"/>
     <use x="1104.6997985839844" xlink:href="#SourceSansPro-Regular-69"/>
     <use x="1129.299789428711" xlink:href="#SourceSansPro-Regular-6d"/>
     <use x="1212.1997833251953" xlink:href="#SourceSansPro-Regular-65"/>
     <use x="1261.7997741699219" xlink:href="#SourceSansPro-Regular-2c"/>
     <use x="1286.6997680664062" xlink:href="#SourceSansPro-Regular-20"/>
     <use x="1306.8997650146484" xlink:href="#SourceSansPro-Regular-32"/>
     <use x="1356.5997619628906" xlink:href="#SourceSansPro-Regular-30"/>
     <use x="1406.2997589111328" xlink:href="#SourceSansPro-Regular-31"/>
     <use x="1455.999755859375" xlink:href="#SourceSansPro-Regular-34"/>
     <use x="1505.6997528076172" xlink:href="#SourceSansPro-Regular-2d"/>
     <use x="1536.7997436523438" xlink:href="#SourceSansPro-Regular-31"/>
     <use x="1586.499740600586" xlink:href="#SourceSansPro-Regular-35"/>
     <use x="1636.1997375488281" xlink:href="#SourceSansPro-Regular-20"/>
     <use x="1656.3997344970703" xlink:href="#SourceSansPro-Regular-74"/>
     <use x="1690.199722290039" xlink:href="#SourceSansPro-Regular-6f"/>
     <use x="1744.3997192382812" xlink:href="#SourceSansPro-Regular-20"/>
     <use x="1764.5997161865234" xlink:href="#SourceSansPro-Regular-32"/>
     <use x="1814.2997131347656" xlink:href="#SourceSansPro-Regular-30"/>
     <use x="1863.9997100830078" xlink:href="#SourceSansPro-Regular-31"/>
     <use x="1913.69970703125" xlink:href="#SourceSansPro-Regular-36"/>
     <use x="1963.3997039794922" xlink:href="#SourceSansPro-Regular-2d"/>
     <use x="1994.4996948242188" xlink:href="#SourceSansPro-Regular-31"/>
     <use x="2044.199691772461" xlink:href="#SourceSansPro-Regular-37"/>
     <use x="2093.899688720703" xlink:href="#SourceSansPro-Regular-20"/>
     <use x="2114.0996856689453" xlink:href="#SourceSansPro-Regular-73"/>
     <use x="2155.9996795654297" xlink:href="#SourceSansPro-Regular-65"/>
     <use x="2205.5996704101562" xlink:href="#SourceSansPro-Regular-61"/>
     <use x="2256.7996673583984" xlink:href="#SourceSansPro-Regular-73"/>
     <use x="2298.699661254883" xlink:href="#SourceSansPro-Regular-6f"/>
     <use x="2352.899658203125" xlink:href="#SourceSansPro-Regular-6e"/>
     <use x="2407.599655151367" xlink:href="#SourceSansPro-Regular-73"/>
    </g>
   </g>
   <g id="legend_1">
    <g id="patch_7">
     <path d="M 54.534 127.88645 
L 153.795 127.88645 
L 153.795 41.7137 
L 54.534 41.7137 
z
" style="fill:#f7f8f9;stroke:#000000;stroke-linejoin:miter;"/>
    </g>
    <g id="line2d_57">
     <path d="M 64.614 52.8602 
L 84.774 52.8602 
" style="fill:none;stroke:#607080;stroke-dasharray:6.000000,6.000000;stroke-dashoffset:0.0;stroke-width:2.0;"/>
    </g>
    <g id="line2d_58"/>
    <g id="text_21">
     <!-- Safety -->
     <defs>
      <path d="M 4.203125 8.5 
C 9.90625 2.59375 18 -1.203125 27.203125 -1.203125 
C 41 -1.203125 49.5 7.09375 49.5 17.5 
C 49.5 27.203125 43.59375 31.703125 36 35 
L 26.703125 39 
C 21.5 41.203125 15.796875 43.59375 15.796875 49.90625 
C 15.796875 55.796875 20.703125 59.5 28 59.5 
C 34.09375 59.5 38.90625 57.09375 42.90625 53.296875 
L 47.40625 58.703125 
C 42.703125 63.5 35.796875 66.796875 28 66.796875 
C 16.09375 66.796875 7.40625 59.40625 7.40625 49.40625 
C 7.40625 39.796875 14.5 35.09375 20.703125 32.5 
L 30.09375 28.40625 
C 36.296875 25.59375 41 23.5 41 16.796875 
C 41 10.40625 35.90625 6.09375 27.296875 6.09375 
C 20.5 6.09375 13.90625 9.40625 9.203125 14.296875 
z
" id="SourceSansPro-Regular-53"/>
      <path d="M 31.90625 70.796875 
C 29.703125 71.703125 26.796875 72.40625 23.796875 72.40625 
C 14.09375 72.40625 9.59375 66.203125 9.59375 56.296875 
L 9.59375 48.59375 
L 3 48.09375 
L 3 41.90625 
L 9.59375 41.90625 
L 9.59375 0 
L 17.796875 0 
L 17.796875 41.90625 
L 28.09375 41.90625 
L 28.09375 48.59375 
L 17.796875 48.59375 
L 17.796875 56.296875 
C 17.796875 62.5 20 65.703125 24.59375 65.703125 
C 26.40625 65.703125 28.296875 65.296875 30.09375 64.5 
z
" id="SourceSansPro-Regular-66"/>
     </defs>
     <g transform="translate(100.614 57.9002)scale(0.144 -0.144)">
      <use xlink:href="#SourceSansPro-Regular-53"/>
      <use x="53.399993896484375" xlink:href="#SourceSansPro-Regular-61"/>
      <use x="104.59999084472656" xlink:href="#SourceSansPro-Regular-66"/>
      <use x="133.79998779296875" xlink:href="#SourceSansPro-Regular-65"/>
      <use x="183.3999786376953" xlink:href="#SourceSansPro-Regular-74"/>
      <use x="217.19996643066406" xlink:href="#SourceSansPro-Regular-79"/>
     </g>
    </g>
    <g id="line2d_59">
     <path d="M 64.614 73.32395 
L 84.774 73.32395 
" style="fill:none;stroke:#1369bf;stroke-linecap:square;stroke-width:2.0;"/>
    </g>
    <g id="line2d_60"/>
    <g id="text_22">
     <!-- 2014-15 -->
     <g transform="translate(100.614 78.36395)scale(0.144 -0.144)">
      <use xlink:href="#SourceSansPro-Regular-32"/>
      <use x="49.69999694824219" xlink:href="#SourceSansPro-Regular-30"/>
      <use x="99.39999389648438" xlink:href="#SourceSansPro-Regular-31"/>
      <use x="149.09999084472656" xlink:href="#SourceSansPro-Regular-34"/>
      <use x="198.79998779296875" xlink:href="#SourceSansPro-Regular-2d"/>
      <use x="229.8999786376953" xlink:href="#SourceSansPro-Regular-31"/>
      <use x="279.5999755859375" xlink:href="#SourceSansPro-Regular-35"/>
     </g>
    </g>
    <g id="line2d_61">
     <path d="M 64.614 93.7292 
L 84.774 93.7292 
" style="fill:none;stroke:#bd3338;stroke-linecap:square;stroke-width:2.0;"/>
    </g>
    <g id="line2d_62"/>
    <g id="text_23">
     <!-- 2015-16 -->
     <g transform="translate(100.614 98.7692)scale(0.144 -0.144)">
      <use xlink:href="#SourceSansPro-Regular-32"/>
      <use x="49.69999694824219" xlink:href="#SourceSansPro-Regular-30"/>
      <use x="99.39999389648438" xlink:href="#SourceSansPro-Regular-31"/>
      <use x="149.09999084472656" xlink:href="#SourceSansPro-Regular-35"/>
      <use x="198.79998779296875" xlink:href="#SourceSansPro-Regular-2d"/>
      <use x="229.8999786376953" xlink:href="#SourceSansPro-Regular-31"/>
      <use x="279.5999755859375" xlink:href="#SourceSansPro-Regular-36"/>
     </g>
    </g>
    <g id="line2d_63">
     <path d="M 64.614 114.13445 
L 84.774 114.13445 
" style="fill:none;stroke:#00800a;stroke-linecap:square;stroke-width:2.0;"/>
    </g>
    <g id="line2d_64"/>
    <g id="text_24">
     <!-- 2016-17 -->
     <g transform="translate(100.614 119.17445)scale(0.144 -0.144)">
      <use xlink:href="#SourceSansPro-Regular-32"/>
      <use x="49.69999694824219" xlink:href="#SourceSansPro-Regular-30"/>
      <use x="99.39999389648438" xlink:href="#SourceSansPro-Regular-31"/>
      <use x="149.09999084472656" xlink:href="#SourceSansPro-Regular-36"/>
      <use x="198.79998779296875" xlink:href="#SourceSansPro-Regular-2d"/>
      <use x="229.8999786376953" xlink:href="#SourceSansPro-Regular-31"/>
      <use x="279.5999755859375" xlink:href="#SourceSansPro-Regular-37"/>
     </g>
    </g>
   </g>
  </g>
 </g>
 <defs>
  <clipPath id="pe1826e869e">
   <rect height="403.2" width="558.0" x="47.334" y="34.5137"/>
  </clipPath>
 </defs>
</svg>
