<svg height="425pt" viewBox="0 0 637 425" width="637pt" xmlns="http://www.w3.org/2000/svg" xmlns:xlink="http://www.w3.org/1999/xlink"><defs><style>*{stroke-linecap:butt;stroke-linejoin:round;stroke-miterlimit:100000}</style></defs><g id="figure_1"><path d="M0 425.5h637.95V0H0v425.5z" fill="none" id="patch_1"/><g id="axes_1"><path d="M119.6 378.74h502.2V33.14H119.6v345.6z" fill="none" id="patch_2"/><g id="matplotlib.axis_1"><g id="xtick_1"><path clip-path="url(#p8e79e7582a)" d="M119.6 378.74V33.14" fill="none" stroke="#8fa7bf" stroke-linecap="square" stroke-width=".5" id="line2d_1"/><g id="text_1"><defs><path d="M24.9-1.2c12.7 0 20.4 11.9 20.4 33.3S37.6 65 24.9 65C12.1 65 4.4 53.5 4.4 32.1S12.1-1.2 24.9-1.2m0 6.6c-7.5 0-12.5 8-12.5 26.7s5 26.3 12.5 26.3c7.4 0 12.4-7.6 12.4-26.3 0-18.7-5-26.7-12.4-26.7" id="SourceSansPro-Regular-30"/></defs><use xlink:href="#SourceSansPro-Regular-30" transform="matrix(.12 0 0 -.12 116.62 397.29)"/></g></g><g id="xtick_2"><path clip-path="url(#p8e79e7582a)" d="M191.34 378.74V33.14" fill="none" stroke="#8fa7bf" stroke-linecap="square" stroke-width=".5" id="line2d_2"/><g id="text_2"><defs><path d="M2.5 7.5c4.4-4.4 10.7-8.7 20.9-8.7 11.1 0 21.5 7.8 21.5 21.6s-8.9 20-19.8 20c-3.9 0-6.8-1-9.8-2.6L17 56.7h24.7v7.1H9.8L7.7 33.1l4.4-2.8c3.8 2.5 6.5 3.9 10.9 3.9 8.2 0 13.6-5.2 13.6-14 0-8.9-6.2-14.6-14-14.6-7.5 0-12.3 3.5-16.1 7.3z" id="SourceSansPro-Regular-35"/></defs><g transform="matrix(.12 0 0 -.12 185.38 397.29)"><use xlink:href="#SourceSansPro-Regular-35"/><use x="49.7" xlink:href="#SourceSansPro-Regular-30"/></g></g></g><g id="xtick_3"><path clip-path="url(#p8e79e7582a)" d="M263.09 378.74V33.14" fill="none" stroke="#8fa7bf" stroke-linecap="square" stroke-width=".5" id="line2d_3"/><g id="text_3"><defs><path d="M7.9 0h36v6.8H30.7v57h-6.3c-3.5-2.1-7.7-3.7-13.5-4.7v-5.3h11.6v-47H7.9z" id="SourceSansPro-Regular-31"/></defs><g transform="matrix(.12 0 0 -.12 254.14 397.29)"><use xlink:href="#SourceSansPro-Regular-31"/><use x="49.7" xlink:href="#SourceSansPro-Regular-30"/><use x="99.4" xlink:href="#SourceSansPro-Regular-30"/></g></g></g><g id="xtick_4"><path clip-path="url(#p8e79e7582a)" d="M334.83 378.74V33.14" fill="none" stroke="#8fa7bf" stroke-linecap="square" stroke-width=".5" id="line2d_4"/><g transform="matrix(.12 0 0 -.12 325.88 397.29)" id="text_4"><use xlink:href="#SourceSansPro-Regular-31"/><use x="49.7" xlink:href="#SourceSansPro-Regular-35"/><use x="99.4" xlink:href="#SourceSansPro-Regular-30"/></g></g><g id="xtick_5"><path clip-path="url(#p8e79e7582a)" d="M406.57 378.74V33.14" fill="none" stroke="#8fa7bf" stroke-linecap="square" stroke-width=".5" id="line2d_5"/><g id="text_5"><defs><path d="M4 0h41.2v7.1H26.7c-3.3 0-7.2-.3-10.7-.6 15.1 15.8 26 27.7 26 39.7C42 57.5 34.7 65 22.9 65c-8.3 0-14-3.9-19.3-9.7l4.7-4.7c3.7 4.3 8.3 7.7 13.6 7.7C30 58.3 34 53.1 34 45.8 34 35.5 23.2 24 4 4.9z" id="SourceSansPro-Regular-32"/></defs><g transform="matrix(.12 0 0 -.12 397.63 397.29)"><use xlink:href="#SourceSansPro-Regular-32"/><use x="49.7" xlink:href="#SourceSansPro-Regular-30"/><use x="99.4" xlink:href="#SourceSansPro-Regular-30"/></g></g></g><g id="xtick_6"><path clip-path="url(#p8e79e7582a)" d="M478.32 378.74V33.14" fill="none" stroke="#8fa7bf" stroke-linecap="square" stroke-width=".5" id="line2d_6"/><g transform="matrix(.12 0 0 -.12 469.37 397.29)" id="text_6"><use xlink:href="#SourceSansPro-Regular-32"/><use x="49.7" xlink:href="#SourceSansPro-Regular-35"/><use x="99.4" xlink:href="#SourceSansPro-Regular-30"/></g></g><g id="xtick_7"><path clip-path="url(#p8e79e7582a)" d="M550.06 378.74V33.14" fill="none" stroke="#8fa7bf" stroke-linecap="square" stroke-width=".5" id="line2d_7"/><g id="text_7"><defs><path d="M2.6 7.8c4.3-4.7 10.8-9 21-9 11.7 0 21 6.9 21 18.2 0 8.8-6.1 14.4-13.8 16.2v.4c6.9 2.6 11.6 7.5 11.6 15.2 0 10.3-8 16.2-19.1 16.2-7.5 0-13.4-3.4-18.3-8l4.4-5.2c3.8 3.8 8.3 6.5 13.6 6.5 6.8 0 11-3.9 11-10.1 0-6.7-4.5-11.9-18.1-11.9V30c15.2 0 20.4-5.1 20.4-12.7 0-7.1-5.5-11.7-13.2-11.7-7.5 0-12.5 3.6-16.3 7.6z" id="SourceSansPro-Regular-33"/></defs><g transform="matrix(.12 0 0 -.12 541.11 397.29)"><use xlink:href="#SourceSansPro-Regular-33"/><use x="49.7" xlink:href="#SourceSansPro-Regular-30"/><use x="99.4" xlink:href="#SourceSansPro-Regular-30"/></g></g></g><g id="xtick_8"><path clip-path="url(#p8e79e7582a)" d="M621.8 378.74V33.14" fill="none" stroke="#8fa7bf" stroke-linecap="square" stroke-width=".5" id="line2d_8"/><g transform="matrix(.12 0 0 -.12 612.85 397.29)" id="text_8"><use xlink:href="#SourceSansPro-Regular-33"/><use x="49.7" xlink:href="#SourceSansPro-Regular-35"/><use x="99.4" xlink:href="#SourceSansPro-Regular-30"/></g></g><g id="text_9"><defs><path d="M8.2 0h8.2v35.2c4.5 5 8.6 7.5 12.2 7.5 6.2 0 9.1-3.9 9.1-13V0h8.2v35.2c4.5 5 8.4 7.5 12.2 7.5 6.1 0 9-3.9 9-13V0h8.2v30.8c0 12.4-4.8 19-14.8 19-5.9 0-10.9-3.8-16-9.3-2 5.8-6 9.3-13.4 9.3-5.8 0-10.9-3.6-15.1-8.2h-.3l-.7 7H8.2z" id="SourceSansPro-Regular-6d"/><path d="M8.2 0h8.2v31.2c3.3 8.2 8.2 11.2 12.3 11.2 2 0 3.1-.3 4.7-.8l1.6 7.2a12 12 0 0 1-5.2 1c-5.5 0-10.5-3.9-13.8-10h-.3l-.7 8.8H8.2z" id="SourceSansPro-Regular-72"/><path d="M9 0h7.9v34.3c0 6.9-.6 13.9-1.1 20.5h.4l7.1-13.5L47.1 0h8.6v65.6h-7.9V31.7c0-6.9.6-14.3 1-20.9h-.4l-7.1 13.6-23.7 41.2H9z" id="SourceSansPro-Regular-4e"/><path d="M4.6 24.2C4.6 8.1 15.2-1.2 27.1-1.2s22.5 9.3 22.5 25.4c0 16.3-10.6 25.6-22.5 25.6S4.6 40.5 4.6 24.2m8.5 0c0 11.2 5.7 18.8 14 18.8 8.4 0 14-7.6 14-18.8 0-11.1-5.6-18.6-14-18.6-8.3 0-14 7.5-14 18.6" id="SourceSansPro-Regular-6f"/><path d="M31.9 70.8c-2.2.9-5.1 1.6-8.1 1.6-9.7 0-14.2-6.2-14.2-16.1v-7.7L3 48.1v-6.2h6.6V0h8.2v41.9h10.3v6.7H17.8v7.7c0 6.2 2.2 9.4 6.8 9.4 1.8 0 3.7-.4 5.5-1.2z" id="SourceSansPro-Regular-66"/><path d="M8.2 0h6.6l.7 4.8h.3c4.3-3.8 9.4-6 13.9-6 11.1 0 21 9.7 21 26.3 0 15-6.7 24.7-19.3 24.7-5.4 0-10.8-2.9-15.2-6.8l.2 8.8v19.4H8.2zm8.2 10.8v25.5c4.6 4.3 8.9 6.6 13 6.6 9.2 0 12.8-7.2 12.8-17.9 0-12-5.9-19.3-13.9-19.3-3.2 0-7.6 1.4-11.9 5.1" id="SourceSansPro-Regular-62"/><path d="M7.5 17.8c0-12.4 4.6-19 14.9-19 6.7 0 11.5 3.5 16 8.8h.3l.7-7.6h6.8v48.6H38V14.1c-4.6-5.7-8.1-8.2-13.1-8.2-6.4 0-9.1 3.9-9.1 13v29.7H7.5z" id="SourceSansPro-Regular-75"/><path d="M2.8 5.5C7.4 1.7 14-1.2 20.9-1.2c11.5 0 17.8 6.6 17.8 14.5 0 9.2-7.8 12.1-14.8 14.7-5.5 2.1-10.8 3.8-10.8 8.4 0 3.7 2.8 7 8.9 7 4.3 0 7.8-1.8 11.1-4.3l3.9 5.2c-3.7 3-9 5.5-15.1 5.5-10.5 0-16.7-6-16.7-13.8 0-8.2 7.6-11.5 14.5-14 5.3-2 11.1-4.2 11.1-9.2 0-4.2-3.2-7.6-9.6-7.6-5.8 0-10.1 2.4-14.3 5.8z" id="SourceSansPro-Regular-73"/><path d="M8.2 0h8.2v35.2c4.9 4.9 8.3 7.5 13.3 7.5 6.4 0 9.2-3.9 9.2-13V0h8.2v30.8c0 12.4-4.6 19-14.8 19-6.7 0-11.7-3.6-16.3-8.2h-.3l-.7 7H8.2z" id="SourceSansPro-Regular-6e"/><path d="M8.3-5.5c0-5.9-1.2-9.5-6-9.5-1.7 0-3.4.4-4.6.8L-4-20.4c1.7-.7 4.2-1.3 7.2-1.3 9.7 0 13.3 6.3 13.3 16.2v54.1H8.3zm4.2 64.1c3.1 0 5.6 2.2 5.6 5.3 0 3.2-2.5 5.3-5.6 5.3-3.2 0-5.7-2.1-5.7-5.3 0-3.1 2.5-5.3 5.7-5.3" id="SourceSansPro-Regular-6a"/><path d="M4.6 24.2C4.6 8.3 14.9-1.2 27.9-1.2c6.6 0 11.8 2.3 16 5L41 9.2c-3.6-2.3-7.5-3.8-12.1-3.8-9.3 0-15.6 6.6-16.2 17.1h32.8c.2 1.2.3 2.8.3 4.5 0 13.9-7 22.8-19.4 22.8-11.1 0-21.8-9.7-21.8-25.6m8 3.7c1 9.8 7.2 15.4 14 15.4 7.6 0 12-5.5 12-15.4z" id="SourceSansPro-Regular-65"/><path d="M4.9-13.4l-1.6-6.5c1.6-.6 3.5-1 5.7-1 9.8 0 14.8 7.3 18.2 16.9l18.3 52.6h-8l-8.7-26.9c-1.3-4.3-2.7-9.3-4.1-13.7h-.4c-1.5 4.5-3.2 9.5-4.7 13.7L9.7 48.6H1.2L20.7-.1l-1.1-3.6c-2-6-5.5-10.4-11-10.4-1.2 0-2.7.4-3.7.7" id="SourceSansPro-Regular-79"/></defs><g transform="matrix(.144 0 0 -.144 311.19 415.17)"><use xlink:href="#SourceSansPro-Regular-4e"/><use x="64.7" xlink:href="#SourceSansPro-Regular-75"/><use x="119.1" xlink:href="#SourceSansPro-Regular-6d"/><use x="202" xlink:href="#SourceSansPro-Regular-62"/><use x="257.5" xlink:href="#SourceSansPro-Regular-65"/><use x="307.1" xlink:href="#SourceSansPro-Regular-72"/><use x="341.8" xlink:href="#SourceSansPro-Regular-20"/><use x="362" xlink:href="#SourceSansPro-Regular-6f"/><use x="416.2" xlink:href="#SourceSansPro-Regular-66"/><use x="445.4" xlink:href="#SourceSansPro-Regular-20"/><use x="465.6" xlink:href="#SourceSansPro-Regular-6a"/><use x="490.3" xlink:href="#SourceSansPro-Regular-6f"/><use x="544.5" xlink:href="#SourceSansPro-Regular-75"/><use x="598.9" xlink:href="#SourceSansPro-Regular-72"/><use x="633.6" xlink:href="#SourceSansPro-Regular-6e"/><use x="688.3" xlink:href="#SourceSansPro-Regular-65"/><use x="737.9" xlink:href="#SourceSansPro-Regular-79"/><use x="784.6" xlink:href="#SourceSansPro-Regular-73"/></g></g></g><g id="matplotlib.axis_2"><g id="ytick_1"><g id="text_10"><defs><path d="M9.6 15c0-9.6 3.5-16.2 13.9-16.2 3 0 6.3.9 9 1.8l-1.6 6.2c-1.6-.6-3.8-1.3-5.5-1.3-5.6 0-7.5 3.4-7.5 9.4v27H31v6.7H17.9v13.6H11l-1-13.6-7.6-.5v-6.2h7.2z" id="SourceSansPro-Regular-74"/><path d="M11.2 17.5c0 5.1 3.6 9 8.2 12.7 4.6-7 10.8-13.9 17.2-19.5-3.8-3.3-8-5.3-12.5-5.3-7.2 0-12.9 4.8-12.9 12.1m7.7 33.9c0 5.4 3.2 9.5 8.1 9.5 4.4 0 6.2-3.4 6.2-7.2 0-5.8-5.2-9.8-11.2-13.8-1.9 4-3.1 7.9-3.1 11.5M59.4 5.6c-3.6 1-7.8 3.2-12.3 6.3 5.2 6.9 8.9 14.9 11.5 23.5h-7.7c-2-7.5-5.2-14-9.2-19.4-6.2 5.2-12.3 11.7-16.6 18.4 7.3 5.3 14.8 10.8 14.8 19.4 0 7.7-4.8 13-12.9 13-9.1 0-15.2-6.8-15.2-15.5 0-4.8 1.6-10 4.3-15.4C9.4 31.3 3.2 25.8 3.2 17c0-10.6 8.1-18.2 20-18.2 7.7 0 13.9 3 18.9 7.5C47.4 2.6 52.6.1 57.2-1.2z" id="SourceSansPro-Regular-26"/><path d="M11.7-8.2c0 2.8 1.5 5.7 5 8.2 2.1-.6 4.4-.8 6.3-.8h8.4c6.3 0 9.8-1.5 9.8-6 0-5.1-6.1-9.9-15.4-9.9-8.8 0-14.1 3.3-14.1 8.5M4.5-9.3c0-8.4 8.2-13.1 20.1-13.1 15.1 0 24.6 7.8 24.6 16.8 0 8.1-5.7 11.6-17 11.6h-9.4c-6.6 0-8.6 2.2-8.6 5.3 0 2.7 1.4 4.3 3.1 5.8 2.2-1.1 4.9-1.7 7.3-1.7 9.9 0 17.8 6.5 17.8 16.9 0 4.1-1.7 7.8-4 10h10v6.3H31.5c-1.8.7-4.2 1.2-6.9 1.2-9.9 0-18.3-6.7-18.3-17.3 0-5.8 3.1-10.5 6.3-13.1V19c-2.5-1.7-5.3-4.9-5.3-9a9 9 0 0 1 4.3-7.9v-.4c-4.4-3-7.1-6.9-7.1-11m20.1 30.2c-5.6 0-10.3 4.5-10.3 11.6s4.6 11.3 10.3 11.3c5.7 0 10.3-4.2 10.3-11.3 0-7.1-4.7-11.6-10.3-11.6" id="SourceSansPro-Regular-67"/><path d="M8.2 9.8c0-7.1 2.5-11 8.7-11 2.2 0 3.6.3 4.7.8l-1.1 6.2c-.9-.2-1.3-.2-1.8-.2-1.2 0-2.3 1-2.3 3.6v62H8.2z" id="SourceSansPro-Regular-6c"/><path d="M12.4 58.6c3.2 0 5.7 2.2 5.7 5.3 0 3.2-2.5 5.3-5.7 5.3s-5.7-2.1-5.7-5.3c0-3.1 2.5-5.3 5.7-5.3M8.2 0h8.2v48.6H8.2z" id="SourceSansPro-Regular-69"/><path d="M9 0h8.3v65.6H9z" id="SourceSansPro-Regular-49"/><path d="M9 0h8.3v30.9h30.5V0h8.4v65.6h-8.4V38.1H17.3v27.5H9z" id="SourceSansPro-Regular-48"/><path d="M8.2 0h8.2v35.2c4.9 4.9 8.3 7.5 13.3 7.5 6.4 0 9.2-3.9 9.2-13V0h8.2v30.8c0 12.4-4.6 19-14.8 19-6.7 0-11.6-3.6-16.2-8l.3 10v19.4H8.2z" id="SourceSansPro-Regular-68"/></defs><g transform="matrix(.12 0 0 -.12 7.2 359.01)"><use xlink:href="#SourceSansPro-Regular-48"/><use x="65.2" xlink:href="#SourceSansPro-Regular-69"/><use x="89.8" xlink:href="#SourceSansPro-Regular-67"/><use x="140.2" xlink:href="#SourceSansPro-Regular-68"/><use x="194.6" xlink:href="#SourceSansPro-Regular-62"/><use x="250.1" xlink:href="#SourceSansPro-Regular-75"/><use x="304.5" xlink:href="#SourceSansPro-Regular-72"/><use x="339.2" xlink:href="#SourceSansPro-Regular-79"/><use x="385.9" xlink:href="#SourceSansPro-Regular-20"/><use x="406.1" xlink:href="#SourceSansPro-Regular-26"/><use x="467" xlink:href="#SourceSansPro-Regular-20"/><use x="487.2" xlink:href="#SourceSansPro-Regular-49"/><use x="513.5" xlink:href="#SourceSansPro-Regular-73"/><use x="555.4" xlink:href="#SourceSansPro-Regular-6c"/><use x="580.9" xlink:href="#SourceSansPro-Regular-69"/><use x="605.5" xlink:href="#SourceSansPro-Regular-6e"/><use x="660.2" xlink:href="#SourceSansPro-Regular-67"/><use x="710.6" xlink:href="#SourceSansPro-Regular-74"/><use x="744.4" xlink:href="#SourceSansPro-Regular-6f"/><use x="798.6" xlink:href="#SourceSansPro-Regular-6e"/></g><defs><path d="M15.9 0h9.6l6.8 26c1.3 4.6 2.3 9.2 3.4 14.1h.4c1.2-4.9 2.1-9.4 3.3-14l7-26.1h10l13 48.6h-7.8l-7.1-28.1c-1-4.6-1.9-9-3-13.5h-.4c-1.1 4.5-2.2 8.9-3.4 13.5l-7.6 28.1h-8l-7.5-28.1c-1.2-4.5-2.2-9-3.3-13.5h-.4c-.9 4.5-1.8 8.9-2.9 13.5l-7.2 28.1H2.4z" id="SourceSansPro-Regular-77"/><path d="M2.6 25L29.9-1.5l4.2 4.6L14 21.8h43.9v6.8H14l20.1 18.7-4.2 4.6L2.6 25.4z" id="SourceSansPro-Regular-2190"/><path d="M59.1 25.4L31.9 51.9l-4.3-4.6 20.1-18.7H3.9v-6.8h43.8L27.6 3.1l4.3-4.6L59.1 25z" id="SourceSansPro-Regular-2192"/><path d="M16.2 0h9.9l9.7 39.5c1.1 5.1 2.3 9.8 3.3 14.9h.4c1-5.1 2-9.8 3.2-14.9L52.6 0h10l13.6 65.6h-8l-6.9-35.7c-1.3-7-2.5-14.1-3.7-21.2h-.4C55.6 15.8 54 23 52.4 29.9l-9.1 35.7h-7.6l-9.1-35.7c-1.5-7-3.1-14.1-4.6-21.2h-.4c-1.2 7.1-2.6 14.1-3.8 21.2l-6.9 35.7H2.3z" id="SourceSansPro-Regular-57"/><path d="M4.6 24.2c0-16.1 9.9-25.4 22.8-25.4 5.8 0 11.4 2.4 15.8 6.3l-3.7 5.4c-2.9-2.6-6.8-4.9-11.4-4.9-8.9 0-15 7.5-15 18.6 0 11.2 6.4 18.8 15.2 18.8 3.9 0 6.9-1.8 9.8-4.3l4.1 5.3c-3.3 3.1-7.8 5.8-14.2 5.8-12.5 0-23.4-9.3-23.4-25.6" id="SourceSansPro-Regular-63"/></defs><g transform="matrix(.12 0 0 -.12 43.25 371.96)"><use xlink:href="#SourceSansPro-Regular-2190"/><use x="61.9" xlink:href="#SourceSansPro-Regular-2192"/><use x="123.8" xlink:href="#SourceSansPro-Regular-20"/><use x="144" xlink:href="#SourceSansPro-Regular-57"/><use x="222.6" xlink:href="#SourceSansPro-Regular-6f"/><use x="276.8" xlink:href="#SourceSansPro-Regular-6f"/><use x="331" xlink:href="#SourceSansPro-Regular-6c"/><use x="356.5" xlink:href="#SourceSansPro-Regular-77"/><use x="428.3" xlink:href="#SourceSansPro-Regular-69"/><use x="452.9" xlink:href="#SourceSansPro-Regular-63"/><use x="498.5" xlink:href="#SourceSansPro-Regular-68"/></g></g></g><g id="ytick_2"><g id="text_11"><defs><path d="M8.2 0h8.1v12.8l9.1 10.6L39.6 0h9L30.1 29.1l16.3 19.5h-9.1L16.6 23h-.3v48.2H8.2z" id="SourceSansPro-Regular-6b"/><path d="M5.8 12.6c0-8.7 6.1-13.8 14.3-13.8 6 0 11.4 3.2 16.1 7h.2l.7-5.8h6.8v29.8c0 12.1-5 20-16.9 20-7.8 0-14.6-3.4-19.1-6.3l3.3-5.7C15 40.4 20 43 25.7 43c7.9 0 10-6 10-12.2C15 28.5 5.8 23.2 5.8 12.6m8.1.6c0 6.2 5.5 10.2 21.8 12.2V11.9C31 7.7 27.1 5.4 22.4 5.4c-4.8 0-8.5 2.3-8.5 7.8" id="SourceSansPro-Regular-61"/></defs><g transform="matrix(.12 0 0 -.12 22.6 324.22)"><use xlink:href="#SourceSansPro-Regular-48"/><use x="65.2" xlink:href="#SourceSansPro-Regular-61"/><use x="116.4" xlink:href="#SourceSansPro-Regular-63"/><use x="162" xlink:href="#SourceSansPro-Regular-6b"/><use x="211.5" xlink:href="#SourceSansPro-Regular-6e"/><use x="266.2" xlink:href="#SourceSansPro-Regular-65"/><use x="315.8" xlink:href="#SourceSansPro-Regular-79"/><use x="362.5" xlink:href="#SourceSansPro-Regular-20"/><use x="382.7" xlink:href="#SourceSansPro-Regular-57"/><use x="461.3" xlink:href="#SourceSansPro-Regular-69"/><use x="485.9" xlink:href="#SourceSansPro-Regular-63"/><use x="531.5" xlink:href="#SourceSansPro-Regular-6b"/><use x="581" xlink:href="#SourceSansPro-Regular-20"/><use x="601.2" xlink:href="#SourceSansPro-Regular-2190"/><use x="663.1" xlink:href="#SourceSansPro-Regular-2192"/></g><g transform="matrix(.12 0 0 -.12 7.2 336.99)"><use xlink:href="#SourceSansPro-Regular-48"/><use x="65.2" xlink:href="#SourceSansPro-Regular-69"/><use x="89.8" xlink:href="#SourceSansPro-Regular-67"/><use x="140.2" xlink:href="#SourceSansPro-Regular-68"/><use x="194.6" xlink:href="#SourceSansPro-Regular-62"/><use x="250.1" xlink:href="#SourceSansPro-Regular-75"/><use x="304.5" xlink:href="#SourceSansPro-Regular-72"/><use x="339.2" xlink:href="#SourceSansPro-Regular-79"/><use x="385.9" xlink:href="#SourceSansPro-Regular-20"/><use x="406.1" xlink:href="#SourceSansPro-Regular-26"/><use x="467" xlink:href="#SourceSansPro-Regular-20"/><use x="487.2" xlink:href="#SourceSansPro-Regular-49"/><use x="513.5" xlink:href="#SourceSansPro-Regular-73"/><use x="555.4" xlink:href="#SourceSansPro-Regular-6c"/><use x="580.9" xlink:href="#SourceSansPro-Regular-69"/><use x="605.5" xlink:href="#SourceSansPro-Regular-6e"/><use x="660.2" xlink:href="#SourceSansPro-Regular-67"/><use x="710.6" xlink:href="#SourceSansPro-Regular-74"/><use x="744.4" xlink:href="#SourceSansPro-Regular-6f"/><use x="798.6" xlink:href="#SourceSansPro-Regular-6e"/></g></g></g><g id="ytick_3"><g id="text_12"><g transform="matrix(.12 0 0 -.12 46.47 289.9)"><use xlink:href="#SourceSansPro-Regular-57"/><use x="78.6" xlink:href="#SourceSansPro-Regular-65"/><use x="128.2" xlink:href="#SourceSansPro-Regular-73"/><use x="170.1" xlink:href="#SourceSansPro-Regular-74"/><use x="203.9" xlink:href="#SourceSansPro-Regular-6d"/><use x="286.8" xlink:href="#SourceSansPro-Regular-69"/><use x="311.4" xlink:href="#SourceSansPro-Regular-6e"/><use x="366.1" xlink:href="#SourceSansPro-Regular-73"/><use x="408" xlink:href="#SourceSansPro-Regular-74"/><use x="441.8" xlink:href="#SourceSansPro-Regular-65"/><use x="491.4" xlink:href="#SourceSansPro-Regular-72"/></g><g transform="matrix(.12 0 0 -.12 43.25 302.6)"><use xlink:href="#SourceSansPro-Regular-2190"/><use x="61.9" xlink:href="#SourceSansPro-Regular-2192"/><use x="123.8" xlink:href="#SourceSansPro-Regular-20"/><use x="144" xlink:href="#SourceSansPro-Regular-57"/><use x="222.6" xlink:href="#SourceSansPro-Regular-6f"/><use x="276.8" xlink:href="#SourceSansPro-Regular-6f"/><use x="331" xlink:href="#SourceSansPro-Regular-6c"/><use x="356.5" xlink:href="#SourceSansPro-Regular-77"/><use x="428.3" xlink:href="#SourceSansPro-Regular-69"/><use x="452.9" xlink:href="#SourceSansPro-Regular-63"/><use x="498.5" xlink:href="#SourceSansPro-Regular-68"/></g></g></g><g id="ytick_4"><g id="text_13"><g transform="matrix(.12 0 0 -.12 46.5 255.33)"><use xlink:href="#SourceSansPro-Regular-57"/><use x="78.6" xlink:href="#SourceSansPro-Regular-61"/><use x="129.8" xlink:href="#SourceSansPro-Regular-74"/><use x="163.6" xlink:href="#SourceSansPro-Regular-65"/><use x="213.2" xlink:href="#SourceSansPro-Regular-72"/><use x="247.9" xlink:href="#SourceSansPro-Regular-6c"/><use x="273.4" xlink:href="#SourceSansPro-Regular-6f"/><use x="327.6" xlink:href="#SourceSansPro-Regular-6f"/><use x="381.8" xlink:href="#SourceSansPro-Regular-20"/><use x="402" xlink:href="#SourceSansPro-Regular-2190"/><use x="463.9" xlink:href="#SourceSansPro-Regular-2192"/></g><g transform="matrix(.12 0 0 -.12 60.53 268.05)"><use xlink:href="#SourceSansPro-Regular-57"/><use x="78.6" xlink:href="#SourceSansPro-Regular-6f"/><use x="132.8" xlink:href="#SourceSansPro-Regular-6f"/><use x="187" xlink:href="#SourceSansPro-Regular-6c"/><use x="212.5" xlink:href="#SourceSansPro-Regular-77"/><use x="284.3" xlink:href="#SourceSansPro-Regular-69"/><use x="308.9" xlink:href="#SourceSansPro-Regular-63"/><use x="354.5" xlink:href="#SourceSansPro-Regular-68"/></g></g></g><g id="ytick_5"><g id="text_14"><defs><path d="M1.4 0H10l6.6 11.3c1.6 3 3.2 5.9 4.9 8.7h.4c1.8-2.8 3.6-5.8 5.3-8.7L34.3 0h8.9L27.4 24.5l14.7 24.1h-8.6l-5.9-10.7c-1.5-2.6-3-5.4-4.4-8.1h-.4c-1.7 2.7-3.3 5.5-4.8 8.1l-6.5 10.7H2.6l14.7-23.2z" id="SourceSansPro-Regular-78"/><path d="M33.2-1.2c16.5 0 28.1 13.2 28.1 34.3 0 20.9-11.6 33.7-28.1 33.7s-28-12.7-28-33.7c0-21.1 11.5-34.3 28-34.3m0 7.3c-11.7 0-19.4 10.6-19.4 27 0 16.3 7.7 26.4 19.4 26.4s19.4-10.1 19.4-26.4c0-16.4-7.7-27-19.4-27" id="SourceSansPro-Regular-4f"/><path d="M4.7 24.2C4.7 8 12.6-1.2 24.8-1.2c5.7 0 10.9 3.2 14.7 6.9h.3l.7-5.7h6.8v71.2H39V52.5l.4-8.3c-4.3 3.5-8 5.6-13.6 5.6-11.1 0-21.1-9.8-21.1-25.6m8.5.1c0 11.1 6.2 18.6 14 18.6 4 0 7.7-1.4 11.8-5.1V12.4c-4-4.5-7.9-6.7-12.4-6.7-8.5 0-13.4 7-13.4 18.6" id="SourceSansPro-Regular-64"/><path d="M5.2 32.8c0-21.4 12.2-34 28.7-34 8.4 0 14.8 3.5 20 9.5l-4.7 5.1C45 8.7 40.4 6.1 34.1 6.1 21.7 6.1 13.8 16.5 13.8 33c0 16.3 8.2 26.5 20.7 26.5 5.5 0 9.7-2.4 13.1-6.1l4.7 5.3c-3.8 4.3-10 8.1-17.9 8.1-16.8 0-29.2-12.9-29.2-34" id="SourceSansPro-Regular-43"/></defs><g transform="matrix(.12 0 0 -.12 42.03 220.77)"><use xlink:href="#SourceSansPro-Regular-4f"/><use x="66.4" xlink:href="#SourceSansPro-Regular-78"/><use x="111" xlink:href="#SourceSansPro-Regular-66"/><use x="140.2" xlink:href="#SourceSansPro-Regular-6f"/><use x="194.4" xlink:href="#SourceSansPro-Regular-72"/><use x="229.1" xlink:href="#SourceSansPro-Regular-64"/><use x="284.6" xlink:href="#SourceSansPro-Regular-20"/><use x="304.8" xlink:href="#SourceSansPro-Regular-43"/><use x="361.9" xlink:href="#SourceSansPro-Regular-69"/><use x="386.5" xlink:href="#SourceSansPro-Regular-72"/><use x="421.2" xlink:href="#SourceSansPro-Regular-63"/><use x="466.8" xlink:href="#SourceSansPro-Regular-75"/><use x="521.2" xlink:href="#SourceSansPro-Regular-73"/></g><g transform="matrix(.12 0 0 -.12 43.25 233.49)"><use xlink:href="#SourceSansPro-Regular-2190"/><use x="61.9" xlink:href="#SourceSansPro-Regular-2192"/><use x="123.8" xlink:href="#SourceSansPro-Regular-20"/><use x="144" xlink:href="#SourceSansPro-Regular-57"/><use x="222.6" xlink:href="#SourceSansPro-Regular-6f"/><use x="276.8" xlink:href="#SourceSansPro-Regular-6f"/><use x="331" xlink:href="#SourceSansPro-Regular-6c"/><use x="356.5" xlink:href="#SourceSansPro-Regular-77"/><use x="428.3" xlink:href="#SourceSansPro-Regular-69"/><use x="452.9" xlink:href="#SourceSansPro-Regular-63"/><use x="498.5" xlink:href="#SourceSansPro-Regular-68"/></g></g></g><g id="ytick_6"><g id="text_15"><defs><path d="M9 0h8.3v20.8l11.3 13.3L48.2 0h9.3L33.8 40.6l20.5 25h-9.4L17.6 32.7h-.3v32.9H9z" id="SourceSansPro-Regular-4b"/></defs><g transform="matrix(.12 0 0 -.12 52.06 186.1)"><use xlink:href="#SourceSansPro-Regular-4b"/><use x="57.9" xlink:href="#SourceSansPro-Regular-69"/><use x="82.5" xlink:href="#SourceSansPro-Regular-6e"/><use x="137.2" xlink:href="#SourceSansPro-Regular-67"/><use x="187.6" xlink:href="#SourceSansPro-Regular-73"/><use x="229.5" xlink:href="#SourceSansPro-Regular-20"/><use x="249.7" xlink:href="#SourceSansPro-Regular-43"/><use x="306.8" xlink:href="#SourceSansPro-Regular-72"/><use x="341.5" xlink:href="#SourceSansPro-Regular-6f"/><use x="395.7" xlink:href="#SourceSansPro-Regular-73"/><use x="437.6" xlink:href="#SourceSansPro-Regular-73"/></g><g transform="matrix(.12 0 0 -.12 43.25 199.04)"><use xlink:href="#SourceSansPro-Regular-2190"/><use x="61.9" xlink:href="#SourceSansPro-Regular-2192"/><use x="123.8" xlink:href="#SourceSansPro-Regular-20"/><use x="144" xlink:href="#SourceSansPro-Regular-57"/><use x="222.6" xlink:href="#SourceSansPro-Regular-6f"/><use x="276.8" xlink:href="#SourceSansPro-Regular-6f"/><use x="331" xlink:href="#SourceSansPro-Regular-6c"/><use x="356.5" xlink:href="#SourceSansPro-Regular-77"/><use x="428.3" xlink:href="#SourceSansPro-Regular-69"/><use x="452.9" xlink:href="#SourceSansPro-Regular-63"/><use x="498.5" xlink:href="#SourceSansPro-Regular-68"/></g></g></g><g id="ytick_7"><g id="text_16"><defs><path d="M5.2 32.8c0-21.4 12.3-34 29.5-34 8.8 0 16 3.2 20.3 7.6V34H33.5v-6.9h13.9V10c-2.6-2.4-7.1-3.9-11.8-3.9-14 0-21.8 10.4-21.8 26.9 0 16.3 8.5 26.5 21.7 26.5 6.6 0 10.7-2.6 14-6.1l4.7 5.3c-3.8 4-9.8 8.1-18.8 8.1-17.5 0-30.2-12.9-30.2-34" id="SourceSansPro-Regular-47"/></defs><g transform="matrix(.12 0 0 -.12 24.56 151.65)"><use xlink:href="#SourceSansPro-Regular-4e"/><use x="64.7" xlink:href="#SourceSansPro-Regular-6f"/><use x="118.9" xlink:href="#SourceSansPro-Regular-72"/><use x="153.6" xlink:href="#SourceSansPro-Regular-74"/><use x="187.4" xlink:href="#SourceSansPro-Regular-68"/><use x="241.8" xlink:href="#SourceSansPro-Regular-20"/><use x="262" xlink:href="#SourceSansPro-Regular-47"/><use x="323.7" xlink:href="#SourceSansPro-Regular-72"/><use x="358.4" xlink:href="#SourceSansPro-Regular-65"/><use x="408" xlink:href="#SourceSansPro-Regular-65"/><use x="457.6" xlink:href="#SourceSansPro-Regular-6e"/><use x="512.3" xlink:href="#SourceSansPro-Regular-77"/><use x="584.1" xlink:href="#SourceSansPro-Regular-69"/><use x="608.7" xlink:href="#SourceSansPro-Regular-63"/><use x="654.3" xlink:href="#SourceSansPro-Regular-68"/></g><g transform="matrix(.12 0 0 -.12 43.25 164.37)"><use xlink:href="#SourceSansPro-Regular-2190"/><use x="61.9" xlink:href="#SourceSansPro-Regular-2192"/><use x="123.8" xlink:href="#SourceSansPro-Regular-20"/><use x="144" xlink:href="#SourceSansPro-Regular-57"/><use x="222.6" xlink:href="#SourceSansPro-Regular-6f"/><use x="276.8" xlink:href="#SourceSansPro-Regular-6f"/><use x="331" xlink:href="#SourceSansPro-Regular-6c"/><use x="356.5" xlink:href="#SourceSansPro-Regular-77"/><use x="428.3" xlink:href="#SourceSansPro-Regular-69"/><use x="452.9" xlink:href="#SourceSansPro-Regular-63"/><use x="498.5" xlink:href="#SourceSansPro-Regular-68"/></g></g></g><g id="ytick_8"><g id="text_17"><defs><path d="M9 0h8.3v26h11.8c14.4 0 24.2 6.5 24.2 20.3 0 14.4-9.7 19.3-24.2 19.3H9zm8.3 32.8v26.1h10.8c11.3 0 16.9-3.1 16.9-12.6 0-9.3-5.5-13.5-16.9-13.5z" id="SourceSansPro-Regular-50"/><path d="M9 0h7.7v36.1c0 5.8-.7 13.6-1.1 19.4h.4l5.2-14.6L33.9 6.6h4.7l12.6 34.3 5.3 14.6h.4c-.5-5.8-1.1-13.6-1.1-19.4V0h7.9v65.6h-9.8L41.3 30.4 36.7 17h-.4l-4.8 13.4-12.7 35.2H9z" id="SourceSansPro-Regular-4d"/><path d="M9 0h37v7.1H17.3v58.5H9z" id="SourceSansPro-Regular-4c"/></defs><g transform="matrix(.12 0 0 -.12 20.14 117.1)"><use xlink:href="#SourceSansPro-Regular-50"/><use x="57.6" xlink:href="#SourceSansPro-Regular-75"/><use x="112" xlink:href="#SourceSansPro-Regular-64"/><use x="167.5" xlink:href="#SourceSansPro-Regular-64"/><use x="223" xlink:href="#SourceSansPro-Regular-69"/><use x="247.6" xlink:href="#SourceSansPro-Regular-6e"/><use x="302.3" xlink:href="#SourceSansPro-Regular-67"/><use x="352.7" xlink:href="#SourceSansPro-Regular-20"/><use x="372.9" xlink:href="#SourceSansPro-Regular-4d"/><use x="445.6" xlink:href="#SourceSansPro-Regular-69"/><use x="470.2" xlink:href="#SourceSansPro-Regular-6c"/><use x="495.7" xlink:href="#SourceSansPro-Regular-6c"/><use x="521.2" xlink:href="#SourceSansPro-Regular-20"/><use x="541.4" xlink:href="#SourceSansPro-Regular-4c"/><use x="590" xlink:href="#SourceSansPro-Regular-61"/><use x="641.2" xlink:href="#SourceSansPro-Regular-6e"/><use x="695.9" xlink:href="#SourceSansPro-Regular-65"/></g><g transform="matrix(.12 0 0 -.12 43.25 130.04)"><use xlink:href="#SourceSansPro-Regular-2190"/><use x="61.9" xlink:href="#SourceSansPro-Regular-2192"/><use x="123.8" xlink:href="#SourceSansPro-Regular-20"/><use x="144" xlink:href="#SourceSansPro-Regular-57"/><use x="222.6" xlink:href="#SourceSansPro-Regular-6f"/><use x="276.8" xlink:href="#SourceSansPro-Regular-6f"/><use x="331" xlink:href="#SourceSansPro-Regular-6c"/><use x="356.5" xlink:href="#SourceSansPro-Regular-77"/><use x="428.3" xlink:href="#SourceSansPro-Regular-69"/><use x="452.9" xlink:href="#SourceSansPro-Regular-63"/><use x="498.5" xlink:href="#SourceSansPro-Regular-68"/></g></g></g><g id="ytick_9"><g id="text_18"><defs><path d="M8.6 43.1c6.9 4 10.7 9.7 10.7 17.7 0 5.8-2.4 9.1-6.3 9.1-3.1 0-5.3-2.1-5.3-5.6 0-3.2 2.5-5 5.3-5 .3 0 .5 0 .8.1 0-5.8-2.5-9.2-7.5-12.5z" id="SourceSansPro-Regular-2019"/><path d="M4.2 8.5c5.7-5.9 13.8-9.7 23-9.7 13.8 0 22.3 8.3 22.3 18.7 0 9.7-5.9 14.2-13.5 17.5l-9.3 4c-5.2 2.2-10.9 4.6-10.9 10.9 0 5.9 4.9 9.6 12.2 9.6 6.1 0 10.9-2.4 14.9-6.2l4.5 5.4c-4.7 4.8-11.6 8.1-19.4 8.1-11.9 0-20.6-7.4-20.6-17.4 0-9.6 7.1-14.3 13.3-16.9l9.4-4.1C36.3 25.6 41 23.5 41 16.8c0-6.4-5.1-10.7-13.7-10.7-6.8 0-13.4 3.3-18.1 8.2z" id="SourceSansPro-Regular-53"/></defs><g transform="matrix(.12 0 0 -.12 41.7 82.53)"><use xlink:href="#SourceSansPro-Regular-53"/><use x="53.4" xlink:href="#SourceSansPro-Regular-74"/><use x="87.2" xlink:href="#SourceSansPro-Regular-72"/><use x="121.9" xlink:href="#SourceSansPro-Regular-61"/><use x="173.1" xlink:href="#SourceSansPro-Regular-74"/><use x="206.9" xlink:href="#SourceSansPro-Regular-66"/><use x="236.1" xlink:href="#SourceSansPro-Regular-6f"/><use x="290.3" xlink:href="#SourceSansPro-Regular-72"/><use x="325" xlink:href="#SourceSansPro-Regular-64"/><use x="380.5" xlink:href="#SourceSansPro-Regular-20"/><use x="400.7" xlink:href="#SourceSansPro-Regular-49"/><use x="427" xlink:href="#SourceSansPro-Regular-6e"/><use x="481.7" xlink:href="#SourceSansPro-Regular-74"/><use x="515.5" xlink:href="#SourceSansPro-Regular-2019"/><use x="540.4" xlink:href="#SourceSansPro-Regular-6c"/></g><g transform="matrix(.12 0 0 -.12 43.25 95.25)"><use xlink:href="#SourceSansPro-Regular-2190"/><use x="61.9" xlink:href="#SourceSansPro-Regular-2192"/><use x="123.8" xlink:href="#SourceSansPro-Regular-20"/><use x="144" xlink:href="#SourceSansPro-Regular-57"/><use x="222.6" xlink:href="#SourceSansPro-Regular-6f"/><use x="276.8" xlink:href="#SourceSansPro-Regular-6f"/><use x="331" xlink:href="#SourceSansPro-Regular-6c"/><use x="356.5" xlink:href="#SourceSansPro-Regular-77"/><use x="428.3" xlink:href="#SourceSansPro-Regular-69"/><use x="452.9" xlink:href="#SourceSansPro-Regular-63"/><use x="498.5" xlink:href="#SourceSansPro-Regular-68"/></g></g></g><g id="ytick_10"><g id="text_19"><g transform="matrix(.12 0 0 -.12 63.94 47.97)"><use xlink:href="#SourceSansPro-Regular-53"/><use x="53.4" xlink:href="#SourceSansPro-Regular-74"/><use x="87.2" xlink:href="#SourceSansPro-Regular-72"/><use x="121.9" xlink:href="#SourceSansPro-Regular-61"/><use x="173.1" xlink:href="#SourceSansPro-Regular-74"/><use x="206.9" xlink:href="#SourceSansPro-Regular-66"/><use x="236.1" xlink:href="#SourceSansPro-Regular-6f"/><use x="290.3" xlink:href="#SourceSansPro-Regular-72"/><use x="325" xlink:href="#SourceSansPro-Regular-64"/></g><g transform="matrix(.12 0 0 -.12 43.25 60.69)"><use xlink:href="#SourceSansPro-Regular-2190"/><use x="61.9" xlink:href="#SourceSansPro-Regular-2192"/><use x="123.8" xlink:href="#SourceSansPro-Regular-20"/><use x="144" xlink:href="#SourceSansPro-Regular-57"/><use x="222.6" xlink:href="#SourceSansPro-Regular-6f"/><use x="276.8" xlink:href="#SourceSansPro-Regular-6f"/><use x="331" xlink:href="#SourceSansPro-Regular-6c"/><use x="356.5" xlink:href="#SourceSansPro-Regular-77"/><use x="428.3" xlink:href="#SourceSansPro-Regular-69"/><use x="452.9" xlink:href="#SourceSansPro-Regular-63"/><use x="498.5" xlink:href="#SourceSansPro-Regular-68"/></g></g></g></g><path clip-path="url(#p8e79e7582a)" d="M119.6 375.29h11.48v-27.65H119.6z" fill="#1369bf" id="patch_3"/><path clip-path="url(#p8e79e7582a)" d="M119.6 340.73h12.91v-27.65h-12.9z" fill="#1369bf" id="patch_4"/><path clip-path="url(#p8e79e7582a)" d="M119.6 306.17h12.91v-27.65h-12.9z" fill="#1369bf" id="patch_5"/><path clip-path="url(#p8e79e7582a)" d="M119.6 271.6h15.78v-27.64H119.6z" fill="#1369bf" id="patch_6"/><path clip-path="url(#p8e79e7582a)" d="M119.6 237.05h21.52V209.4H119.6z" fill="#1369bf" id="patch_7"/><path clip-path="url(#p8e79e7582a)" d="M119.6 202.49h34.44v-27.65H119.6z" fill="#1369bf" id="patch_8"/><path clip-path="url(#p8e79e7582a)" d="M119.6 167.93h40.18v-27.65H119.6z" fill="#1369bf" id="patch_9"/><path clip-path="url(#p8e79e7582a)" d="M119.6 133.37h176.5v-27.65H119.6z" fill="#1369bf" id="patch_10"/><path clip-path="url(#p8e79e7582a)" d="M119.6 98.8h239.62V71.17H119.6z" fill="#1369bf" id="patch_11"/><path clip-path="url(#p8e79e7582a)" d="M119.6 64.25h460.6V36.6H119.6z" fill="#1369bf" id="patch_12"/><g id="text_20"><defs><path d="M16.2 4.4c4.5-3.5 9-5.6 13.5-5.6 11.1 0 21 9.7 21 26.2 0 15.1-6.7 24.8-19.2 24.8-5.7 0-11.1-3.1-15.5-6.8h-.3l-.7 5.6H8.2v-69.1h8.2v16.4zm.2 6.4v25.5c4.8 4.3 8.9 6.6 13 6.6 9.2 0 12.8-7.2 12.8-17.9 0-12-5.9-19.3-13.9-19.3-3.2 0-7.5 1.4-11.9 5.1" id="SourceSansPro-Regular-70"/></defs><g transform="matrix(.1728 0 0 -.1728 201.14 19.5)"><use xlink:href="#SourceSansPro-Regular-4d"/><use x="72.7" xlink:href="#SourceSansPro-Regular-6f"/><use x="126.9" xlink:href="#SourceSansPro-Regular-73"/><use x="168.8" xlink:href="#SourceSansPro-Regular-74"/><use x="202.6" xlink:href="#SourceSansPro-Regular-20"/><use x="222.8" xlink:href="#SourceSansPro-Regular-63"/><use x="268.4" xlink:href="#SourceSansPro-Regular-6f"/><use x="322.6" xlink:href="#SourceSansPro-Regular-6d"/><use x="405.5" xlink:href="#SourceSansPro-Regular-6d"/><use x="488.4" xlink:href="#SourceSansPro-Regular-6f"/><use x="542.6" xlink:href="#SourceSansPro-Regular-6e"/><use x="597.3" xlink:href="#SourceSansPro-Regular-20"/><use x="617.5" xlink:href="#SourceSansPro-Regular-6a"/><use x="642.2" xlink:href="#SourceSansPro-Regular-6f"/><use x="696.4" xlink:href="#SourceSansPro-Regular-75"/><use x="750.8" xlink:href="#SourceSansPro-Regular-72"/><use x="785.5" xlink:href="#SourceSansPro-Regular-6e"/><use x="840.2" xlink:href="#SourceSansPro-Regular-65"/><use x="889.8" xlink:href="#SourceSansPro-Regular-79"/><use x="936.5" xlink:href="#SourceSansPro-Regular-20"/><use x="956.7" xlink:href="#SourceSansPro-Regular-65"/><use x="1006.3" xlink:href="#SourceSansPro-Regular-6e"/><use x="1061" xlink:href="#SourceSansPro-Regular-64"/><use x="1116.5" xlink:href="#SourceSansPro-Regular-70"/><use x="1172" xlink:href="#SourceSansPro-Regular-6f"/><use x="1226.2" xlink:href="#SourceSansPro-Regular-69"/><use x="1250.8" xlink:href="#SourceSansPro-Regular-6e"/><use x="1305.5" xlink:href="#SourceSansPro-Regular-74"/><use x="1339.3" xlink:href="#SourceSansPro-Regular-73"/></g></g></g></g><defs><clipPath id="p8e79e7582a"><path d="M119.6 33.14h502.2v345.6H119.6z"/></clipPath></defs></svg>