<?xml version="1.0" encoding="UTF-8"?>
<!DOCTYPE svg PUBLIC "-//W3C//DTD SVG 1.1//EN" "http://www.w3.org/Graphics/SVG/1.1/DTD/svg11.dtd">
<svg version="1.1" xmlns="http://www.w3.org/2000/svg" xmlns:xlink="http://www.w3.org/1999/xlink" x="0" y="0" width="576" height="288" viewBox="0, 0, 576, 288">
  <defs>
    <clipPath id="Clip_1">
      <path d="M0,0 L576,0 L576,288 L0,288 z"/>
    </clipPath>
    <clipPath id="Clip_2">
      <path d="M0,0 L576,0 L576,288 L0,288 z"/>
    </clipPath>
    <clipPath id="Clip_3">
      <path d="M0,0 L576,0 L576,288 L0,288 z"/>
    </clipPath>
    <clipPath id="Clip_4">
      <path d="M0,0 L576,0 L576,288 L0,288 z"/>
    </clipPath>
    <clipPath id="Clip_5">
      <path d="M0,0 L576,0 L576,288 L0,288 z"/>
    </clipPath>
    <clipPath id="Clip_6">
      <path d="M0,0 L576,0 L576,288 L0,288 z"/>
    </clipPath>
    <clipPath id="Clip_7">
      <path d="M0,0 L576,0 L576,288 L0,288 z"/>
    </clipPath>
    <clipPath id="Clip_8">
      <path d="M0,0 L576,0 L576,288 L0,288 z"/>
    </clipPath>
    <clipPath id="Clip_9">
      <path d="M0,0 L576,0 L576,288 L0,288 z"/>
    </clipPath>
    <clipPath id="Clip_10">
      <path d="M0,0 L576,0 L576,288 L0,288 z"/>
    </clipPath>
    <clipPath id="Clip_11">
      <path d="M0,0 L576,0 L576,288 L0,288 z"/>
    </clipPath>
    <clipPath id="Clip_12">
      <path d="M0,0 L576,0 L576,288 L0,288 z"/>
    </clipPath>
    <clipPath id="Clip_13">
      <path d="M0,0 L576,0 L576,288 L0,288 z"/>
    </clipPath>
    <clipPath id="Clip_14">
      <path d="M0,0 L576,0 L576,288 L0,288 z"/>
    </clipPath>
    <clipPath id="Clip_15">
      <path d="M0,0 L576,0 L576,288 L0,288 z"/>
    </clipPath>
    <clipPath id="Clip_16">
      <path d="M0,0 L576,0 L576,288 L0,288 z"/>
    </clipPath>
    <clipPath id="Clip_17">
      <path d="M0,0 L576,0 L576,288 L0,288 z"/>
    </clipPath>
    <clipPath id="Clip_18">
      <path d="M0,0 L576,0 L576,288 L0,288 z"/>
    </clipPath>
    <clipPath id="Clip_19">
      <path d="M0,0 L576,0 L576,288 L0,288 z"/>
    </clipPath>
    <clipPath id="Clip_20">
      <path d="M0,0 L576,0 L576,288 L0,288 z"/>
    </clipPath>
    <clipPath id="Clip_21">
      <path d="M0,0 L576,0 L576,288 L0,288 z"/>
    </clipPath>
    <clipPath id="Clip_22">
      <path d="M0,0 L576,0 L576,288 L0,288 z"/>
    </clipPath>
    <clipPath id="Clip_23">
      <path d="M0,0 L576,0 L576,288 L0,288 z"/>
    </clipPath>
    <clipPath id="Clip_24">
      <path d="M0,0 L576,0 L576,288 L0,288 z"/>
    </clipPath>
    <clipPath id="Clip_25">
      <path d="M0,0 L576,0 L576,288 L0,288 z"/>
    </clipPath>
    <clipPath id="Clip_26">
      <path d="M0,0 L576,0 L576,288 L0,288 z"/>
    </clipPath>
    <clipPath id="Clip_27">
      <path d="M0,0 L576,0 L576,288 L0,288 z"/>
    </clipPath>
    <clipPath id="Clip_28">
      <path d="M0,0 L576,0 L576,288 L0,288 z"/>
    </clipPath>
    <clipPath id="Clip_29">
      <path d="M0,0 L576,0 L576,288 L0,288 z"/>
    </clipPath>
    <clipPath id="Clip_30">
      <path d="M0,0 L576,0 L576,288 L0,288 z"/>
    </clipPath>
  </defs>
  <g id="Layer_1">
    <path d="M452.55,258.98 L38.76,258.98" fill-opacity="0" stroke="#EBEBEB" stroke-width="1" stroke-linejoin="round" stroke-miterlimit="10"/>
    <path d="M452.55,247.91 L38.76,247.91" fill-opacity="0" stroke="#EBEBEB" stroke-width="1" stroke-linejoin="round" stroke-miterlimit="10"/>
    <path d="M452.55,225.76 L38.76,225.76" fill-opacity="0" stroke="#EBEBEB" stroke-width="1" stroke-linejoin="round" stroke-miterlimit="10"/>
    <path d="M452.55,203.61 L38.76,203.61" fill-opacity="0" stroke="#EBEBEB" stroke-width="1" stroke-linejoin="round" stroke-miterlimit="10"/>
    <path d="M452.55,181.46 L38.76,181.46" fill-opacity="0" stroke="#EBEBEB" stroke-width="1" stroke-linejoin="round" stroke-miterlimit="10"/>
    <path d="M452.55,159.32 L38.76,159.32" fill-opacity="0" stroke="#EBEBEB" stroke-width="1" stroke-linejoin="round" stroke-miterlimit="10"/>
    <path d="M452.55,137.17 L38.76,137.17" fill-opacity="0" stroke="#EBEBEB" stroke-width="1" stroke-linejoin="round" stroke-miterlimit="10"/>
    <path d="M452.55,115.02 L38.76,115.02" fill-opacity="0" stroke="#EBEBEB" stroke-width="1" stroke-linejoin="round" stroke-miterlimit="10"/>
    <path d="M452.55,92.87 L38.76,92.87" fill-opacity="0" stroke="#EBEBEB" stroke-width="1" stroke-linejoin="round" stroke-miterlimit="10"/>
    <path d="M452.55,70.72 L38.76,70.72" fill-opacity="0" stroke="#EBEBEB" stroke-width="1" stroke-linejoin="round" stroke-miterlimit="10"/>
    <path d="M452.55,48.57 L38.76,48.57" fill-opacity="0" stroke="#EBEBEB" stroke-width="1" stroke-linejoin="round" stroke-miterlimit="10"/>
    <path d="M74.6,258.98 L74.6,37.5" fill-opacity="0" stroke="#EBEBEB" stroke-width="1" stroke-linejoin="round" stroke-miterlimit="10"/>
    <path d="M113.93,258.98 L113.93,37.5" fill-opacity="0" stroke="#EBEBEB" stroke-width="1" stroke-linejoin="round" stroke-miterlimit="10"/>
    <path d="M153.25,258.98 L153.25,37.5" fill-opacity="0" stroke="#EBEBEB" stroke-width="1" stroke-linejoin="round" stroke-miterlimit="10"/>
    <path d="M192.57,258.98 L192.57,37.5" fill-opacity="0" stroke="#EBEBEB" stroke-width="1" stroke-linejoin="round" stroke-miterlimit="10"/>
    <path d="M231.89,258.98 L231.89,37.5" fill-opacity="0" stroke="#EBEBEB" stroke-width="1" stroke-linejoin="round" stroke-miterlimit="10"/>
    <path d="M271.21,258.98 L271.21,37.5" fill-opacity="0" stroke="#EBEBEB" stroke-width="1" stroke-linejoin="round" stroke-miterlimit="10"/>
    <path d="M310.53,258.98 L310.53,37.5" fill-opacity="0" stroke="#EBEBEB" stroke-width="1" stroke-linejoin="round" stroke-miterlimit="10"/>
    <path d="M349.85,258.98 L349.85,37.5" fill-opacity="0" stroke="#EBEBEB" stroke-width="1" stroke-linejoin="round" stroke-miterlimit="10"/>
    <path d="M389.17,258.98 L389.17,37.5" fill-opacity="0" stroke="#EBEBEB" stroke-width="1" stroke-linejoin="round" stroke-miterlimit="10"/>
    <path d="M428.5,258.98 L428.5,37.5" fill-opacity="0" stroke="#EBEBEB" stroke-width="1" stroke-linejoin="round" stroke-miterlimit="10"/>
    <path d="M452.55,236.84 L38.76,236.84" fill-opacity="0" stroke="#EBEBEB" stroke-width="1" stroke-linejoin="round" stroke-miterlimit="10"/>
    <path d="M452.55,214.69 L38.76,214.69" fill-opacity="0" stroke="#EBEBEB" stroke-width="1" stroke-linejoin="round" stroke-miterlimit="10"/>
    <path d="M452.55,192.54 L38.76,192.54" fill-opacity="0" stroke="#EBEBEB" stroke-width="1" stroke-linejoin="round" stroke-miterlimit="10"/>
    <path d="M452.55,170.39 L38.76,170.39" fill-opacity="0" stroke="#EBEBEB" stroke-width="1" stroke-linejoin="round" stroke-miterlimit="10"/>
    <path d="M452.55,148.24 L38.76,148.24" fill-opacity="0" stroke="#EBEBEB" stroke-width="1" stroke-linejoin="round" stroke-miterlimit="10"/>
    <path d="M452.55,126.09 L38.76,126.09" fill-opacity="0" stroke="#EBEBEB" stroke-width="1" stroke-linejoin="round" stroke-miterlimit="10"/>
    <path d="M452.55,103.94 L38.76,103.94" fill-opacity="0" stroke="#EBEBEB" stroke-width="1" stroke-linejoin="round" stroke-miterlimit="10"/>
    <path d="M452.55,81.8 L38.76,81.8" fill-opacity="0" stroke="#EBEBEB" stroke-width="1" stroke-linejoin="round" stroke-miterlimit="10"/>
    <path d="M452.55,59.65 L38.76,59.65" fill-opacity="0" stroke="#EBEBEB" stroke-width="1" stroke-linejoin="round" stroke-miterlimit="10"/>
    <path d="M38.76,37.5 L452.55,37.5" fill-opacity="0" stroke="#EBEBEB" stroke-width="1" stroke-linejoin="round" stroke-miterlimit="10"/>
    <path d="M54.94,258.98 L54.94,37.5" fill-opacity="0" stroke="#EBEBEB" stroke-width="1" stroke-linejoin="round" stroke-miterlimit="10"/>
    <path d="M94.27,258.98 L94.27,37.5" fill-opacity="0" stroke="#EBEBEB" stroke-width="1" stroke-linejoin="round" stroke-miterlimit="10"/>
    <path d="M133.59,258.98 L133.59,37.5" fill-opacity="0" stroke="#EBEBEB" stroke-width="1" stroke-linejoin="round" stroke-miterlimit="10"/>
    <path d="M172.91,258.98 L172.91,37.5" fill-opacity="0" stroke="#EBEBEB" stroke-width="1" stroke-linejoin="round" stroke-miterlimit="10"/>
    <path d="M212.23,258.98 L212.23,37.5" fill-opacity="0" stroke="#EBEBEB" stroke-width="1" stroke-linejoin="round" stroke-miterlimit="10"/>
    <path d="M251.55,258.98 L251.55,37.5" fill-opacity="0" stroke="#EBEBEB" stroke-width="1" stroke-linejoin="round" stroke-miterlimit="10"/>
    <path d="M290.87,258.98 L290.87,37.5" fill-opacity="0" stroke="#EBEBEB" stroke-width="1" stroke-linejoin="round" stroke-miterlimit="10"/>
    <path d="M330.19,258.98 L330.19,37.5" fill-opacity="0" stroke="#EBEBEB" stroke-width="1" stroke-linejoin="round" stroke-miterlimit="10"/>
    <path d="M369.51,258.98 L369.51,37.5" fill-opacity="0" stroke="#EBEBEB" stroke-width="1" stroke-linejoin="round" stroke-miterlimit="10"/>
    <path d="M408.84,258.98 L408.84,37.5" fill-opacity="0" stroke="#EBEBEB" stroke-width="1" stroke-linejoin="round" stroke-miterlimit="10"/>
    <path d="M448.16,258.98 L448.16,37.5" fill-opacity="0" stroke="#EBEBEB" stroke-width="1" stroke-linejoin="round" stroke-miterlimit="10"/>
    <g>
      <path d="M74.59,154.89 C74.59,155.967 73.717,156.84 72.64,156.84 C71.563,156.84 70.69,155.967 70.69,154.89 C70.69,153.813 71.563,152.94 72.64,152.94 C73.717,152.94 74.59,153.813 74.59,154.89 z" fill="#F8766D"/>
      <path d="M74.59,154.89 C74.59,155.967 73.717,156.84 72.64,156.84 C71.563,156.84 70.69,155.967 70.69,154.89 C70.69,153.813 71.563,152.94 72.64,152.94 C73.717,152.94 74.59,153.813 74.59,154.89 z" fill-opacity="0" stroke="#F8766D" stroke-width="1" stroke-linecap="round" stroke-linejoin="round" stroke-miterlimit="10"/>
    </g>
    <g>
      <path d="M115.88,170.39 C115.88,171.467 115.007,172.34 113.93,172.34 C112.853,172.34 111.98,171.467 111.98,170.39 C111.98,169.313 112.853,168.44 113.93,168.44 C115.007,168.44 115.88,169.313 115.88,170.39 z" fill="#F8766D"/>
      <path d="M115.88,170.39 C115.88,171.467 115.007,172.34 113.93,172.34 C112.853,172.34 111.98,171.467 111.98,170.39 C111.98,169.313 112.853,168.44 113.93,168.44 C115.007,168.44 115.88,169.313 115.88,170.39 z" fill-opacity="0" stroke="#F8766D" stroke-width="1" stroke-linecap="round" stroke-linejoin="round" stroke-miterlimit="10"/>
    </g>
    <g>
      <path d="M153.89,154.89 C153.89,155.967 153.017,156.84 151.94,156.84 C150.863,156.84 149.99,155.967 149.99,154.89 C149.99,153.813 150.863,152.94 151.94,152.94 C153.017,152.94 153.89,153.813 153.89,154.89 z" fill="#F8766D"/>
      <path d="M153.89,154.89 C153.89,155.967 153.017,156.84 151.94,156.84 C150.863,156.84 149.99,155.967 149.99,154.89 C149.99,153.813 150.863,152.94 151.94,152.94 C153.017,152.94 153.89,153.813 153.89,154.89 z" fill-opacity="0" stroke="#F8766D" stroke-width="1" stroke-linecap="round" stroke-linejoin="round" stroke-miterlimit="10"/>
    </g>
    <g>
      <path d="M194.52,154.89 C194.52,155.967 193.647,156.84 192.57,156.84 C191.493,156.84 190.62,155.967 190.62,154.89 C190.62,153.813 191.493,152.94 192.57,152.94 C193.647,152.94 194.52,153.813 194.52,154.89 z" fill="#F8766D"/>
      <path d="M194.52,154.89 C194.52,155.967 193.647,156.84 192.57,156.84 C191.493,156.84 190.62,155.967 190.62,154.89 C190.62,153.813 191.493,152.94 192.57,152.94 C193.647,152.94 194.52,153.813 194.52,154.89 z" fill-opacity="0" stroke="#F8766D" stroke-width="1" stroke-linecap="round" stroke-linejoin="round" stroke-miterlimit="10"/>
    </g>
    <g>
      <path d="M231.87,154.89 C231.87,155.967 230.997,156.84 229.92,156.84 C228.843,156.84 227.97,155.967 227.97,154.89 C227.97,153.813 228.843,152.94 229.92,152.94 C230.997,152.94 231.87,153.813 231.87,154.89 z" fill="#F8766D"/>
      <path d="M231.87,154.89 C231.87,155.967 230.997,156.84 229.92,156.84 C228.843,156.84 227.97,155.967 227.97,154.89 C227.97,153.813 228.843,152.94 229.92,152.94 C230.997,152.94 231.87,153.813 231.87,154.89 z" fill-opacity="0" stroke="#F8766D" stroke-width="1" stroke-linecap="round" stroke-linejoin="round" stroke-miterlimit="10"/>
    </g>
    <g>
      <path d="M271.19,154.89 C271.19,155.967 270.317,156.84 269.24,156.84 C268.163,156.84 267.29,155.967 267.29,154.89 C267.29,153.813 268.163,152.94 269.24,152.94 C270.317,152.94 271.19,153.813 271.19,154.89 z" fill="#F8766D"/>
      <path d="M271.19,154.89 C271.19,155.967 270.317,156.84 269.24,156.84 C268.163,156.84 267.29,155.967 267.29,154.89 C267.29,153.813 268.163,152.94 269.24,152.94 C270.317,152.94 271.19,153.813 271.19,154.89 z" fill-opacity="0" stroke="#F8766D" stroke-width="1" stroke-linecap="round" stroke-linejoin="round" stroke-miterlimit="10"/>
    </g>
    <g>
      <path d="M310.52,154.89 C310.52,155.967 309.647,156.84 308.57,156.84 C307.493,156.84 306.62,155.967 306.62,154.89 C306.62,153.813 307.493,152.94 308.57,152.94 C309.647,152.94 310.52,153.813 310.52,154.89 z" fill="#F8766D"/>
      <path d="M310.52,154.89 C310.52,155.967 309.647,156.84 308.57,156.84 C307.493,156.84 306.62,155.967 306.62,154.89 C306.62,153.813 307.493,152.94 308.57,152.94 C309.647,152.94 310.52,153.813 310.52,154.89 z" fill-opacity="0" stroke="#F8766D" stroke-width="1" stroke-linecap="round" stroke-linejoin="round" stroke-miterlimit="10"/>
    </g>
    <g>
      <path d="M351.8,154.89 C351.8,155.967 350.927,156.84 349.85,156.84 C348.773,156.84 347.9,155.967 347.9,154.89 C347.9,153.813 348.773,152.94 349.85,152.94 C350.927,152.94 351.8,153.813 351.8,154.89 z" fill="#F8766D"/>
      <path d="M351.8,154.89 C351.8,155.967 350.927,156.84 349.85,156.84 C348.773,156.84 347.9,155.967 347.9,154.89 C347.9,153.813 348.773,152.94 349.85,152.94 C350.927,152.94 351.8,153.813 351.8,154.89 z" fill-opacity="0" stroke="#F8766D" stroke-width="1" stroke-linecap="round" stroke-linejoin="round" stroke-miterlimit="10"/>
    </g>
    <g>
      <path d="M389.16,154.89 C389.16,155.967 388.287,156.84 387.21,156.84 C386.133,156.84 385.26,155.967 385.26,154.89 C385.26,153.813 386.133,152.94 387.21,152.94 C388.287,152.94 389.16,153.813 389.16,154.89 z" fill="#F8766D"/>
      <path d="M389.16,154.89 C389.16,155.967 388.287,156.84 387.21,156.84 C386.133,156.84 385.26,155.967 385.26,154.89 C385.26,153.813 386.133,152.94 387.21,152.94 C388.287,152.94 389.16,153.813 389.16,154.89 z" fill-opacity="0" stroke="#F8766D" stroke-width="1" stroke-linecap="round" stroke-linejoin="round" stroke-miterlimit="10"/>
    </g>
    <g>
      <path d="M59.52,216.9 C59.52,217.977 58.647,218.85 57.57,218.85 C56.493,218.85 55.62,217.977 55.62,216.9 C55.62,215.823 56.493,214.95 57.57,214.95 C58.647,214.95 59.52,215.823 59.52,216.9 z" fill="#C77CFF"/>
      <path d="M59.52,216.9 C59.52,217.977 58.647,218.85 57.57,218.85 C56.493,218.85 55.62,217.977 55.62,216.9 C55.62,215.823 56.493,214.95 57.57,214.95 C58.647,214.95 59.52,215.823 59.52,216.9 z" fill-opacity="0" stroke="#C77CFF" stroke-width="1" stroke-linecap="round" stroke-linejoin="round" stroke-miterlimit="10"/>
    </g>
    <g>
      <path d="M138.16,208.49 C138.16,209.567 137.287,210.44 136.21,210.44 C135.133,210.44 134.26,209.567 134.26,208.49 C134.26,207.413 135.133,206.54 136.21,206.54 C137.287,206.54 138.16,207.413 138.16,208.49 z" fill="#C77CFF"/>
      <path d="M138.16,208.49 C138.16,209.567 137.287,210.44 136.21,210.44 C135.133,210.44 134.26,209.567 134.26,208.49 C134.26,207.413 135.133,206.54 136.21,206.54 C137.287,206.54 138.16,207.413 138.16,208.49 z" fill-opacity="0" stroke="#C77CFF" stroke-width="1" stroke-linecap="round" stroke-linejoin="round" stroke-miterlimit="10"/>
    </g>
    <g>
      <path d="M155.85,210.26 C155.85,211.337 154.977,212.21 153.9,212.21 C152.823,212.21 151.95,211.337 151.95,210.26 C151.95,209.183 152.823,208.31 153.9,208.31 C154.977,208.31 155.85,209.183 155.85,210.26 z" fill="#C77CFF"/>
      <path d="M155.85,210.26 C155.85,211.337 154.977,212.21 153.9,212.21 C152.823,212.21 151.95,211.337 151.95,210.26 C151.95,209.183 152.823,208.31 153.9,208.31 C154.977,208.31 155.85,209.183 155.85,210.26 z" fill-opacity="0" stroke="#C77CFF" stroke-width="1" stroke-linecap="round" stroke-linejoin="round" stroke-miterlimit="10"/>
    </g>
    <g>
      <path d="M177.48,208.49 C177.48,209.567 176.607,210.44 175.53,210.44 C174.453,210.44 173.58,209.567 173.58,208.49 C173.58,207.413 174.453,206.54 175.53,206.54 C176.607,206.54 177.48,207.413 177.48,208.49 z" fill="#C77CFF"/>
      <path d="M177.48,208.49 C177.48,209.567 176.607,210.44 175.53,210.44 C174.453,210.44 173.58,209.567 173.58,208.49 C173.58,207.413 174.453,206.54 175.53,206.54 C176.607,206.54 177.48,207.413 177.48,208.49 z" fill-opacity="0" stroke="#C77CFF" stroke-width="1" stroke-linecap="round" stroke-linejoin="round" stroke-miterlimit="10"/>
    </g>
    <g>
      <path d="M179.45,208.49 C179.45,209.567 178.577,210.44 177.5,210.44 C176.423,210.44 175.55,209.567 175.55,208.49 C175.55,207.413 176.423,206.54 177.5,206.54 C178.577,206.54 179.45,207.413 179.45,208.49 z" fill="#C77CFF"/>
      <path d="M179.45,208.49 C179.45,209.567 178.577,210.44 177.5,210.44 C176.423,210.44 175.55,209.567 175.55,208.49 C175.55,207.413 176.423,206.54 177.5,206.54 C178.577,206.54 179.45,207.413 179.45,208.49 z" fill-opacity="0" stroke="#C77CFF" stroke-width="1" stroke-linecap="round" stroke-linejoin="round" stroke-miterlimit="10"/>
    </g>
    <g>
      <path d="M195.17,208.49 C195.17,209.567 194.297,210.44 193.22,210.44 C192.143,210.44 191.27,209.567 191.27,208.49 C191.27,207.413 192.143,206.54 193.22,206.54 C194.297,206.54 195.17,207.413 195.17,208.49 z" fill="#C77CFF"/>
      <path d="M195.17,208.49 C195.17,209.567 194.297,210.44 193.22,210.44 C192.143,210.44 191.27,209.567 191.27,208.49 C191.27,207.413 192.143,206.54 193.22,206.54 C194.297,206.54 195.17,207.413 195.17,208.49 z" fill-opacity="0" stroke="#C77CFF" stroke-width="1" stroke-linecap="round" stroke-linejoin="round" stroke-miterlimit="10"/>
    </g>
    <g>
      <path d="M214.83,208.49 C214.83,209.567 213.957,210.44 212.88,210.44 C211.803,210.44 210.93,209.567 210.93,208.49 C210.93,207.413 211.803,206.54 212.88,206.54 C213.957,206.54 214.83,207.413 214.83,208.49 z" fill="#C77CFF"/>
      <path d="M214.83,208.49 C214.83,209.567 213.957,210.44 212.88,210.44 C211.803,210.44 210.93,209.567 210.93,208.49 C210.93,207.413 211.803,206.54 212.88,206.54 C213.957,206.54 214.83,207.413 214.83,208.49 z" fill-opacity="0" stroke="#C77CFF" stroke-width="1" stroke-linecap="round" stroke-linejoin="round" stroke-miterlimit="10"/>
    </g>
    <g>
      <path d="M234.49,216.9 C234.49,217.977 233.617,218.85 232.54,218.85 C231.463,218.85 230.59,217.977 230.59,216.9 C230.59,215.823 231.463,214.95 232.54,214.95 C233.617,214.95 234.49,215.823 234.49,216.9 z" fill="#C77CFF"/>
      <path d="M234.49,216.9 C234.49,217.977 233.617,218.85 232.54,218.85 C231.463,218.85 230.59,217.977 230.59,216.9 C230.59,215.823 231.463,214.95 232.54,214.95 C233.617,214.95 234.49,215.823 234.49,216.9 z" fill-opacity="0" stroke="#C77CFF" stroke-width="1" stroke-linecap="round" stroke-linejoin="round" stroke-miterlimit="10"/>
    </g>
    <g>
      <path d="M256.12,208.49 C256.12,209.567 255.247,210.44 254.17,210.44 C253.093,210.44 252.22,209.567 252.22,208.49 C252.22,207.413 253.093,206.54 254.17,206.54 C255.247,206.54 256.12,207.413 256.12,208.49 z" fill="#C77CFF"/>
      <path d="M256.12,208.49 C256.12,209.567 255.247,210.44 254.17,210.44 C253.093,210.44 252.22,209.567 252.22,208.49 C252.22,207.413 253.093,206.54 254.17,206.54 C255.247,206.54 256.12,207.413 256.12,208.49 z" fill-opacity="0" stroke="#C77CFF" stroke-width="1" stroke-linecap="round" stroke-linejoin="round" stroke-miterlimit="10"/>
    </g>
    <g>
      <path d="M258.09,208.49 C258.09,209.567 257.217,210.44 256.14,210.44 C255.063,210.44 254.19,209.567 254.19,208.49 C254.19,207.413 255.063,206.54 256.14,206.54 C257.217,206.54 258.09,207.413 258.09,208.49 z" fill="#C77CFF"/>
      <path d="M258.09,208.49 C258.09,209.567 257.217,210.44 256.14,210.44 C255.063,210.44 254.19,209.567 254.19,208.49 C254.19,207.413 255.063,206.54 256.14,206.54 C257.217,206.54 258.09,207.413 258.09,208.49 z" fill-opacity="0" stroke="#C77CFF" stroke-width="1" stroke-linecap="round" stroke-linejoin="round" stroke-miterlimit="10"/>
    </g>
    <g>
      <path d="M273.82,210.26 C273.82,211.337 272.947,212.21 271.87,212.21 C270.793,212.21 269.92,211.337 269.92,210.26 C269.92,209.183 270.793,208.31 271.87,208.31 C272.947,208.31 273.82,209.183 273.82,210.26 z" fill="#C77CFF"/>
      <path d="M273.82,210.26 C273.82,211.337 272.947,212.21 271.87,212.21 C270.793,212.21 269.92,211.337 269.92,210.26 C269.92,209.183 270.793,208.31 271.87,208.31 C272.947,208.31 273.82,209.183 273.82,210.26 z" fill-opacity="0" stroke="#C77CFF" stroke-width="1" stroke-linecap="round" stroke-linejoin="round" stroke-miterlimit="10"/>
    </g>
    <g>
      <path d="M295.44,216.9 C295.44,217.977 294.567,218.85 293.49,218.85 C292.413,218.85 291.54,217.977 291.54,216.9 C291.54,215.823 292.413,214.95 293.49,214.95 C294.567,214.95 295.44,215.823 295.44,216.9 z" fill="#C77CFF"/>
      <path d="M295.44,216.9 C295.44,217.977 294.567,218.85 293.49,218.85 C292.413,218.85 291.54,217.977 291.54,216.9 C291.54,215.823 292.413,214.95 293.49,214.95 C294.567,214.95 295.44,215.823 295.44,216.9 z" fill-opacity="0" stroke="#C77CFF" stroke-width="1" stroke-linecap="round" stroke-linejoin="round" stroke-miterlimit="10"/>
    </g>
    <g>
      <path d="M336.73,208.49 C336.73,209.567 335.857,210.44 334.78,210.44 C333.703,210.44 332.83,209.567 332.83,208.49 C332.83,207.413 333.703,206.54 334.78,206.54 C335.857,206.54 336.73,207.413 336.73,208.49 z" fill="#C77CFF"/>
      <path d="M336.73,208.49 C336.73,209.567 335.857,210.44 334.78,210.44 C333.703,210.44 332.83,209.567 332.83,208.49 C332.83,207.413 333.703,206.54 334.78,206.54 C335.857,206.54 336.73,207.413 336.73,208.49 z" fill-opacity="0" stroke="#C77CFF" stroke-width="1" stroke-linecap="round" stroke-linejoin="round" stroke-miterlimit="10"/>
    </g>
    <g>
      <path d="M389.81,208.49 C389.81,209.567 388.937,210.44 387.86,210.44 C386.783,210.44 385.91,209.567 385.91,208.49 C385.91,207.413 386.783,206.54 387.86,206.54 C388.937,206.54 389.81,207.413 389.81,208.49 z" fill="#C77CFF"/>
      <path d="M389.81,208.49 C389.81,209.567 388.937,210.44 387.86,210.44 C386.783,210.44 385.91,209.567 385.91,208.49 C385.91,207.413 386.783,206.54 387.86,206.54 C388.937,206.54 389.81,207.413 389.81,208.49 z" fill-opacity="0" stroke="#C77CFF" stroke-width="1" stroke-linecap="round" stroke-linejoin="round" stroke-miterlimit="10"/>
    </g>
    <g>
      <path d="M66.72,146.91 C66.72,147.987 65.847,148.86 64.77,148.86 C63.693,148.86 62.82,147.987 62.82,146.91 C62.82,145.833 63.693,144.96 64.77,144.96 C65.847,144.96 66.72,145.833 66.72,146.91 z" fill="#7CAE00"/>
      <path d="M66.72,146.91 C66.72,147.987 65.847,148.86 64.77,148.86 C63.693,148.86 62.82,147.987 62.82,146.91 C62.82,145.833 63.693,144.96 64.77,144.96 C65.847,144.96 66.72,145.833 66.72,146.91 z" fill-opacity="0" stroke="#7CAE00" stroke-width="1" stroke-linecap="round" stroke-linejoin="round" stroke-miterlimit="10"/>
    </g>
    <g>
      <path d="M73.93,104.72 C73.93,105.797 73.057,106.67 71.98,106.67 C70.903,106.67 70.03,105.797 70.03,104.72 C70.03,103.643 70.903,102.77 71.98,102.77 C73.057,102.77 73.93,103.643 73.93,104.72 z" fill="#7CAE00"/>
      <path d="M73.93,104.72 C73.93,105.797 73.057,106.67 71.98,106.67 C70.903,106.67 70.03,105.797 70.03,104.72 C70.03,103.643 70.903,102.77 71.98,102.77 C73.057,102.77 73.93,103.643 73.93,104.72 z" fill-opacity="0" stroke="#7CAE00" stroke-width="1" stroke-linecap="round" stroke-linejoin="round" stroke-miterlimit="10"/>
    </g>
    <g>
      <path d="M75.9,113.96 C75.9,115.037 75.027,115.91 73.95,115.91 C72.873,115.91 72,115.037 72,113.96 C72,112.883 72.873,112.01 73.95,112.01 C75.027,112.01 75.9,112.883 75.9,113.96 z" fill="#7CAE00"/>
      <path d="M75.9,113.96 C75.9,115.037 75.027,115.91 73.95,115.91 C72.873,115.91 72,115.037 72,113.96 C72,112.883 72.873,112.01 73.95,112.01 C75.027,112.01 75.9,112.883 75.9,113.96 z" fill-opacity="0" stroke="#7CAE00" stroke-width="1" stroke-linecap="round" stroke-linejoin="round" stroke-miterlimit="10"/>
    </g>
    <g>
      <path d="M94.9,104.72 C94.9,105.797 94.027,106.67 92.95,106.67 C91.873,106.67 91,105.797 91,104.72 C91,103.643 91.873,102.77 92.95,102.77 C94.027,102.77 94.9,103.643 94.9,104.72 z" fill="#7CAE00"/>
      <path d="M94.9,104.72 C94.9,105.797 94.027,106.67 92.95,106.67 C91.873,106.67 91,105.797 91,104.72 C91,103.643 91.873,102.77 92.95,102.77 C94.027,102.77 94.9,103.643 94.9,104.72 z" fill-opacity="0" stroke="#7CAE00" stroke-width="1" stroke-linecap="round" stroke-linejoin="round" stroke-miterlimit="10"/>
    </g>
    <g>
      <path d="M106.05,146.91 C106.05,147.987 105.177,148.86 104.1,148.86 C103.023,148.86 102.15,147.987 102.15,146.91 C102.15,145.833 103.023,144.96 104.1,144.96 C105.177,144.96 106.05,145.833 106.05,146.91 z" fill="#7CAE00"/>
      <path d="M106.05,146.91 C106.05,147.987 105.177,148.86 104.1,148.86 C103.023,148.86 102.15,147.987 102.15,146.91 C102.15,145.833 103.023,144.96 104.1,144.96 C105.177,144.96 106.05,145.833 106.05,146.91 z" fill-opacity="0" stroke="#7CAE00" stroke-width="1" stroke-linecap="round" stroke-linejoin="round" stroke-miterlimit="10"/>
    </g>
    <g>
      <path d="M113.25,71.76 C113.25,72.837 112.377,73.71 111.3,73.71 C110.223,73.71 109.35,72.837 109.35,71.76 C109.35,70.683 110.223,69.81 111.3,69.81 C112.377,69.81 113.25,70.683 113.25,71.76 z" fill="#7CAE00"/>
      <path d="M113.25,71.76 C113.25,72.837 112.377,73.71 111.3,73.71 C110.223,73.71 109.35,72.837 109.35,71.76 C109.35,70.683 110.223,69.81 111.3,69.81 C112.377,69.81 113.25,70.683 113.25,71.76 z" fill-opacity="0" stroke="#7CAE00" stroke-width="1" stroke-linecap="round" stroke-linejoin="round" stroke-miterlimit="10"/>
    </g>
    <g>
      <path d="M115.22,49.35 C115.22,50.427 114.347,51.3 113.27,51.3 C112.193,51.3 111.32,50.427 111.32,49.35 C111.32,48.273 112.193,47.4 113.27,47.4 C114.347,47.4 115.22,48.273 115.22,49.35 z" fill="#7CAE00"/>
      <path d="M115.22,49.35 C115.22,50.427 114.347,51.3 113.27,51.3 C112.193,51.3 111.32,50.427 111.32,49.35 C111.32,48.273 112.193,47.4 113.27,47.4 C114.347,47.4 115.22,48.273 115.22,49.35 z" fill-opacity="0" stroke="#7CAE00" stroke-width="1" stroke-linecap="round" stroke-linejoin="round" stroke-miterlimit="10"/>
    </g>
    <g>
      <path d="M134.23,49.35 C134.23,50.427 133.357,51.3 132.28,51.3 C131.203,51.3 130.33,50.427 130.33,49.35 C130.33,48.273 131.203,47.4 132.28,47.4 C133.357,47.4 134.23,48.273 134.23,49.35 z" fill="#7CAE00"/>
      <path d="M134.23,49.35 C134.23,50.427 133.357,51.3 132.28,51.3 C131.203,51.3 130.33,50.427 130.33,49.35 C130.33,48.273 131.203,47.4 132.28,47.4 C133.357,47.4 134.23,48.273 134.23,49.35 z" fill-opacity="0" stroke="#7CAE00" stroke-width="1" stroke-linecap="round" stroke-linejoin="round" stroke-miterlimit="10"/>
    </g>
    <g>
      <path d="M145.37,113.96 C145.37,115.037 144.497,115.91 143.42,115.91 C142.343,115.91 141.47,115.037 141.47,113.96 C141.47,112.883 142.343,112.01 143.42,112.01 C144.497,112.01 145.37,112.883 145.37,113.96 z" fill="#7CAE00"/>
      <path d="M145.37,113.96 C145.37,115.037 144.497,115.91 143.42,115.91 C142.343,115.91 141.47,115.037 141.47,113.96 C141.47,112.883 142.343,112.01 143.42,112.01 C144.497,112.01 145.37,112.883 145.37,113.96 z" fill-opacity="0" stroke="#7CAE00" stroke-width="1" stroke-linecap="round" stroke-linejoin="round" stroke-miterlimit="10"/>
    </g>
    <g>
      <path d="M152.58,49.35 C152.58,50.427 151.707,51.3 150.63,51.3 C149.553,51.3 148.68,50.427 148.68,49.35 C148.68,48.273 149.553,47.4 150.63,47.4 C151.707,47.4 152.58,48.273 152.58,49.35 z" fill="#7CAE00"/>
      <path d="M152.58,49.35 C152.58,50.427 151.707,51.3 150.63,51.3 C149.553,51.3 148.68,50.427 148.68,49.35 C148.68,48.273 149.553,47.4 150.63,47.4 C151.707,47.4 152.58,48.273 152.58,49.35 z" fill-opacity="0" stroke="#7CAE00" stroke-width="1" stroke-linecap="round" stroke-linejoin="round" stroke-miterlimit="10"/>
    </g>
    <g>
      <path d="M154.54,113.96 C154.54,115.037 153.667,115.91 152.59,115.91 C151.513,115.91 150.64,115.037 150.64,113.96 C150.64,112.883 151.513,112.01 152.59,112.01 C153.667,112.01 154.54,112.883 154.54,113.96 z" fill="#7CAE00"/>
      <path d="M154.54,113.96 C154.54,115.037 153.667,115.91 152.59,115.91 C151.513,115.91 150.64,115.037 150.64,113.96 C150.64,112.883 151.513,112.01 152.59,112.01 C153.667,112.01 154.54,112.883 154.54,113.96 z" fill-opacity="0" stroke="#7CAE00" stroke-width="1" stroke-linecap="round" stroke-linejoin="round" stroke-miterlimit="10"/>
    </g>
    <g>
      <path d="M172.89,49.35 C172.89,50.427 172.017,51.3 170.94,51.3 C169.863,51.3 168.99,50.427 168.99,49.35 C168.99,48.273 169.863,47.4 170.94,47.4 C172.017,47.4 172.89,48.273 172.89,49.35 z" fill="#7CAE00"/>
      <path d="M172.89,49.35 C172.89,50.427 172.017,51.3 170.94,51.3 C169.863,51.3 168.99,50.427 168.99,49.35 C168.99,48.273 169.863,47.4 170.94,47.4 C172.017,47.4 172.89,48.273 172.89,49.35 z" fill-opacity="0" stroke="#7CAE00" stroke-width="1" stroke-linecap="round" stroke-linejoin="round" stroke-miterlimit="10"/>
    </g>
    <g>
      <path d="M174.86,49.35 C174.86,50.427 173.987,51.3 172.91,51.3 C171.833,51.3 170.96,50.427 170.96,49.35 C170.96,48.273 171.833,47.4 172.91,47.4 C173.987,47.4 174.86,48.273 174.86,49.35 z" fill="#7CAE00"/>
      <path d="M174.86,49.35 C174.86,50.427 173.987,51.3 172.91,51.3 C171.833,51.3 170.96,50.427 170.96,49.35 C170.96,48.273 171.833,47.4 172.91,47.4 C173.987,47.4 174.86,48.273 174.86,49.35 z" fill-opacity="0" stroke="#7CAE00" stroke-width="1" stroke-linecap="round" stroke-linejoin="round" stroke-miterlimit="10"/>
    </g>
    <g>
      <path d="M184.69,71.76 C184.69,72.837 183.817,73.71 182.74,73.71 C181.663,73.71 180.79,72.837 180.79,71.76 C180.79,70.683 181.663,69.81 182.74,69.81 C183.817,69.81 184.69,70.683 184.69,71.76 z" fill="#7CAE00"/>
      <path d="M184.69,71.76 C184.69,72.837 183.817,73.71 182.74,73.71 C181.663,73.71 180.79,72.837 180.79,71.76 C180.79,70.683 181.663,69.81 182.74,69.81 C183.817,69.81 184.69,70.683 184.69,71.76 z" fill-opacity="0" stroke="#7CAE00" stroke-width="1" stroke-linecap="round" stroke-linejoin="round" stroke-miterlimit="10"/>
    </g>
    <g>
      <path d="M194.52,49.35 C194.52,50.427 193.647,51.3 192.57,51.3 C191.493,51.3 190.62,50.427 190.62,49.35 C190.62,48.273 191.493,47.4 192.57,47.4 C193.647,47.4 194.52,48.273 194.52,49.35 z" fill="#7CAE00"/>
      <path d="M194.52,49.35 C194.52,50.427 193.647,51.3 192.57,51.3 C191.493,51.3 190.62,50.427 190.62,49.35 C190.62,48.273 191.493,47.4 192.57,47.4 C193.647,47.4 194.52,48.273 194.52,49.35 z" fill-opacity="0" stroke="#7CAE00" stroke-width="1" stroke-linecap="round" stroke-linejoin="round" stroke-miterlimit="10"/>
    </g>
    <g>
      <path d="M204.35,71.76 C204.35,72.837 203.477,73.71 202.4,73.71 C201.323,73.71 200.45,72.837 200.45,71.76 C200.45,70.683 201.323,69.81 202.4,69.81 C203.477,69.81 204.35,70.683 204.35,71.76 z" fill="#7CAE00"/>
      <path d="M204.35,71.76 C204.35,72.837 203.477,73.71 202.4,73.71 C201.323,73.71 200.45,72.837 200.45,71.76 C200.45,70.683 201.323,69.81 202.4,69.81 C203.477,69.81 204.35,70.683 204.35,71.76 z" fill-opacity="0" stroke="#7CAE00" stroke-width="1" stroke-linecap="round" stroke-linejoin="round" stroke-miterlimit="10"/>
    </g>
    <g>
      <path d="M212.21,49.35 C212.21,50.427 211.337,51.3 210.26,51.3 C209.183,51.3 208.31,50.427 208.31,49.35 C208.31,48.273 209.183,47.4 210.26,47.4 C211.337,47.4 212.21,48.273 212.21,49.35 z" fill="#7CAE00"/>
      <path d="M212.21,49.35 C212.21,50.427 211.337,51.3 210.26,51.3 C209.183,51.3 208.31,50.427 208.31,49.35 C208.31,48.273 209.183,47.4 210.26,47.4 C211.337,47.4 212.21,48.273 212.21,49.35 z" fill-opacity="0" stroke="#7CAE00" stroke-width="1" stroke-linecap="round" stroke-linejoin="round" stroke-miterlimit="10"/>
    </g>
    <g>
      <path d="M224.01,113.96 C224.01,115.037 223.137,115.91 222.06,115.91 C220.983,115.91 220.11,115.037 220.11,113.96 C220.11,112.883 220.983,112.01 222.06,112.01 C223.137,112.01 224.01,112.883 224.01,113.96 z" fill="#7CAE00"/>
      <path d="M224.01,113.96 C224.01,115.037 223.137,115.91 222.06,115.91 C220.983,115.91 220.11,115.037 220.11,113.96 C220.11,112.883 220.983,112.01 222.06,112.01 C223.137,112.01 224.01,112.883 224.01,113.96 z" fill-opacity="0" stroke="#7CAE00" stroke-width="1" stroke-linecap="round" stroke-linejoin="round" stroke-miterlimit="10"/>
    </g>
    <g>
      <path d="M230.56,113.96 C230.56,115.037 229.687,115.91 228.61,115.91 C227.533,115.91 226.66,115.037 226.66,113.96 C226.66,112.883 227.533,112.01 228.61,112.01 C229.687,112.01 230.56,112.883 230.56,113.96 z" fill="#7CAE00"/>
      <path d="M230.56,113.96 C230.56,115.037 229.687,115.91 228.61,115.91 C227.533,115.91 226.66,115.037 226.66,113.96 C226.66,112.883 227.533,112.01 228.61,112.01 C229.687,112.01 230.56,112.883 230.56,113.96 z" fill-opacity="0" stroke="#7CAE00" stroke-width="1" stroke-linecap="round" stroke-linejoin="round" stroke-miterlimit="10"/>
    </g>
    <g>
      <path d="M233.84,71.76 C233.84,72.837 232.967,73.71 231.89,73.71 C230.813,73.71 229.94,72.837 229.94,71.76 C229.94,70.683 230.813,69.81 231.89,69.81 C232.967,69.81 233.84,70.683 233.84,71.76 z" fill="#7CAE00"/>
      <path d="M233.84,71.76 C233.84,72.837 232.967,73.71 231.89,73.71 C230.813,73.71 229.94,72.837 229.94,71.76 C229.94,70.683 230.813,69.81 231.89,69.81 C232.967,69.81 233.84,70.683 233.84,71.76 z" fill-opacity="0" stroke="#7CAE00" stroke-width="1" stroke-linecap="round" stroke-linejoin="round" stroke-miterlimit="10"/>
    </g>
    <g>
      <path d="M251.53,71.76 C251.53,72.837 250.657,73.71 249.58,73.71 C248.503,73.71 247.63,72.837 247.63,71.76 C247.63,70.683 248.503,69.81 249.58,69.81 C250.657,69.81 251.53,70.683 251.53,71.76 z" fill="#7CAE00"/>
      <path d="M251.53,71.76 C251.53,72.837 250.657,73.71 249.58,73.71 C248.503,73.71 247.63,72.837 247.63,71.76 C247.63,70.683 248.503,69.81 249.58,69.81 C250.657,69.81 251.53,70.683 251.53,71.76 z" fill-opacity="0" stroke="#7CAE00" stroke-width="1" stroke-linecap="round" stroke-linejoin="round" stroke-miterlimit="10"/>
    </g>
    <g>
      <path d="M263.33,104.72 C263.33,105.797 262.457,106.67 261.38,106.67 C260.303,106.67 259.43,105.797 259.43,104.72 C259.43,103.643 260.303,102.77 261.38,102.77 C262.457,102.77 263.33,103.643 263.33,104.72 z" fill="#7CAE00"/>
      <path d="M263.33,104.72 C263.33,105.797 262.457,106.67 261.38,106.67 C260.303,106.67 259.43,105.797 259.43,104.72 C259.43,103.643 260.303,102.77 261.38,102.77 C262.457,102.77 263.33,103.643 263.33,104.72 z" fill-opacity="0" stroke="#7CAE00" stroke-width="1" stroke-linecap="round" stroke-linejoin="round" stroke-miterlimit="10"/>
    </g>
    <g>
      <path d="M271.85,104.72 C271.85,105.797 270.977,106.67 269.9,106.67 C268.823,106.67 267.95,105.797 267.95,104.72 C267.95,103.643 268.823,102.77 269.9,102.77 C270.977,102.77 271.85,103.643 271.85,104.72 z" fill="#7CAE00"/>
      <path d="M271.85,104.72 C271.85,105.797 270.977,106.67 269.9,106.67 C268.823,106.67 267.95,105.797 267.95,104.72 C267.95,103.643 268.823,102.77 269.9,102.77 C270.977,102.77 271.85,103.643 271.85,104.72 z" fill-opacity="0" stroke="#7CAE00" stroke-width="1" stroke-linecap="round" stroke-linejoin="round" stroke-miterlimit="10"/>
    </g>
    <g>
      <path d="M274.47,146.91 C274.47,147.987 273.597,148.86 272.52,148.86 C271.443,148.86 270.57,147.987 270.57,146.91 C270.57,145.833 271.443,144.96 272.52,144.96 C273.597,144.96 274.47,145.833 274.47,146.91 z" fill="#7CAE00"/>
      <path d="M274.47,146.91 C274.47,147.987 273.597,148.86 272.52,148.86 C271.443,148.86 270.57,147.987 270.57,146.91 C270.57,145.833 271.443,144.96 272.52,144.96 C273.597,144.96 274.47,145.833 274.47,146.91 z" fill-opacity="0" stroke="#7CAE00" stroke-width="1" stroke-linecap="round" stroke-linejoin="round" stroke-miterlimit="10"/>
    </g>
    <g>
      <path d="M289.54,113.96 C289.54,115.037 288.667,115.91 287.59,115.91 C286.513,115.91 285.64,115.037 285.64,113.96 C285.64,112.883 286.513,112.01 287.59,112.01 C288.667,112.01 289.54,112.883 289.54,113.96 z" fill="#7CAE00"/>
      <path d="M289.54,113.96 C289.54,115.037 288.667,115.91 287.59,115.91 C286.513,115.91 285.64,115.037 285.64,113.96 C285.64,112.883 286.513,112.01 287.59,112.01 C288.667,112.01 289.54,112.883 289.54,113.96 z" fill-opacity="0" stroke="#7CAE00" stroke-width="1" stroke-linecap="round" stroke-linejoin="round" stroke-miterlimit="10"/>
    </g>
    <g>
      <path d="M302.65,113.96 C302.65,115.037 301.777,115.91 300.7,115.91 C299.623,115.91 298.75,115.037 298.75,113.96 C298.75,112.883 299.623,112.01 300.7,112.01 C301.777,112.01 302.65,112.883 302.65,113.96 z" fill="#7CAE00"/>
      <path d="M302.65,113.96 C302.65,115.037 301.777,115.91 300.7,115.91 C299.623,115.91 298.75,115.037 298.75,113.96 C298.75,112.883 299.623,112.01 300.7,112.01 C301.777,112.01 302.65,112.883 302.65,113.96 z" fill-opacity="0" stroke="#7CAE00" stroke-width="1" stroke-linecap="round" stroke-linejoin="round" stroke-miterlimit="10"/>
    </g>
    <g>
      <path d="M309.86,146.91 C309.86,147.987 308.987,148.86 307.91,148.86 C306.833,148.86 305.96,147.987 305.96,146.91 C305.96,145.833 306.833,144.96 307.91,144.96 C308.987,144.96 309.86,145.833 309.86,146.91 z" fill="#7CAE00"/>
      <path d="M309.86,146.91 C309.86,147.987 308.987,148.86 307.91,148.86 C306.833,148.86 305.96,147.987 305.96,146.91 C305.96,145.833 306.833,144.96 307.91,144.96 C308.987,144.96 309.86,145.833 309.86,146.91 z" fill-opacity="0" stroke="#7CAE00" stroke-width="1" stroke-linecap="round" stroke-linejoin="round" stroke-miterlimit="10"/>
    </g>
    <g>
      <path d="M312.48,146.91 C312.48,147.987 311.607,148.86 310.53,148.86 C309.453,148.86 308.58,147.987 308.58,146.91 C308.58,145.833 309.453,144.96 310.53,144.96 C311.607,144.96 312.48,145.833 312.48,146.91 z" fill="#7CAE00"/>
      <path d="M312.48,146.91 C312.48,147.987 311.607,148.86 310.53,148.86 C309.453,148.86 308.58,147.987 308.58,146.91 C308.58,145.833 309.453,144.96 310.53,144.96 C311.607,144.96 312.48,145.833 312.48,146.91 z" fill-opacity="0" stroke="#7CAE00" stroke-width="1" stroke-linecap="round" stroke-linejoin="round" stroke-miterlimit="10"/>
    </g>
    <g>
      <path d="M328.87,146.91 C328.87,147.987 327.997,148.86 326.92,148.86 C325.843,148.86 324.97,147.987 324.97,146.91 C324.97,145.833 325.843,144.96 326.92,144.96 C327.997,144.96 328.87,145.833 328.87,146.91 z" fill="#7CAE00"/>
      <path d="M328.87,146.91 C328.87,147.987 327.997,148.86 326.92,148.86 C325.843,148.86 324.97,147.987 324.97,146.91 C324.97,145.833 325.843,144.96 326.92,144.96 C327.997,144.96 328.87,145.833 328.87,146.91 z" fill-opacity="0" stroke="#7CAE00" stroke-width="1" stroke-linecap="round" stroke-linejoin="round" stroke-miterlimit="10"/>
    </g>
    <g>
      <path d="M332.14,146.91 C332.14,147.987 331.267,148.86 330.19,148.86 C329.113,148.86 328.24,147.987 328.24,146.91 C328.24,145.833 329.113,144.96 330.19,144.96 C331.267,144.96 332.14,145.833 332.14,146.91 z" fill="#7CAE00"/>
      <path d="M332.14,146.91 C332.14,147.987 331.267,148.86 330.19,148.86 C329.113,148.86 328.24,147.987 328.24,146.91 C328.24,145.833 329.113,144.96 330.19,144.96 C331.267,144.96 332.14,145.833 332.14,146.91 z" fill-opacity="0" stroke="#7CAE00" stroke-width="1" stroke-linecap="round" stroke-linejoin="round" stroke-miterlimit="10"/>
    </g>
    <g>
      <path d="M351.8,212.85 C351.8,213.927 350.927,214.8 349.85,214.8 C348.773,214.8 347.9,213.927 347.9,212.85 C347.9,211.773 348.773,210.9 349.85,210.9 C350.927,210.9 351.8,211.773 351.8,212.85 z" fill="#7CAE00"/>
      <path d="M351.8,212.85 C351.8,213.927 350.927,214.8 349.85,214.8 C348.773,214.8 347.9,213.927 347.9,212.85 C347.9,211.773 348.773,210.9 349.85,210.9 C350.927,210.9 351.8,211.773 351.8,212.85 z" fill-opacity="0" stroke="#7CAE00" stroke-width="1" stroke-linecap="round" stroke-linejoin="round" stroke-miterlimit="10"/>
    </g>
    <g>
      <path d="M371.46,197.01 C371.46,198.087 370.587,198.96 369.51,198.96 C368.433,198.96 367.56,198.087 367.56,197.01 C367.56,195.933 368.433,195.06 369.51,195.06 C370.587,195.06 371.46,195.933 371.46,197.01 z" fill="#7CAE00"/>
      <path d="M371.46,197.01 C371.46,198.087 370.587,198.96 369.51,198.96 C368.433,198.96 367.56,198.087 367.56,197.01 C367.56,195.933 368.433,195.06 369.51,195.06 C370.587,195.06 371.46,195.933 371.46,197.01 z" fill-opacity="0" stroke="#7CAE00" stroke-width="1" stroke-linecap="round" stroke-linejoin="round" stroke-miterlimit="10"/>
    </g>
    <g>
      <path d="M387.85,204.92 C387.85,205.997 386.977,206.87 385.9,206.87 C384.823,206.87 383.95,205.997 383.95,204.92 C383.95,203.843 384.823,202.97 385.9,202.97 C386.977,202.97 387.85,203.843 387.85,204.92 z" fill="#7CAE00"/>
      <path d="M387.85,204.92 C387.85,205.997 386.977,206.87 385.9,206.87 C384.823,206.87 383.95,205.997 383.95,204.92 C383.95,203.843 384.823,202.97 385.9,202.97 C386.977,202.97 387.85,203.843 387.85,204.92 z" fill-opacity="0" stroke="#7CAE00" stroke-width="1" stroke-linecap="round" stroke-linejoin="round" stroke-miterlimit="10"/>
    </g>
    <g>
      <path d="M420.62,212.85 C420.62,213.927 419.747,214.8 418.67,214.8 C417.593,214.8 416.72,213.927 416.72,212.85 C416.72,211.773 417.593,210.9 418.67,210.9 C419.747,210.9 420.62,211.773 420.62,212.85 z" fill="#7CAE00"/>
      <path d="M420.62,212.85 C420.62,213.927 419.747,214.8 418.67,214.8 C417.593,214.8 416.72,213.927 416.72,212.85 C416.72,211.773 417.593,210.9 418.67,210.9 C419.747,210.9 420.62,211.773 420.62,212.85 z" fill-opacity="0" stroke="#7CAE00" stroke-width="1" stroke-linecap="round" stroke-linejoin="round" stroke-miterlimit="10"/>
    </g>
    <g>
      <path d="M63.45,216.46 C63.45,217.537 62.577,218.41 61.5,218.41 C60.423,218.41 59.55,217.537 59.55,216.46 C59.55,215.383 60.423,214.51 61.5,214.51 C62.577,214.51 63.45,215.383 63.45,216.46 z" fill="#00BFC4"/>
      <path d="M63.45,216.46 C63.45,217.537 62.577,218.41 61.5,218.41 C60.423,218.41 59.55,217.537 59.55,216.46 C59.55,215.383 60.423,214.51 61.5,214.51 C62.577,214.51 63.45,215.383 63.45,216.46 z" fill-opacity="0" stroke="#00BFC4" stroke-width="1" stroke-linecap="round" stroke-linejoin="round" stroke-miterlimit="10"/>
    </g>
    <g>
      <path d="M83.11,216.46 C83.11,217.537 82.237,218.41 81.16,218.41 C80.083,218.41 79.21,217.537 79.21,216.46 C79.21,215.383 80.083,214.51 81.16,214.51 C82.237,214.51 83.11,215.383 83.11,216.46 z" fill="#00BFC4"/>
      <path d="M83.11,216.46 C83.11,217.537 82.237,218.41 81.16,218.41 C80.083,218.41 79.21,217.537 79.21,216.46 C79.21,215.383 80.083,214.51 81.16,214.51 C82.237,214.51 83.11,215.383 83.11,216.46 z" fill-opacity="0" stroke="#00BFC4" stroke-width="1" stroke-linecap="round" stroke-linejoin="round" stroke-miterlimit="10"/>
    </g>
    <g>
      <path d="M102.77,216.46 C102.77,217.537 101.897,218.41 100.82,218.41 C99.743,218.41 98.87,217.537 98.87,216.46 C98.87,215.383 99.743,214.51 100.82,214.51 C101.897,214.51 102.77,215.383 102.77,216.46 z" fill="#00BFC4"/>
      <path d="M102.77,216.46 C102.77,217.537 101.897,218.41 100.82,218.41 C99.743,218.41 98.87,217.537 98.87,216.46 C98.87,215.383 99.743,214.51 100.82,214.51 C101.897,214.51 102.77,215.383 102.77,216.46 z" fill-opacity="0" stroke="#00BFC4" stroke-width="1" stroke-linecap="round" stroke-linejoin="round" stroke-miterlimit="10"/>
    </g>
    <g>
      <path d="M122.43,216.46 C122.43,217.537 121.557,218.41 120.48,218.41 C119.403,218.41 118.53,217.537 118.53,216.46 C118.53,215.383 119.403,214.51 120.48,214.51 C121.557,214.51 122.43,215.383 122.43,216.46 z" fill="#00BFC4"/>
      <path d="M122.43,216.46 C122.43,217.537 121.557,218.41 120.48,218.41 C119.403,218.41 118.53,217.537 118.53,216.46 C118.53,215.383 119.403,214.51 120.48,214.51 C121.557,214.51 122.43,215.383 122.43,216.46 z" fill-opacity="0" stroke="#00BFC4" stroke-width="1" stroke-linecap="round" stroke-linejoin="round" stroke-miterlimit="10"/>
    </g>
    <g>
      <path d="M142.09,216.46 C142.09,217.537 141.217,218.41 140.14,218.41 C139.063,218.41 138.19,217.537 138.19,216.46 C138.19,215.383 139.063,214.51 140.14,214.51 C141.217,214.51 142.09,215.383 142.09,216.46 z" fill="#00BFC4"/>
      <path d="M142.09,216.46 C142.09,217.537 141.217,218.41 140.14,218.41 C139.063,218.41 138.19,217.537 138.19,216.46 C138.19,215.383 139.063,214.51 140.14,214.51 C141.217,214.51 142.09,215.383 142.09,216.46 z" fill-opacity="0" stroke="#00BFC4" stroke-width="1" stroke-linecap="round" stroke-linejoin="round" stroke-miterlimit="10"/>
    </g>
    <g>
      <path d="M161.75,216.46 C161.75,217.537 160.877,218.41 159.8,218.41 C158.723,218.41 157.85,217.537 157.85,216.46 C157.85,215.383 158.723,214.51 159.8,214.51 C160.877,214.51 161.75,215.383 161.75,216.46 z" fill="#00BFC4"/>
      <path d="M161.75,216.46 C161.75,217.537 160.877,218.41 159.8,218.41 C158.723,218.41 157.85,217.537 157.85,216.46 C157.85,215.383 158.723,214.51 159.8,214.51 C160.877,214.51 161.75,215.383 161.75,216.46 z" fill-opacity="0" stroke="#00BFC4" stroke-width="1" stroke-linecap="round" stroke-linejoin="round" stroke-miterlimit="10"/>
    </g>
    <g>
      <path d="M181.41,216.46 C181.41,217.537 180.537,218.41 179.46,218.41 C178.383,218.41 177.51,217.537 177.51,216.46 C177.51,215.383 178.383,214.51 179.46,214.51 C180.537,214.51 181.41,215.383 181.41,216.46 z" fill="#00BFC4"/>
      <path d="M181.41,216.46 C181.41,217.537 180.537,218.41 179.46,218.41 C178.383,218.41 177.51,217.537 177.51,216.46 C177.51,215.383 178.383,214.51 179.46,214.51 C180.537,214.51 181.41,215.383 181.41,216.46 z" fill-opacity="0" stroke="#00BFC4" stroke-width="1" stroke-linecap="round" stroke-linejoin="round" stroke-miterlimit="10"/>
    </g>
    <g>
      <path d="M201.07,216.46 C201.07,217.537 200.197,218.41 199.12,218.41 C198.043,218.41 197.17,217.537 197.17,216.46 C197.17,215.383 198.043,214.51 199.12,214.51 C200.197,214.51 201.07,215.383 201.07,216.46 z" fill="#00BFC4"/>
      <path d="M201.07,216.46 C201.07,217.537 200.197,218.41 199.12,218.41 C198.043,218.41 197.17,217.537 197.17,216.46 C197.17,215.383 198.043,214.51 199.12,214.51 C200.197,214.51 201.07,215.383 201.07,216.46 z" fill-opacity="0" stroke="#00BFC4" stroke-width="1" stroke-linecap="round" stroke-linejoin="round" stroke-miterlimit="10"/>
    </g>
    <g>
      <path d="M220.73,216.46 C220.73,217.537 219.857,218.41 218.78,218.41 C217.703,218.41 216.83,217.537 216.83,216.46 C216.83,215.383 217.703,214.51 218.78,214.51 C219.857,214.51 220.73,215.383 220.73,216.46 z" fill="#00BFC4"/>
      <path d="M220.73,216.46 C220.73,217.537 219.857,218.41 218.78,218.41 C217.703,218.41 216.83,217.537 216.83,216.46 C216.83,215.383 217.703,214.51 218.78,214.51 C219.857,214.51 220.73,215.383 220.73,216.46 z" fill-opacity="0" stroke="#00BFC4" stroke-width="1" stroke-linecap="round" stroke-linejoin="round" stroke-miterlimit="10"/>
    </g>
    <g>
      <path d="M240.39,216.46 C240.39,217.537 239.517,218.41 238.44,218.41 C237.363,218.41 236.49,217.537 236.49,216.46 C236.49,215.383 237.363,214.51 238.44,214.51 C239.517,214.51 240.39,215.383 240.39,216.46 z" fill="#00BFC4"/>
      <path d="M240.39,216.46 C240.39,217.537 239.517,218.41 238.44,218.41 C237.363,218.41 236.49,217.537 236.49,216.46 C236.49,215.383 237.363,214.51 238.44,214.51 C239.517,214.51 240.39,215.383 240.39,216.46 z" fill-opacity="0" stroke="#00BFC4" stroke-width="1" stroke-linecap="round" stroke-linejoin="round" stroke-miterlimit="10"/>
    </g>
    <g>
      <path d="M260.05,216.46 C260.05,217.537 259.177,218.41 258.1,218.41 C257.023,218.41 256.15,217.537 256.15,216.46 C256.15,215.383 257.023,214.51 258.1,214.51 C259.177,214.51 260.05,215.383 260.05,216.46 z" fill="#00BFC4"/>
      <path d="M260.05,216.46 C260.05,217.537 259.177,218.41 258.1,218.41 C257.023,218.41 256.15,217.537 256.15,216.46 C256.15,215.383 257.023,214.51 258.1,214.51 C259.177,214.51 260.05,215.383 260.05,216.46 z" fill-opacity="0" stroke="#00BFC4" stroke-width="1" stroke-linecap="round" stroke-linejoin="round" stroke-miterlimit="10"/>
    </g>
    <g>
      <path d="M279.71,216.46 C279.71,217.537 278.837,218.41 277.76,218.41 C276.683,218.41 275.81,217.537 275.81,216.46 C275.81,215.383 276.683,214.51 277.76,214.51 C278.837,214.51 279.71,215.383 279.71,216.46 z" fill="#00BFC4"/>
      <path d="M279.71,216.46 C279.71,217.537 278.837,218.41 277.76,218.41 C276.683,218.41 275.81,217.537 275.81,216.46 C275.81,215.383 276.683,214.51 277.76,214.51 C278.837,214.51 279.71,215.383 279.71,216.46 z" fill-opacity="0" stroke="#00BFC4" stroke-width="1" stroke-linecap="round" stroke-linejoin="round" stroke-miterlimit="10"/>
    </g>
    <g>
      <path d="M299.38,216.46 C299.38,217.537 298.507,218.41 297.43,218.41 C296.353,218.41 295.48,217.537 295.48,216.46 C295.48,215.383 296.353,214.51 297.43,214.51 C298.507,214.51 299.38,215.383 299.38,216.46 z" fill="#00BFC4"/>
      <path d="M299.38,216.46 C299.38,217.537 298.507,218.41 297.43,218.41 C296.353,218.41 295.48,217.537 295.48,216.46 C295.48,215.383 296.353,214.51 297.43,214.51 C298.507,214.51 299.38,215.383 299.38,216.46 z" fill-opacity="0" stroke="#00BFC4" stroke-width="1" stroke-linecap="round" stroke-linejoin="round" stroke-miterlimit="10"/>
    </g>
    <g>
      <path d="M319.04,216.46 C319.04,217.537 318.167,218.41 317.09,218.41 C316.013,218.41 315.14,217.537 315.14,216.46 C315.14,215.383 316.013,214.51 317.09,214.51 C318.167,214.51 319.04,215.383 319.04,216.46 z" fill="#00BFC4"/>
      <path d="M319.04,216.46 C319.04,217.537 318.167,218.41 317.09,218.41 C316.013,218.41 315.14,217.537 315.14,216.46 C315.14,215.383 316.013,214.51 317.09,214.51 C318.167,214.51 319.04,215.383 319.04,216.46 z" fill-opacity="0" stroke="#00BFC4" stroke-width="1" stroke-linecap="round" stroke-linejoin="round" stroke-miterlimit="10"/>
    </g>
    <g>
      <path d="M338.7,216.46 C338.7,217.537 337.827,218.41 336.75,218.41 C335.673,218.41 334.8,217.537 334.8,216.46 C334.8,215.383 335.673,214.51 336.75,214.51 C337.827,214.51 338.7,215.383 338.7,216.46 z" fill="#00BFC4"/>
      <path d="M338.7,216.46 C338.7,217.537 337.827,218.41 336.75,218.41 C335.673,218.41 334.8,217.537 334.8,216.46 C334.8,215.383 335.673,214.51 336.75,214.51 C337.827,214.51 338.7,215.383 338.7,216.46 z" fill-opacity="0" stroke="#00BFC4" stroke-width="1" stroke-linecap="round" stroke-linejoin="round" stroke-miterlimit="10"/>
    </g>
    <g>
      <path d="M358.36,216.46 C358.36,217.537 357.487,218.41 356.41,218.41 C355.333,218.41 354.46,217.537 354.46,216.46 C354.46,215.383 355.333,214.51 356.41,214.51 C357.487,214.51 358.36,215.383 358.36,216.46 z" fill="#00BFC4"/>
      <path d="M358.36,216.46 C358.36,217.537 357.487,218.41 356.41,218.41 C355.333,218.41 354.46,217.537 354.46,216.46 C354.46,215.383 355.333,214.51 356.41,214.51 C357.487,214.51 358.36,215.383 358.36,216.46 z" fill-opacity="0" stroke="#00BFC4" stroke-width="1" stroke-linecap="round" stroke-linejoin="round" stroke-miterlimit="10"/>
    </g>
    <g>
      <path d="M378.02,216.46 C378.02,217.537 377.147,218.41 376.07,218.41 C374.993,218.41 374.12,217.537 374.12,216.46 C374.12,215.383 374.993,214.51 376.07,214.51 C377.147,214.51 378.02,215.383 378.02,216.46 z" fill="#00BFC4"/>
      <path d="M378.02,216.46 C378.02,217.537 377.147,218.41 376.07,218.41 C374.993,218.41 374.12,217.537 374.12,216.46 C374.12,215.383 374.993,214.51 376.07,214.51 C377.147,214.51 378.02,215.383 378.02,216.46 z" fill-opacity="0" stroke="#00BFC4" stroke-width="1" stroke-linecap="round" stroke-linejoin="round" stroke-miterlimit="10"/>
    </g>
    <g>
      <path d="M397.68,216.46 C397.68,217.537 396.807,218.41 395.73,218.41 C394.653,218.41 393.78,217.537 393.78,216.46 C393.78,215.383 394.653,214.51 395.73,214.51 C396.807,214.51 397.68,215.383 397.68,216.46 z" fill="#00BFC4"/>
      <path d="M397.68,216.46 C397.68,217.537 396.807,218.41 395.73,218.41 C394.653,218.41 393.78,217.537 393.78,216.46 C393.78,215.383 394.653,214.51 395.73,214.51 C396.807,214.51 397.68,215.383 397.68,216.46 z" fill-opacity="0" stroke="#00BFC4" stroke-width="1" stroke-linecap="round" stroke-linejoin="round" stroke-miterlimit="10"/>
    </g>
    <g>
      <path d="M416.03,216.46 C416.03,217.537 415.157,218.41 414.08,218.41 C413.003,218.41 412.13,217.537 412.13,216.46 C412.13,215.383 413.003,214.51 414.08,214.51 C415.157,214.51 416.03,215.383 416.03,216.46 z" fill="#00BFC4"/>
      <path d="M416.03,216.46 C416.03,217.537 415.157,218.41 414.08,218.41 C413.003,218.41 412.13,217.537 412.13,216.46 C412.13,215.383 413.003,214.51 414.08,214.51 C415.157,214.51 416.03,215.383 416.03,216.46 z" fill-opacity="0" stroke="#00BFC4" stroke-width="1" stroke-linecap="round" stroke-linejoin="round" stroke-miterlimit="10"/>
    </g>
    <g>
      <path d="M435.69,216.46 C435.69,217.537 434.817,218.41 433.74,218.41 C432.663,218.41 431.79,217.537 431.79,216.46 C431.79,215.383 432.663,214.51 433.74,214.51 C434.817,214.51 435.69,215.383 435.69,216.46 z" fill="#00BFC4"/>
      <path d="M435.69,216.46 C435.69,217.537 434.817,218.41 433.74,218.41 C432.663,218.41 431.79,217.537 431.79,216.46 C431.79,215.383 432.663,214.51 433.74,214.51 C434.817,214.51 435.69,215.383 435.69,216.46 z" fill-opacity="0" stroke="#00BFC4" stroke-width="1" stroke-linecap="round" stroke-linejoin="round" stroke-miterlimit="10"/>
    </g>
    <path d="M64.77,131.77 L69.25,126.55 L73.73,121.54 L78.21,116.74 L82.69,112.16 L87.17,107.79 L91.65,103.63 L96.13,99.69 L100.61,95.96 L105.09,92.45 L109.57,89.14 L114.05,86.03 L118.53,83.13 L123.01,80.45 L127.49,77.98 L131.97,75.74 L136.45,73.72 L140.93,71.93 L145.41,70.38 L149.89,69.03 L154.37,67.88 L158.85,66.93 L163.33,66.22 L167.81,65.73 L172.29,65.49 L176.77,65.54 L181.24,65.92 L185.72,66.59 L190.2,67.52 L194.68,68.65 L199.16,69.96 L203.64,71.39 L208.12,72.91 L212.6,74.51 L217.08,76.43 L221.56,78.64 L226.04,81.12 L230.52,83.81 L235,86.68 L239.48,89.68 L243.96,92.78 L248.44,95.92 L252.92,99.07 L257.4,102.19 L261.88,105.24 L266.36,108.34 L270.84,111.59 L275.32,114.95 L279.8,118.41 L284.28,121.93 L288.76,125.5 L293.24,129.08 L297.72,132.65 L302.2,136.19 L306.67,139.8 L311.15,143.49 L315.63,147.2 L320.11,150.91 L324.59,154.57 L329.07,158.13 L333.55,161.6 L338.03,165.05 L342.51,168.5 L346.99,171.94 L351.47,175.37 L355.95,178.79 L360.43,182.2 L364.91,185.61 L369.39,189 L373.87,192.39 L378.35,195.76 L382.83,199.12 L387.31,202.48 L391.79,205.82 L396.27,209.15 L400.75,212.47 L405.23,215.78 L409.71,219.08 L414.19,222.36 L418.67,225.64" fill-opacity="0" stroke="#7CAE00" stroke-width="1" stroke-linejoin="round" stroke-miterlimit="10"/>
    <path d="M452.55,37.5 L452.55,258.99 L38.76,258.99 L38.76,37.5 L452.55,37.5 z" fill-opacity="0" stroke="#333333" stroke-width="1" stroke-linecap="round" stroke-linejoin="round" stroke-miterlimit="10"/>
    <g clip-path="url(#Clip_1)">
      <text transform="matrix(1, 0, 0, 1, 29.954, 236.72)">
        <tspan x="-4.874" y="3" font-family="SourceSansPro-Regular" font-size="8.8" fill="#4D4D4D">10</tspan>
      </text>
    </g>
    <g clip-path="url(#Clip_2)">
      <text transform="matrix(1, 0, 0, 1, 29.954, 214.57)">
        <tspan x="-4.874" y="3" font-family="SourceSansPro-Regular" font-size="8.8" fill="#4D4D4D">20</tspan>
      </text>
    </g>
    <g clip-path="url(#Clip_3)">
      <text transform="matrix(1, 0, 0, 1, 29.954, 192.42)">
        <tspan x="-4.874" y="3" font-family="SourceSansPro-Regular" font-size="8.8" fill="#4D4D4D">30</tspan>
      </text>
    </g>
    <g clip-path="url(#Clip_4)">
      <text transform="matrix(1, 0, 0, 1, 29.954, 170.27)">
        <tspan x="-4.874" y="3" font-family="SourceSansPro-Regular" font-size="8.8" fill="#4D4D4D">40</tspan>
      </text>
    </g>
    <g clip-path="url(#Clip_5)">
      <text transform="matrix(1, 0, 0, 1, 29.954, 148.12)">
        <tspan x="-4.874" y="3" font-family="SourceSansPro-Regular" font-size="8.8" fill="#4D4D4D">50</tspan>
      </text>
    </g>
    <g clip-path="url(#Clip_6)">
      <text transform="matrix(1, 0, 0, 1, 29.954, 125.98)">
        <tspan x="-4.874" y="3" font-family="SourceSansPro-Regular" font-size="8.8" fill="#4D4D4D">60</tspan>
      </text>
    </g>
    <g clip-path="url(#Clip_7)">
      <text transform="matrix(1, 0, 0, 1, 29.954, 103.83)">
        <tspan x="-4.874" y="3" font-family="SourceSansPro-Regular" font-size="8.8" fill="#4D4D4D">70</tspan>
      </text>
    </g>
    <g clip-path="url(#Clip_8)">
      <text transform="matrix(1, 0, 0, 1, 29.954, 81.68)">
        <tspan x="-4.874" y="3" font-family="SourceSansPro-Regular" font-size="8.8" fill="#4D4D4D">80</tspan>
      </text>
    </g>
    <g clip-path="url(#Clip_9)">
      <text transform="matrix(1, 0, 0, 1, 29.954, 59.53)">
        <tspan x="-4.874" y="3" font-family="SourceSansPro-Regular" font-size="8.8" fill="#4D4D4D">90</tspan>
      </text>
    </g>
    <g clip-path="url(#Clip_10)">
      <text transform="matrix(1, 0, 0, 1, 27.77, 37.38)">
        <tspan x="-7.06" y="3" font-family="SourceSansPro-Regular" font-size="8.8" fill="#4D4D4D">100</tspan>
      </text>
    </g>
    <path d="M36.02,236.84 L38.76,236.84" fill-opacity="0" stroke="#333333" stroke-width="1" stroke-linejoin="round" stroke-miterlimit="10"/>
    <path d="M36.02,214.69 L38.76,214.69" fill-opacity="0" stroke="#333333" stroke-width="1" stroke-linejoin="round" stroke-miterlimit="10"/>
    <path d="M36.02,192.54 L38.76,192.54" fill-opacity="0" stroke="#333333" stroke-width="1" stroke-linejoin="round" stroke-miterlimit="10"/>
    <path d="M36.02,170.39 L38.76,170.39" fill-opacity="0" stroke="#333333" stroke-width="1" stroke-linejoin="round" stroke-miterlimit="10"/>
    <path d="M36.02,148.24 L38.76,148.24" fill-opacity="0" stroke="#333333" stroke-width="1" stroke-linejoin="round" stroke-miterlimit="10"/>
    <path d="M36.02,126.09 L38.76,126.09" fill-opacity="0" stroke="#333333" stroke-width="1" stroke-linejoin="round" stroke-miterlimit="10"/>
    <path d="M36.02,103.94 L38.76,103.94" fill-opacity="0" stroke="#333333" stroke-width="1" stroke-linejoin="round" stroke-miterlimit="10"/>
    <path d="M36.02,81.8 L38.76,81.8" fill-opacity="0" stroke="#333333" stroke-width="1" stroke-linejoin="round" stroke-miterlimit="10"/>
    <path d="M36.02,59.65 L38.76,59.65" fill-opacity="0" stroke="#333333" stroke-width="1" stroke-linejoin="round" stroke-miterlimit="10"/>
    <path d="M36.02,37.5 L38.76,37.5" fill-opacity="0" stroke="#333333" stroke-width="1" stroke-linejoin="round" stroke-miterlimit="10"/>
    <path d="M54.94,261.72 L54.94,258.98" fill-opacity="0" stroke="#333333" stroke-width="1" stroke-linejoin="round" stroke-miterlimit="10"/>
    <path d="M94.27,261.72 L94.27,258.98" fill-opacity="0" stroke="#333333" stroke-width="1" stroke-linejoin="round" stroke-miterlimit="10"/>
    <path d="M133.59,261.72 L133.59,258.98" fill-opacity="0" stroke="#333333" stroke-width="1" stroke-linejoin="round" stroke-miterlimit="10"/>
    <path d="M172.91,261.72 L172.91,258.98" fill-opacity="0" stroke="#333333" stroke-width="1" stroke-linejoin="round" stroke-miterlimit="10"/>
    <path d="M212.23,261.72 L212.23,258.98" fill-opacity="0" stroke="#333333" stroke-width="1" stroke-linejoin="round" stroke-miterlimit="10"/>
    <path d="M251.55,261.72 L251.55,258.98" fill-opacity="0" stroke="#333333" stroke-width="1" stroke-linejoin="round" stroke-miterlimit="10"/>
    <path d="M290.87,261.72 L290.87,258.98" fill-opacity="0" stroke="#333333" stroke-width="1" stroke-linejoin="round" stroke-miterlimit="10"/>
    <path d="M330.19,261.72 L330.19,258.98" fill-opacity="0" stroke="#333333" stroke-width="1" stroke-linejoin="round" stroke-miterlimit="10"/>
    <path d="M369.51,261.72 L369.51,258.98" fill-opacity="0" stroke="#333333" stroke-width="1" stroke-linejoin="round" stroke-miterlimit="10"/>
    <path d="M408.84,261.72 L408.84,258.98" fill-opacity="0" stroke="#333333" stroke-width="1" stroke-linejoin="round" stroke-miterlimit="10"/>
    <path d="M448.16,261.72 L448.16,258.98" fill-opacity="0" stroke="#333333" stroke-width="1" stroke-linejoin="round" stroke-miterlimit="10"/>
    <g clip-path="url(#Clip_11)">
      <text transform="matrix(1, 0, 0, 1, 55.443, 266.68)">
        <tspan x="-10.343" y="3" font-family="SourceSansPro-Regular" font-size="8.8" fill="#4D4D4D">14:00</tspan>
      </text>
    </g>
    <g clip-path="url(#Clip_12)">
      <text transform="matrix(1, 0, 0, 1, 94.773, 266.68)">
        <tspan x="-10.343" y="3" font-family="SourceSansPro-Regular" font-size="8.8" fill="#4D4D4D">15:00</tspan>
      </text>
    </g>
    <g clip-path="url(#Clip_13)">
      <text transform="matrix(1, 0, 0, 1, 134.093, 266.68)">
        <tspan x="-10.343" y="3" font-family="SourceSansPro-Regular" font-size="8.8" fill="#4D4D4D">16:00</tspan>
      </text>
    </g>
    <g clip-path="url(#Clip_14)">
      <text transform="matrix(1, 0, 0, 1, 173.413, 266.68)">
        <tspan x="-10.343" y="3" font-family="SourceSansPro-Regular" font-size="8.8" fill="#4D4D4D">17:00</tspan>
      </text>
    </g>
    <g clip-path="url(#Clip_15)">
      <text transform="matrix(1, 0, 0, 1, 212.733, 266.68)">
        <tspan x="-10.343" y="3" font-family="SourceSansPro-Regular" font-size="8.8" fill="#4D4D4D">18:00</tspan>
      </text>
    </g>
    <g clip-path="url(#Clip_16)">
      <text transform="matrix(1, 0, 0, 1, 252.053, 266.68)">
        <tspan x="-10.343" y="3" font-family="SourceSansPro-Regular" font-size="8.8" fill="#4D4D4D">19:00</tspan>
      </text>
    </g>
    <g clip-path="url(#Clip_17)">
      <text transform="matrix(1, 0, 0, 1, 291.373, 266.68)">
        <tspan x="-10.343" y="3" font-family="SourceSansPro-Regular" font-size="8.8" fill="#4D4D4D">20:00</tspan>
      </text>
    </g>
    <g clip-path="url(#Clip_18)">
      <text transform="matrix(1, 0, 0, 1, 330.693, 266.68)">
        <tspan x="-10.343" y="3" font-family="SourceSansPro-Regular" font-size="8.8" fill="#4D4D4D">21:00</tspan>
      </text>
    </g>
    <g clip-path="url(#Clip_19)">
      <text transform="matrix(1, 0, 0, 1, 370.013, 266.68)">
        <tspan x="-10.343" y="3" font-family="SourceSansPro-Regular" font-size="8.8" fill="#4D4D4D">22:00</tspan>
      </text>
    </g>
    <g clip-path="url(#Clip_20)">
      <text transform="matrix(1, 0, 0, 1, 409.343, 266.68)">
        <tspan x="-10.343" y="3" font-family="SourceSansPro-Regular" font-size="8.8" fill="#4D4D4D">23:00</tspan>
      </text>
    </g>
    <g clip-path="url(#Clip_21)">
      <text transform="matrix(1, 0, 0, 1, 448.663, 266.68)">
        <tspan x="-10.343" y="3" font-family="SourceSansPro-Regular" font-size="8.8" fill="#4D4D4D">00:00</tspan>
      </text>
    </g>
    <g clip-path="url(#Clip_22)">
      <text transform="matrix(1, 0, 0, 1, 246.148, 278.88)">
        <tspan x="-12.089" y="3.5" font-family="SourceSansPro-Regular" font-size="11" fill="#000000">Time</tspan>
      </text>
    </g>
    <g clip-path="url(#Clip_23)">
      <text transform="matrix(0, -1, 1, 0, 9.2, 148.032)">
        <tspan x="-32.268" y="3.5" font-family="SourceSansPro-Regular" font-size="11" fill="#000000">Ticket cost ()</tspan>
      </text>
    </g>
    <g clip-path="url(#Clip_24)">
      <text transform="matrix(1, 0, 0, 1, 502.857, 111.63)">
        <tspan x="-33.297" y="3.5" font-family="SourceSansPro-Regular" font-size="11" fill="#000000">Train operator</tspan>
      </text>
    </g>
    <g>
      <path d="M480.15,128.09 C480.15,129.167 479.277,130.04 478.2,130.04 C477.123,130.04 476.25,129.167 476.25,128.09 C476.25,127.013 477.123,126.14 478.2,126.14 C479.277,126.14 480.15,127.013 480.15,128.09 z" fill="#F8766D"/>
      <path d="M480.15,128.09 C480.15,129.167 479.277,130.04 478.2,130.04 C477.123,130.04 476.25,129.167 476.25,128.09 C476.25,127.013 477.123,126.14 478.2,126.14 C479.277,126.14 480.15,127.013 480.15,128.09 z" fill-opacity="0" stroke="#F8766D" stroke-width="1" stroke-linecap="round" stroke-linejoin="round" stroke-miterlimit="10"/>
    </g>
    <g>
      <path d="M480.15,145.37 C480.15,146.447 479.277,147.32 478.2,147.32 C477.123,147.32 476.25,146.447 476.25,145.37 C476.25,144.293 477.123,143.42 478.2,143.42 C479.277,143.42 480.15,144.293 480.15,145.37 z" fill="#7CAE00"/>
      <path d="M480.15,145.37 C480.15,146.447 479.277,147.32 478.2,147.32 C477.123,147.32 476.25,146.447 476.25,145.37 C476.25,144.293 477.123,143.42 478.2,143.42 C479.277,143.42 480.15,144.293 480.15,145.37 z" fill-opacity="0" stroke="#7CAE00" stroke-width="1" stroke-linecap="round" stroke-linejoin="round" stroke-miterlimit="10"/>
    </g>
    <g>
      <path d="M480.15,162.65 C480.15,163.727 479.277,164.6 478.2,164.6 C477.123,164.6 476.25,163.727 476.25,162.65 C476.25,161.573 477.123,160.7 478.2,160.7 C479.277,160.7 480.15,161.573 480.15,162.65 z" fill="#00BFC4"/>
      <path d="M480.15,162.65 C480.15,163.727 479.277,164.6 478.2,164.6 C477.123,164.6 476.25,163.727 476.25,162.65 C476.25,161.573 477.123,160.7 478.2,160.7 C479.277,160.7 480.15,161.573 480.15,162.65 z" fill-opacity="0" stroke="#00BFC4" stroke-width="1" stroke-linecap="round" stroke-linejoin="round" stroke-miterlimit="10"/>
    </g>
    <g>
      <path d="M480.15,179.93 C480.15,181.007 479.277,181.88 478.2,181.88 C477.123,181.88 476.25,181.007 476.25,179.93 C476.25,178.853 477.123,177.98 478.2,177.98 C479.277,177.98 480.15,178.853 480.15,179.93 z" fill="#C77CFF"/>
      <path d="M480.15,179.93 C480.15,181.007 479.277,181.88 478.2,181.88 C477.123,181.88 476.25,181.007 476.25,179.93 C476.25,178.853 477.123,177.98 478.2,177.98 C479.277,177.98 480.15,178.853 480.15,179.93 z" fill-opacity="0" stroke="#C77CFF" stroke-width="1" stroke-linecap="round" stroke-linejoin="round" stroke-miterlimit="10"/>
    </g>
    <g clip-path="url(#Clip_25)">
      <text transform="matrix(1, 0, 0, 1, 517.224, 127.97)">
        <tspan x="-28.224" y="3" font-family="SourceSansPro-Regular" font-size="8.8" fill="#000000">Deutsche Bahn</tspan>
      </text>
    </g>
    <g clip-path="url(#Clip_26)">
      <text transform="matrix(1, 0, 0, 1, 527.129, 145.25)">
        <tspan x="-38.129" y="3" font-family="SourceSansPro-Regular" font-size="8.8" fill="#000000">East Midlands Trains</tspan>
      </text>
    </g>
    <g clip-path="url(#Clip_27)">
      <text transform="matrix(1, 0, 0, 1, 494.696, 162.53)">
        <tspan x="-5.696" y="3" font-family="SourceSansPro-Regular" font-size="8.8" fill="#000000">NS</tspan>
      </text>
    </g>
    <g clip-path="url(#Clip_28)">
      <text transform="matrix(1, 0, 0, 1, 499.382, 179.81)">
        <tspan x="-10.382" y="3" font-family="SourceSansPro-Regular" font-size="8.8" fill="#000000">SNCF</tspan>
      </text>
    </g>
    <g clip-path="url(#Clip_29)">
      <text transform="matrix(1, 0, 0, 1, 245.496, 10.14)">
        <tspan x="-120.376" y="4" font-family="SourceSansPro-Regular" font-size="13.2" fill="#000000">Cost of single train tickets leaving European</tspan>
      </text>
    </g>
    <g clip-path="url(#Clip_30)">
      <text transform="matrix(1, 0, 0, 1, 245.67, 24.39)">
        <tspan x="-114.02" y="4" font-family="SourceSansPro-Regular" font-size="13.2" fill="#000000">capital cities on Friday December 23 2016</tspan>
      </text>
    </g>
  </g>
</svg>
