<svg height="624" viewBox="0 0 611 468" width="611pt" xmlns="http://www.w3.org/2000/svg" xmlns:xlink="http://www.w3.org/1999/xlink"><defs><style>*{stroke-linecap:butt;stroke-linejoin:round}</style></defs><g id="figure_1"><path d="M0 468.684h611.534V0H0z" fill="none" id="patch_1"/><g id="axes_1"><path d="M46.334 423.216h558V35.136h-558z" fill="none" id="patch_2"/><g id="matplotlib.axis_1"><g id="xtick_1"><path clip-path="url(#p20c82dfdf2)" d="M46.334 423.216V35.136" fill="none" stroke="#8fa7bf" stroke-linecap="square" stroke-width=".5" id="line2d_1"/><g id="line2d_2"><defs><path d="M0 0v-6" id="m7fe169ba1b" stroke="#000" stroke-width=".8"/></defs><use x="46.334" xlink:href="#m7fe169ba1b" y="423.216" stroke="#000" stroke-width=".8"/></g><g id="text_1"><defs><path d="M7.906 0h36v6.797H30.703v57h-6.297c-3.5-2.094-7.703-3.703-13.5-4.703v-5.297H22.5v-47H7.906z" id="SourceSansPro-Regular-31"/></defs><use xlink:href="#SourceSansPro-Regular-31" transform="matrix(.12 0 0 -.12 43.352 441.76)"/></g></g><g id="xtick_2"><path clip-path="url(#p20c82dfdf2)" d="M121.74 423.216V35.136" fill="none" stroke="#8fa7bf" stroke-linecap="square" stroke-width=".5" id="line2d_3"/><use x="121.739" xlink:href="#m7fe169ba1b" y="423.216" stroke="#000" stroke-width=".8" id="line2d_4"/><g id="text_2"><defs><path d="M26.797 5.297c-8.094 0-13 6.703-14 19.11 4.297 6 9.297 8.39 13.297 8.39 7.906 0 11.812-5.203 11.812-13.5 0-8.39-4.812-14-11.11-14M44.5 58.203C40.906 62.093 36 65 29.094 65 16.406 65 4.797 55.094 4.797 29.5c0-20.5 9.5-30.703 22-30.703 10.297 0 18.906 8.297 18.906 20.5C45.703 32.407 38.5 39 27.5 39c-5.203 0-10.906-3.094-14.906-8C13 51.203 20.5 58.094 29.406 58.094c4 0 7.89-1.89 10.5-5z" id="SourceSansPro-Regular-36"/></defs><use xlink:href="#SourceSansPro-Regular-36" transform="matrix(.12 0 0 -.12 118.757 441.76)"/></g></g><g id="xtick_3"><path clip-path="url(#p20c82dfdf2)" d="M197.145 423.216V35.136" fill="none" stroke="#8fa7bf" stroke-linecap="square" stroke-width=".5" id="line2d_5"/><use x="197.145" xlink:href="#m7fe169ba1b" y="423.216" stroke="#000" stroke-width=".8" id="line2d_6"/><g transform="matrix(.12 0 0 -.12 191.18 441.76)" id="text_3"><use xlink:href="#SourceSansPro-Regular-31"/><use x="49.7" xlink:href="#SourceSansPro-Regular-31"/></g></g><g id="xtick_4"><path clip-path="url(#p20c82dfdf2)" d="M272.55 423.216V35.136" fill="none" stroke="#8fa7bf" stroke-linecap="square" stroke-width=".5" id="line2d_7"/><use x="272.55" xlink:href="#m7fe169ba1b" y="423.216" stroke="#000" stroke-width=".8" id="line2d_8"/><g transform="matrix(.12 0 0 -.12 266.586 441.76)" id="text_4"><use xlink:href="#SourceSansPro-Regular-31"/><use x="49.7" xlink:href="#SourceSansPro-Regular-36"/></g></g><g id="xtick_5"><path clip-path="url(#p20c82dfdf2)" d="M347.956 423.216V35.136" fill="none" stroke="#8fa7bf" stroke-linecap="square" stroke-width=".5" id="line2d_9"/><use x="347.956" xlink:href="#m7fe169ba1b" y="423.216" stroke="#000" stroke-width=".8" id="line2d_10"/><g id="text_5"><defs><path d="M4 0h41.203v7.094h-18.5C23.406 7.094 19.5 6.797 16 6.5c15.094 15.797 26 27.703 26 39.703C42 57.5 34.703 65 22.906 65c-8.312 0-14-3.906-19.312-9.703l4.703-4.703c3.703 4.312 8.297 7.703 13.61 7.703C30 58.297 34 53.094 34 45.797 34 35.5 23.203 24 4 4.907z" id="SourceSansPro-Regular-32"/></defs><g transform="matrix(.12 0 0 -.12 341.991 441.76)"><use xlink:href="#SourceSansPro-Regular-32"/><use x="49.7" xlink:href="#SourceSansPro-Regular-31"/></g></g></g><g id="xtick_6"><path clip-path="url(#p20c82dfdf2)" d="M423.361 423.216V35.136" fill="none" stroke="#8fa7bf" stroke-linecap="square" stroke-width=".5" id="line2d_11"/><use x="423.361" xlink:href="#m7fe169ba1b" y="423.216" stroke="#000" stroke-width=".8" id="line2d_12"/><g transform="matrix(.12 0 0 -.12 417.397 441.76)" id="text_6"><use xlink:href="#SourceSansPro-Regular-32"/><use x="49.7" xlink:href="#SourceSansPro-Regular-36"/></g></g><g id="xtick_7"><path clip-path="url(#p20c82dfdf2)" d="M498.766 423.216V35.136" fill="none" stroke="#8fa7bf" stroke-linecap="square" stroke-width=".5" id="line2d_13"/><use x="498.766" xlink:href="#m7fe169ba1b" y="423.216" stroke="#000" stroke-width=".8" id="line2d_14"/><g id="text_7"><defs><path d="M2.594 7.797c4.312-4.703 10.812-9 21-9 11.703 0 21 6.906 21 18.203 0 8.797-6.094 14.406-13.797 16.203v.39c6.906 2.61 11.61 7.5 11.61 15.204 0 10.297-8 16.203-19.11 16.203-7.5 0-13.39-3.406-18.297-8l4.406-5.203c3.797 3.797 8.297 6.5 13.594 6.5 6.797 0 11-3.89 11-10.094 0-6.703-4.5-11.906-18.094-11.906V30c15.188 0 20.39-5.094 20.39-12.703 0-7.094-5.5-11.703-13.202-11.703-7.5 0-12.5 3.61-16.297 7.61z" id="SourceSansPro-Regular-33"/></defs><g transform="matrix(.12 0 0 -.12 492.802 441.76)"><use xlink:href="#SourceSansPro-Regular-33"/><use x="49.7" xlink:href="#SourceSansPro-Regular-31"/></g></g></g><g id="xtick_8"><path clip-path="url(#p20c82dfdf2)" d="M574.172 423.216V35.136" fill="none" stroke="#8fa7bf" stroke-linecap="square" stroke-width=".5" id="line2d_15"/><use x="574.172" xlink:href="#m7fe169ba1b" y="423.216" stroke="#000" stroke-width=".8" id="line2d_16"/><g transform="matrix(.12 0 0 -.12 568.207 441.76)" id="text_8"><use xlink:href="#SourceSansPro-Regular-33"/><use x="49.7" xlink:href="#SourceSansPro-Regular-36"/></g></g><g id="text_9"><defs><path d="M5.203 32.797c0-21.39 12.297-34 29.5-34 8.797 0 16 3.203 20.297 7.61V34H33.5v-6.906h13.906V10c-2.61-2.406-7.11-3.906-11.812-3.906-14 0-21.797 10.406-21.797 26.906 0 16.297 8.5 26.5 21.703 26.5 6.594 0 10.703-2.594 14-6.094l4.703 5.297c-3.797 4-9.797 8.094-18.797 8.094-17.5 0-30.203-12.89-30.203-34" id="SourceSansPro-Regular-47"/><path d="M5.797 12.594c0-8.688 6.11-13.797 14.297-13.797 6 0 11.406 3.203 16.11 7h.202L37.094 0h6.812v29.797c0 12.11-5 20-16.906 20-7.797 0-14.594-3.39-19.094-6.297l3.297-5.703C15 40.407 20 43 25.703 43c7.89 0 10-6 10-12.203C15 28.5 5.797 23.203 5.797 12.594m8.11.61c0 6.202 5.5 10.202 21.796 12.202v-13.5c-4.703-4.203-8.61-6.5-13.297-6.5-4.812 0-8.5 2.297-8.5 7.797" id="SourceSansPro-Regular-61"/><path d="M8.203 0h8.203v35.203c4.5 5 8.594 7.5 12.188 7.5 6.203 0 9.11-3.906 9.11-13V0h8.202v35.203c4.5 5 8.39 7.5 12.188 7.5 6.11 0 9-3.906 9-13V0h8.203v30.797c0 12.406-4.797 19-14.797 19-5.906 0-10.906-3.797-16-9.297-2 5.797-6 9.297-13.406 9.297-5.797 0-10.89-3.594-15.094-8.203h-.297l-.703 7H8.203z" id="SourceSansPro-Regular-6d"/><path d="M4.594 24.203c0-15.906 10.312-25.406 23.312-25.406 6.594 0 11.797 2.297 16 5L41 9.203c-3.594-2.297-7.5-3.797-12.094-3.797-9.312 0-15.61 6.594-16.203 17.094H45.5c.203 1.203.297 2.797.297 4.5 0 13.906-7 22.797-19.39 22.797-11.11 0-21.813-9.703-21.813-25.594m8 3.703c1 9.797 7.203 15.39 14 15.39 7.61 0 12-5.5 12-15.39z" id="SourceSansPro-Regular-65"/><path d="M2.797 5.5C7.407 1.703 14-1.203 20.907-1.203c11.5 0 17.796 6.61 17.796 14.5 0 9.203-7.797 12.11-14.797 14.703-5.5 2.094-10.812 3.797-10.812 8.406 0 3.688 2.812 7 8.906 7 4.297 0 7.797-1.812 11.094-4.312L37 44.297c-3.703 3-9 5.5-15.094 5.5-10.5 0-16.703-6-16.703-13.797 0-8.203 7.594-11.5 14.5-14 5.297-2 11.094-4.203 11.094-9.203 0-4.203-3.203-7.594-9.594-7.594-5.797 0-10.11 2.39-14.297 5.797z" id="SourceSansPro-Regular-73"/><path d="M16.203 4.406c4.5-3.5 9-5.61 13.5-5.61 11.094 0 21 9.704 21 26.204 0 15.094-6.703 24.797-19.203 24.797-5.703 0-11.094-3.094-15.5-6.797h-.297L15 48.594H8.203V-20.5h8.203v16.406zm.203 6.39v25.5c4.797 4.298 8.89 6.61 13 6.61 9.188 0 12.797-7.203 12.797-17.906 0-12-5.906-19.297-13.906-19.297-3.203 0-7.5 1.39-11.89 5.094" id="SourceSansPro-Regular-70"/><path d="M8.203 9.797c0-7.094 2.5-11 8.703-11 2.188 0 3.594.297 4.688.797L20.5 5.797c-.906-.203-1.297-.203-1.797-.203-1.203 0-2.297 1-2.297 3.61v62H8.203z" id="SourceSansPro-Regular-6c"/><path d="M4.906-13.406l-1.61-6.5c1.61-.594 3.5-1 5.704-1 9.797 0 14.797 7.312 18.203 16.906L45.5 48.594h-8l-8.703-26.89C27.5 17.405 26.094 12.405 24.703 8h-.406c-1.5 4.5-3.203 9.5-4.703 13.703l-9.89 26.89h-8.5l19.5-48.687-1.11-3.61c-2-6-5.5-10.39-11-10.39-1.188 0-2.688.39-3.688.688" id="SourceSansPro-Regular-79"/><path d="M4.703 24.203C4.703 8 12.593-1.203 24.797-1.203 30.5-1.203 35.703 2 39.5 5.703h.297L40.5 0h6.797v71.203H39V52.5l.406-8.297c-4.312 3.5-8 5.594-13.61 5.594-11.093 0-21.093-9.797-21.093-25.594m8.5.094c0 11.11 6.203 18.61 14 18.61 4 0 7.703-1.407 11.797-5.11v-25.39c-4-4.5-7.906-6.704-12.406-6.704-8.5 0-13.39 7-13.39 18.594" id="SourceSansPro-Regular-64"/></defs><g transform="matrix(.144 0 0 -.144 282.745 458.473)"><use xlink:href="#SourceSansPro-Regular-47"/><use x="61.7" xlink:href="#SourceSansPro-Regular-61"/><use x="112.9" xlink:href="#SourceSansPro-Regular-6d"/><use x="195.8" xlink:href="#SourceSansPro-Regular-65"/><use x="245.4" xlink:href="#SourceSansPro-Regular-73"/><use x="287.3" xlink:href="#SourceSansPro-Regular-20"/><use x="307.5" xlink:href="#SourceSansPro-Regular-70"/><use x="363" xlink:href="#SourceSansPro-Regular-6c"/><use x="388.5" xlink:href="#SourceSansPro-Regular-61"/><use x="439.7" xlink:href="#SourceSansPro-Regular-79"/><use x="486.4" xlink:href="#SourceSansPro-Regular-65"/><use x="536" xlink:href="#SourceSansPro-Regular-64"/></g></g></g><g id="matplotlib.axis_2"><g id="ytick_1"><path clip-path="url(#p20c82dfdf2)" d="M46.334 423.216h558" fill="none" stroke="#8fa7bf" stroke-linecap="square" stroke-width=".5" id="line2d_17"/><g id="line2d_18"><defs><path d="M0 0h6" id="m39df6d6bbf" stroke="#000" stroke-width=".8"/></defs><use x="46.334" xlink:href="#m39df6d6bbf" y="423.216" stroke="#000" stroke-width=".8"/></g><g id="text_10"><defs><path d="M24.906-1.203c12.688 0 20.39 11.906 20.39 33.297C45.297 53.5 37.595 65 24.907 65c-12.812 0-20.5-11.5-20.5-32.906 0-21.39 7.688-33.297 20.5-33.297m0 6.61c-7.5 0-12.5 8-12.5 26.687 0 18.703 5 26.312 12.5 26.312 7.39 0 12.39-7.61 12.39-26.312 0-18.688-5-26.688-12.39-26.688" id="SourceSansPro-Regular-30"/></defs><use xlink:href="#SourceSansPro-Regular-30" transform="matrix(.12 0 0 -.12 30.37 427.488)"/></g></g><g id="ytick_2"><path clip-path="url(#p20c82dfdf2)" d="M46.334 377.56h558" fill="none" stroke="#8fa7bf" stroke-linecap="square" stroke-width=".5" id="line2d_19"/><use x="46.334" xlink:href="#m39df6d6bbf" y="377.559" stroke="#000" stroke-width=".8" id="line2d_20"/><g transform="matrix(.12 0 0 -.12 24.405 381.831)" id="text_11"><use xlink:href="#SourceSansPro-Regular-31"/><use x="49.7" xlink:href="#SourceSansPro-Regular-30"/></g></g><g id="ytick_3"><path clip-path="url(#p20c82dfdf2)" d="M46.334 331.903h558" fill="none" stroke="#8fa7bf" stroke-linecap="square" stroke-width=".5" id="line2d_21"/><use x="46.334" xlink:href="#m39df6d6bbf" y="331.903" stroke="#000" stroke-width=".8" id="line2d_22"/><g transform="matrix(.12 0 0 -.12 24.405 336.175)" id="text_12"><use xlink:href="#SourceSansPro-Regular-32"/><use x="49.7" xlink:href="#SourceSansPro-Regular-30"/></g></g><g id="ytick_4"><path clip-path="url(#p20c82dfdf2)" d="M46.334 286.246h558" fill="none" stroke="#8fa7bf" stroke-linecap="square" stroke-width=".5" id="line2d_23"/><use x="46.334" xlink:href="#m39df6d6bbf" y="286.246" stroke="#000" stroke-width=".8" id="line2d_24"/><g transform="matrix(.12 0 0 -.12 24.405 290.518)" id="text_13"><use xlink:href="#SourceSansPro-Regular-33"/><use x="49.7" xlink:href="#SourceSansPro-Regular-30"/></g></g><g id="ytick_5"><path clip-path="url(#p20c82dfdf2)" d="M46.334 240.59h558" fill="none" stroke="#8fa7bf" stroke-linecap="square" stroke-width=".5" id="line2d_25"/><use x="46.334" xlink:href="#m39df6d6bbf" y="240.59" stroke="#000" stroke-width=".8" id="line2d_26"/><g id="text_14"><defs><path d="M10.406 24.203L25.296 46c1.798 3.094 3.61 5.906 5.204 9h.406c-.203-3.406-.5-8.906-.5-12.297v-18.5zm36.5 0h-8.703v39.594H29L1.703 23v-5.406h28.703V0h7.797v17.594h8.703z" id="SourceSansPro-Regular-34"/></defs><g transform="matrix(.12 0 0 -.12 24.405 244.862)"><use xlink:href="#SourceSansPro-Regular-34"/><use x="49.7" xlink:href="#SourceSansPro-Regular-30"/></g></g></g><g id="ytick_6"><path clip-path="url(#p20c82dfdf2)" d="M46.334 194.933h558" fill="none" stroke="#8fa7bf" stroke-linecap="square" stroke-width=".5" id="line2d_27"/><use x="46.334" xlink:href="#m39df6d6bbf" y="194.933" stroke="#000" stroke-width=".8" id="line2d_28"/><g id="text_15"><defs><path d="M2.5 7.5c4.406-4.406 10.703-8.703 20.906-8.703 11.094 0 21.5 7.797 21.5 21.61 0 13.796-8.906 20-19.812 20-3.89 0-6.797-1-9.797-2.61L17 56.703h24.703v7.094H9.797L7.703 33.094l4.39-2.797c3.813 2.5 6.5 3.906 10.907 3.906 8.203 0 13.594-5.203 13.594-14 0-8.906-6.188-14.61-14-14.61-7.5 0-12.297 3.5-16.094 7.313z" id="SourceSansPro-Regular-35"/></defs><g transform="matrix(.12 0 0 -.12 24.405 199.206)"><use xlink:href="#SourceSansPro-Regular-35"/><use x="49.7" xlink:href="#SourceSansPro-Regular-30"/></g></g></g><g id="ytick_7"><path clip-path="url(#p20c82dfdf2)" d="M46.334 149.277h558" fill="none" stroke="#8fa7bf" stroke-linecap="square" stroke-width=".5" id="line2d_29"/><use x="46.334" xlink:href="#m39df6d6bbf" y="149.277" stroke="#000" stroke-width=".8" id="line2d_30"/><g transform="matrix(.12 0 0 -.12 24.405 153.55)" id="text_16"><use xlink:href="#SourceSansPro-Regular-36"/><use x="49.7" xlink:href="#SourceSansPro-Regular-30"/></g></g><g id="ytick_8"><path clip-path="url(#p20c82dfdf2)" d="M46.334 103.62h558" fill="none" stroke="#8fa7bf" stroke-linecap="square" stroke-width=".5" id="line2d_31"/><use x="46.334" xlink:href="#m39df6d6bbf" y="103.62" stroke="#000" stroke-width=".8" id="line2d_32"/><g id="text_17"><defs><path d="M17.703 0h8.5c1.094 24.906 4.203 39.406 19.297 58.703v5.094H4.406v-7.094h31.797C23.593 39.203 18.797 24 17.703 0" id="SourceSansPro-Regular-37"/></defs><g transform="matrix(.12 0 0 -.12 24.405 107.893)"><use xlink:href="#SourceSansPro-Regular-37"/><use x="49.7" xlink:href="#SourceSansPro-Regular-30"/></g></g></g><g id="ytick_9"><path clip-path="url(#p20c82dfdf2)" d="M46.334 57.964h558" fill="none" stroke="#8fa7bf" stroke-linecap="square" stroke-width=".5" id="line2d_33"/><use x="46.334" xlink:href="#m39df6d6bbf" y="57.964" stroke="#000" stroke-width=".8" id="line2d_34"/><g id="text_18"><defs><path d="M11.5 17.094c0 5.812 3.797 10.5 8.906 13.906 9.188-3.703 17.297-6.703 17.297-14.906 0-6.594-5.11-11.188-12.5-11.188C17.406 4.906 11.5 10 11.5 17.094m18 17.703c-7.703 3-14.703 6.203-14.703 13.797 0 6.203 4.406 10.312 10.297 10.312 7 0 11.11-5 11.11-11.312 0-4.688-2.407-9-6.704-12.797m-25.406-18.5C4.094 6.203 13-1.203 25-1.203c12.406 0 20.594 7.5 20.594 17 0 8.61-5.39 13.11-11.094 16.406v.39c3.906 3 8.797 8.704 8.797 15.407 0 9.906-6.89 17-18 17C15 65 7.203 58.406 7.203 48.594c0-6.688 4.203-11.39 8.89-14.688V33.5c-6-3.203-12-8.906-12-17.203" id="SourceSansPro-Regular-38"/></defs><g transform="matrix(.12 0 0 -.12 24.405 62.236)"><use xlink:href="#SourceSansPro-Regular-38"/><use x="49.7" xlink:href="#SourceSansPro-Regular-30"/></g></g></g><g id="text_19"><defs><path d="M9 0h8.297v26h11.797c14.406 0 24.203 6.5 24.203 20.297 0 14.406-9.703 19.297-24.203 19.297H9zm8.297 32.797v26.11h10.797c11.312 0 16.906-3.11 16.906-12.61 0-9.297-5.5-13.5-16.906-13.5z" id="SourceSansPro-Regular-50"/><path d="M4.594 24.203c0-16.11 10.61-25.406 22.5-25.406 11.906 0 22.5 9.297 22.5 25.406 0 16.297-10.594 25.594-22.5 25.594-11.89 0-22.5-9.297-22.5-25.594m8.5 0c0 11.203 5.703 18.797 14 18.797 8.406 0 14-7.594 14-18.797 0-11.11-5.594-18.61-14-18.61-8.297 0-14 7.5-14 18.61" id="SourceSansPro-Regular-6f"/><path d="M12.406 58.594c3.188 0 5.688 2.203 5.688 5.312 0 3.188-2.5 5.297-5.688 5.297-3.203 0-5.703-2.11-5.703-5.297 0-3.11 2.5-5.312 5.703-5.312M8.203 0h8.203v48.594H8.203z" id="SourceSansPro-Regular-69"/><path d="M8.203 0h8.203v35.203c4.89 4.89 8.297 7.5 13.297 7.5 6.39 0 9.203-3.906 9.203-13V0h8.188v30.797c0 12.406-4.594 19-14.797 19-6.703 0-11.703-3.594-16.297-8.203h-.297l-.703 7H8.203z" id="SourceSansPro-Regular-6e"/><path d="M9.594 15c0-9.594 3.5-16.203 13.906-16.203 3 0 6.297.906 9 1.797l-1.594 6.203c-1.61-.594-3.812-1.297-5.5-1.297-5.61 0-7.5 3.406-7.5 9.406v27H31v6.688H17.906v13.61H11l-1-13.61-7.594-.5v-6.188h7.188z" id="SourceSansPro-Regular-74"/></defs><g transform="matrix(0 -.144 -.144 0 17.453 264.132)"><use xlink:href="#SourceSansPro-Regular-50"/><use x="57.6" xlink:href="#SourceSansPro-Regular-6f"/><use x="111.8" xlink:href="#SourceSansPro-Regular-69"/><use x="136.4" xlink:href="#SourceSansPro-Regular-6e"/><use x="191.1" xlink:href="#SourceSansPro-Regular-74"/><use x="224.9" xlink:href="#SourceSansPro-Regular-73"/><use x="266.8" xlink:href="#SourceSansPro-Regular-20"/><use x="287" xlink:href="#SourceSansPro-Regular-74"/><use x="320.8" xlink:href="#SourceSansPro-Regular-6f"/><use x="375" xlink:href="#SourceSansPro-Regular-74"/><use x="408.8" xlink:href="#SourceSansPro-Regular-61"/><use x="460" xlink:href="#SourceSansPro-Regular-6c"/></g></g></g><path clip-path="url(#p20c82dfdf2)" d="M46.334 240.59h558" fill="none" stroke="#607080" stroke-linecap="square" id="line2d_35"/><path clip-path="url(#p20c82dfdf2)" d="M46.334 418.41l15.081-4.806 15.081-4.806 15.081-4.806 15.081-4.806 15.081-4.806 15.081-4.806 15.082-4.806 15.08-4.806 15.082-4.806 15.08-4.806 15.082-4.806 15.081-4.806 15.081-4.806 15.081-4.805 15.081-4.806 15.081-4.806 15.081-4.806 15.081-4.806 15.082-4.806 15.08-4.806 15.082-4.806 15.08-4.806 15.082-4.806 15.08-4.806 15.082-4.806 15.081-4.806 15.081-4.806 15.081-4.806 15.081-4.806 15.081-4.806 15.082-4.806 15.08-4.805 15.082-4.806 15.08-4.806 15.082-4.806 15.08-4.806 15.082-4.806" fill="none" stroke="#607080" stroke-dasharray="5.6,2.4" stroke-width="2" id="line2d_36"/><path clip-path="url(#p20c82dfdf2)" d="M46.334 418.65h15.081l15.081-4.566 15.081-13.697 15.081-13.696h15.081l15.081-4.566h60.324l15.082-4.566h90.486l15.081-13.697 15.082-4.565 15.08-13.697h60.324l15.082-4.566h30.162l15.081-4.566h15.081l15.081-13.697 15.082-13.696 15.08-13.697 15.082-13.697 15.08-13.697 15.082-13.697 15.08-4.566 15.082-13.697" fill="none" stroke="#1369bf" stroke-linecap="square" stroke-width="2" id="line2d_37"/><path clip-path="url(#p20c82dfdf2)" d="M46.334 409.519l15.081-13.697 15.081-4.566 15.081-4.565 15.081-13.697 15.081-4.566h15.081l15.082-13.697 15.08-4.566 15.082-13.697 15.08-13.697 15.082-13.696 15.081-13.697 15.081-4.566 15.081-13.697 15.081-13.697 15.081-13.697h15.081l15.081-4.566 15.082-4.565 15.08-13.697 15.082-4.566 15.08-13.697 15.082-13.697 15.08-13.697h15.082l15.081-13.697 15.081-4.565 15.081-13.697 15.081-13.697 15.081-13.697 15.082-13.697 15.08-13.697 15.082-4.566 15.08-13.696 15.082-4.566 15.08-13.697 15.082-4.566" fill="none" stroke="#bd3338" stroke-linecap="square" stroke-width="2" id="line2d_38"/><path clip-path="url(#p20c82dfdf2)" d="M46.334 423.216l15.081-4.566 15.081-13.697h15.081l15.081-13.697h15.081l15.081-4.565h15.082l15.08-13.697 15.082-4.566h30.162l15.081-4.566h15.081l15.081-13.697h15.081l15.081-4.565h15.081l15.081-13.697 15.082-4.566h75.404l15.082-13.697 15.081-13.697" fill="none" stroke="#00800a" stroke-linecap="square" stroke-width="2" id="line2d_39"/><path d="M46.334 423.216V35.136" fill="none" stroke="#000" stroke-linecap="square" id="patch_3"/><path d="M604.334 423.216V35.136" fill="none" stroke="#000" stroke-linecap="square" id="patch_4"/><path d="M46.334 423.216h558" fill="none" stroke="#000" stroke-linecap="square" id="patch_5"/><path d="M46.334 35.136h558" fill="none" stroke="#000" stroke-linecap="square" id="patch_6"/><g id="text_20"><defs><path d="M9 0h37v7.094H17.297v58.5H9z" id="SourceSansPro-Regular-4c"/><path d="M4.594 24.203c0-16.11 9.906-25.406 22.812-25.406 5.797 0 11.39 2.406 15.797 6.297L39.5 10.5c-2.906-2.594-6.797-4.906-11.406-4.906-8.89 0-15 7.5-15 18.61C13.094 35.405 19.5 43 28.297 43c3.906 0 6.906-1.797 9.797-4.297L42.204 44c-3.298 3.094-7.798 5.797-14.204 5.797-12.5 0-23.406-9.297-23.406-25.594" id="SourceSansPro-Regular-63"/><path d="M8.203 0h8.203v31.203c3.297 8.203 8.188 11.203 12.297 11.203 2 0 3.094-.312 4.703-.812L35 48.797c-1.594.703-3.094 1-5.203 1-5.5 0-10.5-3.89-13.797-10h-.297L15 48.594H8.203z" id="SourceSansPro-Regular-72"/><path d="M5.203 32.797c0-21.39 12.203-34 28.703-34 8.39 0 14.797 3.5 20 9.5l-4.703 5.11C45 8.702 40.406 6.093 34.093 6.093 21.704 6.094 13.798 16.5 13.798 33c0 16.297 8.203 26.5 20.703 26.5 5.5 0 9.703-2.406 13.094-6.094l4.703 5.297c-3.797 4.297-10 8.094-17.89 8.094-16.813 0-29.204-12.89-29.204-34" id="SourceSansPro-Regular-43"/><path d="M18.703 0h9.594L45.5 48.594h-8.094L28.203 21c-1.406-4.797-3-9.703-4.406-14.297h-.39c-1.5 4.594-3.11 9.5-4.5 14.297L9.702 48.594h-8.5z" id="SourceSansPro-Regular-76"/><path d="M6.703-17c8.094 3.406 13.094 10.094 13.094 18.703 0 6-2.594 9.703-6.89 9.703-3.313 0-6.11-2.203-6.11-5.812 0-3.688 2.703-5.688 5.906-5.688.297 0 .703 0 1 .094 0-5.406-3.406-9.703-9-12.203z" id="SourceSansPro-Regular-2c"/><path d="M4.094 21.906h23v6.297h-23z" id="SourceSansPro-Regular-2d"/></defs><g transform="matrix(.1728 0 0 -.1728 113.695 19.434)"><use xlink:href="#SourceSansPro-Regular-4c"/><use x="48.6" xlink:href="#SourceSansPro-Regular-65"/><use x="98.2" xlink:href="#SourceSansPro-Regular-69"/><use x="122.8" xlink:href="#SourceSansPro-Regular-63"/><use x="168.4" xlink:href="#SourceSansPro-Regular-65"/><use x="218" xlink:href="#SourceSansPro-Regular-73"/><use x="259.9" xlink:href="#SourceSansPro-Regular-74"/><use x="293.7" xlink:href="#SourceSansPro-Regular-65"/><use x="343.3" xlink:href="#SourceSansPro-Regular-72"/><use x="378" xlink:href="#SourceSansPro-Regular-20"/><use x="398.2" xlink:href="#SourceSansPro-Regular-43"/><use x="455.3" xlink:href="#SourceSansPro-Regular-69"/><use x="479.9" xlink:href="#SourceSansPro-Regular-74"/><use x="513.7" xlink:href="#SourceSansPro-Regular-79"/><use x="560.4" xlink:href="#SourceSansPro-Regular-20"/><use x="580.6" xlink:href="#SourceSansPro-Regular-70"/><use x="636.1" xlink:href="#SourceSansPro-Regular-6f"/><use x="690.3" xlink:href="#SourceSansPro-Regular-69"/><use x="714.9" xlink:href="#SourceSansPro-Regular-6e"/><use x="769.6" xlink:href="#SourceSansPro-Regular-74"/><use x="803.4" xlink:href="#SourceSansPro-Regular-73"/><use x="845.3" xlink:href="#SourceSansPro-Regular-20"/><use x="865.5" xlink:href="#SourceSansPro-Regular-6f"/><use x="919.7" xlink:href="#SourceSansPro-Regular-76"/><use x="966.4" xlink:href="#SourceSansPro-Regular-65"/><use x="1016" xlink:href="#SourceSansPro-Regular-72"/><use x="1050.7" xlink:href="#SourceSansPro-Regular-20"/><use x="1070.9" xlink:href="#SourceSansPro-Regular-74"/><use x="1104.7" xlink:href="#SourceSansPro-Regular-69"/><use x="1129.3" xlink:href="#SourceSansPro-Regular-6d"/><use x="1212.2" xlink:href="#SourceSansPro-Regular-65"/><use x="1261.8" xlink:href="#SourceSansPro-Regular-2c"/><use x="1286.7" xlink:href="#SourceSansPro-Regular-20"/><use x="1306.9" xlink:href="#SourceSansPro-Regular-32"/><use x="1356.6" xlink:href="#SourceSansPro-Regular-30"/><use x="1406.3" xlink:href="#SourceSansPro-Regular-31"/><use x="1456" xlink:href="#SourceSansPro-Regular-34"/><use x="1505.7" xlink:href="#SourceSansPro-Regular-2d"/><use x="1536.8" xlink:href="#SourceSansPro-Regular-31"/><use x="1586.5" xlink:href="#SourceSansPro-Regular-35"/><use x="1636.2" xlink:href="#SourceSansPro-Regular-20"/><use x="1656.4" xlink:href="#SourceSansPro-Regular-74"/><use x="1690.2" xlink:href="#SourceSansPro-Regular-6f"/><use x="1744.4" xlink:href="#SourceSansPro-Regular-20"/><use x="1764.6" xlink:href="#SourceSansPro-Regular-32"/><use x="1814.3" xlink:href="#SourceSansPro-Regular-30"/><use x="1864" xlink:href="#SourceSansPro-Regular-31"/><use x="1913.7" xlink:href="#SourceSansPro-Regular-36"/><use x="1963.4" xlink:href="#SourceSansPro-Regular-2d"/><use x="1994.5" xlink:href="#SourceSansPro-Regular-31"/><use x="2044.2" xlink:href="#SourceSansPro-Regular-37"/><use x="2093.9" xlink:href="#SourceSansPro-Regular-20"/><use x="2114.1" xlink:href="#SourceSansPro-Regular-73"/><use x="2156" xlink:href="#SourceSansPro-Regular-65"/><use x="2205.6" xlink:href="#SourceSansPro-Regular-61"/><use x="2256.8" xlink:href="#SourceSansPro-Regular-73"/><use x="2298.7" xlink:href="#SourceSansPro-Regular-6f"/><use x="2352.9" xlink:href="#SourceSansPro-Regular-6e"/><use x="2407.6" xlink:href="#SourceSansPro-Regular-73"/></g></g><g id="legend_1"><path d="M56.414 128.508h93.501q2.88 0 2.88-2.88V45.216q0-2.88-2.88-2.88H56.414q-2.88 0-2.88 2.88v80.412q0 2.88 2.88 2.88z" fill="#f7f8f9" opacity=".8" stroke="#ccc" id="patch_7"/><path d="M59.294 53.482h28.8" fill="none" stroke="#607080" stroke-dasharray="5.6,2.4" stroke-width="2" id="line2d_40"/><g id="text_21"><defs><path d="M4.203 8.5c5.703-5.906 13.797-9.703 23-9.703C41-1.203 49.5 7.094 49.5 17.5c0 9.703-5.906 14.203-13.5 17.5l-9.297 4c-5.203 2.203-10.906 4.594-10.906 10.906 0 5.89 4.906 9.594 12.203 9.594 6.094 0 10.906-2.406 14.906-6.203l4.5 5.406C42.703 63.5 35.796 66.797 28 66.797c-11.906 0-20.594-7.39-20.594-17.39 0-9.61 7.094-14.313 13.297-16.907l9.39-4.094C36.298 25.594 41 23.5 41 16.796c0-6.39-5.094-10.702-13.703-10.702-6.797 0-13.39 3.312-18.094 8.203z" id="SourceSansPro-Regular-53"/><path d="M31.906 70.797c-2.203.906-5.11 1.61-8.11 1.61-9.702 0-14.202-6.204-14.202-16.11v-7.703L3 48.094v-6.188h6.594V0h8.203v41.906h10.297v6.688H17.797v7.703c0 6.203 2.203 9.406 6.797 9.406 1.812 0 3.703-.406 5.5-1.203z" id="SourceSansPro-Regular-66"/></defs><g transform="matrix(.144 0 0 -.144 99.614 58.522)"><use xlink:href="#SourceSansPro-Regular-53"/><use x="53.4" xlink:href="#SourceSansPro-Regular-61"/><use x="104.6" xlink:href="#SourceSansPro-Regular-66"/><use x="133.8" xlink:href="#SourceSansPro-Regular-65"/><use x="183.4" xlink:href="#SourceSansPro-Regular-74"/><use x="217.2" xlink:href="#SourceSansPro-Regular-79"/></g></g><path d="M59.294 73.946h28.8" fill="none" stroke="#1369bf" stroke-linecap="square" stroke-width="2" id="line2d_42"/><g transform="matrix(.144 0 0 -.144 99.614 78.986)" id="text_22"><use xlink:href="#SourceSansPro-Regular-32"/><use x="49.7" xlink:href="#SourceSansPro-Regular-30"/><use x="99.4" xlink:href="#SourceSansPro-Regular-31"/><use x="149.1" xlink:href="#SourceSansPro-Regular-34"/><use x="198.8" xlink:href="#SourceSansPro-Regular-2d"/><use x="229.9" xlink:href="#SourceSansPro-Regular-31"/><use x="279.6" xlink:href="#SourceSansPro-Regular-35"/></g><path d="M59.294 94.351h28.8" fill="none" stroke="#bd3338" stroke-linecap="square" stroke-width="2" id="line2d_44"/><g transform="matrix(.144 0 0 -.144 99.614 99.391)" id="text_23"><use xlink:href="#SourceSansPro-Regular-32"/><use x="49.7" xlink:href="#SourceSansPro-Regular-30"/><use x="99.4" xlink:href="#SourceSansPro-Regular-31"/><use x="149.1" xlink:href="#SourceSansPro-Regular-35"/><use x="198.8" xlink:href="#SourceSansPro-Regular-2d"/><use x="229.9" xlink:href="#SourceSansPro-Regular-31"/><use x="279.6" xlink:href="#SourceSansPro-Regular-36"/></g><path d="M59.294 114.756h28.8" fill="none" stroke="#00800a" stroke-linecap="square" stroke-width="2" id="line2d_46"/><g transform="matrix(.144 0 0 -.144 99.614 119.796)" id="text_24"><use xlink:href="#SourceSansPro-Regular-32"/><use x="49.7" xlink:href="#SourceSansPro-Regular-30"/><use x="99.4" xlink:href="#SourceSansPro-Regular-31"/><use x="149.1" xlink:href="#SourceSansPro-Regular-36"/><use x="198.8" xlink:href="#SourceSansPro-Regular-2d"/><use x="229.9" xlink:href="#SourceSansPro-Regular-31"/><use x="279.6" xlink:href="#SourceSansPro-Regular-37"/></g></g></g></g><defs><clipPath id="p20c82dfdf2"><path d="M46.334 35.136h558v388.08h-558z"/></clipPath></defs></svg>