<svg xmlns="http://www.w3.org/2000/svg" width="720" height="80" viewBox="0, 0, 720, 80"><g fill="#262626"><path d="M89.44 75.578c.892-1.062.436-2.545-1.356-4.049-1.793-1.504-3.298-1.667-4.19-.604-.901 1.073-.478 2.525 1.315 4.03 1.792 1.504 3.33 1.697 4.231.623m-.554-.464c-.527.628-1.549.485-3.114-.829-1.567-1.315-1.853-2.269-1.326-2.897.52-.619 1.509-.503 3.075.812 1.566 1.313 1.885 2.295 1.365 2.914M90.63 72.68c.678-.059 1.481-.285 2.198-1.14.78-.929.858-2.349-.299-3.32-1.156-.97-2.301-.66-3.068.254a2.14 2.14 0 0 0-.47 1.004l-1.464-1.472 1.736-2.069-.594-.499-2.243 2.673 2.425 2.334.543-.171c.059-.495.13-.819.439-1.189.577-.687 1.392-.773 2.129-.154.746.626.789 1.545.24 2.2-.527.628-1.158.784-1.744.834zM91.59 65.82c.309.259.708.208.94-.068.225-.268.206-.671-.103-.93-.319-.268-.719-.217-.944.051-.232.276-.212.679.107.947m3.024 2.537c.301.253.71.21.941-.067.226-.268.197-.678-.104-.931-.318-.266-.727-.223-.952.045-.232.276-.203.686.115.953M98.178 65.165c.892-1.063.436-2.545-1.356-4.049-1.794-1.505-3.298-1.668-4.19-.605-.901 1.073-.478 2.526 1.315 4.031 1.792 1.503 3.33 1.696 4.231.623m-.554-.465c-.527.629-1.549.485-3.114-.829-1.567-1.314-1.853-2.268-1.326-2.896.52-.62 1.509-.504 3.075.811 1.566 1.314 1.885 2.295 1.365 2.914M101.672 61.001c.892-1.063.436-2.545-1.356-4.049-1.794-1.504-3.299-1.668-4.191-.605-.9 1.074-.477 2.526 1.316 4.031 1.792 1.504 3.33 1.697 4.231.623m-.554-.464c-.527.628-1.549.484-3.115-.829-1.566-1.315-1.852-2.269-1.325-2.897.519-.619 1.508-.503 3.075.812 1.566 1.313 1.884 2.294 1.365 2.914M118.499 75.578c.892-1.062.436-2.545-1.356-4.049-1.793-1.504-3.298-1.667-4.19-.604-.901 1.073-.478 2.525 1.316 4.03 1.792 1.504 3.33 1.697 4.23.623m-.553-.464c-.528.628-1.549.485-3.115-.829-1.567-1.315-1.853-2.269-1.326-2.897.52-.619 1.509-.503 3.076.812 1.565 1.313 1.884 2.295 1.365 2.914M121.581 70.799c-.569.678-1.475.618-2.585-.17-.2-.782-.049-1.369.232-1.704.556-.662 1.266-.624 1.961-.04.703.589.835 1.387.392 1.914m-3.187-5.202c-.579.028-1.167.234-1.653.813-.892 1.063-.878 2.732 1.266 4.531 1.718 1.441 3.24 1.363 4.119.315.724-.862.634-2.167-.388-3.025-1.099-.921-2.157-.781-2.931.14-.366.436-.507 1.131-.377 1.811-1.664-1.454-1.714-2.567-1.088-3.313a1.517 1.517 0 0 1 1.157-.528zM120.649 65.82c.309.259.709.208.941-.068.225-.268.205-.671-.104-.93-.319-.268-.719-.217-.944.051-.231.276-.212.679.107.947m3.024 2.537c.301.253.71.21.942-.067.225-.268.196-.678-.105-.931-.318-.266-.727-.223-.952.045-.231.276-.203.686.115.953M127.237 65.165c.892-1.063.436-2.545-1.356-4.049-1.793-1.505-3.298-1.668-4.19-.605-.901 1.073-.478 2.526 1.316 4.031 1.792 1.503 3.329 1.696 4.23.623m-.554-.465c-.527.629-1.548.485-3.114-.829-1.567-1.314-1.853-2.268-1.326-2.896.52-.62 1.509-.504 3.076.811 1.565 1.314 1.884 2.295 1.364 2.914M130.731 61.001c.892-1.063.436-2.545-1.356-4.049-1.794-1.504-3.298-1.668-4.19-.605-.901 1.074-.478 2.526 1.315 4.031 1.792 1.504 3.33 1.697 4.231.623m-.554-.464c-.527.628-1.549.484-3.114-.829-1.567-1.315-1.853-2.269-1.326-2.897.52-.619 1.509-.503 3.075.812 1.566 1.313 1.885 2.294 1.365 2.914M147.559 75.578c.891-1.062.435-2.545-1.357-4.049-1.793-1.504-3.298-1.667-4.19-.604-.9 1.073-.477 2.525 1.316 4.03 1.792 1.504 3.33 1.697 4.231.623m-.554-.464c-.527.628-1.549.485-3.115-.829-1.567-1.315-1.853-2.269-1.325-2.897.519-.619 1.508-.503 3.075.812 1.566 1.313 1.884 2.295 1.365 2.914M150.445 71.934l.598-.713c-2.01-1.842-3.006-3.122-3.562-5.743l-.427-.358-2.888 3.443.594.498 2.235-2.663c.58 2.286 1.516 3.757 3.45 5.536M149.709 65.82c.309.259.708.208.94-.068.225-.268.206-.671-.103-.93-.32-.268-.719-.217-.944.051-.232.276-.213.679.107.947m3.023 2.537c.302.253.71.21.942-.067.225-.268.197-.678-.105-.931-.318-.266-.726-.223-.951.045-.232.276-.204.686.114.953M156.296 65.165c.892-1.063.436-2.545-1.356-4.049-1.793-1.505-3.298-1.668-4.19-.605-.901 1.073-.477 2.526 1.316 4.031 1.792 1.503 3.33 1.696 4.23.623m-.553-.465c-.527.629-1.549.485-3.115-.829-1.567-1.314-1.853-2.268-1.325-2.896.519-.62 1.508-.504 3.075.811 1.566 1.314 1.884 2.295 1.365 2.914M159.79 61.001c.892-1.063.436-2.545-1.356-4.049-1.793-1.504-3.298-1.668-4.19-.605-.901 1.074-.478 2.526 1.316 4.031 1.792 1.504 3.33 1.697 4.23.623m-.554-.464c-.527.628-1.548.484-3.114-.829-1.567-1.315-1.853-2.269-1.326-2.897.52-.619 1.509-.503 3.076.812 1.565 1.313 1.884 2.294 1.364 2.914M176.618 75.578c.892-1.062.436-2.545-1.356-4.049-1.794-1.504-3.299-1.667-4.19-.604-.901 1.073-.478 2.525 1.315 4.03 1.792 1.504 3.33 1.697 4.231.623m-.554-.464c-.527.628-1.549.485-3.114-.829-1.567-1.315-1.853-2.269-1.326-2.897.519-.619 1.508-.503 3.075.812 1.566 1.313 1.885 2.295 1.365 2.914M177.636 71.252c-.487-.409-.612-1.057-.539-1.724.956-.509 1.778-.978 2.465-.401.552.463.578 1.214.059 1.833-.548.654-1.39.79-1.985.292m-.217-2.753c-.793.435-1.554.796-2.19.262-.52-.436-.554-1.094-.14-1.588.492-.586 1.2-.579 1.729-.135.392.33.584.834.601 1.461m-.237 3.429c.846.71 2.093.484 2.936-.521.872-1.039.82-2.253.024-2.92-.722-.606-1.478-.47-2.155-.224l-.032-.028c.023-.538-.111-1.349-.673-1.82-.83-.696-1.908-.618-2.689.313-.724.863-.72 1.979.102 2.669.561.47 1.25.449 1.856.288l.034.028c-.154.728-.098 1.632.597 2.215M178.768 65.82c.309.259.708.208.94-.068.225-.268.206-.671-.103-.93-.32-.268-.719-.217-.944.051-.232.276-.212.679.107.947m3.024 2.537c.301.253.709.21.941-.067.225-.268.197-.678-.104-.931-.318-.266-.727-.223-.952.045-.232.276-.203.686.115.953M185.356 65.165c.892-1.063.436-2.545-1.356-4.049-1.794-1.505-3.299-1.668-4.191-.605-.9 1.073-.477 2.526 1.316 4.031 1.792 1.503 3.33 1.696 4.231.623m-.554-.465c-.527.629-1.549.485-3.114-.829-1.567-1.314-1.853-2.268-1.326-2.896.519-.62 1.508-.504 3.075.811 1.566 1.314 1.885 2.295 1.365 2.914M188.849 61.001c.892-1.063.436-2.545-1.356-4.049-1.793-1.504-3.298-1.668-4.19-.605-.9 1.074-.477 2.526 1.316 4.031 1.792 1.504 3.33 1.697 4.23.623m-.553-.464c-.527.628-1.549.484-3.115-.829-1.567-1.315-1.853-2.269-1.325-2.897.519-.619 1.508-.503 3.075.812 1.566 1.313 1.884 2.294 1.365 2.914M205.677 75.578c.892-1.062.436-2.545-1.356-4.049-1.793-1.504-3.298-1.667-4.19-.604-.901 1.073-.478 2.525 1.316 4.03 1.792 1.504 3.329 1.697 4.23.623m-.554-.464c-.527.628-1.549.485-3.114-.829-1.567-1.315-1.853-2.269-1.326-2.897.52-.619 1.509-.503 3.076.812 1.565 1.313 1.884 2.295 1.364 2.914M206.374 69.269c-.556.662-1.265.622-1.96.039-.704-.591-.829-1.394-.393-1.914.57-.679 1.466-.625 2.583.154.208.79.058 1.378-.23 1.721m.843 3.334a2.234 2.234 0 0 0 1.644-.819c.893-1.064.878-2.732-1.266-4.531-1.717-1.441-3.232-1.372-4.119-.315-.717.854-.626 2.158.396 3.015 1.097.921 2.15.791 2.923-.13.373-.445.513-1.141.367-1.834 1.689 1.46 1.742 2.588 1.109 3.342a1.524 1.524 0 0 1-1.166.52zM207.827 65.82c.309.259.709.208.94-.068.226-.268.206-.671-.103-.93-.319-.268-.719-.217-.944.051-.232.276-.212.679.107.947m3.024 2.537c.301.253.71.21.942-.067.225-.268.196-.678-.105-.931-.318-.266-.727-.223-.952.045-.232.276-.203.686.115.953M214.415 65.165c.892-1.063.436-2.545-1.356-4.049-1.793-1.505-3.298-1.668-4.19-.605-.901 1.073-.478 2.526 1.315 4.031 1.792 1.503 3.33 1.696 4.231.623m-.554-.465c-.527.629-1.549.485-3.114-.829-1.567-1.314-1.853-2.268-1.326-2.896.52-.62 1.509-.504 3.076.811 1.565 1.314 1.884 2.295 1.364 2.914M217.909 61.001c.892-1.063.436-2.545-1.356-4.049-1.794-1.504-3.299-1.668-4.19-.605-.901 1.074-.478 2.526 1.315 4.031 1.792 1.504 3.33 1.697 4.231.623m-.554-.464c-.527.628-1.549.484-3.114-.829-1.567-1.315-1.853-2.269-1.326-2.897.519-.619 1.508-.503 3.075.812 1.566 1.313 1.885 2.294 1.365 2.914"/><g><path d="M233.441 76.918l2.53-3.016-.569-.478-.928 1.106-4.776-4.007-.442.528c-.071.44-.232.906-.555 1.462l.444.372.815-.971 3.937 3.304-1.026 1.222zM238.23 71.415c.892-1.063.436-2.546-1.356-4.049-1.793-1.505-3.298-1.668-4.19-.605-.901 1.073-.478 2.526 1.316 4.03 1.792 1.504 3.329 1.697 4.23.624m-.554-.465c-.527.628-1.548.485-3.114-.829-1.567-1.315-1.853-2.268-1.326-2.897.52-.619 1.509-.503 3.076.812 1.565 1.314 1.884 2.295 1.364 2.914M236.887 65.82a.65.65 0 0 0 .94-.068c.225-.268.205-.671-.104-.93-.319-.268-.718-.217-.944.051-.231.276-.212.679.108.947m3.023 2.537c.301.253.71.21.942-.067.225-.268.196-.678-.105-.931-.318-.266-.726-.223-.952.045-.231.276-.203.686.115.953M243.474 65.165c.892-1.063.436-2.545-1.356-4.049-1.793-1.505-3.298-1.668-4.19-.605-.901 1.073-.478 2.526 1.316 4.031 1.792 1.503 3.33 1.696 4.23.623m-.553-.465c-.528.629-1.549.485-3.115-.829-1.567-1.314-1.853-2.268-1.326-2.896.52-.62 1.509-.504 3.076.811 1.565 1.314 1.884 2.295 1.365 2.914M246.968 61.001c.892-1.063.436-2.545-1.356-4.049-1.793-1.504-3.298-1.668-4.19-.605-.901 1.074-.478 2.526 1.315 4.031 1.793 1.504 3.33 1.697 4.231.623m-.554-.464c-.527.628-1.549.484-3.114-.829-1.567-1.315-1.853-2.269-1.326-2.897.52-.619 1.509-.503 3.076.812 1.565 1.313 1.884 2.294 1.364 2.914"/></g><g><path d="M262.5 76.918l2.531-3.016-.57-.478-.928 1.106-4.775-4.007-.443.528c-.071.44-.231.906-.555 1.462l.444.372.815-.971 3.937 3.304-1.026 1.222zM265.994 72.754l2.53-3.016-.569-.477-.928 1.106-4.776-4.007-.442.527c-.071.441-.231.906-.555 1.462l.444.372.815-.971 3.937 3.304-1.026 1.223zM265.946 65.82c.309.259.708.208.94-.068.225-.268.206-.671-.103-.93-.32-.268-.719-.217-.944.051-.232.276-.213.679.107.947m3.024 2.537c.301.253.709.21.941-.067.225-.268.197-.678-.104-.931-.318-.266-.727-.223-.952.045-.232.276-.203.686.115.953M272.534 65.165c.892-1.063.436-2.545-1.357-4.049-1.793-1.505-3.298-1.668-4.19-.605-.9 1.073-.477 2.526 1.316 4.031 1.792 1.503 3.33 1.696 4.231.623m-.554-.465c-.527.629-1.549.485-3.115-.829-1.567-1.314-1.853-2.268-1.325-2.896.519-.62 1.508-.504 3.075.811 1.566 1.314 1.884 2.295 1.365 2.914M276.027 61.001c.892-1.063.436-2.545-1.356-4.049-1.793-1.504-3.298-1.668-4.19-.605-.901 1.074-.478 2.526 1.316 4.031 1.792 1.504 3.33 1.697 4.23.623m-.553-.464c-.528.628-1.549.484-3.115-.829-1.567-1.315-1.853-2.269-1.326-2.897.52-.619 1.509-.503 3.076.812 1.565 1.313 1.884 2.294 1.365 2.914"/></g><g><path d="M291.559 76.918l2.531-3.016-.57-.478-.928 1.106-4.775-4.007-.443.528c-.07.44-.231.906-.555 1.462l.444.372.815-.971 3.938 3.304-1.026 1.222zM294.778 73.082l2.897-3.452-.595-.499-1.3 1.55a14.5 14.5 0 0 0-.703.938c-.262-2.375-.493-4.125-1.498-4.969-.947-.794-2.088-.71-2.917.278-.585.697-.657 1.448-.545 2.3l.725-.063c-.101-.613-.062-1.237.311-1.682.569-.678 1.286-.647 1.897-.134.863.724 1.068 2.437 1.317 5.388zM295.005 65.82c.309.259.708.208.94-.068.225-.268.206-.671-.103-.93-.319-.268-.719-.217-.944.051-.232.276-.212.679.107.947m3.024 2.537c.301.253.71.21.941-.067.226-.268.197-.678-.104-.931-.318-.266-.727-.223-.952.045-.232.276-.203.686.115.953M301.593 65.165c.892-1.063.436-2.545-1.356-4.049-1.794-1.505-3.299-1.668-4.19-.605-.901 1.073-.478 2.526 1.315 4.031 1.792 1.503 3.33 1.696 4.231.623m-.554-.465c-.527.629-1.549.485-3.114-.829-1.567-1.314-1.853-2.268-1.326-2.896.52-.62 1.509-.504 3.075.811 1.566 1.314 1.885 2.295 1.365 2.914M305.087 61.001c.892-1.063.436-2.545-1.356-4.049-1.794-1.504-3.299-1.668-4.191-.605-.9 1.074-.477 2.526 1.316 4.031 1.792 1.504 3.33 1.697 4.231.623m-.554-.464c-.527.628-1.549.484-3.115-.829-1.566-1.315-1.852-2.269-1.325-2.897.519-.619 1.508-.503 3.075.812 1.566 1.313 1.884 2.294 1.365 2.914"/></g><g><path d="M320.618 76.918l2.531-3.016-.569-.478-.928 1.106-4.776-4.007-.442.528c-.071.44-.232.906-.555 1.462l.443.372.815-.971 3.938 3.304-1.026 1.222zM323.086 72.651c.697-.03 1.514-.273 2.23-1.126.822-.981.897-2.245-.049-3.039-.737-.619-1.635-.502-2.327.017l-.033-.028c.267-.762.188-1.5-.458-2.041-.862-.724-1.919-.469-2.7.462-.528.628-.656 1.361-.616 2.095l.745-.003c-.051-.585.039-1.153.411-1.596.478-.57 1.099-.648 1.619-.212.562.471.681 1.214-.274 2.353l.527.442c1.068-1.272 1.86-1.35 2.498-.815.594.499.594 1.283.052 1.929-.527.628-1.181.793-1.783.83zM324.064 65.82c.309.259.709.208.941-.068.225-.268.205-.671-.104-.93-.319-.268-.719-.217-.944.051-.231.276-.212.679.107.947m3.024 2.537c.301.253.71.21.942-.067.225-.268.196-.678-.105-.931-.318-.266-.727-.223-.952.045-.231.276-.203.686.115.953M330.652 65.165c.892-1.063.436-2.545-1.356-4.049-1.793-1.505-3.298-1.668-4.19-.605-.901 1.073-.478 2.526 1.316 4.031 1.792 1.503 3.329 1.696 4.23.623m-.554-.465c-.527.629-1.548.485-3.114-.829-1.567-1.314-1.853-2.268-1.326-2.896.52-.62 1.509-.504 3.076.811 1.565 1.314 1.884 2.295 1.364 2.914M334.146 61.001c.892-1.063.436-2.545-1.356-4.049-1.794-1.504-3.298-1.668-4.19-.605-.901 1.074-.478 2.526 1.315 4.031 1.792 1.504 3.33 1.697 4.231.623m-.554-.464c-.527.628-1.549.484-3.114-.829-1.567-1.315-1.853-2.269-1.326-2.897.52-.619 1.509-.503 3.075.812 1.566 1.313 1.885 2.294 1.365 2.914"/></g><g><path d="M349.678 76.918l2.53-3.016-.569-.478-.928 1.106-4.775-4.007-.443.528c-.071.44-.231.906-.555 1.462l.444.372.815-.971 3.937 3.304-1.026 1.222zM351.32 70.843l-.78-2.779c-.133-.368-.241-.718-.388-1.069l.029-.034c.271.257.711.668.995.906l1.549 1.301zm2.565-3.057l-.611.729-3.317-2.784-.647.771 1.499 5.155.452.38 2.018-2.404 1.474 1.236.548-.653-1.474-1.237.612-.729zM353.124 65.82c.309.259.708.208.94-.068.225-.268.206-.671-.103-.93-.32-.268-.719-.217-.944.051-.232.276-.213.679.107.947m3.023 2.537c.302.253.71.21.942-.067.225-.268.197-.678-.105-.931-.318-.266-.726-.223-.951.045-.232.276-.204.686.114.953M359.711 65.165c.892-1.063.436-2.545-1.356-4.049-1.793-1.505-3.298-1.668-4.19-.605-.901 1.073-.477 2.526 1.316 4.031 1.792 1.503 3.33 1.696 4.23.623m-.553-.465c-.528.629-1.549.485-3.115-.829-1.567-1.314-1.853-2.268-1.325-2.896.519-.62 1.508-.504 3.075.811 1.566 1.314 1.884 2.295 1.365 2.914M363.205 61.001c.892-1.063.436-2.545-1.356-4.049-1.793-1.504-3.298-1.668-4.19-.605-.901 1.074-.478 2.526 1.316 4.031 1.792 1.504 3.33 1.697 4.23.623m-.554-.464c-.527.628-1.548.484-3.114-.829-1.567-1.315-1.853-2.269-1.326-2.897.52-.619 1.509-.503 3.076.812 1.565 1.313 1.884 2.294 1.364 2.914"/></g><g><path d="M378.737 76.918l2.531-3.016-.57-.478-.928 1.106-4.775-4.007-.443.528c-.07.44-.231.906-.555 1.462l.444.372.815-.971 3.937 3.304-1.025 1.222zM381.222 72.68c.679-.059 1.482-.285 2.199-1.14.78-.929.858-2.349-.299-3.32-1.156-.97-2.301-.66-3.068.254a2.13 2.13 0 0 0-.47 1.004l-1.464-1.472 1.736-2.069-.594-.499-2.243 2.673 2.425 2.334.543-.171c.058-.495.13-.819.439-1.189.577-.687 1.392-.773 2.129-.154.746.626.789 1.545.24 2.2-.528.628-1.158.784-1.744.834zM382.183 65.82c.309.259.708.208.94-.068.225-.268.206-.671-.103-.93-.319-.268-.719-.217-.944.051-.232.276-.212.679.107.947m3.024 2.537c.301.253.709.21.941-.067.225-.268.197-.678-.104-.931-.318-.266-.727-.223-.952.045-.232.276-.203.686.115.953M388.771 65.165c.892-1.063.436-2.545-1.356-4.049-1.794-1.505-3.299-1.668-4.191-.605-.9 1.073-.477 2.526 1.316 4.031 1.792 1.503 3.33 1.696 4.231.623m-.554-.465c-.527.629-1.549.485-3.114-.829-1.567-1.314-1.853-2.268-1.326-2.896.519-.62 1.508-.504 3.075.811 1.566 1.314 1.885 2.295 1.365 2.914M392.264 61.001c.892-1.063.436-2.545-1.356-4.049-1.793-1.504-3.298-1.668-4.19-.605-.9 1.074-.477 2.526 1.316 4.031 1.792 1.504 3.33 1.697 4.23.623m-.553-.464c-.527.628-1.549.484-3.115-.829-1.567-1.315-1.853-2.269-1.325-2.897.519-.619 1.508-.503 3.075.812 1.566 1.313 1.884 2.294 1.365 2.914"/></g><g><path d="M407.796 76.918l2.531-3.016-.569-.478-.929 1.106-4.775-4.007-.443.528c-.07.44-.231.906-.555 1.462l.444.372.815-.971 3.938 3.304-1.026 1.222zM412.174 70.799c-.569.678-1.475.618-2.585-.17-.201-.782-.049-1.369.232-1.704.556-.662 1.266-.624 1.961-.04.703.589.835 1.387.392 1.914m-3.188-5.202c-.578.028-1.167.234-1.652.813-.892 1.063-.878 2.732 1.266 4.531 1.717 1.441 3.24 1.363 4.119.315.724-.862.634-2.167-.389-3.025-1.098-.921-2.157-.781-2.93.14-.366.436-.507 1.131-.378 1.811-1.664-1.454-1.714-2.567-1.088-3.313a1.52 1.52 0 0 1 1.157-.528zM411.242 65.82c.309.259.709.208.94-.068.226-.268.206-.671-.103-.93-.319-.268-.719-.217-.944.051-.232.276-.212.679.107.947m3.024 2.537c.301.253.71.21.941-.067.226-.268.197-.678-.104-.931-.318-.266-.727-.223-.952.045-.232.276-.203.686.115.953M417.83 65.165c.892-1.063.436-2.545-1.356-4.049-1.793-1.505-3.298-1.668-4.19-.605-.901 1.073-.478 2.526 1.315 4.031 1.792 1.503 3.33 1.696 4.231.623m-.554-.465c-.527.629-1.549.485-3.114-.829-1.567-1.314-1.853-2.268-1.326-2.896.52-.62 1.509-.504 3.075.811 1.566 1.314 1.885 2.295 1.365 2.914M421.324 61.001c.892-1.063.436-2.545-1.356-4.049-1.794-1.504-3.299-1.668-4.191-.605-.9 1.074-.477 2.526 1.316 4.031 1.792 1.504 3.33 1.697 4.231.623m-.554-.464c-.527.628-1.549.484-3.114-.829-1.567-1.315-1.853-2.269-1.326-2.897.519-.619 1.508-.503 3.075.812 1.566 1.313 1.885 2.294 1.365 2.914"/></g><g><path d="M436.855 76.918l2.531-3.016-.569-.478-.928 1.106-4.776-4.007-.442.528c-.071.44-.232.906-.555 1.462l.443.372.815-.971 3.938 3.304-1.026 1.222zM441.038 71.934l.597-.713c-2.009-1.842-3.005-3.122-3.561-5.743l-.427-.358-2.888 3.443.594.498 2.235-2.663c.58 2.286 1.516 3.757 3.45 5.536M440.302 65.82a.65.65 0 0 0 .94-.068c.225-.268.205-.671-.104-.93-.319-.268-.718-.217-.944.051-.231.276-.212.679.108.947m3.023 2.537c.301.253.71.21.942-.067.225-.268.196-.678-.105-.931-.318-.266-.726-.223-.952.045-.231.276-.203.686.115.953M446.889 65.165c.892-1.063.436-2.545-1.356-4.049-1.793-1.505-3.298-1.668-4.19-.605-.901 1.073-.478 2.526 1.316 4.031 1.792 1.503 3.33 1.696 4.23.623m-.553-.465c-.528.629-1.549.485-3.115-.829-1.567-1.314-1.853-2.268-1.326-2.896.52-.62 1.509-.504 3.076.811 1.565 1.314 1.884 2.295 1.365 2.914M450.383 61.001c.892-1.063.436-2.545-1.356-4.049-1.793-1.504-3.298-1.668-4.19-.605-.901 1.074-.478 2.526 1.315 4.031 1.792 1.504 3.33 1.697 4.231.623m-.554-.464c-.527.628-1.549.484-3.114-.829-1.567-1.315-1.853-2.269-1.326-2.897.52-.619 1.509-.503 3.076.812 1.565 1.313 1.884 2.294 1.364 2.914"/></g><g><path d="M465.915 76.918l2.53-3.016-.569-.478-.928 1.106-4.775-4.007-.443.528c-.071.44-.231.906-.555 1.462l.444.372.815-.971 3.937 3.304-1.026 1.222zM468.229 71.252c-.487-.409-.613-1.057-.539-1.724.956-.509 1.778-.978 2.465-.401.552.463.578 1.214.058 1.833-.548.654-1.39.79-1.984.292m-.218-2.753c-.792.435-1.553.796-2.189.262-.52-.436-.554-1.094-.14-1.588.492-.586 1.2-.579 1.728-.135.393.33.585.834.601 1.461m-.236 3.429c.846.71 2.092.484 2.936-.521.872-1.039.819-2.253.023-2.92-.721-.606-1.477-.47-2.154-.224l-.033-.028c.024-.538-.11-1.349-.672-1.82-.83-.696-1.908-.618-2.689.313-.724.863-.72 1.979.102 2.669.56.47 1.25.449 1.856.288l.034.028c-.154.728-.098 1.632.597 2.215M469.361 65.82c.309.259.708.208.94-.068.225-.268.206-.671-.103-.93-.32-.268-.719-.217-.944.051-.232.276-.213.679.107.947m3.024 2.537c.301.253.709.21.941-.067.225-.268.197-.678-.104-.931-.319-.266-.727-.223-.952.045-.232.276-.204.686.115.953M475.949 65.165c.891-1.063.435-2.545-1.357-4.049-1.793-1.505-3.298-1.668-4.19-.605-.9 1.073-.477 2.526 1.316 4.031 1.792 1.503 3.33 1.696 4.231.623m-.554-.465c-.527.629-1.549.485-3.115-.829-1.567-1.314-1.853-2.268-1.325-2.896.519-.62 1.508-.504 3.075.811 1.566 1.314 1.884 2.295 1.365 2.914M479.442 61.001c.892-1.063.436-2.545-1.356-4.049-1.793-1.504-3.298-1.668-4.19-.605-.901 1.074-.478 2.526 1.316 4.031 1.792 1.504 3.33 1.697 4.23.623m-.553-.464c-.528.628-1.549.484-3.115-.829-1.567-1.315-1.853-2.269-1.326-2.897.52-.619 1.509-.503 3.076.812 1.565 1.313 1.884 2.294 1.365 2.914"/></g><g><path d="M494.974 76.918l2.531-3.016-.57-.478-.928 1.106-4.775-4.007-.443.528c-.07.44-.231.906-.555 1.462l.444.372.815-.971 3.938 3.304-1.026 1.222zM496.967 69.269c-.556.662-1.265.622-1.96.039-.705-.591-.829-1.394-.393-1.914.57-.679 1.466-.625 2.583.154.208.79.058 1.378-.23 1.721m.842 3.334a2.236 2.236 0 0 0 1.645-.819c.893-1.064.878-2.732-1.266-4.531-1.718-1.441-3.232-1.372-4.119-.315-.717.854-.626 2.158.396 3.015 1.097.921 2.15.791 2.923-.13.373-.445.513-1.141.367-1.834 1.689 1.46 1.741 2.588 1.109 3.342a1.527 1.527 0 0 1-1.167.52zM498.42 65.82c.309.259.708.208.94-.068.225-.268.206-.671-.103-.93-.319-.268-.719-.217-.944.051-.232.276-.212.679.107.947m3.024 2.537c.301.253.71.21.941-.067.225-.268.197-.678-.104-.931-.318-.266-.727-.223-.952.045-.232.276-.203.686.115.953M505.008 65.165c.892-1.063.436-2.545-1.356-4.049-1.794-1.505-3.299-1.668-4.19-.605-.901 1.073-.478 2.526 1.315 4.031 1.792 1.503 3.33 1.696 4.231.623m-.554-.465c-.527.629-1.549.485-3.114-.829-1.567-1.314-1.853-2.268-1.326-2.896.52-.62 1.508-.504 3.075.811 1.566 1.314 1.885 2.295 1.365 2.914M508.502 61.001c.891-1.063.436-2.545-1.356-4.049-1.794-1.504-3.299-1.668-4.191-.605-.9 1.074-.477 2.526 1.316 4.031 1.792 1.504 3.33 1.697 4.231.623m-.554-.464c-.527.628-1.549.484-3.115-.829-1.566-1.315-1.853-2.269-1.325-2.897.519-.619 1.508-.503 3.075.812 1.566 1.313 1.884 2.294 1.365 2.914"/></g><g><path d="M523.759 77.245l2.896-3.452-.594-.498-1.301 1.55a14.87 14.87 0 0 0-.702.938c-.263-2.375-.493-4.126-1.499-4.969-.946-.794-2.087-.71-2.917.278-.584.696-.657 1.448-.544 2.3l.724-.063c-.101-.614-.062-1.237.312-1.682.569-.678 1.286-.647 1.897-.134.863.723 1.067 2.436 1.317 5.387zM528.823 71.415c.892-1.063.436-2.546-1.356-4.049-1.793-1.505-3.298-1.668-4.19-.605-.901 1.073-.478 2.526 1.315 4.03 1.792 1.504 3.33 1.697 4.231.624m-.554-.465c-.527.628-1.549.485-3.114-.829-1.567-1.315-1.853-2.268-1.326-2.897.52-.619 1.509-.503 3.075.812 1.566 1.314 1.885 2.295 1.365 2.914M527.479 65.82c.309.259.709.208.94-.068.226-.268.206-.671-.103-.93-.319-.268-.719-.217-.944.051-.231.276-.212.679.107.947m3.024 2.537c.301.253.71.21.942-.067.225-.268.196-.678-.105-.931-.318-.266-.727-.223-.952.045-.232.276-.203.686.115.953M534.067 65.165c.892-1.063.436-2.545-1.356-4.049-1.793-1.505-3.298-1.668-4.19-.605-.901 1.073-.478 2.526 1.316 4.031 1.792 1.503 3.329 1.696 4.23.623m-.554-.465c-.527.629-1.549.485-3.114-.829-1.567-1.314-1.853-2.268-1.326-2.896.52-.62 1.509-.504 3.076.811 1.565 1.314 1.884 2.295 1.364 2.914M537.561 61.001c.892-1.063.436-2.545-1.356-4.049-1.794-1.504-3.299-1.668-4.19-.605-.901 1.074-.478 2.526 1.315 4.031 1.792 1.504 3.33 1.697 4.231.623m-.554-.464c-.527.628-1.549.484-3.114-.829-1.567-1.315-1.853-2.269-1.326-2.897.52-.619 1.509-.503 3.075.812 1.566 1.313 1.885 2.294 1.365 2.914"/></g><g><path d="M552.818 77.245l2.897-3.452-.595-.498-1.3 1.55a14.5 14.5 0 0 0-.703.938c-.262-2.375-.493-4.126-1.498-4.969-.947-.794-2.088-.71-2.917.278-.585.696-.657 1.448-.545 2.3l.725-.063c-.101-.614-.063-1.237.311-1.682.569-.678 1.286-.647 1.897-.134.863.723 1.067 2.436 1.317 5.387zM556.586 72.754l2.531-3.016-.569-.477-.928 1.106-4.776-4.007-.442.527c-.071.441-.232.906-.555 1.462l.443.372.815-.971 3.938 3.304-1.026 1.223zM556.539 65.82c.309.259.708.208.94-.068.225-.268.206-.671-.103-.93-.32-.268-.719-.217-.944.051-.232.276-.213.679.107.947m3.023 2.537c.302.253.71.21.942-.067.225-.268.197-.678-.105-.931-.318-.266-.726-.223-.951.045-.232.276-.204.686.114.953M563.126 65.165c.892-1.063.436-2.545-1.356-4.049-1.793-1.505-3.298-1.668-4.19-.605-.9 1.073-.478 2.526 1.316 4.031 1.792 1.503 3.33 1.696 4.23.623m-.553-.465c-.527.629-1.549.485-3.115-.829-1.567-1.314-1.853-2.268-1.325-2.896.519-.62 1.508-.504 3.075.811 1.566 1.314 1.884 2.295 1.365 2.914M566.62 61.001c.892-1.063.436-2.545-1.356-4.049-1.793-1.504-3.298-1.668-4.19-.605-.901 1.074-.478 2.526 1.316 4.031 1.792 1.504 3.33 1.697 4.23.623m-.554-.464c-.527.628-1.548.484-3.114-.829-1.567-1.315-1.853-2.269-1.326-2.897.52-.619 1.509-.503 3.076.812 1.565 1.313 1.884 2.294 1.364 2.914"/></g><g><path d="M581.877 77.245l2.897-3.452-.594-.498-1.301 1.55c-.232.276-.481.624-.703.938-.262-2.375-.493-4.126-1.498-4.969-.946-.794-2.088-.71-2.917.278-.584.696-.657 1.448-.545 2.3l.725-.063c-.101-.614-.062-1.237.311-1.682.569-.678 1.286-.647 1.898-.134.862.723 1.067 2.436 1.316 5.387zM585.371 73.082l2.897-3.452-.595-.499-1.3 1.55a14.5 14.5 0 0 0-.703.938c-.262-2.375-.493-4.125-1.498-4.969-.947-.794-2.088-.71-2.917.278-.585.697-.657 1.448-.545 2.3l.725-.063c-.101-.613-.063-1.237.311-1.682.569-.678 1.286-.647 1.897-.134.863.724 1.067 2.437 1.317 5.388zM585.598 65.82c.309.259.708.208.94-.068.225-.268.206-.671-.103-.93-.319-.268-.719-.217-.944.051-.232.276-.212.679.107.947m3.024 2.537c.301.253.709.21.941-.067.225-.268.197-.678-.104-.931-.318-.266-.727-.223-.952.045-.232.276-.203.686.115.953M592.186 65.165c.892-1.063.436-2.545-1.356-4.049-1.794-1.505-3.299-1.668-4.191-.605-.9 1.073-.477 2.526 1.316 4.031 1.792 1.503 3.33 1.696 4.231.623m-.554-.465c-.527.629-1.549.485-3.114-.829-1.567-1.314-1.853-2.268-1.326-2.896.519-.62 1.508-.504 3.075.811 1.566 1.314 1.885 2.295 1.365 2.914M595.68 61.001c.891-1.063.435-2.545-1.357-4.049-1.793-1.504-3.298-1.668-4.19-.605-.9 1.074-.477 2.526 1.316 4.031 1.792 1.504 3.33 1.697 4.231.623m-.554-.464c-.527.628-1.549.484-3.115-.829-1.567-1.315-1.853-2.269-1.325-2.897.519-.619 1.508-.503 3.075.812 1.566 1.313 1.884 2.294 1.365 2.914"/></g><g><path d="M610.937 77.245l2.896-3.452-.594-.498-1.301 1.55a14.87 14.87 0 0 0-.702.938c-.263-2.375-.494-4.126-1.499-4.969-.946-.794-2.088-.71-2.917.278-.584.696-.657 1.448-.544 2.3l.724-.063c-.101-.614-.062-1.237.311-1.682.569-.678 1.287-.647 1.898-.134.862.723 1.067 2.436 1.317 5.387zM613.678 72.651c.698-.03 1.515-.273 2.231-1.126.822-.981.897-2.245-.049-3.039-.737-.619-1.635-.502-2.327.017l-.033-.028c.267-.762.188-1.5-.458-2.041-.862-.724-1.92-.469-2.701.462-.527.628-.656 1.361-.616 2.095l.746-.003c-.051-.585.039-1.153.411-1.596.478-.57 1.099-.648 1.619-.212.562.471.681 1.214-.274 2.353l.527.442c1.068-1.272 1.86-1.35 2.498-.815.594.499.594 1.283.052 1.929-.527.628-1.181.793-1.783.83zM614.657 65.82c.309.259.709.208.94-.068.226-.268.206-.671-.103-.93-.319-.268-.719-.217-.944.051-.232.276-.212.679.107.947m3.024 2.537c.301.253.71.21.941-.067.226-.268.197-.678-.104-.931-.318-.266-.727-.223-.952.045-.232.276-.203.686.115.953M621.245 65.165c.892-1.063.436-2.545-1.356-4.049-1.793-1.505-3.298-1.668-4.19-.605-.901 1.073-.478 2.526 1.315 4.031 1.792 1.503 3.33 1.696 4.231.623m-.554-.465c-.527.629-1.549.485-3.114-.829-1.567-1.314-1.853-2.268-1.326-2.896.52-.62 1.509-.504 3.076.811 1.565 1.314 1.884 2.295 1.364 2.914M624.739 61.001c.892-1.063.436-2.545-1.356-4.049-1.794-1.504-3.299-1.668-4.19-.605-.901 1.074-.478 2.526 1.315 4.031 1.792 1.504 3.33 1.697 4.231.623m-.554-.464c-.527.628-1.549.484-3.114-.829-1.567-1.315-1.853-2.269-1.326-2.897.519-.619 1.508-.503 3.075.812 1.566 1.313 1.885 2.294 1.365 2.914"/></g><g><path d="M641.566 75.578c.892-1.062.436-2.545-1.356-4.049-1.793-1.504-3.298-1.667-4.19-.604-.901 1.073-.478 2.525 1.316 4.03 1.792 1.504 3.33 1.697 4.23.623m-.553-.464c-.528.628-1.549.485-3.115-.829-1.567-1.315-1.853-2.269-1.326-2.897.52-.619 1.509-.503 3.076.812 1.565 1.313 1.884 2.295 1.365 2.914M645.06 71.415c.892-1.063.436-2.546-1.356-4.049-1.793-1.505-3.298-1.668-4.19-.605-.901 1.073-.478 2.526 1.316 4.03 1.792 1.504 3.329 1.697 4.23.624m-.554-.465c-.527.628-1.549.485-3.114-.829-1.567-1.315-1.853-2.268-1.326-2.897.52-.619 1.509-.503 3.076.812 1.565 1.314 1.884 2.295 1.364 2.914M643.716 65.82c.309.259.709.208.941-.068.225-.268.205-.671-.104-.93-.319-.268-.718-.217-.944.051-.231.276-.212.679.107.947m3.024 2.537c.301.253.71.21.942-.067.225-.268.196-.678-.105-.931-.318-.266-.726-.223-.952.045-.231.276-.203.686.115.953M650.304 65.165c.892-1.063.436-2.545-1.356-4.049-1.793-1.505-3.298-1.668-4.19-.605-.901 1.073-.478 2.526 1.316 4.031 1.792 1.503 3.33 1.696 4.23.623m-.553-.465c-.528.629-1.549.485-3.115-.829-1.567-1.314-1.853-2.268-1.326-2.896.52-.62 1.509-.504 3.076.811 1.565 1.314 1.884 2.295 1.365 2.914M653.798 61.001c.892-1.063.436-2.545-1.356-4.049-1.793-1.504-3.298-1.668-4.19-.605-.901 1.074-.478 2.526 1.315 4.031 1.792 1.504 3.33 1.697 4.231.623m-.554-.464c-.527.628-1.549.484-3.114-.829-1.567-1.315-1.853-2.269-1.326-2.897.52-.619 1.509-.503 3.076.812 1.565 1.313 1.884 2.294 1.364 2.914"/></g><g><path d="M670.626 75.578c.892-1.062.436-2.545-1.356-4.049-1.794-1.504-3.299-1.667-4.191-.604-.9 1.073-.477 2.525 1.316 4.03 1.792 1.504 3.33 1.697 4.231.623m-.554-.464c-.527.628-1.549.485-3.115-.829-1.566-1.315-1.853-2.269-1.325-2.897.519-.619 1.508-.503 3.075.812 1.566 1.313 1.884 2.295 1.365 2.914M672.824 72.754l2.53-3.016-.569-.477-.928 1.106-4.776-4.007-.442.527c-.071.441-.232.906-.555 1.462l.444.372.815-.971 3.937 3.304-1.026 1.223zM672.776 65.82c.309.259.708.208.94-.068.225-.268.206-.671-.103-.93-.32-.268-.719-.217-.944.051-.232.276-.213.679.107.947m3.024 2.537c.301.253.709.21.941-.067.225-.268.197-.678-.104-.931-.319-.266-.727-.223-.952.045-.232.276-.203.686.115.953M679.364 65.165c.891-1.063.435-2.545-1.357-4.049-1.793-1.505-3.298-1.668-4.19-.605-.9 1.073-.477 2.526 1.316 4.031 1.792 1.503 3.33 1.696 4.231.623m-.554-.465c-.527.629-1.549.485-3.115-.829-1.567-1.314-1.853-2.268-1.325-2.896.519-.62 1.508-.504 3.075.811 1.566 1.314 1.884 2.295 1.365 2.914M682.857 61.001c.892-1.063.436-2.545-1.356-4.049-1.793-1.504-3.298-1.668-4.19-.605-.901 1.074-.478 2.526 1.316 4.031 1.792 1.504 3.33 1.697 4.23.623m-.553-.464c-.528.628-1.549.484-3.115-.829-1.567-1.315-1.853-2.269-1.326-2.897.52-.619 1.509-.503 3.076.812 1.565 1.313 1.884 2.294 1.365 2.914"/></g><g><path d="M699.685 75.578c.892-1.062.436-2.545-1.356-4.049-1.793-1.504-3.298-1.667-4.19-.604-.901 1.073-.478 2.525 1.315 4.03 1.792 1.504 3.33 1.697 4.231.623m-.554-.464c-.527.628-1.549.485-3.114-.829-1.567-1.315-1.853-2.269-1.326-2.897.52-.619 1.509-.503 3.075.812 1.566 1.313 1.885 2.295 1.365 2.914M701.608 73.082l2.897-3.452-.595-.499-1.3 1.55a14.5 14.5 0 0 0-.703.938c-.262-2.375-.493-4.125-1.498-4.969-.947-.794-2.088-.71-2.917.278-.585.697-.657 1.448-.545 2.3l.725-.063c-.101-.613-.062-1.237.311-1.682.569-.678 1.286-.647 1.897-.134.863.724 1.068 2.437 1.317 5.388zM701.835 65.82c.309.259.709.208.94-.068.225-.268.206-.671-.103-.93-.319-.268-.719-.217-.944.051-.232.276-.212.679.107.947m3.024 2.537c.301.253.71.21.941-.067.226-.268.197-.678-.104-.931-.318-.266-.727-.223-.952.045-.232.276-.203.686.115.953M708.423 65.165c.892-1.063.436-2.545-1.356-4.049-1.794-1.505-3.299-1.668-4.19-.605-.901 1.073-.478 2.526 1.315 4.031 1.792 1.503 3.33 1.696 4.231.623m-.554-.465c-.527.629-1.549.485-3.114-.829-1.567-1.314-1.853-2.268-1.326-2.896.519-.62 1.508-.504 3.075.811 1.566 1.314 1.885 2.295 1.365 2.914M711.917 61.001c.892-1.063.436-2.545-1.357-4.049-1.793-1.504-3.298-1.668-4.19-.605-.9 1.074-.477 2.526 1.316 4.031 1.792 1.504 3.33 1.697 4.231.623m-.554-.464c-.527.628-1.549.484-3.115-.829-1.566-1.315-1.852-2.269-1.325-2.897.519-.619 1.508-.503 3.075.812 1.566 1.313 1.884 2.294 1.365 2.914"/></g></g><g fill="#262626"><path d="M8.373 44.524h2.287c1.606 0 2.722-.688 2.722-2.1 0-.984-.612-1.553-1.663-1.717v-.043c.843-.219 1.248-.852 1.248-1.563 0-1.258-1.007-1.75-2.461-1.75H8.373zm.908-4.111v-2.341h1.105c1.114 0 1.683.328 1.683 1.104 0 .8-.502 1.237-1.727 1.237zm0 3.39V41.09h1.247c1.258 0 1.957.405 1.957 1.292 0 .972-.721 1.421-1.957 1.421zM14.454 43.147c0 .95.668 1.509 1.563 1.509.656 0 1.248-.35 1.762-.766h.022l.075.634h.745v-3.258c0-1.325-.546-2.188-1.849-2.188-.852 0-1.596.371-2.088.689l.361.624c.415-.286.962-.569 1.586-.569.863 0 1.093.656 1.093 1.334-2.264.252-3.27.831-3.27 1.991m.886-.067c0-.678.602-1.115 2.384-1.334v1.476c-.514.46-.941.711-1.454.711-.526 0-.93-.251-.93-.853M20.316 44.524h.897v-3.85c.535-.534.908-.82 1.454-.82.699 0 1.007.427 1.007 1.422v3.248h.895v-3.368c0-1.356-.502-2.078-1.618-2.078-.733 0-1.28.393-1.782.898h-.033l-.077-.766h-.743zM26.298 44.524h.885v-1.399l.997-1.16 1.551 2.559h.985l-2.024-3.181 1.784-2.133h-.996l-2.264 2.799h-.033v-5.272h-.885zM39.486 41.746l-2.973-2.898-.472.504 2.2 2.045h-4.79v.744h4.79l-2.2 2.045.472.502 2.973-2.898zM43.774 44.524h1.082l1.061-4.319c.122-.558.251-1.072.361-1.631h.044c.11.559.219 1.073.351 1.631l1.081 4.319h1.094l1.488-7.173h-.875l-.755 3.903c-.142.765-.273 1.543-.405 2.319h-.043c-.176-.776-.35-1.564-.524-2.319l-.996-3.903h-.831l-.996 3.903c-.164.765-.339 1.543-.503 2.319h-.044c-.13-.776-.284-1.542-.415-2.319l-.754-3.903h-.941zM51.232 43.147c0 .95.668 1.509 1.564 1.509.656 0 1.247-.35 1.762-.766h.022l.075.634h.745v-3.258c0-1.325-.547-2.188-1.849-2.188-.853 0-1.596.371-2.088.689l.361.624c.415-.286.962-.569 1.585-.569.863 0 1.094.656 1.094 1.334-2.264.252-3.271.831-3.271 1.991m.887-.067c0-.678.602-1.115 2.384-1.334v1.476c-.514.46-.942.711-1.454.711-.527 0-.93-.251-.93-.853M57.247 42.884c0 1.049.383 1.772 1.521 1.772.328 0 .688-.099.984-.197l-.174-.678c-.176.065-.417.142-.602.142-.613 0-.82-.373-.82-1.029v-2.953h1.432v-.731h-1.432v-1.488h-.755l-.11 1.488-.83.055v.676h.786zM60.397 41.877c0 1.74 1.127 2.779 2.549 2.779.721 0 1.29-.251 1.75-.547l-.318-.591c-.393.251-.82.415-1.323.415-1.018 0-1.707-.721-1.772-1.869h3.587c.022-.132.033-.306.033-.492 0-1.521-.766-2.494-2.121-2.494-1.215 0-2.385 1.062-2.385 2.799m.875-.405c.109-1.071.787-1.683 1.531-1.683.832 0 1.312.602 1.312 1.683zM66.216 44.524h.897v-3.412c.36-.897.895-1.225 1.345-1.225.218 0 .338.034.514.089l.174-.788a1.308 1.308 0 0 0-.569-.11c-.601 0-1.148.426-1.509 1.094h-.032l-.077-.962h-.743zM70.011 43.453c0 .776.273 1.203.951 1.203.24 0 .393-.033.513-.087l-.12-.679c-.099.023-.141.023-.196.023-.132 0-.251-.11-.251-.395v-6.781h-.897zM72.405 41.877c0 1.762 1.16 2.779 2.46 2.779 1.302 0 2.461-1.017 2.461-2.779 0-1.782-1.159-2.799-2.461-2.799-1.3 0-2.46 1.017-2.46 2.799m.929 0c0-1.225.624-2.055 1.531-2.055.92 0 1.531.83 1.531 2.055 0 1.215-.611 2.036-1.531 2.036-.907 0-1.531-.821-1.531-2.036M78.332 41.877c0 1.762 1.16 2.779 2.461 2.779 1.302 0 2.46-1.017 2.46-2.779 0-1.782-1.158-2.799-2.46-2.799-1.301 0-2.461 1.017-2.461 2.799m.93 0c0-1.225.623-2.055 1.531-2.055.919 0 1.531.83 1.531 2.055 0 1.215-.612 2.036-1.531 2.036-.908 0-1.531-.821-1.531-2.036"/></g><path d="M144.182 36.998v7.265h-7.265v-7.265h7.265zM151.446 36.998v7.265h-7.264v-7.265h7.264zM158.711 36.998v7.265h-7.265v-7.265h7.265zM165.976 36.998v7.265h-7.265v-7.265h7.265zM173.241 36.998v7.265h-7.265v-7.265h7.265zM180.506 36.998v7.265h-7.265v-7.265h7.265zM187.77 36.998v7.265h-7.264v-7.265h7.264zM195.035 36.998v7.265h-7.265v-7.265h7.265zM202.3 36.998v7.265h-7.265v-7.265h7.265zM209.565 36.998v7.265H202.3v-7.265h7.265zM216.83 36.998v7.265h-7.265v-7.265h7.265zM224.095 36.998v7.265h-7.265v-7.265h7.265zM231.359 36.998v7.265h-7.264v-7.265h7.264zM238.624 36.998v7.265h-7.265v-7.265h7.265zM245.889 36.998v7.265h-7.265v-7.265h7.265zM253.154 36.998v7.265h-7.265v-7.265h7.265zM260.419 36.998v7.265h-7.265v-7.265h7.265zM267.684 36.998v7.265h-7.265v-7.265h7.265z" fill="#FFF7EC"/><path d="M274.948 36.998v7.265h-7.264v-7.265h7.264zM282.213 36.998v7.265h-7.265v-7.265h7.265zM289.478 36.998v7.265h-7.265v-7.265h7.265zM296.743 36.998v7.265h-7.265v-7.265h7.265zM304.008 36.998v7.265h-7.265v-7.265h7.265zM311.272 36.998v7.265h-7.264v-7.265h7.264zM318.537 36.998v7.265h-7.265v-7.265h7.265zM325.802 36.998v7.265h-7.265v-7.265h7.265zM333.067 36.998v7.265h-7.265v-7.265h7.265zM340.332 36.998v7.265h-7.265v-7.265h7.265zM347.597 36.998v7.265h-7.265v-7.265h7.265zM354.861 36.998v7.265h-7.264v-7.265h7.264zM362.126 36.998v7.265h-7.265v-7.265h7.265zM369.391 36.998v7.265h-7.265v-7.265h7.265zM376.656 36.998v7.265h-7.265v-7.265h7.265zM383.921 36.998v7.265h-7.265v-7.265h7.265zM391.185 36.998v7.265h-7.264v-7.265h7.264zM398.45 36.998v7.265h-7.265v-7.265h7.265z" fill="#FFF7EC"/><path d="M405.715 36.998v7.265h-7.265v-7.265h7.265zM412.98 36.998v7.265h-7.265v-7.265h7.265zM420.245 36.998v7.265h-7.265v-7.265h7.265zM427.51 36.998v7.265h-7.265v-7.265h7.265zM434.774 36.998v7.265h-7.264v-7.265h7.264z" fill="#FDDCAF"/><path d="M442.039 36.998v7.265h-7.265v-7.265h7.265z" fill="#FDB27B"/><path d="M449.304 36.998v7.265h-7.265v-7.265h7.265z" fill="#F26D4B"/><path d="M456.569 36.998v7.265h-7.265v-7.265h7.265z" fill="#C91D13"/><path d="M463.834 36.998v7.265h-7.265v-7.265h7.265zM471.099 36.998v7.265h-7.265v-7.265h7.265zM478.363 36.998v7.265h-7.264v-7.265h7.264z" fill="#7F0000"/><path d="M485.628 36.998v7.265h-7.265v-7.265h7.265z" fill="#C91D13"/><path d="M492.893 36.998v7.265h-7.265v-7.265h7.265z" fill="#F26D4B"/><path d="M500.158 36.998v7.265h-7.265v-7.265h7.265z" fill="#FDB27B"/><path d="M507.423 36.998v7.265h-7.265v-7.265h7.265zM514.687 36.998v7.265h-7.264v-7.265h7.264zM521.952 36.998v7.265h-7.265v-7.265h7.265z" fill="#FDDCAF"/><path d="M529.217 36.998v7.265h-7.265v-7.265h7.265zM536.482 36.998v7.265h-7.265v-7.265h7.265zM543.747 36.998v7.265h-7.265v-7.265h7.265zM551.012 36.998v7.265h-7.265v-7.265h7.265zM558.276 36.998v7.265h-7.264v-7.265h7.264zM565.541 36.998v7.265h-7.265v-7.265h7.265zM572.806 36.998v7.265h-7.265v-7.265h7.265zM580.071 36.998v7.265h-7.265v-7.265h7.265zM587.336 36.998v7.265h-7.265v-7.265h7.265zM594.6 36.998v7.265h-7.264v-7.265h7.264zM601.865 36.998v7.265H594.6v-7.265h7.265zM609.13 36.998v7.265h-7.265v-7.265h7.265zM616.395 36.998v7.265h-7.265v-7.265h7.265zM623.66 36.998v7.265h-7.265v-7.265h7.265zM630.924 36.998v7.265h-7.264v-7.265h7.264zM638.189 36.998v7.265h-7.265v-7.265h7.265zM645.454 36.998v7.265h-7.265v-7.265h7.265zM652.719 36.998v7.265h-7.265v-7.265h7.265zM659.984 36.998v7.265h-7.265v-7.265h7.265zM667.249 36.998v7.265h-7.265v-7.265h7.265z" fill="#FFF7EC"/><g fill="#262626"><path d="M9.161 30.163h1.082l1.061-4.32c.121-.557.251-1.071.361-1.63h.044c.109.559.219 1.073.35 1.63l1.082 4.32h1.094l1.488-7.173h-.875l-.755 3.903c-.142.765-.274 1.543-.405 2.318h-.043c-.176-.775-.35-1.563-.525-2.318l-.996-3.903h-.83l-.996 3.903c-.165.765-.339 1.543-.503 2.318h-.044c-.13-.775-.284-1.541-.416-2.318l-.753-3.903H7.64zM16.619 28.786c0 .95.668 1.509 1.564 1.509.656 0 1.247-.35 1.761-.766h.023l.075.634h.745v-3.258c0-1.325-.547-2.188-1.849-2.188-.853 0-1.596.371-2.088.689l.36.624c.415-.286.962-.569 1.586-.569.863 0 1.094.656 1.094 1.334-2.265.251-3.271.831-3.271 1.991m.887-.067c0-.678.601-1.115 2.384-1.334v1.476c-.515.46-.942.711-1.455.711-.526 0-.929-.251-.929-.853M22.634 28.523c0 1.049.382 1.772 1.52 1.772.329 0 .689-.099.985-.197l-.175-.678c-.176.065-.417.142-.601.142-.614 0-.82-.373-.82-1.029V25.58h1.432v-.731h-1.432v-1.488h-.756l-.109 1.488-.83.055v.676h.786zM25.783 27.516c0 1.74 1.128 2.779 2.55 2.779.721 0 1.29-.251 1.75-.547l-.318-.591c-.393.251-.82.415-1.323.415-1.018 0-1.707-.721-1.772-1.869h3.587c.022-.132.032-.306.032-.492 0-1.521-.765-2.494-2.12-2.494-1.215 0-2.386 1.062-2.386 2.799m.875-.405c.11-1.071.788-1.683 1.531-1.683.832 0 1.313.602 1.313 1.683zM31.602 30.163h.898v-3.412c.36-.897.895-1.225 1.344-1.225.219 0 .339.034.515.088l.174-.787a1.308 1.308 0 0 0-.569-.11c-.602 0-1.148.426-1.509 1.094h-.032l-.077-.962h-.744zM35.397 29.092c0 .776.274 1.203.952 1.203.239 0 .393-.033.513-.087l-.12-.679c-.099.023-.142.023-.196.023-.132 0-.252-.11-.252-.395v-6.781h-.897zM37.791 27.516c0 1.762 1.161 2.779 2.461 2.779 1.302 0 2.461-1.017 2.461-2.779 0-1.782-1.159-2.799-2.461-2.799-1.3 0-2.461 1.017-2.461 2.799m.93 0c0-1.225.624-2.055 1.531-2.055.919 0 1.531.83 1.531 2.055 0 1.215-.612 2.036-1.531 2.036-.907 0-1.531-.821-1.531-2.036M43.719 27.516c0 1.762 1.16 2.779 2.46 2.779 1.303 0 2.461-1.017 2.461-2.779 0-1.782-1.158-2.799-2.461-2.799-1.3 0-2.46 1.017-2.46 2.799m.929 0c0-1.225.624-2.055 1.531-2.055.92 0 1.532.83 1.532 2.055 0 1.215-.612 2.036-1.532 2.036-.907 0-1.531-.821-1.531-2.036M57.816 27.385l-2.974-2.898-.471.504 2.199 2.045h-4.79v.744h4.79l-2.199 2.045.471.502 2.974-2.898zM61.316 30.163h2.286c1.607 0 2.722-.688 2.722-2.1 0-.984-.611-1.553-1.662-1.717v-.043c.842-.219 1.247-.853 1.247-1.563 0-1.258-1.006-1.75-2.46-1.75h-2.133zm.907-4.111v-2.341h1.106c1.114 0 1.683.328 1.683 1.104 0 .799-.502 1.237-1.728 1.237zm0 3.39v-2.713h1.248c1.257 0 1.956.405 1.956 1.291 0 .973-.721 1.422-1.956 1.422zM67.396 28.786c0 .95.668 1.509 1.564 1.509.656 0 1.247-.35 1.761-.766h.023l.075.634h.745v-3.258c0-1.325-.547-2.188-1.849-2.188-.853 0-1.596.371-2.088.689l.36.624c.416-.286.962-.569 1.586-.569.863 0 1.094.656 1.094 1.334-2.264.251-3.271.831-3.271 1.991m.887-.067c0-.678.602-1.115 2.384-1.334v1.476c-.515.46-.942.711-1.454.711-.527 0-.93-.251-.93-.853M73.259 30.163h.897v-3.85c.535-.534.907-.82 1.454-.82.699 0 1.007.427 1.007 1.422v3.248h.895v-3.368c0-1.357-.502-2.078-1.618-2.078-.733 0-1.28.393-1.783.897h-.032l-.077-.765h-.743zM79.241 30.163h.885v-1.399l.996-1.16 1.552 2.559h.984l-2.023-3.181 1.784-2.133h-.996l-2.264 2.799h-.033v-5.272h-.885z"/></g><g><path d="M136.917 22.637v7.265h-7.265v-7.265h7.265zM144.182 22.637v7.265h-7.265v-7.265h7.265z" fill="#FFF7EC"/><path d="M151.446 22.637v7.265h-7.264v-7.265h7.264zM158.711 22.637v7.265h-7.265v-7.265h7.265zM165.976 22.637v7.265h-7.265v-7.265h7.265z" fill="#FDDCAF"/><path d="M173.241 22.637v7.265h-7.265v-7.265h7.265z" fill="#FDB27B"/><path d="M180.506 22.637v7.265h-7.265v-7.265h7.265z" fill="#F26D4B"/><path d="M187.77 22.637v7.265h-7.264v-7.265h7.264zM195.035 22.637v7.265h-7.265v-7.265h7.265z" fill="#C91D13"/><path d="M202.3 22.637v7.265h-7.265v-7.265h7.265zM209.565 22.637v7.265H202.3v-7.265h7.265z" fill="#7F0000"/><path d="M216.83 22.637v7.265h-7.265v-7.265h7.265z" fill="#C91D13"/><path d="M224.095 22.637v7.265h-7.265v-7.265h7.265z" fill="#F26D4B"/><path d="M231.359 22.637v7.265h-7.264v-7.265h7.264zM238.624 22.637v7.265h-7.265v-7.265h7.265z" fill="#FDDCAF"/><path d="M245.889 22.637v7.265h-7.265v-7.265h7.265zM253.154 22.637v7.265h-7.265v-7.265h7.265zM260.419 22.637v7.265h-7.265v-7.265h7.265zM267.684 22.637v7.265h-7.265v-7.265h7.265z" fill="#FFF7EC"/><path d="M274.948 22.637v7.265h-7.264v-7.265h7.264zM282.213 22.637v7.265h-7.265v-7.265h7.265zM289.478 22.637v7.265h-7.265v-7.265h7.265zM296.743 22.637v7.265h-7.265v-7.265h7.265zM304.008 22.637v7.265h-7.265v-7.265h7.265zM311.272 22.637v7.265h-7.264v-7.265h7.264zM318.537 22.637v7.265h-7.265v-7.265h7.265zM325.802 22.637v7.265h-7.265v-7.265h7.265zM333.067 22.637v7.265h-7.265v-7.265h7.265zM340.332 22.637v7.265h-7.265v-7.265h7.265zM347.597 22.637v7.265h-7.265v-7.265h7.265zM354.861 22.637v7.265h-7.264v-7.265h7.264zM362.126 22.637v7.265h-7.265v-7.265h7.265zM369.391 22.637v7.265h-7.265v-7.265h7.265zM376.656 22.637v7.265h-7.265v-7.265h7.265zM383.921 22.637v7.265h-7.265v-7.265h7.265zM391.185 22.637v7.265h-7.264v-7.265h7.264zM398.45 22.637v7.265h-7.265v-7.265h7.265zM405.715 22.637v7.265h-7.265v-7.265h7.265zM412.98 22.637v7.265h-7.265v-7.265h7.265zM420.245 22.637v7.265h-7.265v-7.265h7.265zM427.51 22.637v7.265h-7.265v-7.265h7.265zM434.774 22.637v7.265h-7.264v-7.265h7.264zM442.039 22.637v7.265h-7.265v-7.265h7.265zM449.304 22.637v7.265h-7.265v-7.265h7.265zM456.569 22.637v7.265h-7.265v-7.265h7.265zM463.834 22.637v7.265h-7.265v-7.265h7.265zM471.099 22.637v7.265h-7.265v-7.265h7.265zM478.363 22.637v7.265h-7.264v-7.265h7.264zM485.628 22.637v7.265h-7.265v-7.265h7.265zM492.893 22.637v7.265h-7.265v-7.265h7.265zM500.158 22.637v7.265h-7.265v-7.265h7.265zM507.423 22.637v7.265h-7.265v-7.265h7.265zM514.687 22.637v7.265h-7.264v-7.265h7.264zM521.952 22.637v7.265h-7.265v-7.265h7.265zM529.217 22.637v7.265h-7.265v-7.265h7.265zM536.482 22.637v7.265h-7.265v-7.265h7.265zM543.747 22.637v7.265h-7.265v-7.265h7.265zM551.012 22.637v7.265h-7.265v-7.265h7.265zM558.276 22.637v7.265h-7.264v-7.265h7.264zM565.541 22.637v7.265h-7.265v-7.265h7.265zM572.806 22.637v7.265h-7.265v-7.265h7.265zM580.071 22.637v7.265h-7.265v-7.265h7.265zM587.336 22.637v7.265h-7.265v-7.265h7.265zM594.6 22.637v7.265h-7.264v-7.265h7.264zM601.865 22.637v7.265H594.6v-7.265h7.265zM609.13 22.637v7.265h-7.265v-7.265h7.265zM616.395 22.637v7.265h-7.265v-7.265h7.265zM623.66 22.637v7.265h-7.265v-7.265h7.265zM630.924 22.637v7.265h-7.264v-7.265h7.264zM638.189 22.637v7.265h-7.265v-7.265h7.265zM645.454 22.637v7.265h-7.265v-7.265h7.265zM652.719 22.637v7.265h-7.265v-7.265h7.265zM659.984 22.637v7.265h-7.265v-7.265h7.265zM667.249 22.637v7.265h-7.265v-7.265h7.265z" fill="#FFF7EC"/></g><g fill="#262626"><path d="M331.783 14.435h1.622l1.592-6.48c.182-.835.377-1.607.541-2.445h.067c.164.838.328 1.61.525 2.445l1.623 6.48h1.64l2.233-10.76h-1.313l-1.133 5.854a241.8 241.8 0 0 0-.607 3.478h-.064c-.264-1.163-.526-2.345-.787-3.478l-1.494-5.854h-1.246l-1.494 5.854c-.247 1.149-.508 2.315-.754 3.478h-.067c-.195-1.163-.425-2.312-.623-3.478l-1.13-5.854h-1.412zM342.97 12.369c0 1.425 1.002 2.264 2.345 2.264.984 0 1.871-.526 2.643-1.149h.033l.113.951h1.117V9.547c0-1.986-.82-3.281-2.773-3.281-1.279 0-2.394.557-3.132 1.033l.541.936c.622-.428 1.443-.854 2.378-.854 1.295 0 1.641.985 1.641 2.002-3.397.377-4.906 1.246-4.906 2.986m1.33-.1c0-1.017.902-1.673 3.576-2.002v2.215c-.772.69-1.413 1.066-2.182 1.066-.789 0-1.394-.376-1.394-1.279M351.992 11.975c0 1.573.574 2.658 2.281 2.658.492 0 1.033-.149 1.476-.295l-.261-1.018c-.264.098-.626.213-.902.213-.921 0-1.231-.559-1.231-1.543V7.561h2.148V6.464h-2.148V4.231h-1.133l-.164 2.233-1.245.082v1.015h1.179zM356.716 10.465c0 2.609 1.692 4.168 3.824 4.168 1.082 0 1.936-.377 2.625-.821l-.477-.887c-.589.377-1.23.623-1.984.623-1.527 0-2.56-1.081-2.658-2.804h5.381c.033-.197.048-.459.048-.738 0-2.281-1.148-3.74-3.181-3.74-1.822 0-3.578 1.592-3.578 4.199m1.313-.608c.164-1.607 1.181-2.524 2.296-2.524 1.248 0 1.969.902 1.969 2.524zM365.445 14.435h1.346V9.316c.54-1.345 1.343-1.837 2.017-1.837.328 0 .507.051.771.133l.262-1.182a1.976 1.976 0 0 0-.854-.164c-.902 0-1.722.639-2.263 1.641h-.049l-.115-1.443h-1.115zM371.137 12.828c0 1.164.41 1.805 1.428 1.805.359 0 .589-.049.769-.131l-.18-1.018c-.148.034-.212.034-.294.034-.198 0-.377-.164-.377-.593V2.755h-1.346zM374.728 10.465c0 2.642 1.741 4.168 3.691 4.168 1.953 0 3.691-1.526 3.691-4.168 0-2.674-1.738-4.199-3.691-4.199-1.95 0-3.691 1.525-3.691 4.199m1.395 0c0-1.838.935-3.084 2.296-3.084 1.379 0 2.297 1.246 2.297 3.084 0 1.822-.918 3.053-2.297 3.053-1.361 0-2.296-1.231-2.296-3.053M383.619 10.465c0 2.642 1.741 4.168 3.691 4.168 1.954 0 3.691-1.526 3.691-4.168 0-2.674-1.737-4.199-3.691-4.199-1.95 0-3.691 1.525-3.691 4.199m1.395 0c0-1.838.935-3.084 2.296-3.084 1.379 0 2.297 1.246 2.297 3.084 0 1.822-.918 3.053-2.297 3.053-1.361 0-2.296-1.231-2.296-3.053M396.909 11.564c0-.835.589-1.476 1.345-2.083.754 1.148 1.771 2.281 2.82 3.198-.623.541-1.313.869-2.051.869-1.179 0-2.114-.787-2.114-1.984m1.263-5.562c0-.884.523-1.558 1.328-1.558.723 0 1.018.559 1.018 1.181 0 .951-.854 1.608-1.838 2.264-.313-.656-.508-1.295-.508-1.887m6.644 7.516c-.592-.164-1.282-.526-2.02-1.036.854-1.13 1.461-2.443 1.887-3.855h-1.261a9.394 9.394 0 0 1-1.51 3.183c-1.018-.853-2.017-1.919-2.725-3.019 1.2-.869 2.43-1.771 2.43-3.181 0-1.264-.789-2.132-2.117-2.132-1.492 0-2.494 1.115-2.494 2.542 0 .787.264 1.641.705 2.525-1.097.756-2.115 1.658-2.115 3.101 0 1.738 1.328 2.987 3.281 2.987 1.264 0 2.279-.493 3.099-1.231.872.608 1.722 1.018 2.479 1.231zM409.228 9.055c0 3.509 2.002 5.578 4.709 5.578 1.376 0 2.427-.575 3.281-1.559l-.772-.838c-.689.771-1.443 1.2-2.478 1.2-2.033 0-3.33-1.708-3.33-4.414 0-2.674 1.346-4.347 3.396-4.347.903 0 1.592.394 2.148.999l.772-.869a3.917 3.917 0 0 0-2.935-1.327c-2.758 0-4.791 2.114-4.791 5.577M419.777 4.823c.523 0 .933-.361.933-.871 0-.523-.41-.869-.933-.869-.526 0-.936.346-.936.869 0 .51.41.871.936.871m-.69 9.612h1.346V6.464h-1.346zM423.351 11.975c0 1.573.574 2.658 2.281 2.658.492 0 1.033-.149 1.477-.295l-.262-1.018c-.264.098-.625.213-.902.213-.92 0-1.23-.559-1.23-1.543V7.561h2.148V6.464h-2.148V4.231h-1.133l-.164 2.233-1.246.082v1.015h1.179zM428.127 16.634l-.264 1.067c.264.097.574.164.935.164 1.607 0 2.428-1.2 2.986-2.774l3.002-8.627h-1.312l-1.428 4.411c-.213.705-.444 1.525-.672 2.248h-.066c-.246-.738-.526-1.559-.772-2.248l-1.622-4.411h-1.395l3.199 7.987-.182.592c-.328.984-.902 1.704-1.804 1.704-.195 0-.441-.064-.605-.113"/></g></svg>