<svg xmlns="http://www.w3.org/2000/svg" xmlns:xlink="http://www.w3.org/1999/xlink" width="768" height="384" viewBox="0 0 576 288"><defs><symbol overflow="visible" id="S"><path d="M.89-4.61v-.624c.594-.051 1.005-.145 1.235-.282.227-.132.398-.453.516-.953h.656V0h-.875v-4.61zm0 0"/></symbol><symbol overflow="visible" id="T"><path d="M2.516-6.5c.843 0 1.453.344 1.828 1.031.289.543.437 1.278.437 2.203 0 .887-.136 1.621-.406 2.204C4-.239 3.379.171 2.515.171c-.78 0-1.367-.336-1.75-1.016-.312-.562-.468-1.32-.468-2.281 0-.727.094-1.36.281-1.89.352-.989 1-1.485 1.938-1.485zM2.5-.562c.426 0 .766-.188 1.016-.563.25-.375.375-1.078.375-2.11 0-.726-.094-1.331-.282-1.812-.18-.476-.527-.719-1.046-.719-.481 0-.836.23-1.063.688-.219.45-.328 1.11-.328 1.984 0 .668.07 1.203.219 1.61.218.617.586.921 1.109.921zm0 0"/></symbol><symbol overflow="visible" id="U"><path d="M.297 0c.02-.563.129-1.047.328-1.453.207-.414.602-.797 1.188-1.14l.875-.5c.382-.227.66-.423.828-.579.238-.25.359-.539.359-.875 0-.375-.117-.672-.344-.89-.219-.227-.515-.344-.89-.344-.563 0-.954.215-1.172.64-.117.23-.18.547-.188.954H.453c.008-.57.113-1.036.313-1.391.351-.625.976-.938 1.875-.938.738 0 1.28.204 1.625.61.343.398.515.84.515 1.328 0 .523-.183.969-.547 1.344-.21.21-.59.468-1.14.78l-.625.345a3.163 3.163 0 0 0-.688.468c-.304.262-.496.555-.578.875H4.75V0zm0 0"/></symbol><symbol overflow="visible" id="V"><path d="M2.422.172c-.774 0-1.336-.207-1.688-.625C.391-.88.22-1.395.22-2h.86c.03.43.109.734.234.922.207.344.585.516 1.14.516.438 0 .785-.114 1.047-.344.258-.227.39-.524.39-.89 0-.446-.14-.759-.421-.938-.274-.188-.653-.282-1.14-.282-.056 0-.11.008-.173.016H2v-.719c.082.012.148.016.203.016h.188c.312 0 .566-.047.765-.14.344-.165.516-.47.516-.907 0-.32-.117-.57-.344-.75a1.3 1.3 0 0 0-.812-.266c-.543 0-.918.184-1.125.547-.118.2-.184.485-.204.86H.391c0-.489.093-.907.28-1.25.333-.602.923-.907 1.766-.907.657 0 1.165.153 1.532.454.363.292.547.718.547 1.28 0 .4-.11.72-.329.97a1.17 1.17 0 0 1-.515.359c.344.094.61.277.797.547.195.273.297.601.297.984 0 .617-.204 1.121-.61 1.516-.406.386-.984.578-1.734.578zm0 0"/></symbol><symbol overflow="visible" id="W"><path d="M3.078-2.297V-5.25L.984-2.297zM3.094 0v-1.594H.234v-.797L3.22-6.516h.687v4.22h.953v.702h-.953V0zm0 0"/></symbol><symbol overflow="visible" id="X"><path d="M1.156-1.656c.051.468.266.793.64.968.196.094.423.141.673.141.488 0 .847-.156 1.078-.469.226-.312.344-.656.344-1.03 0-.446-.141-.798-.422-1.048a1.408 1.408 0 0 0-.985-.375c-.28 0-.527.059-.734.172-.2.106-.367.258-.5.453L.531-2.89l.5-3.5h3.375v.782H1.641l-.282 1.812c.157-.113.301-.195.438-.25a2.14 2.14 0 0 1 .844-.156c.593 0 1.097.195 1.515.578.414.387.625.871.625 1.453 0 .617-.195 1.156-.578 1.625-.375.469-.98.703-1.812.703-.532 0-1-.148-1.407-.437C.578-.582.348-1.04.297-1.656zm0 0"/></symbol><symbol overflow="visible" id="Y"><path d="M2.719-6.531c.726 0 1.234.195 1.515.578.29.375.438.762.438 1.156h-.813a1.711 1.711 0 0 0-.234-.61c-.2-.269-.496-.405-.89-.405-.462 0-.825.214-1.094.64-.274.418-.422 1.024-.454 1.813a1.73 1.73 0 0 1 .72-.625c.257-.114.55-.172.874-.172.54 0 1.016.172 1.422.515.406.344.61.868.61 1.563 0 .586-.196 1.105-.579 1.562-.386.461-.933.688-1.64.688C1.977.172 1.445-.055 1-.516.562-.984.344-1.766.344-2.859c0-.801.097-1.485.297-2.047.382-1.082 1.078-1.625 2.078-1.625zM2.656-.563c.438 0 .758-.14.969-.421.207-.29.313-.633.313-1.032a1.79 1.79 0 0 0-.282-.953c-.187-.3-.531-.453-1.031-.453-.355 0-.668.121-.938.36-.261.23-.39.578-.39 1.046 0 .418.117.766.36 1.047.238.274.57.406 1 .406zm0 0"/></symbol><symbol overflow="visible" id="Z"><path d="M4.86-6.39v.718c-.212.2-.485.547-.829 1.047-.343.5-.652 1.043-.922 1.625-.261.574-.46 1.09-.593 1.547-.094.305-.211.789-.344 1.453h-.906c.207-1.238.66-2.473 1.359-3.703.414-.719.852-1.336 1.313-1.86H.344v-.828zm0 0"/></symbol><symbol overflow="visible" id="aa"><path d="M2.531-3.781c.352 0 .63-.098.828-.297a.956.956 0 0 0 .313-.719c0-.238-.102-.457-.297-.656-.188-.207-.48-.313-.875-.313-.398 0-.684.106-.86.313-.167.2-.25.433-.25.703 0 .305.11.543.329.719.226.168.5.25.812.25zm.047 3.219c.375 0 .688-.098.938-.297.25-.207.375-.516.375-.922 0-.414-.133-.735-.391-.953-.25-.22-.578-.329-.984-.329-.387 0-.704.118-.954.344-.25.219-.375.524-.375.906 0 .344.114.641.344.891.227.242.578.36 1.047.36zM1.422-3.47a1.588 1.588 0 0 1-.531-.328c-.243-.25-.36-.566-.36-.953 0-.477.172-.89.516-1.234.351-.352.851-.532 1.5-.532.625 0 1.113.168 1.469.5.351.325.53.704.53 1.141 0 .406-.105.734-.312.984-.117.149-.293.29-.53.422.269.125.476.266.624.422.29.305.438.7.438 1.188a2.01 2.01 0 0 1-.579 1.453c-.386.398-.93.594-1.625.594-.636 0-1.171-.172-1.609-.516-.437-.344-.656-.844-.656-1.5 0-.383.094-.711.281-.984.188-.282.469-.5.844-.657zm0 0"/></symbol><symbol overflow="visible" id="ab"><path d="M1.234-1.578c.02.46.192.773.516.937.164.094.352.141.563.141.394 0 .726-.16 1-.484.28-.32.476-.985.593-1.985-.187.293-.418.496-.687.61a2.073 2.073 0 0 1-.86.171c-.625 0-1.12-.19-1.484-.578C.508-3.16.328-3.664.328-4.28c0-.594.176-1.114.531-1.563.364-.445.899-.672 1.61-.672.945 0 1.597.43 1.953 1.282.195.468.297 1.058.297 1.765 0 .793-.121 1.496-.36 2.11C3.961-.33 3.29.187 2.344.187 1.707.188 1.223.02.89-.313.566-.645.406-1.066.406-1.577zM2.47-2.906c.32 0 .617-.102.89-.313.27-.219.407-.594.407-1.125 0-.476-.121-.832-.36-1.062-.242-.239-.547-.36-.922-.36-.398 0-.714.137-.953.407-.23.261-.343.617-.343 1.062 0 .43.097.766.296 1.016.207.25.536.375.985.375zm0 0"/></symbol><symbol overflow="visible" id="ac"><path d="M1.031-4.797h.953v.984h-.953zm0 3.813h.953V0h-.953zm0 0"/></symbol><symbol overflow="visible" id="aA"><path d="M3.266-.766c.312 0 .562-.03.75-.093a1.76 1.76 0 0 0 .875-.688c.175-.27.3-.613.375-1.031.05-.25.078-.485.078-.703 0-.82-.168-1.461-.5-1.922-.324-.457-.852-.688-1.578-.688h-1.61v5.125zM.75-6.672h2.703c.914 0 1.625.328 2.125.984.457.586.688 1.336.688 2.25 0 .711-.137 1.352-.407 1.922C5.391-.504 4.582 0 3.438 0H.75zm0 0"/></symbol><symbol overflow="visible" id="aB"><path d="M2.625-4.969c.344 0 .676.086 1 .25.32.157.566.367.734.625.164.242.274.528.329.86.05.218.078.574.078 1.062H1.203c.008.492.125.887.344 1.188.219.304.555.453 1.016.453.425 0 .769-.14 1.03-.422.134-.164.235-.36.298-.578h.812a1.65 1.65 0 0 1-.219.61c-.117.218-.25.398-.406.53-.242.243-.547.399-.922.485-.187.05-.406.078-.656.078A2.079 2.079 0 0 1 .953-.484C.535-.93.328-1.551.328-2.344c0-.781.207-1.41.625-1.89.426-.489.985-.735 1.672-.735zm1.297 2.157c-.031-.352-.11-.641-.235-.86-.218-.394-.59-.594-1.109-.594-.375 0-.695.137-.953.407-.25.273-.387.62-.406 1.046zM2.547-4.985zm0 0"/></symbol><symbol overflow="visible" id="aC"><path d="M1.422-4.86v3.22c0 .25.035.452.11.609.144.293.413.437.812.437.57 0 .96-.254 1.172-.765.101-.27.156-.641.156-1.11v-2.39H4.5V0h-.781l.015-.719a1.585 1.585 0 0 1-.39.469c-.313.25-.696.375-1.14.375-.7 0-1.173-.227-1.423-.688-.136-.25-.203-.582-.203-1v-3.296zm1.11-.124zm0 0"/></symbol><symbol overflow="visible" id="aD"><path d="M.766-6.219h.828v1.36h.765v.671h-.765v3.172c0 .168.054.278.172.329.062.042.164.062.312.062h.125c.05-.008.102-.016.156-.016V0c-.093.031-.195.05-.296.063-.094.007-.2.015-.313.015-.387 0-.648-.098-.781-.297C.832-.414.766-.664.766-.969v-3.219H.109v-.671h.657zm0 0"/></symbol><symbol overflow="visible" id="aE"><path d="M1.078-1.531c.031.281.102.492.219.625.195.273.55.406 1.062.406.301 0 .567-.066.797-.203a.662.662 0 0 0 .344-.61.515.515 0 0 0-.266-.468c-.125-.07-.359-.149-.703-.235l-.656-.171c-.418-.102-.719-.22-.906-.344-.356-.219-.531-.524-.531-.922 0-.457.164-.828.5-1.11.332-.28.773-.421 1.328-.421.738 0 1.27.214 1.593.64.196.274.297.563.297.875h-.781a.95.95 0 0 0-.188-.5c-.187-.219-.515-.328-.984-.328-.305 0-.539.063-.703.188a.557.557 0 0 0-.234.468c0 .211.101.375.312.5.125.086.3.153.531.204l.547.124c.582.149.973.29 1.172.422.32.211.485.54.485.985 0 .43-.168.804-.5 1.125-.325.312-.825.469-1.5.469-.72 0-1.231-.165-1.532-.485C.477-.629.316-1.039.297-1.53zm1.219-3.453zm0 0"/></symbol><symbol overflow="visible" id="aF"><path d="M2.469-5c.55 0 1 .137 1.344.406.343.262.55.715.624 1.36h-.796a1.51 1.51 0 0 0-.344-.735c-.168-.195-.445-.297-.828-.297-.524 0-.89.25-1.11.75-.148.336-.218.746-.218 1.235 0 .48.097.886.296 1.219.208.335.536.5.985.5.332 0 .598-.102.797-.313.195-.207.336-.488.422-.844h.796c-.093.649-.324 1.121-.687 1.422-.367.293-.828.438-1.39.438-.637 0-1.15-.227-1.532-.688-.375-.469-.562-1.05-.562-1.75 0-.851.207-1.515.625-1.984A2.004 2.004 0 0 1 2.469-5zm-.125.016zm0 0"/></symbol><symbol overflow="visible" id="aG"><path d="M.594-6.688h.828v2.485c.187-.25.36-.422.516-.516.257-.176.585-.265.984-.265.707 0 1.187.25 1.437.75.133.273.204.64.204 1.109V0h-.844v-3.063c0-.351-.043-.613-.125-.78-.156-.27-.438-.407-.844-.407-.336 0-.64.121-.922.36-.273.23-.406.667-.406 1.312V0H.594zm0 0"/></symbol><symbol overflow="visible" id="aH"/><symbol overflow="visible" id="aI"><path d="M3.219-3.844c.375 0 .672-.054.89-.172.332-.164.5-.46.5-.89 0-.438-.18-.727-.53-.875-.212-.094-.509-.14-.891-.14h-1.61v2.077zm.297 3.078c.55 0 .945-.16 1.187-.484.145-.207.219-.453.219-.734 0-.489-.215-.82-.64-1-.231-.094-.54-.141-.923-.141H1.58v2.36zM.687-6.672h2.86c.781 0 1.336.234 1.672.703.187.274.281.59.281.953 0 .418-.121.762-.36 1.032-.117.148-.292.277-.53.39.343.137.597.281.765.438.3.293.453.695.453 1.203 0 .437-.137.828-.406 1.172C5.023-.258 4.382 0 3.5 0H.687zm0 0"/></symbol><symbol overflow="visible" id="aJ"><path d="M1.219-1.297c0 .242.086.43.265.563a.963.963 0 0 0 .61.203c.289 0 .57-.067.844-.203.445-.22.671-.579.671-1.079v-.656a1.229 1.229 0 0 1-.39.156 3.47 3.47 0 0 1-.453.094l-.5.063c-.293.031-.512.094-.657.187-.261.137-.39.36-.39.672zm1.984-1.656c.188-.02.313-.098.375-.235a.657.657 0 0 0 .063-.312c0-.27-.102-.469-.297-.594-.2-.133-.485-.203-.86-.203-.43 0-.73.121-.906.36-.094.124-.156.312-.187.562H.625c.008-.602.203-1.02.578-1.25a2.36 2.36 0 0 1 1.297-.36c.57 0 1.04.11 1.406.329.352.218.531.558.531 1.015v2.813c0 .086.016.152.047.203.032.055.102.078.22.078h.109c.05-.008.101-.02.156-.031v.594c-.125.039-.227.066-.297.078a2.147 2.147 0 0 1-.266.015c-.281 0-.484-.101-.61-.296a1.017 1.017 0 0 1-.14-.454 2.026 2.026 0 0 1-.719.563 2.273 2.273 0 0 1-1.03.234c-.45 0-.821-.136-1.11-.406C.516-.52.375-.863.375-1.281c0-.446.14-.797.422-1.047.281-.25.648-.399 1.11-.453zm-.672-2.031zm0 0"/></symbol><symbol overflow="visible" id="aK"><path d="M.594-4.86h.781v.688c.227-.281.469-.484.719-.61.258-.124.55-.187.875-.187.687 0 1.148.242 1.39.719.133.262.204.637.204 1.125V0h-.829v-3.063c0-.3-.046-.539-.14-.718-.149-.301-.406-.453-.781-.453-.2 0-.36.023-.485.062a1.179 1.179 0 0 0-.578.39c-.148.169-.242.34-.281.516a4.175 4.175 0 0 0-.047.72V0H.594zm1.922-.124zm0 0"/></symbol><symbol overflow="visible" id="aL"><path d="M.797-6.672h4.86v.828H1.671v2.016h3.687v.765H1.672v2.266h4.047V0H.797zm2.469 0zm0 0"/></symbol><symbol overflow="visible" id="aM"><path d="M.688-6.672h1.296l1.907 5.64 1.906-5.64h1.281V0h-.86v-3.938-.671c.009-.313.016-.649.016-1.016L4.328 0h-.89L1.53-5.625V-4.672c.008.336.016.578.016.734V0h-.86zm0 0"/></symbol><symbol overflow="visible" id="aN"><path d="M.594-4.844h.844V0H.594zm0-1.828h.844v.922H.594zm0 0"/></symbol><symbol overflow="visible" id="aO"><path d="M1.11-2.375c0 .523.109.96.327 1.313.227.343.586.515 1.079.515.375 0 .68-.16.921-.484.25-.32.376-.785.376-1.39 0-.614-.126-1.067-.376-1.36-.25-.301-.562-.453-.937-.453a1.24 1.24 0 0 0-1 .468c-.262.313-.39.778-.39 1.391zm1.234-2.578c.375 0 .687.078.937.234.145.094.313.258.5.485v-2.454h.781V0h-.734v-.672a1.774 1.774 0 0 1-.672.64 1.973 1.973 0 0 1-.906.204C1.707.172 1.238-.051.844-.5.445-.957.25-1.566.25-2.328c0-.707.18-1.32.547-1.844.363-.52.879-.781 1.547-.781zm0 0"/></symbol><symbol overflow="visible" id="aP"><path d="M.625-6.672h.813V0H.625zm0 0"/></symbol><symbol overflow="visible" id="aQ"><path d="M5.563-6.672v.797h-2.25V0H2.39v-5.875H.156v-.797zm0 0"/></symbol><symbol overflow="visible" id="aR"><path d="M.625-4.86h.766v.844c.07-.164.226-.363.468-.593.25-.239.536-.36.86-.36h.078c.039 0 .101.008.187.016v.875a.729.729 0 0 0-.125-.016.774.774 0 0 0-.14-.015c-.406 0-.727.136-.953.406a1.37 1.37 0 0 0-.329.906V0H.625zm0 0"/></symbol><symbol overflow="visible" id="aS"><path d="M.703-6.672h1.078l3.36 5.406v-5.406H6V0H4.984L1.578-5.39V0H.703zm2.594 0zm0 0"/></symbol><symbol overflow="visible" id="aT"><path d="M1.297-2.156c.02.386.11.695.266.922.3.449.832.671 1.593.671.332 0 .64-.05.922-.156.54-.187.813-.52.813-1 0-.363-.118-.625-.344-.781-.23-.145-.59-.273-1.078-.39l-.906-.204c-.594-.133-1.012-.281-1.25-.437-.43-.281-.641-.696-.641-1.25 0-.602.207-1.098.625-1.485.414-.382 1.004-.578 1.766-.578.695 0 1.285.172 1.765.516.488.336.734.871.734 1.61H4.72c-.043-.352-.137-.626-.282-.813-.28-.352-.75-.532-1.406-.532-.531 0-.918.118-1.156.344a1.04 1.04 0 0 0-.344.782c0 .324.133.562.407.718.175.094.582.215 1.218.36l.922.218c.457.106.805.246 1.047.422.426.313.64.766.64 1.36 0 .73-.273 1.257-.812 1.578-.531.312-1.152.469-1.86.469-.835 0-1.484-.208-1.952-.625-.47-.426-.7-1-.688-1.72zm1.828-4.688zm0 0"/></symbol><symbol overflow="visible" id="aU"><path d="M3.516-6.844c.843 0 1.5.227 1.968.672.47.438.727.938.782 1.5h-.891c-.094-.426-.293-.766-.594-1.016-.304-.25-.718-.375-1.25-.375-.656 0-1.187.231-1.594.688-.406.46-.609 1.168-.609 2.125 0 .781.18 1.418.547 1.906.363.48.91.719 1.64.719.657 0 1.16-.254 1.516-.766.188-.27.32-.625.407-1.062h.89c-.086.71-.344 1.297-.781 1.765-.531.575-1.246.86-2.14.86-.782 0-1.434-.234-1.954-.703C.753-1.156.406-2.113.406-3.406c0-.977.258-1.785.781-2.422.563-.676 1.336-1.016 2.329-1.016zm-.172 0zm0 0"/></symbol><symbol overflow="visible" id="aV"><path d="M.797-6.672h4.625v.828H1.703v2.016H4.97v.797H1.703V0H.797zm0 0"/></symbol><symbol overflow="visible" id="ad"><path d="M6.875-8.25v.984H4.094V0H2.969v-7.266H.188v-.984zm0 0"/></symbol><symbol overflow="visible" id="ae"><path d="M.734-5.984h1.032V0H.734zm0-2.266h1.032v1.14H.734zm0 0"/></symbol><symbol overflow="visible" id="af"><path d="M.734-6.016h1v.86c.239-.301.457-.52.657-.657.332-.226.71-.343 1.14-.343.477 0 .864.12 1.156.36.165.136.313.335.438.593.227-.32.492-.563.797-.719.3-.156.644-.234 1.031-.234.8 0 1.348.297 1.64.89.157.313.235.735.235 1.266v4H7.781v-4.172c0-.406-.101-.68-.297-.828a1.156 1.156 0 0 0-.734-.234c-.398 0-.742.136-1.031.406-.282.262-.422.703-.422 1.328V0H4.266v-3.922c0-.406-.047-.703-.141-.89-.156-.282-.445-.422-.86-.422-.386 0-.734.148-1.046.437-.313.293-.469.828-.469 1.61V0H.734zm0 0"/></symbol><symbol overflow="visible" id="ag"><path d="M3.25-6.156c.426 0 .836.105 1.234.312.407.2.711.453.922.766.196.312.332.668.407 1.062.05.282.078.727.078 1.329H1.484c.02.617.164 1.109.438 1.484.27.367.687.547 1.25.547.531 0 .953-.176 1.265-.531.176-.196.301-.43.375-.704h1a2.452 2.452 0 0 1-.265.75 2.341 2.341 0 0 1-.5.657 2.298 2.298 0 0 1-1.14.609 3.247 3.247 0 0 1-.813.094c-.75 0-1.387-.27-1.906-.813C.663-1.144.405-1.91.405-2.89c0-.968.258-1.754.781-2.359.532-.602 1.22-.906 2.063-.906zm1.61 2.672c-.044-.438-.137-.786-.282-1.047-.281-.489-.746-.735-1.39-.735-.47 0-.86.168-1.172.5-.313.336-.48.762-.5 1.282zM3.155-6.156zm0 0"/></symbol><symbol overflow="visible" id="at"><path d="M.766-6.016h.968v1.047c.07-.207.258-.457.563-.75.312-.289.672-.437 1.078-.437.008 0 .035.008.078.015.05 0 .129.008.235.016v1.078a.463.463 0 0 0-.157-.031H3.36c-.511 0-.902.168-1.171.5a1.69 1.69 0 0 0-.407 1.125V0H.766zm0 0"/></symbol><symbol overflow="visible" id="au"><path d="M1.516-1.594c0 .293.101.524.312.688.219.168.473.25.766.25a2.28 2.28 0 0 0 1.031-.25c.563-.27.844-.719.844-1.344v-.813c-.125.086-.29.153-.485.204-.187.054-.375.09-.562.109l-.61.078c-.374.055-.652.133-.828.235-.312.18-.468.46-.468.843zM3.969-3.64c.226-.03.383-.129.469-.296a1.03 1.03 0 0 0 .062-.391c0-.344-.125-.594-.375-.75-.242-.156-.59-.234-1.047-.234-.531 0-.906.148-1.125.437-.125.156-.203.39-.234.703H.766c.02-.75.257-1.266.718-1.547a3.002 3.002 0 0 1 1.61-.437c.707 0 1.285.136 1.734.406.438.273.656.688.656 1.25v3.469c0 .105.02.187.063.25.039.062.129.094.266.094h.156l.187-.032v.75a5.13 5.13 0 0 1-.375.078 3.147 3.147 0 0 1-.328.016c-.344 0-.601-.121-.766-.36a1.746 1.746 0 0 1-.171-.562c-.2.274-.493.508-.875.703a2.8 2.8 0 0 1-1.282.297c-.562 0-1.023-.168-1.375-.5a1.706 1.706 0 0 1-.53-1.281c0-.563.171-.992.515-1.297.351-.3.816-.488 1.39-.563zm-.844-2.515zm0 0"/></symbol><symbol overflow="visible" id="av"><path d="M.734-6.016h.97v.86c.28-.352.577-.61.89-.766.32-.156.68-.234 1.078-.234.851 0 1.426.304 1.719.906.164.324.25.79.25 1.39V0H4.609v-3.797c0-.363-.054-.656-.156-.875-.18-.375-.508-.562-.984-.562-.242 0-.434.023-.578.062-.282.086-.528.25-.735.5a1.49 1.49 0 0 0-.328.625c-.055.211-.078.508-.078.89V0H.734zm2.375-.14zm0 0"/></symbol><symbol overflow="visible" id="aw"/><symbol overflow="visible" id="ax"><path d="M3.125-.656c.676 0 1.133-.25 1.375-.75.25-.508.375-1.078.375-1.703 0-.563-.09-1.016-.266-1.36-.28-.562-.773-.843-1.468-.843-.618 0-1.063.242-1.344.718-.281.469-.422 1.04-.422 1.703 0 .637.14 1.168.422 1.594.281.43.723.64 1.328.64zm.047-5.532c.77 0 1.422.262 1.953.782.54.511.813 1.265.813 2.265 0 .98-.243 1.79-.72 2.422C4.75-.094 4.02.22 3.032.22c-.824 0-1.48-.274-1.969-.828C.57-1.172.329-1.926.329-2.875c0-1.008.254-1.813.766-2.406.52-.602 1.21-.907 2.078-.907zm-.031.032zm0 0"/></symbol><symbol overflow="visible" id="ay"><path d="M3.281-.672c.469 0 .86-.195 1.172-.594.313-.394.469-.988.469-1.78 0-.477-.07-.892-.203-1.235-.262-.657-.742-.985-1.438-.985-.699 0-1.18.352-1.437 1.047-.137.375-.203.852-.203 1.422 0 .469.066.867.203 1.188.258.625.738.937 1.437.937zM.656-5.984h.985v.796c.207-.269.43-.484.671-.64.333-.219.735-.328 1.204-.328.675 0 1.25.261 1.718.781.477.523.72 1.266.72 2.234 0 1.313-.34 2.25-1.016 2.813a2.359 2.359 0 0 1-1.516.531c-.461 0-.84-.101-1.14-.297-.188-.113-.391-.304-.61-.578v3.063H.656zm0 0"/></symbol><symbol overflow="visible" id="az"><path d="M.938-7.688h1.03v1.672h.954v.829h-.953v3.921c0 .211.066.352.203.422.082.043.219.063.406.063h.14c.063 0 .13-.004.204-.016V0c-.117.031-.235.05-.36.063a2.64 2.64 0 0 1-.406.03c-.469 0-.793-.116-.969-.359-.167-.238-.25-.55-.25-.937v-3.984H.125v-.829h.813zm0 0"/></symbol><symbol overflow="visible" id="ah"><path d="M-8.25-6.875h.984v2.781H0v1.125h-7.266v2.781h-.984zm0 0"/></symbol><symbol overflow="visible" id="ai"><path d="M-5.984-.734v-1.032H0v1.032zm-2.266 0v-1.032h1.14v1.032zm0 0"/></symbol><symbol overflow="visible" id="aj"><path d="M-6.188-3.063c0-.675.168-1.222.5-1.64.325-.426.887-.688 1.688-.781v.984a1.762 1.762 0 0 0-.906.422c-.25.21-.375.547-.375 1.016 0 .648.312 1.109.937 1.39.407.18.914.266 1.516.266.605 0 1.117-.125 1.531-.375.406-.258.61-.664.61-1.219 0-.414-.125-.742-.375-.984-.258-.25-.614-.422-1.063-.516v-.984c.793.117 1.375.398 1.75.843.367.45.547 1.024.547 1.72 0 .792-.285 1.421-.86 1.89-.57.468-1.289.703-2.156.703-1.05 0-1.867-.254-2.453-.766-.594-.52-.89-1.176-.89-1.968zm.032.157zm0 0"/></symbol><symbol overflow="visible" id="ak"><path d="M-8.25-.719v-.969h4.797L-6.016-4.28v-1.297l2.25 2.297L0-5.703v1.297l-3.031 1.875.781.844H0v.968zm0 0"/></symbol><symbol overflow="visible" id="al"><path d="M-6.156-3.25c0-.426.105-.836.312-1.234.2-.407.453-.711.766-.922a3.054 3.054 0 0 1 1.062-.407c.282-.05.727-.078 1.329-.078v4.407c.617-.02 1.109-.164 1.484-.438.367-.27.547-.687.547-1.25 0-.531-.176-.953-.531-1.265-.196-.176-.43-.301-.704-.375v-1c.22.03.47.12.75.265.274.149.493.313.657.5.304.305.504.684.609 1.14.063.243.094.512.094.813 0 .75-.27 1.387-.813 1.906-.55.524-1.316.782-2.297.782-.968 0-1.754-.258-2.359-.781-.602-.532-.906-1.22-.906-2.063zm2.672-1.61c-.438.044-.786.137-1.047.282-.489.281-.735.746-.735 1.39 0 .47.168.86.5 1.172.336.313.762.48 1.282.5zm-2.672 1.704zm0 0"/></symbol><symbol overflow="visible" id="am"><path d="M-7.688-.938v-1.03h1.672v-.954h.829v.953h3.921c.211 0 .352-.066.422-.203.043-.082.063-.219.063-.406v-.14c0-.063-.004-.13-.016-.204H0c.031.117.05.235.063.36.019.124.03.261.03.406 0 .469-.116.793-.359.969-.238.167-.55.25-.937.25h-3.984v.812h-.829v-.813zm0 0"/></symbol><symbol overflow="visible" id="an"/><symbol overflow="visible" id="ao"><path d="M-.656-3.125c0-.676-.25-1.133-.75-1.375a3.812 3.812 0 0 0-1.703-.375c-.563 0-1.016.09-1.36.266-.562.28-.843.773-.843 1.468 0 .618.242 1.063.718 1.344.469.281 1.04.422 1.703.422.637 0 1.168-.14 1.594-.422.43-.281.64-.723.64-1.328zm-5.532-.047c0-.77.262-1.422.782-1.953.511-.54 1.265-.813 2.265-.813.98 0 1.79.243 2.422.72.625.468.938 1.198.938 2.187 0 .824-.274 1.48-.828 1.969-.563.492-1.317.734-2.266.734-1.008 0-1.813-.254-2.406-.766-.602-.52-.907-1.21-.907-2.078zm.032.031zm0 0"/></symbol><symbol overflow="visible" id="ap"><path d="M-1.89-1.344c.343-.031.605-.113.78-.25.325-.258.485-.703.485-1.328 0-.375-.078-.703-.234-.984-.164-.281-.422-.422-.766-.422A.66.66 0 0 0-2.219-4c-.082.148-.176.438-.281.875l-.203.797c-.125.512-.266.89-.422 1.14-.27.43-.648.641-1.14.641-.563 0-1.02-.203-1.376-.61-.351-.405-.53-.956-.53-1.655 0-.907.265-1.555.796-1.954.336-.25.7-.367 1.094-.359v.953c-.227.012-.438.09-.625.234-.27.231-.407.633-.407 1.204 0 .386.075.68.22.875.148.199.34.296.577.296.274 0 .485-.128.641-.39.094-.145.172-.363.234-.656l.172-.672c.18-.727.352-1.219.516-1.469.25-.383.656-.578 1.219-.578.53 0 .996.203 1.39.61.383.405.578 1.023.578 1.843 0 .898-.203 1.531-.609 1.906-.406.375-.91.574-1.516.594zm-4.266-1.484zm0 0"/></symbol><symbol overflow="visible" id="aq"><path d="M-8.39-3.406c1.148.594 1.992.98 2.53 1.156.825.262 1.774.39 2.844.39 1.086 0 2.075-.148 2.97-.452.55-.188 1.347-.555 2.39-1.11v.688C1.488-2.191.94-1.852.704-1.72c-.231.125-.548.266-.954.422a7.739 7.739 0 0 1-2.703.5c-1.102 0-2.086-.172-2.953-.515-.551-.227-1.38-.692-2.485-1.391zm0 0"/></symbol><symbol overflow="visible" id="ar"><path d="M-2.938-.547l-.796-.234v-1.094a6.475 6.475 0 0 1-.891 0v1.328l-.797-.234V-1.97c-.687-.125-1.281-.36-1.781-.703-.844-.582-1.266-1.39-1.266-2.422 0-.875.278-1.55.828-2.031a3.158 3.158 0 0 1 1.875-.828v.922c-.53.105-.953.312-1.265.625-.313.304-.469.734-.469 1.297 0 .687.29 1.242.86 1.656.312.23.718.398 1.218.5v-3.14l.797.25v3c.188.011.39.015.61.015h.28v-3.266l.797.25v2.922c.493-.082.915-.238 1.266-.469.606-.375.906-.941.906-1.703 0-.687-.316-1.21-.953-1.578-.332-.187-.77-.328-1.312-.422v-.922c.867.086 1.594.356 2.187.813C-.133-6.648.22-5.906.22-4.97c0 .805-.29 1.477-.875 2.016-.551.523-1.313.855-2.281 1zm0 0"/></symbol><symbol overflow="visible" id="as"><path d="M2.344-.406C1.188-1 .344-1.38-.187-1.546c-.801-.259-1.743-.391-2.829-.391-1.082 0-2.07.152-2.968.453-.563.187-1.364.558-2.407 1.109v-.688c.93-.57 1.5-.921 1.72-1.046.21-.125.5-.254.874-.391a6.585 6.585 0 0 1 1.39-.39c.462-.07.903-.11 1.329-.11 1.105 0 2.09.18 2.953.531.563.219 1.383.68 2.469 1.375zm0 0"/></symbol><symbol overflow="visible" id="aW"><path d="M5.188-10.094c1.238 0 2.203.328 2.89.985.688.656 1.07 1.402 1.156 2.234H7.922c-.149-.633-.438-1.133-.875-1.5-.438-.375-1.055-.563-1.844-.563-.969 0-1.758.344-2.36 1.032-.593.68-.89 1.715-.89 3.11 0 1.155.27 2.093.813 2.812.539.71 1.343 1.062 2.406 1.062.976 0 1.723-.375 2.234-1.125.282-.394.485-.914.61-1.562h1.312c-.125 1.03-.512 1.898-1.156 2.593C7.39-.172 6.336.25 5.016.25 3.867.25 2.91-.094 2.14-.781 1.117-1.695.609-3.11.609-5.016c0-1.445.38-2.632 1.141-3.562.832-1.008 1.977-1.516 3.438-1.516zm-.266 0zm0 0"/></symbol><symbol overflow="visible" id="aX"><path d="M3.734-.781c.79 0 1.332-.301 1.625-.906.301-.602.454-1.274.454-2.016 0-.664-.106-1.207-.313-1.625-.344-.664-.934-1-1.766-1-.73 0-1.265.281-1.609.844-.336.562-.5 1.242-.5 2.03 0 .774.164 1.415.5 1.923.344.5.879.75 1.61.75zm.047-6.594c.914 0 1.692.309 2.328.922.645.617.97 1.523.97 2.719 0 1.156-.282 2.117-.845 2.875C5.672-.11 4.797.266 3.61.266c-.98 0-1.761-.332-2.343-1C.68-1.398.39-2.297.39-3.422c0-1.207.304-2.164.921-2.875.614-.719 1.438-1.078 2.47-1.078zm-.047.031zm0 0"/></symbol><symbol overflow="visible" id="aY"><path d="M1.594-2.25c.039.406.144.715.312.922.301.387.828.578 1.578.578.438 0 .829-.094 1.172-.281.344-.196.516-.5.516-.907 0-.3-.14-.535-.422-.703-.168-.093-.508-.207-1.016-.343l-.968-.235c-.606-.156-1.055-.328-1.344-.515-.524-.32-.781-.77-.781-1.344 0-.676.242-1.223.734-1.64.488-.427 1.145-.641 1.969-.641 1.082 0 1.863.32 2.344.953.289.406.43.84.421 1.297H4.984a1.498 1.498 0 0 0-.296-.735c-.274-.32-.75-.484-1.438-.484-.46 0-.809.09-1.047.266a.83.83 0 0 0-.344.687c0 .313.157.563.47.75.175.117.44.215.796.297l.797.187c.863.211 1.441.414 1.734.61.469.312.703.797.703 1.453 0 .637-.246 1.187-.734 1.656-.48.469-1.215.703-2.203.703C2.348.281 1.586.04 1.14-.438.703-.925.469-1.53.437-2.25zm1.781-5.094zm0 0"/></symbol><symbol overflow="visible" id="aZ"><path d="M1.125-9.172h1.219v2h1.14v.984h-1.14V-1.5c0 .25.082.418.25.5.094.043.25.063.469.063h.187c.07 0 .148-.004.234-.016V0c-.136.04-.28.066-.437.078-.149.02-.309.031-.485.031-.562 0-.945-.14-1.14-.421-.2-.29-.297-.665-.297-1.125v-4.75H.156v-.985h.969zm0 0"/></symbol><symbol overflow="visible" id="ba"/><symbol overflow="visible" id="bb"><path d="M1.188-8.25c.019-.5.101-.867.25-1.11.28-.406.828-.609 1.64-.609.07 0 .145.008.219.016.082 0 .176.008.281.015v1.094c-.125-.008-.219-.015-.281-.015h-.14c-.368 0-.587.093-.657.28-.074.188-.11.673-.11 1.454h1.188v.938H2.375V0H1.187v-6.188h-1v-.937h1zm0 0"/></symbol><symbol overflow="visible" id="bc"><path d="M.89-7.125h1.22V0H.89zm0-2.703h1.22v1.36H.89zm0 0"/></symbol><symbol overflow="visible" id="bd"><path d="M.89-7.172h1.141v1.016c.332-.414.688-.711 1.063-.89a2.882 2.882 0 0 1 1.281-.282c1.008 0 1.695.355 2.063 1.062.187.387.28.946.28 1.672V0H5.5v-4.516c0-.437-.063-.789-.188-1.062-.218-.445-.609-.672-1.171-.672-.282 0-.516.031-.704.094-.335.093-.624.293-.874.593-.2.231-.329.477-.391.735-.055.25-.078.61-.078 1.078V0H.89zm2.829-.172zm0 0"/></symbol><symbol overflow="visible" id="be"><path d="M3.406-7.297c.563 0 1.055.14 1.485.422.218.156.445.383.687.672v-.89h1.11v6.515c0 .906-.133 1.625-.391 2.156-.5.969-1.45 1.453-2.844 1.453-.773 0-1.422-.172-1.953-.515C.977 2.172.687 1.629.625.89h1.234c.051.32.164.566.344.734.27.27.695.406 1.281.406.926 0 1.532-.324 1.813-.969C5.46.676 5.539-.008 5.53-1a2.45 2.45 0 0 1-.875.828c-.336.176-.781.266-1.343.266-.774 0-1.45-.274-2.032-.828C.695-1.285.406-2.195.406-3.47c0-1.195.29-2.133.875-2.812.594-.676 1.301-1.016 2.125-1.016zm2.172 3.688c0-.883-.183-1.54-.547-1.97-.367-.437-.828-.655-1.39-.655-.856 0-1.438.402-1.75 1.203-.168.418-.25.968-.25 1.656 0 .813.16 1.434.484 1.86.332.417.773.624 1.328.624.863 0 1.473-.39 1.828-1.171.196-.446.297-.961.297-1.547zM3.547-7.344zm0 0"/></symbol><symbol overflow="visible" id="bf"><path d="M.922-9.828h1.203V0H.922zm0 0"/></symbol><symbol overflow="visible" id="bg"><path d="M3.875-7.328c.5 0 .988.121 1.469.36.476.241.843.546 1.093.921.239.367.399.79.485 1.266.07.336.11.86.11 1.578H1.765c.03.73.203 1.312.515 1.75.32.437.82.656 1.5.656.625 0 1.125-.203 1.5-.61.219-.238.367-.519.453-.843h1.188c-.031.262-.137.555-.313.875-.18.324-.375.59-.593.797-.368.355-.82.594-1.36.719-.281.07-.605.109-.968.109-.899 0-1.657-.32-2.282-.969C.79-1.363.484-2.273.484-3.453c0-1.145.313-2.078.938-2.797.625-.719 1.441-1.078 2.453-1.078zm1.906 3.172c-.043-.52-.152-.938-.328-1.25-.336-.582-.887-.875-1.656-.875-.555 0-1.016.203-1.39.61-.376.398-.575.901-.595 1.515zM3.75-7.344zm0 0"/></symbol><symbol overflow="visible" id="bh"><path d="M.922-7.172h1.14v1.25c.094-.25.32-.547.688-.89a1.785 1.785 0 0 1 1.266-.516c.02 0 .054.008.109.016.05 0 .145.007.281.015v1.281a.805.805 0 0 0-.203-.03 1.517 1.517 0 0 0-.187-.016c-.618 0-1.086.199-1.407.593a2.03 2.03 0 0 0-.484 1.344V0H.922zm0 0"/></symbol><symbol overflow="visible" id="bi"><path d="M1.813-1.906c0 .343.125.62.375.828.25.2.55.297.906.297.426 0 .836-.098 1.234-.297.664-.32 1-.852 1-1.594v-.969c-.148.094-.34.172-.578.235-.23.062-.453.105-.672.125l-.734.094c-.438.062-.766.156-.985.28-.367.212-.546.544-.546 1zm2.906-2.438c.281-.031.468-.144.562-.343.051-.102.078-.258.078-.47 0-.405-.148-.702-.437-.89-.293-.187-.711-.281-1.25-.281-.637 0-1.086.172-1.344.516-.148.187-.242.464-.281.828H.922c.02-.875.305-1.485.86-1.829.55-.351 1.187-.53 1.905-.53.844 0 1.532.163 2.063.484.52.324.781.824.781 1.5v4.125c0 .125.024.23.078.312.051.074.16.11.329.11.05 0 .109-.004.171-.016.07-.008.145-.02.22-.031v.89a3.23 3.23 0 0 1-.438.094c-.094.02-.227.031-.391.031-.418 0-.719-.148-.906-.437-.094-.156-.164-.38-.203-.672-.25.324-.606.605-1.063.844-.46.226-.965.343-1.516.343-.667 0-1.214-.199-1.64-.593C.754-.766.547-1.27.547-1.875c0-.664.207-1.18.625-1.547.414-.363.957-.594 1.625-.687zm-.985-3zm0 0"/></symbol><symbol overflow="visible" id="bj"><path d="M3.64-7.375c.813 0 1.47.2 1.97.594.507.386.816 1.062.921 2.031H5.36c-.074-.445-.242-.816-.5-1.11-.25-.288-.656-.437-1.218-.437-.762 0-1.309.375-1.641 1.125-.219.492-.328 1.09-.328 1.797 0 .719.148 1.324.453 1.813.313.492.79.734 1.438.734.5 0 .894-.149 1.187-.453.29-.301.492-.719.61-1.25H6.53c-.136.949-.476 1.64-1.015 2.078-.532.437-1.215.656-2.047.656-.938 0-1.688-.336-2.25-1.016C.664-1.5.39-2.359.39-3.39c0-1.25.304-2.222.921-2.921.614-.708 1.391-1.063 2.329-1.063zm-.187.031zm0 0"/></symbol><symbol overflow="visible" id="bk"><path d="M.86-9.828h1.156v5.703l3.093-3.047h1.532L3.906-4.484 6.796 0h-1.53L3.03-3.61l-1.015.922V0H.859zm0 0"/></symbol><symbol overflow="visible" id="bl"><path d="M1.469-7.172L3.39-1.328l2-5.844h1.312L4 0H2.719L.079-7.172zm0 0"/></symbol><symbol overflow="visible" id="bm"><path d="M1.172-9.828h7.172v1.203H2.469v2.984H7.89V-4.5H2.469v3.328h5.969V0H1.171zm3.625 0zm0 0"/></symbol><symbol overflow="visible" id="bn"><path d="M2.094-7.172v4.766c0 .367.054.664.172.89.207.43.601.641 1.187.641.844 0 1.414-.375 1.719-1.125.164-.395.25-.941.25-1.64v-3.532h1.203V0h-1.14L5.5-1.063c-.156.274-.352.5-.578.688C4.46 0 3.906.188 3.25.188c-1.023 0-1.719-.336-2.094-1.016C.957-1.191.86-1.68.86-2.297v-4.875zm1.64-.172zm0 0"/></symbol><symbol overflow="visible" id="bo"><path d="M3.906-.813c.563 0 1.031-.234 1.406-.703.375-.468.563-1.171.563-2.109 0-.57-.086-1.063-.25-1.469-.313-.789-.887-1.187-1.719-1.187-.836 0-1.406.418-1.719 1.25-.156.449-.234 1.015-.234 1.703 0 .555.078 1.023.234 1.406.313.742.883 1.11 1.72 1.11zM.796-7.125h1.157v.938c.25-.32.516-.57.797-.75.406-.27.883-.407 1.438-.407.812 0 1.5.313 2.062.938.563.625.844 1.515.844 2.672 0 1.562-.407 2.68-1.219 3.343a2.837 2.837 0 0 1-1.813.625c-.53 0-.984-.117-1.359-.343-.21-.133-.445-.364-.703-.688V2.86H.797zm0 0"/></symbol><symbol overflow="visible" id="bp"><path d="M1.172-9.828h6.812v1.203H2.5v2.984h4.828v1.172H2.5V0H1.172zm0 0"/></symbol><symbol overflow="visible" id="bq"><path d="M1.64-3.5c0 .773.16 1.418.485 1.938.332.511.86.765 1.578.765.55 0 1.004-.238 1.36-.719.363-.476.546-1.164.546-2.062 0-.906-.187-1.578-.562-2.016-.367-.437-.82-.656-1.36-.656a1.83 1.83 0 0 0-1.484.703c-.375.469-.562 1.152-.562 2.047zm1.813-3.797c.55 0 1.016.121 1.39.36.208.125.446.355.72.687v-3.61h1.156V0H5.64v-1c-.282.45-.618.773-1 .969A2.97 2.97 0 0 1 3.328.25c-.805 0-1.496-.332-2.078-1C.664-1.426.375-2.32.375-3.438c0-1.039.266-1.94.797-2.703.531-.77 1.289-1.156 2.281-1.156zm0 0"/></symbol><symbol overflow="visible" id="br"><path d="M5.36-7.172h1.327c-.167.461-.542 1.512-1.125 3.156-.437 1.23-.804 2.23-1.093 3-.7 1.832-1.196 2.946-1.485 3.344-.28.406-.773.61-1.468.61-.168 0-.297-.012-.391-.032a2.774 2.774 0 0 1-.328-.062V1.75c.207.05.36.082.453.094.094.02.172.031.234.031.227 0 .395-.04.5-.11.102-.074.192-.167.266-.28.02-.032.098-.215.234-.548.145-.324.25-.57.313-.734L.14-7.172H1.5l1.922 5.844zm-1.938-.172zm0 0"/></symbol><symbol overflow="visible" id="bs"><path d="M4.813-1.14c.457 0 .828-.048 1.109-.141.52-.164.945-.5 1.281-1 .258-.395.445-.906.563-1.531.07-.364.109-.708.109-1.032 0-1.218-.246-2.16-.734-2.828-.48-.676-1.262-1.016-2.344-1.016h-2.36v7.547zM1.108-9.829h3.97c1.35 0 2.405.48 3.155 1.437.664.868 1 1.977 1 3.329 0 1.042-.199 1.984-.593 2.828C7.94-.742 6.754 0 5.078 0H1.11zm0 0"/></symbol><symbol overflow="visible" id="bt"><path d="M.89-7.172h1.188v1.016c.281-.344.535-.598.766-.766.406-.27.86-.406 1.36-.406.57 0 1.03.14 1.374.422.195.156.375.39.531.703.27-.375.582-.656.938-.844a2.648 2.648 0 0 1 1.234-.281c.957 0 1.614.351 1.969 1.047.188.375.281.883.281 1.515V0h-1.25v-4.984c0-.47-.12-.79-.36-.97a1.381 1.381 0 0 0-.874-.28c-.48 0-.89.164-1.235.484-.335.313-.5.84-.5 1.578V0H5.079v-4.672c0-.488-.058-.844-.172-1.062-.18-.344-.515-.516-1.015-.516-.461 0-.875.18-1.25.531-.368.356-.547.996-.547 1.922V0H.89zm0 0"/></symbol><symbol overflow="visible" id="bu"><path d="M.797-9.86h1.156v3.563c.27-.344.586-.601.953-.781a2.547 2.547 0 0 1 1.188-.281c.894 0 1.617.308 2.172.921.55.618.828 1.524.828 2.72 0 1.136-.278 2.077-.828 2.827C5.723-.14 4.969.234 4 .234c-.555 0-1.016-.136-1.39-.406-.22-.156-.454-.406-.704-.75V0H.796zM3.922-.843c.644 0 1.129-.254 1.453-.765.332-.52.5-1.204.5-2.047 0-.758-.168-1.383-.5-1.875-.324-.5-.797-.75-1.422-.75-.555 0-1.039.203-1.453.61-.406.405-.61 1.077-.61 2.015 0 .668.083 1.215.25 1.64.32.782.915 1.172 1.782 1.172zm0 0"/></symbol><symbol overflow="visible" id="bv"><path d="M.422 0c.05-.82.223-1.54.516-2.156.3-.614.878-1.172 1.734-1.672l1.297-.735c.57-.332.972-.617 1.203-.859.363-.363.547-.785.547-1.266 0-.562-.168-1.003-.5-1.328-.336-.332-.782-.5-1.344-.5-.824 0-1.39.313-1.703.938-.18.336-.274.797-.281 1.39H.656c.02-.832.176-1.507.469-2.03.52-.927 1.441-1.391 2.766-1.391 1.093 0 1.89.296 2.39.89.508.594.766 1.25.766 1.969 0 .773-.266 1.43-.797 1.969-.313.324-.875.71-1.688 1.156l-.921.5c-.438.25-.782.484-1.032.703-.437.387-.718.813-.843 1.281H7V0zm0 0"/></symbol><symbol overflow="visible" id="bw"><path d="M3.563.266c-1.137 0-1.961-.313-2.47-.938C.583-1.297.329-2.05.329-2.937h1.25c.063.617.18 1.062.36 1.343.312.5.875.75 1.687.75.633 0 1.145-.164 1.531-.5a1.69 1.69 0 0 0 .578-1.312c0-.656-.203-1.114-.609-1.375-.406-.27-.969-.407-1.688-.407-.085 0-.167.008-.25.016h-.25v-1.062c.126.011.227.023.313.03h.281c.446 0 .817-.07 1.11-.218.507-.25.765-.691.765-1.328 0-.477-.172-.848-.515-1.11a1.874 1.874 0 0 0-1.172-.39c-.805 0-1.36.273-1.672.813-.168.292-.262.71-.281 1.25H.562c0-.708.145-1.313.438-1.813.488-.895 1.352-1.344 2.594-1.344.969 0 1.719.219 2.25.656.539.43.812 1.06.812 1.891 0 .586-.156 1.059-.468 1.422-.2.23-.454.414-.766.547.5.137.89.402 1.172.797.289.398.437.875.437 1.437 0 .918-.304 1.668-.906 2.25-.605.574-1.46.86-2.563.86zm0 0"/></symbol><symbol overflow="visible" id="bx"><path d="M3.703-9.578c1.238 0 2.133.512 2.688 1.531.425.793.64 1.875.64 3.25 0 1.305-.195 2.375-.578 3.219C5.891-.348 4.973.266 3.703.266c-1.156 0-2.015-.5-2.578-1.5-.469-.832-.703-1.954-.703-3.36 0-1.093.14-2.031.422-2.812.531-1.446 1.484-2.172 2.86-2.172zM3.688-.844c.624 0 1.117-.273 1.484-.828.375-.55.562-1.578.562-3.078 0-1.094-.136-1.988-.406-2.688C5.066-8.145 4.551-8.5 3.781-8.5c-.71 0-1.23.336-1.562 1-.324.668-.485 1.652-.485 2.953 0 .98.102 1.766.313 2.36.32.898.867 1.343 1.64 1.343zm0 0"/></symbol><symbol overflow="visible" id="by"><path d="M1.313-6.781v-.922c.863-.082 1.468-.223 1.812-.422.344-.207.602-.68.781-1.422h.938V0H3.562v-6.781zm0 0"/></symbol><symbol overflow="visible" id="bz"><path d="M4.016-9.625c1.062 0 1.8.281 2.218.844.426.554.641 1.12.641 1.703H5.687c-.074-.375-.187-.672-.343-.89-.293-.395-.73-.595-1.313-.595-.68 0-1.215.313-1.61.938-.398.617-.616 1.508-.655 2.672.27-.406.613-.711 1.03-.922a3.078 3.078 0 0 1 1.298-.266c.8 0 1.5.262 2.093.782.594.511.891 1.273.891 2.28 0 .876-.281 1.653-.844 2.329-.562.668-1.37 1-2.421 1-.899 0-1.672-.336-2.329-1.016C.836-1.453.516-2.598.516-4.203c0-1.195.144-2.207.437-3.031.55-1.594 1.57-2.391 3.063-2.391zM3.922-.828c.633 0 1.11-.207 1.422-.625.312-.426.468-.93.468-1.516 0-.488-.14-.953-.421-1.39-.282-.446-.793-.672-1.532-.672-.523 0-.98.172-1.375.515-.386.336-.578.852-.578 1.547 0 .606.176 1.117.532 1.531.363.407.859.61 1.484.61zm0 0"/></symbol><clipPath id="a"><path d="M42.2 38.813H442V257H42.2zm0 0"/></clipPath><clipPath id="b"><path d="M42.2 256H442v1.953H42.2zm0 0"/></clipPath><clipPath id="c"><path d="M42.2 245H442v2H42.2zm0 0"/></clipPath><clipPath id="d"><path d="M42.2 223H442v2H42.2zm0 0"/></clipPath><clipPath id="e"><path d="M42.2 202H442v1H42.2zm0 0"/></clipPath><clipPath id="f"><path d="M42.2 180H442v1H42.2zm0 0"/></clipPath><clipPath id="g"><path d="M42.2 158H442v2H42.2zm0 0"/></clipPath><clipPath id="h"><path d="M42.2 136H442v2H42.2zm0 0"/></clipPath><clipPath id="i"><path d="M42.2 114H442v2H42.2zm0 0"/></clipPath><clipPath id="j"><path d="M42.2 92H442v2H42.2zm0 0"/></clipPath><clipPath id="k"><path d="M42.2 71H442v1H42.2zm0 0"/></clipPath><clipPath id="l"><path d="M42.2 49H442v2H42.2zm0 0"/></clipPath><clipPath id="m"><path d="M76 38.813h2v219.14h-2zm0 0"/></clipPath><clipPath id="n"><path d="M114 38.813h2v219.14h-2zm0 0"/></clipPath><clipPath id="o"><path d="M152 38.813h2v219.14h-2zm0 0"/></clipPath><clipPath id="p"><path d="M190 38.813h2v219.14h-2zm0 0"/></clipPath><clipPath id="q"><path d="M228 38.813h1v219.14h-1zm0 0"/></clipPath><clipPath id="r"><path d="M266 38.813h1v219.14h-1zm0 0"/></clipPath><clipPath id="s"><path d="M304 38.813h1v219.14h-1zm0 0"/></clipPath><clipPath id="t"><path d="M342 38.813h1v219.14h-1zm0 0"/></clipPath><clipPath id="u"><path d="M380 38.813h1v219.14h-1zm0 0"/></clipPath><clipPath id="v"><path d="M418 38.813h1v219.14h-1zm0 0"/></clipPath><clipPath id="w"><path d="M42.2 234h400.402v2H42.199zm0 0"/></clipPath><clipPath id="x"><path d="M42.2 212h400.402v3H42.199zm0 0"/></clipPath><clipPath id="y"><path d="M42.2 190h400.402v3H42.199zm0 0"/></clipPath><clipPath id="z"><path d="M42.2 168h400.402v3H42.199zm0 0"/></clipPath><clipPath id="A"><path d="M42.2 147h400.402v2H42.199zm0 0"/></clipPath><clipPath id="B"><path d="M42.2 125h400.402v2H42.199zm0 0"/></clipPath><clipPath id="C"><path d="M42.2 103h400.402v2H42.199zm0 0"/></clipPath><clipPath id="D"><path d="M42.2 81h400.402v3H42.199zm0 0"/></clipPath><clipPath id="E"><path d="M42.2 59h400.402v3H42.199zm0 0"/></clipPath><clipPath id="F"><path d="M42.2 38.813h400.402V40H42.199zm0 0"/></clipPath><clipPath id="G"><path d="M57 38.813h2v219.14h-2zm0 0"/></clipPath><clipPath id="H"><path d="M95 38.813h2v219.14h-2zm0 0"/></clipPath><clipPath id="I"><path d="M133 38.813h2v219.14h-2zm0 0"/></clipPath><clipPath id="J"><path d="M170 38.813h3v219.14h-3zm0 0"/></clipPath><clipPath id="K"><path d="M208 38.813h3v219.14h-3zm0 0"/></clipPath><clipPath id="L"><path d="M246 38.813h3v219.14h-3zm0 0"/></clipPath><clipPath id="M"><path d="M284 38.813h3v219.14h-3zm0 0"/></clipPath><clipPath id="N"><path d="M322 38.813h3v219.14h-3zm0 0"/></clipPath><clipPath id="O"><path d="M360 38.813h3v219.14h-3zm0 0"/></clipPath><clipPath id="P"><path d="M398 38.813h3v219.14h-3zm0 0"/></clipPath><clipPath id="Q"><path d="M436 38.813h3v219.14h-3zm0 0"/></clipPath><clipPath id="R"><path d="M42.2 38.813h400.402v219.14H42.199zm0 0"/></clipPath></defs><g><path fill="rgb(100%,100%,100%)" d="M0 0H576V288H0z"/><path d="M0 0h576v288H0zm0 0" fill="none" stroke-width="1.422638" stroke-linecap="round" stroke-linejoin="round" stroke="rgb(100%,100%,100%)" stroke-miterlimit="10"/><g clip-path="url(#a)"><path d="M42.2 38.813h399.402v218.14H42.199zm0 0" fill="rgb(100%,100%,100%)"/></g><g clip-path="url(#b)"><path d="M42.2 256.953h399.398" fill="none" stroke-width="0.711319" stroke-linejoin="round" stroke="rgb(92.156863%,92.156863%,92.156863%)" stroke-miterlimit="10"/></g><g clip-path="url(#c)"><path d="M42.2 246.047h399.398" fill="none" stroke-width="0.711319" stroke-linejoin="round" stroke="rgb(92.156863%,92.156863%,92.156863%)" stroke-miterlimit="10"/></g><g clip-path="url(#d)"><path d="M42.2 224.23h399.398" fill="none" stroke-width="0.711319" stroke-linejoin="round" stroke="rgb(92.156863%,92.156863%,92.156863%)" stroke-miterlimit="10"/></g><g clip-path="url(#e)"><path d="M42.2 202.418h399.398" fill="none" stroke-width="0.711319" stroke-linejoin="round" stroke="rgb(92.156863%,92.156863%,92.156863%)" stroke-miterlimit="10"/></g><g clip-path="url(#f)"><path d="M42.2 180.602h399.398" fill="none" stroke-width="0.711319" stroke-linejoin="round" stroke="rgb(92.156863%,92.156863%,92.156863%)" stroke-miterlimit="10"/></g><g clip-path="url(#g)"><path d="M42.2 158.79h399.398" fill="none" stroke-width="0.711319" stroke-linejoin="round" stroke="rgb(92.156863%,92.156863%,92.156863%)" stroke-miterlimit="10"/></g><g clip-path="url(#h)"><path d="M42.2 136.977h399.398" fill="none" stroke-width="0.711319" stroke-linejoin="round" stroke="rgb(92.156863%,92.156863%,92.156863%)" stroke-miterlimit="10"/></g><g clip-path="url(#i)"><path d="M42.2 115.16h399.398" fill="none" stroke-width="0.711319" stroke-linejoin="round" stroke="rgb(92.156863%,92.156863%,92.156863%)" stroke-miterlimit="10"/></g><g clip-path="url(#j)"><path d="M42.2 93.348h399.398" fill="none" stroke-width="0.711319" stroke-linejoin="round" stroke="rgb(92.156863%,92.156863%,92.156863%)" stroke-miterlimit="10"/></g><g clip-path="url(#k)"><path d="M42.2 71.531h399.398" fill="none" stroke-width="0.711319" stroke-linejoin="round" stroke="rgb(92.156863%,92.156863%,92.156863%)" stroke-miterlimit="10"/></g><g clip-path="url(#l)"><path d="M42.2 49.719h399.398" fill="none" stroke-width="0.711319" stroke-linejoin="round" stroke="rgb(92.156863%,92.156863%,92.156863%)" stroke-miterlimit="10"/></g><g clip-path="url(#m)"><path d="M76.8 256.953V38.813" fill="none" stroke-width="0.711319" stroke-linejoin="round" stroke="rgb(92.156863%,92.156863%,92.156863%)" stroke-miterlimit="10"/></g><g clip-path="url(#n)"><path d="M114.754 256.953V38.813" fill="none" stroke-width="0.711319" stroke-linejoin="round" stroke="rgb(92.156863%,92.156863%,92.156863%)" stroke-miterlimit="10"/></g><g clip-path="url(#o)"><path d="M152.707 256.953V38.813" fill="none" stroke-width="0.711319" stroke-linejoin="round" stroke="rgb(92.156863%,92.156863%,92.156863%)" stroke-miterlimit="10"/></g><g clip-path="url(#p)"><path d="M190.66 256.953V38.813" fill="none" stroke-width="0.711319" stroke-linejoin="round" stroke="rgb(92.156863%,92.156863%,92.156863%)" stroke-miterlimit="10"/></g><g clip-path="url(#q)"><path d="M228.613 256.953V38.813" fill="none" stroke-width="0.711319" stroke-linejoin="round" stroke="rgb(92.156863%,92.156863%,92.156863%)" stroke-miterlimit="10"/></g><g clip-path="url(#r)"><path d="M266.57 256.953V38.813" fill="none" stroke-width="0.711319" stroke-linejoin="round" stroke="rgb(92.156863%,92.156863%,92.156863%)" stroke-miterlimit="10"/></g><g clip-path="url(#s)"><path d="M304.523 256.953V38.813" fill="none" stroke-width="0.711319" stroke-linejoin="round" stroke="rgb(92.156863%,92.156863%,92.156863%)" stroke-miterlimit="10"/></g><g clip-path="url(#t)"><path d="M342.477 256.953V38.813" fill="none" stroke-width="0.711319" stroke-linejoin="round" stroke="rgb(92.156863%,92.156863%,92.156863%)" stroke-miterlimit="10"/></g><g clip-path="url(#u)"><path d="M380.43 256.953V38.813" fill="none" stroke-width="0.711319" stroke-linejoin="round" stroke="rgb(92.156863%,92.156863%,92.156863%)" stroke-miterlimit="10"/></g><g clip-path="url(#v)"><path d="M418.383 256.953V38.813" fill="none" stroke-width="0.711319" stroke-linejoin="round" stroke="rgb(92.156863%,92.156863%,92.156863%)" stroke-miterlimit="10"/></g><g clip-path="url(#w)"><path d="M42.2 235.14h399.398" fill="none" stroke-width="1.422638" stroke-linejoin="round" stroke="rgb(92.156863%,92.156863%,92.156863%)" stroke-miterlimit="10"/></g><g clip-path="url(#x)"><path d="M42.2 213.324h399.398" fill="none" stroke-width="1.422638" stroke-linejoin="round" stroke="rgb(92.156863%,92.156863%,92.156863%)" stroke-miterlimit="10"/></g><g clip-path="url(#y)"><path d="M42.2 191.512h399.398" fill="none" stroke-width="1.422638" stroke-linejoin="round" stroke="rgb(92.156863%,92.156863%,92.156863%)" stroke-miterlimit="10"/></g><g clip-path="url(#z)"><path d="M42.2 169.695h399.398" fill="none" stroke-width="1.422638" stroke-linejoin="round" stroke="rgb(92.156863%,92.156863%,92.156863%)" stroke-miterlimit="10"/></g><g clip-path="url(#A)"><path d="M42.2 147.883h399.398" fill="none" stroke-width="1.422638" stroke-linejoin="round" stroke="rgb(92.156863%,92.156863%,92.156863%)" stroke-miterlimit="10"/></g><g clip-path="url(#B)"><path d="M42.2 126.066h399.398" fill="none" stroke-width="1.422638" stroke-linejoin="round" stroke="rgb(92.156863%,92.156863%,92.156863%)" stroke-miterlimit="10"/></g><g clip-path="url(#C)"><path d="M42.2 104.254h399.398" fill="none" stroke-width="1.422638" stroke-linejoin="round" stroke="rgb(92.156863%,92.156863%,92.156863%)" stroke-miterlimit="10"/></g><g clip-path="url(#D)"><path d="M42.2 82.438h399.398" fill="none" stroke-width="1.422638" stroke-linejoin="round" stroke="rgb(92.156863%,92.156863%,92.156863%)" stroke-miterlimit="10"/></g><g clip-path="url(#E)"><path d="M42.2 60.625h399.398" fill="none" stroke-width="1.422638" stroke-linejoin="round" stroke="rgb(92.156863%,92.156863%,92.156863%)" stroke-miterlimit="10"/></g><g clip-path="url(#F)"><path d="M42.2 38.813h399.398" fill="none" stroke-width="1.422638" stroke-linejoin="round" stroke="rgb(92.156863%,92.156863%,92.156863%)" stroke-miterlimit="10"/></g><g clip-path="url(#G)"><path d="M57.824 256.953V38.813" fill="none" stroke-width="1.422638" stroke-linejoin="round" stroke="rgb(92.156863%,92.156863%,92.156863%)" stroke-miterlimit="10"/></g><g clip-path="url(#H)"><path d="M95.777 256.953V38.813" fill="none" stroke-width="1.422638" stroke-linejoin="round" stroke="rgb(92.156863%,92.156863%,92.156863%)" stroke-miterlimit="10"/></g><g clip-path="url(#I)"><path d="M133.73 256.953V38.813" fill="none" stroke-width="1.422638" stroke-linejoin="round" stroke="rgb(92.156863%,92.156863%,92.156863%)" stroke-miterlimit="10"/></g><g clip-path="url(#J)"><path d="M171.684 256.953V38.813" fill="none" stroke-width="1.422638" stroke-linejoin="round" stroke="rgb(92.156863%,92.156863%,92.156863%)" stroke-miterlimit="10"/></g><g clip-path="url(#K)"><path d="M209.637 256.953V38.813" fill="none" stroke-width="1.422638" stroke-linejoin="round" stroke="rgb(92.156863%,92.156863%,92.156863%)" stroke-miterlimit="10"/></g><g clip-path="url(#L)"><path d="M247.594 256.953V38.813" fill="none" stroke-width="1.422638" stroke-linejoin="round" stroke="rgb(92.156863%,92.156863%,92.156863%)" stroke-miterlimit="10"/></g><g clip-path="url(#M)"><path d="M285.547 256.953V38.813" fill="none" stroke-width="1.422638" stroke-linejoin="round" stroke="rgb(92.156863%,92.156863%,92.156863%)" stroke-miterlimit="10"/></g><g clip-path="url(#N)"><path d="M323.5 256.953V38.813" fill="none" stroke-width="1.422638" stroke-linejoin="round" stroke="rgb(92.156863%,92.156863%,92.156863%)" stroke-miterlimit="10"/></g><g clip-path="url(#O)"><path d="M361.453 256.953V38.813" fill="none" stroke-width="1.422638" stroke-linejoin="round" stroke="rgb(92.156863%,92.156863%,92.156863%)" stroke-miterlimit="10"/></g><g clip-path="url(#P)"><path d="M399.406 256.953V38.813" fill="none" stroke-width="1.422638" stroke-linejoin="round" stroke="rgb(92.156863%,92.156863%,92.156863%)" stroke-miterlimit="10"/></g><g clip-path="url(#Q)"><path d="M437.36 256.953V38.813" fill="none" stroke-width="1.422638" stroke-linejoin="round" stroke="rgb(92.156863%,92.156863%,92.156863%)" stroke-miterlimit="10"/></g><path d="M77.355 154.426c0 3.273-4.906 3.273-4.906 0 0-3.274 4.906-3.274 4.906 0m39.852 15.27c0 3.273-4.906 3.273-4.906 0 0-3.274 4.906-3.274 4.906 0m36.691-15.27c0 3.273-4.91 3.273-4.91 0 0-3.274 4.91-3.274 4.91 0m39.22 0c0 3.273-4.911 3.273-4.911 0 0-3.274 4.91-3.274 4.91 0m36.055 0c0 3.273-4.91 3.273-4.91 0 0-3.274 4.91-3.274 4.91 0m37.953 0c0 3.273-4.91 3.273-4.91 0 0-3.274 4.91-3.274 4.91 0m37.953 0c0 3.273-4.906 3.273-4.906 0 0-3.274 4.906-3.274 4.906 0m39.852 0c0 3.273-4.907 3.273-4.907 0 0-3.274 4.907-3.274 4.907 0m36.058 0c0 3.273-4.91 3.273-4.91 0 0-3.274 4.91-3.274 4.91 0" fill="rgb(97.254902%,46.27451%,42.745098%)" stroke-width="0.944882" stroke-linecap="round" stroke-linejoin="round" stroke="rgb(97.254902%,46.27451%,42.745098%)" stroke-miterlimit="10"/><path d="M62.809 215.508c0 3.273-4.91 3.273-4.91 0 0-3.274 4.91-3.274 4.91 0m75.906-8.29c0 3.27-4.91 3.27-4.91 0 0-3.273 4.91-3.273 4.91 0m17.078 1.743c0 3.273-4.906 3.273-4.906 0 0-3.274 4.906-3.274 4.906 0m20.875-1.742c0 3.27-4.906 3.27-4.906 0 0-3.274 4.906-3.274 4.906 0" fill="rgb(78.039216%,48.627451%,100%)" stroke-width="0.944882" stroke-linecap="round" stroke-linejoin="round" stroke="rgb(78.039216%,48.627451%,100%)" stroke-miterlimit="10"/><path d="M178.566 207.219c0 3.27-4.91 3.27-4.91 0 0-3.274 4.91-3.274 4.91 0m15.184 0c0 3.27-4.91 3.27-4.91 0 0-3.274 4.91-3.274 4.91 0m18.977 0c0 3.27-4.91 3.27-4.91 0 0-3.274 4.91-3.274 4.91 0m18.976 8.289c0 3.273-4.91 3.273-4.91 0 0-3.274 4.91-3.274 4.91 0m20.875-8.29c0 3.27-4.91 3.27-4.91 0 0-3.273 4.91-3.273 4.91 0" fill="rgb(78.039216%,48.627451%,100%)" stroke-width="0.944882" stroke-linecap="round" stroke-linejoin="round" stroke="rgb(78.039216%,48.627451%,100%)" stroke-miterlimit="10"/><path d="M254.477 207.219c0 3.27-4.91 3.27-4.91 0 0-3.274 4.91-3.274 4.91 0m15.18 1.742c0 3.273-4.91 3.273-4.91 0 0-3.274 4.91-3.274 4.91 0m20.874 6.547c0 3.273-4.91 3.273-4.91 0 0-3.274 4.91-3.274 4.91 0m39.852-8.29c0 3.27-4.91 3.27-4.91 0 0-3.273 4.91-3.273 4.91 0m51.238 0c0 3.27-4.91 3.27-4.91 0 0-3.273 4.91-3.273 4.91 0" fill="rgb(78.039216%,48.627451%,100%)" stroke-width="0.944882" stroke-linecap="round" stroke-linejoin="round" stroke="rgb(78.039216%,48.627451%,100%)" stroke-miterlimit="10"/><path d="M69.766 146.574c0 3.274-4.91 3.274-4.91 0 0-3.273 4.91-3.273 4.91 0m6.957-41.558c0 3.273-4.907 3.273-4.907 0 0-3.274 4.907-3.274 4.907 0m1.898 9.097c0 3.274-4.91 3.274-4.91 0 0-3.273 4.91-3.273 4.91 0m18.344-9.097c0 3.273-4.906 3.273-4.906 0 0-3.274 4.906-3.274 4.906 0m10.754 41.558c0 3.274-4.91 3.274-4.91 0 0-3.273 4.91-3.273 4.91 0m6.96-74.015c0 3.273-4.91 3.273-4.91 0 0-3.274 4.91-3.274 4.91 0m1.895-22.079c0 3.274-4.906 3.274-4.906 0 0-3.273 4.906-3.273 4.906 0m18.348 0c0 3.274-4.91 3.274-4.91 0 0-3.273 4.91-3.273 4.91 0m10.754 63.633c0 3.274-4.91 3.274-4.91 0 0-3.273 4.91-3.273 4.91 0m6.957-63.633c0 3.274-4.91 3.274-4.91 0 0-3.273 4.91-3.273 4.91 0m1.898 63.633c0 3.274-4.91 3.274-4.91 0 0-3.273 4.91-3.273 4.91 0m17.711-63.633c0 3.274-4.91 3.274-4.91 0 0-3.273 4.91-3.273 4.91 0" fill="rgb(48.627451%,68.235294%,0%)" stroke-width="0.944882" stroke-linecap="round" stroke-linejoin="round" stroke="rgb(48.627451%,68.235294%,0%)" stroke-miterlimit="10"/><path d="M174.14 50.48c0 3.274-4.91 3.274-4.91 0 0-3.273 4.91-3.273 4.91 0m9.489 22.079c0 3.273-4.91 3.273-4.91 0 0-3.274 4.91-3.274 4.91 0m9.488-22.079c0 3.274-4.91 3.274-4.91 0 0-3.273 4.91-3.273 4.91 0m9.488 22.079c0 3.273-4.91 3.273-4.91 0 0-3.274 4.91-3.274 4.91 0m7.59-22.079c0 3.274-4.91 3.274-4.91 0 0-3.273 4.91-3.273 4.91 0m11.387 63.633c0 3.274-4.91 3.274-4.91 0 0-3.273 4.91-3.273 4.91 0m6.324 0c0 3.274-4.91 3.274-4.91 0 0-3.273 4.91-3.273 4.91 0m3.164-41.554c0 3.273-4.91 3.273-4.91 0 0-3.274 4.91-3.274 4.91 0m17.078 0c0 3.273-4.91 3.273-4.91 0 0-3.274 4.91-3.274 4.91 0m11.387 32.457c0 3.273-4.91 3.273-4.91 0 0-3.274 4.91-3.274 4.91 0m8.223 0c0 3.273-4.91 3.273-4.91 0 0-3.274 4.91-3.274 4.91 0m2.531 41.558c0 3.274-4.91 3.274-4.91 0 0-3.273 4.91-3.273 4.91 0m14.547-32.46c0 3.273-4.906 3.273-4.906 0 0-3.274 4.906-3.274 4.906 0m12.652 0c0 3.273-4.91 3.273-4.91 0 0-3.274 4.91-3.274 4.91 0m6.957 32.46c0 3.274-4.906 3.274-4.906 0 0-3.273 4.906-3.273 4.906 0" fill="rgb(48.627451%,68.235294%,0%)" stroke-width="0.944882" stroke-linecap="round" stroke-linejoin="round" stroke="rgb(48.627451%,68.235294%,0%)" stroke-miterlimit="10"/><path d="M306.977 146.574c0 3.274-4.91 3.274-4.91 0 0-3.273 4.91-3.273 4.91 0m15.816 0c0 3.274-4.91 3.274-4.91 0 0-3.273 4.91-3.273 4.91 0" fill="rgb(48.627451%,68.235294%,0%)" stroke-width="0.944882" stroke-linecap="round" stroke-linejoin="round" stroke="rgb(48.627451%,68.235294%,0%)" stroke-miterlimit="10"/><path d="M325.953 146.574c0 3.274-4.91 3.274-4.91 0 0-3.273 4.91-3.273 4.91 0m18.977 64.942c0 3.273-4.907 3.273-4.907 0 0-3.274 4.907-3.274 4.907 0m18.976-15.598c0 3.273-4.906 3.273-4.906 0s4.906-3.273 4.906 0m15.817 7.785c0 3.274-4.91 3.274-4.91 0 0-3.27 4.91-3.27 4.91 0m31.629 7.813c0 3.273-4.91 3.273-4.91 0 0-3.274 4.91-3.274 4.91 0" fill="rgb(48.627451%,68.235294%,0%)" stroke-width="0.944882" stroke-linecap="round" stroke-linejoin="round" stroke="rgb(48.627451%,68.235294%,0%)" stroke-miterlimit="10"/><path d="M66.602 215.07c0 3.274-4.907 3.274-4.907 0 0-3.273 4.907-3.273 4.907 0m18.98 0c0 3.274-4.91 3.274-4.91 0 0-3.273 4.91-3.273 4.91 0m18.977 0c0 3.274-4.91 3.274-4.91 0 0-3.273 4.91-3.273 4.91 0m18.976 0c0 3.274-4.91 3.274-4.91 0 0-3.273 4.91-3.273 4.91 0m18.977 0c0 3.274-4.91 3.274-4.91 0 0-3.273 4.91-3.273 4.91 0m18.976 0c0 3.274-4.91 3.274-4.91 0 0-3.273 4.91-3.273 4.91 0m18.977 0c0 3.274-4.91 3.274-4.91 0 0-3.273 4.91-3.273 4.91 0m18.976 0c0 3.274-4.91 3.274-4.91 0 0-3.273 4.91-3.273 4.91 0m18.977 0c0 3.274-4.91 3.274-4.91 0 0-3.273 4.91-3.273 4.91 0m18.977 0c0 3.274-4.91 3.274-4.91 0 0-3.273 4.91-3.273 4.91 0m18.976 0c0 3.274-4.91 3.274-4.91 0 0-3.273 4.91-3.273 4.91 0m18.977 0c0 3.274-4.907 3.274-4.907 0 0-3.273 4.907-3.273 4.907 0m18.98 0c0 3.274-4.91 3.274-4.91 0 0-3.273 4.91-3.273 4.91 0m18.977 0c0 3.274-4.91 3.274-4.91 0 0-3.273 4.91-3.273 4.91 0m18.976 0c0 3.274-4.91 3.274-4.91 0 0-3.273 4.91-3.273 4.91 0m18.977 0c0 3.274-4.91 3.274-4.91 0 0-3.273 4.91-3.273 4.91 0m18.976 0c0 3.274-4.91 3.274-4.91 0 0-3.273 4.91-3.273 4.91 0m18.977 0c0 3.274-4.91 3.274-4.91 0 0-3.273 4.91-3.273 4.91 0m17.71 0c0 3.274-4.91 3.274-4.91 0 0-3.273 4.91-3.273 4.91 0m18.977 0c0 3.274-4.91 3.274-4.91 0 0-3.273 4.91-3.273 4.91 0" fill="rgb(0%,74.901961%,76.862745%)" stroke-width="0.944882" stroke-linecap="round" stroke-linejoin="round" stroke="rgb(0%,74.901961%,76.862745%)" stroke-miterlimit="10"/><path d="M67.313 131.66l4.324-5.148 4.324-4.934 4.32-4.723 4.324-4.511 4.325-4.305 4.324-4.09 4.324-3.883 4.324-3.671 4.325-3.461 4.324-3.262 4.324-3.059 4.324-2.855 4.324-2.645 4.32-2.43 4.325-2.21 4.324-1.989 4.324-1.757 4.325-1.528 4.324-1.336 4.324-1.133 4.324-.925 4.325-.711 4.324-.477 4.32-.238 4.324.047 4.324.375 4.325.664 4.324.91 4.324 1.121 4.324 1.281 4.325 1.41 4.324 1.497L210 75.27l4.324 1.882 4.32 2.184 4.325 2.437 4.324 2.653 4.324 2.824 4.324 2.957 4.325 3.05 4.324 3.095 4.324 3.105 4.324 3.07 4.325 3 4.32 3.055 4.324 3.2 4.324 3.312 4.324 3.406 4.325 3.473 4.324 3.511 4.324 3.524 4.324 3.515 4.325 3.485 4.324 3.558 4.324 3.633 4.32 3.66 4.325 3.653 4.324 3.601 4.324 3.508 4.324 3.414 4.324 3.406 4.325 3.395 4.324 3.387 4.324 3.379 4.324 3.37 4.325 3.36 4.32 3.352 4.324 3.343 4.324 3.332 4.324 3.325 4.325 3.312 4.324 3.3 4.324 3.294 4.324 3.281 4.325 3.27 4.324 3.257 4.32 3.25 4.324 3.235 4.325 3.226" fill="none" stroke-width="2.133957" stroke-linejoin="round" stroke="rgb(48.627451%,68.235294%,0%)" stroke-miterlimit="10"/><g clip-path="url(#R)"><path d="M42.2 38.813h399.402v218.14H42.199zm0 0" fill="none" stroke-width="1.422638" stroke-linecap="round" stroke-linejoin="round" stroke="rgb(20%,20%,20%)" stroke-miterlimit="10"/></g><g fill="rgb(30.196078%,30.196078%,30.196078%)"><use xlink:href="#S" x="26.926" y="238.477"/><use xlink:href="#T" x="32.096" y="238.477"/></g><g fill="rgb(30.196078%,30.196078%,30.196078%)"><use xlink:href="#U" x="26.926" y="216.66"/><use xlink:href="#T" x="32.096" y="216.66"/></g><g fill="rgb(30.196078%,30.196078%,30.196078%)"><use xlink:href="#V" x="26.926" y="194.848"/><use xlink:href="#T" x="32.096" y="194.848"/></g><g fill="rgb(30.196078%,30.196078%,30.196078%)"><use xlink:href="#W" x="26.926" y="173.031"/><use xlink:href="#T" x="32.096" y="173.031"/></g><g fill="rgb(30.196078%,30.196078%,30.196078%)"><use xlink:href="#X" x="26.926" y="151.219"/><use xlink:href="#T" x="32.096" y="151.219"/></g><g fill="rgb(30.196078%,30.196078%,30.196078%)"><use xlink:href="#Y" x="26.926" y="129.402"/><use xlink:href="#T" x="32.096" y="129.402"/></g><g fill="rgb(30.196078%,30.196078%,30.196078%)"><use xlink:href="#Z" x="26.926" y="107.59"/><use xlink:href="#T" x="32.096" y="107.59"/></g><g fill="rgb(30.196078%,30.196078%,30.196078%)"><use xlink:href="#aa" x="26.926" y="85.773"/><use xlink:href="#T" x="32.096" y="85.773"/></g><g fill="rgb(30.196078%,30.196078%,30.196078%)"><use xlink:href="#ab" x="26.926" y="63.961"/><use xlink:href="#T" x="32.096" y="63.961"/></g><g fill="rgb(30.196078%,30.196078%,30.196078%)"><use xlink:href="#S" x="21.754" y="42.148"/><use xlink:href="#T" x="26.924" y="42.148"/><use xlink:href="#T" x="32.095" y="42.148"/></g><path d="M39.46 235.14h2.74m-2.74-21.816h2.74m-2.74-21.812h2.74m-2.74-21.817h2.74m-2.74-21.812h2.74m-2.74-21.817h2.74m-2.74-21.812h2.74m-2.74-21.817h2.74m-2.74-21.812h2.74m-2.74-21.813h2.74m15.624 220.88v-2.739m37.953 2.738v-2.738m37.953 2.738v-2.738m37.954 2.738v-2.738m37.953 2.738v-2.738m37.957 2.738v-2.738m37.953 2.738v-2.738m37.953 2.738v-2.738m37.953 2.738v-2.738m37.953 2.738v-2.738m37.953 2.738v-2.738" fill="none" stroke-width="1.422638" stroke-linejoin="round" stroke="rgb(20%,20%,20%)" stroke-miterlimit="10"/><g fill="rgb(30.196078%,30.196078%,30.196078%)"><use xlink:href="#S" x="46.191" y="268.559"/><use xlink:href="#W" x="51.362" y="268.559"/><use xlink:href="#ac" x="56.532" y="268.559"/><use xlink:href="#T" x="59.115" y="268.559"/><use xlink:href="#T" x="64.286" y="268.559"/></g><g fill="rgb(30.196078%,30.196078%,30.196078%)"><use xlink:href="#S" x="84.145" y="268.559"/><use xlink:href="#X" x="89.315" y="268.559"/><use xlink:href="#ac" x="94.486" y="268.559"/><use xlink:href="#T" x="97.068" y="268.559"/><use xlink:href="#T" x="102.239" y="268.559"/></g><g fill="rgb(30.196078%,30.196078%,30.196078%)"><use xlink:href="#S" x="122.098" y="268.559"/><use xlink:href="#Y" x="127.268" y="268.559"/><use xlink:href="#ac" x="132.439" y="268.559"/><use xlink:href="#T" x="135.022" y="268.559"/><use xlink:href="#T" x="140.192" y="268.559"/></g><g fill="rgb(30.196078%,30.196078%,30.196078%)"><use xlink:href="#S" x="160.051" y="268.559"/><use xlink:href="#Z" x="165.221" y="268.559"/><use xlink:href="#ac" x="170.392" y="268.559"/><use xlink:href="#T" x="172.975" y="268.559"/><use xlink:href="#T" x="178.145" y="268.559"/></g><g fill="rgb(30.196078%,30.196078%,30.196078%)"><use xlink:href="#S" x="198.004" y="268.559"/><use xlink:href="#aa" x="203.174" y="268.559"/><use xlink:href="#ac" x="208.345" y="268.559"/><use xlink:href="#T" x="210.928" y="268.559"/><use xlink:href="#T" x="216.098" y="268.559"/></g><g fill="rgb(30.196078%,30.196078%,30.196078%)"><use xlink:href="#S" x="235.961" y="268.559"/><use xlink:href="#ab" x="241.131" y="268.559"/><use xlink:href="#ac" x="246.302" y="268.559"/><use xlink:href="#T" x="248.885" y="268.559"/><use xlink:href="#T" x="254.055" y="268.559"/></g><g fill="rgb(30.196078%,30.196078%,30.196078%)"><use xlink:href="#U" x="273.914" y="268.559"/><use xlink:href="#T" x="279.085" y="268.559"/><use xlink:href="#ac" x="284.255" y="268.559"/><use xlink:href="#T" x="286.838" y="268.559"/><use xlink:href="#T" x="292.008" y="268.559"/></g><g fill="rgb(30.196078%,30.196078%,30.196078%)"><use xlink:href="#U" x="311.867" y="268.559"/><use xlink:href="#S" x="317.038" y="268.559"/><use xlink:href="#ac" x="322.208" y="268.559"/><use xlink:href="#T" x="324.791" y="268.559"/><use xlink:href="#T" x="329.962" y="268.559"/></g><g fill="rgb(30.196078%,30.196078%,30.196078%)"><use xlink:href="#U" x="349.82" y="268.559"/><use xlink:href="#U" x="354.991" y="268.559"/><use xlink:href="#ac" x="360.161" y="268.559"/><use xlink:href="#T" x="362.744" y="268.559"/><use xlink:href="#T" x="367.915" y="268.559"/></g><g fill="rgb(30.196078%,30.196078%,30.196078%)"><use xlink:href="#U" x="387.773" y="268.559"/><use xlink:href="#V" x="392.944" y="268.559"/><use xlink:href="#ac" x="398.114" y="268.559"/><use xlink:href="#T" x="400.697" y="268.559"/><use xlink:href="#T" x="405.868" y="268.559"/></g><g fill="rgb(30.196078%,30.196078%,30.196078%)"><use xlink:href="#T" x="425.727" y="268.559"/><use xlink:href="#T" x="430.897" y="268.559"/><use xlink:href="#ac" x="436.068" y="268.559"/><use xlink:href="#T" x="438.651" y="268.559"/><use xlink:href="#T" x="443.821" y="268.559"/></g><g fill="rgb(0%,0%,0%)"><use xlink:href="#ad" x="229.121" y="282.285"/><use xlink:href="#ae" x="236.146" y="282.285"/><use xlink:href="#af" x="238.701" y="282.285"/><use xlink:href="#ag" x="248.28" y="282.285"/></g><g fill="rgb(0%,0%,0%)"><use xlink:href="#ah" x="13.73" y="185.066"/><use xlink:href="#ai" x="13.73" y="178.042"/><use xlink:href="#aj" x="13.73" y="175.487"/><use xlink:href="#ak" x="13.73" y="169.737"/><use xlink:href="#al" x="13.73" y="163.987"/><use xlink:href="#am" x="13.73" y="157.591"/><use xlink:href="#an" x="13.73" y="154.396"/><use xlink:href="#aj" x="13.73" y="151.201"/><use xlink:href="#ao" x="13.73" y="145.451"/><use xlink:href="#ap" x="13.73" y="139.055"/><use xlink:href="#am" x="13.73" y="133.305"/><use xlink:href="#an" x="13.73" y="130.11"/><use xlink:href="#aq" x="13.73" y="126.915"/><use xlink:href="#ar" x="13.73" y="123.085"/><use xlink:href="#as" x="13.73" y="114.528"/></g><path d="M452.938 101.367H570.52v93.028H452.938zm0 0" fill="rgb(100%,100%,100%)"/><g fill="rgb(0%,0%,0%)"><use xlink:href="#ad" x="458.605" y="115.285"/><use xlink:href="#at" x="465.63" y="115.285"/><use xlink:href="#au" x="469.46" y="115.285"/><use xlink:href="#ae" x="475.855" y="115.285"/><use xlink:href="#av" x="478.41" y="115.285"/><use xlink:href="#aw" x="484.806" y="115.285"/><use xlink:href="#ax" x="488.001" y="115.285"/><use xlink:href="#ay" x="494.397" y="115.285"/><use xlink:href="#ag" x="500.793" y="115.285"/><use xlink:href="#at" x="507.188" y="115.285"/><use xlink:href="#au" x="511.018" y="115.285"/><use xlink:href="#az" x="517.414" y="115.285"/><use xlink:href="#ax" x="520.609" y="115.285"/><use xlink:href="#at" x="527.005" y="115.285"/></g><path d="M458.605 119.605h17.282v17.282h-17.282zm0 0" fill="rgb(100%,100%,100%)"/><path d="M469.703 128.246c0 3.274-4.91 3.274-4.91 0 0-3.273 4.91-3.273 4.91 0" fill="rgb(97.254902%,46.27451%,42.745098%)" stroke-width="0.944882" stroke-linecap="round" stroke-linejoin="round" stroke="rgb(97.254902%,46.27451%,42.745098%)" stroke-miterlimit="10"/><path d="M458.605 136.887h17.282v17.281h-17.282zm0 0" fill="rgb(100%,100%,100%)"/><path d="M469.703 145.527c0 3.274-4.91 3.274-4.91 0 0-3.273 4.91-3.273 4.91 0" fill="rgb(48.627451%,68.235294%,0%)" stroke-width="0.944882" stroke-linecap="round" stroke-linejoin="round" stroke="rgb(48.627451%,68.235294%,0%)" stroke-miterlimit="10"/><path d="M458.605 154.168h17.282v17.281h-17.282zm0 0" fill="rgb(100%,100%,100%)"/><path d="M469.703 162.809c0 3.273-4.91 3.273-4.91 0 0-3.274 4.91-3.274 4.91 0" fill="rgb(0%,74.901961%,76.862745%)" stroke-width="0.944882" stroke-linecap="round" stroke-linejoin="round" stroke="rgb(0%,74.901961%,76.862745%)" stroke-miterlimit="10"/><path d="M458.605 171.445h17.282v17.282h-17.282zm0 0" fill="rgb(100%,100%,100%)"/><path d="M469.703 180.086c0 3.273-4.91 3.273-4.91 0 0-3.274 4.91-3.274 4.91 0" fill="rgb(78.039216%,48.627451%,100%)" stroke-width="0.944882" stroke-linecap="round" stroke-linejoin="round" stroke="rgb(78.039216%,48.627451%,100%)" stroke-miterlimit="10"/><g fill="rgb(0%,0%,0%)"><use xlink:href="#aA" x="478.047" y="131.582"/><use xlink:href="#aB" x="484.761" y="131.582"/><use xlink:href="#aC" x="489.931" y="131.582"/><use xlink:href="#aD" x="495.102" y="131.582"/><use xlink:href="#aE" x="497.685" y="131.582"/><use xlink:href="#aF" x="502.333" y="131.582"/><use xlink:href="#aG" x="506.982" y="131.582"/><use xlink:href="#aB" x="512.152" y="131.582"/><use xlink:href="#aH" x="517.323" y="131.582"/><use xlink:href="#aI" x="519.906" y="131.582"/><use xlink:href="#aJ" x="526.107" y="131.582"/><use xlink:href="#aG" x="531.277" y="131.582"/><use xlink:href="#aK" x="536.447" y="131.582"/></g><g fill="rgb(0%,0%,0%)"><use xlink:href="#aL" x="478.047" y="148.863"/><use xlink:href="#aJ" x="484.248" y="148.863"/><use xlink:href="#aE" x="489.418" y="148.863"/><use xlink:href="#aD" x="494.067" y="148.863"/><use xlink:href="#aH" x="496.65" y="148.863"/><use xlink:href="#aM" x="499.233" y="148.863"/><use xlink:href="#aN" x="506.977" y="148.863"/><use xlink:href="#aO" x="509.043" y="148.863"/><use xlink:href="#aP" x="514.213" y="148.863"/><use xlink:href="#aJ" x="516.279" y="148.863"/><use xlink:href="#aK" x="521.449" y="148.863"/><use xlink:href="#aO" x="526.619" y="148.863"/><use xlink:href="#aE" x="531.79" y="148.863"/><use xlink:href="#aH" x="536.438" y="148.863"/><use xlink:href="#aQ" x="539.021" y="148.863"/><use xlink:href="#aR" x="544.7" y="148.863"/><use xlink:href="#aJ" x="547.796" y="148.863"/><use xlink:href="#aN" x="552.967" y="148.863"/><use xlink:href="#aK" x="555.032" y="148.863"/><use xlink:href="#aE" x="560.203" y="148.863"/></g><g fill="rgb(0%,0%,0%)"><use xlink:href="#aS" x="478.047" y="166.145"/><use xlink:href="#aT" x="484.761" y="166.145"/></g><g fill="rgb(0%,0%,0%)"><use xlink:href="#aT" x="478.047" y="183.422"/><use xlink:href="#aS" x="484.248" y="183.422"/><use xlink:href="#aU" x="490.962" y="183.422"/><use xlink:href="#aV" x="497.676" y="183.422"/></g><g fill="rgb(0%,0%,0%)"><use xlink:href="#aW" x="108.602" y="15.309"/><use xlink:href="#aX" x="118.498" y="15.309"/><use xlink:href="#aY" x="126.119" y="15.309"/><use xlink:href="#aZ" x="132.97" y="15.309"/><use xlink:href="#ba" x="136.777" y="15.309"/><use xlink:href="#aX" x="140.584" y="15.309"/><use xlink:href="#bb" x="148.206" y="15.309"/><use xlink:href="#ba" x="152.013" y="15.309"/><use xlink:href="#aY" x="155.82" y="15.309"/><use xlink:href="#bc" x="162.671" y="15.309"/><use xlink:href="#bd" x="165.716" y="15.309"/><use xlink:href="#be" x="173.337" y="15.309"/><use xlink:href="#bf" x="180.958" y="15.309"/><use xlink:href="#bg" x="184.002" y="15.309"/><use xlink:href="#ba" x="191.623" y="15.309"/><use xlink:href="#aZ" x="195.43" y="15.309"/><use xlink:href="#bh" x="199.238" y="15.309"/><use xlink:href="#bi" x="203.801" y="15.309"/><use xlink:href="#bc" x="211.422" y="15.309"/><use xlink:href="#bd" x="214.466" y="15.309"/><use xlink:href="#ba" x="222.087" y="15.309"/><use xlink:href="#aZ" x="225.895" y="15.309"/><use xlink:href="#bc" x="229.702" y="15.309"/><use xlink:href="#bj" x="232.746" y="15.309"/><use xlink:href="#bk" x="239.598" y="15.309"/><use xlink:href="#bg" x="246.449" y="15.309"/><use xlink:href="#aZ" x="254.07" y="15.309"/><use xlink:href="#aY" x="257.877" y="15.309"/><use xlink:href="#ba" x="264.729" y="15.309"/><use xlink:href="#bf" x="268.536" y="15.309"/><use xlink:href="#bg" x="271.581" y="15.309"/><use xlink:href="#bi" x="279.202" y="15.309"/><use xlink:href="#bl" x="286.823" y="15.309"/><use xlink:href="#bc" x="293.674" y="15.309"/><use xlink:href="#bd" x="296.719" y="15.309"/><use xlink:href="#be" x="304.34" y="15.309"/><use xlink:href="#ba" x="311.961" y="15.309"/><use xlink:href="#bm" x="315.768" y="15.309"/><use xlink:href="#bn" x="324.908" y="15.309"/><use xlink:href="#bh" x="332.529" y="15.309"/><use xlink:href="#aX" x="337.092" y="15.309"/><use xlink:href="#bo" x="344.713" y="15.309"/><use xlink:href="#bg" x="352.334" y="15.309"/><use xlink:href="#bi" x="359.955" y="15.309"/><use xlink:href="#bd" x="367.576" y="15.309"/></g><g fill="rgb(0%,0%,0%)"><use xlink:href="#bj" x="113.938" y="29.563"/><use xlink:href="#bi" x="120.789" y="29.563"/><use xlink:href="#bo" x="128.41" y="29.563"/><use xlink:href="#bc" x="136.031" y="29.563"/><use xlink:href="#aZ" x="139.076" y="29.563"/><use xlink:href="#bi" x="142.883" y="29.563"/><use xlink:href="#bf" x="150.504" y="29.563"/><use xlink:href="#ba" x="153.548" y="29.563"/><use xlink:href="#bj" x="157.355" y="29.563"/><use xlink:href="#bc" x="164.207" y="29.563"/><use xlink:href="#aZ" x="167.251" y="29.563"/><use xlink:href="#bc" x="171.058" y="29.563"/><use xlink:href="#bg" x="174.103" y="29.563"/><use xlink:href="#aY" x="181.724" y="29.563"/><use xlink:href="#ba" x="188.575" y="29.563"/><use xlink:href="#aX" x="192.383" y="29.563"/><use xlink:href="#bd" x="200.004" y="29.563"/><use xlink:href="#ba" x="207.625" y="29.563"/><use xlink:href="#bp" x="211.432" y="29.563"/><use xlink:href="#bh" x="219.802" y="29.563"/><use xlink:href="#bc" x="224.366" y="29.563"/><use xlink:href="#bq" x="227.41" y="29.563"/><use xlink:href="#bi" x="235.031" y="29.563"/><use xlink:href="#br" x="242.652" y="29.563"/><use xlink:href="#ba" x="249.504" y="29.563"/><use xlink:href="#bs" x="253.311" y="29.563"/><use xlink:href="#bg" x="263.207" y="29.563"/><use xlink:href="#bj" x="270.828" y="29.563"/><use xlink:href="#bg" x="277.679" y="29.563"/><use xlink:href="#bt" x="285.3" y="29.563"/><use xlink:href="#bu" x="296.715" y="29.563"/><use xlink:href="#bg" x="304.336" y="29.563"/><use xlink:href="#bh" x="311.957" y="29.563"/><use xlink:href="#ba" x="316.52" y="29.563"/><use xlink:href="#bv" x="320.328" y="29.563"/><use xlink:href="#bw" x="327.949" y="29.563"/><use xlink:href="#ba" x="335.57" y="29.563"/><use xlink:href="#bv" x="339.377" y="29.563"/><use xlink:href="#bx" x="346.998" y="29.563"/><use xlink:href="#by" x="354.619" y="29.563"/><use xlink:href="#bz" x="362.24" y="29.563"/></g></g></svg>