<svg xmlns="http://www.w3.org/2000/svg" width="576" height="288" viewBox="0, 0, 576, 288"><defs><clipPath id="a"><path d="M0 0h576v288H0z"/></clipPath><clipPath id="b"><path d="M0 0h576v288H0z"/></clipPath><clipPath id="c"><path d="M0 0h576v288H0z"/></clipPath><clipPath id="d"><path d="M0 0h576v288H0z"/></clipPath><clipPath id="e"><path d="M0 0h576v288H0z"/></clipPath><clipPath id="f"><path d="M0 0h576v288H0z"/></clipPath><clipPath id="g"><path d="M0 0h576v288H0z"/></clipPath><clipPath id="h"><path d="M0 0h576v288H0z"/></clipPath><clipPath id="i"><path d="M0 0h576v288H0z"/></clipPath><clipPath id="j"><path d="M0 0h576v288H0z"/></clipPath><clipPath id="k"><path d="M0 0h576v288H0z"/></clipPath><clipPath id="l"><path d="M0 0h576v288H0z"/></clipPath><clipPath id="m"><path d="M0 0h576v288H0z"/></clipPath><clipPath id="n"><path d="M0 0h576v288H0z"/></clipPath><clipPath id="o"><path d="M0 0h576v288H0z"/></clipPath><clipPath id="p"><path d="M0 0h576v288H0z"/></clipPath><clipPath id="q"><path d="M0 0h576v288H0z"/></clipPath><clipPath id="r"><path d="M0 0h576v288H0z"/></clipPath><clipPath id="s"><path d="M0 0h576v288H0z"/></clipPath><clipPath id="t"><path d="M0 0h576v288H0z"/></clipPath><clipPath id="u"><path d="M0 0h576v288H0z"/></clipPath><clipPath id="v"><path d="M0 0h576v288H0z"/></clipPath><clipPath id="w"><path d="M0 0h576v288H0z"/></clipPath><clipPath id="x"><path d="M0 0h576v288H0z"/></clipPath><clipPath id="y"><path d="M0 0h576v288H0z"/></clipPath><clipPath id="z"><path d="M0 0h576v288H0z"/></clipPath><clipPath id="A"><path d="M0 0h576v288H0z"/></clipPath><clipPath id="B"><path d="M0 0h576v288H0z"/></clipPath><clipPath id="C"><path d="M0 0h576v288H0z"/></clipPath><clipPath id="D"><path d="M0 0h576v288H0z"/></clipPath></defs><g><path d="M452.55 258.98H38.76m413.79-11.07H38.76m413.79-22.15H38.76m413.79-22.15H38.76m413.79-22.15H38.76m413.79-22.14H38.76m413.79-22.15H38.76m413.79-22.15H38.76m413.79-22.15H38.76m413.79-22.15H38.76m413.79-22.15H38.76M74.6 258.98V37.5m39.33 221.48V37.5m39.32 221.48V37.5m39.32 221.48V37.5m39.32 221.48V37.5m39.32 221.48V37.5m39.32 221.48V37.5m39.32 221.48V37.5m39.32 221.48V37.5m39.33 221.48V37.5m24.05 199.34H38.76m413.79-22.15H38.76m413.79-22.15H38.76m413.79-22.15H38.76m413.79-22.15H38.76m413.79-22.15H38.76m413.79-22.15H38.76M452.55 81.8H38.76m413.79-22.15H38.76m0-22.15h413.79M54.94 258.98V37.5m39.33 221.48V37.5m39.32 221.48V37.5m39.32 221.48V37.5m39.32 221.48V37.5m39.32 221.48V37.5m39.32 221.48V37.5m39.32 221.48V37.5m39.32 221.48V37.5m39.33 221.48V37.5m39.32 221.48V37.5" stroke="#EBEBEB" stroke-linejoin="round" stroke-miterlimit="10" fill="none"/><path d="M74.59 154.89a1.95 1.95 0 1 1-3.9 0 1.95 1.95 0 0 1 3.9 0z" fill="#F8766D"/><path d="M74.59 154.89a1.95 1.95 0 1 1-3.9 0 1.95 1.95 0 0 1 3.9 0z" stroke="#F8766D" stroke-linecap="round" stroke-linejoin="round" stroke-miterlimit="10" fill="none"/><path d="M115.88 170.39a1.95 1.95 0 1 1-3.9 0 1.95 1.95 0 0 1 3.9 0z" fill="#F8766D"/><path d="M115.88 170.39a1.95 1.95 0 1 1-3.9 0 1.95 1.95 0 0 1 3.9 0z" stroke="#F8766D" stroke-linecap="round" stroke-linejoin="round" stroke-miterlimit="10" fill="none"/><path d="M153.89 154.89a1.95 1.95 0 1 1-3.9 0 1.95 1.95 0 0 1 3.9 0z" fill="#F8766D"/><path d="M153.89 154.89a1.95 1.95 0 1 1-3.9 0 1.95 1.95 0 0 1 3.9 0z" stroke="#F8766D" stroke-linecap="round" stroke-linejoin="round" stroke-miterlimit="10" fill="none"/><path d="M194.52 154.89a1.95 1.95 0 1 1-3.9 0 1.95 1.95 0 0 1 3.9 0z" fill="#F8766D"/><path d="M194.52 154.89a1.95 1.95 0 1 1-3.9 0 1.95 1.95 0 0 1 3.9 0z" stroke="#F8766D" stroke-linecap="round" stroke-linejoin="round" stroke-miterlimit="10" fill="none"/><path d="M231.87 154.89a1.95 1.95 0 1 1-3.9 0 1.95 1.95 0 0 1 3.9 0z" fill="#F8766D"/><path d="M231.87 154.89a1.95 1.95 0 1 1-3.9 0 1.95 1.95 0 0 1 3.9 0z" stroke="#F8766D" stroke-linecap="round" stroke-linejoin="round" stroke-miterlimit="10" fill="none"/><path d="M271.19 154.89a1.95 1.95 0 1 1-3.9 0 1.95 1.95 0 0 1 3.9 0z" fill="#F8766D"/><path d="M271.19 154.89a1.95 1.95 0 1 1-3.9 0 1.95 1.95 0 0 1 3.9 0z" stroke="#F8766D" stroke-linecap="round" stroke-linejoin="round" stroke-miterlimit="10" fill="none"/><path d="M310.52 154.89a1.95 1.95 0 1 1-3.9 0 1.95 1.95 0 0 1 3.9 0z" fill="#F8766D"/><path d="M310.52 154.89a1.95 1.95 0 1 1-3.9 0 1.95 1.95 0 0 1 3.9 0z" stroke="#F8766D" stroke-linecap="round" stroke-linejoin="round" stroke-miterlimit="10" fill="none"/><path d="M351.8 154.89a1.95 1.95 0 1 1-3.9 0 1.95 1.95 0 0 1 3.9 0z" fill="#F8766D"/><path d="M351.8 154.89a1.95 1.95 0 1 1-3.9 0 1.95 1.95 0 0 1 3.9 0z" stroke="#F8766D" stroke-linecap="round" stroke-linejoin="round" stroke-miterlimit="10" fill="none"/><path d="M389.16 154.89a1.95 1.95 0 1 1-3.9 0 1.95 1.95 0 0 1 3.9 0z" fill="#F8766D"/><path d="M389.16 154.89a1.95 1.95 0 1 1-3.9 0 1.95 1.95 0 0 1 3.9 0z" stroke="#F8766D" stroke-linecap="round" stroke-linejoin="round" stroke-miterlimit="10" fill="none"/><path d="M59.52 216.9a1.95 1.95 0 1 1-3.9 0 1.95 1.95 0 0 1 3.9 0z" fill="#C77CFF"/><path d="M59.52 216.9a1.95 1.95 0 1 1-3.9 0 1.95 1.95 0 0 1 3.9 0z" stroke="#C77CFF" stroke-linecap="round" stroke-linejoin="round" stroke-miterlimit="10" fill="none"/><path d="M138.16 208.49a1.95 1.95 0 1 1-3.9 0 1.95 1.95 0 0 1 3.9 0z" fill="#C77CFF"/><path d="M138.16 208.49a1.95 1.95 0 1 1-3.9 0 1.95 1.95 0 0 1 3.9 0z" stroke="#C77CFF" stroke-linecap="round" stroke-linejoin="round" stroke-miterlimit="10" fill="none"/><path d="M155.85 210.26a1.95 1.95 0 1 1-3.9 0 1.95 1.95 0 0 1 3.9 0z" fill="#C77CFF"/><path d="M155.85 210.26a1.95 1.95 0 1 1-3.9 0 1.95 1.95 0 0 1 3.9 0z" stroke="#C77CFF" stroke-linecap="round" stroke-linejoin="round" stroke-miterlimit="10" fill="none"/><path d="M177.48 208.49a1.95 1.95 0 1 1-3.9 0 1.95 1.95 0 0 1 3.9 0z" fill="#C77CFF"/><path d="M177.48 208.49a1.95 1.95 0 1 1-3.9 0 1.95 1.95 0 0 1 3.9 0z" stroke="#C77CFF" stroke-linecap="round" stroke-linejoin="round" stroke-miterlimit="10" fill="none"/><path d="M179.45 208.49a1.95 1.95 0 1 1-3.9 0 1.95 1.95 0 0 1 3.9 0z" fill="#C77CFF"/><path d="M179.45 208.49a1.95 1.95 0 1 1-3.9 0 1.95 1.95 0 0 1 3.9 0z" stroke="#C77CFF" stroke-linecap="round" stroke-linejoin="round" stroke-miterlimit="10" fill="none"/><path d="M195.17 208.49a1.95 1.95 0 1 1-3.9 0 1.95 1.95 0 0 1 3.9 0z" fill="#C77CFF"/><path d="M195.17 208.49a1.95 1.95 0 1 1-3.9 0 1.95 1.95 0 0 1 3.9 0z" stroke="#C77CFF" stroke-linecap="round" stroke-linejoin="round" stroke-miterlimit="10" fill="none"/><path d="M214.83 208.49a1.95 1.95 0 1 1-3.9 0 1.95 1.95 0 0 1 3.9 0z" fill="#C77CFF"/><path d="M214.83 208.49a1.95 1.95 0 1 1-3.9 0 1.95 1.95 0 0 1 3.9 0z" stroke="#C77CFF" stroke-linecap="round" stroke-linejoin="round" stroke-miterlimit="10" fill="none"/><path d="M234.49 216.9a1.95 1.95 0 1 1-3.9 0 1.95 1.95 0 0 1 3.9 0z" fill="#C77CFF"/><path d="M234.49 216.9a1.95 1.95 0 1 1-3.9 0 1.95 1.95 0 0 1 3.9 0z" stroke="#C77CFF" stroke-linecap="round" stroke-linejoin="round" stroke-miterlimit="10" fill="none"/><path d="M256.12 208.49a1.95 1.95 0 1 1-3.9 0 1.95 1.95 0 0 1 3.9 0z" fill="#C77CFF"/><path d="M256.12 208.49a1.95 1.95 0 1 1-3.9 0 1.95 1.95 0 0 1 3.9 0z" stroke="#C77CFF" stroke-linecap="round" stroke-linejoin="round" stroke-miterlimit="10" fill="none"/><path d="M258.09 208.49a1.95 1.95 0 1 1-3.9 0 1.95 1.95 0 0 1 3.9 0z" fill="#C77CFF"/><path d="M258.09 208.49a1.95 1.95 0 1 1-3.9 0 1.95 1.95 0 0 1 3.9 0z" stroke="#C77CFF" stroke-linecap="round" stroke-linejoin="round" stroke-miterlimit="10" fill="none"/><path d="M273.82 210.26a1.95 1.95 0 1 1-3.9 0 1.95 1.95 0 0 1 3.9 0z" fill="#C77CFF"/><path d="M273.82 210.26a1.95 1.95 0 1 1-3.9 0 1.95 1.95 0 0 1 3.9 0z" stroke="#C77CFF" stroke-linecap="round" stroke-linejoin="round" stroke-miterlimit="10" fill="none"/><path d="M295.44 216.9a1.95 1.95 0 1 1-3.9 0 1.95 1.95 0 0 1 3.9 0z" fill="#C77CFF"/><path d="M295.44 216.9a1.95 1.95 0 1 1-3.9 0 1.95 1.95 0 0 1 3.9 0z" stroke="#C77CFF" stroke-linecap="round" stroke-linejoin="round" stroke-miterlimit="10" fill="none"/><path d="M336.73 208.49a1.95 1.95 0 1 1-3.9 0 1.95 1.95 0 0 1 3.9 0z" fill="#C77CFF"/><path d="M336.73 208.49a1.95 1.95 0 1 1-3.9 0 1.95 1.95 0 0 1 3.9 0z" stroke="#C77CFF" stroke-linecap="round" stroke-linejoin="round" stroke-miterlimit="10" fill="none"/><path d="M389.81 208.49a1.95 1.95 0 1 1-3.9 0 1.95 1.95 0 0 1 3.9 0z" fill="#C77CFF"/><path d="M389.81 208.49a1.95 1.95 0 1 1-3.9 0 1.95 1.95 0 0 1 3.9 0z" stroke="#C77CFF" stroke-linecap="round" stroke-linejoin="round" stroke-miterlimit="10" fill="none"/><path d="M66.72 146.91a1.95 1.95 0 1 1-3.9 0 1.95 1.95 0 0 1 3.9 0z" fill="#7CAE00"/><path d="M66.72 146.91a1.95 1.95 0 1 1-3.9 0 1.95 1.95 0 0 1 3.9 0z" stroke="#7CAE00" stroke-linecap="round" stroke-linejoin="round" stroke-miterlimit="10" fill="none"/><path d="M73.93 104.72a1.95 1.95 0 1 1-3.9 0 1.95 1.95 0 0 1 3.9 0z" fill="#7CAE00"/><path d="M73.93 104.72a1.95 1.95 0 1 1-3.9 0 1.95 1.95 0 0 1 3.9 0z" stroke="#7CAE00" stroke-linecap="round" stroke-linejoin="round" stroke-miterlimit="10" fill="none"/><path d="M75.9 113.96a1.95 1.95 0 1 1-3.9 0 1.95 1.95 0 0 1 3.9 0z" fill="#7CAE00"/><path d="M75.9 113.96a1.95 1.95 0 1 1-3.9 0 1.95 1.95 0 0 1 3.9 0z" stroke="#7CAE00" stroke-linecap="round" stroke-linejoin="round" stroke-miterlimit="10" fill="none"/><path d="M94.9 104.72a1.95 1.95 0 1 1-3.9 0 1.95 1.95 0 0 1 3.9 0z" fill="#7CAE00"/><path d="M94.9 104.72a1.95 1.95 0 1 1-3.9 0 1.95 1.95 0 0 1 3.9 0z" stroke="#7CAE00" stroke-linecap="round" stroke-linejoin="round" stroke-miterlimit="10" fill="none"/><path d="M106.05 146.91a1.95 1.95 0 1 1-3.9 0 1.95 1.95 0 0 1 3.9 0z" fill="#7CAE00"/><path d="M106.05 146.91a1.95 1.95 0 1 1-3.9 0 1.95 1.95 0 0 1 3.9 0z" stroke="#7CAE00" stroke-linecap="round" stroke-linejoin="round" stroke-miterlimit="10" fill="none"/><path d="M113.25 71.76a1.95 1.95 0 1 1-3.9 0 1.95 1.95 0 0 1 3.9 0z" fill="#7CAE00"/><path d="M113.25 71.76a1.95 1.95 0 1 1-3.9 0 1.95 1.95 0 0 1 3.9 0z" stroke="#7CAE00" stroke-linecap="round" stroke-linejoin="round" stroke-miterlimit="10" fill="none"/><path d="M115.22 49.35a1.95 1.95 0 1 1-3.9 0 1.95 1.95 0 0 1 3.9 0z" fill="#7CAE00"/><path d="M115.22 49.35a1.95 1.95 0 1 1-3.9 0 1.95 1.95 0 0 1 3.9 0z" stroke="#7CAE00" stroke-linecap="round" stroke-linejoin="round" stroke-miterlimit="10" fill="none"/><path d="M134.23 49.35a1.95 1.95 0 1 1-3.9 0 1.95 1.95 0 0 1 3.9 0z" fill="#7CAE00"/><path d="M134.23 49.35a1.95 1.95 0 1 1-3.9 0 1.95 1.95 0 0 1 3.9 0z" stroke="#7CAE00" stroke-linecap="round" stroke-linejoin="round" stroke-miterlimit="10" fill="none"/><path d="M145.37 113.96a1.95 1.95 0 1 1-3.9 0 1.95 1.95 0 0 1 3.9 0z" fill="#7CAE00"/><path d="M145.37 113.96a1.95 1.95 0 1 1-3.9 0 1.95 1.95 0 0 1 3.9 0z" stroke="#7CAE00" stroke-linecap="round" stroke-linejoin="round" stroke-miterlimit="10" fill="none"/><path d="M152.58 49.35a1.95 1.95 0 1 1-3.9 0 1.95 1.95 0 0 1 3.9 0z" fill="#7CAE00"/><path d="M152.58 49.35a1.95 1.95 0 1 1-3.9 0 1.95 1.95 0 0 1 3.9 0z" stroke="#7CAE00" stroke-linecap="round" stroke-linejoin="round" stroke-miterlimit="10" fill="none"/><path d="M154.54 113.96a1.95 1.95 0 1 1-3.9 0 1.95 1.95 0 0 1 3.9 0z" fill="#7CAE00"/><path d="M154.54 113.96a1.95 1.95 0 1 1-3.9 0 1.95 1.95 0 0 1 3.9 0z" stroke="#7CAE00" stroke-linecap="round" stroke-linejoin="round" stroke-miterlimit="10" fill="none"/><path d="M172.89 49.35a1.95 1.95 0 1 1-3.9 0 1.95 1.95 0 0 1 3.9 0z" fill="#7CAE00"/><path d="M172.89 49.35a1.95 1.95 0 1 1-3.9 0 1.95 1.95 0 0 1 3.9 0z" stroke="#7CAE00" stroke-linecap="round" stroke-linejoin="round" stroke-miterlimit="10" fill="none"/><path d="M174.86 49.35a1.95 1.95 0 1 1-3.9 0 1.95 1.95 0 0 1 3.9 0z" fill="#7CAE00"/><path d="M174.86 49.35a1.95 1.95 0 1 1-3.9 0 1.95 1.95 0 0 1 3.9 0z" stroke="#7CAE00" stroke-linecap="round" stroke-linejoin="round" stroke-miterlimit="10" fill="none"/><path d="M184.69 71.76a1.95 1.95 0 1 1-3.9 0 1.95 1.95 0 0 1 3.9 0z" fill="#7CAE00"/><path d="M184.69 71.76a1.95 1.95 0 1 1-3.9 0 1.95 1.95 0 0 1 3.9 0z" stroke="#7CAE00" stroke-linecap="round" stroke-linejoin="round" stroke-miterlimit="10" fill="none"/><path d="M194.52 49.35a1.95 1.95 0 1 1-3.9 0 1.95 1.95 0 0 1 3.9 0z" fill="#7CAE00"/><path d="M194.52 49.35a1.95 1.95 0 1 1-3.9 0 1.95 1.95 0 0 1 3.9 0z" stroke="#7CAE00" stroke-linecap="round" stroke-linejoin="round" stroke-miterlimit="10" fill="none"/><path d="M204.35 71.76a1.95 1.95 0 1 1-3.9 0 1.95 1.95 0 0 1 3.9 0z" fill="#7CAE00"/><path d="M204.35 71.76a1.95 1.95 0 1 1-3.9 0 1.95 1.95 0 0 1 3.9 0z" stroke="#7CAE00" stroke-linecap="round" stroke-linejoin="round" stroke-miterlimit="10" fill="none"/><path d="M212.21 49.35a1.95 1.95 0 1 1-3.9 0 1.95 1.95 0 0 1 3.9 0z" fill="#7CAE00"/><path d="M212.21 49.35a1.95 1.95 0 1 1-3.9 0 1.95 1.95 0 0 1 3.9 0z" stroke="#7CAE00" stroke-linecap="round" stroke-linejoin="round" stroke-miterlimit="10" fill="none"/><path d="M224.01 113.96a1.95 1.95 0 1 1-3.9 0 1.95 1.95 0 0 1 3.9 0z" fill="#7CAE00"/><path d="M224.01 113.96a1.95 1.95 0 1 1-3.9 0 1.95 1.95 0 0 1 3.9 0z" stroke="#7CAE00" stroke-linecap="round" stroke-linejoin="round" stroke-miterlimit="10" fill="none"/><path d="M230.56 113.96a1.95 1.95 0 1 1-3.9 0 1.95 1.95 0 0 1 3.9 0z" fill="#7CAE00"/><path d="M230.56 113.96a1.95 1.95 0 1 1-3.9 0 1.95 1.95 0 0 1 3.9 0z" stroke="#7CAE00" stroke-linecap="round" stroke-linejoin="round" stroke-miterlimit="10" fill="none"/><path d="M233.84 71.76a1.95 1.95 0 1 1-3.9 0 1.95 1.95 0 0 1 3.9 0z" fill="#7CAE00"/><path d="M233.84 71.76a1.95 1.95 0 1 1-3.9 0 1.95 1.95 0 0 1 3.9 0z" stroke="#7CAE00" stroke-linecap="round" stroke-linejoin="round" stroke-miterlimit="10" fill="none"/><path d="M251.53 71.76a1.95 1.95 0 1 1-3.9 0 1.95 1.95 0 0 1 3.9 0z" fill="#7CAE00"/><path d="M251.53 71.76a1.95 1.95 0 1 1-3.9 0 1.95 1.95 0 0 1 3.9 0z" stroke="#7CAE00" stroke-linecap="round" stroke-linejoin="round" stroke-miterlimit="10" fill="none"/><path d="M263.33 104.72a1.95 1.95 0 1 1-3.9 0 1.95 1.95 0 0 1 3.9 0z" fill="#7CAE00"/><path d="M263.33 104.72a1.95 1.95 0 1 1-3.9 0 1.95 1.95 0 0 1 3.9 0z" stroke="#7CAE00" stroke-linecap="round" stroke-linejoin="round" stroke-miterlimit="10" fill="none"/><path d="M271.85 104.72a1.95 1.95 0 1 1-3.9 0 1.95 1.95 0 0 1 3.9 0z" fill="#7CAE00"/><path d="M271.85 104.72a1.95 1.95 0 1 1-3.9 0 1.95 1.95 0 0 1 3.9 0z" stroke="#7CAE00" stroke-linecap="round" stroke-linejoin="round" stroke-miterlimit="10" fill="none"/><path d="M274.47 146.91a1.95 1.95 0 1 1-3.9 0 1.95 1.95 0 0 1 3.9 0z" fill="#7CAE00"/><path d="M274.47 146.91a1.95 1.95 0 1 1-3.9 0 1.95 1.95 0 0 1 3.9 0z" stroke="#7CAE00" stroke-linecap="round" stroke-linejoin="round" stroke-miterlimit="10" fill="none"/><path d="M289.54 113.96a1.95 1.95 0 1 1-3.9 0 1.95 1.95 0 0 1 3.9 0z" fill="#7CAE00"/><path d="M289.54 113.96a1.95 1.95 0 1 1-3.9 0 1.95 1.95 0 0 1 3.9 0z" stroke="#7CAE00" stroke-linecap="round" stroke-linejoin="round" stroke-miterlimit="10" fill="none"/><path d="M302.65 113.96a1.95 1.95 0 1 1-3.9 0 1.95 1.95 0 0 1 3.9 0z" fill="#7CAE00"/><path d="M302.65 113.96a1.95 1.95 0 1 1-3.9 0 1.95 1.95 0 0 1 3.9 0z" stroke="#7CAE00" stroke-linecap="round" stroke-linejoin="round" stroke-miterlimit="10" fill="none"/><path d="M309.86 146.91a1.95 1.95 0 1 1-3.9 0 1.95 1.95 0 0 1 3.9 0z" fill="#7CAE00"/><path d="M309.86 146.91a1.95 1.95 0 1 1-3.9 0 1.95 1.95 0 0 1 3.9 0z" stroke="#7CAE00" stroke-linecap="round" stroke-linejoin="round" stroke-miterlimit="10" fill="none"/><path d="M312.48 146.91a1.95 1.95 0 1 1-3.9 0 1.95 1.95 0 0 1 3.9 0z" fill="#7CAE00"/><path d="M312.48 146.91a1.95 1.95 0 1 1-3.9 0 1.95 1.95 0 0 1 3.9 0z" stroke="#7CAE00" stroke-linecap="round" stroke-linejoin="round" stroke-miterlimit="10" fill="none"/><path d="M328.87 146.91a1.95 1.95 0 1 1-3.9 0 1.95 1.95 0 0 1 3.9 0z" fill="#7CAE00"/><path d="M328.87 146.91a1.95 1.95 0 1 1-3.9 0 1.95 1.95 0 0 1 3.9 0z" stroke="#7CAE00" stroke-linecap="round" stroke-linejoin="round" stroke-miterlimit="10" fill="none"/><path d="M332.14 146.91a1.95 1.95 0 1 1-3.9 0 1.95 1.95 0 0 1 3.9 0z" fill="#7CAE00"/><path d="M332.14 146.91a1.95 1.95 0 1 1-3.9 0 1.95 1.95 0 0 1 3.9 0z" stroke="#7CAE00" stroke-linecap="round" stroke-linejoin="round" stroke-miterlimit="10" fill="none"/><path d="M351.8 212.85a1.95 1.95 0 1 1-3.9 0 1.95 1.95 0 0 1 3.9 0z" fill="#7CAE00"/><path d="M351.8 212.85a1.95 1.95 0 1 1-3.9 0 1.95 1.95 0 0 1 3.9 0z" stroke="#7CAE00" stroke-linecap="round" stroke-linejoin="round" stroke-miterlimit="10" fill="none"/><path d="M371.46 197.01a1.95 1.95 0 1 1-3.9 0 1.95 1.95 0 0 1 3.9 0z" fill="#7CAE00"/><path d="M371.46 197.01a1.95 1.95 0 1 1-3.9 0 1.95 1.95 0 0 1 3.9 0z" stroke="#7CAE00" stroke-linecap="round" stroke-linejoin="round" stroke-miterlimit="10" fill="none"/><path d="M387.85 204.92a1.95 1.95 0 1 1-3.9 0 1.95 1.95 0 0 1 3.9 0z" fill="#7CAE00"/><path d="M387.85 204.92a1.95 1.95 0 1 1-3.9 0 1.95 1.95 0 0 1 3.9 0z" stroke="#7CAE00" stroke-linecap="round" stroke-linejoin="round" stroke-miterlimit="10" fill="none"/><path d="M420.62 212.85a1.95 1.95 0 1 1-3.9 0 1.95 1.95 0 0 1 3.9 0z" fill="#7CAE00"/><path d="M420.62 212.85a1.95 1.95 0 1 1-3.9 0 1.95 1.95 0 0 1 3.9 0z" stroke="#7CAE00" stroke-linecap="round" stroke-linejoin="round" stroke-miterlimit="10" fill="none"/><path d="M63.45 216.46a1.95 1.95 0 1 1-3.9 0 1.95 1.95 0 0 1 3.9 0z" fill="#00BFC4"/><path d="M63.45 216.46a1.95 1.95 0 1 1-3.9 0 1.95 1.95 0 0 1 3.9 0z" stroke="#00BFC4" stroke-linecap="round" stroke-linejoin="round" stroke-miterlimit="10" fill="none"/><path d="M83.11 216.46a1.95 1.95 0 1 1-3.9 0 1.95 1.95 0 0 1 3.9 0z" fill="#00BFC4"/><path d="M83.11 216.46a1.95 1.95 0 1 1-3.9 0 1.95 1.95 0 0 1 3.9 0z" stroke="#00BFC4" stroke-linecap="round" stroke-linejoin="round" stroke-miterlimit="10" fill="none"/><path d="M102.77 216.46a1.95 1.95 0 1 1-3.9 0 1.95 1.95 0 0 1 3.9 0z" fill="#00BFC4"/><path d="M102.77 216.46a1.95 1.95 0 1 1-3.9 0 1.95 1.95 0 0 1 3.9 0z" stroke="#00BFC4" stroke-linecap="round" stroke-linejoin="round" stroke-miterlimit="10" fill="none"/><path d="M122.43 216.46a1.95 1.95 0 1 1-3.9 0 1.95 1.95 0 0 1 3.9 0z" fill="#00BFC4"/><path d="M122.43 216.46a1.95 1.95 0 1 1-3.9 0 1.95 1.95 0 0 1 3.9 0z" stroke="#00BFC4" stroke-linecap="round" stroke-linejoin="round" stroke-miterlimit="10" fill="none"/><path d="M142.09 216.46a1.95 1.95 0 1 1-3.9 0 1.95 1.95 0 0 1 3.9 0z" fill="#00BFC4"/><path d="M142.09 216.46a1.95 1.95 0 1 1-3.9 0 1.95 1.95 0 0 1 3.9 0z" stroke="#00BFC4" stroke-linecap="round" stroke-linejoin="round" stroke-miterlimit="10" fill="none"/><path d="M161.75 216.46a1.95 1.95 0 1 1-3.9 0 1.95 1.95 0 0 1 3.9 0z" fill="#00BFC4"/><path d="M161.75 216.46a1.95 1.95 0 1 1-3.9 0 1.95 1.95 0 0 1 3.9 0z" stroke="#00BFC4" stroke-linecap="round" stroke-linejoin="round" stroke-miterlimit="10" fill="none"/><path d="M181.41 216.46a1.95 1.95 0 1 1-3.9 0 1.95 1.95 0 0 1 3.9 0z" fill="#00BFC4"/><path d="M181.41 216.46a1.95 1.95 0 1 1-3.9 0 1.95 1.95 0 0 1 3.9 0z" stroke="#00BFC4" stroke-linecap="round" stroke-linejoin="round" stroke-miterlimit="10" fill="none"/><path d="M201.07 216.46a1.95 1.95 0 1 1-3.9 0 1.95 1.95 0 0 1 3.9 0z" fill="#00BFC4"/><path d="M201.07 216.46a1.95 1.95 0 1 1-3.9 0 1.95 1.95 0 0 1 3.9 0z" stroke="#00BFC4" stroke-linecap="round" stroke-linejoin="round" stroke-miterlimit="10" fill="none"/><path d="M220.73 216.46a1.95 1.95 0 1 1-3.9 0 1.95 1.95 0 0 1 3.9 0z" fill="#00BFC4"/><path d="M220.73 216.46a1.95 1.95 0 1 1-3.9 0 1.95 1.95 0 0 1 3.9 0z" stroke="#00BFC4" stroke-linecap="round" stroke-linejoin="round" stroke-miterlimit="10" fill="none"/><path d="M240.39 216.46a1.95 1.95 0 1 1-3.9 0 1.95 1.95 0 0 1 3.9 0z" fill="#00BFC4"/><path d="M240.39 216.46a1.95 1.95 0 1 1-3.9 0 1.95 1.95 0 0 1 3.9 0z" stroke="#00BFC4" stroke-linecap="round" stroke-linejoin="round" stroke-miterlimit="10" fill="none"/><g><path d="M260.05 216.46a1.95 1.95 0 1 1-3.9 0 1.95 1.95 0 0 1 3.9 0z" fill="#00BFC4"/><path d="M260.05 216.46a1.95 1.95 0 1 1-3.9 0 1.95 1.95 0 0 1 3.9 0z" stroke="#00BFC4" stroke-linecap="round" stroke-linejoin="round" stroke-miterlimit="10" fill="none"/></g><g><path d="M279.71 216.46a1.95 1.95 0 1 1-3.9 0 1.95 1.95 0 0 1 3.9 0z" fill="#00BFC4"/><path d="M279.71 216.46a1.95 1.95 0 1 1-3.9 0 1.95 1.95 0 0 1 3.9 0z" stroke="#00BFC4" stroke-linecap="round" stroke-linejoin="round" stroke-miterlimit="10" fill="none"/></g><g><path d="M299.38 216.46a1.95 1.95 0 1 1-3.9 0 1.95 1.95 0 0 1 3.9 0z" fill="#00BFC4"/><path d="M299.38 216.46a1.95 1.95 0 1 1-3.9 0 1.95 1.95 0 0 1 3.9 0z" stroke="#00BFC4" stroke-linecap="round" stroke-linejoin="round" stroke-miterlimit="10" fill="none"/></g><g><path d="M319.04 216.46a1.95 1.95 0 1 1-3.9 0 1.95 1.95 0 0 1 3.9 0z" fill="#00BFC4"/><path d="M319.04 216.46a1.95 1.95 0 1 1-3.9 0 1.95 1.95 0 0 1 3.9 0z" stroke="#00BFC4" stroke-linecap="round" stroke-linejoin="round" stroke-miterlimit="10" fill="none"/></g><g><path d="M338.7 216.46a1.95 1.95 0 1 1-3.9 0 1.95 1.95 0 0 1 3.9 0z" fill="#00BFC4"/><path d="M338.7 216.46a1.95 1.95 0 1 1-3.9 0 1.95 1.95 0 0 1 3.9 0z" stroke="#00BFC4" stroke-linecap="round" stroke-linejoin="round" stroke-miterlimit="10" fill="none"/></g><g><path d="M358.36 216.46a1.95 1.95 0 1 1-3.9 0 1.95 1.95 0 0 1 3.9 0z" fill="#00BFC4"/><path d="M358.36 216.46a1.95 1.95 0 1 1-3.9 0 1.95 1.95 0 0 1 3.9 0z" stroke="#00BFC4" stroke-linecap="round" stroke-linejoin="round" stroke-miterlimit="10" fill="none"/></g><g><path d="M378.02 216.46a1.95 1.95 0 1 1-3.9 0 1.95 1.95 0 0 1 3.9 0z" fill="#00BFC4"/><path d="M378.02 216.46a1.95 1.95 0 1 1-3.9 0 1.95 1.95 0 0 1 3.9 0z" stroke="#00BFC4" stroke-linecap="round" stroke-linejoin="round" stroke-miterlimit="10" fill="none"/></g><g><path d="M397.68 216.46a1.95 1.95 0 1 1-3.9 0 1.95 1.95 0 0 1 3.9 0z" fill="#00BFC4"/><path d="M397.68 216.46a1.95 1.95 0 1 1-3.9 0 1.95 1.95 0 0 1 3.9 0z" stroke="#00BFC4" stroke-linecap="round" stroke-linejoin="round" stroke-miterlimit="10" fill="none"/></g><g><path d="M416.03 216.46a1.95 1.95 0 1 1-3.9 0 1.95 1.95 0 0 1 3.9 0z" fill="#00BFC4"/><path d="M416.03 216.46a1.95 1.95 0 1 1-3.9 0 1.95 1.95 0 0 1 3.9 0z" stroke="#00BFC4" stroke-linecap="round" stroke-linejoin="round" stroke-miterlimit="10" fill="none"/></g><g><path d="M435.69 216.46a1.95 1.95 0 1 1-3.9 0 1.95 1.95 0 0 1 3.9 0z" fill="#00BFC4"/><path d="M435.69 216.46a1.95 1.95 0 1 1-3.9 0 1.95 1.95 0 0 1 3.9 0z" stroke="#00BFC4" stroke-linecap="round" stroke-linejoin="round" stroke-miterlimit="10" fill="none"/></g><path d="M64.77 131.77l4.48-5.22 4.48-5.01 4.48-4.8 4.48-4.58 4.48-4.37 4.48-4.16 4.48-3.94 4.48-3.73 4.48-3.51 4.48-3.31 4.48-3.11 4.48-2.9 4.48-2.68 4.48-2.47 4.48-2.24 4.48-2.02 4.48-1.79 4.48-1.55 4.48-1.35 4.48-1.15 4.48-.95 4.48-.71 4.48-.49 4.48-.24 4.48.05 4.47.38 4.48.67 4.48.93 4.48 1.13 4.48 1.31 4.48 1.43 4.48 1.52 4.48 1.6 4.48 1.92 4.48 2.21 4.48 2.48 4.48 2.69 4.48 2.87 4.48 3 4.48 3.1 4.48 3.14 4.48 3.15 4.48 3.12 4.48 3.05 4.48 3.1 4.48 3.25 4.48 3.36 4.48 3.46 4.48 3.52 4.48 3.57 4.48 3.58 4.48 3.57 4.48 3.54 4.47 3.61 4.48 3.69 4.48 3.71 4.48 3.71 4.48 3.66 4.48 3.56 4.48 3.47 4.48 3.45 4.48 3.45 4.48 3.44 4.48 3.43 4.48 3.42 4.48 3.41 4.48 3.41 4.48 3.39 4.48 3.39 4.48 3.37 4.48 3.36 4.48 3.36 4.48 3.34 4.48 3.33 4.48 3.32 4.48 3.31 4.48 3.3 4.48 3.28 4.48 3.28" stroke="#7CAE00" stroke-linejoin="round" stroke-miterlimit="10" fill="none"/><path d="M452.55 37.5v221.49H38.76V37.5h413.79z" stroke="#333" stroke-linecap="round" stroke-linejoin="round" stroke-miterlimit="10" fill="none"/><g clip-path="url(#a)"><text transform="translate(29.954 236.72)"><tspan x="-4.874" y="3" font-family="SourceSansPro-Regular" font-size="8.8" fill="#4D4D4D">10</tspan></text></g><g clip-path="url(#b)"><text transform="translate(29.954 214.57)"><tspan x="-4.874" y="3" font-family="SourceSansPro-Regular" font-size="8.8" fill="#4D4D4D">20</tspan></text></g><g clip-path="url(#c)"><text transform="translate(29.954 192.42)"><tspan x="-4.874" y="3" font-family="SourceSansPro-Regular" font-size="8.8" fill="#4D4D4D">30</tspan></text></g><g clip-path="url(#d)"><text transform="translate(29.954 170.27)"><tspan x="-4.874" y="3" font-family="SourceSansPro-Regular" font-size="8.8" fill="#4D4D4D">40</tspan></text></g><g clip-path="url(#e)"><text transform="translate(29.954 148.12)"><tspan x="-4.874" y="3" font-family="SourceSansPro-Regular" font-size="8.8" fill="#4D4D4D">50</tspan></text></g><g clip-path="url(#f)"><text transform="translate(29.954 125.98)"><tspan x="-4.874" y="3" font-family="SourceSansPro-Regular" font-size="8.8" fill="#4D4D4D">60</tspan></text></g><g clip-path="url(#g)"><text transform="translate(29.954 103.83)"><tspan x="-4.874" y="3" font-family="SourceSansPro-Regular" font-size="8.8" fill="#4D4D4D">70</tspan></text></g><g clip-path="url(#h)"><text transform="translate(29.954 81.68)"><tspan x="-4.874" y="3" font-family="SourceSansPro-Regular" font-size="8.8" fill="#4D4D4D">80</tspan></text></g><g clip-path="url(#i)"><text transform="translate(29.954 59.53)"><tspan x="-4.874" y="3" font-family="SourceSansPro-Regular" font-size="8.8" fill="#4D4D4D">90</tspan></text></g><g clip-path="url(#j)"><text transform="translate(27.77 37.38)"><tspan x="-7.06" y="3" font-family="SourceSansPro-Regular" font-size="8.8" fill="#4D4D4D">100</tspan></text></g><path d="M36.02 236.84h2.74m-2.74-22.15h2.74m-2.74-22.15h2.74m-2.74-22.15h2.74m-2.74-22.15h2.74m-2.74-22.15h2.74m-2.74-22.15h2.74M36.02 81.8h2.74m-2.74-22.15h2.74M36.02 37.5h2.74m16.18 224.22v-2.74m39.33 2.74v-2.74m39.32 2.74v-2.74m39.32 2.74v-2.74m39.32 2.74v-2.74m39.32 2.74v-2.74m39.32 2.74v-2.74m39.32 2.74v-2.74m39.32 2.74v-2.74m39.33 2.74v-2.74m39.32 2.74v-2.74" stroke="#333" stroke-linejoin="round" stroke-miterlimit="10" fill="none"/><g clip-path="url(#k)"><text transform="translate(55.443 266.68)"><tspan x="-10.343" y="3" font-family="SourceSansPro-Regular" font-size="8.8" fill="#4D4D4D">14:00</tspan></text></g><g clip-path="url(#l)"><text transform="translate(94.773 266.68)"><tspan x="-10.343" y="3" font-family="SourceSansPro-Regular" font-size="8.8" fill="#4D4D4D">15:00</tspan></text></g><g clip-path="url(#m)"><text transform="translate(134.093 266.68)"><tspan x="-10.343" y="3" font-family="SourceSansPro-Regular" font-size="8.8" fill="#4D4D4D">16:00</tspan></text></g><g clip-path="url(#n)"><text transform="translate(173.413 266.68)"><tspan x="-10.343" y="3" font-family="SourceSansPro-Regular" font-size="8.8" fill="#4D4D4D">17:00</tspan></text></g><g clip-path="url(#o)"><text transform="translate(212.733 266.68)"><tspan x="-10.343" y="3" font-family="SourceSansPro-Regular" font-size="8.8" fill="#4D4D4D">18:00</tspan></text></g><g clip-path="url(#p)"><text transform="translate(252.053 266.68)"><tspan x="-10.343" y="3" font-family="SourceSansPro-Regular" font-size="8.8" fill="#4D4D4D">19:00</tspan></text></g><g clip-path="url(#q)"><text transform="translate(291.373 266.68)"><tspan x="-10.343" y="3" font-family="SourceSansPro-Regular" font-size="8.8" fill="#4D4D4D">20:00</tspan></text></g><g clip-path="url(#r)"><text transform="translate(330.693 266.68)"><tspan x="-10.343" y="3" font-family="SourceSansPro-Regular" font-size="8.8" fill="#4D4D4D">21:00</tspan></text></g><g clip-path="url(#s)"><text transform="translate(370.013 266.68)"><tspan x="-10.343" y="3" font-family="SourceSansPro-Regular" font-size="8.8" fill="#4D4D4D">22:00</tspan></text></g><g clip-path="url(#t)"><text transform="translate(409.343 266.68)"><tspan x="-10.343" y="3" font-family="SourceSansPro-Regular" font-size="8.8" fill="#4D4D4D">23:00</tspan></text></g><g clip-path="url(#u)"><text transform="translate(448.663 266.68)"><tspan x="-10.343" y="3" font-family="SourceSansPro-Regular" font-size="8.8" fill="#4D4D4D">00:00</tspan></text></g><g clip-path="url(#v)"><text transform="translate(246.148 278.88)"><tspan x="-12.089" y="3.5" font-family="SourceSansPro-Regular" font-size="11">Time</tspan></text></g><g clip-path="url(#w)"><text transform="rotate(-90 78.616 69.416)"><tspan x="-32.268" y="3.5" font-family="SourceSansPro-Regular" font-size="11">Ticket cost (€)</tspan></text></g><g clip-path="url(#x)"><text transform="translate(502.857 111.63)"><tspan x="-33.297" y="3.5" font-family="SourceSansPro-Regular" font-size="11">Train operator</tspan></text></g><g><path d="M480.15 128.09a1.95 1.95 0 1 1-3.9 0 1.95 1.95 0 0 1 3.9 0z" fill="#F8766D"/><path d="M480.15 128.09a1.95 1.95 0 1 1-3.9 0 1.95 1.95 0 0 1 3.9 0z" stroke="#F8766D" stroke-linecap="round" stroke-linejoin="round" stroke-miterlimit="10" fill="none"/></g><g><path d="M480.15 145.37a1.95 1.95 0 1 1-3.9 0 1.95 1.95 0 0 1 3.9 0z" fill="#7CAE00"/><path d="M480.15 145.37a1.95 1.95 0 1 1-3.9 0 1.95 1.95 0 0 1 3.9 0z" stroke="#7CAE00" stroke-linecap="round" stroke-linejoin="round" stroke-miterlimit="10" fill="none"/></g><g><path d="M480.15 162.65a1.95 1.95 0 1 1-3.9 0 1.95 1.95 0 0 1 3.9 0z" fill="#00BFC4"/><path d="M480.15 162.65a1.95 1.95 0 1 1-3.9 0 1.95 1.95 0 0 1 3.9 0z" stroke="#00BFC4" stroke-linecap="round" stroke-linejoin="round" stroke-miterlimit="10" fill="none"/></g><g><path d="M480.15 179.93a1.95 1.95 0 1 1-3.9 0 1.95 1.95 0 0 1 3.9 0z" fill="#C77CFF"/><path d="M480.15 179.93a1.95 1.95 0 1 1-3.9 0 1.95 1.95 0 0 1 3.9 0z" stroke="#C77CFF" stroke-linecap="round" stroke-linejoin="round" stroke-miterlimit="10" fill="none"/></g><g clip-path="url(#y)"><text transform="translate(517.224 127.97)"><tspan x="-28.224" y="3" font-family="SourceSansPro-Regular" font-size="8.8">Deutsche Bahn</tspan></text></g><g clip-path="url(#z)"><text transform="translate(527.129 145.25)"><tspan x="-38.129" y="3" font-family="SourceSansPro-Regular" font-size="8.8">East Midlands Trains</tspan></text></g><g clip-path="url(#A)"><text transform="translate(494.696 162.53)"><tspan x="-5.696" y="3" font-family="SourceSansPro-Regular" font-size="8.8">NS</tspan></text></g><g clip-path="url(#B)"><text transform="translate(499.382 179.81)"><tspan x="-10.382" y="3" font-family="SourceSansPro-Regular" font-size="8.8">SNCF</tspan></text></g><g clip-path="url(#C)"><text transform="translate(245.496 10.14)"><tspan x="-120.376" y="4" font-family="SourceSansPro-Regular" font-size="13.2">Cost of single train tickets leaving European</tspan></text></g><g clip-path="url(#D)"><text transform="translate(245.67 24.39)"><tspan x="-114.02" y="4" font-family="SourceSansPro-Regular" font-size="13.2">capital cities on Friday December 23 2016</tspan></text></g></g></svg>