<svg xmlns="http://www.w3.org/2000/svg" xmlns:xlink="http://www.w3.org/1999/xlink" width="720" height="480" viewBox="0 0 540 360"><defs><symbol overflow="visible" id="q"><path d="M2.797.14c1.422 0 2.281-1.343 2.281-3.734 0-2.406-.86-3.687-2.281-3.687C1.359-7.281.5-6 .5-3.594c0 2.39.86 3.735 2.297 3.735zm0-.75c-.844 0-1.406-.89-1.406-2.984s.562-2.953 1.406-2.953c.828 0 1.375.86 1.375 2.953 0 2.094-.547 2.985-1.375 2.985zm0 0"/></symbol><symbol overflow="visible" id="r"><path d="M.453 0h4.61v-.797H2.983c-.359 0-.796.031-1.187.063C3.484-2.5 4.703-3.828 4.703-5.172c0-1.266-.812-2.11-2.14-2.11-.922 0-1.563.438-2.157 1.095l.531.515c.407-.484.922-.86 1.516-.86.906 0 1.36.579 1.36 1.407 0 1.14-1.22 2.438-3.36 4.578zm0 0"/></symbol><symbol overflow="visible" id="s"><path d="M1.172-2.719l1.656-2.437c.203-.344.406-.657.594-1h.047c-.031.375-.063.984-.063 1.375v2.062zm4.078 0h-.969V-7.14H3.25L.187-2.578v.61h3.22V0h.874v-1.969h.969zm0 0"/></symbol><symbol overflow="visible" id="t"><path d="M3-.594c-.906 0-1.453-.75-1.563-2.14.485-.672 1.032-.938 1.485-.938.89 0 1.328.578 1.328 1.516C4.25-1.22 3.703-.594 3-.594zm1.984-5.922c-.406-.437-.953-.765-1.718-.765C1.844-7.281.53-6.171.53-3.313.531-1.015 1.61.142 3 .142c1.156 0 2.125-.938 2.125-2.297 0-1.469-.813-2.219-2.047-2.219-.578 0-1.219.36-1.672.906.047-2.265.89-3.047 1.89-3.047.438 0 .876.22 1.173.563zm0 0"/></symbol><symbol overflow="visible" id="u"><path d="M1.922-.797v-.047c.453-.453.703-.937.703-1.719 0-.234-.031-.421-.063-.624h1.641v-.626H2.422c-.14-.484-.266-.921-.266-1.39 0-.766.438-1.313 1.235-1.313.515 0 .859.25 1.14.594l.532-.516c-.391-.484-.938-.843-1.735-.843-1.25 0-2.078.797-2.078 2.062 0 .469.156.922.297 1.407h-.203l-.75.03v.595h1.125c.047.203.078.39.078.609 0 .844-.438 1.61-1.188 2.015V0h4.47v-.797zm0 0"/></symbol><symbol overflow="visible" id="T"><path d="M1.016 0h2.328C5 0 6.14-.703 6.14-2.156c0-1-.625-1.578-1.704-1.75v-.047c.86-.219 1.282-.875 1.282-1.61 0-1.28-1.032-1.78-2.532-1.78H1.017zm.921-4.219v-2.39h1.125c1.157 0 1.735.328 1.735 1.125 0 .828-.516 1.265-1.766 1.265zm0 3.485v-2.782H3.22c1.281 0 2 .407 2 1.313 0 1-.735 1.469-2 1.469zm0 0"/></symbol><symbol overflow="visible" id="U"><path d="M.516-2.719c0 1.781 1.156 2.86 2.609 2.86.734 0 1.328-.266 1.797-.563l-.328-.61a2.414 2.414 0 0 1-1.36.423c-1.03 0-1.75-.735-1.812-1.907h3.672c.031-.14.031-.312.031-.515 0-1.547-.781-2.547-2.172-2.547C1.72-5.578.516-4.5.516-2.718zm.89-.406c.125-1.094.813-1.719 1.578-1.719.844 0 1.344.61 1.344 1.719zm0 0"/></symbol><symbol overflow="visible" id="V"><path d="M3.578-7.938a2.673 2.673 0 0 0-.906-.171c-1.094 0-1.594.687-1.594 1.796v.875l-.734.047v.704h.734V0H2v-4.688h1.14v-.75H2v-.875c0-.687.234-1.046.75-1.046.203 0 .422.046.625.14zm0 0"/></symbol><symbol overflow="visible" id="W"><path d="M.516-2.719C.516-.906 1.703.141 3.03.141c1.344 0 2.531-1.047 2.531-2.86 0-1.812-1.187-2.86-2.53-2.86-1.329 0-2.516 1.048-2.516 2.86zm.953 0c0-1.25.64-2.094 1.562-2.094.953 0 1.578.844 1.578 2.094S3.984-.625 3.031-.625c-.922 0-1.562-.844-1.562-2.094zm0 0"/></symbol><symbol overflow="visible" id="X"><path d="M.922 0h.922v-3.5c.36-.906.906-1.25 1.375-1.25.219 0 .344.031.515.094l.188-.813a1.364 1.364 0 0 0-.578-.11c-.625 0-1.188.438-1.547 1.126h-.031l-.079-.984H.922zm0 0"/></symbol><symbol overflow="visible" id="Y"><path d="M1.922-2.984l.36-1.125c.265-.813.5-1.625.718-2.485h.047c.234.86.469 1.672.734 2.485l.36 1.125zM5.062 0h1L3.579-7.344H2.516L.03 0h.953l.704-2.234h2.687zm0 0"/></symbol><symbol overflow="visible" id="Z"><path d="M1.078-1.688c0 1.079.39 1.829 1.547 1.829.344 0 .719-.11 1.016-.203l-.172-.704c-.188.079-.438.157-.625.157C2.219-.61 2-1 2-1.672v-3.016h1.469v-.75H2v-1.53h-.766l-.109 1.53-.86.047v.704h.813zm0 0"/></symbol><symbol overflow="visible" id="v"><path d="M1.266 0h1.156v-4.11h3.5v-.984h-3.5v-3.11h4.125v-.983H1.266zm0 0"/></symbol><symbol overflow="visible" id="w"><path d="M.813-1.766c0 1.22.859 1.938 2 1.938.843 0 1.593-.453 2.25-.984h.03L5.189 0h.953v-4.172c0-1.687-.688-2.797-2.36-2.797-1.094 0-2.047.469-2.672.875l.454.797c.53-.36 1.234-.719 2.03-.719C4.704-6.016 5-5.187 5-4.312 2.094-3.985.812-3.25.812-1.767zm1.14-.078c0-.875.766-1.437 3.047-1.718v1.89c-.656.594-1.203.922-1.86.922-.671 0-1.187-.328-1.187-1.094zm0 0"/></symbol><symbol overflow="visible" id="x"><path d="M1.14 0h1.157v-4.375c.469-1.14 1.14-1.563 1.719-1.563.28 0 .437.047.656.11l.234-1c-.234-.11-.437-.14-.734-.14-.766 0-1.469.546-1.938 1.39h-.03l-.11-1.219H1.14zm0 0"/></symbol><symbol overflow="visible" id="y"><path d="M.64-3.39C.64-1.157 2.095.171 3.907.171c.922 0 1.656-.328 2.235-.703l-.407-.75c-.5.312-1.046.531-1.687.531-1.297 0-2.188-.938-2.266-2.406h4.594c.016-.156.031-.39.031-.625 0-1.938-.968-3.188-2.703-3.188-1.562 0-3.062 1.36-3.062 3.578zm1.126-.516c.14-1.375 1-2.156 1.953-2.156 1.062 0 1.687.765 1.687 2.156zm0 0"/></symbol><symbol overflow="visible" id="M"><path d="M1.266 0h1.156v-4.328h4.265V0h1.188v-9.188H6.687v3.86H2.423v-3.86H1.266zm0 0"/></symbol><symbol overflow="visible" id="N"><path d="M.64-3.39C.64-1.14 2.126.171 3.798.171c1.656 0 3.14-1.313 3.14-3.563 0-2.28-1.484-3.578-3.14-3.578C2.125-6.969.64-5.672.64-3.39zm1.188 0c0-1.563.797-2.626 1.969-2.626 1.172 0 1.953 1.063 1.953 2.625 0 1.563-.781 2.61-1.953 2.61-1.172 0-1.969-1.047-1.969-2.61zm0 0"/></symbol><symbol overflow="visible" id="O"><path d="M1.047-2.484c0 1.734.64 2.656 2.094 2.656.937 0 1.609-.5 2.234-1.234h.047L5.516 0h.953v-6.797H5.312v4.828c-.64.797-1.125 1.14-1.828 1.14-.89 0-1.265-.546-1.265-1.812v-4.156H1.047zm0 0"/></symbol><symbol overflow="visible" id="P"><path d="M.39-.766c.641.532 1.563.938 2.532.938 1.61 0 2.5-.922 2.5-2.031 0-1.297-1.094-1.704-2.078-2.063-.766-.297-1.516-.531-1.516-1.172 0-.515.39-.984 1.25-.984.61 0 1.094.25 1.563.61l.546-.735c-.53-.422-1.265-.766-2.125-.766-1.468 0-2.328.844-2.328 1.922 0 1.156 1.063 1.61 2.032 1.969.734.281 1.546.594 1.546 1.281 0 .594-.453 1.063-1.343 1.063-.813 0-1.422-.329-2-.813zm0 0"/></symbol><symbol overflow="visible" id="R"><path d="M1.14 0h1.157v-4.922C2.922-5.625 3.5-5.984 4-5.984c.875 0 1.281.546 1.281 1.828V0h1.14v-4.922c.641-.703 1.188-1.062 1.72-1.062.843 0 1.25.546 1.25 1.828V0h1.156v-4.313c0-1.734-.672-2.656-2.078-2.656-.828 0-1.531.532-2.235 1.297-.28-.812-.843-1.297-1.875-1.297-.812 0-1.53.5-2.125 1.14h-.03l-.11-.968H1.14zm0 0"/></symbol><symbol overflow="visible" id="S"><path d="M2.625 0h1.344l2.406-6.797h-1.14l-1.282 3.86c-.203.671-.422 1.359-.625 2h-.047a60.22 60.22 0 0 1-.64-2l-1.282-3.86H.172zm0 0"/></symbol><symbol overflow="visible" id="z"><path d="M0-1.266v-1.093h-4.797c-.969 0-1.953.078-2.875.14v-.047l1.89-1L0-6.594v-1.203h-9.188v1.11h4.75c.97 0 2-.094 2.922-.141v.047l-1.906 1-5.765 3.312v1.203zm0 0"/></symbol><symbol overflow="visible" id="A"><path d="M-2.484-1.047c1.734 0 2.656-.64 2.656-2.094 0-.937-.5-1.609-1.234-2.234v-.047L0-5.516v-.953h-6.797v1.157h4.828c.797.64 1.14 1.125 1.14 1.828 0 .89-.546 1.265-1.812 1.265h-4.156v1.172zm0 0"/></symbol><symbol overflow="visible" id="B"><path d="M0-1.14v-1.157h-4.922C-5.625-2.922-5.984-3.5-5.984-4c0-.875.546-1.281 1.828-1.281H0v-1.14h-4.922c-.703-.641-1.062-1.188-1.062-1.72 0-.843.546-1.25 1.828-1.25H0v-1.156h-4.313c-1.734 0-2.656.672-2.656 2.078 0 .828.532 1.531 1.297 2.235-.812.28-1.297.843-1.297 1.875 0 .812.5 1.53 1.14 2.125v.03l-.968.11v.953zm0 0"/></symbol><symbol overflow="visible" id="C"><path d="M0-1.14v-.938l-.672-.094v-.047c.531-.594.844-1.312.844-1.937 0-1.563-1.36-2.938-3.688-2.938-2.093 0-3.453.938-3.453 2.703 0 .75.407 1.5.953 2.125l-1.234-.03h-2.719v1.155zm-1.516-1.157h-3.562C-5.688-2.937-6-3.547-6-4.109c0-1.297 1-1.797 2.5-1.797 1.688 0 2.703.828 2.703 1.937 0 .453-.203 1.078-.719 1.672zm0 0"/></symbol><symbol overflow="visible" id="D"><path d="M-3.39-.64C-1.157-.64.171-2.095.171-3.907c0-.922-.328-1.656-.703-2.235l-.75.407c.312.5.531 1.046.531 1.687 0 1.297-.938 2.188-2.406 2.266v-4.594a6.638 6.638 0 0 0-.625-.031c-1.938 0-3.188.968-3.188 2.703 0 1.562 1.36 3.062 3.578 3.062zm-.516-1.126c-1.375-.14-2.156-1-2.156-1.953 0-1.062.765-1.687 2.156-1.687zm0 0"/></symbol><symbol overflow="visible" id="E"><path d="M0-1.14v-1.157h-4.375c-1.14-.469-1.563-1.14-1.563-1.719 0-.28.047-.437.11-.656l-1-.234c-.11.234-.14.437-.14.734 0 .766.546 1.469 1.39 1.938v.03l-1.219.11v.953zm0 0"/></symbol><symbol overflow="visible" id="G"><path d="M-3.39-.64C-1.14-.64.171-2.126.171-3.798c0-1.656-1.313-3.14-3.563-3.14-2.28 0-3.578 1.484-3.578 3.14 0 1.672 1.297 3.156 3.578 3.156zm0-1.188c-1.563 0-2.626-.797-2.626-1.969 0-1.172 1.063-1.953 2.625-1.953 1.563 0 2.61.781 2.61 1.953 0 1.172-1.047 1.969-2.61 1.969zm0 0"/></symbol><symbol overflow="visible" id="H"><path d="M-9.906-4.469a3.147 3.147 0 0 0-.235 1.14c0 1.36.875 1.985 2.266 1.985h1.078l.063.922h.875v-.922H0v-1.14h-5.86v-1.454h-.937v1.454h-1.078c-.875 0-1.328-.313-1.328-.954 0-.265.062-.53.172-.78zm0 0"/></symbol><symbol overflow="visible" id="I"><path d="M.766-1.156c.828 0 1.328.156 1.328.828 0 .25-.047.484-.11.656l.875.234a2.84 2.84 0 0 0 .172-1.015c0-1.36-.875-1.86-2.265-1.86h-7.563v1.157zm-8.97-.594c0-.438-.312-.781-.75-.781-.437 0-.733.344-.733.781 0 .453.296.797.734.797.437 0 .75-.344.75-.797zm0 0"/></symbol><symbol overflow="visible" id="J"><path d="M0-1.14v-1.157h-4.922c-.687-.687-1.062-1.156-1.062-1.86 0-.89.546-1.296 1.828-1.296H0v-1.14h-4.313c-1.734 0-2.656.64-2.656 2.077 0 .938.5 1.625 1.14 2.282v.03l-.968.11v.953zm0 0"/></symbol><symbol overflow="visible" id="K"><path d="M1.875-.688l.906.22a2.02 2.02 0 0 0 .14-.798c0-1.359-1.015-2.062-2.358-2.546l-7.36-2.563v1.125l3.766 1.219c.594.187 1.297.375 1.906.578v.047c-.625.219-1.328.453-1.906.656l-3.766 1.39v1.188L.016-2.89l.5.141c.843.281 1.453.781 1.453 1.547 0 .172-.047.375-.094.516zm0 0"/></symbol><symbol overflow="visible" id="L"><path d="M-.766-.39c.532-.641.938-1.563.938-2.532 0-1.61-.922-2.5-2.031-2.5-1.297 0-1.704 1.094-2.063 2.078-.297.766-.531 1.516-1.172 1.516-.515 0-.984-.39-.984-1.25 0-.61.25-1.094.61-1.563l-.735-.546c-.422.53-.766 1.265-.766 2.125 0 1.468.844 2.328 1.922 2.328 1.156 0 1.61-1.063 1.969-2.032.281-.734.594-1.546 1.281-1.546.594 0 1.063.453 1.063 1.343 0 .813-.329 1.422-.813 2zm0 0"/></symbol><symbol overflow="visible" id="aa"><path d="M.656-4.125c0 2.688 1.531 4.281 3.61 4.281 1.062 0 1.875-.453 2.515-1.203l-.578-.64c-.531.593-1.11.921-1.906.921-1.563 0-2.563-1.312-2.563-3.39 0-2.047 1.032-3.344 2.61-3.344.687 0 1.218.313 1.656.781l.594-.672a3.013 3.013 0 0 0-2.266-1.015c-2.11 0-3.672 1.625-3.672 4.281zm0 0"/></symbol><symbol overflow="visible" id="ab"><path d="M.578-3.047C.578-1.016 1.922.156 3.406.156c1.5 0 2.844-1.172 2.844-3.203 0-2.047-1.344-3.219-2.844-3.219-1.484 0-2.828 1.172-2.828 3.22zm1.078 0c0-1.406.719-2.375 1.75-2.375 1.063 0 1.766.969 1.766 2.375 0 1.39-.703 2.344-1.766 2.344-1.031 0-1.75-.953-1.75-2.344zm0 0"/></symbol><symbol overflow="visible" id="ac"><path d="M1.031 0h1.032v-4.438c.562-.625 1.078-.937 1.546-.937.766 0 1.141.484 1.141 1.64V0h1.031v-4.438c.563-.625 1.063-.937 1.532-.937.765 0 1.14.484 1.14 1.64V0h1.031v-3.875c0-1.563-.609-2.39-1.859-2.39-.75 0-1.375.468-2.016 1.171-.25-.734-.765-1.172-1.687-1.172-.735 0-1.375.454-1.906 1.032h-.032l-.093-.891h-.86zm0 0"/></symbol><symbol overflow="visible" id="ad"><path d="M.938-2.234c0 1.546.593 2.39 1.89 2.39.844 0 1.438-.453 2.016-1.11h.031L4.969 0h.843v-6.125h-1.03v4.344C4.202-1.063 3.765-.75 3.14-.75c-.813 0-1.157-.484-1.157-1.625v-3.75H.938zm0 0"/></symbol><symbol overflow="visible" id="ae"><path d="M1.203-1.89c0 1.202.453 2.046 1.75 2.046.39 0 .797-.125 1.14-.234L3.892-.86c-.204.078-.485.171-.688.171-.703 0-.953-.437-.953-1.187v-3.406h1.656v-.844H2.25v-1.703h-.86l-.124 1.703-.97.063v.78h.907zm0 0"/></symbol><symbol overflow="visible" id="af"><path d="M.578-3.047c0 2 1.297 3.203 2.938 3.203C4.344.156 5-.14 5.53-.484l-.375-.672c-.453.281-.937.468-1.515.468-1.172 0-1.97-.828-2.047-2.14h4.14c.016-.156.032-.36.032-.578 0-1.75-.875-2.86-2.438-2.86-1.406 0-2.75 1.22-2.75 3.22zm1.016-.469c.125-1.234.906-1.937 1.75-1.937.969 0 1.515.687 1.515 1.937zm0 0"/></symbol><symbol overflow="visible" id="ah"><path d="M.734-1.594c0 1.11.766 1.75 1.797 1.75.75 0 1.438-.406 2.031-.89h.016L4.672 0h.86v-3.75c0-1.531-.626-2.516-2.126-2.516-.984 0-1.844.422-2.406.782l.406.718c.485-.328 1.11-.656 1.828-.656 1 0 1.266.766 1.266 1.547-2.61.281-3.766.953-3.766 2.281zm1.016-.062c0-.782.688-1.297 2.75-1.547V-1.5c-.594.531-1.094.813-1.672.813-.61 0-1.078-.282-1.078-.97zm0 0"/></symbol><symbol overflow="visible" id="ai"><path d="M1.031 0h1.032v-4.438c.624-.609 1.046-.937 1.671-.937.813 0 1.172.484 1.172 1.64V0h1.032v-3.875c0-1.563-.579-2.39-1.875-2.39-.844 0-1.47.452-2.047 1.03h-.032l-.093-.89h-.86zm0 0"/></symbol><symbol overflow="visible" id="aj"><path d="M.594-3.047C.594-1 1.594.156 3.125.156c.719 0 1.375-.406 1.844-.875h.047L5.094 0h.86v-8.969H4.905v2.36l.063 1.046C4.422-6 3.953-6.266 3.25-6.266 1.844-6.266.594-5.03.594-3.046zm1.062-.015c0-1.391.782-2.344 1.766-2.344.5 0 .969.187 1.484.64v3.204c-.5.562-.984.843-1.562.843-1.063 0-1.688-.875-1.688-2.344zm0 0"/></symbol><symbol overflow="visible" id="ak"><path d="M1.14 0h1.032v-3.89h3.844V0h1.062v-8.266H6.016v3.47H2.172v-3.47H1.14zm0 0"/></symbol><symbol overflow="visible" id="al"><path d="M.531-1.078A3.982 3.982 0 0 0 3.421.156c1.735 0 2.813-1.047 2.813-2.36 0-1.218-.75-1.796-1.703-2.202l-1.172-.5c-.656-.282-1.375-.578-1.375-1.375 0-.75.625-1.219 1.547-1.219.766 0 1.375.313 1.875.781l.563-.672A3.39 3.39 0 0 0 3.53-8.406c-1.5 0-2.594.922-2.594 2.187 0 1.203.891 1.797 1.672 2.125l1.188.516c.781.36 1.36.625 1.36 1.469 0 .796-.641 1.343-1.72 1.343-.859 0-1.687-.421-2.28-1.03zm0 0"/></symbol><symbol overflow="visible" id="am"><path d="M1 0h4.531v-.86H3.86V-8.03h-.78c-.454.265-.97.469-1.704.594v.656h1.453V-.86H1zm0 0"/></symbol><symbol overflow="visible" id="an"><path d="M1.047.688c0 .75-.156 1.203-.75 1.203-.219 0-.438-.047-.594-.11l-.203.782c.203.093.531.171.906.171 1.219 0 1.672-.796 1.672-2.046v-6.813H1.047zm.531-8.063c.39 0 .703-.281.703-.672 0-.406-.312-.672-.703-.672-.406 0-.719.266-.719.672 0 .39.313.672.72.672zm0 0"/></symbol><symbol overflow="visible" id="ao"><path d="M1.031 0h1.032v-3.922c.421-1.047 1.03-1.422 1.546-1.422.25 0 .391.047.594.11l.203-.907c-.203-.093-.39-.125-.656-.125-.688 0-1.313.485-1.734 1.25h-.032l-.093-1.109h-.86zm0 0"/></symbol><symbol overflow="visible" id="ap"><path d="M.61 1.688L.421 2.5c.187.078.437.125.719.125C2.375 2.625 3 1.719 3.42.5l2.313-6.625H4.72l-1.094 3.39c-.156.547-.344 1.172-.516 1.735h-.046a73.762 73.762 0 0 0-.594-1.734l-1.25-3.391H.156L2.61.015 2.47.47c-.25.75-.688 1.312-1.39 1.312-.141 0-.329-.062-.47-.093zm0 0"/></symbol><symbol overflow="visible" id="aq"><path d="M.36-.688c.578.47 1.406.844 2.265.844 1.453 0 2.25-.844 2.25-1.828 0-1.156-.984-1.531-1.86-1.86C2.313-3.796 1.657-4 1.657-4.577c0-.469.344-.89 1.11-.89.546 0 .984.234 1.406.546l.484-.656c-.468-.375-1.125-.688-1.89-.688-1.329 0-2.11.75-2.11 1.735 0 1.031.953 1.453 1.828 1.765.657.25 1.391.532 1.391 1.157 0 .53-.406.953-1.203.953-.735 0-1.281-.297-1.797-.735zm0 0"/></symbol><symbol overflow="visible" id="ar"><path d="M.172 0h1.094l.828-1.422c.203-.375.406-.75.61-1.094h.062c.218.344.453.735.656 1.094L4.312 0h1.125L3.454-3.078l1.844-3.047H4.219l-.75 1.36c-.188.312-.375.671-.547 1.015h-.047c-.219-.344-.422-.703-.61-1.016l-.812-1.359H.328l1.844 2.922zm0 0"/></symbol><symbol overflow="visible" id="as"><path d="M.578-3.047c0 2.031 1.25 3.203 2.875 3.203.735 0 1.438-.312 1.985-.797l-.47-.687c-.359.328-.843.625-1.437.625-1.11 0-1.875-.953-1.875-2.344 0-1.406.797-2.375 1.907-2.375.5 0 .874.234 1.234.547l.516-.672a2.498 2.498 0 0 0-1.782-.719c-1.578 0-2.953 1.172-2.953 3.22zm0 0"/></symbol><symbol overflow="visible" id="at"><path d="M1.031-1.234c0 .89.313 1.39 1.094 1.39.281 0 .453-.047.594-.11l-.14-.78c-.11.03-.157.03-.22.03-.156 0-.296-.124-.296-.452V-8.97H1.03zm0 0"/></symbol><symbol overflow="visible" id="au"><path d="M.844 2.14C1.859 1.72 2.5.876 2.5-.218c0-.75-.328-1.218-.875-1.218-.422 0-.766.28-.766.734 0 .469.344.719.735.719.047 0 .093 0 .125-.016 0 .688-.422 1.219-1.125 1.531zm0 0"/></symbol><symbol overflow="visible" id="av"><path d="M1.031 0h.828l.094-.61h.031c.547.485 1.188.766 1.75.766 1.407 0 2.657-1.234 2.657-3.312 0-1.89-.844-3.11-2.438-3.11-.672 0-1.36.36-1.906.844l.015-1.11v-2.437h-1.03zm1.032-1.36v-3.218c.578-.531 1.124-.828 1.64-.828 1.156 0 1.61.906 1.61 2.265 0 1.5-.735 2.422-1.75 2.422-.407 0-.954-.172-1.5-.64zm0 0"/></symbol><symbol overflow="visible" id="aw"><path d="M2.36 0h1.203l2.171-6.125h-1.03L3.546-2.641C3.375-2.047 3.172-1.42 3-.844h-.047c-.187-.578-.39-1.203-.578-1.797L1.219-6.125H.156zm0 0"/></symbol><symbol overflow="visible" id="ax"><path d="M2.047-.547c.562.438 1.125.703 1.687.703 1.407 0 2.657-1.234 2.657-3.297 0-1.906-.844-3.125-2.422-3.125-.719 0-1.406.391-1.953.844h-.032l-.093-.703h-.86v8.703h1.032V.516zm.015-.812v-3.22c.61-.53 1.126-.827 1.641-.827 1.156 0 1.61.906 1.61 2.265 0 1.5-.735 2.422-1.75 2.422-.407 0-.938-.172-1.5-.64zm0 0"/></symbol><symbol overflow="visible" id="ay"><path d="M1.516 0h1.39v-4.36h1.985c2.421 0 4.062-1.093 4.062-3.421 0-2.422-1.625-3.235-4.062-3.235H1.516zm1.39-5.516V-9.89H4.72c1.906 0 2.843.516 2.843 2.11 0 1.562-.921 2.265-2.843 2.265zm0 0"/></symbol><symbol overflow="visible" id="az"><path d="M.766-4.063c0 2.704 1.78 4.266 3.78 4.266 2 0 3.782-1.562 3.782-4.266 0-2.734-1.781-4.296-3.781-4.296S.766-6.797.766-4.063zm1.437 0c0-1.89.953-3.156 2.344-3.156 1.422 0 2.36 1.266 2.36 3.157 0 1.859-.938 3.125-2.36 3.125-1.39 0-2.344-1.266-2.344-3.125zm0 0"/></symbol><symbol overflow="visible" id="aA"><path d="M.469-.922C1.25-.282 2.344.203 3.516.203 5.437.203 6.5-.907 6.5-2.234c0-1.547-1.313-2.032-2.484-2.47-.922-.359-1.813-.64-1.813-1.405 0-.625.469-1.188 1.485-1.188.734 0 1.312.313 1.874.734l.657-.875c-.625-.5-1.516-.921-2.547-.921-1.75 0-2.797 1-2.797 2.312 0 1.375 1.281 1.938 2.438 2.36.89.328 1.859.703 1.859 1.53 0 .72-.531 1.282-1.61 1.282-.968 0-1.703-.406-2.406-.969zm0 0"/></symbol><symbol overflow="visible" id="aB"><path d="M1.61-2.516c0 1.61.593 2.72 2.343 2.72.5 0 1.047-.157 1.5-.298L5.187-1.14c-.265.094-.64.22-.921.22C3.328-.922 3-1.5 3-2.5v-4.531h2.203v-1.125H3v-2.297H1.844l-.172 2.297-1.266.078v1.047H1.61zm0 0"/></symbol><symbol overflow="visible" id="aC"><path d="M.688-3.672h3.859v-1.062H.687zm0 0"/></symbol><symbol overflow="visible" id="aD"><path d="M1.375 0H2.75v-5.906c.766-.844 1.453-1.266 2.047-1.266 1.047 0 1.531.656 1.531 2.188V0h1.375v-5.906c.766-.844 1.422-1.266 2.063-1.266 1.015 0 1.5.656 1.5 2.188V0h1.375v-5.172c0-2.078-.797-3.187-2.485-3.187-.984 0-1.828.64-2.687 1.562-.328-.984-1-1.562-2.25-1.562-.969 0-1.828.593-2.532 1.375h-.046l-.125-1.172H1.375zm0 0"/></symbol><symbol overflow="visible" id="aE"><path d="M3.14 0h1.61l2.89-8.156H6.282L4.734-3.531c-.234.812-.5 1.64-.734 2.406h-.063a48.317 48.317 0 0 1-.765-2.406L1.625-8.156H.203zm0 0"/></symbol><symbol overflow="visible" id="aF"><path d="M.766-4.063C.766-1.39 2.5.204 4.687.204c1.11 0 1.985-.39 2.688-.844l-.484-.906c-.61.39-1.266.64-2.032.64-1.562 0-2.625-1.109-2.718-2.874h5.5c.03-.203.046-.469.046-.75 0-2.344-1.171-3.828-3.25-3.828C2.563-8.36.767-6.734.767-4.063zm1.343-.625c.172-1.64 1.22-2.578 2.36-2.578 1.281 0 2.015.922 2.015 2.579zm0 0"/></symbol><symbol overflow="visible" id="aH"><path d="M1.39.922c0 1-.202 1.594-1 1.594-.296 0-.578-.063-.78-.125l-.282 1.03c.281.126.703.22 1.203.22 1.64 0 2.235-1.047 2.235-2.72v-9.077H1.39zm.704-10.766c.531 0 .953-.375.953-.89 0-.532-.422-.891-.953-.891-.531 0-.953.36-.953.89 0 .516.421.891.953.891zm0 0"/></symbol><symbol overflow="visible" id="aI"><path d="M1.266-2.984c0 2.078.765 3.187 2.5 3.187C4.89.203 5.687-.39 6.453-1.28H6.5L6.625 0h1.14v-8.156h-1.39v5.781c-.766.969-1.36 1.39-2.188 1.39-1.078 0-1.53-.656-1.53-2.187v-4.984H1.265zm0 0"/></symbol><symbol overflow="visible" id="aJ"><path d="M1.375 0H2.75v-5.234c.563-1.391 1.375-1.891 2.078-1.891.328 0 .516.047.781.14l.266-1.218c-.266-.11-.516-.156-.875-.156-.922 0-1.766.656-2.313 1.671h-.046l-.125-1.468H1.375zm0 0"/></symbol><symbol overflow="visible" id="aK"><path d="M1.375 0H2.75v-5.906c.828-.828 1.406-1.266 2.234-1.266 1.079 0 1.547.656 1.547 2.188V0h1.375v-5.172c0-2.078-.765-3.187-2.484-3.187-1.125 0-1.969.593-2.734 1.375H2.64l-.125-1.172H1.375zm0 0"/></symbol><symbol overflow="visible" id="aL"><path d="M.828 2.25L.547 3.344c.281.094.594.172.969.172C3.156 3.516 4 2.28 4.562.672l3.079-8.828H6.297L4.844-3.641c-.219.72-.453 1.563-.688 2.297h-.078c-.25-.75-.531-1.593-.781-2.297L1.625-8.156H.203L3.484.016l-.187.609c-.344 1-.922 1.75-1.86 1.75-.187 0-.453-.078-.609-.125zm0 0"/></symbol><symbol overflow="visible" id="aM"><path d="M1.969 1.375c0-.469.25-.953.843-1.375.344.094.735.14 1.047.14h1.422c1.047 0 1.64.25 1.64 1 0 .86-1.03 1.673-2.593 1.673-1.469 0-2.36-.563-2.36-1.438zM.75 1.563c0 1.406 1.39 2.203 3.375 2.203 2.547 0 4.14-1.313 4.14-2.829C8.266-.421 7.313-1 5.407-1H3.828c-1.11 0-1.437-.375-1.437-.89 0-.454.234-.735.515-.985.375.188.828.281 1.219.281 1.672 0 3-1.078 3-2.828 0-.687-.281-1.312-.672-1.687h1.672v-1.047H5.297a3.214 3.214 0 0 0-1.172-.203c-1.656 0-3.063 1.125-3.063 2.906 0 .969.516 1.766 1.047 2.187v.079c-.406.28-.89.812-.89 1.515 0 .625.328 1.063.734 1.313v.078C1.203.219.75.875.75 1.563zm3.375-5.079c-.938 0-1.719-.75-1.719-1.937 0-1.203.766-1.906 1.719-1.906.969 0 1.734.703 1.734 1.906 0 1.187-.78 1.937-1.734 1.937zm0 0"/></symbol><symbol overflow="visible" id="aN"><path d="M.969-2.11C.969-.655 2 .204 3.375.204c1.016 0 1.922-.531 2.703-1.172h.031L6.234 0h1.141v-5c0-2.031-.844-3.36-2.844-3.36-1.312 0-2.453.563-3.203 1.047l.547.97c.64-.438 1.484-.876 2.438-.876C5.64-7.219 6-6.219 6-5.172 2.516-4.782.969-3.89.969-2.109zm1.36-.109c0-1.047.937-1.719 3.671-2.047V-2c-.797.703-1.453 1.094-2.234 1.094-.813 0-1.438-.39-1.438-1.313zm0 0"/></symbol><symbol overflow="visible" id="aO"><path d="M1.375-1.64c0 1.187.422 1.843 1.469 1.843.36 0 .594-.047.781-.14L3.437-.97c-.14.031-.218.031-.296.031-.204 0-.391-.171-.391-.609v-10.406H1.375zm0 0"/></symbol><symbol overflow="visible" id="aP"><path d="M.234 0h1.438l1.11-1.89c.28-.516.546-1 .827-1.47h.063c.312.47.61.97.89 1.47L5.766 0H7.25L4.61-4.11l2.468-4.046H5.625L4.641-6.36c-.25.437-.516.906-.75 1.359h-.063c-.281-.453-.547-.922-.812-1.36L1.937-8.155h-1.5l2.47 3.89zm0 0"/></symbol><symbol overflow="visible" id="aQ"><path d="M2.719-.734c.765.578 1.515.937 2.265.937 1.875 0 3.532-1.625 3.532-4.406 0-2.531-1.125-4.156-3.22-4.156-.968 0-1.874.515-2.609 1.14h-.046l-.125-.937H1.375V3.438H2.75V.688zm.031-1.079v-4.28c.813-.72 1.5-1.11 2.188-1.11 1.546 0 2.156 1.203 2.156 3 0 2.016-1 3.25-2.344 3.25-.531 0-1.25-.235-2-.86zm0 0"/></symbol><symbol overflow="visible" id="aR"><path d="M2.078-9.844c.547 0 .969-.375.969-.89 0-.532-.422-.891-.969-.891-.531 0-.953.36-.953.89 0 .516.422.891.953.891zM1.375 0H2.75v-8.156H1.375zm0 0"/></symbol><clipPath id="a"><path d="M43.125 272h395.578v2H43.125zm0 0"/></clipPath><clipPath id="b"><path d="M43.125 198h395.578v2H43.125zm0 0"/></clipPath><clipPath id="c"><path d="M43.125 124h395.578v2H43.125zm0 0"/></clipPath><clipPath id="d"><path d="M43.125 50h395.578v1H43.125zm0 0"/></clipPath><clipPath id="e"><path d="M124 41.453h2V324h-2zm0 0"/></clipPath><clipPath id="f"><path d="M227 41.453h1V324h-1zm0 0"/></clipPath><clipPath id="g"><path d="M329 41.453h2V324h-2zm0 0"/></clipPath><clipPath id="h"><path d="M432 41.453h1V324h-1zm0 0"/></clipPath><clipPath id="i"><path d="M43.125 309h395.578v2H43.125zm0 0"/></clipPath><clipPath id="j"><path d="M43.125 235h395.578v2H43.125zm0 0"/></clipPath><clipPath id="k"><path d="M43.125 161h395.578v2H43.125zm0 0"/></clipPath><clipPath id="l"><path d="M43.125 86h395.578v3H43.125zm0 0"/></clipPath><clipPath id="m"><path d="M73 41.453h2V324h-2zm0 0"/></clipPath><clipPath id="n"><path d="M175 41.453h3V324h-3zm0 0"/></clipPath><clipPath id="o"><path d="M278 41.453h2V324h-2zm0 0"/></clipPath><clipPath id="p"><path d="M380 41.453h3V324h-3zm0 0"/></clipPath></defs><path fill="#fff" d="M0 0h540v360H0z"/><path fill="#f7f8f9" d="M0 0h540v360H0z"/><g clip-path="url(#a)"><path d="M43.125 273.129h394.578" fill="none" stroke-width=".679" stroke-linejoin="round" stroke="#607080" stroke-opacity=".2" stroke-miterlimit="10"/></g><g clip-path="url(#b)"><path d="M43.125 198.934h394.578" fill="none" stroke-width=".679" stroke-linejoin="round" stroke="#607080" stroke-opacity=".2" stroke-miterlimit="10"/></g><g clip-path="url(#c)"><path d="M43.125 124.738h394.578" fill="none" stroke-width=".679" stroke-linejoin="round" stroke="#607080" stroke-opacity=".2" stroke-miterlimit="10"/></g><g clip-path="url(#d)"><path d="M43.125 50.543h394.578" fill="none" stroke-width=".679" stroke-linejoin="round" stroke="#607080" stroke-opacity=".2" stroke-miterlimit="10"/></g><g clip-path="url(#e)"><path d="M125.117 323.027V41.453" fill="none" stroke-width=".679" stroke-linejoin="round" stroke="#607080" stroke-opacity=".2" stroke-miterlimit="10"/></g><g clip-path="url(#f)"><path d="M227.602 323.027V41.453" fill="none" stroke-width=".679" stroke-linejoin="round" stroke="#607080" stroke-opacity=".2" stroke-miterlimit="10"/></g><g clip-path="url(#g)"><path d="M330.09 323.027V41.453" fill="none" stroke-width=".679" stroke-linejoin="round" stroke="#607080" stroke-opacity=".2" stroke-miterlimit="10"/></g><g clip-path="url(#h)"><path d="M432.578 323.027V41.453" fill="none" stroke-width=".679" stroke-linejoin="round" stroke="#607080" stroke-opacity=".2" stroke-miterlimit="10"/></g><g clip-path="url(#i)"><path d="M43.125 310.227h394.578" fill="none" stroke-width="1.358" stroke-linejoin="round" stroke="#607080" stroke-opacity=".251" stroke-miterlimit="10"/></g><g clip-path="url(#j)"><path d="M43.125 236.031h394.578" fill="none" stroke-width="1.358" stroke-linejoin="round" stroke="#607080" stroke-opacity=".251" stroke-miterlimit="10"/></g><g clip-path="url(#k)"><path d="M43.125 161.836h394.578" fill="none" stroke-width="1.358" stroke-linejoin="round" stroke="#607080" stroke-opacity=".251" stroke-miterlimit="10"/></g><g clip-path="url(#l)"><path d="M43.125 87.64h394.578" fill="none" stroke-width="1.358" stroke-linejoin="round" stroke="#607080" stroke-opacity=".251" stroke-miterlimit="10"/></g><g clip-path="url(#m)"><path d="M73.871 323.027V41.453" fill="none" stroke-width="1.358" stroke-linejoin="round" stroke="#607080" stroke-opacity=".251" stroke-miterlimit="10"/></g><g clip-path="url(#n)"><path d="M176.36 323.027V41.453" fill="none" stroke-width="1.358" stroke-linejoin="round" stroke="#607080" stroke-opacity=".251" stroke-miterlimit="10"/></g><g clip-path="url(#o)"><path d="M278.848 323.027V41.453" fill="none" stroke-width="1.358" stroke-linejoin="round" stroke="#607080" stroke-opacity=".251" stroke-miterlimit="10"/></g><g clip-path="url(#p)"><path d="M381.336 323.027V41.453" fill="none" stroke-width="1.358" stroke-linejoin="round" stroke="#607080" stroke-opacity=".251" stroke-miterlimit="10"/></g><path d="M61.063 310.227h25.62v-7.418h-25.62zm0 0M86.684 310.227h25.62v-11.13h-25.62zm0 0M112.305 310.227h25.62V176.672h-25.62zm0 0M137.926 310.227h25.62V72.8h-25.62zm0 0M163.547 310.227h25.621V54.25h-25.621zm0 0M189.172 310.227h25.621v-192.91h-25.621zm0 0M214.793 310.227h25.621V98.77h-25.621zm0 0" fill="#66c2a5" stroke-width=".32" stroke-linejoin="round" stroke="#000" stroke-miterlimit="10"/><path d="M240.414 310.227h25.621v-14.84h-25.62zm0 0M266.035 310.227h25.621v-29.68h-25.62zm0 0" fill="#66c2a5" stroke-width=".32" stroke-linejoin="round" stroke="#000" stroke-miterlimit="10"/><path d="M291.66 310.227h25.621zm0 0" fill="none" stroke-width=".32" stroke-linejoin="round" stroke="#000" stroke-miterlimit="10"/><path d="M317.281 310.227h25.621v-3.711h-25.62zm0 0" fill="#66c2a5" stroke-width=".32" stroke-linejoin="round" stroke="#000" stroke-miterlimit="10"/><path d="M342.902 310.227h25.621zm0 0M368.523 310.227h25.622zm0 0" fill="none" stroke-width=".32" stroke-linejoin="round" stroke="#000" stroke-miterlimit="10"/><path d="M394.145 310.227h25.62v-7.418h-25.62zm0 0" fill="#66c2a5" stroke-width=".32" stroke-linejoin="round" stroke="#000" stroke-miterlimit="10"/><path d="M61.063 310.227h25.62zm0 0M86.684 310.227h25.62zm0 0M112.305 310.227h25.62zm0 0" fill="none" stroke-width=".32" stroke-linejoin="round" stroke="#000" stroke-miterlimit="10"/><path d="M137.926 310.227h25.62V262h-25.62zm0 0M163.547 310.227h25.621v-7.418h-25.621zm0 0M189.172 310.227h25.621V210.063h-25.621zm0 0M214.793 310.227h25.621v-44.52h-25.621zm0 0" fill="#fc8d62" stroke-width=".32" stroke-linejoin="round" stroke="#000" stroke-miterlimit="10"/><path d="M240.414 310.227h25.621zm0 0" fill="none" stroke-width=".32" stroke-linejoin="round" stroke="#000" stroke-miterlimit="10"/><path d="M266.035 310.227h25.621v-3.711h-25.62zm0 0" fill="#fc8d62" stroke-width=".32" stroke-linejoin="round" stroke="#000" stroke-miterlimit="10"/><path d="M291.66 310.227h25.621zm0 0M317.281 310.227h25.621zm0 0M342.902 310.227h25.621zm0 0M368.523 310.227h25.622zm0 0M394.145 310.227h25.62zm0 0" fill="none" stroke-width=".32" stroke-linejoin="round" stroke="#000" stroke-miterlimit="10"/><use xlink:href="#q" x="31.281" y="313.898" fill="#607080"/><g fill="#607080"><use xlink:href="#r" x="25.711" y="239.703"/><use xlink:href="#q" x="31.279" y="239.703"/></g><g fill="#607080"><use xlink:href="#s" x="25.711" y="165.508"/><use xlink:href="#q" x="31.279" y="165.508"/></g><g fill="#607080"><use xlink:href="#t" x="25.711" y="91.313"/><use xlink:href="#q" x="31.279" y="91.313"/></g><g fill="#607080"><use xlink:href="#u" x="68.305" y="336.645"/><use xlink:href="#q" x="73.873" y="336.645"/></g><g fill="#607080"><use xlink:href="#u" x="170.793" y="336.645"/><use xlink:href="#r" x="176.361" y="336.645"/></g><g fill="#607080"><use xlink:href="#u" x="273.281" y="336.645"/><use xlink:href="#s" x="278.849" y="336.645"/></g><g fill="#607080"><use xlink:href="#u" x="375.77" y="336.645"/><use xlink:href="#t" x="381.337" y="336.645"/></g><use xlink:href="#v" x="227.473" y="352.809"/><use xlink:href="#w" x="234.389" y="352.809"/><use xlink:href="#x" x="241.557" y="352.809"/><use xlink:href="#y" x="246.415" y="352.809"/><use xlink:href="#z" x="16.16" y="240.094"/><use xlink:href="#A" x="16.16" y="231.036"/><use xlink:href="#B" x="16.16" y="223.42"/><use xlink:href="#C" x="16.16" y="211.814"/><use xlink:href="#D" x="16.16" y="204.044"/><use xlink:href="#E" x="16.16" y="197.1"/><use xlink:href="#F" x="16.16" y="192.242"/><use xlink:href="#G" x="16.16" y="189.414"/><use xlink:href="#H" x="16.16" y="181.826"/><use xlink:href="#F" x="16.16" y="177.738"/><use xlink:href="#I" x="16.16" y="174.91"/><use xlink:href="#G" x="16.16" y="171.452"/><use xlink:href="#A" x="16.16" y="163.864"/><use xlink:href="#E" x="16.16" y="156.248"/><use xlink:href="#J" x="16.16" y="151.39"/><use xlink:href="#D" x="16.16" y="143.732"/><use xlink:href="#K" x="16.16" y="136.788"/><use xlink:href="#L" x="16.16" y="130.25"/><g><use xlink:href="#M" x="454.711" y="167.195"/><use xlink:href="#N" x="463.839" y="167.195"/><use xlink:href="#O" x="471.427" y="167.195"/><use xlink:href="#P" x="479.043" y="167.195"/><use xlink:href="#y" x="484.909" y="167.195"/><use xlink:href="#Q" x="491.853" y="167.195"/><use xlink:href="#R" x="494.681" y="167.195"/><use xlink:href="#N" x="506.287" y="167.195"/><use xlink:href="#S" x="513.875" y="167.195"/><use xlink:href="#y" x="520.413" y="167.195"/></g><path d="M454.922 189.094h16.855v-16.856h-16.855zm0 0" fill="#66c2a5" stroke-width=".32" stroke-linecap="round" stroke="#000" stroke-miterlimit="10"/><path d="M454.922 206.371h16.855v-16.855h-16.855zm0 0" fill="#fc8d62" stroke-width=".32" stroke-linecap="round" stroke="#000" stroke-miterlimit="10"/><g><use xlink:href="#T" x="474.152" y="184.336"/><use xlink:href="#U" x="480.74" y="184.336"/><use xlink:href="#V" x="486.296" y="184.336"/><use xlink:href="#W" x="489.568" y="184.336"/><use xlink:href="#X" x="495.64" y="184.336"/><use xlink:href="#U" x="499.527" y="184.336"/></g><g><use xlink:href="#Y" x="474.152" y="201.617"/><use xlink:href="#V" x="480.247" y="201.617"/><use xlink:href="#Z" x="483.518" y="201.617"/><use xlink:href="#U" x="487.305" y="201.617"/><use xlink:href="#X" x="492.861" y="201.617"/></g><g><use xlink:href="#aa" x="43.125" y="33.895"/><use xlink:href="#ab" x="50.316" y="33.895"/><use xlink:href="#ac" x="57.142" y="33.895"/><use xlink:href="#ac" x="67.582" y="33.895"/><use xlink:href="#ad" x="78.022" y="33.895"/><use xlink:href="#ae" x="84.873" y="33.895"/><use xlink:href="#af" x="89.13" y="33.895"/><use xlink:href="#ag" x="95.376" y="33.895"/><use xlink:href="#ah" x="97.92" y="33.895"/><use xlink:href="#ai" x="104.368" y="33.895"/><use xlink:href="#aj" x="111.257" y="33.895"/><use xlink:href="#ag" x="118.247" y="33.895"/><use xlink:href="#ak" x="120.791" y="33.895"/><use xlink:href="#al" x="129.002" y="33.895"/><use xlink:href="#am" x="135.727" y="33.895"/><use xlink:href="#ag" x="141.986" y="33.895"/><use xlink:href="#an" x="144.53" y="33.895"/><use xlink:href="#ab" x="147.64" y="33.895"/><use xlink:href="#ad" x="154.466" y="33.895"/><use xlink:href="#ao" x="161.317" y="33.895"/><use xlink:href="#ai" x="165.687" y="33.895"/><use xlink:href="#af" x="172.576" y="33.895"/><use xlink:href="#ap" x="178.823" y="33.895"/><use xlink:href="#aq" x="184.704" y="33.895"/><use xlink:href="#ag" x="189.981" y="33.895"/><use xlink:href="#af" x="192.525" y="33.895"/><use xlink:href="#ar" x="198.771" y="33.895"/><use xlink:href="#as" x="204.388" y="33.895"/><use xlink:href="#at" x="210.131" y="33.895"/><use xlink:href="#ad" x="213.342" y="33.895"/><use xlink:href="#aj" x="220.193" y="33.895"/><use xlink:href="#af" x="227.183" y="33.895"/><use xlink:href="#aj" x="233.429" y="33.895"/><use xlink:href="#au" x="240.419" y="33.895"/><use xlink:href="#ag" x="243.554" y="33.895"/><use xlink:href="#av" x="246.098" y="33.895"/><use xlink:href="#ah" x="253.088" y="33.895"/><use xlink:href="#ao" x="259.536" y="33.895"/><use xlink:href="#aq" x="263.906" y="33.895"/><use xlink:href="#ag" x="269.183" y="33.895"/><use xlink:href="#ab" x="271.727" y="33.895"/><use xlink:href="#aw" x="278.552" y="33.895"/><use xlink:href="#af" x="284.434" y="33.895"/><use xlink:href="#ao" x="290.68" y="33.895"/><use xlink:href="#at" x="295.05" y="33.895"/><use xlink:href="#ah" x="298.262" y="33.895"/><use xlink:href="#ax" x="304.71" y="33.895"/></g><g><use xlink:href="#ay" x="43.125" y="17.988"/><use xlink:href="#az" x="52.8" y="17.988"/><use xlink:href="#aA" x="61.904" y="17.988"/><use xlink:href="#aB" x="68.942" y="17.988"/><use xlink:href="#aC" x="74.619" y="17.988"/><use xlink:href="#aD" x="79.843" y="17.988"/><use xlink:href="#az" x="93.767" y="17.988"/><use xlink:href="#aE" x="102.871" y="17.988"/><use xlink:href="#aF" x="110.715" y="17.988"/><use xlink:href="#aG" x="119.047" y="17.988"/><use xlink:href="#aH" x="122.44" y="17.988"/><use xlink:href="#az" x="126.588" y="17.988"/><use xlink:href="#aI" x="135.692" y="17.988"/><use xlink:href="#aJ" x="144.83" y="17.988"/><use xlink:href="#aK" x="150.658" y="17.988"/><use xlink:href="#aF" x="159.846" y="17.988"/><use xlink:href="#aL" x="168.177" y="17.988"/><use xlink:href="#aA" x="176.022" y="17.988"/><use xlink:href="#aG" x="183.059" y="17.988"/><use xlink:href="#aM" x="186.452" y="17.988"/><use xlink:href="#aF" x="194.918" y="17.988"/><use xlink:href="#aK" x="203.249" y="17.988"/><use xlink:href="#aF" x="212.437" y="17.988"/><use xlink:href="#aJ" x="220.768" y="17.988"/><use xlink:href="#aN" x="226.597" y="17.988"/><use xlink:href="#aO" x="235.197" y="17.988"/><use xlink:href="#aO" x="239.48" y="17.988"/><use xlink:href="#aL" x="243.763" y="17.988"/><use xlink:href="#aG" x="251.607" y="17.988"/><use xlink:href="#aD" x="255" y="17.988"/><use xlink:href="#az" x="268.925" y="17.988"/><use xlink:href="#aJ" x="278.029" y="17.988"/><use xlink:href="#aF" x="283.857" y="17.988"/><use xlink:href="#aG" x="292.188" y="17.988"/><use xlink:href="#aF" x="295.581" y="17.988"/><use xlink:href="#aP" x="303.913" y="17.988"/><use xlink:href="#aQ" x="311.404" y="17.988"/><use xlink:href="#aF" x="320.726" y="17.988"/><use xlink:href="#aK" x="329.057" y="17.988"/><use xlink:href="#aA" x="338.245" y="17.988"/><use xlink:href="#aR" x="345.283" y="17.988"/><use xlink:href="#aE" x="349.415" y="17.988"/><use xlink:href="#aF" x="357.259" y="17.988"/></g></svg>