<svg xmlns="http://www.w3.org/2000/svg" xmlns:xlink="http://www.w3.org/1999/xlink" width="720" height="480" viewBox="0 0 540 360"><defs><symbol overflow="visible" id="A"><path d="M1.922-.797v-.047c.453-.453.703-.937.703-1.719 0-.234-.031-.421-.063-.624h1.641v-.626H2.422c-.14-.484-.266-.921-.266-1.39 0-.766.438-1.313 1.235-1.313.515 0 .859.25 1.14.594l.532-.516c-.391-.484-.938-.843-1.735-.843-1.25 0-2.078.797-2.078 2.062 0 .469.156.922.297 1.407h-.203l-.75.03v.595h1.125c.047.203.078.39.078.609 0 .844-.438 1.61-1.188 2.015V0h4.47v-.797zm0 0"/></symbol><symbol overflow="visible" id="B"><path d="M2.797.14c1.422 0 2.281-1.343 2.281-3.734 0-2.406-.86-3.687-2.281-3.687C1.359-7.281.5-6 .5-3.594c0 2.39.86 3.735 2.297 3.735zm0-.75c-.844 0-1.406-.89-1.406-2.984s.562-2.953 1.406-2.953c.828 0 1.375.86 1.375 2.953 0 2.094-.547 2.985-1.375 2.985zm0 0"/></symbol><symbol overflow="visible" id="C"><path d="M.89 0h4.032v-.766H3.438V-7.14h-.704c-.39.235-.859.407-1.515.516v.594h1.297v5.265H.89zm0 0"/></symbol><symbol overflow="visible" id="D"><path d="M.453 0h4.61v-.797H2.983c-.359 0-.796.031-1.187.063C3.484-2.5 4.703-3.828 4.703-5.172c0-1.266-.812-2.11-2.14-2.11-.922 0-1.563.438-2.157 1.095l.531.515c.407-.484.922-.86 1.516-.86.906 0 1.36.579 1.36 1.407 0 1.14-1.22 2.438-3.36 4.578zm0 0"/></symbol><symbol overflow="visible" id="E"><path d="M.297-.875C.766-.344 1.5.141 2.64.141 3.953.14 5-.641 5-1.906c0-.985-.688-1.61-1.547-1.813v-.047c.766-.296 1.297-.843 1.297-1.703 0-1.156-.89-1.812-2.14-1.812-.844 0-1.5.375-2.047.89l.484.594c.437-.437.937-.734 1.531-.734.766 0 1.235.437 1.235 1.125 0 .75-.5 1.343-2.032 1.343v.704c1.703 0 2.282.562 2.282 1.421 0 .797-.61 1.313-1.47 1.313-.843 0-1.405-.406-1.827-.86zm0 0"/></symbol><symbol overflow="visible" id="F"><path d="M1.172-2.719l1.656-2.437c.203-.344.406-.657.594-1h.047c-.031.375-.063.984-.063 1.375v2.062zm4.078 0h-.969V-7.14H3.25L.187-2.578v.61h3.22V0h.874v-1.969h.969zm0 0"/></symbol><symbol overflow="visible" id="G"><path d="M.344-1.047C.766-.266 1.438.141 2.375.141c1.438 0 2.031-1.032 2.031-2.297v-5.188H3.47v5.094c0 1.125-.406 1.563-1.188 1.563-.515 0-.937-.25-1.265-.829zm0 0"/></symbol><symbol overflow="visible" id="H"><path d="M.656-1.406C.656-.438 1.328.14 2.25.14c.672 0 1.281-.36 1.813-.797h.015L4.156 0h.766v-3.344c0-1.344-.563-2.234-1.89-2.234-.876 0-1.641.375-2.141.703l.359.64c.438-.296.984-.577 1.625-.577.89 0 1.125.671 1.125 1.359-2.313.265-3.344.86-3.344 2.047zm.906-.078c0-.688.61-1.141 2.438-1.36v1.516c-.531.469-.969.719-1.484.719-.547 0-.954-.25-.954-.875zm0 0"/></symbol><symbol overflow="visible" id="I"><path d="M.922 0h.922v-3.938c.547-.562.922-.843 1.484-.843.719 0 1.031.437 1.031 1.453V0h.922v-3.453c0-1.39-.515-2.125-1.656-2.125-.75 0-1.313.406-1.828.922h-.031l-.079-.782H.922zm0 0"/></symbol><symbol overflow="visible" id="K"><path d="M.969-4.828c.765-.453 1.187-1.094 1.187-1.984 0-.657-.265-1.016-.703-1.016-.344 0-.594.234-.594.625 0 .36.282.562.594.562.031 0 .063 0 .094-.015 0 .656-.281 1.031-.844 1.406zm0 0"/></symbol><symbol overflow="visible" id="L"><path d="M.281-.844c.485.5 1.203.985 2.344.985 1.234 0 2.406-.875 2.406-2.422 0-1.547-1-2.25-2.218-2.25-.438 0-.766.125-1.094.297l.187-2.125h2.766v-.782H1.094L.859-3.703l.5.312c.422-.28.72-.437 1.22-.437.921 0 1.515.578 1.515 1.562 0 1-.688 1.641-1.563 1.641-.844 0-1.375-.39-1.797-.813zm0 0"/></symbol><symbol overflow="visible" id="M"><path d="M.844-2c0 1.39.515 2.14 1.672 2.14.75 0 1.28-.39 1.78-.984h.032L4.406 0h.766v-5.438H4.25v3.86c-.516.64-.906.922-1.453.922-.719 0-1.031-.438-1.031-1.469v-3.313H.844zm0 0"/></symbol><symbol overflow="visible" id="N"><path d="M.922-1.094c0 .797.281 1.235.969 1.235.25 0 .406-.047.53-.094l-.124-.703c-.094.031-.14.031-.203.031-.14 0-.25-.11-.25-.406v-6.953H.922zm0 0"/></symbol><symbol overflow="visible" id="O"><path d="M3-.594c-.906 0-1.453-.75-1.563-2.14.485-.672 1.032-.938 1.485-.938.89 0 1.328.578 1.328 1.516C4.25-1.22 3.703-.594 3-.594zm1.984-5.922c-.406-.437-.953-.765-1.718-.765C1.844-7.281.53-6.171.53-3.313.531-1.015 1.61.142 3 .142c1.156 0 2.125-.938 2.125-2.297 0-1.469-.813-2.219-2.047-2.219-.578 0-1.219.36-1.672.906.047-2.265.89-3.047 1.89-3.047.438 0 .876.22 1.173.563zm0 0"/></symbol><symbol overflow="visible" id="P"><path d="M1.984 0h.954c.124-2.797.468-4.406 2.156-6.578v-.563H.5v.782h3.563C2.64-4.391 2.109-2.688 1.983 0zm0 0"/></symbol><symbol overflow="visible" id="Q"><path d="M1.281-1.922c0-.64.438-1.172 1-1.547 1.031.406 1.938.75 1.938 1.672 0 .734-.563 1.25-1.39 1.25-.876 0-1.548-.578-1.548-1.375zm2.032-1.984c-.876-.328-1.657-.688-1.657-1.531 0-.704.5-1.157 1.157-1.157.78 0 1.25.563 1.25 1.266 0 .516-.282 1-.75 1.422zM.453-1.828c0 1.14 1 1.969 2.344 1.969 1.39 0 2.312-.844 2.312-1.907 0-.968-.609-1.468-1.25-1.843v-.047c.438-.328.985-.969.985-1.719 0-1.11-.766-1.906-2.016-1.906-1.14 0-2.015.734-2.015 1.843 0 .75.468 1.266.984 1.641v.047c-.672.36-1.344 1-1.344 1.922zm0 0"/></symbol><symbol overflow="visible" id="R"><path d="M.531-1.078A3.982 3.982 0 0 0 3.421.156c1.735 0 2.813-1.047 2.813-2.36 0-1.218-.75-1.796-1.703-2.202l-1.172-.5c-.656-.282-1.375-.578-1.375-1.375 0-.75.625-1.219 1.547-1.219.766 0 1.375.313 1.875.781l.563-.672A3.39 3.39 0 0 0 3.53-8.406c-1.5 0-2.594.922-2.594 2.187 0 1.203.891 1.797 1.672 2.125l1.188.516c.781.36 1.36.625 1.36 1.469 0 .796-.641 1.343-1.72 1.343-.859 0-1.687-.421-2.28-1.03zm0 0"/></symbol><symbol overflow="visible" id="S"><path d="M.578-3.047c0 2 1.297 3.203 2.938 3.203C4.344.156 5-.14 5.53-.484l-.375-.672c-.453.281-.937.468-1.515.468-1.172 0-1.97-.828-2.047-2.14h4.14c.016-.156.032-.36.032-.578 0-1.75-.875-2.86-2.438-2.86-1.406 0-2.75 1.22-2.75 3.22zm1.016-.469c.125-1.234.906-1.937 1.75-1.937.969 0 1.515.687 1.515 1.937zm0 0"/></symbol><symbol overflow="visible" id="T"><path d="M2.047-.547c.562.438 1.125.703 1.687.703 1.407 0 2.657-1.234 2.657-3.297 0-1.906-.844-3.125-2.422-3.125-.719 0-1.406.391-1.953.844h-.032l-.093-.703h-.86v8.703h1.032V.516zm.015-.812v-3.22c.61-.53 1.126-.827 1.641-.827 1.156 0 1.61.906 1.61 2.265 0 1.5-.735 2.422-1.75 2.422-.407 0-.938-.172-1.5-.64zm0 0"/></symbol><symbol overflow="visible" id="U"><path d="M1.203-1.89c0 1.202.453 2.046 1.75 2.046.39 0 .797-.125 1.14-.234L3.892-.86c-.204.078-.485.171-.688.171-.703 0-.953-.437-.953-1.187v-3.406h1.656v-.844H2.25v-1.703h-.86l-.124 1.703-.97.063v.78h.907zm0 0"/></symbol><symbol overflow="visible" id="V"><path d="M1.031 0h1.032v-4.438c.562-.625 1.078-.937 1.546-.937.766 0 1.141.484 1.141 1.64V0h1.031v-4.438c.563-.625 1.063-.937 1.532-.937.765 0 1.14.484 1.14 1.64V0h1.031v-3.875c0-1.563-.609-2.39-1.859-2.39-.75 0-1.375.468-2.016 1.171-.25-.734-.765-1.172-1.687-1.172-.735 0-1.375.454-1.906 1.032h-.032l-.093-.891h-.86zm0 0"/></symbol><symbol overflow="visible" id="W"><path d="M1.031 0h.828l.094-.61h.031c.547.485 1.188.766 1.75.766 1.407 0 2.657-1.234 2.657-3.312 0-1.89-.844-3.11-2.438-3.11-.672 0-1.36.36-1.906.844l.015-1.11v-2.437h-1.03zm1.032-1.36v-3.218c.578-.531 1.124-.828 1.64-.828 1.156 0 1.61.906 1.61 2.265 0 1.5-.735 2.422-1.75 2.422-.407 0-.954-.172-1.5-.64zm0 0"/></symbol><symbol overflow="visible" id="X"><path d="M1.031 0h1.032v-3.922c.421-1.047 1.03-1.422 1.546-1.422.25 0 .391.047.594.11l.203-.907c-.203-.093-.39-.125-.656-.125-.688 0-1.313.485-1.734 1.25h-.032l-.093-1.109h-.86zm0 0"/></symbol><symbol overflow="visible" id="Z"><path d="M.5 0h5.188v-.89H3.358c-.406 0-.906.03-1.343.078 1.906-2 3.28-3.5 3.28-5 0-1.422-.921-2.375-2.405-2.375-1.047 0-1.766.5-2.438 1.218l.594.594c.469-.531 1.047-.969 1.719-.969 1.015 0 1.515.657 1.515 1.578 0 1.297-1.36 2.75-3.781 5.157zm0 0"/></symbol><symbol overflow="visible" id="aa"><path d="M3.14.156c1.594 0 2.563-1.5 2.563-4.203 0-2.687-.969-4.14-2.562-4.14-1.61 0-2.594 1.453-2.594 4.14C.547-1.344 1.53.156 3.14.156zm0-.844c-.953 0-1.578-1-1.578-3.359 0-2.344.625-3.312 1.579-3.312.921 0 1.562.968 1.562 3.312 0 2.36-.64 3.36-1.562 3.36zm0 0"/></symbol><symbol overflow="visible" id="ab"><path d="M1 0h4.531v-.86H3.86V-8.03h-.78c-.454.265-.97.469-1.704.594v.656h1.453V-.86H1zm0 0"/></symbol><symbol overflow="visible" id="ac"><path d="M1.313-3.047l1.875-2.75c.218-.39.453-.734.656-1.125h.047c-.032.422-.063 1.11-.063 1.547v2.328zm4.593 0H4.813V-8.03H3.655L.22-2.891v.672h3.61V0h.983v-2.219h1.094zm0 0"/></symbol><symbol overflow="visible" id="ad"><path d="M.578-3.047C.578-1.016 1.922.156 3.406.156c1.5 0 2.844-1.172 2.844-3.203 0-2.047-1.344-3.219-2.844-3.219-1.484 0-2.828 1.172-2.828 3.22zm1.078 0c0-1.406.719-2.375 1.75-2.375 1.063 0 1.766.969 1.766 2.375 0 1.39-.703 2.344-1.766 2.344-1.031 0-1.75-.953-1.75-2.344zm0 0"/></symbol><symbol overflow="visible" id="ae"><path d="M1.14 0h.97v-4.547c0-.734-.094-1.719-.141-2.437h.047l.656 1.828L4.266-.828h.593l1.594-4.328.656-1.828h.063c-.063.718-.14 1.703-.14 2.437V0h.984v-8.266H6.78L5.203-3.828l-.578 1.687h-.047l-.61-1.687-1.593-4.438H1.141zm0 0"/></symbol><symbol overflow="visible" id="af"><path d="M.734-1.594c0 1.11.766 1.75 1.797 1.75.75 0 1.438-.406 2.031-.89h.016L4.672 0h.86v-3.75c0-1.531-.626-2.516-2.126-2.516-.984 0-1.844.422-2.406.782l.406.718c.485-.328 1.11-.656 1.828-.656 1 0 1.266.766 1.266 1.547-2.61.281-3.766.953-3.766 2.281zm1.016-.062c0-.782.688-1.297 2.75-1.547V-1.5c-.594.531-1.094.813-1.672.813-.61 0-1.078-.282-1.078-.97zm0 0"/></symbol><symbol overflow="visible" id="ag"><path d="M.61 1.688L.421 2.5c.187.078.437.125.719.125C2.375 2.625 3 1.719 3.42.5l2.313-6.625H4.72l-1.094 3.39c-.156.547-.344 1.172-.516 1.735h-.046a73.762 73.762 0 0 0-.594-1.734l-1.25-3.391H.156L2.61.015 2.47.47c-.25.75-.688 1.312-1.39 1.312-.141 0-.329-.062-.47-.093zm0 0"/></symbol><symbol overflow="visible" id="ah"><path d="M1.453-2.156c0-.735.469-1.313 1.11-1.75 1.171.469 2.187.844 2.187 1.875 0 .828-.64 1.422-1.578 1.422-.985 0-1.719-.657-1.719-1.547zM3.72-4.375c-.969-.39-1.86-.781-1.86-1.75 0-.781.563-1.297 1.297-1.297.89 0 1.406.64 1.406 1.422 0 .594-.312 1.14-.843 1.625zM.516-2.047C.516-.78 1.64.156 3.14.156c1.562 0 2.609-.953 2.609-2.14 0-1.094-.688-1.657-1.406-2.079v-.046c.5-.375 1.11-1.094 1.11-1.938 0-1.25-.876-2.14-2.266-2.14-1.297 0-2.282.828-2.282 2.062 0 .844.531 1.438 1.125 1.86v.046C1.266-3.812.516-3.094.516-2.047zm0 0"/></symbol><symbol overflow="visible" id="ai"><path d="M.844 2.14C1.859 1.72 2.5.876 2.5-.218c0-.75-.328-1.218-.875-1.218-.422 0-.766.28-.766.734 0 .469.344.719.735.719.047 0 .093 0 .125-.016 0 .688-.422 1.219-1.125 1.531zm0 0"/></symbol><symbol overflow="visible" id="aj"><path d="M2.36 0h1.203l2.171-6.125h-1.03L3.546-2.641C3.375-2.047 3.172-1.42 3-.844h-.047c-.187-.578-.39-1.203-.578-1.797L1.219-6.125H.156zm0 0"/></symbol><symbol overflow="visible" id="ak"><path d="M1.563-7.375c.406 0 .718-.281.718-.672 0-.406-.312-.672-.719-.672-.406 0-.718.266-.718.672 0 .39.312.672.719.672zM1.03 0h1.032v-6.125H1.03zm0 0"/></symbol><symbol overflow="visible" id="al"><path d="M.578-3.047c0 2.031 1.25 3.203 2.875 3.203.735 0 1.438-.312 1.985-.797l-.47-.687c-.359.328-.843.625-1.437.625-1.11 0-1.875-.953-1.875-2.344 0-1.406.797-2.375 1.907-2.375.5 0 .874.234 1.234.547l.516-.672a2.498 2.498 0 0 0-1.782-.719c-1.578 0-2.953 1.172-2.953 3.22zm0 0"/></symbol><symbol overflow="visible" id="am"><path d="M1.031-1.234c0 .89.313 1.39 1.094 1.39.281 0 .453-.047.594-.11l-.14-.78c-.11.03-.157.03-.22.03-.156 0-.296-.124-.296-.452V-8.97H1.03zm0 0"/></symbol><symbol overflow="visible" id="an"><path d="M1.031 0h1.016v-1.61l1.156-1.343L4.984 0h1.141L3.797-3.672l2.047-2.453h-1.14l-2.61 3.234h-.047v-6.078H1.03zm0 0"/></symbol><symbol overflow="visible" id="ao"><path d="M.36-.688c.578.47 1.406.844 2.265.844 1.453 0 2.25-.844 2.25-1.828 0-1.156-.984-1.531-1.86-1.86C2.313-3.796 1.657-4 1.657-4.577c0-.469.344-.89 1.11-.89.546 0 .984.234 1.406.546l.484-.656c-.468-.375-1.125-.688-1.89-.688-1.329 0-2.11.75-2.11 1.735 0 1.031.953 1.453 1.828 1.765.657.25 1.391.532 1.391 1.157 0 .53-.406.953-1.203.953-.735 0-1.281-.297-1.797-.735zm0 0"/></symbol><symbol overflow="visible" id="ap"><path d="M1.031 0h1.032v-4.438c.624-.609 1.046-.937 1.671-.937.813 0 1.172.484 1.172 1.64V0h1.032v-3.875c0-1.563-.579-2.39-1.875-2.39-.844 0-1.454.452-2.032 1l.031-1.266V-8.97h-1.03zm0 0"/></symbol><symbol overflow="visible" id="aq"><path d="M.938-2.234c0 1.546.593 2.39 1.89 2.39.844 0 1.438-.453 2.016-1.11h.031L4.969 0h.843v-6.125h-1.03v4.344C4.202-1.063 3.765-.75 3.14-.75c-.813 0-1.157-.484-1.157-1.625v-3.75H.938zm0 0"/></symbol><symbol overflow="visible" id="ar"><path d="M2.719 0H4.39l1.625-6.64c.187-.844.39-1.641.546-2.5h.079c.156.859.328 1.656.53 2.5L8.829 0h1.688l2.28-11.016h-1.343l-1.156 6c-.219 1.172-.422 2.36-.625 3.547h-.063c-.265-1.187-.546-2.39-.812-3.547l-1.531-6H6l-1.531 6c-.25 1.172-.516 2.36-.782 3.547h-.062c-.203-1.187-.438-2.36-.64-3.547l-1.157-6H.391zm0 0"/></symbol><symbol overflow="visible" id="as"><path d="M.766-4.063C.766-1.39 2.5.204 4.687.204c1.11 0 1.985-.39 2.688-.844l-.484-.906c-.61.39-1.266.64-2.032.64-1.562 0-2.625-1.109-2.718-2.874h5.5c.03-.203.046-.469.046-.75 0-2.344-1.171-3.828-3.25-3.828C2.563-8.36.767-6.734.767-4.063zm1.343-.625c.172-1.64 1.22-2.578 2.36-2.578 1.281 0 2.015.922 2.015 2.579zm0 0"/></symbol><symbol overflow="visible" id="at"><path d="M1.375 0h1.36v-2.156l1.53-1.781L6.657 0h1.5L5.062-4.89l2.735-3.266H6.266L2.78-3.86h-.047v-8.094H1.375zm0 0"/></symbol><symbol overflow="visible" id="au"><path d="M1.375-1.64c0 1.187.422 1.843 1.469 1.843.36 0 .594-.047.781-.14L3.437-.97c-.14.031-.218.031-.296.031-.204 0-.391-.171-.391-.609v-10.406H1.375zm0 0"/></symbol><symbol overflow="visible" id="av"><path d="M.828 2.25L.547 3.344c.281.094.594.172.969.172C3.156 3.516 4 2.28 4.562.672l3.079-8.828H6.297L4.844-3.641c-.219.72-.453 1.563-.688 2.297h-.078c-.25-.75-.531-1.593-.781-2.297L1.625-8.156H.203L3.484.016l-.187.609c-.344 1-.922 1.75-1.86 1.75-.187 0-.453-.078-.609-.125zm0 0"/></symbol><symbol overflow="visible" id="ax"><path d="M1.61-2.516c0 1.61.593 2.72 2.343 2.72.5 0 1.047-.157 1.5-.298L5.187-1.14c-.265.094-.64.22-.921.22C3.328-.922 3-1.5 3-2.5v-4.531h2.203v-1.125H3v-2.297H1.844l-.172 2.297-1.266.078v1.047H1.61zm0 0"/></symbol><symbol overflow="visible" id="ay"><path d="M1.375 0H2.75v-5.234c.563-1.391 1.375-1.891 2.078-1.891.328 0 .516.047.781.14l.266-1.218c-.266-.11-.516-.156-.875-.156-.922 0-1.766.656-2.313 1.671h-.046l-.125-1.468H1.375zm0 0"/></symbol><symbol overflow="visible" id="az"><path d="M.969-2.11C.969-.655 2 .204 3.375.204c1.016 0 1.922-.531 2.703-1.172h.031L6.234 0h1.141v-5c0-2.031-.844-3.36-2.844-3.36-1.312 0-2.453.563-3.203 1.047l.547.97c.64-.438 1.484-.876 2.438-.876C5.64-7.219 6-6.219 6-5.172 2.516-4.782.969-3.89.969-2.109zm1.36-.109c0-1.047.937-1.719 3.671-2.047V-2c-.797.703-1.453 1.094-2.234 1.094-.813 0-1.438-.39-1.438-1.313zm0 0"/></symbol><symbol overflow="visible" id="aA"><path d="M1.375 0H2.75v-5.906c.828-.828 1.406-1.266 2.234-1.266 1.079 0 1.547.656 1.547 2.188V0h1.375v-5.172c0-2.078-.765-3.187-2.484-3.187-1.125 0-1.969.593-2.734 1.375H2.64l-.125-1.172H1.375zm0 0"/></symbol><symbol overflow="visible" id="aB"><path d="M.469-.922C1.25-.282 2.344.203 3.516.203 5.437.203 6.5-.907 6.5-2.234c0-1.547-1.313-2.032-2.484-2.47-.922-.359-1.813-.64-1.813-1.405 0-.625.469-1.188 1.485-1.188.734 0 1.312.313 1.874.734l.657-.875c-.625-.5-1.516-.921-2.547-.921-1.75 0-2.797 1-2.797 2.312 0 1.375 1.281 1.938 2.438 2.36.89.328 1.859.703 1.859 1.53 0 .72-.531 1.282-1.61 1.282-.968 0-1.703-.406-2.406-.969zm0 0"/></symbol><symbol overflow="visible" id="aC"><path d="M2.719-.734c.765.578 1.515.937 2.265.937 1.875 0 3.532-1.625 3.532-4.406 0-2.531-1.125-4.156-3.22-4.156-.968 0-1.874.515-2.609 1.14h-.046l-.125-.937H1.375V3.438H2.75V.688zm.031-1.079v-4.28c.813-.72 1.5-1.11 2.188-1.11 1.546 0 2.156 1.203 2.156 3 0 2.016-1 3.25-2.344 3.25-.531 0-1.25-.235-2-.86zm0 0"/></symbol><symbol overflow="visible" id="aD"><path d="M.766-4.063c0 2.704 1.78 4.266 3.78 4.266 2 0 3.782-1.562 3.782-4.266 0-2.734-1.781-4.296-3.781-4.296S.766-6.797.766-4.063zm1.437 0c0-1.89.953-3.156 2.344-3.156 1.422 0 2.36 1.266 2.36 3.157 0 1.859-.938 3.125-2.36 3.125-1.39 0-2.344-1.266-2.344-3.125zm0 0"/></symbol><symbol overflow="visible" id="aE"><path d="M.797-4.063c0 2.72 1.312 4.266 3.375 4.266C5.125.203 6-.328 6.64-.953h.046l.11.953h1.14v-11.953h-1.39v3.14l.078 1.391c-.734-.594-1.344-.937-2.297-.937-1.86 0-3.531 1.64-3.531 4.296zm1.422-.015c0-1.875 1.047-3.125 2.344-3.125.671 0 1.296.234 1.984.86v4.265c-.672.75-1.328 1.125-2.078 1.125-1.422 0-2.25-1.188-2.25-3.125zm0 0"/></symbol><symbol overflow="visible" id="aF"><path d="M2.078-9.844c.547 0 .969-.375.969-.89 0-.532-.422-.891-.969-.891-.531 0-.953.36-.953.89 0 .516.422.891.953.891zM1.375 0H2.75v-8.156H1.375zm0 0"/></symbol><symbol overflow="visible" id="aG"><path d="M1.969 1.375c0-.469.25-.953.843-1.375.344.094.735.14 1.047.14h1.422c1.047 0 1.64.25 1.64 1 0 .86-1.03 1.673-2.593 1.673-1.469 0-2.36-.563-2.36-1.438zM.75 1.563c0 1.406 1.39 2.203 3.375 2.203 2.547 0 4.14-1.313 4.14-2.829C8.266-.421 7.313-1 5.407-1H3.828c-1.11 0-1.437-.375-1.437-.89 0-.454.234-.735.515-.985.375.188.828.281 1.219.281 1.672 0 3-1.078 3-2.828 0-.687-.281-1.312-.672-1.687h1.672v-1.047H5.297a3.214 3.214 0 0 0-1.172-.203c-1.656 0-3.063 1.125-3.063 2.906 0 .969.516 1.766 1.047 2.187v.079c-.406.28-.89.812-.89 1.515 0 .625.328 1.063.734 1.313v.078C1.203.219.75.875.75 1.563zm3.375-5.079c-.938 0-1.719-.75-1.719-1.937 0-1.203.766-1.906 1.719-1.906.969 0 1.734.703 1.734 1.906 0 1.187-.78 1.937-1.734 1.937zm0 0"/></symbol><symbol overflow="visible" id="aH"><path d="M1.938-2.875c0-.969.625-1.766 1.484-2.328 1.547.625 2.906 1.125 2.906 2.5 0 1.11-.86 1.875-2.094 1.875-1.312 0-2.296-.844-2.296-2.047zm3.015-2.969c-1.297-.5-2.469-1.047-2.469-2.312 0-1.047.735-1.735 1.735-1.735 1.172 0 1.86.844 1.86 1.891 0 .797-.407 1.516-1.126 2.156zM.687-2.734c0 1.687 1.5 2.937 3.516 2.937 2.078 0 3.453-1.266 3.453-2.86 0-1.437-.906-2.202-1.86-2.75v-.062c.657-.515 1.47-1.468 1.47-2.593 0-1.657-1.157-2.86-3.016-2.86-1.734 0-3.047 1.11-3.047 2.766 0 1.125.719 1.906 1.5 2.469v.062c-1 .531-2.015 1.5-2.015 2.89zm0 0"/></symbol><symbol overflow="visible" id="aI"><path d="M.688-3.672h3.859v-1.062H.687zm0 0"/></symbol><symbol overflow="visible" id="aJ"><path d="M2.672 0h1.61l1.14-4.36c.219-.78.39-1.546.578-2.374h.063c.203.828.359 1.578.562 2.343L7.797 0h1.672l2.187-8.156h-1.312L9.156-3.437c-.172.765-.328 1.5-.5 2.265h-.078c-.187-.766-.36-1.5-.562-2.266L6.734-8.155H5.391L4.125-3.437c-.188.75-.36 1.5-.547 2.265h-.062c-.157-.766-.313-1.5-.5-2.266L1.812-8.155H.407zm0 0"/></symbol><symbol overflow="visible" id="aK"><path d="M1.375 0H2.75v-5.906c.766-.844 1.453-1.266 2.047-1.266 1.047 0 1.531.656 1.531 2.188V0h1.375v-5.906c.766-.844 1.422-1.266 2.063-1.266 1.015 0 1.5.656 1.5 2.188V0h1.375v-5.172c0-2.078-.797-3.187-2.485-3.187-.984 0-1.828.64-2.687 1.562-.328-.984-1-1.562-2.25-1.562-.969 0-1.828.593-2.532 1.375h-.046l-.125-1.172H1.375zm0 0"/></symbol><symbol overflow="visible" id="aL"><path d="M3.14 0h1.61l2.89-8.156H6.282L4.734-3.531c-.234.812-.5 1.64-.734 2.406h-.063a48.317 48.317 0 0 1-.765-2.406L1.625-8.156H.203zm0 0"/></symbol><clipPath id="a"><path d="M29.953 290H534v1H29.953zm0 0"/></clipPath><clipPath id="b"><path d="M29.953 219H534v2H29.953zm0 0"/></clipPath><clipPath id="c"><path d="M29.953 149H534v1H29.953zm0 0"/></clipPath><clipPath id="d"><path d="M29.953 78H534v2H29.953zm0 0"/></clipPath><clipPath id="e"><path d="M30 41.453h1V340h-1zm0 0"/></clipPath><clipPath id="f"><path d="M61 41.453h2V340h-2zm0 0"/></clipPath><clipPath id="g"><path d="M124 41.453h1V340h-1zm0 0"/></clipPath><clipPath id="h"><path d="M187 41.453h1V340h-1zm0 0"/></clipPath><clipPath id="i"><path d="M250 41.453h2V340h-2zm0 0"/></clipPath><clipPath id="j"><path d="M313 41.453h2V340h-2zm0 0"/></clipPath><clipPath id="k"><path d="M376 41.453h2V340h-2zm0 0"/></clipPath><clipPath id="l"><path d="M439 41.453h2V340h-2zm0 0"/></clipPath><clipPath id="m"><path d="M502 41.453h2V340h-2zm0 0"/></clipPath><clipPath id="n"><path d="M29.953 325H534v2H29.953zm0 0"/></clipPath><clipPath id="o"><path d="M29.953 254H534v3H29.953zm0 0"/></clipPath><clipPath id="p"><path d="M29.953 184H534v2H29.953zm0 0"/></clipPath><clipPath id="q"><path d="M29.953 113H534v2H29.953zm0 0"/></clipPath><clipPath id="r"><path d="M29.953 43H534v2H29.953zm0 0"/></clipPath><clipPath id="s"><path d="M92 41.453h2v298.953h-2zm0 0"/></clipPath><clipPath id="t"><path d="M154 41.453h3v298.953h-3zm0 0"/></clipPath><clipPath id="u"><path d="M218 41.453h2v298.953h-2zm0 0"/></clipPath><clipPath id="v"><path d="M281 41.453h2v298.953h-2zm0 0"/></clipPath><clipPath id="w"><path d="M345 41.453h2v298.953h-2zm0 0"/></clipPath><clipPath id="x"><path d="M407 41.453h3v298.953h-3zm0 0"/></clipPath><clipPath id="y"><path d="M471 41.453h2v298.953h-2zm0 0"/></clipPath><clipPath id="z"><path d="M292 41.453h2V340h-2zm0 0"/></clipPath></defs><path fill="#fff" d="M0 0h540v360H0z"/><path fill="#f7f8f9" d="M0 0h540v360H0z"/><g clip-path="url(#a)"><path d="M29.953 290.594h503.074" fill="none" stroke-width=".679" stroke-linejoin="round" stroke="#607080" stroke-opacity=".2" stroke-miterlimit="10"/></g><g clip-path="url(#b)"><path d="M29.953 220.055h503.074" fill="none" stroke-width=".679" stroke-linejoin="round" stroke="#607080" stroke-opacity=".2" stroke-miterlimit="10"/></g><g clip-path="url(#c)"><path d="M29.953 149.516h503.074" fill="none" stroke-width=".679" stroke-linejoin="round" stroke="#607080" stroke-opacity=".2" stroke-miterlimit="10"/></g><g clip-path="url(#d)"><path d="M29.953 78.977h503.074" fill="none" stroke-width=".679" stroke-linejoin="round" stroke="#607080" stroke-opacity=".2" stroke-miterlimit="10"/></g><g clip-path="url(#e)"><path d="M30.535 339.406V41.453" fill="none" stroke-width=".679" stroke-linejoin="round" stroke="#607080" stroke-opacity=".2" stroke-miterlimit="10"/></g><g clip-path="url(#f)"><path d="M61.813 339.406V41.453" fill="none" stroke-width=".679" stroke-linejoin="round" stroke="#607080" stroke-opacity=".2" stroke-miterlimit="10"/></g><g clip-path="url(#g)"><path d="M124.367 339.406V41.453" fill="none" stroke-width=".679" stroke-linejoin="round" stroke="#607080" stroke-opacity=".2" stroke-miterlimit="10"/></g><g clip-path="url(#h)"><path d="M187.453 339.406V41.453" fill="none" stroke-width=".679" stroke-linejoin="round" stroke="#607080" stroke-opacity=".2" stroke-miterlimit="10"/></g><g clip-path="url(#i)"><path d="M250.715 339.406V41.453" fill="none" stroke-width=".679" stroke-linejoin="round" stroke="#607080" stroke-opacity=".2" stroke-miterlimit="10"/></g><g clip-path="url(#j)"><path d="M313.973 339.406V41.453" fill="none" stroke-width=".679" stroke-linejoin="round" stroke="#607080" stroke-opacity=".2" stroke-miterlimit="10"/></g><g clip-path="url(#k)"><path d="M377.063 339.406V41.453" fill="none" stroke-width=".679" stroke-linejoin="round" stroke="#607080" stroke-opacity=".2" stroke-miterlimit="10"/></g><g clip-path="url(#l)"><path d="M440.148 339.406V41.453" fill="none" stroke-width=".679" stroke-linejoin="round" stroke="#607080" stroke-opacity=".2" stroke-miterlimit="10"/></g><g clip-path="url(#m)"><path d="M503.234 339.406V41.453" fill="none" stroke-width=".679" stroke-linejoin="round" stroke="#607080" stroke-opacity=".2" stroke-miterlimit="10"/></g><g clip-path="url(#n)"><path d="M29.953 325.863h503.074" fill="none" stroke-width="1.358" stroke-linejoin="round" stroke="#607080" stroke-opacity=".251" stroke-miterlimit="10"/></g><g clip-path="url(#o)"><path d="M29.953 255.324h503.074" fill="none" stroke-width="1.358" stroke-linejoin="round" stroke="#607080" stroke-opacity=".251" stroke-miterlimit="10"/></g><g clip-path="url(#p)"><path d="M29.953 184.785h503.074" fill="none" stroke-width="1.358" stroke-linejoin="round" stroke="#607080" stroke-opacity=".251" stroke-miterlimit="10"/></g><g clip-path="url(#q)"><path d="M29.953 114.246h503.074" fill="none" stroke-width="1.358" stroke-linejoin="round" stroke="#607080" stroke-opacity=".251" stroke-miterlimit="10"/></g><g clip-path="url(#r)"><path d="M29.953 43.71h503.074" fill="none" stroke-width="1.358" stroke-linejoin="round" stroke="#607080" stroke-opacity=".251" stroke-miterlimit="10"/></g><g clip-path="url(#s)"><path d="M93.09 339.406V41.453" fill="none" stroke-width="1.358" stroke-linejoin="round" stroke="#607080" stroke-opacity=".251" stroke-miterlimit="10"/></g><g clip-path="url(#t)"><path d="M155.645 339.406V41.453" fill="none" stroke-width="1.358" stroke-linejoin="round" stroke="#607080" stroke-opacity=".251" stroke-miterlimit="10"/></g><g clip-path="url(#u)"><path d="M219.266 339.406V41.453" fill="none" stroke-width="1.358" stroke-linejoin="round" stroke="#607080" stroke-opacity=".251" stroke-miterlimit="10"/></g><g clip-path="url(#v)"><path d="M282.164 339.406V41.453" fill="none" stroke-width="1.358" stroke-linejoin="round" stroke="#607080" stroke-opacity=".251" stroke-miterlimit="10"/></g><g clip-path="url(#w)"><path d="M345.785 339.406V41.453" fill="none" stroke-width="1.358" stroke-linejoin="round" stroke="#607080" stroke-opacity=".251" stroke-miterlimit="10"/></g><g clip-path="url(#x)"><path d="M408.34 339.406V41.453" fill="none" stroke-width="1.358" stroke-linejoin="round" stroke="#607080" stroke-opacity=".251" stroke-miterlimit="10"/></g><g clip-path="url(#y)"><path d="M471.957 339.406V41.453" fill="none" stroke-width="1.358" stroke-linejoin="round" stroke="#607080" stroke-opacity=".251" stroke-miterlimit="10"/></g><g clip-path="url(#z)"><path d="M292.879 339.406V41.453" fill="none" stroke-width="1.067" stroke-linejoin="round" stroke="#607080" stroke-opacity=".749" stroke-miterlimit="10"/></g><path d="M53.977 253.914c0 1.54-2.309 1.54-2.309 0 0-1.539 2.309-1.539 2.309 0M56.395 178.438c0 1.539-2.31 1.539-2.31 0 0-1.54 2.31-1.54 2.31 0M58.816 118.48c0 1.54-2.308 1.54-2.308 0 0-1.539 2.308-1.539 2.308 0M61.234 203.832c0 1.54-2.308 1.54-2.308 0 0-1.539 2.308-1.539 2.308 0M63.656 177.027c0 1.54-2.312 1.54-2.312 0 0-1.539 2.312-1.539 2.312 0M66.074 198.188c0 1.539-2.308 1.539-2.308 0 0-1.54 2.308-1.54 2.308 0M68.496 190.43c0 1.539-2.312 1.539-2.312 0 0-1.54 2.312-1.54 2.312 0M70.914 209.473c0 1.543-2.309 1.543-2.309 0 0-1.54 2.31-1.54 2.31 0M73.332 131.176c0 1.539-2.309 1.539-2.309 0 0-1.54 2.309-1.54 2.309 0M75.754 138.938c0 1.539-2.309 1.539-2.309 0 0-1.54 2.309-1.54 2.309 0M78.172 162.215c0 1.539-2.309 1.539-2.309 0 0-1.54 2.309-1.54 2.309 0M80.594 184.434c0 1.539-2.309 1.539-2.309 0 0-1.54 2.309-1.54 2.309 0M83.012 188.313c0 1.539-2.309 1.539-2.309 0 0-1.54 2.309-1.54 2.309 0M85.434 172.793c0 1.539-2.309 1.539-2.309 0 0-1.54 2.309-1.54 2.309 0M87.852 190.43c0 1.539-2.309 1.539-2.309 0 0-1.54 2.309-1.54 2.309 0M90.273 209.473c0 1.543-2.308 1.543-2.308 0 0-1.54 2.308-1.54 2.308 0M92.691 325.863c0 1.54-2.308 1.54-2.308 0 0-1.539 2.308-1.539 2.308 0M95.113 179.145c0 1.539-2.312 1.539-2.312 0 0-1.543 2.312-1.543 2.312 0M97.531 221.465c0 1.539-2.308 1.539-2.308 0 0-1.54 2.308-1.54 2.308 0M99.953 193.25c0 1.54-2.312 1.54-2.312 0s2.312-1.54 2.312 0M102.371 188.313c0 1.539-2.308 1.539-2.308 0 0-1.54 2.308-1.54 2.308 0M104.79 250.387c0 1.539-2.31 1.539-2.31 0 0-1.54 2.31-1.54 2.31 0M107.21 194.66c0 1.54-2.308 1.54-2.308 0 0-1.539 2.309-1.539 2.309 0M109.629 179.145c0 1.539-2.309 1.539-2.309 0 0-1.543 2.309-1.543 2.309 0M112.05 241.215c0 1.543-2.308 1.543-2.308 0 0-1.54 2.309-1.54 2.309 0M114.469 304.7c0 1.542-2.309 1.542-2.309 0 0-1.54 2.309-1.54 2.309 0M116.89 165.742c0 1.54-2.308 1.54-2.308 0 0-1.539 2.309-1.539 2.309 0M119.309 209.473c0 1.543-2.309 1.543-2.309 0 0-1.54 2.309-1.54 2.309 0M121.73 198.895c0 1.539-2.308 1.539-2.308 0 0-1.54 2.308-1.54 2.308 0M124.148 224.29c0 1.538-2.308 1.538-2.308 0 0-1.544 2.308-1.544 2.308 0M126.57 241.922c0 1.539-2.308 1.539-2.308 0 0-1.54 2.308-1.54 2.308 0M128.988 222.172c0 1.539-2.308 1.539-2.308 0 0-1.54 2.308-1.54 2.308 0M131.41 226.402c0 1.54-2.312 1.54-2.312 0 0-1.539 2.312-1.539 2.312 0M133.828 217.234c0 1.54-2.308 1.54-2.308 0 0-1.539 2.308-1.539 2.308 0M136.246 325.863c0 1.54-2.309 1.54-2.309 0 0-1.539 2.31-1.539 2.31 0M138.668 215.117c0 1.54-2.309 1.54-2.309 0 0-1.539 2.309-1.539 2.309 0M141.086 325.863c0 1.54-2.309 1.54-2.309 0 0-1.539 2.309-1.539 2.309 0M143.508 269.785c0 1.54-2.309 1.54-2.309 0 0-1.539 2.309-1.539 2.309 0M145.926 197.836c0 1.539-2.309 1.539-2.309 0 0-1.54 2.309-1.54 2.309 0M148.348 202.422c0 1.539-2.309 1.539-2.309 0 0-1.54 2.309-1.54 2.309 0M150.766 220.055c0 1.539-2.309 1.539-2.309 0 0-1.54 2.309-1.54 2.309 0M153.188 203.48c0 1.54-2.31 1.54-2.31 0 0-1.542 2.31-1.542 2.31 0M155.605 325.863c0 1.54-2.308 1.54-2.308 0 0-1.539 2.308-1.539 2.308 0M158.027 325.863c0 1.54-2.308 1.54-2.308 0 0-1.539 2.308-1.539 2.308 0M160.445 241.215c0 1.543-2.308 1.543-2.308 0 0-1.54 2.308-1.54 2.308 0M162.867 262.379c0 1.539-2.312 1.539-2.312 0 0-1.54 2.312-1.54 2.312 0M165.285 248.27c0 1.539-2.308 1.539-2.308 0 0-1.54 2.308-1.54 2.308 0M167.707 238.746c0 1.543-2.312 1.543-2.312 0 0-1.539 2.312-1.539 2.312 0M170.125 325.863c0 1.54-2.309 1.54-2.309 0 0-1.539 2.309-1.539 2.309 0M172.543 269.434c0 1.539-2.309 1.539-2.309 0 0-1.543 2.309-1.543 2.309 0M174.965 251.094c0 1.539-2.309 1.539-2.309 0 0-1.543 2.309-1.543 2.309 0M177.383 325.863c0 1.54-2.309 1.54-2.309 0 0-1.539 2.309-1.539 2.309 0M179.805 211.59c0 1.539-2.309 1.539-2.309 0 0-1.54 2.309-1.54 2.309 0M182.223 192.547c0 1.539-2.309 1.539-2.309 0 0-1.543 2.309-1.543 2.309 0M184.645 229.227c0 1.539-2.31 1.539-2.31 0 0-1.54 2.31-1.54 2.31 0M187.063 264.496c0 1.54-2.31 1.54-2.31 0 0-1.543 2.31-1.543 2.31 0M189.484 241.215c0 1.543-2.308 1.543-2.308 0 0-1.54 2.308-1.54 2.308 0M191.902 183.375c0 1.54-2.308 1.54-2.308 0s2.308-1.54 2.308 0M194.324 269.434c0 1.539-2.312 1.539-2.312 0 0-1.543 2.312-1.543 2.312 0M196.742 236.277c0 1.54-2.308 1.54-2.308 0 0-1.539 2.308-1.539 2.308 0M199.164 255.324c0 1.54-2.312 1.54-2.312 0 0-1.539 2.312-1.539 2.312 0M201.582 270.488c0 1.543-2.309 1.543-2.309 0 0-1.539 2.309-1.539 2.309 0M204 325.863c0 1.54-2.309 1.54-2.309 0 0-1.539 2.309-1.539 2.309 0M206.422 325.863c0 1.54-2.309 1.54-2.309 0 0-1.539 2.309-1.539 2.309 0M208.84 312.813c0 1.539-2.309 1.539-2.309 0 0-1.54 2.309-1.54 2.309 0M211.262 230.637c0 1.539-2.309 1.539-2.309 0 0-1.54 2.309-1.54 2.309 0M213.68 232.754c0 1.539-2.309 1.539-2.309 0 0-1.543 2.309-1.543 2.309 0M216.102 325.863c0 1.54-2.309 1.54-2.309 0 0-1.539 2.309-1.539 2.309 0M218.52 270.488c0 1.543-2.31 1.543-2.31 0 0-1.539 2.31-1.539 2.31 0M220.941 244.39c0 1.54-2.308 1.54-2.308 0 0-1.538 2.308-1.538 2.308 0M223.36 248.27c0 1.539-2.31 1.539-2.31 0 0-1.54 2.31-1.54 2.31 0M225.781 230.988c0 1.54-2.308 1.54-2.308 0 0-1.539 2.308-1.539 2.308 0M228.2 227.11c0 1.538-2.31 1.538-2.31 0 0-1.54 2.31-1.54 2.31 0M230.621 325.863c0 1.54-2.312 1.54-2.312 0 0-1.539 2.312-1.539 2.312 0M233.04 325.863c0 1.54-2.31 1.54-2.31 0 0-1.539 2.31-1.539 2.31 0M235.457 220.055c0 1.539-2.309 1.539-2.309 0 0-1.54 2.309-1.54 2.309 0M237.879 145.285c0 1.54-2.309 1.54-2.309 0 0-1.539 2.309-1.539 2.309 0M240.297 139.64c0 1.54-2.309 1.54-2.309 0 0-1.538 2.309-1.538 2.309 0M242.719 162.918c0 1.539-2.309 1.539-2.309 0 0-1.54 2.309-1.54 2.309 0M245.137 205.95c0 1.538-2.309 1.538-2.309 0 0-1.544 2.309-1.544 2.309 0M247.559 107.195c0 1.54-2.309 1.54-2.309 0 0-1.539 2.309-1.539 2.309 0M249.977 198.895c0 1.539-2.309 1.539-2.309 0 0-1.54 2.309-1.54 2.309 0M252.398 146.695c0 1.54-2.308 1.54-2.308 0 0-1.539 2.308-1.539 2.308 0M254.816 222.875c0 1.543-2.308 1.543-2.308 0 0-1.54 2.308-1.54 2.308 0M257.238 180.555c0 1.539-2.308 1.539-2.308 0 0-1.54 2.308-1.54 2.308 0M259.656 186.195c0 1.54-2.308 1.54-2.308 0 0-1.539 2.308-1.539 2.308 0M262.078 54.996c0 1.54-2.312 1.54-2.312 0 0-1.539 2.312-1.539 2.312 0M264.496 154.453c0 1.54-2.308 1.54-2.308 0 0-1.539 2.308-1.539 2.308 0M266.918 165.742c0 1.54-2.313 1.54-2.313 0 0-1.539 2.313-1.539 2.313 0M269.336 306.113c0 1.54-2.309 1.54-2.309 0 0-1.539 2.309-1.539 2.309 0M271.754 158.688c0 1.539-2.309 1.539-2.309 0 0-1.54 2.309-1.54 2.309 0M274.176 241.215c0 1.543-2.309 1.543-2.309 0 0-1.54 2.309-1.54 2.309 0M276.594 265.2c0 1.538-2.309 1.538-2.309 0 0-1.54 2.309-1.54 2.309 0M279.016 262.379c0 1.539-2.309 1.539-2.309 0 0-1.54 2.309-1.54 2.309 0M281.434 248.27c0 1.539-2.309 1.539-2.309 0 0-1.54 2.309-1.54 2.309 0M283.855 283.54c0 1.538-2.308 1.538-2.308 0 0-1.54 2.308-1.54 2.308 0M286.273 220.055c0 1.539-2.308 1.539-2.308 0 0-1.54 2.308-1.54 2.308 0M288.695 153.043c0 1.539-2.308 1.539-2.308 0 0-1.54 2.308-1.54 2.308 0M291.113 271.547c0 1.539-2.308 1.539-2.308 0 0-1.54 2.308-1.54 2.308 0M293.535 261.672c0 1.539-2.312 1.539-2.312 0 0-1.54 2.312-1.54 2.312 0M295.953 304.7c0 1.542-2.308 1.542-2.308 0 0-1.54 2.308-1.54 2.308 0M298.375 325.863c0 1.54-2.313 1.54-2.313 0 0-1.539 2.313-1.539 2.313 0M300.793 308.934c0 1.539-2.309 1.539-2.309 0 0-1.54 2.309-1.54 2.309 0M303.21 295.531c0 1.54-2.308 1.54-2.308 0 0-1.539 2.309-1.539 2.309 0M305.633 325.863c0 1.54-2.309 1.54-2.309 0 0-1.539 2.309-1.539 2.309 0M308.05 325.863c0 1.54-2.308 1.54-2.308 0 0-1.539 2.309-1.539 2.309 0M310.473 325.863c0 1.54-2.309 1.54-2.309 0 0-1.539 2.309-1.539 2.309 0M312.89 261.672c0 1.539-2.308 1.539-2.308 0 0-1.54 2.309-1.54 2.309 0M315.313 325.863c0 1.54-2.31 1.54-2.31 0 0-1.539 2.31-1.539 2.31 0M317.73 325.863c0 1.54-2.308 1.54-2.308 0 0-1.539 2.308-1.539 2.308 0M320.152 325.863c0 1.54-2.308 1.54-2.308 0 0-1.539 2.308-1.539 2.308 0M322.57 197.484c0 1.54-2.308 1.54-2.308 0 0-1.539 2.308-1.539 2.308 0M324.992 315.281c0 1.54-2.308 1.54-2.308 0 0-1.539 2.308-1.539 2.308 0M327.41 325.863c0 1.54-2.308 1.54-2.308 0 0-1.539 2.308-1.539 2.308 0M329.832 286.36c0 1.542-2.312 1.542-2.312 0 0-1.54 2.312-1.54 2.312 0M332.25 197.484c0 1.54-2.309 1.54-2.309 0 0-1.539 2.309-1.539 2.309 0M334.672 304.7c0 1.542-2.313 1.542-2.313 0 0-1.54 2.313-1.54 2.313 0M337.09 325.863c0 1.54-2.309 1.54-2.309 0 0-1.539 2.309-1.539 2.309 0M339.508 325.863c0 1.54-2.309 1.54-2.309 0 0-1.539 2.309-1.539 2.309 0M341.93 325.863c0 1.54-2.309 1.54-2.309 0 0-1.539 2.309-1.539 2.309 0M344.348 325.863c0 1.54-2.309 1.54-2.309 0 0-1.539 2.309-1.539 2.309 0M346.77 325.863c0 1.54-2.31 1.54-2.31 0 0-1.539 2.31-1.539 2.31 0M349.188 325.863c0 1.54-2.31 1.54-2.31 0 0-1.539 2.31-1.539 2.31 0M351.61 325.863c0 1.54-2.31 1.54-2.31 0 0-1.539 2.31-1.539 2.31 0M354.027 325.863c0 1.54-2.308 1.54-2.308 0 0-1.539 2.308-1.539 2.308 0M356.45 292.004c0 1.539-2.31 1.539-2.31 0 0-1.54 2.31-1.54 2.31 0M358.867 325.863c0 1.54-2.308 1.54-2.308 0 0-1.539 2.308-1.539 2.308 0M361.29 325.863c0 1.54-2.313 1.54-2.313 0 0-1.539 2.312-1.539 2.312 0M363.707 325.863c0 1.54-2.309 1.54-2.309 0 0-1.539 2.309-1.539 2.309 0M366.129 304.7c0 1.542-2.313 1.542-2.313 0 0-1.54 2.313-1.54 2.313 0M368.547 325.863c0 1.54-2.309 1.54-2.309 0 0-1.539 2.309-1.539 2.309 0M370.965 308.934c0 1.539-2.309 1.539-2.309 0 0-1.54 2.309-1.54 2.309 0M373.387 232.754c0 1.539-2.309 1.539-2.309 0 0-1.543 2.309-1.543 2.309 0M375.805 325.863c0 1.54-2.309 1.54-2.309 0 0-1.539 2.309-1.539 2.309 0M378.227 325.863c0 1.54-2.309 1.54-2.309 0 0-1.539 2.309-1.539 2.309 0M380.645 325.863c0 1.54-2.31 1.54-2.31 0 0-1.539 2.31-1.539 2.31 0M383.066 325.863c0 1.54-2.308 1.54-2.308 0 0-1.539 2.308-1.539 2.308 0M385.484 272.254c0 1.539-2.308 1.539-2.308 0 0-1.54 2.308-1.54 2.308 0M387.906 280.012c0 1.539-2.308 1.539-2.308 0 0-1.54 2.308-1.54 2.308 0M390.324 325.863c0 1.54-2.308 1.54-2.308 0 0-1.539 2.308-1.539 2.308 0M392.746 325.863c0 1.54-2.312 1.54-2.312 0 0-1.539 2.312-1.539 2.312 0M395.164 325.863c0 1.54-2.309 1.54-2.309 0 0-1.539 2.31-1.539 2.31 0M397.586 315.281c0 1.54-2.313 1.54-2.313 0 0-1.539 2.313-1.539 2.313 0M400.004 325.863c0 1.54-2.309 1.54-2.309 0 0-1.539 2.309-1.539 2.309 0M402.422 325.863c0 1.54-2.309 1.54-2.309 0 0-1.539 2.309-1.539 2.309 0M404.844 325.863c0 1.54-2.309 1.54-2.309 0 0-1.539 2.309-1.539 2.309 0M407.262 325.863c0 1.54-2.309 1.54-2.309 0 0-1.539 2.309-1.539 2.309 0M409.684 325.863c0 1.54-2.309 1.54-2.309 0 0-1.539 2.309-1.539 2.309 0M412.102 268.02c0 1.543-2.309 1.543-2.309 0 0-1.54 2.309-1.54 2.309 0M414.523 325.863c0 1.54-2.308 1.54-2.308 0 0-1.539 2.308-1.539 2.308 0M416.941 325.863c0 1.54-2.308 1.54-2.308 0 0-1.539 2.308-1.539 2.308 0M419.363 325.863c0 1.54-2.308 1.54-2.308 0 0-1.539 2.308-1.539 2.308 0M421.781 325.863c0 1.54-2.308 1.54-2.308 0 0-1.539 2.308-1.539 2.308 0M424.203 325.863c0 1.54-2.308 1.54-2.308 0 0-1.539 2.308-1.539 2.308 0M426.621 282.129c0 1.539-2.308 1.539-2.308 0 0-1.54 2.308-1.54 2.308 0M429.043 325.863c0 1.54-2.313 1.54-2.313 0 0-1.539 2.313-1.539 2.313 0M431.46 299.059c0 1.539-2.308 1.539-2.308 0 0-1.54 2.309-1.54 2.309 0M433.883 238.395c0 1.539-2.313 1.539-2.313 0 0-1.54 2.313-1.54 2.313 0M436.3 292.004c0 1.539-2.308 1.539-2.308 0 0-1.54 2.309-1.54 2.309 0M438.719 292.004c0 1.539-2.309 1.539-2.309 0 0-1.54 2.309-1.54 2.309 0M441.14 325.863c0 1.54-2.308 1.54-2.308 0 0-1.539 2.309-1.539 2.309 0M443.559 325.863c0 1.54-2.309 1.54-2.309 0 0-1.539 2.309-1.539 2.309 0M445.98 292.004c0 1.539-2.308 1.539-2.308 0 0-1.54 2.308-1.54 2.308 0M448.398 315.281c0 1.54-2.308 1.54-2.308 0 0-1.539 2.308-1.539 2.308 0M450.82 325.863c0 1.54-2.308 1.54-2.308 0 0-1.539 2.308-1.539 2.308 0M453.238 325.863c0 1.54-2.308 1.54-2.308 0 0-1.539 2.308-1.539 2.308 0M455.66 325.863c0 1.54-2.308 1.54-2.308 0 0-1.539 2.308-1.539 2.308 0M458.078 325.863c0 1.54-2.308 1.54-2.308 0 0-1.539 2.308-1.539 2.308 0M460.5 225.7c0 1.538-2.313 1.538-2.313 0 0-1.54 2.313-1.54 2.313 0M462.918 272.254c0 1.539-2.309 1.539-2.309 0 0-1.54 2.309-1.54 2.309 0M465.34 325.863c0 1.54-2.313 1.54-2.313 0 0-1.539 2.313-1.539 2.313 0M467.758 325.863c0 1.54-2.309 1.54-2.309 0 0-1.539 2.309-1.539 2.309 0M470.176 299.059c0 1.539-2.309 1.539-2.309 0 0-1.54 2.309-1.54 2.309 0M472.598 299.059c0 1.539-2.309 1.539-2.309 0 0-1.54 2.309-1.54 2.309 0M475.016 325.863c0 1.54-2.309 1.54-2.309 0 0-1.539 2.309-1.539 2.309 0M477.438 325.863c0 1.54-2.31 1.54-2.31 0 0-1.539 2.31-1.539 2.31 0M479.855 189.723c0 1.539-2.308 1.539-2.308 0 0-1.54 2.308-1.54 2.308 0M482.277 325.863c0 1.54-2.308 1.54-2.308 0 0-1.539 2.308-1.539 2.308 0M484.695 325.863c0 1.54-2.308 1.54-2.308 0 0-1.539 2.308-1.539 2.308 0M487.117 286.36c0 1.542-2.308 1.542-2.308 0 0-1.54 2.308-1.54 2.308 0M489.535 325.863c0 1.54-2.308 1.54-2.308 0 0-1.539 2.308-1.539 2.308 0M491.957 325.863c0 1.54-2.312 1.54-2.312 0 0-1.539 2.312-1.539 2.312 0M494.375 325.863c0 1.54-2.309 1.54-2.309 0 0-1.539 2.309-1.539 2.309 0M496.797 325.863c0 1.54-2.313 1.54-2.313 0 0-1.539 2.313-1.539 2.313 0M499.215 325.863c0 1.54-2.309 1.54-2.309 0 0-1.539 2.309-1.539 2.309 0M501.633 325.863c0 1.54-2.309 1.54-2.309 0 0-1.539 2.309-1.539 2.309 0M504.055 177.027c0 1.54-2.309 1.54-2.309 0 0-1.539 2.309-1.539 2.309 0M506.473 258.852c0 1.539-2.309 1.539-2.309 0 0-1.54 2.309-1.54 2.309 0M508.895 325.863c0 1.54-2.31 1.54-2.31 0 0-1.539 2.31-1.539 2.31 0M511.313 270.844c0 1.539-2.31 1.539-2.31 0 0-1.54 2.31-1.54 2.31 0" fill="#1369bf" stroke-width=".709" stroke-linecap="round" stroke-linejoin="round" stroke="#1369bf" stroke-miterlimit="10"/><path d="M69.758 191.223l2.422-15.344 2.418-4.938 2.422 5.47 2.418-2.427 2.421 1.41 2.418-3.171h4.84l2.422 24.336 2.418 5.023 2.422 7.406 2.418 1.102h2.418l2.422 9.7 2.418.53 2.422-3.793 2.418-10.578 2.421 15.692 2.418-6.965 2.422 2.027 2.418 1.324 2.422-3.261 2.418 5.906 2.422 5.379 2.418-1.852 2.418-10.933 2.422 20.015 2.418.707 2.422 15.871 2.418 5.684 2.421-5.508 2.418-2.469 2.422-.793 2.418-1.722h2.422l2.418 13.844 2.422-10.579 2.418-.925 2.418 6.3 2.422 4.543 2.418 13.227 2.422 8.242 2.418-9.344h2.421l2.418-3.703 2.422-8.73 2.418-2.383 2.422 3.219 2.418-10.578 2.422-10.758 2.418 2.293 2.422-11.2 2.418 5.47 2.418 9.741 2.422 12.079 2.418 7.671 2.422 8.95 2.417 5.906 2.422-4.582 2.418 11.195 2.422 1.899 2.418-3.266 2.422-9.7 2.418-11.855 2.422-10.714 2.418 11.902 2.418 11.64 2.422-13.226 2.418-15.652 2.422-13.094 2.417-10.668 2.422-3.13 2.418-14.987 2.422-15.871 2.418-22.399 2.422.352 2.418 4.41 2.422 5.82 2.418-13.492 2.418-6.434 2.422 7.317 2.418 13.402 2.422 1.5 2.418 2.293 2.421 10.578 2.418 9.524 2.422 24.16 2.418 16.137 2.422 6.789 2.418-19.137 2.422 14.11 2.418 2.558 2.422 4.937 2.418 7.934 2.418 7.582 2.422 1.5 2.418 13.227 2.421 21.601 2.418 6.79h2.422l2.418 2.644h2.422l2.418 2.117 2.422-12.254 2.418-1.324h2.422l2.418-4.938 2.418-8.023 2.422-2.645h4.84l2.417 16.047 2.422 1.32h2.418l2.422 4.942 2.418 16.047 2.422 2.644 2.418-4.234h7.258l2.422-2.645h2.418l2.421-2.117 2.418-11.637 2.422 4.23h7.258l2.422-4.054 2.418-5.73 2.422 2.117 2.418 11.637h2.422l2.418-1.32h4.84l2.418 6.699 2.421 5.73h2.418l2.422-7.23h2.418l2.422 1.324h7.258l2.422-5.469h2.418l2.418 3.883 2.422-10.934 2.418-4.234 2.421-4.23h4.84l2.418 1.234 2.422-1.324 2.418 3.351 2.422 10.934 2.418 4.23 2.422 4.235 2.418-12.52 2.418-6.703 2.422 4.23 2.418 1.325 2.421-3.352 2.418-3.348h4.84l2.422-4.5 2.418 6.704h2.422l2.418-4.938 2.422 3.352 2.418 3.347h4.84l2.418 17.02h2.421l2.418-18.606 2.422-3.437h2.418l2.422-6.88" fill="none" stroke-width="1.067" stroke-linejoin="round" stroke="#bd3338" stroke-miterlimit="10"/><g fill="#607080"><use xlink:href="#A" x="12.539" y="329.535"/><use xlink:href="#B" x="18.107" y="329.535"/></g><g fill="#607080"><use xlink:href="#A" x="6.973" y="258.996"/><use xlink:href="#C" x="12.541" y="258.996"/><use xlink:href="#B" x="18.108" y="258.996"/></g><g fill="#607080"><use xlink:href="#A" x="6.973" y="188.457"/><use xlink:href="#D" x="12.541" y="188.457"/><use xlink:href="#B" x="18.108" y="188.457"/></g><g fill="#607080"><use xlink:href="#A" x="6.973" y="117.918"/><use xlink:href="#E" x="12.541" y="117.918"/><use xlink:href="#B" x="18.108" y="117.918"/></g><g fill="#607080"><use xlink:href="#A" x="6.973" y="47.383"/><use xlink:href="#F" x="12.541" y="47.383"/><use xlink:href="#B" x="18.108" y="47.383"/></g><g fill="#607080"><use xlink:href="#G" x="76.375" y="353.027"/><use xlink:href="#H" x="81.752" y="353.027"/><use xlink:href="#I" x="87.488" y="353.027"/><use xlink:href="#J" x="93.617" y="353.027"/><use xlink:href="#K" x="95.88" y="353.027"/><use xlink:href="#C" x="98.669" y="353.027"/><use xlink:href="#L" x="104.237" y="353.027"/></g><g fill="#607080"><use xlink:href="#G" x="140.387" y="353.027"/><use xlink:href="#M" x="145.764" y="353.027"/><use xlink:href="#N" x="151.859" y="353.027"/><use xlink:href="#J" x="154.715" y="353.027"/><use xlink:href="#K" x="156.978" y="353.027"/><use xlink:href="#C" x="159.768" y="353.027"/><use xlink:href="#L" x="165.336" y="353.027"/></g><g fill="#607080"><use xlink:href="#G" x="202.551" y="353.027"/><use xlink:href="#H" x="207.928" y="353.027"/><use xlink:href="#I" x="213.664" y="353.027"/><use xlink:href="#J" x="219.792" y="353.027"/><use xlink:href="#K" x="222.055" y="353.027"/><use xlink:href="#C" x="224.845" y="353.027"/><use xlink:href="#O" x="230.413" y="353.027"/></g><g fill="#607080"><use xlink:href="#G" x="266.906" y="353.027"/><use xlink:href="#M" x="272.284" y="353.027"/><use xlink:href="#N" x="278.378" y="353.027"/><use xlink:href="#J" x="281.235" y="353.027"/><use xlink:href="#K" x="283.498" y="353.027"/><use xlink:href="#C" x="286.288" y="353.027"/><use xlink:href="#O" x="291.855" y="353.027"/></g><g fill="#607080"><use xlink:href="#G" x="329.07" y="353.027"/><use xlink:href="#H" x="334.448" y="353.027"/><use xlink:href="#I" x="340.184" y="353.027"/><use xlink:href="#J" x="346.312" y="353.027"/><use xlink:href="#K" x="348.575" y="353.027"/><use xlink:href="#C" x="351.364" y="353.027"/><use xlink:href="#P" x="356.932" y="353.027"/></g><g fill="#607080"><use xlink:href="#G" x="393.082" y="353.027"/><use xlink:href="#M" x="398.46" y="353.027"/><use xlink:href="#N" x="404.554" y="353.027"/><use xlink:href="#J" x="407.411" y="353.027"/><use xlink:href="#K" x="409.674" y="353.027"/><use xlink:href="#C" x="412.463" y="353.027"/><use xlink:href="#P" x="418.031" y="353.027"/></g><g fill="#607080"><use xlink:href="#G" x="455.242" y="353.027"/><use xlink:href="#H" x="460.62" y="353.027"/><use xlink:href="#I" x="466.356" y="353.027"/><use xlink:href="#J" x="472.484" y="353.027"/><use xlink:href="#K" x="474.747" y="353.027"/><use xlink:href="#C" x="477.536" y="353.027"/><use xlink:href="#Q" x="483.104" y="353.027"/></g><use xlink:href="#R" x="29.953" y="33.895"/><use xlink:href="#S" x="36.678" y="33.895"/><use xlink:href="#T" x="42.925" y="33.895"/><use xlink:href="#U" x="49.914" y="33.895"/><use xlink:href="#S" x="54.171" y="33.895"/><use xlink:href="#V" x="60.417" y="33.895"/><use xlink:href="#W" x="70.858" y="33.895"/><use xlink:href="#S" x="77.847" y="33.895"/><use xlink:href="#X" x="84.094" y="33.895"/><use xlink:href="#Y" x="88.464" y="33.895"/><use xlink:href="#Z" x="91.008" y="33.895"/><use xlink:href="#aa" x="97.267" y="33.895"/><use xlink:href="#ab" x="103.526" y="33.895"/><use xlink:href="#ac" x="109.785" y="33.895"/><use xlink:href="#Y" x="116.044" y="33.895"/><use xlink:href="#U" x="118.588" y="33.895"/><use xlink:href="#ad" x="122.845" y="33.895"/><use xlink:href="#Y" x="129.67" y="33.895"/><use xlink:href="#ae" x="132.214" y="33.895"/><use xlink:href="#af" x="141.37" y="33.895"/><use xlink:href="#ag" x="147.818" y="33.895"/><use xlink:href="#Y" x="153.699" y="33.895"/><use xlink:href="#Z" x="156.243" y="33.895"/><use xlink:href="#aa" x="162.502" y="33.895"/><use xlink:href="#ab" x="168.761" y="33.895"/><use xlink:href="#ah" x="175.021" y="33.895"/><use xlink:href="#ai" x="181.28" y="33.895"/><use xlink:href="#Y" x="184.415" y="33.895"/><use xlink:href="#aj" x="186.959" y="33.895"/><use xlink:href="#S" x="192.841" y="33.895"/><use xlink:href="#X" x="199.087" y="33.895"/><use xlink:href="#U" x="203.457" y="33.895"/><use xlink:href="#ak" x="207.714" y="33.895"/><use xlink:href="#al" x="210.812" y="33.895"/><use xlink:href="#af" x="216.555" y="33.895"/><use xlink:href="#am" x="223.003" y="33.895"/><use xlink:href="#Y" x="226.214" y="33.895"/><use xlink:href="#W" x="228.758" y="33.895"/><use xlink:href="#af" x="235.748" y="33.895"/><use xlink:href="#X" x="242.196" y="33.895"/><use xlink:href="#Y" x="246.566" y="33.895"/><use xlink:href="#V" x="249.11" y="33.895"/><use xlink:href="#af" x="259.55" y="33.895"/><use xlink:href="#X" x="265.998" y="33.895"/><use xlink:href="#an" x="270.368" y="33.895"/><use xlink:href="#ao" x="276.602" y="33.895"/><use xlink:href="#Y" x="281.878" y="33.895"/><use xlink:href="#ap" x="284.422" y="33.895"/><use xlink:href="#ad" x="291.273" y="33.895"/><use xlink:href="#aq" x="298.099" y="33.895"/><use xlink:href="#ao" x="304.95" y="33.895"/><use xlink:href="#S" x="310.227" y="33.895"/><use xlink:href="#Y" x="316.473" y="33.895"/><use xlink:href="#V" x="319.017" y="33.895"/><use xlink:href="#ad" x="329.458" y="33.895"/><use xlink:href="#aj" x="336.283" y="33.895"/><use xlink:href="#S" x="342.165" y="33.895"/><g><use xlink:href="#ar" x="29.953" y="17.988"/><use xlink:href="#as" x="43.155" y="17.988"/><use xlink:href="#as" x="51.487" y="17.988"/><use xlink:href="#at" x="59.818" y="17.988"/><use xlink:href="#au" x="68.132" y="17.988"/><use xlink:href="#av" x="72.415" y="17.988"/><use xlink:href="#aw" x="80.26" y="17.988"/><use xlink:href="#ax" x="83.653" y="17.988"/><use xlink:href="#ay" x="89.33" y="17.988"/><use xlink:href="#az" x="95.158" y="17.988"/><use xlink:href="#aA" x="103.758" y="17.988"/><use xlink:href="#aB" x="112.946" y="17.988"/><use xlink:href="#aC" x="119.984" y="17.988"/><use xlink:href="#aD" x="129.306" y="17.988"/><use xlink:href="#ay" x="138.41" y="17.988"/><use xlink:href="#ax" x="144.239" y="17.988"/><use xlink:href="#aw" x="149.916" y="17.988"/><use xlink:href="#aB" x="153.309" y="17.988"/><use xlink:href="#aC" x="160.347" y="17.988"/><use xlink:href="#as" x="169.669" y="17.988"/><use xlink:href="#aA" x="178" y="17.988"/><use xlink:href="#aE" x="187.188" y="17.988"/><use xlink:href="#aF" x="196.51" y="17.988"/><use xlink:href="#aA" x="200.642" y="17.988"/><use xlink:href="#aG" x="209.83" y="17.988"/><use xlink:href="#aw" x="218.296" y="17.988"/><use xlink:href="#az" x="221.689" y="17.988"/><use xlink:href="#aA" x="230.289" y="17.988"/><use xlink:href="#aE" x="239.477" y="17.988"/><use xlink:href="#aw" x="248.799" y="17.988"/><use xlink:href="#aH" x="252.192" y="17.988"/><use xlink:href="#aI" x="260.54" y="17.988"/><use xlink:href="#aJ" x="265.764" y="17.988"/><use xlink:href="#as" x="277.824" y="17.988"/><use xlink:href="#as" x="286.155" y="17.988"/><use xlink:href="#at" x="294.486" y="17.988"/><use xlink:href="#aw" x="302.801" y="17.988"/><use xlink:href="#aK" x="306.194" y="17.988"/><use xlink:href="#aD" x="320.118" y="17.988"/><use xlink:href="#aL" x="329.222" y="17.988"/><use xlink:href="#aF" x="337.066" y="17.988"/><use xlink:href="#aA" x="341.198" y="17.988"/><use xlink:href="#aG" x="350.386" y="17.988"/><use xlink:href="#aw" x="358.852" y="17.988"/><use xlink:href="#az" x="362.245" y="17.988"/><use xlink:href="#aL" x="370.845" y="17.988"/><use xlink:href="#as" x="378.689" y="17.988"/><use xlink:href="#ay" x="387.02" y="17.988"/><use xlink:href="#az" x="392.849" y="17.988"/><use xlink:href="#aG" x="401.449" y="17.988"/><use xlink:href="#as" x="409.914" y="17.988"/></g></svg>