<svg xmlns="http://www.w3.org/2000/svg" xmlns:xlink="http://www.w3.org/1999/xlink" width="720" height="288" viewBox="0 0 540 216"><defs><symbol overflow="visible" id="i"><path d="M.453 0h4.61v-.797H2.983c-.359 0-.796.031-1.187.063C3.484-2.5 4.703-3.828 4.703-5.172c0-1.266-.812-2.11-2.14-2.11-.922 0-1.563.438-2.157 1.095l.531.515c.407-.484.922-.86 1.516-.86.906 0 1.36.579 1.36 1.407 0 1.14-1.22 2.438-3.36 4.578zm0 0"/></symbol><symbol overflow="visible" id="j"><path d="M2.797.14c1.422 0 2.281-1.343 2.281-3.734 0-2.406-.86-3.687-2.281-3.687C1.359-7.281.5-6 .5-3.594c0 2.39.86 3.735 2.297 3.735zm0-.75c-.844 0-1.406-.89-1.406-2.984s.562-2.953 1.406-2.953c.828 0 1.375.86 1.375 2.953 0 2.094-.547 2.985-1.375 2.985zm0 0"/></symbol><symbol overflow="visible" id="k"><path d="M.89 0h4.032v-.766H3.438V-7.14h-.704c-.39.235-.859.407-1.515.516v.594h1.297v5.265H.89zm0 0"/></symbol><symbol overflow="visible" id="l"><path d="M.281-.844c.485.5 1.203.985 2.344.985 1.234 0 2.406-.875 2.406-2.422 0-1.547-1-2.25-2.218-2.25-.438 0-.766.125-1.094.297l.187-2.125h2.766v-.782H1.094L.859-3.703l.5.312c.422-.28.72-.437 1.22-.437.921 0 1.515.578 1.515 1.562 0 1-.688 1.641-1.563 1.641-.844 0-1.375-.39-1.797-.813zm0 0"/></symbol><symbol overflow="visible" id="m"><path d="M3-.594c-.906 0-1.453-.75-1.563-2.14.485-.672 1.032-.938 1.485-.938.89 0 1.328.578 1.328 1.516C4.25-1.22 3.703-.594 3-.594zm1.984-5.922c-.406-.437-.953-.765-1.718-.765C1.844-7.281.53-6.171.53-3.313.531-1.015 1.61.142 3 .142c1.156 0 2.125-.938 2.125-2.297 0-1.469-.813-2.219-2.047-2.219-.578 0-1.219.36-1.672.906.047-2.265.89-3.047 1.89-3.047.438 0 .876.22 1.173.563zm0 0"/></symbol><symbol overflow="visible" id="n"><path d="M1.984 0h.954c.124-2.797.468-4.406 2.156-6.578v-.563H.5v.782h3.563C2.64-4.391 2.109-2.688 1.983 0zm0 0"/></symbol><symbol overflow="visible" id="o"><path d="M1.281-1.922c0-.64.438-1.172 1-1.547 1.031.406 1.938.75 1.938 1.672 0 .734-.563 1.25-1.39 1.25-.876 0-1.548-.578-1.548-1.375zm2.032-1.984c-.876-.328-1.657-.688-1.657-1.531 0-.704.5-1.157 1.157-1.157.78 0 1.25.563 1.25 1.266 0 .516-.282 1-.75 1.422zM.453-1.828c0 1.14 1 1.969 2.344 1.969 1.39 0 2.312-.844 2.312-1.907 0-.968-.609-1.468-1.25-1.843v-.047c.438-.328.985-.969.985-1.719 0-1.11-.766-1.906-2.016-1.906-1.14 0-2.015.734-2.015 1.843 0 .75.468 1.266.984 1.641v.047c-.672.36-1.344 1-1.344 1.922zm0 0"/></symbol><symbol overflow="visible" id="w"><path d="M.469-.953A3.594 3.594 0 0 0 3.047.14c1.547 0 2.5-.938 2.5-2.094 0-1.094-.656-1.594-1.516-1.969l-1.047-.453c-.578-.234-1.218-.516-1.218-1.219 0-.656.546-1.078 1.375-1.078.671 0 1.218.281 1.671.703l.5-.61a3.078 3.078 0 0 0-2.171-.905c-1.344 0-2.313.828-2.313 1.953 0 1.078.797 1.593 1.485 1.89l1.062.454c.688.312 1.219.562 1.219 1.312 0 .703-.578 1.188-1.532 1.188-.765 0-1.5-.36-2.03-.922zm0 0"/></symbol><symbol overflow="visible" id="x"><path d="M.516-2.719C.516-.906 1.703.141 3.03.141c1.344 0 2.531-1.047 2.531-2.86 0-1.812-1.187-2.86-2.53-2.86-1.329 0-2.516 1.048-2.516 2.86zm.953 0c0-1.25.64-2.094 1.562-2.094.953 0 1.578.844 1.578 2.094S3.984-.625 3.031-.625c-.922 0-1.562-.844-1.562-2.094zm0 0"/></symbol><symbol overflow="visible" id="y"><path d="M.922 0h.922v-3.938c.5-.562.953-.843 1.36-.843.702 0 1.015.437 1.015 1.453V0h.922v-3.938c.5-.562.937-.843 1.375-.843.671 0 1 .437 1 1.453V0h.921v-3.453c0-1.39-.546-2.125-1.656-2.125-.672 0-1.218.422-1.797 1.047-.218-.657-.671-1.047-1.5-1.047-.656 0-1.218.406-1.687.922h-.031l-.079-.782H.922zm0 0"/></symbol><symbol overflow="visible" id="z"><path d="M.516-2.719c0 1.781 1.156 2.86 2.609 2.86.734 0 1.328-.266 1.797-.563l-.328-.61a2.414 2.414 0 0 1-1.36.423c-1.03 0-1.75-.735-1.812-1.907h3.672c.031-.14.031-.312.031-.515 0-1.547-.781-2.547-2.172-2.547C1.72-5.578.516-4.5.516-2.718zm.89-.406c.125-1.094.813-1.719 1.578-1.719.844 0 1.344.61 1.344 1.719zm0 0"/></symbol><symbol overflow="visible" id="A"><path d="M1.016 0h.875v-3.844c0-.765-.063-1.562-.125-2.297h.046l.797 1.516L5.281 0h.953v-7.344H5.36v3.797c0 .766.063 1.594.11 2.344h-.047l-.797-1.531-2.656-4.61h-.953zm0 0"/></symbol><symbol overflow="visible" id="B"><path d="M.922 0h.922v-3.938c.547-.562.922-.843 1.484-.843.719 0 1.031.437 1.031 1.453V0h.922v-3.453c0-1.39-.515-2.125-1.656-2.125-.75 0-1.313.406-1.828.922h-.031l-.079-.782H.922zm0 0"/></symbol><symbol overflow="visible" id="p"><path d="M.594-1.188A4.427 4.427 0 0 0 3.813.173C5.734.172 6.937-1 6.937-2.453c0-1.36-.828-1.985-1.89-2.453l-1.313-.547C3.016-5.766 2.22-6.11 2.22-6.984c0-.829.672-1.344 1.703-1.344.86 0 1.531.328 2.078.86l.64-.75A3.817 3.817 0 0 0 3.923-9.36c-1.672 0-2.89 1.046-2.89 2.437 0 1.344 1 2.016 1.859 2.375l1.328.578c.86.39 1.515.672 1.515 1.61 0 .906-.703 1.5-1.906 1.5-.953 0-1.875-.454-2.547-1.141zm0 0"/></symbol><symbol overflow="visible" id="q"><path d="M2.266-.61c.625.485 1.265.782 1.89.782 1.563 0 2.938-1.36 2.938-3.672 0-2.11-.938-3.469-2.688-3.469-.797 0-1.547.438-2.172.953h-.03l-.11-.78H1.14v9.671h1.156V.578zm.03-.906v-3.562C2.97-5.688 3.547-6 4.11-6c1.297 0 1.797 1 1.797 2.5 0 1.688-.828 2.703-1.937 2.703-.453 0-1.063-.203-1.672-.719zm0 0"/></symbol><symbol overflow="visible" id="r"><path d="M.64-3.39C.64-1.157 2.095.171 3.907.171c.922 0 1.656-.328 2.235-.703l-.407-.75c-.5.312-1.046.531-1.687.531-1.297 0-2.188-.938-2.266-2.406h4.594c.016-.156.031-.39.031-.625 0-1.938-.968-3.188-2.703-3.188-1.562 0-3.062 1.36-3.062 3.578zm1.126-.516c.14-1.375 1-2.156 1.953-2.156 1.062 0 1.687.765 1.687 2.156zm0 0"/></symbol><symbol overflow="visible" id="s"><path d="M1.14 0h1.157v-4.922c.687-.687 1.156-1.062 1.86-1.062.89 0 1.296.546 1.296 1.828V0h1.14v-4.313c0-1.734-.64-2.656-2.077-2.656-.938 0-1.625.5-2.282 1.14h-.03l-.11-.968H1.14zm0 0"/></symbol><symbol overflow="visible" id="t"><path d="M.656-3.39C.656-1.126 1.766.171 3.47.171 4.266.172 5-.281 5.53-.797h.047L5.672 0h.953v-9.969H5.453v2.625l.063 1.157c-.61-.485-1.125-.782-1.907-.782C2.063-6.969.656-5.594.656-3.39zm1.188-.016C1.844-4.953 2.719-6 3.812-6c.563 0 1.079.188 1.641.703v3.563c-.547.625-1.094.937-1.734.937-1.188 0-1.875-.984-1.875-2.61zm0 0"/></symbol><symbol overflow="visible" id="u"><path d="M1.734-8.203c.454 0 .797-.313.797-.75 0-.438-.344-.735-.797-.735-.453 0-.796.297-.796.735 0 .437.343.75.796.75zM1.141 0h1.156v-6.797H1.14zm0 0"/></symbol><symbol overflow="visible" id="v"><path d="M1.64 1.14c0-.39.204-.796.704-1.14.281.078.61.11.875.11H4.39c.89 0 1.375.218 1.375.843 0 .719-.86 1.39-2.157 1.39-1.234 0-1.968-.468-1.968-1.202zm-1.015.157c0 1.187 1.156 1.844 2.813 1.844C5.562 3.14 6.89 2.047 6.89.78c0-1.125-.797-1.625-2.375-1.625H3.187c-.921 0-1.203-.297-1.203-.734 0-.375.204-.61.438-.813.312.157.687.235 1.015.235 1.391 0 2.5-.906 2.5-2.36 0-.578-.234-1.093-.562-1.406h1.406v-.875H4.406c-.25-.11-.578-.172-.968-.172-1.376 0-2.563.938-2.563 2.422 0 .813.438 1.469.89 1.828v.063c-.359.234-.75.687-.75 1.25 0 .531.266.906.61 1.11v.062c-.61.421-1 .968-1 1.53zm2.813-4.219C2.655-2.922 2-3.562 2-4.547c0-1 .64-1.578 1.438-1.578.796 0 1.453.578 1.453 1.578 0 .984-.657 1.625-1.454 1.625zm0 0"/></symbol><symbol overflow="visible" id="C"><path d="M.531-1.078A3.982 3.982 0 0 0 3.421.156c1.735 0 2.813-1.047 2.813-2.36 0-1.218-.75-1.796-1.703-2.202l-1.172-.5c-.656-.282-1.375-.578-1.375-1.375 0-.75.625-1.219 1.547-1.219.766 0 1.375.313 1.875.781l.563-.672A3.39 3.39 0 0 0 3.53-8.406c-1.5 0-2.594.922-2.594 2.187 0 1.203.891 1.797 1.672 2.125l1.188.516c.781.36 1.36.625 1.36 1.469 0 .796-.641 1.343-1.72 1.343-.859 0-1.687-.421-2.28-1.03zm0 0"/></symbol><symbol overflow="visible" id="D"><path d="M.578-3.047c0 2 1.297 3.203 2.938 3.203C4.344.156 5-.14 5.53-.484l-.375-.672c-.453.281-.937.468-1.515.468-1.172 0-1.97-.828-2.047-2.14h4.14c.016-.156.032-.36.032-.578 0-1.75-.875-2.86-2.438-2.86-1.406 0-2.75 1.22-2.75 3.22zm1.016-.469c.125-1.234.906-1.937 1.75-1.937.969 0 1.515.687 1.515 1.937zm0 0"/></symbol><symbol overflow="visible" id="E"><path d="M2.047-.547c.562.438 1.125.703 1.687.703 1.407 0 2.657-1.234 2.657-3.297 0-1.906-.844-3.125-2.422-3.125-.719 0-1.406.391-1.953.844h-.032l-.093-.703h-.86v8.703h1.032V.516zm.015-.812v-3.22c.61-.53 1.126-.827 1.641-.827 1.156 0 1.61.906 1.61 2.265 0 1.5-.735 2.422-1.75 2.422-.407 0-.938-.172-1.5-.64zm0 0"/></symbol><symbol overflow="visible" id="F"><path d="M1.203-1.89c0 1.202.453 2.046 1.75 2.046.39 0 .797-.125 1.14-.234L3.892-.86c-.204.078-.485.171-.688.171-.703 0-.953-.437-.953-1.187v-3.406h1.656v-.844H2.25v-1.703h-.86l-.124 1.703-.97.063v.78h.907zm0 0"/></symbol><symbol overflow="visible" id="G"><path d="M1.031 0h1.032v-4.438c.562-.625 1.078-.937 1.546-.937.766 0 1.141.484 1.141 1.64V0h1.031v-4.438c.563-.625 1.063-.937 1.532-.937.765 0 1.14.484 1.14 1.64V0h1.031v-3.875c0-1.563-.609-2.39-1.859-2.39-.75 0-1.375.468-2.016 1.171-.25-.734-.765-1.172-1.687-1.172-.735 0-1.375.454-1.906 1.032h-.032l-.093-.891h-.86zm0 0"/></symbol><symbol overflow="visible" id="H"><path d="M1.031 0h.828l.094-.61h.031c.547.485 1.188.766 1.75.766 1.407 0 2.657-1.234 2.657-3.312 0-1.89-.844-3.11-2.438-3.11-.672 0-1.36.36-1.906.844l.015-1.11v-2.437h-1.03zm1.032-1.36v-3.218c.578-.531 1.124-.828 1.64-.828 1.156 0 1.61.906 1.61 2.265 0 1.5-.735 2.422-1.75 2.422-.407 0-.954-.172-1.5-.64zm0 0"/></symbol><symbol overflow="visible" id="I"><path d="M1.031 0h1.032v-3.922c.421-1.047 1.03-1.422 1.546-1.422.25 0 .391.047.594.11l.203-.907c-.203-.093-.39-.125-.656-.125-.688 0-1.313.485-1.734 1.25h-.032l-.093-1.109h-.86zm0 0"/></symbol><symbol overflow="visible" id="J"/><symbol overflow="visible" id="K"><path d="M.5 0h5.188v-.89H3.358c-.406 0-.906.03-1.343.078 1.906-2 3.28-3.5 3.28-5 0-1.422-.921-2.375-2.405-2.375-1.047 0-1.766.5-2.438 1.218l.594.594c.469-.531 1.047-.969 1.719-.969 1.015 0 1.515.657 1.515 1.578 0 1.297-1.36 2.75-3.781 5.157zm0 0"/></symbol><symbol overflow="visible" id="L"><path d="M3.14.156c1.594 0 2.563-1.5 2.563-4.203 0-2.687-.969-4.14-2.562-4.14-1.61 0-2.594 1.453-2.594 4.14C.547-1.344 1.53.156 3.14.156zm0-.844c-.953 0-1.578-1-1.578-3.359 0-2.344.625-3.312 1.579-3.312.921 0 1.562.968 1.562 3.312 0 2.36-.64 3.36-1.562 3.36zm0 0"/></symbol><symbol overflow="visible" id="M"><path d="M1 0h4.531v-.86H3.86V-8.03h-.78c-.454.265-.97.469-1.704.594v.656h1.453V-.86H1zm0 0"/></symbol><symbol overflow="visible" id="N"><path d="M1.313-3.047l1.875-2.75c.218-.39.453-.734.656-1.125h.047c-.032.422-.063 1.11-.063 1.547v2.328zm4.593 0H4.813V-8.03H3.655L.22-2.891v.672h3.61V0h.983v-2.219h1.094zm0 0"/></symbol><symbol overflow="visible" id="O"><path d="M.578-3.047C.578-1.016 1.922.156 3.406.156c1.5 0 2.844-1.172 2.844-3.203 0-2.047-1.344-3.219-2.844-3.219-1.484 0-2.828 1.172-2.828 3.22zm1.078 0c0-1.406.719-2.375 1.75-2.375 1.063 0 1.766.969 1.766 2.375 0 1.39-.703 2.344-1.766 2.344-1.031 0-1.75-.953-1.75-2.344zm0 0"/></symbol><symbol overflow="visible" id="P"><path d="M1.14 0h.97v-4.547c0-.734-.094-1.719-.141-2.437h.047l.656 1.828L4.266-.828h.593l1.594-4.328.656-1.828h.063c-.063.718-.14 1.703-.14 2.437V0h.984v-8.266H6.78L5.203-3.828l-.578 1.687h-.047l-.61-1.687-1.593-4.438H1.141zm0 0"/></symbol><symbol overflow="visible" id="Q"><path d="M.734-1.594c0 1.11.766 1.75 1.797 1.75.75 0 1.438-.406 2.031-.89h.016L4.672 0h.86v-3.75c0-1.531-.626-2.516-2.126-2.516-.984 0-1.844.422-2.406.782l.406.718c.485-.328 1.11-.656 1.828-.656 1 0 1.266.766 1.266 1.547-2.61.281-3.766.953-3.766 2.281zm1.016-.062c0-.782.688-1.297 2.75-1.547V-1.5c-.594.531-1.094.813-1.672.813-.61 0-1.078-.282-1.078-.97zm0 0"/></symbol><symbol overflow="visible" id="R"><path d="M.61 1.688L.421 2.5c.187.078.437.125.719.125C2.375 2.625 3 1.719 3.42.5l2.313-6.625H4.72l-1.094 3.39c-.156.547-.344 1.172-.516 1.735h-.046a73.762 73.762 0 0 0-.594-1.734l-1.25-3.391H.156L2.61.015 2.47.47c-.25.75-.688 1.312-1.39 1.312-.141 0-.329-.062-.47-.093zm0 0"/></symbol><symbol overflow="visible" id="S"><path d="M1.453-2.156c0-.735.469-1.313 1.11-1.75 1.171.469 2.187.844 2.187 1.875 0 .828-.64 1.422-1.578 1.422-.985 0-1.719-.657-1.719-1.547zM3.72-4.375c-.969-.39-1.86-.781-1.86-1.75 0-.781.563-1.297 1.297-1.297.89 0 1.406.64 1.406 1.422 0 .594-.312 1.14-.843 1.625zM.516-2.047C.516-.78 1.64.156 3.14.156c1.562 0 2.609-.953 2.609-2.14 0-1.094-.688-1.657-1.406-2.079v-.046c.5-.375 1.11-1.094 1.11-1.938 0-1.25-.876-2.14-2.266-2.14-1.297 0-2.282.828-2.282 2.062 0 .844.531 1.438 1.125 1.86v.046C1.266-3.812.516-3.094.516-2.047zm0 0"/></symbol><symbol overflow="visible" id="T"><path d="M.844 2.14C1.859 1.72 2.5.876 2.5-.218c0-.75-.328-1.218-.875-1.218-.422 0-.766.28-.766.734 0 .469.344.719.735.719.047 0 .093 0 .125-.016 0 .688-.422 1.219-1.125 1.531zm0 0"/></symbol><symbol overflow="visible" id="U"><path d="M.594-3.047C.594-1 1.594.156 3.125.156c.719 0 1.375-.406 1.844-.875h.047L5.094 0h.86v-8.969H4.905v2.36l.063 1.046C4.422-6 3.953-6.266 3.25-6.266 1.844-6.266.594-5.03.594-3.046zm1.062-.015c0-1.391.782-2.344 1.766-2.344.5 0 .969.187 1.484.64v3.204c-.5.562-.984.843-1.562.843-1.063 0-1.688-.875-1.688-2.344zm0 0"/></symbol><symbol overflow="visible" id="V"><path d="M1.031-1.234c0 .89.313 1.39 1.094 1.39.281 0 .453-.047.594-.11l-.14-.78c-.11.03-.157.03-.22.03-.156 0-.296-.124-.296-.452V-8.97H1.03zm0 0"/></symbol><symbol overflow="visible" id="W"><path d="M1.563-7.375c.406 0 .718-.281.718-.672 0-.406-.312-.672-.719-.672-.406 0-.718.266-.718.672 0 .39.312.672.719.672zM1.03 0h1.032v-6.125H1.03zm0 0"/></symbol><symbol overflow="visible" id="X"><path d="M1.031 0h1.032v-4.438c.624-.609 1.046-.937 1.671-.937.813 0 1.172.484 1.172 1.64V0h1.032v-3.875c0-1.563-.579-2.39-1.875-2.39-.844 0-1.47.452-2.047 1.03h-.032l-.093-.89h-.86zm0 0"/></symbol><symbol overflow="visible" id="Y"><path d="M1.031 0h1.016v-1.61l1.156-1.343L4.984 0h1.141L3.797-3.672l2.047-2.453h-1.14l-2.61 3.234h-.047v-6.078H1.03zm0 0"/></symbol><symbol overflow="visible" id="Z"><path d="M.36-.688c.578.47 1.406.844 2.265.844 1.453 0 2.25-.844 2.25-1.828 0-1.156-.984-1.531-1.86-1.86C2.313-3.796 1.657-4 1.657-4.577c0-.469.344-.89 1.11-.89.546 0 .984.234 1.406.546l.484-.656c-.468-.375-1.125-.688-1.89-.688-1.329 0-2.11.75-2.11 1.735 0 1.031.953 1.453 1.828 1.765.657.25 1.391.532 1.391 1.157 0 .53-.406.953-1.203.953-.735 0-1.281-.297-1.797-.735zm0 0"/></symbol><symbol overflow="visible" id="aa"><path d="M1.031 0h1.032v-4.438c.624-.609 1.046-.937 1.671-.937.813 0 1.172.484 1.172 1.64V0h1.032v-3.875c0-1.563-.579-2.39-1.875-2.39-.844 0-1.454.452-2.032 1l.031-1.266V-8.97h-1.03zm0 0"/></symbol><symbol overflow="visible" id="ab"><path d="M.938-2.234c0 1.546.593 2.39 1.89 2.39.844 0 1.438-.453 2.016-1.11h.031L4.969 0h.843v-6.125h-1.03v4.344C4.202-1.063 3.765-.75 3.14-.75c-.813 0-1.157-.484-1.157-1.625v-3.75H.938zm0 0"/></symbol><symbol overflow="visible" id="ac"><path d="M2.36 0h1.203l2.171-6.125h-1.03L3.546-2.641C3.375-2.047 3.172-1.42 3-.844h-.047c-.187-.578-.39-1.203-.578-1.797L1.219-6.125H.156zm0 0"/></symbol><symbol overflow="visible" id="ad"><path d="M2.719 0H4.39l1.625-6.64c.187-.844.39-1.641.546-2.5h.079c.156.859.328 1.656.53 2.5L8.829 0h1.688l2.28-11.016h-1.343l-1.156 6c-.219 1.172-.422 2.36-.625 3.547h-.063c-.265-1.187-.546-2.39-.812-3.547l-1.531-6H6l-1.531 6c-.25 1.172-.516 2.36-.782 3.547h-.062c-.203-1.187-.438-2.36-.64-3.547l-1.157-6H.391zm0 0"/></symbol><symbol overflow="visible" id="ae"><path d="M.766-4.063C.766-1.39 2.5.204 4.687.204c1.11 0 1.985-.39 2.688-.844l-.484-.906c-.61.39-1.266.64-2.032.64-1.562 0-2.625-1.109-2.718-2.874h5.5c.03-.203.046-.469.046-.75 0-2.344-1.171-3.828-3.25-3.828C2.563-8.36.767-6.734.767-4.063zm1.343-.625c.172-1.64 1.22-2.578 2.36-2.578 1.281 0 2.015.922 2.015 2.579zm0 0"/></symbol><symbol overflow="visible" id="af"><path d="M1.375 0h1.36v-2.156l1.53-1.781L6.657 0h1.5L5.062-4.89l2.735-3.266H6.266L2.78-3.86h-.047v-8.094H1.375zm0 0"/></symbol><symbol overflow="visible" id="ag"><path d="M.469-.922C1.25-.282 2.344.203 3.516.203 5.437.203 6.5-.907 6.5-2.234c0-1.547-1.313-2.032-2.484-2.47-.922-.359-1.813-.64-1.813-1.405 0-.625.469-1.188 1.485-1.188.734 0 1.312.313 1.874.734l.657-.875c-.625-.5-1.516-.921-2.547-.921-1.75 0-2.797 1-2.797 2.312 0 1.375 1.281 1.938 2.438 2.36.89.328 1.859.703 1.859 1.53 0 .72-.531 1.282-1.61 1.282-.968 0-1.703-.406-2.406-.969zm0 0"/></symbol><symbol overflow="visible" id="ah"/><symbol overflow="visible" id="ai"><path d="M2.672 0h1.61l1.14-4.36c.219-.78.39-1.546.578-2.374h.063c.203.828.359 1.578.562 2.343L7.797 0h1.672l2.187-8.156h-1.312L9.156-3.437c-.172.765-.328 1.5-.5 2.265h-.078c-.187-.766-.36-1.5-.562-2.266L6.734-8.155H5.391L4.125-3.437c-.188.75-.36 1.5-.547 2.265h-.062c-.157-.766-.313-1.5-.5-2.266L1.812-8.155H.407zm0 0"/></symbol><symbol overflow="visible" id="aj"><path d="M2.078-9.844c.547 0 .969-.375.969-.89 0-.532-.422-.891-.969-.891-.531 0-.953.36-.953.89 0 .516.422.891.953.891zM1.375 0H2.75v-8.156H1.375zm0 0"/></symbol><symbol overflow="visible" id="ak"><path d="M1.61-2.516c0 1.61.593 2.72 2.343 2.72.5 0 1.047-.157 1.5-.298L5.187-1.14c-.265.094-.64.22-.921.22C3.328-.922 3-1.5 3-2.5v-4.531h2.203v-1.125H3v-2.297H1.844l-.172 2.297-1.266.078v1.047H1.61zm0 0"/></symbol><symbol overflow="visible" id="al"><path d="M1.375 0H2.75v-5.906c.828-.828 1.406-1.266 2.234-1.266 1.079 0 1.547.656 1.547 2.188V0h1.375v-5.172c0-2.078-.765-3.187-2.484-3.187-1.125 0-1.938.593-2.719 1.343l.047-1.687v-3.25H1.375zm0 0"/></symbol><symbol overflow="visible" id="am"><path d="M.516 0h6.187v-1.125H2.266l4.296-6.297v-.734H.984v1.125h3.844L.516-.734zm0 0"/></symbol><symbol overflow="visible" id="an"><path d="M1.375 0H2.75v-5.234c.563-1.391 1.375-1.891 2.078-1.891.328 0 .516.047.781.14l.266-1.218c-.266-.11-.516-.156-.875-.156-.922 0-1.766.656-2.313 1.671h-.046l-.125-1.468H1.375zm0 0"/></symbol><symbol overflow="visible" id="ao"><path d="M.766-4.063c0 2.704 1.78 4.266 3.78 4.266 2 0 3.782-1.562 3.782-4.266 0-2.734-1.781-4.296-3.781-4.296S.766-6.797.766-4.063zm1.437 0c0-1.89.953-3.156 2.344-3.156 1.422 0 2.36 1.266 2.36 3.157 0 1.859-.938 3.125-2.36 3.125-1.39 0-2.344-1.266-2.344-3.125zm0 0"/></symbol><symbol overflow="visible" id="ap"><path d="M5.578.203c2.766 0 4.719-2.219 4.719-5.766 0-3.5-1.953-5.656-4.719-5.656S.875-9.094.875-5.563C.875-2.015 2.813.204 5.578.204zm0-1.234c-1.969 0-3.266-1.782-3.266-4.532C2.313-8.296 3.61-10 5.579-10s3.25 1.703 3.25 4.438c0 2.75-1.281 4.53-3.25 4.53zm0 0"/></symbol><symbol overflow="visible" id="aq"><path d="M.828 2.25L.547 3.344c.281.094.594.172.969.172C3.156 3.516 4 2.28 4.562.672l3.079-8.828H6.297L4.844-3.641c-.219.72-.453 1.563-.688 2.297h-.078c-.25-.75-.531-1.593-.781-2.297L1.625-8.156H.203L3.484.016l-.187.609c-.344 1-.922 1.75-1.86 1.75-.187 0-.453-.078-.609-.125zm0 0"/></symbol><symbol overflow="visible" id="ar"><path d="M.766-4.063C.766-1.358 2.437.204 4.609.204c.97 0 1.907-.406 2.641-1.062l-.61-.907c-.5.438-1.14.829-1.921.829-1.5 0-2.516-1.266-2.516-3.125 0-1.891 1.078-3.157 2.547-3.157.656 0 1.156.297 1.656.719l.688-.89c-.563-.516-1.313-.97-2.39-.97C2.608-8.36.765-6.796.765-4.062zm0 0"/></symbol><symbol overflow="visible" id="as"><path d="M.969-2.11C.969-.655 2 .204 3.375.204c1.016 0 1.922-.531 2.703-1.172h.031L6.234 0h1.141v-5c0-2.031-.844-3.36-2.844-3.36-1.312 0-2.453.563-3.203 1.047l.547.97c.64-.438 1.484-.876 2.438-.876C5.64-7.219 6-6.219 6-5.172 2.516-4.782.969-3.89.969-2.109zm1.36-.109c0-1.047.937-1.719 3.671-2.047V-2c-.797.703-1.453 1.094-2.234 1.094-.813 0-1.438-.39-1.438-1.313zm0 0"/></symbol><symbol overflow="visible" id="at"><path d="M.797-4.063c0 2.72 1.312 4.266 3.375 4.266C5.125.203 6-.328 6.64-.953h.046l.11.953h1.14v-11.953h-1.39v3.14l.078 1.391c-.734-.594-1.344-.937-2.297-.937-1.86 0-3.531 1.64-3.531 4.296zm1.422-.015c0-1.875 1.047-3.125 2.344-3.125.671 0 1.296.234 1.984.86v4.265c-.672.75-1.328 1.125-2.078 1.125-1.422 0-2.25-1.188-2.25-3.125zm0 0"/></symbol><symbol overflow="visible" id="au"><path d="M2.719-.734c.765.578 1.515.937 2.265.937 1.875 0 3.532-1.625 3.532-4.406 0-2.531-1.125-4.156-3.22-4.156-.968 0-1.874.515-2.609 1.14h-.046l-.125-.937H1.375V3.438H2.75V.688zm.031-1.079v-4.28c.813-.72 1.5-1.11 2.188-1.11 1.546 0 2.156 1.203 2.156 3 0 2.016-1 3.25-2.344 3.25-.531 0-1.25-.235-2-.86zm0 0"/></symbol><symbol overflow="visible" id="av"><path d="M1.375 0H2.75v-5.906c.828-.828 1.406-1.266 2.234-1.266 1.079 0 1.547.656 1.547 2.188V0h1.375v-5.172c0-2.078-.765-3.187-2.484-3.187-1.125 0-1.969.593-2.734 1.375H2.64l-.125-1.172H1.375zm0 0"/></symbol><symbol overflow="visible" id="aw"><path d="M1.969 1.375c0-.469.25-.953.843-1.375.344.094.735.14 1.047.14h1.422c1.047 0 1.64.25 1.64 1 0 .86-1.03 1.673-2.593 1.673-1.469 0-2.36-.563-2.36-1.438zM.75 1.563c0 1.406 1.39 2.203 3.375 2.203 2.547 0 4.14-1.313 4.14-2.829C8.266-.421 7.313-1 5.407-1H3.828c-1.11 0-1.437-.375-1.437-.89 0-.454.234-.735.515-.985.375.188.828.281 1.219.281 1.672 0 3-1.078 3-2.828 0-.687-.281-1.312-.672-1.687h1.672v-1.047H5.297a3.214 3.214 0 0 0-1.172-.203c-1.656 0-3.063 1.125-3.063 2.906 0 .969.516 1.766 1.047 2.187v.079c-.406.28-.89.812-.89 1.515 0 .625.328 1.063.734 1.313v.078C1.203.219.75.875.75 1.563zm3.375-5.079c-.938 0-1.719-.75-1.719-1.937 0-1.203.766-1.906 1.719-1.906.969 0 1.734.703 1.734 1.906 0 1.187-.78 1.937-1.734 1.937zm0 0"/></symbol><clipPath id="a"><path d="M125 41.453h2V156h-2zm0 0"/></clipPath><clipPath id="b"><path d="M270 41.453h2V156h-2zm0 0"/></clipPath><clipPath id="c"><path d="M416 41.453h1V156h-1zm0 0"/></clipPath><clipPath id="d"><path d="M52 41.453h2V156.45h-2zm0 0"/></clipPath><clipPath id="e"><path d="M197 41.453h3V156.45h-3zm0 0"/></clipPath><clipPath id="f"><path d="M343 41.453h2V156.45h-2zm0 0"/></clipPath><clipPath id="g"><path d="M488 41.453h2V156.45h-2zm0 0"/></clipPath><clipPath id="h"><path d="M282 41.453h2V156h-2zm0 0"/></clipPath></defs><path fill="rgb(100%,100%,100%)" d="M0 0H540V216H0z"/><path fill="rgb(96.862745%,97.254902%,97.647059%)" d="M0 0H540V216H0z"/><g clip-path="url(#a)"><path d="M125.86 155.45V41.452" fill="none" stroke-width="0.678986" stroke-linejoin="round" stroke="rgb(37.647059%,43.921569%,50.196078%)" stroke-opacity="0.2" stroke-miterlimit="10"/></g><g clip-path="url(#b)"><path d="M271.188 155.45V41.452" fill="none" stroke-width="0.678986" stroke-linejoin="round" stroke="rgb(37.647059%,43.921569%,50.196078%)" stroke-opacity="0.2" stroke-miterlimit="10"/></g><g clip-path="url(#c)"><path d="M416.52 155.45V41.452" fill="none" stroke-width="0.678986" stroke-linejoin="round" stroke="rgb(37.647059%,43.921569%,50.196078%)" stroke-opacity="0.2" stroke-miterlimit="10"/></g><g clip-path="url(#d)"><path d="M53.293 155.45V41.452" fill="none" stroke-width="1.357972" stroke-linejoin="round" stroke="rgb(37.647059%,43.921569%,50.196078%)" stroke-opacity="0.25098" stroke-miterlimit="10"/></g><g clip-path="url(#e)"><path d="M198.426 155.45V41.452" fill="none" stroke-width="1.357972" stroke-linejoin="round" stroke="rgb(37.647059%,43.921569%,50.196078%)" stroke-opacity="0.25098" stroke-miterlimit="10"/></g><g clip-path="url(#f)"><path d="M343.953 155.45V41.452" fill="none" stroke-width="1.357972" stroke-linejoin="round" stroke="rgb(37.647059%,43.921569%,50.196078%)" stroke-opacity="0.25098" stroke-miterlimit="10"/></g><g clip-path="url(#g)"><path d="M489.086 155.45V41.452" fill="none" stroke-width="1.357972" stroke-linejoin="round" stroke="rgb(37.647059%,43.921569%,50.196078%)" stroke-opacity="0.25098" stroke-miterlimit="10"/></g><path d="M8.367 150.266h2.785V46.633H8.367zm0 0" fill="rgb(37.647059%,43.921569%,50.196078%)" fill-opacity="0.12549"/><path d="M11.148 150.266h2.786V46.633h-2.786zm5.572 0l13.933 150.266V46.633h-2.785zm11.148 150.266" fill="rgb(37.647059%,43.921569%,50.196078%)" fill-opacity="0.12549"/><path d="M16.715 150.266H19.5V46.633h-2.785zm5.57 0l19.5 150.266V46.633H19.5zM19.5 150.266" fill="rgb(37.647059%,43.921569%,50.196078%)" fill-opacity="0.12549"/><path d="M22.281 150.266h2.785V46.633h-2.785zm5.57 0l25.067 150.266V46.633h-2.786zm22.281 150.266" fill="rgb(37.647059%,43.921569%,50.196078%)" fill-opacity="0.12549"/><path d="M27.848 150.266h2.785V46.633h-2.785zm5.57 0l30.633 150.266V46.633h-2.785zm27.848 150.266" fill="rgb(37.647059%,43.921569%,50.196078%)" fill-opacity="0.12549"/><path d="M33.414 150.266H36.2V46.633h-2.785zm5.57 0l36.2 150.266V46.633h-2.786zM36.2 150.266" fill="rgb(37.647059%,43.921569%,50.196078%)" fill-opacity="0.12549"/><path d="M38.98 150.266h2.786V46.633H38.98zm5.572 0L44.55 150.266V46.633h-2.785zm83.53 300.532h5.57V46.633h-2.784zm2.786 0" fill="rgb(37.647059%,43.921569%,50.196078%)" fill-opacity="0.12549"/><path d="M47.332 150.266h2.785V46.633h-2.785zm0 0" fill="rgb(37.647059%,43.921569%,50.196078%)" fill-opacity="0.12549"/><path d="M50.117 150.266h2.785V46.633h-2.785zm0 0" fill="rgb(37.647059%,43.921569%,50.196078%)"/><path d="M52.898 150.266h2.786V46.633h-2.786zm5.572 0l55.683 150.266V46.633h-2.785zm52.898 150.266" fill="rgb(37.647059%,43.921569%,50.196078%)" fill-opacity="0.12549"/><path d="M58.465 150.266h2.785V46.633h-2.785zm5.57 0l61.25 150.266V46.633H61.25zM61.25 150.266" fill="rgb(37.647059%,43.921569%,50.196078%)" fill-opacity="0.12549"/><path d="M64.031 150.266h2.785V46.633h-2.785zm5.57 0l66.817 150.266V46.633h-2.786zm64.031 150.266" fill="rgb(37.647059%,43.921569%,50.196078%)" fill-opacity="0.12549"/><path d="M69.598 150.266h2.785V46.633h-2.785zm5.57 0l72.383 150.266V46.633h-2.785zm69.598 150.266" fill="rgb(37.647059%,43.921569%,50.196078%)" fill-opacity="0.12549"/><path d="M75.164 150.266h2.785V46.633h-2.785zm5.57 0l77.95 150.266V46.633h-2.786zm155.9 300.532h5.57V46.633h-2.786zm2.784 0" fill="rgb(37.647059%,43.921569%,50.196078%)" fill-opacity="0.12549"/><path d="M83.516 150.266H86.3V46.633h-2.785zm5.57 0l86.3 150.266V46.633h-2.784zm83.516 150.266" fill="rgb(37.647059%,43.921569%,50.196078%)" fill-opacity="0.12549"/><path d="M89.082 150.266h2.785V46.633h-2.785zm5.57 0l91.867 150.266V46.633h-2.785zm89.082 150.266" fill="rgb(37.647059%,43.921569%,50.196078%)" fill-opacity="0.12549"/><path d="M94.648 150.266h2.786V46.633h-2.786zm5.572 0l97.433 150.266V46.633h-2.785zm94.648 150.266" fill="rgb(37.647059%,43.921569%,50.196078%)" fill-opacity="0.12549"/><path d="M100.215 150.266H103V46.633h-2.785zm0 0" fill="rgb(37.647059%,43.921569%,50.196078%)"/><path d="M103 150.266h2.785V46.633H103zm0 0" fill="rgb(37.647059%,43.921569%,50.196078%)" fill-opacity="0.12549"/><path d="M105.781 150.266h2.785V46.633h-2.785zm0 0" fill="rgb(37.647059%,43.921569%,50.196078%)"/><path d="M108.566 150.266h2.786V46.633h-2.786zm0 0" fill="rgb(37.647059%,43.921569%,50.196078%)" fill-opacity="0.12549"/><path d="M111.348 150.266h2.785V46.633h-2.785zm5.57 0l114.133 150.266V46.633h-2.785zm111.348 150.266" fill="rgb(37.647059%,43.921569%,50.196078%)" fill-opacity="0.12549"/><path d="M116.914 150.266h2.785V46.633h-2.785zm5.57 0l119.7 150.266V46.633h-2.786zM119.7 150.266" fill="rgb(37.647059%,43.921569%,50.196078%)" fill-opacity="0.12549"/><path d="M122.484 150.266h2.786V46.633h-2.786zm0 0" fill="rgb(37.647059%,43.921569%,50.196078%)"/><path d="M125.266 150.266h2.785V46.633h-2.785zm0 0" fill="rgb(37.647059%,43.921569%,50.196078%)"/><path d="M128.05 150.266h2.786V46.633h-2.785zm0 0" fill="rgb(37.647059%,43.921569%,50.196078%)" fill-opacity="0.12549"/><path d="M130.832 150.266h2.785V46.633h-2.785zm5.57 0l133.617 150.266V46.633h-2.785zm130.832 150.266" fill="rgb(37.647059%,43.921569%,50.196078%)" fill-opacity="0.12549"/><path d="M136.398 150.266h2.786V46.633h-2.786zm0 0" fill="rgb(37.647059%,43.921569%,50.196078%)" fill-opacity="0.12549"/><path d="M139.184 150.266h2.785V46.633h-2.785zm0 0" fill="rgb(37.647059%,43.921569%,50.196078%)"/><path d="M141.965 150.266h2.785V46.633h-2.785zm5.57 0l144.75 150.266V46.633h-2.785zM144.75 150.266" fill="rgb(37.647059%,43.921569%,50.196078%)" fill-opacity="0.12549"/><path d="M147.531 150.266h2.785V46.633h-2.785zm0 0" fill="rgb(37.647059%,43.921569%,50.196078%)"/><path d="M150.316 150.266h2.786V46.633h-2.786zm0 0" fill="rgb(37.647059%,43.921569%,50.196078%)" fill-opacity="0.12549"/><path d="M153.098 150.266h2.785V46.633h-2.785zm5.57 0l155.883 150.266V46.633h-2.785zm311.766 300.532h5.57V46.633h-2.785zm2.785 0" fill="rgb(37.647059%,43.921569%,50.196078%)" fill-opacity="0.12549"/><path d="M161.45 150.266h2.784V46.633h-2.785zm5.568 0l164.236 150.266V46.633h-2.786zm161.45 150.266" fill="rgb(37.647059%,43.921569%,50.196078%)" fill-opacity="0.12549"/><path d="M167.016 150.266h2.785V46.633h-2.785zm5.57 0l169.8 150.266V46.633h-2.784zm167.016 150.266" fill="rgb(37.647059%,43.921569%,50.196078%)" fill-opacity="0.12549"/><path d="M172.582 150.266h2.785V46.633h-2.785zm5.57 0l175.367 150.266V46.633h-2.785zm172.582 150.266" fill="rgb(37.647059%,43.921569%,50.196078%)" fill-opacity="0.12549"/><path d="M178.148 150.266h2.786V46.633h-2.786zm5.572 0l180.933 150.266V46.633h-2.785zm178.148 150.266" fill="rgb(37.647059%,43.921569%,50.196078%)"/><path d="M183.715 150.266h2.785V46.633h-2.785zm5.57 0l186.5 150.266V46.633H186.5zM186.5 150.266" fill="rgb(37.647059%,43.921569%,50.196078%)" fill-opacity="0.12549"/><path d="M189.281 150.266h2.785V46.633h-2.785zm0 0" fill="rgb(37.647059%,43.921569%,50.196078%)" fill-opacity="0.12549"/><path d="M192.066 150.266h2.786V46.633h-2.786zm0 0" fill="rgb(37.647059%,43.921569%,50.196078%)"/><path d="M194.852 150.266h2.785V46.633h-2.785zm0 0" fill="rgb(37.647059%,43.921569%,50.196078%)" fill-opacity="0.12549"/><path d="M197.633 150.266h2.785V46.633h-2.785zm5.57 0l200.418 150.266V46.633h-2.785zm197.633 150.266" fill="rgb(37.647059%,43.921569%,50.196078%)" fill-opacity="0.12549"/><path d="M203.2 150.266h2.784V46.633H203.2zm5.568 0l205.986 150.266V46.633h-2.786zm203.2 150.266" fill="rgb(37.647059%,43.921569%,50.196078%)" fill-opacity="0.12549"/><path d="M208.766 150.266h2.785V46.633h-2.785zm5.57 0l211.55 150.266V46.633h-2.784zm208.766 150.266" fill="rgb(37.647059%,43.921569%,50.196078%)"/><path d="M214.332 150.266h2.785V46.633h-2.785zm5.57 0l217.117 150.266V46.633h-2.785zm214.332 150.266" fill="rgb(37.647059%,43.921569%,50.196078%)" fill-opacity="0.12549"/><path d="M219.898 150.266h2.786V46.633h-2.786zm5.572 0l222.683 150.266V46.633h-2.785zm219.898 150.266" fill="rgb(37.647059%,43.921569%,50.196078%)" fill-opacity="0.12549"/><path d="M225.465 150.266h2.785V46.633h-2.785zm5.57 0l228.25 150.266V46.633h-2.785zM228.25 150.266" fill="rgb(37.647059%,43.921569%,50.196078%)" fill-opacity="0.12549"/><path d="M231.031 150.266h2.785V46.633h-2.785zm5.57 0l233.817 150.266V46.633h-2.786zM470.42 300.532h5.57V46.633h-2.785zm2.785 0" fill="rgb(37.647059%,43.921569%,50.196078%)" fill-opacity="0.12549"/><path d="M239.383 150.266h2.785V46.633h-2.785zm5.57 0l242.168 150.266V46.633h-2.785zm239.383 150.266" fill="rgb(37.647059%,43.921569%,50.196078%)" fill-opacity="0.12549"/><path d="M244.95 150.266h2.784V46.633h-2.785zm5.568 0l247.736 150.266V46.633h-2.786zm244.95 150.266" fill="rgb(37.647059%,43.921569%,50.196078%)" fill-opacity="0.12549"/><path d="M250.516 150.266h2.785V46.633h-2.785zm5.57 0l253.3 150.266V46.633h-2.784zm250.516 150.266" fill="rgb(37.647059%,43.921569%,50.196078%)" fill-opacity="0.12549"/><path d="M256.082 150.266h2.785V46.633h-2.785zm5.57 0l258.867 150.266V46.633h-2.785zm256.082 150.266" fill="rgb(37.647059%,43.921569%,50.196078%)" fill-opacity="0.12549"/><path d="M261.648 150.266h2.786V46.633h-2.786zm5.572 0l264.433 150.266V46.633h-2.785zm261.648 150.266" fill="rgb(37.647059%,43.921569%,50.196078%)" fill-opacity="0.12549"/><path d="M267.215 150.266H270V46.633h-2.785zm5.57 0l270 150.266V46.633H270zm540 300.532h5.57V46.633h-2.785zm2.785 0" fill="rgb(37.647059%,43.921569%,50.196078%)" fill-opacity="0.12549"/><path d="M275.566 150.266h2.786V46.633h-2.786zm5.572 0l278.35 150.266V46.633h-2.784zm275.566 150.266" fill="rgb(37.647059%,43.921569%,50.196078%)" fill-opacity="0.12549"/><path d="M281.133 150.266h2.785V46.633h-2.785zm5.57 0l283.918 150.266V46.633h-2.785zm281.133 150.266" fill="rgb(37.647059%,43.921569%,50.196078%)" fill-opacity="0.12549"/><path d="M286.7 150.266h2.784V46.633H286.7zm0 0" fill="rgb(37.647059%,43.921569%,50.196078%)"/><path d="M289.484 150.266h2.786V46.633h-2.786zm0 0" fill="rgb(37.647059%,43.921569%,50.196078%)" fill-opacity="0.12549"/><path d="M292.266 150.266h2.785V46.633h-2.785zm0 0" fill="rgb(37.647059%,43.921569%,50.196078%)" fill-opacity="0.12549"/><path d="M295.05 150.266h2.786V46.633h-2.785zm0 0" fill="rgb(37.647059%,43.921569%,50.196078%)"/><path d="M297.832 150.266h2.785V46.633h-2.785zm5.57 0l300.617 150.266V46.633h-2.785zm297.832 150.266" fill="rgb(37.647059%,43.921569%,50.196078%)"/><path d="M303.398 150.266h2.786V46.633h-2.786zm0 0" fill="rgb(37.647059%,43.921569%,50.196078%)" fill-opacity="0.12549"/><path d="M306.184 150.266h2.785V46.633h-2.785zm5.57 0l308.969 150.266V46.633h-2.785zM308.97 150.266" fill="rgb(37.647059%,43.921569%,50.196078%)"/><path d="M311.75 150.266h2.785V46.633h-2.785zm0 0" fill="rgb(37.647059%,43.921569%,50.196078%)"/><path d="M314.535 150.266h2.785V46.633h-2.785zm0 0" fill="rgb(37.647059%,43.921569%,50.196078%)" fill-opacity="0.12549"/><path d="M317.316 150.266h2.786V46.633h-2.786zm0 0" fill="rgb(37.647059%,43.921569%,50.196078%)" fill-opacity="0.12549"/><path d="M320.102 150.266h2.785V46.633h-2.785zm0 0" fill="rgb(37.647059%,43.921569%,50.196078%)"/><path d="M322.883 150.266h2.785V46.633h-2.785zm5.57 0l325.668 150.266V46.633h-2.785zm322.883 150.266" fill="rgb(37.647059%,43.921569%,50.196078%)" fill-opacity="0.12549"/><path d="M328.45 150.266h2.784V46.633h-2.785zm0 0" fill="rgb(37.647059%,43.921569%,50.196078%)" fill-opacity="0.12549"/><path d="M331.234 150.266h2.786V46.633h-2.786zm0 0" fill="rgb(37.647059%,43.921569%,50.196078%)"/><path d="M334.016 150.266h2.785V46.633h-2.785zm5.57 0l336.8 150.266V46.633h-2.784zm334.016 150.266" fill="rgb(37.647059%,43.921569%,50.196078%)"/><path d="M339.582 150.266h2.785V46.633h-2.785zm5.57 0l342.367 150.266V46.633h-2.785zm339.582 150.266" fill="rgb(37.647059%,43.921569%,50.196078%)"/><path d="M345.148 150.266h2.786V46.633h-2.786zm5.572 0l347.933 150.266V46.633h-2.785zm695.866 300.532h5.57V46.633h-2.784zm2.786 0" fill="rgb(37.647059%,43.921569%,50.196078%)"/><path d="M353.5 150.266h2.785V46.633H353.5zm0 0" fill="rgb(37.647059%,43.921569%,50.196078%)" fill-opacity="0.12549"/><path d="M356.285 150.266h2.785V46.633h-2.785zm0 0" fill="rgb(37.647059%,43.921569%,50.196078%)"/><path d="M359.066 150.266h2.786V46.633h-2.786zm5.572 0l361.85 150.266V46.633h-2.784zm359.066 150.266" fill="rgb(37.647059%,43.921569%,50.196078%)"/><path d="M364.633 150.266h2.785V46.633h-2.785zm0 0" fill="rgb(37.647059%,43.921569%,50.196078%)" fill-opacity="0.12549"/><path d="M367.418 150.266h2.785V46.633h-2.785zm0 0" fill="rgb(37.647059%,43.921569%,50.196078%)"/><path d="M370.2 150.266h2.784V46.633H370.2zm5.568 0l372.986 150.266V46.633h-2.786zm370.2 150.266" fill="rgb(37.647059%,43.921569%,50.196078%)" fill-opacity="0.12549"/><path d="M375.766 150.266h2.785V46.633h-2.785zm5.57 0l378.55 150.266V46.633h-2.784zm375.766 150.266" fill="rgb(37.647059%,43.921569%,50.196078%)"/><path d="M381.332 150.266h2.785V46.633h-2.785zm5.57 0l384.117 150.266V46.633h-2.785zm381.332 150.266" fill="rgb(37.647059%,43.921569%,50.196078%)"/><path d="M386.902 150.266h2.786V46.633h-2.786zm0 0" fill="rgb(37.647059%,43.921569%,50.196078%)" fill-opacity="0.12549"/><path d="M389.684 150.266h2.785V46.633h-2.785zm0 0" fill="rgb(37.647059%,43.921569%,50.196078%)" fill-opacity="0.12549"/><path d="M392.469 150.266h2.785V46.633h-2.785zm0 0" fill="rgb(37.647059%,43.921569%,50.196078%)"/><path d="M395.25 150.266h2.785V46.633h-2.785zm5.57 0L400.82 150.266V46.633h-2.785zm395.25 150.266" fill="rgb(37.647059%,43.921569%,50.196078%)"/><path d="M400.816 150.266h2.786V46.633h-2.786zm0 0" fill="rgb(37.647059%,43.921569%,50.196078%)" fill-opacity="0.12549"/><path d="M403.602 150.266h2.785V46.633h-2.785zm0 0" fill="rgb(37.647059%,43.921569%,50.196078%)"/><path d="M406.383 150.266h2.785V46.633h-2.785zm5.57 0l409.168 150.266V46.633h-2.785zm406.383 150.266" fill="rgb(37.647059%,43.921569%,50.196078%)"/><path d="M411.95 150.266h2.784V46.633h-2.785zm5.568 0l414.736 150.266V46.633h-2.786zm411.95 150.266" fill="rgb(37.647059%,43.921569%,50.196078%)"/><path d="M417.516 150.266h2.785V46.633h-2.785zm0 0" fill="rgb(37.647059%,43.921569%,50.196078%)" fill-opacity="0.12549"/><path d="M420.3 150.266h2.786V46.633H420.3zm5.572 0L425.87 150.266V46.633h-2.785zm420.3 150.266" fill="rgb(37.647059%,43.921569%,50.196078%)"/><path d="M425.867 150.266h2.785V46.633h-2.785zm5.57 0l428.652 150.266V46.633h-2.785zm425.867 150.266" fill="rgb(37.647059%,43.921569%,50.196078%)"/><path d="M431.434 150.266h2.785V46.633h-2.785zm0 0" fill="rgb(37.647059%,43.921569%,50.196078%)"/><path d="M434.219 150.266h2.785V46.633h-2.785zm0 0" fill="rgb(37.647059%,43.921569%,50.196078%)" fill-opacity="0.12549"/><path d="M437 150.266h2.785V46.633H437zm0 0" fill="rgb(37.647059%,43.921569%,50.196078%)"/><path d="M439.785 150.266h2.785V46.633h-2.785zm0 0" fill="rgb(37.647059%,43.921569%,50.196078%)" fill-opacity="0.12549"/><path d="M442.566 150.266h2.786V46.633h-2.786zm5.572 0l445.35 150.266V46.633h-2.784zm442.566 150.266" fill="rgb(37.647059%,43.921569%,50.196078%)" fill-opacity="0.12549"/><path d="M448.133 150.266h2.785V46.633h-2.785zm0 0" fill="rgb(37.647059%,43.921569%,50.196078%)" fill-opacity="0.12549"/><path d="M450.918 150.266h2.785V46.633h-2.785zm0 0" fill="rgb(37.647059%,43.921569%,50.196078%)"/><path d="M453.7 150.266h2.784V46.633H453.7zm0 0" fill="rgb(37.647059%,43.921569%,50.196078%)"/><path d="M456.484 150.266h2.786V46.633h-2.786zm0 0" fill="rgb(37.647059%,43.921569%,50.196078%)" fill-opacity="0.12549"/><path d="M459.266 150.266h2.785V46.633h-2.785zm0 0" fill="rgb(37.647059%,43.921569%,50.196078%)" fill-opacity="0.12549"/><path d="M462.05 150.266h2.786V46.633h-2.785zm5.572 0L467.62 150.266V46.633h-2.785zm462.05 150.266" fill="rgb(37.647059%,43.921569%,50.196078%)"/><path d="M467.617 150.266h2.785V46.633h-2.785zm5.57 0l470.402 150.266V46.633h-2.785zm467.617 150.266" fill="rgb(37.647059%,43.921569%,50.196078%)"/><path d="M473.184 150.266h2.785V46.633h-2.785zm5.57 0l475.969 150.266V46.633h-2.785zM475.97 150.266" fill="rgb(37.647059%,43.921569%,50.196078%)" fill-opacity="0.12549"/><path d="M478.75 150.266h2.785V46.633h-2.785zm5.57 0L484.32 150.266V46.633h-2.785zm478.75 150.266" fill="rgb(37.647059%,43.921569%,50.196078%)"/><path d="M484.316 150.266h2.786V46.633h-2.786zm5.572 0l487.1 150.266V46.633h-2.784zm484.316 150.266" fill="rgb(37.647059%,43.921569%,50.196078%)" fill-opacity="0.12549"/><path d="M489.883 150.266h2.785V46.633h-2.785zm5.57 0l492.668 150.266V46.633h-2.785zm489.883 150.266" fill="rgb(37.647059%,43.921569%,50.196078%)"/><path d="M495.45 150.266h2.784V46.633h-2.785zm0 0" fill="rgb(37.647059%,43.921569%,50.196078%)" fill-opacity="0.12549"/><path d="M498.234 150.266h2.786V46.633h-2.786zm5.572 0l501.019 150.266V46.633h-2.785zM501.02 150.266" fill="rgb(37.647059%,43.921569%,50.196078%)"/><path d="M503.8 150.266h2.786V46.633H503.8zm0 0" fill="rgb(37.647059%,43.921569%,50.196078%)" fill-opacity="0.12549"/><path d="M506.586 150.266h2.785V46.633h-2.785zm0 0" fill="rgb(37.647059%,43.921569%,50.196078%)"/><path d="M509.367 150.266h2.785V46.633h-2.785zm5.57 0l512.153 150.266V46.633h-2.786zm509.367 150.266" fill="rgb(37.647059%,43.921569%,50.196078%)"/><path d="M514.934 150.266h2.785V46.633h-2.785zm5.57 0l517.719 150.266V46.633h-2.785zM517.72 150.266" fill="rgb(37.647059%,43.921569%,50.196078%)"/><path d="M520.5 150.266h2.785V46.633H520.5zm0 0" fill="rgb(37.647059%,43.921569%,50.196078%)"/><path d="M523.285 150.266h2.785V46.633h-2.785zm0 0" fill="rgb(37.647059%,43.921569%,50.196078%)" fill-opacity="0.12549"/><path d="M526.066 150.266h2.786V46.633h-2.786zm0 0" fill="rgb(37.647059%,43.921569%,50.196078%)" fill-opacity="0.12549"/><path d="M528.852 150.266h2.785V46.633h-2.785zm0 0" fill="rgb(37.647059%,43.921569%,50.196078%)"/><g clip-path="url(#h)"><path d="M283.102 155.45V41.452" fill="none" stroke-width="1.066978" stroke-linejoin="round" stroke="rgb(74.117647%,20%,21.960784%)" stroke-miterlimit="10"/></g><g fill="rgb(37.647059%,43.921569%,50.196078%)"><use xlink:href="#i" x="42.156" y="169.07"/><use xlink:href="#j" x="47.724" y="169.07"/><use xlink:href="#k" x="53.292" y="169.07"/><use xlink:href="#l" x="58.86" y="169.07"/></g><g fill="rgb(37.647059%,43.921569%,50.196078%)"><use xlink:href="#i" x="187.289" y="169.07"/><use xlink:href="#j" x="192.857" y="169.07"/><use xlink:href="#k" x="198.425" y="169.07"/><use xlink:href="#m" x="203.993" y="169.07"/></g><g fill="rgb(37.647059%,43.921569%,50.196078%)"><use xlink:href="#i" x="332.816" y="169.07"/><use xlink:href="#j" x="338.384" y="169.07"/><use xlink:href="#k" x="343.952" y="169.07"/><use xlink:href="#n" x="349.52" y="169.07"/></g><g fill="rgb(37.647059%,43.921569%,50.196078%)"><use xlink:href="#i" x="477.949" y="169.07"/><use xlink:href="#j" x="483.517" y="169.07"/><use xlink:href="#k" x="489.085" y="169.07"/><use xlink:href="#o" x="494.653" y="169.07"/></g><g fill="rgb(0%,0%,0%)"><use xlink:href="#p" x="193.48" y="199.313"/><use xlink:href="#q" x="200.956" y="199.313"/><use xlink:href="#r" x="208.726" y="199.313"/><use xlink:href="#s" x="215.67" y="199.313"/><use xlink:href="#t" x="223.328" y="199.313"/><use xlink:href="#u" x="231.098" y="199.313"/><use xlink:href="#s" x="234.542" y="199.313"/><use xlink:href="#v" x="242.2" y="199.313"/></g><path d="M254.285 202.648h15.863v-15.863h-15.863zm0 0" fill="rgb(37.647059%,43.921569%,50.196078%)" fill-opacity="0.12549"/><path d="M302.785 202.648h15.863v-15.863h-15.863zm0 0" fill="rgb(37.647059%,43.921569%,50.196078%)"/><g fill="rgb(0%,0%,0%)"><use xlink:href="#w" x="273.016" y="198.391"/><use xlink:href="#x" x="278.998" y="198.391"/><use xlink:href="#y" x="285.07" y="198.391"/><use xlink:href="#z" x="294.357" y="198.391"/></g><g fill="rgb(0%,0%,0%)"><use xlink:href="#A" x="321.516" y="198.391"/><use xlink:href="#x" x="328.764" y="198.391"/><use xlink:href="#B" x="334.836" y="198.391"/><use xlink:href="#z" x="340.964" y="198.391"/></g><g fill="rgb(0%,0%,0%)"><use xlink:href="#C" x="6.973" y="33.895"/><use xlink:href="#D" x="13.698" y="33.895"/><use xlink:href="#E" x="19.944" y="33.895"/><use xlink:href="#F" x="26.934" y="33.895"/><use xlink:href="#D" x="31.19" y="33.895"/><use xlink:href="#G" x="37.437" y="33.895"/><use xlink:href="#H" x="47.877" y="33.895"/><use xlink:href="#D" x="54.867" y="33.895"/><use xlink:href="#I" x="61.113" y="33.895"/><use xlink:href="#J" x="65.483" y="33.895"/><use xlink:href="#K" x="68.027" y="33.895"/><use xlink:href="#L" x="74.286" y="33.895"/><use xlink:href="#M" x="80.545" y="33.895"/><use xlink:href="#N" x="86.804" y="33.895"/><use xlink:href="#J" x="93.064" y="33.895"/><use xlink:href="#F" x="95.607" y="33.895"/><use xlink:href="#O" x="99.864" y="33.895"/><use xlink:href="#J" x="106.69" y="33.895"/><use xlink:href="#P" x="109.234" y="33.895"/><use xlink:href="#Q" x="118.39" y="33.895"/><use xlink:href="#R" x="124.838" y="33.895"/><use xlink:href="#J" x="130.719" y="33.895"/><use xlink:href="#K" x="133.263" y="33.895"/><use xlink:href="#L" x="139.522" y="33.895"/><use xlink:href="#M" x="145.781" y="33.895"/><use xlink:href="#S" x="152.04" y="33.895"/><use xlink:href="#T" x="158.299" y="33.895"/><use xlink:href="#J" x="161.435" y="33.895"/><use xlink:href="#I" x="163.979" y="33.895"/><use xlink:href="#D" x="168.349" y="33.895"/><use xlink:href="#U" x="174.595" y="33.895"/><use xlink:href="#J" x="181.585" y="33.895"/><use xlink:href="#V" x="184.129" y="33.895"/><use xlink:href="#W" x="187.34" y="33.895"/><use xlink:href="#X" x="190.438" y="33.895"/><use xlink:href="#D" x="197.327" y="33.895"/><use xlink:href="#J" x="203.574" y="33.895"/><use xlink:href="#G" x="206.118" y="33.895"/><use xlink:href="#Q" x="216.558" y="33.895"/><use xlink:href="#I" x="223.006" y="33.895"/><use xlink:href="#Y" x="227.376" y="33.895"/><use xlink:href="#Z" x="233.61" y="33.895"/><use xlink:href="#J" x="238.887" y="33.895"/><use xlink:href="#aa" x="241.43" y="33.895"/><use xlink:href="#O" x="248.281" y="33.895"/><use xlink:href="#ab" x="255.107" y="33.895"/><use xlink:href="#Z" x="261.958" y="33.895"/><use xlink:href="#D" x="267.235" y="33.895"/><use xlink:href="#J" x="273.482" y="33.895"/><use xlink:href="#G" x="276.025" y="33.895"/><use xlink:href="#O" x="286.466" y="33.895"/><use xlink:href="#ac" x="293.291" y="33.895"/><use xlink:href="#D" x="299.173" y="33.895"/></g><g fill="rgb(0%,0%,0%)"><use xlink:href="#ad" x="6.973" y="17.988"/><use xlink:href="#ae" x="20.175" y="17.988"/><use xlink:href="#ae" x="28.506" y="17.988"/><use xlink:href="#af" x="36.837" y="17.988"/><use xlink:href="#ag" x="45.152" y="17.988"/><use xlink:href="#ah" x="52.19" y="17.988"/><use xlink:href="#ai" x="55.583" y="17.988"/><use xlink:href="#aj" x="67.643" y="17.988"/><use xlink:href="#ak" x="71.775" y="17.988"/><use xlink:href="#al" x="77.452" y="17.988"/><use xlink:href="#ah" x="86.59" y="17.988"/><use xlink:href="#am" x="89.983" y="17.988"/><use xlink:href="#ae" x="97.121" y="17.988"/><use xlink:href="#an" x="105.452" y="17.988"/><use xlink:href="#ao" x="111.281" y="17.988"/><use xlink:href="#ah" x="120.385" y="17.988"/><use xlink:href="#ap" x="123.778" y="17.988"/><use xlink:href="#aq" x="134.931" y="17.988"/><use xlink:href="#ag" x="142.775" y="17.988"/><use xlink:href="#ak" x="149.813" y="17.988"/><use xlink:href="#ae" x="155.49" y="17.988"/><use xlink:href="#an" x="163.821" y="17.988"/><use xlink:href="#ah" x="169.65" y="17.988"/><use xlink:href="#ar" x="173.043" y="17.988"/><use xlink:href="#as" x="180.702" y="17.988"/><use xlink:href="#an" x="189.302" y="17.988"/><use xlink:href="#at" x="195.131" y="17.988"/><use xlink:href="#ah" x="204.453" y="17.988"/><use xlink:href="#ag" x="207.846" y="17.988"/><use xlink:href="#au" x="214.884" y="17.988"/><use xlink:href="#ae" x="224.206" y="17.988"/><use xlink:href="#av" x="232.537" y="17.988"/><use xlink:href="#at" x="241.725" y="17.988"/><use xlink:href="#aj" x="251.047" y="17.988"/><use xlink:href="#av" x="255.179" y="17.988"/><use xlink:href="#aw" x="264.367" y="17.988"/></g></svg>