<svg xmlns="http://www.w3.org/2000/svg" xmlns:xlink="http://www.w3.org/1999/xlink" width="720" height="480" viewBox="0 0 540 360"><defs><symbol overflow="visible" id="r"><path d="M1.922-.797v-.047c.453-.453.703-.937.703-1.719 0-.234-.031-.421-.063-.624h1.641v-.626H2.422c-.14-.484-.266-.921-.266-1.39 0-.766.438-1.313 1.235-1.313.515 0 .859.25 1.14.594l.532-.516c-.391-.484-.938-.843-1.735-.843-1.25 0-2.078.797-2.078 2.062 0 .469.156.922.297 1.407h-.203l-.75.03v.595h1.125c.047.203.078.39.078.609 0 .844-.438 1.61-1.188 2.015V0h4.47v-.797zm0 0"/></symbol><symbol overflow="visible" id="s"><path d="M2.797.14c1.422 0 2.281-1.343 2.281-3.734 0-2.406-.86-3.687-2.281-3.687C1.359-7.281.5-6 .5-3.594c0 2.39.86 3.735 2.297 3.735zm0-.75c-.844 0-1.406-.89-1.406-2.984s.562-2.953 1.406-2.953c.828 0 1.375.86 1.375 2.953 0 2.094-.547 2.985-1.375 2.985zm0 0"/></symbol><symbol overflow="visible" id="t"><path d="M.281-.844c.485.5 1.203.985 2.344.985 1.234 0 2.406-.875 2.406-2.422 0-1.547-1-2.25-2.218-2.25-.438 0-.766.125-1.094.297l.187-2.125h2.766v-.782H1.094L.859-3.703l.5.312c.422-.28.72-.437 1.22-.437.921 0 1.515.578 1.515 1.562 0 1-.688 1.641-1.563 1.641-.844 0-1.375-.39-1.797-.813zm0 0"/></symbol><symbol overflow="visible" id="u"><path d="M.89 0h4.032v-.766H3.438V-7.14h-.704c-.39.235-.859.407-1.515.516v.594h1.297v5.265H.89zm0 0"/></symbol><symbol overflow="visible" id="v"><path d="M.75 1.906c.906-.375 1.469-1.14 1.469-2.093 0-.672-.297-1.094-.781-1.094-.36 0-.672.25-.672.656s.296.64.656.64c.031 0 .078 0 .11-.015 0 .61-.376 1.094-1 1.36zm0 0"/></symbol><symbol overflow="visible" id="w"><path d="M1.172-2.719l1.656-2.437c.203-.344.406-.657.594-1h.047c-.031.375-.063.984-.063 1.375v2.062zm4.078 0h-.969V-7.14H3.25L.187-2.578v.61h3.22V0h.874v-1.969h.969zm0 0"/></symbol><symbol overflow="visible" id="x"><path d="M3-.594c-.906 0-1.453-.75-1.563-2.14.485-.672 1.032-.938 1.485-.938.89 0 1.328.578 1.328 1.516C4.25-1.22 3.703-.594 3-.594zm1.984-5.922c-.406-.437-.953-.765-1.718-.765C1.844-7.281.53-6.171.53-3.313.531-1.015 1.61.142 3 .142c1.156 0 2.125-.938 2.125-2.297 0-1.469-.813-2.219-2.047-2.219-.578 0-1.219.36-1.672.906.047-2.265.89-3.047 1.89-3.047.438 0 .876.22 1.173.563zm0 0"/></symbol><symbol overflow="visible" id="y"><path d="M.453 0h4.61v-.797H2.983c-.359 0-.796.031-1.187.063C3.484-2.5 4.703-3.828 4.703-5.172c0-1.266-.812-2.11-2.14-2.11-.922 0-1.563.438-2.157 1.095l.531.515c.407-.484.922-.86 1.516-.86.906 0 1.36.579 1.36 1.407 0 1.14-1.22 2.438-3.36 4.578zm0 0"/></symbol><symbol overflow="visible" id="z"><path d="M1.984 0h.954c.124-2.797.468-4.406 2.156-6.578v-.563H.5v.782h3.563C2.64-4.391 2.109-2.688 1.983 0zm0 0"/></symbol><symbol overflow="visible" id="A"><path d="M1.281-1.922c0-.64.438-1.172 1-1.547 1.031.406 1.938.75 1.938 1.672 0 .734-.563 1.25-1.39 1.25-.876 0-1.548-.578-1.548-1.375zm2.032-1.984c-.876-.328-1.657-.688-1.657-1.531 0-.704.5-1.157 1.157-1.157.78 0 1.25.563 1.25 1.266 0 .516-.282 1-.75 1.422zM.453-1.828c0 1.14 1 1.969 2.344 1.969 1.39 0 2.312-.844 2.312-1.907 0-.968-.609-1.468-1.25-1.843v-.047c.438-.328.985-.969.985-1.719 0-1.11-.766-1.906-2.016-1.906-1.14 0-2.015.734-2.015 1.843 0 .75.468 1.266.984 1.641v.047c-.672.36-1.344 1-1.344 1.922zm0 0"/></symbol><symbol overflow="visible" id="J"><path d="M1.016 0h2.328C5 0 6.14-.703 6.14-2.156c0-1-.625-1.578-1.704-1.75v-.047c.86-.219 1.282-.875 1.282-1.61 0-1.28-1.032-1.78-2.532-1.78H1.017zm.921-4.219v-2.39h1.125c1.157 0 1.735.328 1.735 1.125 0 .828-.516 1.265-1.766 1.265zm0 3.485v-2.782H3.22c1.281 0 2 .407 2 1.313 0 1-.735 1.469-2 1.469zm0 0"/></symbol><symbol overflow="visible" id="K"><path d="M.516-2.719c0 1.781 1.156 2.86 2.609 2.86.734 0 1.328-.266 1.797-.563l-.328-.61a2.414 2.414 0 0 1-1.36.423c-1.03 0-1.75-.735-1.812-1.907h3.672c.031-.14.031-.312.031-.515 0-1.547-.781-2.547-2.172-2.547C1.72-5.578.516-4.5.516-2.718zm.89-.406c.125-1.094.813-1.719 1.578-1.719.844 0 1.344.61 1.344 1.719zm0 0"/></symbol><symbol overflow="visible" id="L"><path d="M3.578-7.938a2.673 2.673 0 0 0-.906-.171c-1.094 0-1.594.687-1.594 1.796v.875l-.734.047v.704h.734V0H2v-4.688h1.14v-.75H2v-.875c0-.687.234-1.046.75-1.046.203 0 .422.046.625.14zm0 0"/></symbol><symbol overflow="visible" id="M"><path d="M.516-2.719C.516-.906 1.703.141 3.03.141c1.344 0 2.531-1.047 2.531-2.86 0-1.812-1.187-2.86-2.53-2.86-1.329 0-2.516 1.048-2.516 2.86zm.953 0c0-1.25.64-2.094 1.562-2.094.953 0 1.578.844 1.578 2.094S3.984-.625 3.031-.625c-.922 0-1.562-.844-1.562-2.094zm0 0"/></symbol><symbol overflow="visible" id="N"><path d="M.922 0h.922v-3.5c.36-.906.906-1.25 1.375-1.25.219 0 .344.031.515.094l.188-.813a1.364 1.364 0 0 0-.578-.11c-.625 0-1.188.438-1.547 1.126h-.031l-.079-.984H.922zm0 0"/></symbol><symbol overflow="visible" id="O"><path d="M1.922-2.984l.36-1.125c.265-.813.5-1.625.718-2.485h.047c.234.86.469 1.672.734 2.485l.36 1.125zM5.062 0h1L3.579-7.344H2.516L.03 0h.953l.704-2.234h2.687zm0 0"/></symbol><symbol overflow="visible" id="P"><path d="M1.078-1.688c0 1.079.39 1.829 1.547 1.829.344 0 .719-.11 1.016-.203l-.172-.704c-.188.079-.438.157-.625.157C2.219-.61 2-1 2-1.672v-3.016h1.469v-.75H2v-1.53h-.766l-.109 1.53-.86.047v.704h.813zm0 0"/></symbol><symbol overflow="visible" id="B"><path d="M1.266 0h1.156v-4.328h4.265V0h1.188v-9.188H6.687v3.86H2.423v-3.86H1.266zm0 0"/></symbol><symbol overflow="visible" id="C"><path d="M.64-3.39C.64-1.14 2.126.171 3.798.171c1.656 0 3.14-1.313 3.14-3.563 0-2.28-1.484-3.578-3.14-3.578C2.125-6.969.64-5.672.64-3.39zm1.188 0c0-1.563.797-2.626 1.969-2.626 1.172 0 1.953 1.063 1.953 2.625 0 1.563-.781 2.61-1.953 2.61-1.172 0-1.969-1.047-1.969-2.61zm0 0"/></symbol><symbol overflow="visible" id="D"><path d="M1.047-2.484c0 1.734.64 2.656 2.094 2.656.937 0 1.609-.5 2.234-1.234h.047L5.516 0h.953v-6.797H5.312v4.828c-.64.797-1.125 1.14-1.828 1.14-.89 0-1.265-.546-1.265-1.812v-4.156H1.047zm0 0"/></symbol><symbol overflow="visible" id="E"><path d="M.39-.766c.641.532 1.563.938 2.532.938 1.61 0 2.5-.922 2.5-2.031 0-1.297-1.094-1.704-2.078-2.063-.766-.297-1.516-.531-1.516-1.172 0-.515.39-.984 1.25-.984.61 0 1.094.25 1.563.61l.546-.735c-.53-.422-1.265-.766-2.125-.766-1.468 0-2.328.844-2.328 1.922 0 1.156 1.063 1.61 2.032 1.969.734.281 1.546.594 1.546 1.281 0 .594-.453 1.063-1.343 1.063-.813 0-1.422-.329-2-.813zm0 0"/></symbol><symbol overflow="visible" id="F"><path d="M.64-3.39C.64-1.157 2.095.171 3.907.171c.922 0 1.656-.328 2.235-.703l-.407-.75c-.5.312-1.046.531-1.687.531-1.297 0-2.188-.938-2.266-2.406h4.594c.016-.156.031-.39.031-.625 0-1.938-.968-3.188-2.703-3.188-1.562 0-3.062 1.36-3.062 3.578zm1.126-.516c.14-1.375 1-2.156 1.953-2.156 1.062 0 1.687.765 1.687 2.156zm0 0"/></symbol><symbol overflow="visible" id="G"/><symbol overflow="visible" id="H"><path d="M1.14 0h1.157v-4.922C2.922-5.625 3.5-5.984 4-5.984c.875 0 1.281.546 1.281 1.828V0h1.14v-4.922c.641-.703 1.188-1.062 1.72-1.062.843 0 1.25.546 1.25 1.828V0h1.156v-4.313c0-1.734-.672-2.656-2.078-2.656-.828 0-1.531.532-2.235 1.297-.28-.812-.843-1.297-1.875-1.297-.812 0-1.53.5-2.125 1.14h-.03l-.11-.968H1.14zm0 0"/></symbol><symbol overflow="visible" id="I"><path d="M2.625 0h1.344l2.406-6.797h-1.14l-1.282 3.86c-.203.671-.422 1.359-.625 2h-.047a60.22 60.22 0 0 1-.64-2l-1.282-3.86H.172zm0 0"/></symbol><symbol overflow="visible" id="Q"><path d="M.531-1.078A3.982 3.982 0 0 0 3.421.156c1.735 0 2.813-1.047 2.813-2.36 0-1.218-.75-1.796-1.703-2.202l-1.172-.5c-.656-.282-1.375-.578-1.375-1.375 0-.75.625-1.219 1.547-1.219.766 0 1.375.313 1.875.781l.563-.672A3.39 3.39 0 0 0 3.53-8.406c-1.5 0-2.594.922-2.594 2.187 0 1.203.891 1.797 1.672 2.125l1.188.516c.781.36 1.36.625 1.36 1.469 0 .796-.641 1.343-1.72 1.343-.859 0-1.687-.421-2.28-1.03zm0 0"/></symbol><symbol overflow="visible" id="R"><path d="M.578-3.047c0 2 1.297 3.203 2.938 3.203C4.344.156 5-.14 5.53-.484l-.375-.672c-.453.281-.937.468-1.515.468-1.172 0-1.97-.828-2.047-2.14h4.14c.016-.156.032-.36.032-.578 0-1.75-.875-2.86-2.438-2.86-1.406 0-2.75 1.22-2.75 3.22zm1.016-.469c.125-1.234.906-1.937 1.75-1.937.969 0 1.515.687 1.515 1.937zm0 0"/></symbol><symbol overflow="visible" id="S"><path d="M2.047-.547c.562.438 1.125.703 1.687.703 1.407 0 2.657-1.234 2.657-3.297 0-1.906-.844-3.125-2.422-3.125-.719 0-1.406.391-1.953.844h-.032l-.093-.703h-.86v8.703h1.032V.516zm.015-.812v-3.22c.61-.53 1.126-.827 1.641-.827 1.156 0 1.61.906 1.61 2.265 0 1.5-.735 2.422-1.75 2.422-.407 0-.938-.172-1.5-.64zm0 0"/></symbol><symbol overflow="visible" id="T"><path d="M1.203-1.89c0 1.202.453 2.046 1.75 2.046.39 0 .797-.125 1.14-.234L3.892-.86c-.204.078-.485.171-.688.171-.703 0-.953-.437-.953-1.187v-3.406h1.656v-.844H2.25v-1.703h-.86l-.124 1.703-.97.063v.78h.907zm0 0"/></symbol><symbol overflow="visible" id="U"><path d="M1.031 0h1.032v-4.438c.562-.625 1.078-.937 1.546-.937.766 0 1.141.484 1.141 1.64V0h1.031v-4.438c.563-.625 1.063-.937 1.532-.937.765 0 1.14.484 1.14 1.64V0h1.031v-3.875c0-1.563-.609-2.39-1.859-2.39-.75 0-1.375.468-2.016 1.171-.25-.734-.765-1.172-1.687-1.172-.735 0-1.375.454-1.906 1.032h-.032l-.093-.891h-.86zm0 0"/></symbol><symbol overflow="visible" id="V"><path d="M1.031 0h.828l.094-.61h.031c.547.485 1.188.766 1.75.766 1.407 0 2.657-1.234 2.657-3.312 0-1.89-.844-3.11-2.438-3.11-.672 0-1.36.36-1.906.844l.015-1.11v-2.437h-1.03zm1.032-1.36v-3.218c.578-.531 1.124-.828 1.64-.828 1.156 0 1.61.906 1.61 2.265 0 1.5-.735 2.422-1.75 2.422-.407 0-.954-.172-1.5-.64zm0 0"/></symbol><symbol overflow="visible" id="W"><path d="M1.031 0h1.032v-3.922c.421-1.047 1.03-1.422 1.546-1.422.25 0 .391.047.594.11l.203-.907c-.203-.093-.39-.125-.656-.125-.688 0-1.313.485-1.734 1.25h-.032l-.093-1.109h-.86zm0 0"/></symbol><symbol overflow="visible" id="X"/><symbol overflow="visible" id="Y"><path d="M.5 0h5.188v-.89H3.358c-.406 0-.906.03-1.343.078 1.906-2 3.28-3.5 3.28-5 0-1.422-.921-2.375-2.405-2.375-1.047 0-1.766.5-2.438 1.218l.594.594c.469-.531 1.047-.969 1.719-.969 1.015 0 1.515.657 1.515 1.578 0 1.297-1.36 2.75-3.781 5.157zm0 0"/></symbol><symbol overflow="visible" id="Z"><path d="M3.14.156c1.594 0 2.563-1.5 2.563-4.203 0-2.687-.969-4.14-2.562-4.14-1.61 0-2.594 1.453-2.594 4.14C.547-1.344 1.53.156 3.14.156zm0-.844c-.953 0-1.578-1-1.578-3.359 0-2.344.625-3.312 1.579-3.312.921 0 1.562.968 1.562 3.312 0 2.36-.64 3.36-1.562 3.36zm0 0"/></symbol><symbol overflow="visible" id="aa"><path d="M1 0h4.531v-.86H3.86V-8.03h-.78c-.454.265-.97.469-1.704.594v.656h1.453V-.86H1zm0 0"/></symbol><symbol overflow="visible" id="ab"><path d="M1.313-3.047l1.875-2.75c.218-.39.453-.734.656-1.125h.047c-.032.422-.063 1.11-.063 1.547v2.328zm4.593 0H4.813V-8.03H3.655L.22-2.891v.672h3.61V0h.983v-2.219h1.094zm0 0"/></symbol><symbol overflow="visible" id="ac"><path d="M.578-3.047C.578-1.016 1.922.156 3.406.156c1.5 0 2.844-1.172 2.844-3.203 0-2.047-1.344-3.219-2.844-3.219-1.484 0-2.828 1.172-2.828 3.22zm1.078 0c0-1.406.719-2.375 1.75-2.375 1.063 0 1.766.969 1.766 2.375 0 1.39-.703 2.344-1.766 2.344-1.031 0-1.75-.953-1.75-2.344zm0 0"/></symbol><symbol overflow="visible" id="ad"><path d="M1.14 0h.97v-4.547c0-.734-.094-1.719-.141-2.437h.047l.656 1.828L4.266-.828h.593l1.594-4.328.656-1.828h.063c-.063.718-.14 1.703-.14 2.437V0h.984v-8.266H6.78L5.203-3.828l-.578 1.687h-.047l-.61-1.687-1.593-4.438H1.141zm0 0"/></symbol><symbol overflow="visible" id="ae"><path d="M.734-1.594c0 1.11.766 1.75 1.797 1.75.75 0 1.438-.406 2.031-.89h.016L4.672 0h.86v-3.75c0-1.531-.626-2.516-2.126-2.516-.984 0-1.844.422-2.406.782l.406.718c.485-.328 1.11-.656 1.828-.656 1 0 1.266.766 1.266 1.547-2.61.281-3.766.953-3.766 2.281zm1.016-.062c0-.782.688-1.297 2.75-1.547V-1.5c-.594.531-1.094.813-1.672.813-.61 0-1.078-.282-1.078-.97zm0 0"/></symbol><symbol overflow="visible" id="af"><path d="M.61 1.688L.421 2.5c.187.078.437.125.719.125C2.375 2.625 3 1.719 3.42.5l2.313-6.625H4.72l-1.094 3.39c-.156.547-.344 1.172-.516 1.735h-.046a73.762 73.762 0 0 0-.594-1.734l-1.25-3.391H.156L2.61.015 2.47.47c-.25.75-.688 1.312-1.39 1.312-.141 0-.329-.062-.47-.093zm0 0"/></symbol><symbol overflow="visible" id="ag"><path d="M1.453-2.156c0-.735.469-1.313 1.11-1.75 1.171.469 2.187.844 2.187 1.875 0 .828-.64 1.422-1.578 1.422-.985 0-1.719-.657-1.719-1.547zM3.72-4.375c-.969-.39-1.86-.781-1.86-1.75 0-.781.563-1.297 1.297-1.297.89 0 1.406.64 1.406 1.422 0 .594-.312 1.14-.843 1.625zM.516-2.047C.516-.78 1.64.156 3.14.156c1.562 0 2.609-.953 2.609-2.14 0-1.094-.688-1.657-1.406-2.079v-.046c.5-.375 1.11-1.094 1.11-1.938 0-1.25-.876-2.14-2.266-2.14-1.297 0-2.282.828-2.282 2.062 0 .844.531 1.438 1.125 1.86v.046C1.266-3.812.516-3.094.516-2.047zm0 0"/></symbol><symbol overflow="visible" id="ah"><path d="M.875-5.516c0 3.594 2.047 5.72 4.813 5.72 1.421 0 2.5-.595 3.359-1.595l-.781-.859c-.704.781-1.485 1.219-2.532 1.219-2.093 0-3.421-1.735-3.421-4.516C2.313-8.28 3.687-10 5.796-10c.922 0 1.625.406 2.203 1.031l.781-.89a4.01 4.01 0 0 0-3-1.36c-2.828 0-4.906 2.172-4.906 5.703zm0 0"/></symbol><symbol overflow="visible" id="ai"><path d="M1.266-2.984c0 2.078.765 3.187 2.5 3.187C4.89.203 5.687-.39 6.453-1.28H6.5L6.625 0h1.14v-8.156h-1.39v5.781c-.766.969-1.36 1.39-2.188 1.39-1.078 0-1.53-.656-1.53-2.187v-4.984H1.265zm0 0"/></symbol><symbol overflow="visible" id="aj"><path d="M1.375 0H2.75v-5.906c.766-.844 1.453-1.266 2.047-1.266 1.047 0 1.531.656 1.531 2.188V0h1.375v-5.906c.766-.844 1.422-1.266 2.063-1.266 1.015 0 1.5.656 1.5 2.188V0h1.375v-5.172c0-2.078-.797-3.187-2.485-3.187-.984 0-1.828.64-2.687 1.562-.328-.984-1-1.562-2.25-1.562-.969 0-1.828.593-2.532 1.375h-.046l-.125-1.172H1.375zm0 0"/></symbol><symbol overflow="visible" id="ak"><path d="M1.375-1.64c0 1.187.422 1.843 1.469 1.843.36 0 .594-.047.781-.14L3.437-.97c-.14.031-.218.031-.296.031-.204 0-.391-.171-.391-.609v-10.406H1.375zm0 0"/></symbol><symbol overflow="visible" id="al"><path d="M.969-2.11C.969-.655 2 .204 3.375.204c1.016 0 1.922-.531 2.703-1.172h.031L6.234 0h1.141v-5c0-2.031-.844-3.36-2.844-3.36-1.312 0-2.453.563-3.203 1.047l.547.97c.64-.438 1.484-.876 2.438-.876C5.64-7.219 6-6.219 6-5.172 2.516-4.782.969-3.89.969-2.109zm1.36-.109c0-1.047.937-1.719 3.671-2.047V-2c-.797.703-1.453 1.094-2.234 1.094-.813 0-1.438-.39-1.438-1.313zm0 0"/></symbol><symbol overflow="visible" id="am"><path d="M1.61-2.516c0 1.61.593 2.72 2.343 2.72.5 0 1.047-.157 1.5-.298L5.187-1.14c-.265.094-.64.22-.921.22C3.328-.922 3-1.5 3-2.5v-4.531h2.203v-1.125H3v-2.297H1.844l-.172 2.297-1.266.078v1.047H1.61zm0 0"/></symbol><symbol overflow="visible" id="an"><path d="M2.078-9.844c.547 0 .969-.375.969-.89 0-.532-.422-.891-.969-.891-.531 0-.953.36-.953.89 0 .516.422.891.953.891zM1.375 0H2.75v-8.156H1.375zm0 0"/></symbol><symbol overflow="visible" id="ao"><path d="M3.14 0h1.61l2.89-8.156H6.282L4.734-3.531c-.234.812-.5 1.64-.734 2.406h-.063a48.317 48.317 0 0 1-.765-2.406L1.625-8.156H.203zm0 0"/></symbol><symbol overflow="visible" id="ap"><path d="M.766-4.063C.766-1.39 2.5.204 4.687.204c1.11 0 1.985-.39 2.688-.844l-.484-.906c-.61.39-1.266.64-2.032.64-1.562 0-2.625-1.109-2.718-2.874h5.5c.03-.203.046-.469.046-.75 0-2.344-1.171-3.828-3.25-3.828C2.563-8.36.767-6.734.767-4.063zm1.343-.625c.172-1.64 1.22-2.578 2.36-2.578 1.281 0 2.015.922 2.015 2.579zm0 0"/></symbol><symbol overflow="visible" id="aq"/><symbol overflow="visible" id="ar"><path d="M5.578.203c2.766 0 4.719-2.219 4.719-5.766 0-3.5-1.953-5.656-4.719-5.656S.875-9.094.875-5.563C.875-2.015 2.813.204 5.578.204zm0-1.234c-1.969 0-3.266-1.782-3.266-4.532C2.313-8.296 3.61-10 5.579-10s3.25 1.703 3.25 4.438c0 2.75-1.281 4.53-3.25 4.53zm0 0"/></symbol><symbol overflow="visible" id="as"><path d="M.828 2.25L.547 3.344c.281.094.594.172.969.172C3.156 3.516 4 2.28 4.562.672l3.079-8.828H6.297L4.844-3.641c-.219.72-.453 1.563-.688 2.297h-.078c-.25-.75-.531-1.593-.781-2.297L1.625-8.156H.203L3.484.016l-.187.609c-.344 1-.922 1.75-1.86 1.75-.187 0-.453-.078-.609-.125zm0 0"/></symbol><symbol overflow="visible" id="at"><path d="M.469-.922C1.25-.282 2.344.203 3.516.203 5.437.203 6.5-.907 6.5-2.234c0-1.547-1.313-2.032-2.484-2.47-.922-.359-1.813-.64-1.813-1.405 0-.625.469-1.188 1.485-1.188.734 0 1.312.313 1.874.734l.657-.875c-.625-.5-1.516-.921-2.547-.921-1.75 0-2.797 1-2.797 2.312 0 1.375 1.281 1.938 2.438 2.36.89.328 1.859.703 1.859 1.53 0 .72-.531 1.282-1.61 1.282-.968 0-1.703-.406-2.406-.969zm0 0"/></symbol><symbol overflow="visible" id="au"><path d="M1.375 0H2.75v-5.234c.563-1.391 1.375-1.891 2.078-1.891.328 0 .516.047.781.14l.266-1.218c-.266-.11-.516-.156-.875-.156-.922 0-1.766.656-2.313 1.671h-.046l-.125-1.468H1.375zm0 0"/></symbol><symbol overflow="visible" id="av"><path d="M.766-4.063C.766-1.358 2.437.204 4.609.204c.97 0 1.907-.406 2.641-1.062l-.61-.907c-.5.438-1.14.829-1.921.829-1.5 0-2.516-1.266-2.516-3.125 0-1.891 1.078-3.157 2.547-3.157.656 0 1.156.297 1.656.719l.688-.89c-.563-.516-1.313-.97-2.39-.97C2.608-8.36.765-6.796.765-4.062zm0 0"/></symbol><symbol overflow="visible" id="aw"><path d="M.797-4.063c0 2.72 1.312 4.266 3.375 4.266C5.125.203 6-.328 6.64-.953h.046l.11.953h1.14v-11.953h-1.39v3.14l.078 1.391c-.734-.594-1.344-.937-2.297-.937-1.86 0-3.531 1.64-3.531 4.296zm1.422-.015c0-1.875 1.047-3.125 2.344-3.125.671 0 1.296.234 1.984.86v4.265c-.672.75-1.328 1.125-2.078 1.125-1.422 0-2.25-1.188-2.25-3.125zm0 0"/></symbol><symbol overflow="visible" id="ax"><path d="M2.719-.734c.765.578 1.515.937 2.265.937 1.875 0 3.532-1.625 3.532-4.406 0-2.531-1.125-4.156-3.22-4.156-.968 0-1.874.515-2.609 1.14h-.046l-.125-.937H1.375V3.438H2.75V.688zm.031-1.079v-4.28c.813-.72 1.5-1.11 2.188-1.11 1.546 0 2.156 1.203 2.156 3 0 2.016-1 3.25-2.344 3.25-.531 0-1.25-.235-2-.86zm0 0"/></symbol><symbol overflow="visible" id="ay"><path d="M1.375 0H2.75v-5.906c.828-.828 1.406-1.266 2.234-1.266 1.079 0 1.547.656 1.547 2.188V0h1.375v-5.172c0-2.078-.765-3.187-2.484-3.187-1.125 0-1.969.593-2.734 1.375H2.64l-.125-1.172H1.375zm0 0"/></symbol><symbol overflow="visible" id="az"><path d="M1.969 1.375c0-.469.25-.953.843-1.375.344.094.735.14 1.047.14h1.422c1.047 0 1.64.25 1.64 1 0 .86-1.03 1.673-2.593 1.673-1.469 0-2.36-.563-2.36-1.438zM.75 1.563c0 1.406 1.39 2.203 3.375 2.203 2.547 0 4.14-1.313 4.14-2.829C8.266-.421 7.313-1 5.407-1H3.828c-1.11 0-1.437-.375-1.437-.89 0-.454.234-.735.515-.985.375.188.828.281 1.219.281 1.672 0 3-1.078 3-2.828 0-.687-.281-1.312-.672-1.687h1.672v-1.047H5.297a3.214 3.214 0 0 0-1.172-.203c-1.656 0-3.063 1.125-3.063 2.906 0 .969.516 1.766 1.047 2.187v.079c-.406.28-.89.812-.89 1.515 0 .625.328 1.063.734 1.313v.078C1.203.219.75.875.75 1.563zm3.375-5.079c-.938 0-1.719-.75-1.719-1.937 0-1.203.766-1.906 1.719-1.906.969 0 1.734.703 1.734 1.906 0 1.187-.78 1.937-1.734 1.937zm0 0"/></symbol><clipPath id="a"><path d="M43.879 252H534v1H43.879zm0 0"/></clipPath><clipPath id="b"><path d="M43.879 181H534v2H43.879zm0 0"/></clipPath><clipPath id="c"><path d="M43.879 117H534v2H43.879zm0 0"/></clipPath><clipPath id="d"><path d="M43.879 71H534v2H43.879zm0 0"/></clipPath><clipPath id="e"><path d="M43.879 41.453H45V300h-1.121zm0 0"/></clipPath><clipPath id="f"><path d="M166 41.453h1V300h-1zm0 0"/></clipPath><clipPath id="g"><path d="M289 41.453h1V300h-1zm0 0"/></clipPath><clipPath id="h"><path d="M411 41.453h2V300h-2zm0 0"/></clipPath><clipPath id="i"><path d="M43.879 287H534v2H43.879zm0 0"/></clipPath><clipPath id="j"><path d="M43.879 216H534v2H43.879zm0 0"/></clipPath><clipPath id="k"><path d="M43.879 145H534v2H43.879zm0 0"/></clipPath><clipPath id="l"><path d="M43.879 88H534v3H43.879zm0 0"/></clipPath><clipPath id="m"><path d="M43.879 53H534v2H43.879zm0 0"/></clipPath><clipPath id="n"><path d="M104 41.453h2V300.45h-2zm0 0"/></clipPath><clipPath id="o"><path d="M227 41.453h2V300.45h-2zm0 0"/></clipPath><clipPath id="p"><path d="M350 41.453h2V300.45h-2zm0 0"/></clipPath><clipPath id="q"><path d="M472 41.453h3V300.45h-3zm0 0"/></clipPath></defs><path fill="rgb(100%,100%,100%)" d="M0 0H540V360H0z"/><path fill="rgb(96.862745%,97.254902%,97.647059%)" d="M0 0H540V360H0z"/><g clip-path="url(#a)"><path d="M43.879 252.531h489.148" fill="none" stroke-width="0.678986" stroke-linejoin="round" stroke="rgb(37.647059%,43.921569%,50.196078%)" stroke-opacity="0.2" stroke-miterlimit="10"/></g><g clip-path="url(#b)"><path d="M43.879 181.723h489.148" fill="none" stroke-width="0.678986" stroke-linejoin="round" stroke="rgb(37.647059%,43.921569%,50.196078%)" stroke-opacity="0.2" stroke-miterlimit="10"/></g><g clip-path="url(#c)"><path d="M43.879 117.996h489.148" fill="none" stroke-width="0.678986" stroke-linejoin="round" stroke="rgb(37.647059%,43.921569%,50.196078%)" stroke-opacity="0.2" stroke-miterlimit="10"/></g><g clip-path="url(#d)"><path d="M43.879 71.973h489.148" fill="none" stroke-width="0.678986" stroke-linejoin="round" stroke="rgb(37.647059%,43.921569%,50.196078%)" stroke-opacity="0.2" stroke-miterlimit="10"/></g><g clip-path="url(#e)"><path d="M43.934 299.45V41.452" fill="none" stroke-width="0.678986" stroke-linejoin="round" stroke="rgb(37.647059%,43.921569%,50.196078%)" stroke-opacity="0.2" stroke-miterlimit="10"/></g><g clip-path="url(#f)"><path d="M166.582 299.45V41.452" fill="none" stroke-width="0.678986" stroke-linejoin="round" stroke="rgb(37.647059%,43.921569%,50.196078%)" stroke-opacity="0.2" stroke-miterlimit="10"/></g><g clip-path="url(#g)"><path d="M289.398 299.45V41.452" fill="none" stroke-width="0.678986" stroke-linejoin="round" stroke="rgb(37.647059%,43.921569%,50.196078%)" stroke-opacity="0.2" stroke-miterlimit="10"/></g><g clip-path="url(#h)"><path d="M412.215 299.45V41.452" fill="none" stroke-width="0.678986" stroke-linejoin="round" stroke="rgb(37.647059%,43.921569%,50.196078%)" stroke-opacity="0.2" stroke-miterlimit="10"/></g><g clip-path="url(#i)"><path d="M43.879 287.934h489.148" fill="none" stroke-width="1.357972" stroke-linejoin="round" stroke="rgb(37.647059%,43.921569%,50.196078%)" stroke-opacity="0.25098" stroke-miterlimit="10"/></g><g clip-path="url(#j)"><path d="M43.879 217.125h489.148" fill="none" stroke-width="1.357972" stroke-linejoin="round" stroke="rgb(37.647059%,43.921569%,50.196078%)" stroke-opacity="0.25098" stroke-miterlimit="10"/></g><g clip-path="url(#k)"><path d="M43.879 146.32h489.148" fill="none" stroke-width="1.357972" stroke-linejoin="round" stroke="rgb(37.647059%,43.921569%,50.196078%)" stroke-opacity="0.25098" stroke-miterlimit="10"/></g><g clip-path="url(#l)"><path d="M43.879 89.672h489.148" fill="none" stroke-width="1.357972" stroke-linejoin="round" stroke="rgb(37.647059%,43.921569%,50.196078%)" stroke-opacity="0.25098" stroke-miterlimit="10"/></g><g clip-path="url(#m)"><path d="M43.879 54.27h489.148" fill="none" stroke-width="1.357972" stroke-linejoin="round" stroke="rgb(37.647059%,43.921569%,50.196078%)" stroke-opacity="0.25098" stroke-miterlimit="10"/></g><g clip-path="url(#n)"><path d="M105.258 299.45V41.452" fill="none" stroke-width="1.357972" stroke-linejoin="round" stroke="rgb(37.647059%,43.921569%,50.196078%)" stroke-opacity="0.25098" stroke-miterlimit="10"/></g><g clip-path="url(#o)"><path d="M227.906 299.45V41.452" fill="none" stroke-width="1.357972" stroke-linejoin="round" stroke="rgb(37.647059%,43.921569%,50.196078%)" stroke-opacity="0.25098" stroke-miterlimit="10"/></g><g clip-path="url(#p)"><path d="M350.89 299.45V41.452" fill="none" stroke-width="1.357972" stroke-linejoin="round" stroke="rgb(37.647059%,43.921569%,50.196078%)" stroke-opacity="0.25098" stroke-miterlimit="10"/></g><g clip-path="url(#q)"><path d="M473.54 299.45V41.452" fill="none" stroke-width="1.357972" stroke-linejoin="round" stroke="rgb(37.647059%,43.921569%,50.196078%)" stroke-opacity="0.25098" stroke-miterlimit="10"/></g><path d="M66.113 287.723l.012-.215.094-.211.035-.383.148-.21.153-.216.312-.308.059-.383.515-.215.094-.227.238-.21.118-.211.601-.383.102-.383.183-.215.114-.21.054-.212.157-.215.125-.21.222-.211.125-.215.203-.211.137-.215.195-.211.153-.211.218-.215.028-.383.074-.382.238-.368.075-.312.074-.379.148-.215.16-.21.563-.384.05-.398.063-.309.531-.37.079-.395.046-.215.543-.379.692-.313.015-.214.059-.325.062-.21.489-.383.039-.313.008-.383.625-.21.175-.215.293-.211.02-.211.523-.215.133-.211.055-.211.152-.215.149-.21.347-.216.2-.21.164-.212.23-.226.035-.215.051-.21.504-.216.348-.21.175-.212.164-.214.114-.211.047-.383.496-.211.18-.215.144-.21.152-.212.047-.215.453-.21.164-.215.563-.211.113-.211.215-.215.172-.211.16-.211.121-.215.04-.21.16-.216.19-.21.497-.212.133-.214.222-.211.113-.215.547-.211.13-.211.034-.383.164-.215.165-.21.257-.227.012-.227.02-.226.066-.211.262-.723.047-.215.187-.21.156-.212.2-.214.144-.211.188-.215.109-.211.05-.383.177-.211.093-.453.075-.383.164-.21.18-.313.152-.215.152-.309.527-.215.133-.21.18-.254.004-.215.144-.211.207-.211.172-.215.168-.211.145-.215.507-.21.153-.212.02-.382.265-.286.066-.28.16-.384 1.075-.312.054-.395.028-.215.031-.168.14-.226.215-.215.153-.21.113-.384.05-.289.497-.215.156-.21.196-.212.136-.214.2-.211.164-.215.14-.535.028-.313.18-.21.51-.216.099-.21.55-.215.13-.211.218-.211.121-.215.223-.211.133-.21.523-.216.137-.312.031-.367.18-.211.12-.313.352-.383.2-.21.117-.215.203-.211.168-.211.324-.215.184-.211.125-.215.261-.21.012-.212.262-.215.144-.21.047-.383.48-.211.153-.215.184-.211.136-.215.223-.211.117-.21.219-.216.121-.21.195-.212.13-.214.019-.211.867-.215.121-.211 2.555-.211.14-.215.207-.21.121-.313.06-.383.147-.383.032-.379.324-.215.113-.21.227-.216.11-.21.94-.211.036-.243.61-.398.042-.395.61-.21.109-.215.55-.211.122-.215.242-.211.09-.242.203-.395.039-.324.098-.215.226-.21.106-.216.234-.21.102-.212.89-.214.121-.211.27-.211.015-.215.274-.211.11-.215.234-.21.105-.212.223-.215.117-.21.05-.215.173-.211.113-.211.55-.215.118-.211.273-.211.63-.215.07-.238.265-.215.106-.21.218-.216.121-.21.899-.212.105-.214.23-.211.11-.211.23-.215.11-.211.207-.215.121-.324.617-.399.278-.21.12-.211.216-.215.129-.211.203-.211.129-.215.207-.211.12-.215.212-.21.285-.243.129-.394.086-.399.496-.21.136-.212.559-.215.121-.21.207-.212.149-.214.187-.211.125-.215.211-.211.145-.211.855-.215.023-.21 2.344-.216.137-.21.195-.212.13-.214.179-.551.035-.324.121-.215.211-.211.125-.215.195-.21.133-.212.55-.215.122-.21.555-.212.136-.214.211-.211.106-.215.222-.211.118-.211.047-.215.168-.21.128-.216.54-.21.14-.212.18-.214.09-.211.261-.211.137-.215.215-.211.121-.215.207-.21.137-.212.191-.215.184-.21.492-.212.16-.214.176-.211.121-.215.215-.211.12-.211.54-.398.031-.395.305-.398 1.086-.551.254-.145.144-.14.203-.141.11-.14.238-.145.04-.14.265-.141.137-.141.886-.145.121-.261.04-.262.171-.14.149-.141.187-.14.117-.145.211-.141.13-.14.214-.141.113-.145.559-.14.113-.141.219-.14.117-.145.211-.14.16-.141.211-.141.028-.266.023-.457.61-.144.1-.14.563-.142.114-.14.218-.145.13-.14.199-.14.168-.142.183-.144.11-.14.656-.262.066-.262.293-.262.04-.262.175-.14.117-.145 2.559-.14.125-.141.21-.14.133-.145.043-.262.18-.14.106-.141.214-.145.16-.14.18-.14.121-.142.051-.261.496-.145.125-.14 4.29-.262.308-.262.039-.254.027-.261.024-.086.25-.262.047-.215.03-.262.599-.261.058-.551.922-.262.035-.215.04-.261.261-.141.121-.14.223-.141.16-.145.183-.14.11-.141.219-.14.16-.145.336-.196.215-.261.058-.469.02-.137h.058l.188-.14.062-.141.235-.14.144-.145.32-.14.043-.141.172-.141.118-.145.214-.14.141-.14.203-.141.121-.145.043-.14.164-.141.14-.14.333-.145.043-.141.156-.14.125-.141.215-.145.133-.14.199-.141.125-.14.23-.145.024-.14.289-.263.031-.261.305-.14.133-.142.215-.257.152-.262.176-.14.125-.141 4.91-.145.137-.14.199-.141.187-.14.16-.145.168-.14.172-.141.14-.141.188-.145.13-.14.542-.14.121-.142.215-.144.13-.14.206-.141.149-.14.043-.145.136-.141.688-.14.133-.141.656-.145.21-.14.137-.141.043-.14.286-.145.039-.14.195-.142.023-.14.305-.145.113-.14.211-.14.121-.142.887-.144.125-.14.543-.141.149-.14.183-.145.129-.141.215-.14.121-.141.062-.215.278-.262.215-.14 2.691-.141.113-.145.22-.14.124-.14.207-.142.133-.144.195-.14.153-.141 1.238-.141.062-.242.59-.262.106-.215.004-.261.597-.141.02-.238 3.293-.145.11-.14.226-.368.047-.367.293-.144.128-.141.2-.14.125-.145.058-.14.153-.141.363-.141.297-.145.136-.14.223-.367.027-.368.297-.144.133-.262.031-.262.176-.14.121-.14.004-.141.192-.145.144-.14.527-.141.157-.14.172-.145.144-.141.2-.14.128-.141.227-.145.113-.14.227-.141.109-.14.207-.266.027-.262.309-.14.133-.141.539-.14.133-.145.21-.141.118-.14.879-.141.148-.145.203-.14.133-.262.633-.262.242-.14.133-.145.21-.14.13-.141.207-.14.172-.145.16-.141.129-.14.195-.141.137-.145.543-.14.133-.141.21-.14.11-.145.23-.14.13-.142.534-.14.133-.145.211-.14.117-.14.157-.263.015-.261.09-.262.035-.078.211-.262.024-.215.128-.21.012-.176.54-.145.12-.14.227-.141.113-.14.215-.145.121-.141.89-.14.122-.141.203-.145.047-.14.047-.262.086-.262.851-.14.106-.145.215-.14.117-.141.035-.14.531-.145.137-.141.21-.14.145-.141.184-.145.148-.14.188-.141.117-.14.223-.145.12-.14.887-.142.118-.14.218-.145.137-.14.04-.262.835-.14.113-.141.211-.145.121-.14 7.426-.262 1.192-.14.132-.145.208-.14.12-.142.07-.253.153-.145.11-.14.3-.262.012-.262.234-.14.13-.141.199-.145.14-.14.207-.141.348-.14.117-.145.203-.262.028-.262.324-.14.117-.14.547-.145.117-.211 2.586-.141.125-.145.188-.14.175-.14.164-.141.125-.145.23-.262 1.813-.261.2-.141.109-.14.27-.262.019-.262.254-.145.148-.14.528-.14.132-.141.547-.145.133-.14.211-.141.11-.14.23-.145.117-.141.203-.14.121-.141.301-.145.238-.14.145-.141.547-.14.113-.145.227-.14.136-.141.196-.141.113-.145.039-.14.176-.14.129-.142.187-.144.016-.227.117-.261.57-.14.114-.142.218-.14.118-.145.207-.14.125-.141.043-.14.164-.145.148-.14.207-.141.117-.145.54-.21.128-.212 4.922-.215.117-.21.547-.212.133-.214.21-.211.13-.215.203-.211.133-.211.535-.215.121-.21.23-.212.125-.215.208-.21.117-.215.203-.211.129-.211.254-.399.027-.394.11-.215.16-.395.085-.554.637-.395.32-.215.043-.34.598-.21.024-.34.035-.395.066-.215.035-.156.856-.21.015-.923.012-.34.098-.394 1.21-.399.09-.34.258-.394.059-.34.012-.554.261-.211.141-.211.031-.399.5-.21.114-.215.199-.211.152-.211.863-.215.133-.211.285-.399.395-.34.031-.394.176-.215.121-.21.203-.4.04-.339.312-.211.12-.21.212-.216.129-.21.222-.212.082-.34.032-.398.203-.21.12-.216.036-.21.168-.4.137-.394.199-.21.125-.215.23-.211.14-.215.2-.211.156-.211.176-.215.149-.21.207-.216.113-.21.176-.212.203-.214.484-.211.11-.211.222-.215.11-.211.582-.398.043-.395.28-.215.142-.21.19-.212.157-.215.125-.394.164-.34.02-.367.187-.215.145-.21.539-.216.133-.21.21-.212.137-.214.52-.211.183-.215.13-.395.14-.398.566-.211.168-.211.172-.215.11-.21.226-.212.164-.215.547-.21.121-.215.192-.395.12-.398.192-.211.125-.211.223-.215.16-.211.601-.398.07-.395.505-.215.164-.21.191-.212.02-.215.093-.308.211-.215.13-.211.183-.215.137-.34.05-.394.157-.211.144-.215.18-.21.152-.216.172-.55.086-.399.273-.21.13-.34.019-.395.246-.399.047-.394.039-.399.039-.129.164-.21.121-.211.219-.215.156-.211.504-.211.172-.215.168-.211.129-.215.21-.21.134-.212.293-.398.027-.524.055-.312.003-.086.157-.21.129-.212.214-.215.114-.308.054-.399.164-.21.18-.216.184-.394.039-.34.035-.469.05-.113.493-.55 2.883-.4.937-.394.059-.398.95-.238.198-.215.364-.395.023-.398.043-.918.035-.399.25-.21.106-.215.226-.211.121-.211.227-.215.164-.211.504-.215.164-.21 1.836-.212.148-.215.965-.394.05-.399.188-.21.153-.215.863-.211.152-.211.184-.215.164-.211.828-.398.024-.34.02-.395.98-.21.113-.216 1.894-.21.13-.215 1.214-.211.113-.211.22-.215.124-.211.211-.211.149-.215 1.273-.21.016-.216.015-.21.024-.212.203-.214.14-.211.188-.215.152-.211.2-.211.12-.215.22-.21.16-.212.253-.242.082-.21.176-.216.121-.21.32-.34.04-.34.007-.215.164-.211.157-.211.191-.215.016-.21.031-.212.012-.215.02-.242 3.062-.21.902-.34.012-.34.078-.395h.062" fill="none" stroke-width="2.133957" stroke-linejoin="round" stroke="rgb(40%,76.078431%,64.705882%)" stroke-miterlimit="10"/><path d="M301.422 87.45l.031-.212 4.227-.34 1.472-.398.188-.21 9.539-.212.05-.398.938-.34.059-.34 7.879-.766.195-.539 1.492-.535.086-.34.012-.398 1.586-.211 5.156-.398.07-.395 1.282-.766.074-.394.57-.54.047-.34.008-.538 2.351-.211.043-.215 20.996-.34.04-.34 8.824-.21.043-.215 4.34-.34 3.918-.395.058-.398.012-.535.015-.54 11.29-.538.195-.54 1.61-.34.054-.578 9.7-.214 13.023-.395.03-.34.387-.215.028-.21 14.625-.54.008-.34 5.543-.535 1.214-.539.008-.68.004-.538 3.078-.34.028-.34.992-.34.039-.34 8.039-.34.039-.34 2.344-.21 10.27-.54.034-.34.086-.34.016-.253.016-.54 2.66-.538.039-.54 8.05-.538 1.696-.535 7.879-.555.023-.68v-.55l.11-.4.05-.55 5.614-.394.062-.399 16.64-.793.06-.34.027-.34.039-.285.043-.55.23-.34.028-.34 2.03-.793.075-.55 5.555-.556.16-.55" fill="none" stroke-width="2.133957" stroke-linejoin="round" stroke="rgb(98.823529%,55.294118%,38.431373%)" stroke-miterlimit="10"/><g fill="rgb(37.647059%,43.921569%,50.196078%)"><use xlink:href="#r" x="26.465" y="291.605"/><use xlink:href="#s" x="32.033" y="291.605"/></g><g fill="rgb(37.647059%,43.921569%,50.196078%)"><use xlink:href="#r" x="15.328" y="220.797"/><use xlink:href="#t" x="20.896" y="220.797"/><use xlink:href="#s" x="26.464" y="220.797"/><use xlink:href="#s" x="32.032" y="220.797"/></g><g fill="rgb(37.647059%,43.921569%,50.196078%)"><use xlink:href="#r" x="6.973" y="149.992"/><use xlink:href="#u" x="12.541" y="149.992"/><use xlink:href="#v" x="18.108" y="149.992"/><use xlink:href="#s" x="20.898" y="149.992"/><use xlink:href="#s" x="26.466" y="149.992"/><use xlink:href="#s" x="32.034" y="149.992"/></g><g fill="rgb(37.647059%,43.921569%,50.196078%)"><use xlink:href="#r" x="6.973" y="93.344"/><use xlink:href="#u" x="12.541" y="93.344"/><use xlink:href="#v" x="18.108" y="93.344"/><use xlink:href="#w" x="20.898" y="93.344"/><use xlink:href="#s" x="26.466" y="93.344"/><use xlink:href="#s" x="32.034" y="93.344"/></g><g fill="rgb(37.647059%,43.921569%,50.196078%)"><use xlink:href="#r" x="6.973" y="57.941"/><use xlink:href="#u" x="12.541" y="57.941"/><use xlink:href="#v" x="18.108" y="57.941"/><use xlink:href="#x" x="20.898" y="57.941"/><use xlink:href="#t" x="26.466" y="57.941"/><use xlink:href="#s" x="32.034" y="57.941"/></g><g fill="rgb(37.647059%,43.921569%,50.196078%)"><use xlink:href="#y" x="94.121" y="313.07"/><use xlink:href="#s" x="99.689" y="313.07"/><use xlink:href="#u" x="105.257" y="313.07"/><use xlink:href="#t" x="110.825" y="313.07"/></g><g fill="rgb(37.647059%,43.921569%,50.196078%)"><use xlink:href="#y" x="216.77" y="313.07"/><use xlink:href="#s" x="222.337" y="313.07"/><use xlink:href="#u" x="227.905" y="313.07"/><use xlink:href="#x" x="233.473" y="313.07"/></g><g fill="rgb(37.647059%,43.921569%,50.196078%)"><use xlink:href="#y" x="339.754" y="313.07"/><use xlink:href="#s" x="345.322" y="313.07"/><use xlink:href="#u" x="350.89" y="313.07"/><use xlink:href="#z" x="356.458" y="313.07"/></g><g fill="rgb(37.647059%,43.921569%,50.196078%)"><use xlink:href="#y" x="462.402" y="313.07"/><use xlink:href="#s" x="467.97" y="313.07"/><use xlink:href="#u" x="473.538" y="313.07"/><use xlink:href="#A" x="479.106" y="313.07"/></g><g fill="rgb(0%,0%,0%)"><use xlink:href="#B" x="202.688" y="343.313"/><use xlink:href="#C" x="211.815" y="343.313"/><use xlink:href="#D" x="219.403" y="343.313"/><use xlink:href="#E" x="227.019" y="343.313"/><use xlink:href="#F" x="232.885" y="343.313"/><use xlink:href="#G" x="239.829" y="343.313"/><use xlink:href="#H" x="242.657" y="343.313"/><use xlink:href="#C" x="254.263" y="343.313"/><use xlink:href="#I" x="261.851" y="343.313"/><use xlink:href="#F" x="268.389" y="343.313"/></g><path d="M281.379 338.719h13.824" fill="none" stroke-width="2.133957" stroke-linejoin="round" stroke="rgb(40%,76.078431%,64.705882%)" stroke-miterlimit="10"/><path d="M333.91 338.719h13.824" fill="none" stroke-width="2.133957" stroke-linejoin="round" stroke="rgb(98.823529%,55.294118%,38.431373%)" stroke-miterlimit="10"/><g fill="rgb(0%,0%,0%)"><use xlink:href="#J" x="299.09" y="342.391"/><use xlink:href="#K" x="305.677" y="342.391"/><use xlink:href="#L" x="311.234" y="342.391"/><use xlink:href="#M" x="314.505" y="342.391"/><use xlink:href="#N" x="320.577" y="342.391"/><use xlink:href="#K" x="324.465" y="342.391"/></g><g fill="rgb(0%,0%,0%)"><use xlink:href="#O" x="351.625" y="342.391"/><use xlink:href="#L" x="357.719" y="342.391"/><use xlink:href="#P" x="360.991" y="342.391"/><use xlink:href="#K" x="364.777" y="342.391"/><use xlink:href="#N" x="370.334" y="342.391"/></g><g fill="rgb(0%,0%,0%)"><use xlink:href="#Q" x="43.879" y="33.895"/><use xlink:href="#R" x="50.604" y="33.895"/><use xlink:href="#S" x="56.85" y="33.895"/><use xlink:href="#T" x="63.84" y="33.895"/><use xlink:href="#R" x="68.097" y="33.895"/><use xlink:href="#U" x="74.343" y="33.895"/><use xlink:href="#V" x="84.783" y="33.895"/><use xlink:href="#R" x="91.773" y="33.895"/><use xlink:href="#W" x="98.019" y="33.895"/><use xlink:href="#X" x="102.389" y="33.895"/><use xlink:href="#Y" x="104.933" y="33.895"/><use xlink:href="#Z" x="111.193" y="33.895"/><use xlink:href="#aa" x="117.452" y="33.895"/><use xlink:href="#ab" x="123.711" y="33.895"/><use xlink:href="#X" x="129.97" y="33.895"/><use xlink:href="#T" x="132.514" y="33.895"/><use xlink:href="#ac" x="136.77" y="33.895"/><use xlink:href="#X" x="143.596" y="33.895"/><use xlink:href="#ad" x="146.14" y="33.895"/><use xlink:href="#ae" x="155.296" y="33.895"/><use xlink:href="#af" x="161.744" y="33.895"/><use xlink:href="#X" x="167.625" y="33.895"/><use xlink:href="#Y" x="170.169" y="33.895"/><use xlink:href="#Z" x="176.428" y="33.895"/><use xlink:href="#aa" x="182.687" y="33.895"/><use xlink:href="#ag" x="188.946" y="33.895"/></g><g fill="rgb(0%,0%,0%)"><use xlink:href="#ah" x="43.879" y="17.988"/><use xlink:href="#ai" x="53.47" y="17.988"/><use xlink:href="#aj" x="62.607" y="17.988"/><use xlink:href="#ai" x="76.532" y="17.988"/><use xlink:href="#ak" x="85.669" y="17.988"/><use xlink:href="#al" x="89.953" y="17.988"/><use xlink:href="#am" x="98.553" y="17.988"/><use xlink:href="#an" x="104.23" y="17.988"/><use xlink:href="#ao" x="108.362" y="17.988"/><use xlink:href="#ap" x="116.206" y="17.988"/><use xlink:href="#aq" x="124.537" y="17.988"/><use xlink:href="#ar" x="127.93" y="17.988"/><use xlink:href="#as" x="139.083" y="17.988"/><use xlink:href="#at" x="146.927" y="17.988"/><use xlink:href="#am" x="153.965" y="17.988"/><use xlink:href="#ap" x="159.643" y="17.988"/><use xlink:href="#au" x="167.974" y="17.988"/><use xlink:href="#aq" x="173.802" y="17.988"/><use xlink:href="#av" x="177.195" y="17.988"/><use xlink:href="#al" x="184.855" y="17.988"/><use xlink:href="#au" x="193.455" y="17.988"/><use xlink:href="#aw" x="199.283" y="17.988"/><use xlink:href="#aq" x="208.605" y="17.988"/><use xlink:href="#at" x="211.998" y="17.988"/><use xlink:href="#ax" x="219.036" y="17.988"/><use xlink:href="#ap" x="228.358" y="17.988"/><use xlink:href="#ay" x="236.69" y="17.988"/><use xlink:href="#aw" x="245.878" y="17.988"/><use xlink:href="#an" x="255.2" y="17.988"/><use xlink:href="#ay" x="259.332" y="17.988"/><use xlink:href="#az" x="268.52" y="17.988"/></g></svg>