<svg height="398pt" viewBox="0 0 500 398" width="500pt" xmlns="http://www.w3.org/2000/svg" xmlns:xlink="http://www.w3.org/1999/xlink"><defs><style>*{stroke-linecap:butt;stroke-linejoin:round;stroke-miterlimit:100000}</style></defs><g id="figure_1"><path d="M0 398.3h500.93V0H0v398.3z" fill="none" id="patch_1"/><g id="axes_1"><path d="M47.33 370.1h446.4V24.5H47.33v345.6z" fill="none" id="patch_2"/><g id="matplotlib.axis_1"><g id="xtick_1"><g id="line2d_1"><defs><path d="M0 0v-6" id="m89f560a4ca"/></defs><use x="94.32" xlink:href="#m89f560a4ca" y="370.1"/></g><g id="line2d_2"><defs><path d="M0 0v6" id="m9362a4390e"/></defs><use x="94.32" xlink:href="#m9362a4390e" y="24.5"/></g><g id="text_1"><defs><path d="M23.5 31c-7.9 0-11.8 5.2-11.8 13.5 0 8.4 4.9 14 11.1 14 8.1 0 13-6.6 14.1-19-4.3-6.1-9.3-8.5-13.4-8.5M5.1 5.5c3.5-3.8 8.6-6.7 15.4-6.7 12.7 0 24.3 9.9 24.3 35.5 0 20.5-9.4 30.7-22 30.7C12.6 65 4 56.7 4 44.5c0-13.1 7.1-19.7 18.1-19.7 5.3 0 11 3.1 15 8.2-.3-20.4-7.9-27.4-16.9-27.4-4 0-7.9 2-10.5 5.1z" id="SourceSansPro-Regular-39"/><path d="M4 0h41.2v7.1H26.7c-3.3 0-7.2-.3-10.7-.6 15.1 15.8 26 27.7 26 39.7C42 57.5 34.7 65 22.9 65c-8.3 0-14-3.9-19.3-9.7l4.7-4.7c3.7 4.3 8.3 7.7 13.6 7.7C30 58.3 34 53.1 34 45.8 34 35.5 23.2 24 4 4.9z" id="SourceSansPro-Regular-32"/><path d="M7.9 0h36v6.8H30.7v57h-6.3c-3.5-2.1-7.7-3.7-13.5-4.7v-5.3h11.6v-47H7.9z" id="SourceSansPro-Regular-31"/></defs><g transform="matrix(.12 0 0 -.12 82.4 388.65)"><use xlink:href="#SourceSansPro-Regular-31"/><use x="49.7" xlink:href="#SourceSansPro-Regular-39"/><use x="99.4" xlink:href="#SourceSansPro-Regular-39"/><use x="149.1" xlink:href="#SourceSansPro-Regular-32"/></g></g></g><g id="xtick_2"><use x="164.81" xlink:href="#m89f560a4ca" y="370.1" id="line2d_3"/><use x="164.81" xlink:href="#m9362a4390e" y="24.5" id="line2d_4"/><g id="text_2"><defs><path d="M17.7 0h8.5c1.1 24.9 4.2 39.4 19.3 58.7v5.1H4.4v-7.1h31.8C23.6 39.2 18.8 24 17.7 0" id="SourceSansPro-Regular-37"/></defs><g transform="matrix(.12 0 0 -.12 152.88 388.65)"><use xlink:href="#SourceSansPro-Regular-31"/><use x="49.7" xlink:href="#SourceSansPro-Regular-39"/><use x="99.4" xlink:href="#SourceSansPro-Regular-39"/><use x="149.1" xlink:href="#SourceSansPro-Regular-37"/></g></g></g><g id="xtick_3"><use x="235.29" xlink:href="#m89f560a4ca" y="370.1" id="line2d_5"/><use x="235.29" xlink:href="#m9362a4390e" y="24.5" id="line2d_6"/><g id="text_3"><defs><path d="M24.9-1.2c12.7 0 20.4 11.9 20.4 33.3S37.6 65 24.9 65C12.1 65 4.4 53.5 4.4 32.1S12.1-1.2 24.9-1.2m0 6.6c-7.5 0-12.5 8-12.5 26.7s5 26.3 12.5 26.3c7.4 0 12.4-7.6 12.4-26.3 0-18.7-5-26.7-12.4-26.7" id="SourceSansPro-Regular-30"/></defs><g transform="matrix(.12 0 0 -.12 223.36 388.65)"><use xlink:href="#SourceSansPro-Regular-32"/><use x="49.7" xlink:href="#SourceSansPro-Regular-30"/><use x="99.4" xlink:href="#SourceSansPro-Regular-30"/><use x="149.1" xlink:href="#SourceSansPro-Regular-31"/></g></g></g><g id="xtick_4"><use x="305.78" xlink:href="#m89f560a4ca" y="370.1" id="line2d_7"/><use x="305.78" xlink:href="#m9362a4390e" y="24.5" id="line2d_8"/><g id="text_4"><defs><path d="M2.5 7.5c4.4-4.4 10.7-8.7 20.9-8.7 11.1 0 21.5 7.8 21.5 21.6s-8.9 20-19.8 20c-3.9 0-6.8-1-9.8-2.6L17 56.7h24.7v7.1H9.8L7.7 33.1l4.4-2.8c3.8 2.5 6.5 3.9 10.9 3.9 8.2 0 13.6-5.2 13.6-14 0-8.9-6.2-14.6-14-14.6-7.5 0-12.3 3.5-16.1 7.3z" id="SourceSansPro-Regular-35"/></defs><g transform="matrix(.12 0 0 -.12 293.85 388.65)"><use xlink:href="#SourceSansPro-Regular-32"/><use x="49.7" xlink:href="#SourceSansPro-Regular-30"/><use x="99.4" xlink:href="#SourceSansPro-Regular-30"/><use x="149.1" xlink:href="#SourceSansPro-Regular-35"/></g></g></g><g id="xtick_5"><use x="376.26" xlink:href="#m89f560a4ca" y="370.1" id="line2d_9"/><use x="376.26" xlink:href="#m9362a4390e" y="24.5" id="line2d_10"/><g transform="matrix(.12 0 0 -.12 364.33 388.65)" id="text_5"><use xlink:href="#SourceSansPro-Regular-32"/><use x="49.7" xlink:href="#SourceSansPro-Regular-30"/><use x="99.4" xlink:href="#SourceSansPro-Regular-31"/><use x="149.1" xlink:href="#SourceSansPro-Regular-30"/></g></g><g id="xtick_6"><use x="446.74" xlink:href="#m89f560a4ca" y="370.1" id="line2d_11"/><use x="446.74" xlink:href="#m9362a4390e" y="24.5" id="line2d_12"/><g transform="matrix(.12 0 0 -.12 434.82 388.65)" id="text_6"><use xlink:href="#SourceSansPro-Regular-32"/><use x="49.7" xlink:href="#SourceSansPro-Regular-30"/><use x="99.4" xlink:href="#SourceSansPro-Regular-31"/><use x="149.1" xlink:href="#SourceSansPro-Regular-35"/></g></g></g><g id="matplotlib.axis_2"><g id="ytick_1"><path clip-path="url(#pac9ccbc784)" d="M47.33 370.1h446.4" fill="none" stroke="#8fa7bf" stroke-linecap="square" stroke-width=".5" id="line2d_13"/><g id="line2d_14"><defs><path d="M0 0h6" id="m6916a12d32"/></defs><use x="47.33" xlink:href="#m6916a12d32" y="370.1"/></g><g id="line2d_15"><defs><path d="M0 0h-6" id="ma09d819beb"/></defs><use x="493.73" xlink:href="#ma09d819beb" y="370.1"/></g><use xlink:href="#SourceSansPro-Regular-30" transform="matrix(.12 0 0 -.12 31.37 373.15)" id="text_7"/></g><g id="ytick_2"><path clip-path="url(#pac9ccbc784)" d="M47.33 302.34h446.4" fill="none" stroke="#8fa7bf" stroke-linecap="square" stroke-width=".5" id="line2d_16"/><use x="47.33" xlink:href="#m6916a12d32" y="302.34" id="line2d_17"/><use x="493.73" xlink:href="#ma09d819beb" y="302.34" id="line2d_18"/><g transform="matrix(.12 0 0 -.12 25.4 305.38)" id="text_8"><use xlink:href="#SourceSansPro-Regular-31"/><use x="49.7" xlink:href="#SourceSansPro-Regular-30"/></g></g><g id="ytick_3"><path clip-path="url(#pac9ccbc784)" d="M47.33 234.57h446.4" fill="none" stroke="#8fa7bf" stroke-linecap="square" stroke-width=".5" id="line2d_19"/><use x="47.33" xlink:href="#m6916a12d32" y="234.57" id="line2d_20"/><use x="493.73" xlink:href="#ma09d819beb" y="234.57" id="line2d_21"/><g transform="matrix(.12 0 0 -.12 25.4 237.62)" id="text_9"><use xlink:href="#SourceSansPro-Regular-32"/><use x="49.7" xlink:href="#SourceSansPro-Regular-30"/></g></g><g id="ytick_4"><path clip-path="url(#pac9ccbc784)" d="M47.33 166.81h446.4" fill="none" stroke="#8fa7bf" stroke-linecap="square" stroke-width=".5" id="line2d_22"/><use x="47.33" xlink:href="#m6916a12d32" y="166.81" id="line2d_23"/><use x="493.73" xlink:href="#ma09d819beb" y="166.81" id="line2d_24"/><g id="text_10"><defs><path d="M2.6 7.8c4.3-4.7 10.8-9 21-9 11.7 0 21 6.9 21 18.2 0 8.8-6.1 14.4-13.8 16.2v.4c6.9 2.6 11.6 7.5 11.6 15.2 0 10.3-8 16.2-19.1 16.2-7.5 0-13.4-3.4-18.3-8l4.4-5.2c3.8 3.8 8.3 6.5 13.6 6.5 6.8 0 11-3.9 11-10.1 0-6.7-4.5-11.9-18.1-11.9V30c15.2 0 20.4-5.1 20.4-12.7 0-7.1-5.5-11.7-13.2-11.7-7.5 0-12.5 3.6-16.3 7.6z" id="SourceSansPro-Regular-33"/></defs><g transform="matrix(.12 0 0 -.12 25.4 169.85)"><use xlink:href="#SourceSansPro-Regular-33"/><use x="49.7" xlink:href="#SourceSansPro-Regular-30"/></g></g></g><g id="ytick_5"><path clip-path="url(#pac9ccbc784)" d="M47.33 99.05h446.4" fill="none" stroke="#8fa7bf" stroke-linecap="square" stroke-width=".5" id="line2d_25"/><use x="47.33" xlink:href="#m6916a12d32" y="99.05" id="line2d_26"/><use x="493.73" xlink:href="#ma09d819beb" y="99.05" id="line2d_27"/><g id="text_11"><defs><path d="M10.4 24.2L25.3 46c1.8 3.1 3.6 5.9 5.2 9h.4c-.2-3.4-.5-8.9-.5-12.3V24.2zm36.5 0h-8.7v39.6H29L1.7 23v-5.4h28.7V0h7.8v17.6h8.7z" id="SourceSansPro-Regular-34"/></defs><g transform="matrix(.12 0 0 -.12 25.4 102.09)"><use xlink:href="#SourceSansPro-Regular-34"/><use x="49.7" xlink:href="#SourceSansPro-Regular-30"/></g></g></g><g id="ytick_6"><path clip-path="url(#pac9ccbc784)" d="M47.33 31.28h446.4" fill="none" stroke="#8fa7bf" stroke-linecap="square" stroke-width=".5" id="line2d_28"/><use x="47.33" xlink:href="#m6916a12d32" y="31.28" id="line2d_29"/><use x="493.73" xlink:href="#ma09d819beb" y="31.28" id="line2d_30"/><g transform="matrix(.12 0 0 -.12 25.4 34.32)" id="text_12"><use xlink:href="#SourceSansPro-Regular-35"/><use x="49.7" xlink:href="#SourceSansPro-Regular-30"/></g></g><g id="text_13"><defs><path d="M21.4-17.6l5.1 2.4C18.8-2.5 15 12.6 15 27.8s3.8 30.3 11.5 43l-5.1 2.4C13.1 59.8 8.2 45.4 8.2 27.8c0-17.6 4.9-32 13.2-45.4" id="SourceSansPro-Regular-28"/><path d="M4.6 24.2C4.6 8.3 14.9-1.2 27.9-1.2c6.6 0 11.8 2.3 16 5L41 9.2c-3.6-2.3-7.5-3.8-12.1-3.8-9.3 0-15.6 6.6-16.2 17.1h32.8c.2 1.2.3 2.8.3 4.5 0 13.9-7 22.8-19.4 22.8-11.1 0-21.8-9.7-21.8-25.6m8 3.7c1 9.8 7.2 15.4 14 15.4 7.6 0 12-5.5 12-15.4z" id="SourceSansPro-Regular-65"/><path d="M8.2 0h8.2v35.2c4.9 4.9 8.3 7.5 13.3 7.5 6.4 0 9.2-3.9 9.2-13V0h8.2v30.8c0 12.4-4.6 19-14.8 19-6.7 0-11.7-3.6-16.3-8.2h-.3l-.7 7H8.2z" id="SourceSansPro-Regular-6e"/><path d="M12.4 58.6c3.2 0 5.7 2.2 5.7 5.3 0 3.2-2.5 5.3-5.7 5.3s-5.7-2.1-5.7-5.3c0-3.1 2.5-5.3 5.7-5.3M8.2 0h8.2v48.6H8.2z" id="SourceSansPro-Regular-69"/><path d="M8.2 9.8c0-7.1 2.5-11 8.7-11 2.2 0 3.6.3 4.7.8l-1.1 6.2c-.9-.2-1.3-.2-1.8-.2-1.2 0-2.3 1-2.3 3.6v62H8.2z" id="SourceSansPro-Regular-6c"/><path d="M21 0h9.7l20.8 65.6H43L32.5 30.2c-2.3-7.8-3.9-14-6.3-21.7h-.4c-2.5 7.7-4 13.9-6.4 21.7L8.9 65.6H0z" id="SourceSansPro-Regular-56"/><path d="M8.2 0h8.2v31.2c3.3 8.2 8.2 11.2 12.3 11.2 2 0 3.1-.3 4.7-.8l1.6 7.2a12 12 0 0 1-5.2 1c-5.5 0-10.5-3.9-13.8-10h-.3l-.7 8.8H8.2z" id="SourceSansPro-Regular-72"/><path d="M3.8-15.2l5.1-2.4c8.3 13.4 13.2 27.8 13.2 45.4 0 17.6-4.9 32-13.2 45.4l-5.1-2.4c7.7-12.7 11.5-27.8 11.5-43s-3.8-30.3-11.5-43" id="SourceSansPro-Regular-29"/><path d="M9.6 15c0-9.6 3.5-16.2 13.9-16.2 3 0 6.3.9 9 1.8l-1.6 6.2c-1.6-.6-3.8-1.3-5.5-1.3-5.6 0-7.5 3.4-7.5 9.4v27H31v6.7H17.9v13.6H11l-1-13.6-7.6-.5v-6.2h7.2z" id="SourceSansPro-Regular-74"/><path d="M2.8 5.5C7.4 1.7 14-1.2 20.9-1.2c11.5 0 17.8 6.6 17.8 14.5 0 9.2-7.8 12.1-14.8 14.7-5.5 2.1-10.8 3.8-10.8 8.4 0 3.7 2.8 7 8.9 7 4.3 0 7.8-1.8 11.1-4.3l3.9 5.2c-3.7 3-9 5.5-15.1 5.5-10.5 0-16.7-6-16.7-13.8 0-8.2 7.6-11.5 14.5-14 5.3-2 11.1-4.2 11.1-9.2 0-4.2-3.2-7.6-9.6-7.6-5.8 0-10.1 2.4-14.3 5.8z" id="SourceSansPro-Regular-73"/><path d="M8.2 0h8.2v35.2c4.5 5 8.6 7.5 12.2 7.5 6.2 0 9.1-3.9 9.1-13V0h8.2v35.2c4.5 5 8.4 7.5 12.2 7.5 6.1 0 9-3.9 9-13V0h8.2v30.8c0 12.4-4.8 19-14.8 19-5.9 0-10.9-3.8-16-9.3-2 5.8-6 9.3-13.4 9.3-5.8 0-10.9-3.6-15.1-8.2h-.3l-.7 7H8.2z" id="SourceSansPro-Regular-6d"/><path d="M4.6 24.2C4.6 8.1 15.2-1.2 27.1-1.2s22.5 9.3 22.5 25.4c0 16.3-10.6 25.6-22.5 25.6S4.6 40.5 4.6 24.2m8.5 0c0 11.2 5.7 18.8 14 18.8 8.4 0 14-7.6 14-18.8 0-11.1-5.6-18.6-14-18.6-8.3 0-14 7.5-14 18.6" id="SourceSansPro-Regular-6f"/></defs><g transform="matrix(0 -.144 -.144 0 17.45 246.3)"><use xlink:href="#SourceSansPro-Regular-56"/><use x="51.5" xlink:href="#SourceSansPro-Regular-6f"/><use x="105.7" xlink:href="#SourceSansPro-Regular-74"/><use x="139.5" xlink:href="#SourceSansPro-Regular-65"/><use x="189.1" xlink:href="#SourceSansPro-Regular-72"/><use x="223.8" xlink:href="#SourceSansPro-Regular-73"/><use x="265.7" xlink:href="#SourceSansPro-Regular-20"/><use x="285.9" xlink:href="#SourceSansPro-Regular-28"/><use x="316.2" xlink:href="#SourceSansPro-Regular-6d"/><use x="399.1" xlink:href="#SourceSansPro-Regular-69"/><use x="423.7" xlink:href="#SourceSansPro-Regular-6c"/><use x="449.2" xlink:href="#SourceSansPro-Regular-6c"/><use x="474.7" xlink:href="#SourceSansPro-Regular-69"/><use x="499.3" xlink:href="#SourceSansPro-Regular-6f"/><use x="553.5" xlink:href="#SourceSansPro-Regular-6e"/><use x="608.2" xlink:href="#SourceSansPro-Regular-73"/><use x="650.1" xlink:href="#SourceSansPro-Regular-29"/></g></g></g><path clip-path="url(#pac9ccbc784)" d="M76.7 370.1h35.24V76.98H76.7z" fill="#d7dbdf" id="patch_3"/><path clip-path="url(#pac9ccbc784)" d="M147.19 370.1h35.24V73.55h-35.24z" fill="#d7dbdf" id="patch_4"/><path clip-path="url(#pac9ccbc784)" d="M217.67 370.1h35.24V69.38h-35.24z" fill="#d7dbdf" id="patch_5"/><path clip-path="url(#pac9ccbc784)" d="M288.16 370.1h35.24V70.57h-35.24z" fill="#d7dbdf" id="patch_6"/><path clip-path="url(#pac9ccbc784)" d="M358.64 370.1h35.24V61.05h-35.24z" fill="#d7dbdf" id="patch_7"/><path clip-path="url(#pac9ccbc784)" d="M429.12 370.1h35.25V55.85h-35.25z" fill="#d7dbdf" id="patch_8"/><path clip-path="url(#pac9ccbc784)" d="M76.7 370.1h35.24V142.35H76.7z" fill="#afb7bf" id="patch_9"/><path clip-path="url(#pac9ccbc784)" d="M147.19 370.1h35.24V158.07h-35.24z" fill="#afb7bf" id="patch_10"/><path clip-path="url(#pac9ccbc784)" d="M217.67 370.1h35.24V191.48h-35.24z" fill="#afb7bf" id="patch_11"/><path clip-path="url(#pac9ccbc784)" d="M288.16 370.1h35.24V186.2h-35.24z" fill="#afb7bf" id="patch_12"/><path clip-path="url(#pac9ccbc784)" d="M358.64 370.1h35.24V168.91h-35.24z" fill="#afb7bf" id="patch_13"/><path clip-path="url(#pac9ccbc784)" d="M429.12 370.1h35.25V162.07h-35.25z" fill="#afb7bf" id="patch_14"/><path clip-path="url(#pac9ccbc784)" d="M76.7 370.1h35.24v-78.33H76.7z" fill="#bd3338" id="patch_15"/><path clip-path="url(#pac9ccbc784)" d="M147.19 370.1h35.24v-91.6h-35.24z" fill="#bd3338" id="patch_16"/><path clip-path="url(#pac9ccbc784)" d="M217.67 370.1h35.24v-72.64h-35.24z" fill="#bd3338" id="patch_17"/><path clip-path="url(#pac9ccbc784)" d="M288.16 370.1h35.24v-64.7h-35.24z" fill="#bd3338" id="patch_18"/><path clip-path="url(#pac9ccbc784)" d="M358.64 370.1h35.24v-58.34h-35.24z" fill="#bd3338" id="patch_19"/><path clip-path="url(#pac9ccbc784)" d="M429.12 370.1h35.25v-63.36h-35.25z" fill="#bd3338" id="patch_20"/><g id="text_14"><defs><path d="M7.5 17.8c0-12.4 4.6-19 14.9-19 6.7 0 11.5 3.5 16 8.8h.3l.7-7.6h6.8v48.6H38V14.1c-4.6-5.7-8.1-8.2-13.1-8.2-6.4 0-9.1 3.9-9.1 13v29.7H7.5z" id="SourceSansPro-Regular-75"/><path d="M18.7 0h9.6l17.2 48.6h-8.1L28.2 21c-1.4-4.8-3-9.7-4.4-14.3h-.4c-1.5 4.6-3.1 9.5-4.5 14.3L9.7 48.6H1.2z" id="SourceSansPro-Regular-76"/><path d="M6.7-17c8.1 3.4 13.1 10.1 13.1 18.7 0 6-2.6 9.7-6.9 9.7-3.3 0-6.1-2.2-6.1-5.8 0-3.7 2.7-5.7 5.9-5.7.3 0 .7 0 1 .1 0-5.4-3.4-9.7-9-12.2z" id="SourceSansPro-Regular-2c"/><path d="M4.6 24.2c0-16.1 9.9-25.4 22.8-25.4 5.8 0 11.4 2.4 15.8 6.3l-3.7 5.4c-2.9-2.6-6.8-4.9-11.4-4.9-8.9 0-15 7.5-15 18.6 0 11.2 6.4 18.8 15.2 18.8 3.9 0 6.9-1.8 9.8-4.3l4.1 5.3c-3.3 3.1-7.8 5.8-14.2 5.8-12.5 0-23.4-9.3-23.4-25.6" id="SourceSansPro-Regular-63"/><path d="M4.1 22.3h39.8V28H4.1z" id="SourceSansPro-Regular-2013"/><path d="M8.2 0h6.6l.7 4.8h.3c4.3-3.8 9.4-6 13.9-6 11.1 0 21 9.7 21 26.3 0 15-6.7 24.7-19.3 24.7-5.4 0-10.8-2.9-15.2-6.8l.2 8.8v19.4H8.2zm8.2 10.8v25.5c4.6 4.3 8.9 6.6 13 6.6 9.2 0 12.8-7.2 12.8-17.9 0-12-5.9-19.3-13.9-19.3-3.2 0-7.6 1.4-11.9 5.1" id="SourceSansPro-Regular-62"/><path d="M8.7 27.1C8.7 6 18.9-1.2 32.3-1.2c13.4 0 23.5 7.2 23.5 28.3v38.5h-8V26.9c0-15.8-6.8-20.8-15.5-20.8-8.6 0-15.3 5-15.3 20.8v38.7H8.7z" id="SourceSansPro-Regular-55"/><path d="M4.7 24.2C4.7 8 12.6-1.2 24.8-1.2c5.7 0 10.9 3.2 14.7 6.9h.3l.7-5.7h6.8v71.2H39V52.5l.4-8.3c-4.3 3.5-8 5.6-13.6 5.6-11.1 0-21.1-9.8-21.1-25.6m8.5.1c0 11.1 6.2 18.6 14 18.6 4 0 7.7-1.4 11.8-5.1V12.4c-4-4.5-7.9-6.7-12.4-6.7-8.5 0-13.4 7-13.4 18.6" id="SourceSansPro-Regular-64"/><path d="M9 0h37v7.1H17.3v58.5H9z" id="SourceSansPro-Regular-4c"/><path d="M9 0h8.3v20.8l11.3 13.3L48.2 0h9.3L33.8 40.6l20.5 25h-9.4L17.6 32.7h-.3v32.9H9z" id="SourceSansPro-Regular-4b"/><path d="M5.8 12.6c0-8.7 6.1-13.8 14.3-13.8 6 0 11.4 3.2 16.1 7h.2l.7-5.8h6.8v29.8c0 12.1-5 20-16.9 20-7.8 0-14.6-3.4-19.1-6.3l3.3-5.7C15 40.4 20 43 25.7 43c7.9 0 10-6 10-12.2C15 28.5 5.8 23.2 5.8 12.6m8.1.6c0 6.2 5.5 10.2 21.8 12.2V11.9C31 7.7 27.1 5.4 22.4 5.4c-4.8 0-8.5 2.3-8.5 7.8" id="SourceSansPro-Regular-61"/></defs><g transform="matrix(.1728 0 0 -.1728 84.95 19.5)"><use xlink:href="#SourceSansPro-Regular-55"/><use x="64.5" xlink:href="#SourceSansPro-Regular-4b"/><use x="122.4" xlink:href="#SourceSansPro-Regular-20"/><use x="142.6" xlink:href="#SourceSansPro-Regular-65"/><use x="192.2" xlink:href="#SourceSansPro-Regular-6c"/><use x="217.7" xlink:href="#SourceSansPro-Regular-65"/><use x="267.3" xlink:href="#SourceSansPro-Regular-63"/><use x="312.9" xlink:href="#SourceSansPro-Regular-74"/><use x="346.7" xlink:href="#SourceSansPro-Regular-6f"/><use x="400.9" xlink:href="#SourceSansPro-Regular-72"/><use x="435.6" xlink:href="#SourceSansPro-Regular-61"/><use x="486.8" xlink:href="#SourceSansPro-Regular-74"/><use x="520.6" xlink:href="#SourceSansPro-Regular-65"/><use x="570.2" xlink:href="#SourceSansPro-Regular-2c"/><use x="595.1" xlink:href="#SourceSansPro-Regular-20"/><use x="615.3" xlink:href="#SourceSansPro-Regular-74"/><use x="649.1" xlink:href="#SourceSansPro-Regular-75"/><use x="703.5" xlink:href="#SourceSansPro-Regular-72"/><use x="738.2" xlink:href="#SourceSansPro-Regular-6e"/><use x="792.9" xlink:href="#SourceSansPro-Regular-6f"/><use x="847.1" xlink:href="#SourceSansPro-Regular-75"/><use x="901.5" xlink:href="#SourceSansPro-Regular-74"/><use x="935.3" xlink:href="#SourceSansPro-Regular-20"/><use x="955.5" xlink:href="#SourceSansPro-Regular-61"/><use x="1006.7" xlink:href="#SourceSansPro-Regular-6e"/><use x="1061.4" xlink:href="#SourceSansPro-Regular-64"/><use x="1116.9" xlink:href="#SourceSansPro-Regular-20"/><use x="1137.1" xlink:href="#SourceSansPro-Regular-4c"/><use x="1185.7" xlink:href="#SourceSansPro-Regular-61"/><use x="1236.9" xlink:href="#SourceSansPro-Regular-62"/><use x="1292.4" xlink:href="#SourceSansPro-Regular-6f"/><use x="1346.6" xlink:href="#SourceSansPro-Regular-75"/><use x="1401" xlink:href="#SourceSansPro-Regular-72"/><use x="1435.7" xlink:href="#SourceSansPro-Regular-20"/><use x="1455.9" xlink:href="#SourceSansPro-Regular-76"/><use x="1502.6" xlink:href="#SourceSansPro-Regular-6f"/><use x="1556.8" xlink:href="#SourceSansPro-Regular-74"/><use x="1590.6" xlink:href="#SourceSansPro-Regular-65"/><use x="1640.2" xlink:href="#SourceSansPro-Regular-73"/><use x="1682.1" xlink:href="#SourceSansPro-Regular-20"/><use x="1702.3" xlink:href="#SourceSansPro-Regular-31"/><use x="1752" xlink:href="#SourceSansPro-Regular-39"/><use x="1801.7" xlink:href="#SourceSansPro-Regular-39"/><use x="1851.4" xlink:href="#SourceSansPro-Regular-32"/><use x="1901.1" xlink:href="#SourceSansPro-Regular-2013"/><use x="1949.1" xlink:href="#SourceSansPro-Regular-32"/><use x="1998.8" xlink:href="#SourceSansPro-Regular-30"/><use x="2048.5" xlink:href="#SourceSansPro-Regular-31"/><use x="2098.2" xlink:href="#SourceSansPro-Regular-35"/></g></g></g></g><defs><clipPath id="pac9ccbc784"><path d="M47.33 24.5h446.4v345.6H47.33z"/></clipPath></defs></svg>