<svg height="406pt" viewBox="0 0 500 406" width="500pt" xmlns="http://www.w3.org/2000/svg" xmlns:xlink="http://www.w3.org/1999/xlink"><defs><style>*{stroke-linecap:butt;stroke-linejoin:round;stroke-miterlimit:100000}</style></defs><g id="figure_1"><path d="M0 406.95h500.93V0H0v406.95z" fill="none" id="patch_1"/><g id="axes_1"><path d="M47.33 378.74h446.4V33.14H47.33v345.6z" fill="none" id="patch_2"/><g id="matplotlib.axis_1"><g id="xtick_1"><g id="line2d_1"><defs><path d="M0 0v-6" id="m7403b1685b"/></defs><use x="103.13" xlink:href="#m7403b1685b" y="378.74"/></g><g id="line2d_2"><defs><path d="M0 0v6" id="mf11559f33c"/></defs><use x="103.13" xlink:href="#mf11559f33c" y="33.14"/></g><g id="text_1"><defs><path d="M17.7 0h8.5c1.1 24.9 4.2 39.4 19.3 58.7v5.1H4.4v-7.1h31.8C23.6 39.2 18.8 24 17.7 0" id="SourceSansPro-Regular-37"/><path d="M23.5 31c-7.9 0-11.8 5.2-11.8 13.5 0 8.4 4.9 14 11.1 14 8.1 0 13-6.6 14.1-19-4.3-6.1-9.3-8.5-13.4-8.5M5.1 5.5c3.5-3.8 8.6-6.7 15.4-6.7 12.7 0 24.3 9.9 24.3 35.5 0 20.5-9.4 30.7-22 30.7C12.6 65 4 56.7 4 44.5c0-13.1 7.1-19.7 18.1-19.7 5.3 0 11 3.1 15 8.2-.3-20.4-7.9-27.4-16.9-27.4-4 0-7.9 2-10.5 5.1z" id="SourceSansPro-Regular-39"/><path d="M7.9 0h36v6.8H30.7v57h-6.3c-3.5-2.1-7.7-3.7-13.5-4.7v-5.3h11.6v-47H7.9z" id="SourceSansPro-Regular-31"/></defs><g transform="matrix(.12 0 0 -.12 91.2 397.29)"><use xlink:href="#SourceSansPro-Regular-31"/><use x="49.7" xlink:href="#SourceSansPro-Regular-39"/><use x="99.4" xlink:href="#SourceSansPro-Regular-39"/><use x="149.1" xlink:href="#SourceSansPro-Regular-37"/></g></g></g><g id="xtick_2"><use x="186.83" xlink:href="#m7403b1685b" y="378.74" id="line2d_3"/><use x="186.83" xlink:href="#mf11559f33c" y="33.14" id="line2d_4"/><g id="text_2"><defs><path d="M24.9-1.2c12.7 0 20.4 11.9 20.4 33.3S37.6 65 24.9 65C12.1 65 4.4 53.5 4.4 32.1S12.1-1.2 24.9-1.2m0 6.6c-7.5 0-12.5 8-12.5 26.7s5 26.3 12.5 26.3c7.4 0 12.4-7.6 12.4-26.3 0-18.7-5-26.7-12.4-26.7" id="SourceSansPro-Regular-30"/><path d="M4 0h41.2v7.1H26.7c-3.3 0-7.2-.3-10.7-.6 15.1 15.8 26 27.7 26 39.7C42 57.5 34.7 65 22.9 65c-8.3 0-14-3.9-19.3-9.7l4.7-4.7c3.7 4.3 8.3 7.7 13.6 7.7C30 58.3 34 53.1 34 45.8 34 35.5 23.2 24 4 4.9z" id="SourceSansPro-Regular-32"/></defs><g transform="matrix(.12 0 0 -.12 174.9 397.29)"><use xlink:href="#SourceSansPro-Regular-32"/><use x="49.7" xlink:href="#SourceSansPro-Regular-30"/><use x="99.4" xlink:href="#SourceSansPro-Regular-30"/><use x="149.1" xlink:href="#SourceSansPro-Regular-31"/></g></g></g><g id="xtick_3"><use x="270.53" xlink:href="#m7403b1685b" y="378.74" id="line2d_5"/><use x="270.53" xlink:href="#mf11559f33c" y="33.14" id="line2d_6"/><g id="text_3"><defs><path d="M2.5 7.5c4.4-4.4 10.7-8.7 20.9-8.7 11.1 0 21.5 7.8 21.5 21.6s-8.9 20-19.8 20c-3.9 0-6.8-1-9.8-2.6L17 56.7h24.7v7.1H9.8L7.7 33.1l4.4-2.8c3.8 2.5 6.5 3.9 10.9 3.9 8.2 0 13.6-5.2 13.6-14 0-8.9-6.2-14.6-14-14.6-7.5 0-12.3 3.5-16.1 7.3z" id="SourceSansPro-Regular-35"/></defs><g transform="matrix(.12 0 0 -.12 258.6 397.29)"><use xlink:href="#SourceSansPro-Regular-32"/><use x="49.7" xlink:href="#SourceSansPro-Regular-30"/><use x="99.4" xlink:href="#SourceSansPro-Regular-30"/><use x="149.1" xlink:href="#SourceSansPro-Regular-35"/></g></g></g><g id="xtick_4"><use x="354.23" xlink:href="#m7403b1685b" y="378.74" id="line2d_7"/><use x="354.23" xlink:href="#mf11559f33c" y="33.14" id="line2d_8"/><g transform="matrix(.12 0 0 -.12 342.3 397.29)" id="text_4"><use xlink:href="#SourceSansPro-Regular-32"/><use x="49.7" xlink:href="#SourceSansPro-Regular-30"/><use x="99.4" xlink:href="#SourceSansPro-Regular-31"/><use x="149.1" xlink:href="#SourceSansPro-Regular-30"/></g></g><g id="xtick_5"><use x="437.93" xlink:href="#m7403b1685b" y="378.74" id="line2d_9"/><use x="437.93" xlink:href="#mf11559f33c" y="33.14" id="line2d_10"/><g transform="matrix(.12 0 0 -.12 426 397.29)" id="text_5"><use xlink:href="#SourceSansPro-Regular-32"/><use x="49.7" xlink:href="#SourceSansPro-Regular-30"/><use x="99.4" xlink:href="#SourceSansPro-Regular-31"/><use x="149.1" xlink:href="#SourceSansPro-Regular-35"/></g></g></g><g id="matplotlib.axis_2"><g id="ytick_1"><path clip-path="url(#pfd7a52c957)" d="M47.33 378.74h446.4" fill="none" stroke="#8fa7bf" stroke-linecap="square" stroke-width=".5" id="line2d_11"/><g id="line2d_12"><defs><path d="M0 0h6" id="meec668017c"/></defs><use x="47.33" xlink:href="#meec668017c" y="378.74"/></g><g id="line2d_13"><defs><path d="M0 0h-6" id="m7d07efd595"/></defs><use x="493.73" xlink:href="#m7d07efd595" y="378.74"/></g><g id="text_6"><defs><path d="M3.4 29.9h42.9v6.2H3.4z" id="SourceSansPro-Regular-2212"/><path d="M26.8 5.3c-8.1 0-13 6.7-14 19.1 4.3 6 9.3 8.4 13.3 8.4 7.9 0 11.8-5.2 11.8-13.5 0-8.4-4.8-14-11.1-14m17.7 52.9C40.9 62.1 36 65 29.1 65 16.4 65 4.8 55.1 4.8 29.5c0-20.5 9.5-30.7 22-30.7 10.3 0 18.9 8.3 18.9 20.5 0 13.1-7.2 19.7-18.2 19.7-5.2 0-10.9-3.1-14.9-8 .4 20.2 7.9 27.1 16.8 27.1 4 0 7.9-1.9 10.5-5z" id="SourceSansPro-Regular-36"/></defs><g transform="matrix(.12 0 0 -.12 25.4 381.79)"><use xlink:href="#SourceSansPro-Regular-2212"/><use x="49.7" xlink:href="#SourceSansPro-Regular-36"/></g></g></g><g id="ytick_2"><path clip-path="url(#pfd7a52c957)" d="M47.33 321.14h446.4" fill="none" stroke="#8fa7bf" stroke-linecap="square" stroke-width=".5" id="line2d_14"/><use x="47.33" xlink:href="#meec668017c" y="321.14" id="line2d_15"/><use x="493.73" xlink:href="#m7d07efd595" y="321.14" id="line2d_16"/><g id="text_7"><defs><path d="M10.4 24.2L25.3 46c1.8 3.1 3.6 5.9 5.2 9h.4c-.2-3.4-.5-8.9-.5-12.3V24.2zm36.5 0h-8.7v39.6H29L1.7 23v-5.4h28.7V0h7.8v17.6h8.7z" id="SourceSansPro-Regular-34"/></defs><g transform="matrix(.12 0 0 -.12 25.4 324.19)"><use xlink:href="#SourceSansPro-Regular-2212"/><use x="49.7" xlink:href="#SourceSansPro-Regular-34"/></g></g></g><g id="ytick_3"><path clip-path="url(#pfd7a52c957)" d="M47.33 263.54h446.4" fill="none" stroke="#8fa7bf" stroke-linecap="square" stroke-width=".5" id="line2d_17"/><use x="47.33" xlink:href="#meec668017c" y="263.54" id="line2d_18"/><use x="493.73" xlink:href="#m7d07efd595" y="263.54" id="line2d_19"/><g transform="matrix(.12 0 0 -.12 25.4 266.59)" id="text_8"><use xlink:href="#SourceSansPro-Regular-2212"/><use x="49.7" xlink:href="#SourceSansPro-Regular-32"/></g></g><g id="ytick_4"><path clip-path="url(#pfd7a52c957)" d="M47.33 205.94h446.4" fill="none" stroke="#8fa7bf" stroke-linecap="square" stroke-width=".5" id="line2d_20"/><use x="47.33" xlink:href="#meec668017c" y="205.94" id="line2d_21"/><use x="493.73" xlink:href="#m7d07efd595" y="205.94" id="line2d_22"/><use xlink:href="#SourceSansPro-Regular-30" transform="matrix(.12 0 0 -.12 31.37 208.99)" id="text_9"/></g><g id="ytick_5"><path clip-path="url(#pfd7a52c957)" d="M47.33 148.34h446.4" fill="none" stroke="#8fa7bf" stroke-linecap="square" stroke-width=".5" id="line2d_23"/><use x="47.33" xlink:href="#meec668017c" y="148.34" id="line2d_24"/><use x="493.73" xlink:href="#m7d07efd595" y="148.34" id="line2d_25"/><use xlink:href="#SourceSansPro-Regular-32" transform="matrix(.12 0 0 -.12 31.37 151.39)" id="text_10"/></g><g id="ytick_6"><path clip-path="url(#pfd7a52c957)" d="M47.33 90.74h446.4" fill="none" stroke="#8fa7bf" stroke-linecap="square" stroke-width=".5" id="line2d_26"/><use x="47.33" xlink:href="#meec668017c" y="90.74" id="line2d_27"/><use x="493.73" xlink:href="#m7d07efd595" y="90.74" id="line2d_28"/><use xlink:href="#SourceSansPro-Regular-34" transform="matrix(.12 0 0 -.12 31.37 93.79)" id="text_11"/></g><g id="ytick_7"><path clip-path="url(#pfd7a52c957)" d="M47.33 33.14h446.4" fill="none" stroke="#8fa7bf" stroke-linecap="square" stroke-width=".5" id="line2d_29"/><use x="47.33" xlink:href="#meec668017c" y="33.14" id="line2d_30"/><use x="493.73" xlink:href="#m7d07efd595" y="33.14" id="line2d_31"/><use xlink:href="#SourceSansPro-Regular-36" transform="matrix(.12 0 0 -.12 31.37 36.19)" id="text_12"/></g><g id="text_13"><defs><path d="M21.4-17.6l5.1 2.4C18.8-2.5 15 12.6 15 27.8s3.8 30.3 11.5 43l-5.1 2.4C13.1 59.8 8.2 45.4 8.2 27.8c0-17.6 4.9-32 13.2-45.4" id="SourceSansPro-Regular-28"/><path d="M4.6 24.2C4.6 8.3 14.9-1.2 27.9-1.2c6.6 0 11.8 2.3 16 5L41 9.2c-3.6-2.3-7.5-3.8-12.1-3.8-9.3 0-15.6 6.6-16.2 17.1h32.8c.2 1.2.3 2.8.3 4.5 0 13.9-7 22.8-19.4 22.8-11.1 0-21.8-9.7-21.8-25.6m8 3.7c1 9.8 7.2 15.4 14 15.4 7.6 0 12-5.5 12-15.4z" id="SourceSansPro-Regular-65"/><path d="M8.2 0h8.2v35.2c4.9 4.9 8.3 7.5 13.3 7.5 6.4 0 9.2-3.9 9.2-13V0h8.2v30.8c0 12.4-4.6 19-14.8 19-6.7 0-11.7-3.6-16.3-8.2h-.3l-.7 7H8.2z" id="SourceSansPro-Regular-6e"/><path d="M12.4 58.6c3.2 0 5.7 2.2 5.7 5.3 0 3.2-2.5 5.3-5.7 5.3s-5.7-2.1-5.7-5.3c0-3.1 2.5-5.3 5.7-5.3M8.2 0h8.2v48.6H8.2z" id="SourceSansPro-Regular-69"/><path d="M8.2 9.8c0-7.1 2.5-11 8.7-11 2.2 0 3.6.3 4.7.8l-1.1 6.2c-.9-.2-1.3-.2-1.8-.2-1.2 0-2.3 1-2.3 3.6v62H8.2z" id="SourceSansPro-Regular-6c"/><path d="M21 0h9.7l20.8 65.6H43L32.5 30.2c-2.3-7.8-3.9-14-6.3-21.7h-.4c-2.5 7.7-4 13.9-6.4 21.7L8.9 65.6H0z" id="SourceSansPro-Regular-56"/><path d="M3.8-15.2l5.1-2.4c8.3 13.4 13.2 27.8 13.2 45.4 0 17.6-4.9 32-13.2 45.4l-5.1-2.4c7.7-12.7 11.5-27.8 11.5-43s-3.8-30.3-11.5-43" id="SourceSansPro-Regular-29"/><path d="M9.6 15c0-9.6 3.5-16.2 13.9-16.2 3 0 6.3.9 9 1.8l-1.6 6.2c-1.6-.6-3.8-1.3-5.5-1.3-5.6 0-7.5 3.4-7.5 9.4v27H31v6.7H17.9v13.6H11l-1-13.6-7.6-.5v-6.2h7.2z" id="SourceSansPro-Regular-74"/><path d="M2.8 5.5C7.4 1.7 14-1.2 20.9-1.2c11.5 0 17.8 6.6 17.8 14.5 0 9.2-7.8 12.1-14.8 14.7-5.5 2.1-10.8 3.8-10.8 8.4 0 3.7 2.8 7 8.9 7 4.3 0 7.8-1.8 11.1-4.3l3.9 5.2c-3.7 3-9 5.5-15.1 5.5-10.5 0-16.7-6-16.7-13.8 0-8.2 7.6-11.5 14.5-14 5.3-2 11.1-4.2 11.1-9.2 0-4.2-3.2-7.6-9.6-7.6-5.8 0-10.1 2.4-14.3 5.8z" id="SourceSansPro-Regular-73"/><path d="M8.2 0h8.2v35.2c4.5 5 8.6 7.5 12.2 7.5 6.2 0 9.1-3.9 9.1-13V0h8.2v35.2c4.5 5 8.4 7.5 12.2 7.5 6.1 0 9-3.9 9-13V0h8.2v30.8c0 12.4-4.8 19-14.8 19-5.9 0-10.9-3.8-16-9.3-2 5.8-6 9.3-13.4 9.3-5.8 0-10.9-3.6-15.1-8.2h-.3l-.7 7H8.2z" id="SourceSansPro-Regular-6d"/><path d="M4.6 24.2C4.6 8.1 15.2-1.2 27.1-1.2s22.5 9.3 22.5 25.4c0 16.3-10.6 25.6-22.5 25.6S4.6 40.5 4.6 24.2m8.5 0c0 11.2 5.7 18.8 14 18.8 8.4 0 14-7.6 14-18.8 0-11.1-5.6-18.6-14-18.6-8.3 0-14 7.5-14 18.6" id="SourceSansPro-Regular-6f"/></defs><g transform="matrix(0 -.144 -.144 0 17.45 252.43)"><use xlink:href="#SourceSansPro-Regular-56"/><use x="51.5" xlink:href="#SourceSansPro-Regular-6f"/><use x="105.7" xlink:href="#SourceSansPro-Regular-74"/><use x="139.5" xlink:href="#SourceSansPro-Regular-65"/><use x="189.1" xlink:href="#SourceSansPro-Regular-73"/><use x="231" xlink:href="#SourceSansPro-Regular-20"/><use x="251.2" xlink:href="#SourceSansPro-Regular-28"/><use x="281.5" xlink:href="#SourceSansPro-Regular-6d"/><use x="364.4" xlink:href="#SourceSansPro-Regular-69"/><use x="389" xlink:href="#SourceSansPro-Regular-6c"/><use x="414.5" xlink:href="#SourceSansPro-Regular-6c"/><use x="440" xlink:href="#SourceSansPro-Regular-69"/><use x="464.6" xlink:href="#SourceSansPro-Regular-6f"/><use x="518.8" xlink:href="#SourceSansPro-Regular-6e"/><use x="573.5" xlink:href="#SourceSansPro-Regular-73"/><use x="615.4" xlink:href="#SourceSansPro-Regular-29"/></g></g></g><path clip-path="url(#pfd7a52c957)" d="M75.23 205.94h19.53V149.5H75.23z" fill="#bd3338" id="patch_3"/><path clip-path="url(#pfd7a52c957)" d="M158.93 286.58h19.53v-80.64h-19.53z" fill="#bd3338" id="patch_4"/><path clip-path="url(#pfd7a52c957)" d="M242.63 239.64h19.53v-33.7h-19.53z" fill="#bd3338" id="patch_5"/><path clip-path="url(#pfd7a52c957)" d="M326.33 233.02h19.53v-27.08h-19.53z" fill="#bd3338" id="patch_6"/><path clip-path="url(#pfd7a52c957)" d="M410.03 205.94h19.53v-21.3h-19.53z" fill="#bd3338" id="patch_7"/><path clip-path="url(#pfd7a52c957)" d="M94.76 329.2h19.53V205.95H94.76z" fill="#d7dbdf" id="patch_8"/><path clip-path="url(#pfd7a52c957)" d="M178.46 267.29H198v-61.35h-19.53z" fill="#d7dbdf" id="patch_9"/><path clip-path="url(#pfd7a52c957)" d="M262.16 205.94h19.53v-56.16h-19.53z" fill="#d7dbdf" id="patch_10"/><path clip-path="url(#pfd7a52c957)" d="M345.86 205.94h19.53v-100.5h-19.53z" fill="#d7dbdf" id="patch_11"/><path clip-path="url(#pfd7a52c957)" d="M429.56 205.94h19.53v-7.77h-19.53z" fill="#d7dbdf" id="patch_12"/><path clip-path="url(#pfd7a52c957)" d="M114.3 272.76h19.52v-66.82H114.3z" fill="#afb7bf" id="patch_13"/><path clip-path="url(#pfd7a52c957)" d="M198 347.93h19.52V205.94H198z" fill="#afb7bf" id="patch_14"/><path clip-path="url(#pfd7a52c957)" d="M281.7 205.94h19.52v-22.46H281.7z" fill="#afb7bf" id="patch_15"/><path clip-path="url(#pfd7a52c957)" d="M365.4 205.94h19.52V132.5H365.4z" fill="#afb7bf" id="patch_16"/><path clip-path="url(#pfd7a52c957)" d="M449.1 205.94h19.52v-29.08H449.1z" fill="#afb7bf" id="patch_17"/><g id="text_14"><defs><path d="M16.2 4.4c4.5-3.5 9-5.6 13.5-5.6 11.1 0 21 9.7 21 26.2 0 15.1-6.7 24.8-19.2 24.8-5.7 0-11.1-3.1-15.5-6.8h-.3l-.7 5.6H8.2v-69.1h8.2v16.4zm.2 6.4v25.5c4.8 4.3 8.9 6.6 13 6.6 9.2 0 12.8-7.2 12.8-17.9 0-12-5.9-19.3-13.9-19.3-3.2 0-7.5 1.4-11.9 5.1" id="SourceSansPro-Regular-70"/><path d="M7.5 17.8c0-12.4 4.6-19 14.9-19 6.7 0 11.5 3.5 16 8.8h.3l.7-7.6h6.8v48.6H38V14.1c-4.6-5.7-8.1-8.2-13.1-8.2-6.4 0-9.1 3.9-9.1 13v29.7H7.5z" id="SourceSansPro-Regular-75"/><path d="M8.2 0h8.2v35.2c4.9 4.9 8.3 7.5 13.3 7.5 6.4 0 9.2-3.9 9.2-13V0h8.2v30.8c0 12.4-4.6 19-14.8 19-6.7 0-11.6-3.6-16.2-8l.3 10v19.4H8.2z" id="SourceSansPro-Regular-68"/><path d="M4.6 24.2c0-16.1 9.9-25.4 22.8-25.4 5.8 0 11.4 2.4 15.8 6.3l-3.7 5.4c-2.9-2.6-6.8-4.9-11.4-4.9-8.9 0-15 7.5-15 18.6 0 11.2 6.4 18.8 15.2 18.8 3.9 0 6.9-1.8 9.8-4.3l4.1 5.3c-3.3 3.1-7.8 5.8-14.2 5.8-12.5 0-23.4-9.3-23.4-25.6" id="SourceSansPro-Regular-63"/><path d="M18.7 0h9.6l17.2 48.6h-8.1L28.2 21c-1.4-4.8-3-9.7-4.4-14.3h-.4c-1.5 4.6-3.1 9.5-4.5 14.3L9.7 48.6H1.2z" id="SourceSansPro-Regular-76"/><path d="M4.1 22.3h39.8V28H4.1z" id="SourceSansPro-Regular-2013"/><path d="M5.2 32.8c0-21.4 12.2-34 28.7-34 8.4 0 14.8 3.5 20 9.5l-4.7 5.1C45 8.7 40.4 6.1 34.1 6.1 21.7 6.1 13.8 16.5 13.8 33c0 16.3 8.2 26.5 20.7 26.5 5.5 0 9.7-2.4 13.1-6.1l4.7 5.3c-3.8 4.3-10 8.1-17.9 8.1-16.8 0-29.2-12.9-29.2-34" id="SourceSansPro-Regular-43"/><path d="M8.2 0h8.2v31.2c3.3 8.2 8.2 11.2 12.3 11.2 2 0 3.1-.3 4.7-.8l1.6 7.2a12 12 0 0 1-5.2 1c-5.5 0-10.5-3.9-13.8-10h-.3l-.7 8.8H8.2z" id="SourceSansPro-Regular-72"/><path d="M11.7-8.2c0 2.8 1.5 5.7 5 8.2 2.1-.6 4.4-.8 6.3-.8h8.4c6.3 0 9.8-1.5 9.8-6 0-5.1-6.1-9.9-15.4-9.9-8.8 0-14.1 3.3-14.1 8.5M4.5-9.3c0-8.4 8.2-13.1 20.1-13.1 15.1 0 24.6 7.8 24.6 16.8 0 8.1-5.7 11.6-17 11.6h-9.4c-6.6 0-8.6 2.2-8.6 5.3 0 2.7 1.4 4.3 3.1 5.8 2.2-1.1 4.9-1.7 7.3-1.7 9.9 0 17.8 6.5 17.8 16.9 0 4.1-1.7 7.8-4 10h10v6.3H31.5c-1.8.7-4.2 1.2-6.9 1.2-9.9 0-18.3-6.7-18.3-17.3 0-5.8 3.1-10.5 6.3-13.1V19c-2.5-1.7-5.3-4.9-5.3-9a9 9 0 0 1 4.3-7.9v-.4c-4.4-3-7.1-6.9-7.1-11m20.1 30.2c-5.6 0-10.3 4.5-10.3 11.6s4.6 11.3 10.3 11.3c5.7 0 10.3-4.2 10.3-11.3 0-7.1-4.7-11.6-10.3-11.6" id="SourceSansPro-Regular-67"/><path d="M5.8 12.6c0-8.7 6.1-13.8 14.3-13.8 6 0 11.4 3.2 16.1 7h.2l.7-5.8h6.8v29.8c0 12.1-5 20-16.9 20-7.8 0-14.6-3.4-19.1-6.3l3.3-5.7C15 40.4 20 43 25.7 43c7.9 0 10-6 10-12.2C15 28.5 5.8 23.2 5.8 12.6m8.1.6c0 6.2 5.5 10.2 21.8 12.2V11.9C31 7.7 27.1 5.4 22.4 5.4c-4.8 0-8.5 2.3-8.5 7.8" id="SourceSansPro-Regular-61"/></defs><g transform="matrix(.1728 0 0 -.1728 71.2 19.5)"><use xlink:href="#SourceSansPro-Regular-43"/><use x="57.1" xlink:href="#SourceSansPro-Regular-68"/><use x="111.5" xlink:href="#SourceSansPro-Regular-61"/><use x="162.7" xlink:href="#SourceSansPro-Regular-6e"/><use x="217.4" xlink:href="#SourceSansPro-Regular-67"/><use x="267.8" xlink:href="#SourceSansPro-Regular-65"/><use x="317.4" xlink:href="#SourceSansPro-Regular-20"/><use x="337.6" xlink:href="#SourceSansPro-Regular-69"/><use x="362.2" xlink:href="#SourceSansPro-Regular-6e"/><use x="416.9" xlink:href="#SourceSansPro-Regular-20"/><use x="437.1" xlink:href="#SourceSansPro-Regular-70"/><use x="492.6" xlink:href="#SourceSansPro-Regular-6f"/><use x="546.8" xlink:href="#SourceSansPro-Regular-70"/><use x="602.3" xlink:href="#SourceSansPro-Regular-75"/><use x="656.7" xlink:href="#SourceSansPro-Regular-6c"/><use x="682.2" xlink:href="#SourceSansPro-Regular-61"/><use x="733.4" xlink:href="#SourceSansPro-Regular-72"/><use x="768.1" xlink:href="#SourceSansPro-Regular-20"/><use x="788.3" xlink:href="#SourceSansPro-Regular-76"/><use x="835" xlink:href="#SourceSansPro-Regular-6f"/><use x="889.2" xlink:href="#SourceSansPro-Regular-74"/><use x="923" xlink:href="#SourceSansPro-Regular-65"/><use x="972.6" xlink:href="#SourceSansPro-Regular-20"/><use x="992.8" xlink:href="#SourceSansPro-Regular-6f"/><use x="1047" xlink:href="#SourceSansPro-Regular-6e"/><use x="1101.7" xlink:href="#SourceSansPro-Regular-20"/><use x="1121.9" xlink:href="#SourceSansPro-Regular-70"/><use x="1177.4" xlink:href="#SourceSansPro-Regular-72"/><use x="1212.1" xlink:href="#SourceSansPro-Regular-65"/><use x="1261.7" xlink:href="#SourceSansPro-Regular-76"/><use x="1308.4" xlink:href="#SourceSansPro-Regular-69"/><use x="1333" xlink:href="#SourceSansPro-Regular-6f"/><use x="1387.2" xlink:href="#SourceSansPro-Regular-75"/><use x="1441.6" xlink:href="#SourceSansPro-Regular-73"/><use x="1483.5" xlink:href="#SourceSansPro-Regular-20"/><use x="1503.7" xlink:href="#SourceSansPro-Regular-65"/><use x="1553.3" xlink:href="#SourceSansPro-Regular-6c"/><use x="1578.8" xlink:href="#SourceSansPro-Regular-65"/><use x="1628.4" xlink:href="#SourceSansPro-Regular-63"/><use x="1674" xlink:href="#SourceSansPro-Regular-74"/><use x="1707.8" xlink:href="#SourceSansPro-Regular-69"/><use x="1732.4" xlink:href="#SourceSansPro-Regular-6f"/><use x="1786.6" xlink:href="#SourceSansPro-Regular-6e"/><use x="1841.3" xlink:href="#SourceSansPro-Regular-20"/><use x="1861.5" xlink:href="#SourceSansPro-Regular-31"/><use x="1911.2" xlink:href="#SourceSansPro-Regular-39"/><use x="1960.9" xlink:href="#SourceSansPro-Regular-39"/><use x="2010.6" xlink:href="#SourceSansPro-Regular-37"/><use x="2060.3" xlink:href="#SourceSansPro-Regular-2013"/><use x="2108.3" xlink:href="#SourceSansPro-Regular-32"/><use x="2158" xlink:href="#SourceSansPro-Regular-30"/><use x="2207.7" xlink:href="#SourceSansPro-Regular-31"/><use x="2257.4" xlink:href="#SourceSansPro-Regular-35"/></g></g><g id="legend_1"><path d="M54.53 105.88h124.32V40.34H54.53z" fill="#f7f8f9" stroke="#000" id="patch_18"/><path d="M60.3 56.36h28.8V46.28H60.3z" fill="#bd3338" id="patch_19"/><g id="text_15"><defs><path d="M9 0h37v7.1H17.3v58.5H9z" id="SourceSansPro-Regular-4c"/><path d="M8.2 0h6.6l.7 4.8h.3c4.3-3.8 9.4-6 13.9-6 11.1 0 21 9.7 21 26.3 0 15-6.7 24.7-19.3 24.7-5.4 0-10.8-2.9-15.2-6.8l.2 8.8v19.4H8.2zm8.2 10.8v25.5c4.6 4.3 8.9 6.6 13 6.6 9.2 0 12.8-7.2 12.8-17.9 0-12-5.9-19.3-13.9-19.3-3.2 0-7.6 1.4-11.9 5.1" id="SourceSansPro-Regular-62"/></defs><g transform="matrix(.144 0 0 -.144 100.61 56.36)"><use xlink:href="#SourceSansPro-Regular-4c"/><use x="48.6" xlink:href="#SourceSansPro-Regular-61"/><use x="99.8" xlink:href="#SourceSansPro-Regular-62"/><use x="155.3" xlink:href="#SourceSansPro-Regular-6f"/><use x="209.5" xlink:href="#SourceSansPro-Regular-75"/><use x="263.9" xlink:href="#SourceSansPro-Regular-72"/></g></g><path d="M60.3 76.76h28.8V66.68H60.3z" fill="#d7dbdf" id="patch_20"/><g id="text_16"><defs><path d="M4.1 21.9h23v6.3h-23z" id="SourceSansPro-Regular-2d"/><path d="M9 0h7.9v34.3c0 6.9-.6 13.9-1.1 20.5h.4l7.1-13.5L47.1 0h8.6v65.6h-7.9V31.7c0-6.9.6-14.3 1-20.9h-.4l-7.1 13.6-23.7 41.2H9z" id="SourceSansPro-Regular-4e"/></defs><g transform="matrix(.144 0 0 -.144 100.61 76.76)"><use xlink:href="#SourceSansPro-Regular-4e"/><use x="64.7" xlink:href="#SourceSansPro-Regular-6f"/><use x="118.9" xlink:href="#SourceSansPro-Regular-6e"/><use x="173.6" xlink:href="#SourceSansPro-Regular-2d"/><use x="204.7" xlink:href="#SourceSansPro-Regular-4c"/><use x="253.3" xlink:href="#SourceSansPro-Regular-61"/><use x="304.5" xlink:href="#SourceSansPro-Regular-62"/><use x="360" xlink:href="#SourceSansPro-Regular-6f"/><use x="414.2" xlink:href="#SourceSansPro-Regular-75"/><use x="468.6" xlink:href="#SourceSansPro-Regular-72"/></g></g><path d="M60.3 97.17h28.8V87.09H60.3z" fill="#afb7bf" id="patch_21"/><g id="text_17"><defs><path d="M17.2 26.7l3.1 10c2.4 7.3 4.5 14.5 6.5 22.1h.4c2.1-7.6 4.2-14.8 6.6-22.1l3.1-10zM45.2 0h8.9L31.9 65.6h-9.4L.3 0h8.5l6.3 20H39z" id="SourceSansPro-Regular-41"/></defs><g transform="matrix(.144 0 0 -.144 100.61 97.17)"><use xlink:href="#SourceSansPro-Regular-41"/><use x="54.4" xlink:href="#SourceSansPro-Regular-6c"/><use x="79.9" xlink:href="#SourceSansPro-Regular-6c"/><use x="105.4" xlink:href="#SourceSansPro-Regular-20"/><use x="125.6" xlink:href="#SourceSansPro-Regular-76"/><use x="172.3" xlink:href="#SourceSansPro-Regular-6f"/><use x="226.5" xlink:href="#SourceSansPro-Regular-74"/><use x="260.3" xlink:href="#SourceSansPro-Regular-65"/><use x="309.9" xlink:href="#SourceSansPro-Regular-73"/></g></g></g></g></g><defs><clipPath id="pfd7a52c957"><path d="M47.33 33.14h446.4v345.6H47.33z"/></clipPath></defs></svg>