<?xml version="1.0" encoding="utf-8" standalone="no"?>
<!DOCTYPE svg PUBLIC "-//W3C//DTD SVG 1.1//EN"
  "http://www.w3.org/Graphics/SVG/1.1/DTD/svg11.dtd">
<!-- Created with matplotlib (http://matplotlib.org/) -->
<svg height="406pt" version="1.1" viewBox="0 0 500 406" width="500pt" xmlns="http://www.w3.org/2000/svg" xmlns:xlink="http://www.w3.org/1999/xlink">
 <defs>
  <style type="text/css">
*{stroke-linecap:butt;stroke-linejoin:round;stroke-miterlimit:100000;}
  </style>
 </defs>
 <g id="figure_1">
  <g id="patch_1">
   <path d="M 0 406.948275 
L 500.934 406.948275 
L 500.934 0 
L 0 0 
L 0 406.948275 
z
" style="fill:none;"/>
  </g>
  <g id="axes_1">
   <g id="patch_2">
    <path d="M 47.334 378.7439 
L 493.734 378.7439 
L 493.734 33.1439 
L 47.334 33.1439 
L 47.334 378.7439 
z
" style="fill:none;"/>
   </g>
   <g id="matplotlib.axis_1">
    <g id="xtick_1">
     <g id="line2d_1">
      <defs>
       <path d="M 0 0 
L 0 -6 
" id="m7403b1685b"/>
      </defs>
      <g>
       <use x="103.134" xlink:href="#m7403b1685b" y="378.7439"/>
      </g>
     </g>
     <g id="line2d_2">
      <defs>
       <path d="M 0 0 
L 0 6 
" id="mf11559f33c"/>
      </defs>
      <g>
       <use x="103.134" xlink:href="#mf11559f33c" y="33.1439"/>
      </g>
     </g>
     <g id="text_1">
      <!-- 1997 -->
      <defs>
       <path d="M 17.703125 0 
L 26.203125 0 
C 27.296875 24.90625 30.40625 39.40625 45.5 58.703125 
L 45.5 63.796875 
L 4.40625 63.796875 
L 4.40625 56.703125 
L 36.203125 56.703125 
C 23.59375 39.203125 18.796875 24 17.703125 0 
" id="SourceSansPro-Regular-37"/>
       <path d="M 23.5 31 
C 15.59375 31 11.703125 36.203125 11.703125 44.5 
C 11.703125 52.90625 16.59375 58.5 22.796875 58.5 
C 30.90625 58.5 35.796875 51.90625 36.90625 39.5 
C 32.59375 33.40625 27.59375 31 23.5 31 
M 5.09375 5.5 
C 8.59375 1.703125 13.703125 -1.203125 20.5 -1.203125 
C 33.203125 -1.203125 44.796875 8.703125 44.796875 34.296875 
C 44.796875 54.796875 35.40625 65 22.796875 65 
C 12.59375 65 4 56.703125 4 44.5 
C 4 31.40625 11.09375 24.796875 22.09375 24.796875 
C 27.40625 24.796875 33.09375 27.90625 37.09375 33 
C 36.796875 12.59375 29.203125 5.59375 20.203125 5.59375 
C 16.203125 5.59375 12.296875 7.59375 9.703125 10.703125 
z
" id="SourceSansPro-Regular-39"/>
       <path d="M 7.90625 0 
L 43.90625 0 
L 43.90625 6.796875 
L 30.703125 6.796875 
L 30.703125 63.796875 
L 24.40625 63.796875 
C 20.90625 61.703125 16.703125 60.09375 10.90625 59.09375 
L 10.90625 53.796875 
L 22.5 53.796875 
L 22.5 6.796875 
L 7.90625 6.796875 
z
" id="SourceSansPro-Regular-31"/>
      </defs>
      <g transform="translate(91.20525 397.288275)scale(0.12 -0.12)">
       <use xlink:href="#SourceSansPro-Regular-31"/>
       <use x="49.69999694824219" xlink:href="#SourceSansPro-Regular-39"/>
       <use x="99.39999389648438" xlink:href="#SourceSansPro-Regular-39"/>
       <use x="149.09999084472656" xlink:href="#SourceSansPro-Regular-37"/>
      </g>
     </g>
    </g>
    <g id="xtick_2">
     <g id="line2d_3">
      <g>
       <use x="186.834" xlink:href="#m7403b1685b" y="378.7439"/>
      </g>
     </g>
     <g id="line2d_4">
      <g>
       <use x="186.834" xlink:href="#mf11559f33c" y="33.1439"/>
      </g>
     </g>
     <g id="text_2">
      <!-- 2001 -->
      <defs>
       <path d="M 24.90625 -1.203125 
C 37.59375 -1.203125 45.296875 10.703125 45.296875 32.09375 
C 45.296875 53.5 37.59375 65 24.90625 65 
C 12.09375 65 4.40625 53.5 4.40625 32.09375 
C 4.40625 10.703125 12.09375 -1.203125 24.90625 -1.203125 
M 24.90625 5.40625 
C 17.40625 5.40625 12.40625 13.40625 12.40625 32.09375 
C 12.40625 50.796875 17.40625 58.40625 24.90625 58.40625 
C 32.296875 58.40625 37.296875 50.796875 37.296875 32.09375 
C 37.296875 13.40625 32.296875 5.40625 24.90625 5.40625 
" id="SourceSansPro-Regular-30"/>
       <path d="M 4 0 
L 45.203125 0 
L 45.203125 7.09375 
L 26.703125 7.09375 
C 23.40625 7.09375 19.5 6.796875 16 6.5 
C 31.09375 22.296875 42 34.203125 42 46.203125 
C 42 57.5 34.703125 65 22.90625 65 
C 14.59375 65 8.90625 61.09375 3.59375 55.296875 
L 8.296875 50.59375 
C 12 54.90625 16.59375 58.296875 21.90625 58.296875 
C 30 58.296875 34 53.09375 34 45.796875 
C 34 35.5 23.203125 24 4 4.90625 
z
" id="SourceSansPro-Regular-32"/>
      </defs>
      <g transform="translate(174.90525 397.288275)scale(0.12 -0.12)">
       <use xlink:href="#SourceSansPro-Regular-32"/>
       <use x="49.69999694824219" xlink:href="#SourceSansPro-Regular-30"/>
       <use x="99.39999389648438" xlink:href="#SourceSansPro-Regular-30"/>
       <use x="149.09999084472656" xlink:href="#SourceSansPro-Regular-31"/>
      </g>
     </g>
    </g>
    <g id="xtick_3">
     <g id="line2d_5">
      <g>
       <use x="270.534" xlink:href="#m7403b1685b" y="378.7439"/>
      </g>
     </g>
     <g id="line2d_6">
      <g>
       <use x="270.534" xlink:href="#mf11559f33c" y="33.1439"/>
      </g>
     </g>
     <g id="text_3">
      <!-- 2005 -->
      <defs>
       <path d="M 2.5 7.5 
C 6.90625 3.09375 13.203125 -1.203125 23.40625 -1.203125 
C 34.5 -1.203125 44.90625 6.59375 44.90625 20.40625 
C 44.90625 34.203125 36 40.40625 25.09375 40.40625 
C 21.203125 40.40625 18.296875 39.40625 15.296875 37.796875 
L 17 56.703125 
L 41.703125 56.703125 
L 41.703125 63.796875 
L 9.796875 63.796875 
L 7.703125 33.09375 
L 12.09375 30.296875 
C 15.90625 32.796875 18.59375 34.203125 23 34.203125 
C 31.203125 34.203125 36.59375 29 36.59375 20.203125 
C 36.59375 11.296875 30.40625 5.59375 22.59375 5.59375 
C 15.09375 5.59375 10.296875 9.09375 6.5 12.90625 
z
" id="SourceSansPro-Regular-35"/>
      </defs>
      <g transform="translate(258.60525 397.288275)scale(0.12 -0.12)">
       <use xlink:href="#SourceSansPro-Regular-32"/>
       <use x="49.69999694824219" xlink:href="#SourceSansPro-Regular-30"/>
       <use x="99.39999389648438" xlink:href="#SourceSansPro-Regular-30"/>
       <use x="149.09999084472656" xlink:href="#SourceSansPro-Regular-35"/>
      </g>
     </g>
    </g>
    <g id="xtick_4">
     <g id="line2d_7">
      <g>
       <use x="354.234" xlink:href="#m7403b1685b" y="378.7439"/>
      </g>
     </g>
     <g id="line2d_8">
      <g>
       <use x="354.234" xlink:href="#mf11559f33c" y="33.1439"/>
      </g>
     </g>
     <g id="text_4">
      <!-- 2010 -->
      <g transform="translate(342.30525 397.288275)scale(0.12 -0.12)">
       <use xlink:href="#SourceSansPro-Regular-32"/>
       <use x="49.69999694824219" xlink:href="#SourceSansPro-Regular-30"/>
       <use x="99.39999389648438" xlink:href="#SourceSansPro-Regular-31"/>
       <use x="149.09999084472656" xlink:href="#SourceSansPro-Regular-30"/>
      </g>
     </g>
    </g>
    <g id="xtick_5">
     <g id="line2d_9">
      <g>
       <use x="437.934" xlink:href="#m7403b1685b" y="378.7439"/>
      </g>
     </g>
     <g id="line2d_10">
      <g>
       <use x="437.934" xlink:href="#mf11559f33c" y="33.1439"/>
      </g>
     </g>
     <g id="text_5">
      <!-- 2015 -->
      <g transform="translate(426.00525 397.288275)scale(0.12 -0.12)">
       <use xlink:href="#SourceSansPro-Regular-32"/>
       <use x="49.69999694824219" xlink:href="#SourceSansPro-Regular-30"/>
       <use x="99.39999389648438" xlink:href="#SourceSansPro-Regular-31"/>
       <use x="149.09999084472656" xlink:href="#SourceSansPro-Regular-35"/>
      </g>
     </g>
    </g>
   </g>
   <g id="matplotlib.axis_2">
    <g id="ytick_1">
     <g id="line2d_11">
      <path clip-path="url(#pfd7a52c957)" d="M 47.334 378.7439 
L 493.734 378.7439 
" style="fill:none;stroke:#8fa7bf;stroke-linecap:square;stroke-width:0.5;"/>
     </g>
     <g id="line2d_12">
      <defs>
       <path d="M 0 0 
L 6 0 
" id="meec668017c"/>
      </defs>
      <g>
       <use x="47.334" xlink:href="#meec668017c" y="378.7439"/>
      </g>
     </g>
     <g id="line2d_13">
      <defs>
       <path d="M 0 0 
L -6 0 
" id="m7d07efd595"/>
      </defs>
      <g>
       <use x="493.734" xlink:href="#m7d07efd595" y="378.7439"/>
      </g>
     </g>
     <g id="text_6">
      <!-- −6 -->
      <defs>
       <path d="M 3.40625 29.90625 
L 46.296875 29.90625 
L 46.296875 36.09375 
L 3.40625 36.09375 
z
" id="SourceSansPro-Regular-2212"/>
       <path d="M 26.796875 5.296875 
C 18.703125 5.296875 13.796875 12 12.796875 24.40625 
C 17.09375 30.40625 22.09375 32.796875 26.09375 32.796875 
C 34 32.796875 37.90625 27.59375 37.90625 19.296875 
C 37.90625 10.90625 33.09375 5.296875 26.796875 5.296875 
M 44.5 58.203125 
C 40.90625 62.09375 36 65 29.09375 65 
C 16.40625 65 4.796875 55.09375 4.796875 29.5 
C 4.796875 9 14.296875 -1.203125 26.796875 -1.203125 
C 37.09375 -1.203125 45.703125 7.09375 45.703125 19.296875 
C 45.703125 32.40625 38.5 39 27.5 39 
C 22.296875 39 16.59375 35.90625 12.59375 31 
C 13 51.203125 20.5 58.09375 29.40625 58.09375 
C 33.40625 58.09375 37.296875 56.203125 39.90625 53.09375 
z
" id="SourceSansPro-Regular-36"/>
      </defs>
      <g transform="translate(25.40525 381.7860875)scale(0.12 -0.12)">
       <use xlink:href="#SourceSansPro-Regular-2212"/>
       <use x="49.69999694824219" xlink:href="#SourceSansPro-Regular-36"/>
      </g>
     </g>
    </g>
    <g id="ytick_2">
     <g id="line2d_14">
      <path clip-path="url(#pfd7a52c957)" d="M 47.334 321.1439 
L 493.734 321.1439 
" style="fill:none;stroke:#8fa7bf;stroke-linecap:square;stroke-width:0.5;"/>
     </g>
     <g id="line2d_15">
      <g>
       <use x="47.334" xlink:href="#meec668017c" y="321.1439"/>
      </g>
     </g>
     <g id="line2d_16">
      <g>
       <use x="493.734" xlink:href="#m7d07efd595" y="321.1439"/>
      </g>
     </g>
     <g id="text_7">
      <!-- −4 -->
      <defs>
       <path d="M 10.40625 24.203125 
L 25.296875 46 
C 27.09375 49.09375 28.90625 51.90625 30.5 55 
L 30.90625 55 
C 30.703125 51.59375 30.40625 46.09375 30.40625 42.703125 
L 30.40625 24.203125 
z
M 46.90625 24.203125 
L 38.203125 24.203125 
L 38.203125 63.796875 
L 29 63.796875 
L 1.703125 23 
L 1.703125 17.59375 
L 30.40625 17.59375 
L 30.40625 0 
L 38.203125 0 
L 38.203125 17.59375 
L 46.90625 17.59375 
z
" id="SourceSansPro-Regular-34"/>
      </defs>
      <g transform="translate(25.40525 324.1860875)scale(0.12 -0.12)">
       <use xlink:href="#SourceSansPro-Regular-2212"/>
       <use x="49.69999694824219" xlink:href="#SourceSansPro-Regular-34"/>
      </g>
     </g>
    </g>
    <g id="ytick_3">
     <g id="line2d_17">
      <path clip-path="url(#pfd7a52c957)" d="M 47.334 263.5439 
L 493.734 263.5439 
" style="fill:none;stroke:#8fa7bf;stroke-linecap:square;stroke-width:0.5;"/>
     </g>
     <g id="line2d_18">
      <g>
       <use x="47.334" xlink:href="#meec668017c" y="263.5439"/>
      </g>
     </g>
     <g id="line2d_19">
      <g>
       <use x="493.734" xlink:href="#m7d07efd595" y="263.5439"/>
      </g>
     </g>
     <g id="text_8">
      <!-- −2 -->
      <g transform="translate(25.40525 266.5860875)scale(0.12 -0.12)">
       <use xlink:href="#SourceSansPro-Regular-2212"/>
       <use x="49.69999694824219" xlink:href="#SourceSansPro-Regular-32"/>
      </g>
     </g>
    </g>
    <g id="ytick_4">
     <g id="line2d_20">
      <path clip-path="url(#pfd7a52c957)" d="M 47.334 205.9439 
L 493.734 205.9439 
" style="fill:none;stroke:#8fa7bf;stroke-linecap:square;stroke-width:0.5;"/>
     </g>
     <g id="line2d_21">
      <g>
       <use x="47.334" xlink:href="#meec668017c" y="205.9439"/>
      </g>
     </g>
     <g id="line2d_22">
      <g>
       <use x="493.734" xlink:href="#m7d07efd595" y="205.9439"/>
      </g>
     </g>
     <g id="text_9">
      <!-- 0 -->
      <g transform="translate(31.369625 208.9860875)scale(0.12 -0.12)">
       <use xlink:href="#SourceSansPro-Regular-30"/>
      </g>
     </g>
    </g>
    <g id="ytick_5">
     <g id="line2d_23">
      <path clip-path="url(#pfd7a52c957)" d="M 47.334 148.3439 
L 493.734 148.3439 
" style="fill:none;stroke:#8fa7bf;stroke-linecap:square;stroke-width:0.5;"/>
     </g>
     <g id="line2d_24">
      <g>
       <use x="47.334" xlink:href="#meec668017c" y="148.3439"/>
      </g>
     </g>
     <g id="line2d_25">
      <g>
       <use x="493.734" xlink:href="#m7d07efd595" y="148.3439"/>
      </g>
     </g>
     <g id="text_10">
      <!-- 2 -->
      <g transform="translate(31.369625 151.3860875)scale(0.12 -0.12)">
       <use xlink:href="#SourceSansPro-Regular-32"/>
      </g>
     </g>
    </g>
    <g id="ytick_6">
     <g id="line2d_26">
      <path clip-path="url(#pfd7a52c957)" d="M 47.334 90.7439 
L 493.734 90.7439 
" style="fill:none;stroke:#8fa7bf;stroke-linecap:square;stroke-width:0.5;"/>
     </g>
     <g id="line2d_27">
      <g>
       <use x="47.334" xlink:href="#meec668017c" y="90.7439"/>
      </g>
     </g>
     <g id="line2d_28">
      <g>
       <use x="493.734" xlink:href="#m7d07efd595" y="90.7439"/>
      </g>
     </g>
     <g id="text_11">
      <!-- 4 -->
      <g transform="translate(31.369625 93.7860875)scale(0.12 -0.12)">
       <use xlink:href="#SourceSansPro-Regular-34"/>
      </g>
     </g>
    </g>
    <g id="ytick_7">
     <g id="line2d_29">
      <path clip-path="url(#pfd7a52c957)" d="M 47.334 33.1439 
L 493.734 33.1439 
" style="fill:none;stroke:#8fa7bf;stroke-linecap:square;stroke-width:0.5;"/>
     </g>
     <g id="line2d_30">
      <g>
       <use x="47.334" xlink:href="#meec668017c" y="33.1439"/>
      </g>
     </g>
     <g id="line2d_31">
      <g>
       <use x="493.734" xlink:href="#m7d07efd595" y="33.1439"/>
      </g>
     </g>
     <g id="text_12">
      <!-- 6 -->
      <g transform="translate(31.369625 36.1860875)scale(0.12 -0.12)">
       <use xlink:href="#SourceSansPro-Regular-36"/>
      </g>
     </g>
    </g>
    <g id="text_13">
     <!-- Votes (millions) -->
     <defs>
      <path d="M 21.40625 -17.59375 
L 26.5 -15.203125 
C 18.796875 -2.5 15 12.59375 15 27.796875 
C 15 43 18.796875 58.09375 26.5 70.796875 
L 21.40625 73.203125 
C 13.09375 59.796875 8.203125 45.40625 8.203125 27.796875 
C 8.203125 10.203125 13.09375 -4.203125 21.40625 -17.59375 
" id="SourceSansPro-Regular-28"/>
      <path d="M 4.59375 24.203125 
C 4.59375 8.296875 14.90625 -1.203125 27.90625 -1.203125 
C 34.5 -1.203125 39.703125 1.09375 43.90625 3.796875 
L 41 9.203125 
C 37.40625 6.90625 33.5 5.40625 28.90625 5.40625 
C 19.59375 5.40625 13.296875 12 12.703125 22.5 
L 45.5 22.5 
C 45.703125 23.703125 45.796875 25.296875 45.796875 27 
C 45.796875 40.90625 38.796875 49.796875 26.40625 49.796875 
C 15.296875 49.796875 4.59375 40.09375 4.59375 24.203125 
M 12.59375 27.90625 
C 13.59375 37.703125 19.796875 43.296875 26.59375 43.296875 
C 34.203125 43.296875 38.59375 37.796875 38.59375 27.90625 
z
" id="SourceSansPro-Regular-65"/>
      <path d="M 8.203125 0 
L 16.40625 0 
L 16.40625 35.203125 
C 21.296875 40.09375 24.703125 42.703125 29.703125 42.703125 
C 36.09375 42.703125 38.90625 38.796875 38.90625 29.703125 
L 38.90625 0 
L 47.09375 0 
L 47.09375 30.796875 
C 47.09375 43.203125 42.5 49.796875 32.296875 49.796875 
C 25.59375 49.796875 20.59375 46.203125 16 41.59375 
L 15.703125 41.59375 
L 15 48.59375 
L 8.203125 48.59375 
z
" id="SourceSansPro-Regular-6e"/>
      <path d="M 12.40625 58.59375 
C 15.59375 58.59375 18.09375 60.796875 18.09375 63.90625 
C 18.09375 67.09375 15.59375 69.203125 12.40625 69.203125 
C 9.203125 69.203125 6.703125 67.09375 6.703125 63.90625 
C 6.703125 60.796875 9.203125 58.59375 12.40625 58.59375 
M 8.203125 0 
L 16.40625 0 
L 16.40625 48.59375 
L 8.203125 48.59375 
z
" id="SourceSansPro-Regular-69"/>
      <path d="M 8.203125 9.796875 
C 8.203125 2.703125 10.703125 -1.203125 16.90625 -1.203125 
C 19.09375 -1.203125 20.5 -0.90625 21.59375 -0.40625 
L 20.5 5.796875 
C 19.59375 5.59375 19.203125 5.59375 18.703125 5.59375 
C 17.5 5.59375 16.40625 6.59375 16.40625 9.203125 
L 16.40625 71.203125 
L 8.203125 71.203125 
z
" id="SourceSansPro-Regular-6c"/>
      <path d="M 21 0 
L 30.703125 0 
L 51.5 65.59375 
L 43 65.59375 
L 32.5 30.203125 
C 30.203125 22.40625 28.59375 16.203125 26.203125 8.5 
L 25.796875 8.5 
C 23.296875 16.203125 21.796875 22.40625 19.40625 30.203125 
L 8.90625 65.59375 
L 0 65.59375 
z
" id="SourceSansPro-Regular-56"/>
      <path d="M 3.796875 -15.203125 
L 8.90625 -17.59375 
C 17.203125 -4.203125 22.09375 10.203125 22.09375 27.796875 
C 22.09375 45.40625 17.203125 59.796875 8.90625 73.203125 
L 3.796875 70.796875 
C 11.5 58.09375 15.296875 43 15.296875 27.796875 
C 15.296875 12.59375 11.5 -2.5 3.796875 -15.203125 
" id="SourceSansPro-Regular-29"/>
      <path d="M 9.59375 15 
C 9.59375 5.40625 13.09375 -1.203125 23.5 -1.203125 
C 26.5 -1.203125 29.796875 -0.296875 32.5 0.59375 
L 30.90625 6.796875 
C 29.296875 6.203125 27.09375 5.5 25.40625 5.5 
C 19.796875 5.5 17.90625 8.90625 17.90625 14.90625 
L 17.90625 41.90625 
L 31 41.90625 
L 31 48.59375 
L 17.90625 48.59375 
L 17.90625 62.203125 
L 11 62.203125 
L 10 48.59375 
L 2.40625 48.09375 
L 2.40625 41.90625 
L 9.59375 41.90625 
z
" id="SourceSansPro-Regular-74"/>
      <path d="M 2.796875 5.5 
C 7.40625 1.703125 14 -1.203125 20.90625 -1.203125 
C 32.40625 -1.203125 38.703125 5.40625 38.703125 13.296875 
C 38.703125 22.5 30.90625 25.40625 23.90625 28 
C 18.40625 30.09375 13.09375 31.796875 13.09375 36.40625 
C 13.09375 40.09375 15.90625 43.40625 22 43.40625 
C 26.296875 43.40625 29.796875 41.59375 33.09375 39.09375 
L 37 44.296875 
C 33.296875 47.296875 28 49.796875 21.90625 49.796875 
C 11.40625 49.796875 5.203125 43.796875 5.203125 36 
C 5.203125 27.796875 12.796875 24.5 19.703125 22 
C 25 20 30.796875 17.796875 30.796875 12.796875 
C 30.796875 8.59375 27.59375 5.203125 21.203125 5.203125 
C 15.40625 5.203125 11.09375 7.59375 6.90625 11 
z
" id="SourceSansPro-Regular-73"/>
      <path id="SourceSansPro-Regular-20"/>
      <path d="M 8.203125 0 
L 16.40625 0 
L 16.40625 35.203125 
C 20.90625 40.203125 25 42.703125 28.59375 42.703125 
C 34.796875 42.703125 37.703125 38.796875 37.703125 29.703125 
L 37.703125 0 
L 45.90625 0 
L 45.90625 35.203125 
C 50.40625 40.203125 54.296875 42.703125 58.09375 42.703125 
C 64.203125 42.703125 67.09375 38.796875 67.09375 29.703125 
L 67.09375 0 
L 75.296875 0 
L 75.296875 30.796875 
C 75.296875 43.203125 70.5 49.796875 60.5 49.796875 
C 54.59375 49.796875 49.59375 46 44.5 40.5 
C 42.5 46.296875 38.5 49.796875 31.09375 49.796875 
C 25.296875 49.796875 20.203125 46.203125 16 41.59375 
L 15.703125 41.59375 
L 15 48.59375 
L 8.203125 48.59375 
z
" id="SourceSansPro-Regular-6d"/>
      <path d="M 4.59375 24.203125 
C 4.59375 8.09375 15.203125 -1.203125 27.09375 -1.203125 
C 39 -1.203125 49.59375 8.09375 49.59375 24.203125 
C 49.59375 40.5 39 49.796875 27.09375 49.796875 
C 15.203125 49.796875 4.59375 40.5 4.59375 24.203125 
M 13.09375 24.203125 
C 13.09375 35.40625 18.796875 43 27.09375 43 
C 35.5 43 41.09375 35.40625 41.09375 24.203125 
C 41.09375 13.09375 35.5 5.59375 27.09375 5.59375 
C 18.796875 5.59375 13.09375 13.09375 13.09375 24.203125 
" id="SourceSansPro-Regular-6f"/>
     </defs>
     <g transform="translate(17.45325 252.434525)rotate(-90.0)scale(0.144 -0.144)">
      <use xlink:href="#SourceSansPro-Regular-56"/>
      <use x="51.49998474121094" xlink:href="#SourceSansPro-Regular-6f"/>
      <use x="105.69998168945312" xlink:href="#SourceSansPro-Regular-74"/>
      <use x="139.49996948242188" xlink:href="#SourceSansPro-Regular-65"/>
      <use x="189.09996032714844" xlink:href="#SourceSansPro-Regular-73"/>
      <use x="230.9999542236328" xlink:href="#SourceSansPro-Regular-20"/>
      <use x="251.199951171875" xlink:href="#SourceSansPro-Regular-28"/>
      <use x="281.49993896484375" xlink:href="#SourceSansPro-Regular-6d"/>
      <use x="364.3999328613281" xlink:href="#SourceSansPro-Regular-69"/>
      <use x="388.9999237060547" xlink:href="#SourceSansPro-Regular-6c"/>
      <use x="414.4999084472656" xlink:href="#SourceSansPro-Regular-6c"/>
      <use x="439.99989318847656" xlink:href="#SourceSansPro-Regular-69"/>
      <use x="464.5998840332031" xlink:href="#SourceSansPro-Regular-6f"/>
      <use x="518.7998809814453" xlink:href="#SourceSansPro-Regular-6e"/>
      <use x="573.4998779296875" xlink:href="#SourceSansPro-Regular-73"/>
      <use x="615.3998718261719" xlink:href="#SourceSansPro-Regular-29"/>
     </g>
    </g>
   </g>
   <g id="patch_3">
    <path clip-path="url(#pfd7a52c957)" d="M 75.234 205.9439 
L 94.764 205.9439 
L 94.764 149.4959 
L 75.234 149.4959 
z
" style="fill:#bd3338;"/>
   </g>
   <g id="patch_4">
    <path clip-path="url(#pfd7a52c957)" d="M 158.934 286.5839 
L 178.464 286.5839 
L 178.464 205.9439 
L 158.934 205.9439 
z
" style="fill:#bd3338;"/>
   </g>
   <g id="patch_5">
    <path clip-path="url(#pfd7a52c957)" d="M 242.634 239.6399 
L 262.164 239.6399 
L 262.164 205.9439 
L 242.634 205.9439 
z
" style="fill:#bd3338;"/>
   </g>
   <g id="patch_6">
    <path clip-path="url(#pfd7a52c957)" d="M 326.334 233.0159 
L 345.864 233.0159 
L 345.864 205.9439 
L 326.334 205.9439 
z
" style="fill:#bd3338;"/>
   </g>
   <g id="patch_7">
    <path clip-path="url(#pfd7a52c957)" d="M 410.034 205.9439 
L 429.564 205.9439 
L 429.564 184.6319 
L 410.034 184.6319 
z
" style="fill:#bd3338;"/>
   </g>
   <g id="patch_8">
    <path clip-path="url(#pfd7a52c957)" d="M 94.764 329.2079 
L 114.294 329.2079 
L 114.294 205.9439 
L 94.764 205.9439 
z
" style="fill:#d7dbdf;"/>
   </g>
   <g id="patch_9">
    <path clip-path="url(#pfd7a52c957)" d="M 178.464 267.2879 
L 197.994 267.2879 
L 197.994 205.9439 
L 178.464 205.9439 
z
" style="fill:#d7dbdf;"/>
   </g>
   <g id="patch_10">
    <path clip-path="url(#pfd7a52c957)" d="M 262.164 205.9439 
L 281.694 205.9439 
L 281.694 149.7839 
L 262.164 149.7839 
z
" style="fill:#d7dbdf;"/>
   </g>
   <g id="patch_11">
    <path clip-path="url(#pfd7a52c957)" d="M 345.864 205.9439 
L 365.394 205.9439 
L 365.394 105.4319 
L 345.864 105.4319 
z
" style="fill:#d7dbdf;"/>
   </g>
   <g id="patch_12">
    <path clip-path="url(#pfd7a52c957)" d="M 429.564 205.9439 
L 449.094 205.9439 
L 449.094 198.1679 
L 429.564 198.1679 
z
" style="fill:#d7dbdf;"/>
   </g>
   <g id="patch_13">
    <path clip-path="url(#pfd7a52c957)" d="M 114.294 272.7599 
L 133.824 272.7599 
L 133.824 205.9439 
L 114.294 205.9439 
z
" style="fill:#afb7bf;"/>
   </g>
   <g id="patch_14">
    <path clip-path="url(#pfd7a52c957)" d="M 197.994 347.9279 
L 217.524 347.9279 
L 217.524 205.9439 
L 197.994 205.9439 
z
" style="fill:#afb7bf;"/>
   </g>
   <g id="patch_15">
    <path clip-path="url(#pfd7a52c957)" d="M 281.694 205.9439 
L 301.224 205.9439 
L 301.224 183.4799 
L 281.694 183.4799 
z
" style="fill:#afb7bf;"/>
   </g>
   <g id="patch_16">
    <path clip-path="url(#pfd7a52c957)" d="M 365.394 205.9439 
L 384.924 205.9439 
L 384.924 132.5039 
L 365.394 132.5039 
z
" style="fill:#afb7bf;"/>
   </g>
   <g id="patch_17">
    <path clip-path="url(#pfd7a52c957)" d="M 449.094 205.9439 
L 468.624 205.9439 
L 468.624 176.8559 
L 449.094 176.8559 
z
" style="fill:#afb7bf;"/>
   </g>
   <g id="text_14">
    <!-- Change in popular vote on previous election 1997–2015 -->
    <defs>
     <path d="M 16.203125 4.40625 
C 20.703125 0.90625 25.203125 -1.203125 29.703125 -1.203125 
C 40.796875 -1.203125 50.703125 8.5 50.703125 25 
C 50.703125 40.09375 44 49.796875 31.5 49.796875 
C 25.796875 49.796875 20.40625 46.703125 16 43 
L 15.703125 43 
L 15 48.59375 
L 8.203125 48.59375 
L 8.203125 -20.5 
L 16.40625 -20.5 
L 16.40625 -4.09375 
z
M 16.40625 10.796875 
L 16.40625 36.296875 
C 21.203125 40.59375 25.296875 42.90625 29.40625 42.90625 
C 38.59375 42.90625 42.203125 35.703125 42.203125 25 
C 42.203125 13 36.296875 5.703125 28.296875 5.703125 
C 25.09375 5.703125 20.796875 7.09375 16.40625 10.796875 
" id="SourceSansPro-Regular-70"/>
     <path d="M 7.5 17.796875 
C 7.5 5.40625 12.09375 -1.203125 22.40625 -1.203125 
C 29.09375 -1.203125 33.90625 2.296875 38.40625 7.59375 
L 38.703125 7.59375 
L 39.40625 0 
L 46.203125 0 
L 46.203125 48.59375 
L 38 48.59375 
L 38 14.09375 
C 33.40625 8.40625 29.90625 5.90625 24.90625 5.90625 
C 18.5 5.90625 15.796875 9.796875 15.796875 18.90625 
L 15.796875 48.59375 
L 7.5 48.59375 
z
" id="SourceSansPro-Regular-75"/>
     <path d="M 8.203125 0 
L 16.40625 0 
L 16.40625 35.203125 
C 21.296875 40.09375 24.703125 42.703125 29.703125 42.703125 
C 36.09375 42.703125 38.90625 38.796875 38.90625 29.703125 
L 38.90625 0 
L 47.09375 0 
L 47.09375 30.796875 
C 47.09375 43.203125 42.5 49.796875 32.296875 49.796875 
C 25.59375 49.796875 20.703125 46.203125 16.09375 41.796875 
L 16.40625 51.796875 
L 16.40625 71.203125 
L 8.203125 71.203125 
z
" id="SourceSansPro-Regular-68"/>
     <path d="M 4.59375 24.203125 
C 4.59375 8.09375 14.5 -1.203125 27.40625 -1.203125 
C 33.203125 -1.203125 38.796875 1.203125 43.203125 5.09375 
L 39.5 10.5 
C 36.59375 7.90625 32.703125 5.59375 28.09375 5.59375 
C 19.203125 5.59375 13.09375 13.09375 13.09375 24.203125 
C 13.09375 35.40625 19.5 43 28.296875 43 
C 32.203125 43 35.203125 41.203125 38.09375 38.703125 
L 42.203125 44 
C 38.90625 47.09375 34.40625 49.796875 28 49.796875 
C 15.5 49.796875 4.59375 40.5 4.59375 24.203125 
" id="SourceSansPro-Regular-63"/>
     <path d="M 18.703125 0 
L 28.296875 0 
L 45.5 48.59375 
L 37.40625 48.59375 
L 28.203125 21 
C 26.796875 16.203125 25.203125 11.296875 23.796875 6.703125 
L 23.40625 6.703125 
C 21.90625 11.296875 20.296875 16.203125 18.90625 21 
L 9.703125 48.59375 
L 1.203125 48.59375 
z
" id="SourceSansPro-Regular-76"/>
     <path d="M 4.09375 22.296875 
L 43.90625 22.296875 
L 43.90625 28 
L 4.09375 28 
z
" id="SourceSansPro-Regular-2013"/>
     <path d="M 5.203125 32.796875 
C 5.203125 11.40625 17.40625 -1.203125 33.90625 -1.203125 
C 42.296875 -1.203125 48.703125 2.296875 53.90625 8.296875 
L 49.203125 13.40625 
C 45 8.703125 40.40625 6.09375 34.09375 6.09375 
C 21.703125 6.09375 13.796875 16.5 13.796875 33 
C 13.796875 49.296875 22 59.5 34.5 59.5 
C 40 59.5 44.203125 57.09375 47.59375 53.40625 
L 52.296875 58.703125 
C 48.5 63 42.296875 66.796875 34.40625 66.796875 
C 17.59375 66.796875 5.203125 53.90625 5.203125 32.796875 
" id="SourceSansPro-Regular-43"/>
     <path d="M 8.203125 0 
L 16.40625 0 
L 16.40625 31.203125 
C 19.703125 39.40625 24.59375 42.40625 28.703125 42.40625 
C 30.703125 42.40625 31.796875 42.09375 33.40625 41.59375 
L 35 48.796875 
C 33.40625 49.5 31.90625 49.796875 29.796875 49.796875 
C 24.296875 49.796875 19.296875 45.90625 16 39.796875 
L 15.703125 39.796875 
L 15 48.59375 
L 8.203125 48.59375 
z
" id="SourceSansPro-Regular-72"/>
     <path d="M 11.703125 -8.203125 
C 11.703125 -5.40625 13.203125 -2.5 16.703125 0 
C 18.796875 -0.59375 21.09375 -0.796875 23 -0.796875 
L 31.40625 -0.796875 
C 37.703125 -0.796875 41.203125 -2.296875 41.203125 -6.796875 
C 41.203125 -11.90625 35.09375 -16.703125 25.796875 -16.703125 
C 17 -16.703125 11.703125 -13.40625 11.703125 -8.203125 
M 4.5 -9.296875 
C 4.5 -17.703125 12.703125 -22.40625 24.59375 -22.40625 
C 39.703125 -22.40625 49.203125 -14.59375 49.203125 -5.59375 
C 49.203125 2.5 43.5 6 32.203125 6 
L 22.796875 6 
C 16.203125 6 14.203125 8.203125 14.203125 11.296875 
C 14.203125 14 15.59375 15.59375 17.296875 17.09375 
C 19.5 16 22.203125 15.40625 24.59375 15.40625 
C 34.5 15.40625 42.40625 21.90625 42.40625 32.296875 
C 42.40625 36.40625 40.703125 40.09375 38.40625 42.296875 
L 48.40625 42.296875 
L 48.40625 48.59375 
L 31.5 48.59375 
C 29.703125 49.296875 27.296875 49.796875 24.59375 49.796875 
C 14.703125 49.796875 6.296875 43.09375 6.296875 32.5 
C 6.296875 26.703125 9.40625 22 12.59375 19.40625 
L 12.59375 19 
C 10.09375 17.296875 7.296875 14.09375 7.296875 10 
C 7.296875 6.203125 9.203125 3.59375 11.59375 2.09375 
L 11.59375 1.703125 
C 7.203125 -1.296875 4.5 -5.203125 4.5 -9.296875 
M 24.59375 20.90625 
C 19 20.90625 14.296875 25.40625 14.296875 32.5 
C 14.296875 39.59375 18.90625 43.796875 24.59375 43.796875 
C 30.296875 43.796875 34.90625 39.59375 34.90625 32.5 
C 34.90625 25.40625 30.203125 20.90625 24.59375 20.90625 
" id="SourceSansPro-Regular-67"/>
     <path d="M 5.796875 12.59375 
C 5.796875 3.90625 11.90625 -1.203125 20.09375 -1.203125 
C 26.09375 -1.203125 31.5 2 36.203125 5.796875 
L 36.40625 5.796875 
L 37.09375 0 
L 43.90625 0 
L 43.90625 29.796875 
C 43.90625 41.90625 38.90625 49.796875 27 49.796875 
C 19.203125 49.796875 12.40625 46.40625 7.90625 43.5 
L 11.203125 37.796875 
C 15 40.40625 20 43 25.703125 43 
C 33.59375 43 35.703125 37 35.703125 30.796875 
C 15 28.5 5.796875 23.203125 5.796875 12.59375 
M 13.90625 13.203125 
C 13.90625 19.40625 19.40625 23.40625 35.703125 25.40625 
L 35.703125 11.90625 
C 31 7.703125 27.09375 5.40625 22.40625 5.40625 
C 17.59375 5.40625 13.90625 7.703125 13.90625 13.203125 
" id="SourceSansPro-Regular-61"/>
    </defs>
    <g transform="translate(71.1957 19.5039)scale(0.1728 -0.1728)">
     <use xlink:href="#SourceSansPro-Regular-43"/>
     <use x="57.09999084472656" xlink:href="#SourceSansPro-Regular-68"/>
     <use x="111.49998474121094" xlink:href="#SourceSansPro-Regular-61"/>
     <use x="162.69998168945312" xlink:href="#SourceSansPro-Regular-6e"/>
     <use x="217.3999786376953" xlink:href="#SourceSansPro-Regular-67"/>
     <use x="267.7999725341797" xlink:href="#SourceSansPro-Regular-65"/>
     <use x="317.39996337890625" xlink:href="#SourceSansPro-Regular-20"/>
     <use x="337.59996032714844" xlink:href="#SourceSansPro-Regular-69"/>
     <use x="362.199951171875" xlink:href="#SourceSansPro-Regular-6e"/>
     <use x="416.8999481201172" xlink:href="#SourceSansPro-Regular-20"/>
     <use x="437.0999450683594" xlink:href="#SourceSansPro-Regular-70"/>
     <use x="492.5999298095703" xlink:href="#SourceSansPro-Regular-6f"/>
     <use x="546.7999267578125" xlink:href="#SourceSansPro-Regular-70"/>
     <use x="602.2999114990234" xlink:href="#SourceSansPro-Regular-75"/>
     <use x="656.6999053955078" xlink:href="#SourceSansPro-Regular-6c"/>
     <use x="682.1998901367188" xlink:href="#SourceSansPro-Regular-61"/>
     <use x="733.3998870849609" xlink:href="#SourceSansPro-Regular-72"/>
     <use x="768.0998840332031" xlink:href="#SourceSansPro-Regular-20"/>
     <use x="788.2998809814453" xlink:href="#SourceSansPro-Regular-76"/>
     <use x="834.9998779296875" xlink:href="#SourceSansPro-Regular-6f"/>
     <use x="889.1998748779297" xlink:href="#SourceSansPro-Regular-74"/>
     <use x="922.9998626708984" xlink:href="#SourceSansPro-Regular-65"/>
     <use x="972.599853515625" xlink:href="#SourceSansPro-Regular-20"/>
     <use x="992.7998504638672" xlink:href="#SourceSansPro-Regular-6f"/>
     <use x="1046.9998474121094" xlink:href="#SourceSansPro-Regular-6e"/>
     <use x="1101.6998443603516" xlink:href="#SourceSansPro-Regular-20"/>
     <use x="1121.8998413085938" xlink:href="#SourceSansPro-Regular-70"/>
     <use x="1177.3998260498047" xlink:href="#SourceSansPro-Regular-72"/>
     <use x="1212.0998229980469" xlink:href="#SourceSansPro-Regular-65"/>
     <use x="1261.6998138427734" xlink:href="#SourceSansPro-Regular-76"/>
     <use x="1308.3998107910156" xlink:href="#SourceSansPro-Regular-69"/>
     <use x="1332.9998016357422" xlink:href="#SourceSansPro-Regular-6f"/>
     <use x="1387.1997985839844" xlink:href="#SourceSansPro-Regular-75"/>
     <use x="1441.5997924804688" xlink:href="#SourceSansPro-Regular-73"/>
     <use x="1483.4997863769531" xlink:href="#SourceSansPro-Regular-20"/>
     <use x="1503.6997833251953" xlink:href="#SourceSansPro-Regular-65"/>
     <use x="1553.2997741699219" xlink:href="#SourceSansPro-Regular-6c"/>
     <use x="1578.7997589111328" xlink:href="#SourceSansPro-Regular-65"/>
     <use x="1628.3997497558594" xlink:href="#SourceSansPro-Regular-63"/>
     <use x="1673.999740600586" xlink:href="#SourceSansPro-Regular-74"/>
     <use x="1707.7997283935547" xlink:href="#SourceSansPro-Regular-69"/>
     <use x="1732.3997192382812" xlink:href="#SourceSansPro-Regular-6f"/>
     <use x="1786.5997161865234" xlink:href="#SourceSansPro-Regular-6e"/>
     <use x="1841.2997131347656" xlink:href="#SourceSansPro-Regular-20"/>
     <use x="1861.4997100830078" xlink:href="#SourceSansPro-Regular-31"/>
     <use x="1911.19970703125" xlink:href="#SourceSansPro-Regular-39"/>
     <use x="1960.8997039794922" xlink:href="#SourceSansPro-Regular-39"/>
     <use x="2010.5997009277344" xlink:href="#SourceSansPro-Regular-37"/>
     <use x="2060.2996978759766" xlink:href="#SourceSansPro-Regular-2013"/>
     <use x="2108.2996826171875" xlink:href="#SourceSansPro-Regular-32"/>
     <use x="2157.9996795654297" xlink:href="#SourceSansPro-Regular-30"/>
     <use x="2207.699676513672" xlink:href="#SourceSansPro-Regular-31"/>
     <use x="2257.399673461914" xlink:href="#SourceSansPro-Regular-35"/>
    </g>
   </g>
   <g id="legend_1">
    <g id="patch_18">
     <path d="M 54.534 105.87965 
L 178.851 105.87965 
L 178.851 40.3439 
L 54.534 40.3439 
z
" style="fill:#f7f8f9;stroke:#000000;stroke-linejoin:miter;"/>
    </g>
    <g id="patch_19">
     <path d="M 60.294 56.35715 
L 89.094 56.35715 
L 89.094 46.27715 
L 60.294 46.27715 
z
" style="fill:#bd3338;"/>
    </g>
    <g id="text_15">
     <!-- Labour -->
     <defs>
      <path d="M 9 0 
L 46 0 
L 46 7.09375 
L 17.296875 7.09375 
L 17.296875 65.59375 
L 9 65.59375 
z
" id="SourceSansPro-Regular-4c"/>
      <path d="M 8.203125 0 
L 14.796875 0 
L 15.5 4.796875 
L 15.796875 4.796875 
C 20.09375 1 25.203125 -1.203125 29.703125 -1.203125 
C 40.796875 -1.203125 50.703125 8.5 50.703125 25.09375 
C 50.703125 40.09375 44 49.796875 31.40625 49.796875 
C 26 49.796875 20.59375 46.90625 16.203125 43 
L 16.40625 51.796875 
L 16.40625 71.203125 
L 8.203125 71.203125 
z
M 16.40625 10.796875 
L 16.40625 36.296875 
C 21 40.59375 25.296875 42.90625 29.40625 42.90625 
C 38.59375 42.90625 42.203125 35.703125 42.203125 25 
C 42.203125 13 36.296875 5.703125 28.296875 5.703125 
C 25.09375 5.703125 20.703125 7.09375 16.40625 10.796875 
" id="SourceSansPro-Regular-62"/>
     </defs>
     <g transform="translate(100.614 56.35715)scale(0.144 -0.144)">
      <use xlink:href="#SourceSansPro-Regular-4c"/>
      <use x="48.59999084472656" xlink:href="#SourceSansPro-Regular-61"/>
      <use x="99.79998779296875" xlink:href="#SourceSansPro-Regular-62"/>
      <use x="155.2999725341797" xlink:href="#SourceSansPro-Regular-6f"/>
      <use x="209.49996948242188" xlink:href="#SourceSansPro-Regular-75"/>
      <use x="263.89996337890625" xlink:href="#SourceSansPro-Regular-72"/>
     </g>
    </g>
    <g id="patch_20">
     <path d="M 60.294 76.7624 
L 89.094 76.7624 
L 89.094 66.6824 
L 60.294 66.6824 
z
" style="fill:#d7dbdf;"/>
    </g>
    <g id="text_16">
     <!-- Non-Labour -->
     <defs>
      <path d="M 4.09375 21.90625 
L 27.09375 21.90625 
L 27.09375 28.203125 
L 4.09375 28.203125 
z
" id="SourceSansPro-Regular-2d"/>
      <path d="M 9 0 
L 16.90625 0 
L 16.90625 34.296875 
C 16.90625 41.203125 16.296875 48.203125 15.796875 54.796875 
L 16.203125 54.796875 
L 23.296875 41.296875 
L 47.09375 0 
L 55.703125 0 
L 55.703125 65.59375 
L 47.796875 65.59375 
L 47.796875 31.703125 
C 47.796875 24.796875 48.40625 17.40625 48.796875 10.796875 
L 48.40625 10.796875 
L 41.296875 24.40625 
L 17.59375 65.59375 
L 9 65.59375 
z
" id="SourceSansPro-Regular-4e"/>
     </defs>
     <g transform="translate(100.614 76.7624)scale(0.144 -0.144)">
      <use xlink:href="#SourceSansPro-Regular-4e"/>
      <use x="64.69999694824219" xlink:href="#SourceSansPro-Regular-6f"/>
      <use x="118.89999389648438" xlink:href="#SourceSansPro-Regular-6e"/>
      <use x="173.59999084472656" xlink:href="#SourceSansPro-Regular-2d"/>
      <use x="204.69998168945312" xlink:href="#SourceSansPro-Regular-4c"/>
      <use x="253.2999725341797" xlink:href="#SourceSansPro-Regular-61"/>
      <use x="304.4999694824219" xlink:href="#SourceSansPro-Regular-62"/>
      <use x="359.9999542236328" xlink:href="#SourceSansPro-Regular-6f"/>
      <use x="414.199951171875" xlink:href="#SourceSansPro-Regular-75"/>
      <use x="468.5999450683594" xlink:href="#SourceSansPro-Regular-72"/>
     </g>
    </g>
    <g id="patch_21">
     <path d="M 60.294 97.16765 
L 89.094 97.16765 
L 89.094 87.08765 
L 60.294 87.08765 
z
" style="fill:#afb7bf;"/>
    </g>
    <g id="text_17">
     <!-- All votes -->
     <defs>
      <path d="M 17.203125 26.703125 
L 20.296875 36.703125 
C 22.703125 44 24.796875 51.203125 26.796875 58.796875 
L 27.203125 58.796875 
C 29.296875 51.203125 31.40625 44 33.796875 36.703125 
L 36.90625 26.703125 
z
M 45.203125 0 
L 54.09375 0 
L 31.90625 65.59375 
L 22.5 65.59375 
L 0.296875 0 
L 8.796875 0 
L 15.09375 20 
L 39 20 
z
" id="SourceSansPro-Regular-41"/>
     </defs>
     <g transform="translate(100.614 97.16765)scale(0.144 -0.144)">
      <use xlink:href="#SourceSansPro-Regular-41"/>
      <use x="54.399993896484375" xlink:href="#SourceSansPro-Regular-6c"/>
      <use x="79.89997863769531" xlink:href="#SourceSansPro-Regular-6c"/>
      <use x="105.39996337890625" xlink:href="#SourceSansPro-Regular-20"/>
      <use x="125.59996032714844" xlink:href="#SourceSansPro-Regular-76"/>
      <use x="172.29995727539062" xlink:href="#SourceSansPro-Regular-6f"/>
      <use x="226.4999542236328" xlink:href="#SourceSansPro-Regular-74"/>
      <use x="260.29994201660156" xlink:href="#SourceSansPro-Regular-65"/>
      <use x="309.8999328613281" xlink:href="#SourceSansPro-Regular-73"/>
     </g>
    </g>
   </g>
  </g>
 </g>
 <defs>
  <clipPath id="pfd7a52c957">
   <rect height="345.6" width="446.4" x="47.334" y="33.1439"/>
  </clipPath>
 </defs>
</svg>
